<?xml version="1.0" encoding="UTF-8"?>
<svg xmlns="http://www.w3.org/2000/svg" xmlns:xlink="http://www.w3.org/1999/xlink" width="1190.25pt" height="1683.749945pt" viewBox="0 0 1190.25 1683.749945" version="1.2">
<defs>
<clipPath id="clip1">
  <path d="M 0 0.40625 L 1189.5 0.40625 L 1189.5 1683.09375 L 0 1683.09375 Z M 0 0.40625 "/>
</clipPath>
<filter id="alpha" filterUnits="objectBoundingBox" x="0%" y="0%" width="100%" height="100%">
  <feColorMatrix type="matrix" in="SourceGraphic" values="0 0 0 0 1 0 0 0 0 1 0 0 0 0 1 0 0 0 1 0"/>
</filter>
<mask id="mask0">
  <g filter="url(#alpha)">
<rect x="0" y="0" width="1190.25" height="1683.749945" style="fill:rgb(0%,0%,0%);fill-opacity:0.949;stroke:none;"/>
  </g>
</mask>
<clipPath id="clip3">
  <path d="M 0.878906 3 L 575.105469 3 L 575.105469 839.816406 L 0.878906 839.816406 Z M 0.878906 3 "/>
</clipPath>
<clipPath id="clip4">
  <path d="M 12 0.742188 L 527 0.742188 L 527 381 L 12 381 Z M 12 0.742188 "/>
</clipPath>
<clipPath id="clip2">
  <rect x="0" y="0" width="577" height="840"/>
</clipPath>
<g id="surface5" clip-path="url(#clip2)">
<path style=" stroke:none;fill-rule:nonzero;fill:rgb(100%,100%,100%);fill-opacity:1;" d="M 550.648438 163.347656 C 541.304688 151.089844 529.207031 145.84375 516.445312 146.171875 C 504.507812 146.464844 491.972656 151.601562 480.496094 160.375 L 338.453125 259.90625 C 334.074219 259.128906 329.523438 258.757812 324.875 258.875 L 220.042969 261.441406 C 196.660156 261.992188 176.496094 274.320312 165.464844 292.273438 L 34.828125 433.597656 C 13.65625 454.59375 7.140625 482.464844 28.070312 503.703125 C 37.355469 513.136719 47.976562 517.160156 58.773438 516.894531 C 72.359375 516.582031 86.214844 509.46875 97.996094 497.78125 L 159.351562 441.988281 L 160.992188 509.359375 L 112.8125 729.308594 L 108.28125 749.917969 C 107.359375 753.441406 106.582031 756.902344 106.042969 760.378906 C 100.726562 793.511719 112.851562 823.222656 146.394531 832.203125 C 152.394531 833.808594 158.113281 834.488281 163.546875 834.347656 C 169.421875 834.210938 174.964844 833.121094 180.082031 831.179688 C 188.679688 827.945312 196.195312 822.386719 202.523438 815.066406 C 210.523438 805.769531 216.535156 793.628906 220.199219 779.816406 L 277.144531 597.28125 L 279.296875 597.234375 L 330.808594 775.488281 C 338.769531 808.25 359.941406 831.988281 390.152344 831.25 C 394.417969 831.171875 398.878906 830.550781 403.496094 829.421875 C 440.753906 820.328125 452.375 785.40625 443.316406 747.992188 L 396.011719 507.921875 L 392.21875 351.992188 L 535.164062 232.035156 C 558.78125 213.867188 568.734375 187.066406 550.648438 163.347656 "/>
<g clip-path="url(#clip3)" clip-rule="nonzero">
<path style="fill:none;stroke-width:40;stroke-linecap:butt;stroke-linejoin:miter;stroke:rgb(13.729858%,12.159729%,12.548828%);stroke-opacity:1;stroke-miterlimit:10;" d="M 3171.762683 3149.811064 C 3134.613967 3198.481538 3086.51632 3219.311509 3035.778505 3218.008666 C 2988.317604 3216.845414 2938.480552 3196.449724 2892.852238 3161.614197 L 2328.120321 2766.418627 C 2310.710744 2769.505123 2292.617828 2770.978576 2274.136653 2770.513275 L 1857.347322 2760.323186 C 1764.38235 2758.136271 1684.214428 2709.186616 1640.35658 2637.902517 L 1120.97343 2076.765135 C 1036.798665 1993.398723 1010.893958 1882.734658 1094.105839 1798.406624 C 1131.021598 1760.949901 1173.248755 1744.97457 1216.174779 1746.029252 C 1270.189508 1747.270054 1325.275835 1775.513819 1372.11552 1821.919829 L 1616.051505 2043.44959 L 1622.574273 1775.9481 L 1431.022325 902.62483 L 1413.007062 820.793911 C 1409.341888 806.803864 1406.251338 793.061977 1404.108143 779.25805 C 1382.971269 647.701974 1431.177629 529.732684 1564.53717 494.075125 C 1588.391863 487.700503 1611.128368 485.001757 1632.731154 485.560118 C 1656.088875 486.10297 1678.126512 490.430268 1698.471335 498.138753 C 1732.653744 510.981058 1762.534233 533.051831 1787.69348 562.117627 C 1819.499738 599.031499 1843.401023 647.236673 1857.968538 702.08014 L 2084.370701 1426.84834 L 2092.927952 1427.034461 L 2297.72733 719.265253 C 2329.378284 589.18263 2413.553049 494.928177 2533.665159 497.859572 C 2550.624355 498.169773 2568.360071 500.635868 2586.717003 505.118267 C 2734.845954 541.225617 2781.048892 679.885287 2745.033896 828.440356 L 2556.960758 1781.655791 L 2541.88074 2400.785176 L 3110.200179 2877.082693 C 3204.096974 2949.219843 3243.668432 3055.63416 3171.762683 3149.811064 Z M 3171.762683 3149.811064 " transform="matrix(0.251523,0,0,-0.251853,-247.122282,956.637503)"/>
</g>
<path style=" stroke:none;fill-rule:nonzero;fill:rgb(100%,100%,100%);fill-opacity:1;" d="M 272.027344 237.761719 C 335.390625 236.21875 385.496094 183.535156 383.945312 120.097656 C 382.382812 56.695312 329.796875 6.507812 266.457031 8.0625 C 203.132812 9.609375 152.996094 62.261719 154.539062 125.695312 C 156.082031 189.113281 208.714844 239.285156 272.027344 237.761719 "/>
<g clip-path="url(#clip4)" clip-rule="nonzero">
<path style="fill:none;stroke-width:40;stroke-linecap:butt;stroke-linejoin:miter;stroke:rgb(13.729858%,12.159729%,12.548828%);stroke-opacity:1;stroke-miterlimit:10;" d="M 2064.025878 2854.345465 C 2315.944488 2860.471927 2515.152923 3069.655704 2508.987354 3321.538594 C 2502.775194 3573.281894 2293.704956 3772.539252 2041.879528 3766.38177 C 1790.116222 3760.239798 1590.783545 3551.180101 1596.918053 3299.297211 C 1603.05256 3047.507381 1812.309163 2848.296553 2064.025878 2854.345465 Z M 2064.025878 2854.345465 " transform="matrix(0.251523,0,0,-0.251853,-247.122282,956.637623)"/>
</g>
</g>
</defs>
<g id="surface1">
<g clip-path="url(#clip1)" clip-rule="nonzero">
<path style=" stroke:none;fill-rule:nonzero;fill:rgb(100%,100%,100%);fill-opacity:1;" d="M 0 0.40625 L 1192.25 0.40625 L 1192.25 1694.296875 L 0 1694.296875 Z M 0 0.40625 "/>
<path style=" stroke:none;fill-rule:nonzero;fill:rgb(100%,100%,100%);fill-opacity:1;" d="M 0 0.40625 L 1190 0.40625 L 1190 1683.800781 L 0 1683.800781 Z M 0 0.40625 "/>
<path style=" stroke:none;fill-rule:nonzero;fill:rgb(100%,100%,100%);fill-opacity:1;" d="M 0 0.40625 L 1190 0.40625 L 1190 1683.800781 L 0 1683.800781 Z M 0 0.40625 "/>
</g>
<use xlink:href="#surface5" transform="matrix(1,0,0,1,307,394)" mask="url(#mask0)"/>
</g>
</svg>
