<svg id="svg" version="1.1" xmlns="http://www.w3.org/2000/svg" xmlns:xlink="http://www.w3.org/1999/xlink" width="400" height="400" viewBox="0, 0, 400,400"><g id="svgg"><path id="path0" d="M189.700 0.259 C 189.205 0.367,188.800 0.623,188.800 0.828 C 188.800 1.033,188.384 1.200,187.875 1.200 C 187.367 1.200,186.564 1.560,186.092 2.000 C 185.620 2.440,185.028 2.800,184.777 2.800 C 184.526 2.800,183.817 3.340,183.200 4.000 C 182.032 5.251,177.238 5.832,176.600 4.800 C 176.464 4.580,175.823 4.400,175.176 4.400 C 174.529 4.400,174.000 4.580,174.000 4.800 C 174.000 5.022,172.933 5.200,171.600 5.200 C 170.267 5.200,169.200 5.378,169.200 5.600 C 169.200 5.820,168.660 6.000,168.000 6.000 C 167.340 6.000,166.800 6.180,166.800 6.400 C 166.800 6.620,166.440 6.800,166.000 6.800 C 165.560 6.800,165.200 6.980,165.200 7.200 C 165.200 7.420,164.840 7.600,164.400 7.600 C 163.960 7.600,163.600 7.768,163.600 7.973 C 163.600 8.178,163.195 8.475,162.700 8.632 C 161.721 8.942,148.000 22.593,148.000 23.257 C 148.000 23.480,147.280 24.354,146.400 25.200 C 145.520 26.046,144.800 26.849,144.800 26.985 C 144.800 27.122,144.425 27.631,143.966 28.117 C 143.507 28.603,142.851 29.540,142.507 30.200 C 142.163 30.860,141.548 31.691,141.141 32.047 C 140.733 32.403,140.400 32.948,140.400 33.259 C 140.400 33.569,140.040 34.083,139.600 34.400 C 139.160 34.717,138.800 35.257,138.800 35.600 C 138.800 35.943,138.440 36.483,138.000 36.800 C 137.560 37.117,137.200 37.697,137.200 38.088 C 137.200 38.480,137.020 38.800,136.800 38.800 C 136.580 38.800,136.400 39.036,136.400 39.325 C 136.400 39.613,136.075 40.198,135.678 40.625 C 135.280 41.051,134.697 41.985,134.380 42.700 C 134.064 43.415,133.669 44.000,133.502 44.000 C 133.336 44.000,133.200 44.360,133.200 44.800 C 133.200 45.240,133.020 45.600,132.800 45.600 C 132.580 45.600,132.400 45.960,132.400 46.400 C 132.400 46.840,132.220 47.200,132.000 47.200 C 131.780 47.200,131.600 47.560,131.600 48.000 C 131.600 48.440,131.420 48.800,131.200 48.800 C 130.980 48.800,130.800 49.160,130.800 49.600 C 130.800 50.040,130.620 50.400,130.400 50.400 C 130.180 50.400,130.000 50.839,130.000 51.376 C 130.000 51.913,129.820 52.464,129.600 52.600 C 129.380 52.736,129.200 53.197,129.200 53.624 C 129.200 54.051,129.020 54.400,128.800 54.400 C 128.580 54.400,128.400 54.940,128.400 55.600 C 128.400 56.260,128.220 56.800,128.000 56.800 C 127.780 56.800,127.600 57.340,127.600 58.000 C 127.600 58.660,127.420 59.200,127.200 59.200 C 126.980 59.200,126.800 59.652,126.800 60.205 C 126.800 60.758,126.641 61.523,126.447 61.905 C 125.663 63.449,125.116 66.855,124.906 71.500 C 124.783 74.195,124.530 76.400,124.342 76.400 C 123.896 76.400,123.895 82.288,124.341 82.563 C 124.528 82.679,124.789 84.895,124.922 87.487 C 125.421 97.262,125.334 97.200,138.595 97.200 C 144.865 97.200,148.400 97.344,148.400 97.600 C 148.400 97.826,149.533 98.000,151.000 98.000 C 152.467 98.000,153.600 98.174,153.600 98.400 C 153.600 98.620,154.500 98.800,155.600 98.800 C 156.700 98.800,157.600 98.980,157.600 99.200 C 157.600 99.420,158.230 99.600,159.000 99.600 C 159.770 99.600,160.400 99.780,160.400 100.000 C 160.400 100.220,160.940 100.400,161.600 100.400 C 162.260 100.400,162.800 100.580,162.800 100.800 C 162.800 101.020,163.160 101.200,163.600 101.200 C 164.040 101.200,164.400 101.380,164.400 101.600 C 164.400 101.820,164.760 102.000,165.200 102.000 C 165.640 102.000,166.000 102.180,166.000 102.400 C 166.000 102.620,166.360 102.800,166.800 102.800 C 167.240 102.800,167.600 102.958,167.600 103.151 C 167.600 103.345,168.140 103.727,168.800 104.000 C 169.460 104.273,170.000 104.626,170.000 104.784 C 170.000 104.942,170.457 105.280,171.015 105.534 C 171.573 105.788,172.248 106.180,172.515 106.404 C 173.515 107.244,176.050 108.800,176.418 108.800 C 176.628 108.800,176.800 108.980,176.800 109.200 C 176.800 109.420,177.160 109.600,177.600 109.600 C 178.040 109.600,178.400 109.780,178.400 110.000 C 178.400 110.220,178.749 110.400,179.176 110.400 C 179.603 110.400,180.064 110.580,180.200 110.800 C 180.336 111.020,180.797 111.200,181.224 111.200 C 181.651 111.200,182.000 111.380,182.000 111.600 C 182.000 111.820,182.450 112.000,183.000 112.000 C 183.550 112.000,184.000 112.180,184.000 112.400 C 184.000 112.620,184.720 112.800,185.600 112.800 C 186.480 112.800,187.200 112.980,187.200 113.200 C 187.200 113.420,187.819 113.600,188.576 113.600 C 189.333 113.600,190.064 113.780,190.200 114.000 C 190.336 114.220,191.787 114.400,193.424 114.400 C 195.141 114.400,196.400 114.569,196.400 114.800 C 196.400 115.037,197.867 115.200,200.000 115.200 C 202.133 115.200,203.600 115.037,203.600 114.800 C 203.600 114.569,204.867 114.400,206.600 114.400 C 208.333 114.400,209.600 114.231,209.600 114.000 C 209.600 113.780,210.320 113.600,211.200 113.600 C 212.080 113.600,212.800 113.420,212.800 113.200 C 212.800 112.980,213.520 112.800,214.400 112.800 C 215.280 112.800,216.000 112.620,216.000 112.400 C 216.000 112.180,216.272 112.000,216.605 112.000 C 216.938 112.000,217.568 111.820,218.005 111.600 C 218.442 111.380,219.158 111.020,219.595 110.800 C 220.032 110.580,220.662 110.400,220.995 110.400 C 221.328 110.400,221.600 110.220,221.600 110.000 C 221.600 109.780,221.960 109.600,222.400 109.600 C 222.840 109.600,223.200 109.420,223.200 109.200 C 223.200 108.980,223.470 108.800,223.800 108.800 C 224.130 108.800,224.400 108.647,224.400 108.461 C 224.400 108.274,225.120 107.797,226.000 107.400 C 226.880 107.003,227.600 106.548,227.600 106.388 C 227.600 106.228,228.140 105.873,228.800 105.600 C 229.460 105.327,230.000 104.945,230.000 104.751 C 230.000 104.558,230.236 104.400,230.525 104.400 C 230.813 104.400,231.436 104.040,231.908 103.600 C 232.380 103.160,233.044 102.800,233.383 102.800 C 233.722 102.800,234.000 102.620,234.000 102.400 C 234.000 102.180,234.360 102.000,234.800 102.000 C 235.240 102.000,235.600 101.820,235.600 101.600 C 235.600 101.380,236.140 101.200,236.800 101.200 C 237.460 101.200,238.000 101.020,238.000 100.800 C 238.000 100.580,238.439 100.400,238.976 100.400 C 239.513 100.400,240.064 100.220,240.200 100.000 C 240.336 99.780,241.067 99.600,241.824 99.600 C 242.581 99.600,243.200 99.420,243.200 99.200 C 243.200 98.980,244.100 98.800,245.200 98.800 C 246.300 98.800,247.200 98.620,247.200 98.400 C 247.200 98.171,248.400 98.000,250.000 98.000 C 251.600 98.000,252.800 97.829,252.800 97.600 C 252.800 97.343,256.834 97.200,264.100 97.200 L 275.400 97.199 276.500 96.253 C 277.105 95.733,277.600 95.013,277.600 94.653 C 277.600 94.294,277.780 94.000,278.000 94.000 C 278.235 94.000,278.400 92.600,278.400 90.600 C 278.400 88.600,278.565 87.200,278.800 87.200 C 279.053 87.200,279.200 84.333,279.200 79.400 C 279.200 74.467,279.053 71.600,278.800 71.600 C 278.580 71.600,278.400 70.700,278.400 69.600 C 278.400 68.500,278.220 67.600,278.000 67.600 C 277.780 67.600,277.600 66.621,277.600 65.424 C 277.600 64.227,277.420 63.136,277.200 63.000 C 276.980 62.864,276.800 62.234,276.800 61.600 C 276.800 60.966,276.620 60.336,276.400 60.200 C 276.180 60.064,276.000 59.603,276.000 59.176 C 276.000 58.749,275.820 58.400,275.600 58.400 C 275.380 58.400,275.200 57.956,275.200 57.414 C 275.200 55.790,273.281 50.400,272.702 50.400 C 272.536 50.400,272.400 50.040,272.400 49.600 C 272.400 49.160,272.220 48.800,272.000 48.800 C 271.780 48.800,271.600 48.455,271.600 48.033 C 271.600 47.612,271.465 47.207,271.300 47.133 C 271.135 47.060,270.552 46.100,270.004 45.000 C 269.456 43.900,268.511 42.523,267.904 41.940 C 267.297 41.356,266.800 40.663,266.800 40.400 C 266.800 40.137,266.260 39.417,265.600 38.800 C 264.940 38.183,264.400 37.490,264.400 37.259 C 264.400 36.844,261.479 33.621,256.400 28.432 C 253.718 25.692,250.826 23.214,250.300 23.205 C 250.136 23.202,249.259 22.480,248.352 21.600 C 247.445 20.720,246.495 20.000,246.240 20.000 C 245.985 20.000,245.517 19.640,245.200 19.200 C 244.883 18.760,244.369 18.400,244.059 18.400 C 243.748 18.400,243.203 18.084,242.847 17.697 C 242.491 17.311,241.705 16.740,241.100 16.430 C 240.495 16.119,240.000 15.715,240.000 15.532 C 240.000 15.350,239.730 15.200,239.400 15.200 C 239.070 15.200,238.800 15.020,238.800 14.800 C 238.800 14.580,238.440 14.400,238.000 14.400 C 237.560 14.400,237.200 14.248,237.200 14.063 C 237.200 13.877,236.345 13.292,235.300 12.763 C 234.255 12.233,233.340 11.665,233.267 11.500 C 233.193 11.335,232.788 11.200,232.367 11.200 C 231.945 11.200,231.600 11.020,231.600 10.800 C 231.600 10.580,231.240 10.400,230.800 10.400 C 230.360 10.400,230.000 10.220,230.000 10.000 C 230.000 9.780,229.751 9.600,229.446 9.600 C 229.141 9.600,228.376 9.331,227.746 9.002 C 227.116 8.674,226.285 8.404,225.900 8.402 C 225.515 8.401,225.200 8.220,225.200 8.000 C 225.200 7.780,224.840 7.600,224.400 7.600 C 223.960 7.600,223.600 7.420,223.600 7.200 C 223.600 6.980,223.150 6.800,222.600 6.800 C 222.050 6.800,221.600 6.620,221.600 6.400 C 221.600 6.180,221.240 6.000,220.800 6.000 C 220.360 6.000,220.000 5.820,220.000 5.600 C 220.000 5.380,219.651 5.200,219.224 5.200 C 218.797 5.200,218.336 5.020,218.200 4.800 C 218.064 4.580,217.513 4.400,216.976 4.400 C 216.439 4.400,216.000 4.220,216.000 4.000 C 216.000 3.780,215.460 3.600,214.800 3.600 C 214.140 3.600,213.600 3.420,213.600 3.200 C 213.600 2.980,213.060 2.800,212.400 2.800 C 211.740 2.800,211.200 2.620,211.200 2.400 C 211.200 2.180,210.660 2.000,210.000 2.000 C 209.340 2.000,208.800 1.820,208.800 1.600 C 208.800 1.380,208.275 1.200,207.633 1.200 C 206.992 1.200,206.394 0.982,206.305 0.714 C 206.140 0.221,191.694 -0.175,189.700 0.259 M200.920 8.428 C 201.976 8.633,203.371 8.800,204.020 8.800 C 204.669 8.800,205.200 8.980,205.200 9.200 C 205.200 9.420,205.740 9.600,206.400 9.600 C 207.060 9.600,207.600 9.780,207.600 10.000 C 207.600 10.220,207.960 10.400,208.400 10.400 C 208.840 10.400,209.200 10.580,209.200 10.800 C 209.200 11.020,209.639 11.200,210.176 11.200 C 210.713 11.200,211.264 11.380,211.400 11.600 C 211.536 11.820,212.087 12.000,212.624 12.000 C 213.161 12.000,213.600 12.180,213.600 12.400 C 213.600 12.620,214.050 12.800,214.600 12.800 C 215.150 12.800,215.600 12.980,215.600 13.200 C 215.600 13.420,216.050 13.600,216.600 13.600 C 217.150 13.600,217.600 13.780,217.600 14.000 C 217.600 14.220,217.960 14.400,218.400 14.400 C 218.840 14.400,219.200 14.580,219.200 14.800 C 219.200 15.020,219.560 15.200,220.000 15.200 C 220.440 15.200,220.800 15.380,220.800 15.600 C 220.800 15.820,221.160 16.000,221.600 16.000 C 222.040 16.000,222.400 16.180,222.400 16.400 C 222.400 16.620,222.940 16.800,223.600 16.800 C 224.260 16.800,224.800 16.946,224.800 17.125 C 224.800 17.304,225.430 17.698,226.200 18.000 C 226.970 18.302,227.600 18.696,227.600 18.875 C 227.600 19.054,227.960 19.200,228.400 19.200 C 228.840 19.200,229.200 19.352,229.200 19.537 C 229.200 19.723,230.055 20.308,231.100 20.837 C 232.145 21.367,233.060 21.935,233.133 22.100 C 233.207 22.265,233.612 22.400,234.033 22.400 C 234.455 22.400,234.800 22.559,234.800 22.754 C 234.800 22.949,235.422 23.404,236.183 23.765 C 236.944 24.126,237.674 24.597,237.807 24.811 C 237.939 25.025,238.324 25.200,238.663 25.200 C 239.002 25.200,239.783 25.740,240.400 26.400 C 241.017 27.060,241.630 27.600,241.764 27.600 C 241.898 27.600,242.572 28.140,243.263 28.800 C 243.954 29.460,244.677 30.000,244.870 30.000 C 245.063 30.000,247.133 31.845,249.469 34.100 C 256.438 40.828,257.600 42.019,257.600 42.436 C 257.600 42.840,257.959 43.335,259.402 44.919 C 259.843 45.404,260.653 46.655,261.201 47.700 C 261.750 48.745,262.334 49.600,262.499 49.600 C 262.665 49.600,262.800 49.960,262.800 50.400 C 262.800 50.840,262.980 51.200,263.200 51.200 C 263.420 51.200,263.604 51.425,263.609 51.700 C 263.614 51.975,263.970 52.650,264.400 53.200 C 264.830 53.750,265.186 54.515,265.191 54.900 C 265.196 55.285,265.380 55.600,265.600 55.600 C 265.820 55.600,266.000 55.949,266.000 56.376 C 266.000 56.803,266.180 57.264,266.400 57.400 C 266.620 57.536,266.800 58.087,266.800 58.624 C 266.800 59.161,266.980 59.600,267.200 59.600 C 267.420 59.600,267.600 59.949,267.600 60.376 C 267.600 60.803,267.780 61.264,268.000 61.400 C 268.220 61.536,268.400 62.267,268.400 63.024 C 268.400 63.781,268.580 64.400,268.800 64.400 C 269.020 64.400,269.200 65.109,269.200 65.976 C 269.200 66.843,269.380 67.664,269.600 67.800 C 269.820 67.936,270.000 68.847,270.000 69.824 C 270.000 70.801,270.180 71.600,270.400 71.600 C 270.654 71.600,270.800 74.733,270.800 80.200 L 270.800 88.800 262.024 88.800 C 256.604 88.800,253.153 88.953,253.000 89.200 C 252.864 89.420,251.323 89.600,249.576 89.600 C 247.725 89.600,246.400 89.767,246.400 90.000 C 246.400 90.220,245.626 90.400,244.680 90.400 C 243.734 90.400,242.747 90.613,242.487 90.873 C 242.226 91.134,241.922 91.256,241.811 91.144 C 241.546 90.879,242.510 88.807,242.900 88.803 C 243.065 88.801,243.200 88.440,243.200 88.000 C 243.200 87.560,243.380 87.200,243.600 87.200 C 243.820 87.200,244.000 86.851,244.000 86.424 C 244.000 85.997,244.180 85.536,244.400 85.400 C 244.620 85.264,244.800 84.713,244.800 84.176 C 244.800 83.639,244.980 83.200,245.200 83.200 C 245.420 83.200,245.600 82.660,245.600 82.000 L 245.600 80.800 248.000 80.800 C 249.333 80.800,250.400 80.978,250.400 81.200 C 250.400 81.443,252.200 81.600,255.000 81.600 C 257.530 81.600,259.600 81.441,259.600 81.247 C 259.600 81.052,259.960 80.799,260.400 80.684 C 260.941 80.543,261.200 80.138,261.200 79.437 C 261.200 78.867,261.380 78.400,261.600 78.400 C 261.820 78.400,262.000 77.950,262.000 77.400 C 262.000 76.850,261.820 76.400,261.600 76.400 C 261.380 76.400,261.200 76.117,261.200 75.771 C 261.200 74.963,260.237 74.000,259.429 74.000 C 259.083 74.000,258.800 73.820,258.800 73.600 C 258.800 73.361,257.267 73.200,255.000 73.200 C 252.733 73.200,251.200 73.039,251.200 72.800 C 251.200 72.578,250.133 72.400,248.800 72.400 C 247.467 72.400,246.400 72.222,246.400 72.000 C 246.400 71.780,245.500 71.600,244.400 71.600 C 243.300 71.600,242.400 71.420,242.400 71.200 C 242.400 70.980,241.770 70.800,241.000 70.800 C 240.230 70.800,239.600 70.620,239.600 70.400 C 239.600 70.180,239.060 70.000,238.400 70.000 C 237.740 70.000,237.200 69.820,237.200 69.600 C 237.200 69.380,236.671 69.200,236.024 69.200 C 235.377 69.200,234.736 69.020,234.600 68.800 C 234.464 68.580,233.913 68.400,233.376 68.400 C 232.839 68.400,232.400 68.220,232.400 68.000 C 232.400 67.780,231.860 67.600,231.200 67.600 C 230.540 67.600,230.000 67.420,230.000 67.200 C 230.000 66.980,229.640 66.800,229.200 66.800 C 228.760 66.800,228.400 66.620,228.400 66.400 C 228.400 66.180,227.860 66.000,227.200 66.000 C 226.540 66.000,226.000 65.820,226.000 65.600 C 226.000 65.380,225.655 65.200,225.233 65.200 C 224.812 65.200,224.407 65.062,224.333 64.893 C 224.260 64.725,221.320 63.160,217.800 61.417 C 214.280 59.674,211.340 58.102,211.267 57.924 C 211.193 57.746,210.788 57.600,210.367 57.600 C 209.945 57.600,209.600 57.420,209.600 57.200 C 209.600 56.980,209.330 56.800,209.000 56.800 C 208.670 56.800,208.400 56.650,208.400 56.468 C 208.400 56.285,207.905 55.880,207.300 55.568 C 206.695 55.255,205.851 54.685,205.425 54.300 C 204.998 53.915,204.453 53.600,204.213 53.600 C 203.973 53.600,203.517 53.240,203.200 52.800 C 202.883 52.360,202.343 52.000,202.000 52.000 C 201.657 52.000,201.117 51.640,200.800 51.200 C 200.483 50.760,200.020 50.400,199.771 50.400 C 199.522 50.400,198.754 49.860,198.063 49.200 C 197.372 48.540,196.626 48.000,196.404 48.000 C 196.182 48.000,195.259 47.280,194.352 46.400 C 193.445 45.520,192.568 44.800,192.402 44.800 C 192.236 44.800,191.413 44.170,190.572 43.400 C 189.731 42.630,188.900 42.000,188.724 42.000 C 188.548 42.000,187.485 41.100,186.361 40.000 C 185.238 38.900,184.150 38.000,183.943 38.000 C 183.737 38.000,180.620 35.030,177.018 31.400 C 173.416 27.770,170.183 24.800,169.834 24.800 C 169.485 24.800,169.200 24.620,169.200 24.400 C 169.200 24.180,168.300 24.000,167.200 24.000 C 166.100 24.000,165.200 24.159,165.200 24.353 C 165.200 24.548,164.840 24.801,164.400 24.916 C 163.960 25.031,163.600 25.412,163.600 25.763 C 163.600 26.113,163.420 26.400,163.200 26.400 C 162.741 26.400,162.646 29.865,163.100 30.067 C 165.860 31.293,165.753 33.928,162.827 36.800 C 162.042 37.570,161.145 38.695,160.832 39.300 C 160.520 39.905,160.115 40.400,159.932 40.400 C 159.750 40.400,159.600 40.760,159.600 41.200 C 159.600 41.640,159.423 42.000,159.208 42.000 C 158.992 42.000,158.702 42.450,158.564 43.000 C 158.426 43.550,158.153 44.000,157.957 44.000 C 157.760 44.000,157.600 44.360,157.600 44.800 C 157.600 45.240,157.420 45.600,157.200 45.600 C 156.980 45.600,156.800 45.960,156.800 46.400 C 156.800 46.840,156.620 47.200,156.400 47.200 C 156.180 47.200,156.000 47.549,156.000 47.976 C 156.000 48.403,155.820 48.864,155.600 49.000 C 155.380 49.136,155.200 49.687,155.200 50.224 C 155.200 50.761,155.020 51.200,154.800 51.200 C 154.580 51.200,154.400 51.740,154.400 52.400 C 154.400 53.060,154.220 53.600,154.000 53.600 C 153.780 53.600,153.600 54.320,153.600 55.200 C 153.600 56.080,153.420 56.800,153.200 56.800 C 152.978 56.800,152.800 57.859,152.800 59.176 C 152.800 60.483,152.620 61.664,152.400 61.800 C 152.171 61.941,152.000 63.996,152.000 66.600 C 152.000 69.204,152.171 71.259,152.400 71.400 C 152.620 71.536,152.800 72.807,152.800 74.224 C 152.800 75.675,152.975 76.800,153.200 76.800 C 153.420 76.800,153.600 77.700,153.600 78.800 C 153.600 79.900,153.780 80.800,154.000 80.800 C 154.220 80.800,154.400 81.340,154.400 82.000 C 154.400 82.660,154.580 83.200,154.800 83.200 C 155.020 83.200,155.200 83.549,155.200 83.976 C 155.200 84.403,155.380 84.864,155.600 85.000 C 155.820 85.136,156.000 85.687,156.000 86.224 C 156.000 86.761,156.180 87.200,156.400 87.200 C 156.620 87.200,156.800 87.560,156.800 88.000 C 156.800 88.440,156.959 88.800,157.153 88.800 C 157.348 88.800,157.601 89.160,157.716 89.600 C 157.902 90.311,157.728 90.400,156.163 90.400 C 155.193 90.400,154.400 90.220,154.400 90.000 C 154.400 89.767,153.067 89.600,151.200 89.600 C 149.333 89.600,148.000 89.433,148.000 89.200 C 148.000 88.948,145.267 88.800,140.600 88.800 L 133.200 88.800 133.200 86.224 C 133.200 84.807,133.020 83.536,132.800 83.400 C 132.573 83.260,132.400 81.263,132.400 78.776 C 132.400 76.125,132.558 74.400,132.800 74.400 C 133.026 74.400,133.200 73.267,133.200 71.800 C 133.200 70.333,133.374 69.200,133.600 69.200 C 133.820 69.200,134.000 68.480,134.000 67.600 C 134.000 66.720,134.180 66.000,134.400 66.000 C 134.620 66.000,134.800 65.280,134.800 64.400 C 134.800 63.520,134.980 62.800,135.200 62.800 C 135.420 62.800,135.600 62.260,135.600 61.600 C 135.600 60.940,135.747 60.400,135.928 60.400 C 136.108 60.400,136.500 59.500,136.800 58.400 C 137.100 57.300,137.492 56.400,137.672 56.400 C 137.853 56.400,138.000 56.051,138.000 55.624 C 138.000 55.197,138.180 54.736,138.400 54.600 C 138.620 54.464,138.800 54.003,138.800 53.576 C 138.800 53.149,138.980 52.800,139.200 52.800 C 139.420 52.800,139.600 52.565,139.600 52.279 C 139.600 51.600,141.655 47.440,142.076 47.267 C 142.254 47.193,142.400 46.788,142.400 46.367 C 142.400 45.945,142.580 45.600,142.800 45.600 C 143.020 45.600,143.200 45.240,143.200 44.800 C 143.200 44.360,143.380 44.000,143.600 44.000 C 143.820 44.000,144.000 43.764,144.000 43.475 C 144.000 43.187,144.360 42.564,144.800 42.092 C 145.240 41.620,145.600 41.046,145.600 40.817 C 145.600 40.588,145.741 40.400,145.914 40.400 C 146.086 40.400,146.549 39.855,146.943 39.189 C 147.336 38.523,148.095 37.541,148.629 37.007 C 149.163 36.473,149.600 35.875,149.600 35.678 C 149.600 35.480,150.140 34.754,150.800 34.063 C 151.460 33.372,152.000 32.658,152.000 32.477 C 152.000 32.295,152.990 31.082,154.200 29.782 C 155.410 28.482,156.400 27.270,156.400 27.089 C 156.400 26.545,167.155 16.000,167.710 16.000 C 167.992 16.000,168.483 15.640,168.800 15.200 C 169.117 14.760,169.697 14.400,170.088 14.400 C 170.480 14.400,170.800 14.220,170.800 14.000 C 170.800 13.780,171.430 13.600,172.200 13.600 C 172.970 13.600,173.600 13.420,173.600 13.200 C 173.600 12.980,174.230 12.800,175.000 12.800 C 175.770 12.800,176.400 12.980,176.400 13.200 C 176.400 13.420,177.030 13.600,177.800 13.600 C 178.570 13.600,179.200 13.780,179.200 14.000 C 179.200 14.231,180.475 14.400,182.226 14.400 L 185.252 14.400 187.200 12.400 C 188.271 11.300,189.340 10.400,189.574 10.400 C 189.808 10.400,190.000 10.241,190.000 10.046 C 190.000 9.570,192.661 8.320,194.400 7.979 C 195.882 7.688,197.774 7.819,200.920 8.428 M175.548 42.300 C 178.595 45.264,179.892 46.400,180.231 46.400 C 180.352 46.400,181.329 47.300,182.400 48.400 C 183.471 49.500,184.540 50.400,184.774 50.400 C 185.008 50.400,185.941 51.120,186.848 52.000 C 187.755 52.880,188.679 53.600,188.901 53.600 C 189.124 53.600,189.597 53.930,189.953 54.333 C 190.309 54.736,191.590 55.727,192.800 56.535 C 194.010 57.342,195.450 58.360,196.000 58.796 C 196.550 59.232,197.185 59.592,197.412 59.595 C 197.638 59.598,198.083 59.960,198.400 60.400 C 198.717 60.840,199.297 61.200,199.688 61.200 C 200.080 61.200,200.400 61.380,200.400 61.600 C 200.400 61.820,200.636 62.000,200.925 62.000 C 201.213 62.000,201.836 62.360,202.308 62.800 C 202.780 63.240,203.404 63.600,203.695 63.600 C 203.986 63.600,204.483 63.960,204.800 64.400 C 205.117 64.840,205.697 65.200,206.088 65.200 C 206.480 65.200,206.800 65.380,206.800 65.600 C 206.800 65.820,207.160 66.000,207.600 66.000 C 208.040 66.000,208.400 66.180,208.400 66.400 C 208.400 66.620,208.670 66.800,209.000 66.800 C 209.330 66.800,209.601 66.935,209.603 67.100 C 209.605 67.265,210.010 67.598,210.503 67.840 C 212.911 69.022,215.013 70.230,215.133 70.500 C 215.207 70.665,215.612 70.800,216.033 70.800 C 216.455 70.800,216.800 70.980,216.800 71.200 C 216.800 71.420,217.149 71.600,217.576 71.600 C 218.003 71.600,218.464 71.780,218.600 72.000 C 218.736 72.220,219.287 72.400,219.824 72.400 C 220.361 72.400,220.800 72.580,220.800 72.800 C 220.800 73.020,221.036 73.200,221.325 73.200 C 221.614 73.200,222.605 73.565,223.527 74.010 C 224.450 74.456,225.747 74.929,226.411 75.062 C 227.074 75.195,227.714 75.460,227.832 75.652 C 227.950 75.843,228.476 76.000,229.000 76.000 C 229.524 76.000,230.064 76.180,230.200 76.400 C 230.336 76.620,230.977 76.800,231.624 76.800 C 232.271 76.800,232.800 76.980,232.800 77.200 C 232.800 77.420,233.430 77.600,234.200 77.600 C 234.970 77.600,235.600 77.780,235.600 78.000 C 235.600 78.220,236.185 78.414,236.900 78.432 C 237.615 78.449,237.975 78.554,237.700 78.665 C 237.425 78.776,237.200 79.302,237.200 79.833 C 237.200 80.365,237.020 80.800,236.800 80.800 C 236.580 80.800,236.400 81.340,236.400 82.000 C 236.400 82.660,236.220 83.200,236.000 83.200 C 235.780 83.200,235.600 83.478,235.600 83.817 C 235.600 84.156,235.240 84.820,234.800 85.292 C 234.360 85.764,234.000 86.387,234.000 86.675 C 234.000 86.964,233.820 87.200,233.600 87.200 C 233.380 87.200,233.200 87.520,233.200 87.912 C 233.200 88.303,232.840 88.883,232.400 89.200 C 231.960 89.517,231.600 89.998,231.600 90.269 C 231.600 90.539,229.791 92.570,227.580 94.780 C 225.370 96.991,223.339 98.800,223.069 98.800 C 222.798 98.800,222.317 99.160,222.000 99.600 C 221.683 100.040,221.143 100.400,220.800 100.400 C 220.457 100.400,219.917 100.760,219.600 101.200 C 219.283 101.640,218.703 102.000,218.312 102.000 C 217.920 102.000,217.600 102.180,217.600 102.400 C 217.600 102.620,217.161 102.800,216.624 102.800 C 216.087 102.800,215.536 102.980,215.400 103.200 C 215.264 103.420,214.803 103.600,214.376 103.600 C 213.949 103.600,213.600 103.780,213.600 104.000 C 213.600 104.220,213.150 104.400,212.600 104.400 C 212.050 104.400,211.600 104.580,211.600 104.800 C 211.600 105.020,210.981 105.200,210.224 105.200 C 209.467 105.200,208.736 105.380,208.600 105.600 C 208.464 105.820,207.463 106.000,206.376 106.000 C 205.289 106.000,204.400 106.180,204.400 106.400 C 204.400 106.644,202.533 106.800,199.600 106.800 C 196.667 106.800,194.800 106.644,194.800 106.400 C 194.800 106.180,193.900 106.000,192.800 106.000 C 191.700 106.000,190.800 105.820,190.800 105.600 C 190.800 105.380,190.170 105.200,189.400 105.200 C 188.630 105.200,188.000 105.020,188.000 104.800 C 188.000 104.580,187.651 104.400,187.224 104.400 C 186.797 104.400,186.336 104.220,186.200 104.000 C 186.064 103.780,185.596 103.600,185.160 103.600 C 184.723 103.600,183.980 103.240,183.508 102.800 C 183.036 102.360,182.413 102.000,182.125 102.000 C 181.836 102.000,181.600 101.820,181.600 101.600 C 181.600 101.380,181.240 101.200,180.800 101.200 C 180.360 101.200,180.000 101.020,180.000 100.800 C 180.000 100.580,179.722 100.400,179.382 100.400 C 179.042 100.400,178.314 99.950,177.764 99.400 C 177.214 98.850,176.601 98.400,176.403 98.400 C 175.968 98.400,169.200 91.657,169.200 91.223 C 169.200 91.056,168.660 90.354,168.000 89.663 C 167.340 88.972,166.800 88.136,166.800 87.804 C 166.800 87.472,166.620 87.200,166.400 87.200 C 166.180 87.200,166.000 86.840,166.000 86.400 C 166.000 85.960,165.820 85.600,165.600 85.600 C 165.380 85.600,165.200 85.322,165.200 84.983 C 165.200 84.644,164.840 83.980,164.400 83.508 C 163.960 83.036,163.600 82.233,163.600 81.725 C 163.600 81.216,163.420 80.800,163.200 80.800 C 162.980 80.800,162.800 80.451,162.800 80.024 C 162.800 79.597,162.620 79.136,162.400 79.000 C 162.180 78.864,162.000 78.234,162.000 77.600 C 162.000 76.966,161.820 76.336,161.600 76.200 C 161.380 76.064,161.200 75.164,161.200 74.200 C 161.200 73.236,161.020 72.336,160.800 72.200 C 160.570 72.058,160.400 69.937,160.400 67.200 C 160.400 64.463,160.570 62.342,160.800 62.200 C 161.020 62.064,161.200 61.063,161.200 59.976 C 161.200 58.889,161.380 58.000,161.600 58.000 C 161.820 58.000,162.000 57.471,162.000 56.824 C 162.000 56.177,162.180 55.536,162.400 55.400 C 162.620 55.264,162.800 54.803,162.800 54.376 C 162.800 53.949,162.980 53.600,163.200 53.600 C 163.420 53.600,163.600 53.060,163.600 52.400 C 163.600 51.740,163.780 51.200,164.000 51.200 C 164.220 51.200,164.400 50.840,164.400 50.400 C 164.400 49.960,164.580 49.600,164.800 49.600 C 165.020 49.600,165.200 49.280,165.200 48.888 C 165.200 48.497,165.560 47.917,166.000 47.600 C 166.440 47.283,166.800 46.703,166.800 46.312 C 166.800 45.920,166.950 45.600,167.132 45.600 C 167.315 45.600,167.720 45.112,168.032 44.515 C 168.640 43.353,172.011 39.646,172.486 39.617 C 172.643 39.608,174.021 40.815,175.548 42.300 M192.000 116.400 C 192.000 116.622,190.933 116.800,189.600 116.800 C 188.267 116.800,187.200 116.978,187.200 117.200 C 187.200 117.420,186.480 117.600,185.600 117.600 C 184.720 117.600,184.000 117.780,184.000 118.000 C 184.000 118.220,183.381 118.400,182.624 118.400 C 181.867 118.400,181.136 118.580,181.000 118.800 C 180.864 119.020,180.324 119.200,179.800 119.200 C 179.276 119.200,178.736 119.380,178.600 119.600 C 178.464 119.820,178.003 120.000,177.576 120.000 C 177.149 120.000,176.800 120.180,176.800 120.400 C 176.800 120.620,176.350 120.800,175.800 120.800 C 175.250 120.800,174.800 120.980,174.800 121.200 C 174.800 121.420,174.440 121.600,174.000 121.600 C 173.560 121.600,173.200 121.780,173.200 122.000 C 173.200 122.220,172.840 122.400,172.400 122.400 C 171.960 122.400,171.600 122.580,171.600 122.800 C 171.600 123.020,171.240 123.200,170.800 123.200 C 170.360 123.200,170.000 123.359,170.000 123.553 C 170.000 123.747,169.052 124.370,167.892 124.937 C 166.733 125.504,165.419 126.291,164.972 126.684 C 163.228 128.220,162.455 128.400,157.605 128.400 C 154.668 128.400,152.800 128.556,152.800 128.800 C 152.800 129.020,152.181 129.200,151.424 129.200 C 150.667 129.200,149.936 129.380,149.800 129.600 C 149.664 129.820,149.203 130.000,148.776 130.000 C 148.349 130.000,148.000 130.180,148.000 130.400 C 148.000 130.620,147.722 130.800,147.383 130.800 C 147.044 130.800,146.380 131.160,145.908 131.600 C 145.436 132.040,144.858 132.405,144.625 132.412 C 144.391 132.419,143.750 132.971,143.200 133.640 C 142.650 134.308,141.615 135.467,140.900 136.214 C 140.185 136.962,139.600 137.849,139.600 138.187 C 139.600 138.524,139.420 138.800,139.200 138.800 C 138.980 138.800,138.800 139.160,138.800 139.600 C 138.800 140.040,138.620 140.400,138.400 140.400 C 138.180 140.400,138.000 140.760,138.000 141.200 C 138.000 141.640,137.820 142.000,137.600 142.000 C 137.380 142.000,137.200 142.450,137.200 143.000 C 137.200 143.550,137.020 144.000,136.800 144.000 C 136.580 144.000,136.400 144.540,136.400 145.200 C 136.400 145.860,136.220 146.400,136.000 146.400 C 135.780 146.400,135.600 146.940,135.600 147.600 C 135.600 148.260,135.420 148.800,135.200 148.800 C 134.980 148.800,134.800 149.340,134.800 150.000 C 134.800 150.660,134.620 151.200,134.400 151.200 C 134.180 151.200,134.000 151.740,134.000 152.400 C 134.000 153.060,133.820 153.600,133.600 153.600 C 133.380 153.600,133.200 154.140,133.200 154.800 C 133.200 155.460,133.020 156.000,132.800 156.000 C 132.580 156.000,132.400 156.540,132.400 157.200 C 132.400 157.860,132.220 158.400,132.000 158.400 C 131.780 158.400,131.600 158.850,131.600 159.400 C 131.600 159.950,131.420 160.400,131.200 160.400 C 130.980 160.400,130.800 160.940,130.800 161.600 C 130.800 162.260,130.620 162.800,130.400 162.800 C 130.180 162.800,130.000 163.340,130.000 164.000 C 130.000 164.660,129.820 165.200,129.600 165.200 C 129.380 165.200,129.200 165.740,129.200 166.400 C 129.200 167.060,129.020 167.600,128.800 167.600 C 128.580 167.600,128.400 168.039,128.400 168.576 C 128.400 169.113,128.220 169.664,128.000 169.800 C 127.780 169.936,127.600 170.399,127.600 170.829 C 127.600 171.259,127.424 171.923,127.209 172.305 C 126.593 173.401,124.800 179.133,124.800 180.008 C 124.800 180.444,124.620 180.800,124.400 180.800 C 124.180 180.800,124.000 181.340,124.000 182.000 C 124.000 182.660,123.820 183.200,123.600 183.200 C 123.380 183.200,123.200 183.740,123.200 184.400 C 123.200 185.060,123.020 185.600,122.800 185.600 C 122.580 185.600,122.400 186.140,122.400 186.800 C 122.400 187.460,122.220 188.000,122.000 188.000 C 121.780 188.000,121.600 188.540,121.600 189.200 C 121.600 189.860,121.420 190.400,121.200 190.400 C 120.980 190.400,120.800 190.940,120.800 191.600 C 120.800 192.260,120.620 192.800,120.400 192.800 C 120.180 192.800,120.000 193.250,120.000 193.800 C 120.000 194.350,119.820 194.800,119.600 194.800 C 119.380 194.800,119.200 195.419,119.200 196.176 C 119.200 196.933,119.020 197.664,118.800 197.800 C 118.563 197.946,118.400 200.404,118.400 203.824 C 118.400 207.408,118.552 209.600,118.800 209.600 C 119.020 209.600,119.200 210.140,119.200 210.800 C 119.200 211.460,119.380 212.000,119.600 212.000 C 119.820 212.000,120.000 212.360,120.000 212.800 C 120.000 213.240,120.180 213.600,120.400 213.600 C 120.620 213.600,120.800 213.920,120.800 214.312 C 120.800 214.703,121.160 215.283,121.600 215.600 C 122.040 215.917,122.400 216.419,122.400 216.714 C 122.400 217.010,123.270 218.100,124.334 219.136 L 126.268 221.019 125.490 224.410 C 125.063 226.274,124.553 228.113,124.357 228.495 C 124.160 228.877,124.000 229.732,124.000 230.395 C 124.000 231.058,123.820 231.600,123.600 231.600 C 123.380 231.600,123.200 232.140,123.200 232.800 C 123.200 233.460,123.020 234.000,122.800 234.000 C 122.580 234.000,122.400 234.529,122.400 235.176 C 122.400 235.823,122.220 236.464,122.000 236.600 C 121.780 236.736,121.600 237.467,121.600 238.224 C 121.600 238.981,121.420 239.600,121.200 239.600 C 120.980 239.600,120.800 240.140,120.800 240.800 C 120.800 241.460,120.620 242.000,120.400 242.000 C 120.180 242.000,120.000 242.630,120.000 243.400 C 120.000 244.170,119.820 244.800,119.600 244.800 C 119.380 244.800,119.200 245.340,119.200 246.000 C 119.200 246.660,119.020 247.200,118.800 247.200 C 118.580 247.200,118.400 247.819,118.400 248.576 C 118.400 249.333,118.220 250.064,118.000 250.200 C 117.780 250.336,117.600 250.977,117.600 251.624 C 117.600 252.271,117.420 252.800,117.200 252.800 C 116.980 252.800,116.800 253.329,116.800 253.976 C 116.800 254.623,116.620 255.264,116.400 255.400 C 116.180 255.536,116.000 256.267,116.000 257.024 C 116.000 257.781,115.820 258.400,115.600 258.400 C 115.380 258.400,115.200 258.940,115.200 259.600 C 115.200 260.260,115.020 260.800,114.800 260.800 C 114.580 260.800,114.400 261.430,114.400 262.200 C 114.400 262.970,114.220 263.600,114.000 263.600 C 113.780 263.600,113.600 264.140,113.600 264.800 C 113.600 265.460,113.440 266.000,113.244 266.000 C 112.907 266.000,112.790 266.449,112.168 270.100 C 112.027 270.925,111.752 271.600,111.556 271.600 C 111.360 271.600,111.200 272.129,111.200 272.776 C 111.200 273.423,111.020 274.064,110.800 274.200 C 110.580 274.336,110.400 274.889,110.400 275.429 C 110.400 275.969,110.242 276.723,110.049 277.105 C 109.432 278.327,108.846 280.540,108.568 282.700 C 108.419 283.855,108.140 284.800,107.948 284.800 C 107.757 284.800,107.600 285.340,107.600 286.000 C 107.600 286.660,107.420 287.200,107.200 287.200 C 106.254 287.200,106.745 292.782,107.782 293.818 L 108.764 294.800 127.982 294.800 L 147.200 294.800 147.200 336.776 C 147.200 364.329,147.337 378.838,147.600 379.000 C 147.820 379.136,148.000 380.137,148.000 381.224 C 148.000 382.311,148.180 383.200,148.400 383.200 C 148.620 383.200,148.800 383.633,148.800 384.162 C 148.800 385.130,150.341 388.485,150.900 388.733 C 151.065 388.807,151.200 389.172,151.200 389.545 C 151.200 389.918,151.560 390.483,152.000 390.800 C 152.440 391.117,152.800 391.535,152.800 391.728 C 152.800 392.228,156.437 395.600,156.975 395.600 C 157.222 395.600,157.683 395.960,158.000 396.400 C 158.317 396.840,158.807 397.200,159.088 397.200 C 159.370 397.200,159.600 397.380,159.600 397.600 C 159.600 397.820,159.960 398.000,160.400 398.000 C 160.840 398.000,161.200 398.180,161.200 398.400 C 161.200 398.620,161.524 398.800,161.920 398.800 C 162.316 398.800,162.865 399.025,163.140 399.300 C 163.509 399.668,165.863 399.800,172.087 399.800 C 178.489 399.800,180.574 399.679,180.700 399.300 C 180.792 399.025,181.212 398.800,181.633 398.800 C 182.055 398.800,182.400 398.620,182.400 398.400 C 182.400 398.180,182.760 398.000,183.200 398.000 C 183.640 398.000,184.000 397.820,184.000 397.600 C 184.000 397.380,184.288 397.200,184.640 397.200 C 184.991 397.200,185.756 396.705,186.340 396.100 C 186.923 395.495,187.855 394.766,188.411 394.480 C 188.967 394.194,189.957 393.163,190.611 392.189 C 191.265 391.215,191.935 390.414,192.100 390.409 C 192.265 390.404,192.400 390.040,192.400 389.600 C 192.400 389.160,192.580 388.800,192.800 388.800 C 193.020 388.800,193.200 388.440,193.200 388.000 C 193.200 387.560,193.380 387.200,193.600 387.200 C 193.820 387.200,194.000 386.840,194.000 386.400 C 194.000 385.960,194.180 385.600,194.400 385.600 C 194.620 385.600,194.800 385.060,194.800 384.400 C 194.800 383.740,194.980 383.200,195.200 383.200 C 195.422 383.200,195.600 382.133,195.600 380.800 C 195.600 379.467,195.778 378.400,196.000 378.400 C 196.264 378.400,196.400 364.200,196.400 336.600 L 196.400 294.800 200.000 294.800 L 203.600 294.800 203.600 336.600 C 203.600 364.200,203.736 378.400,204.000 378.400 C 204.222 378.400,204.400 379.467,204.400 380.800 C 204.400 382.133,204.578 383.200,204.800 383.200 C 205.020 383.200,205.200 383.740,205.200 384.400 C 205.200 385.060,205.380 385.600,205.600 385.600 C 205.820 385.600,206.000 385.960,206.000 386.400 C 206.000 386.840,206.180 387.200,206.400 387.200 C 206.620 387.200,206.800 387.560,206.800 388.000 C 206.800 388.440,206.980 388.800,207.200 388.800 C 207.420 388.800,207.600 389.160,207.600 389.600 C 207.600 390.040,207.735 390.404,207.900 390.409 C 208.065 390.414,208.735 391.215,209.389 392.189 C 210.043 393.163,211.033 394.194,211.589 394.480 C 212.145 394.766,213.077 395.495,213.660 396.100 C 214.244 396.705,215.009 397.200,215.360 397.200 C 215.712 397.200,216.000 397.380,216.000 397.600 C 216.000 397.820,216.360 398.000,216.800 398.000 C 217.240 398.000,217.600 398.180,217.600 398.400 C 217.600 398.620,217.945 398.800,218.367 398.800 C 218.788 398.800,219.208 399.025,219.300 399.300 C 219.426 399.679,221.511 399.800,227.913 399.800 C 234.137 399.800,236.491 399.668,236.860 399.300 C 237.135 399.025,237.684 398.800,238.080 398.800 C 238.476 398.800,238.800 398.620,238.800 398.400 C 238.800 398.180,239.160 398.000,239.600 398.000 C 240.040 398.000,240.400 397.820,240.400 397.600 C 240.400 397.380,240.630 397.200,240.912 397.200 C 241.193 397.200,241.683 396.840,242.000 396.400 C 242.317 395.960,242.778 395.600,243.025 395.600 C 243.563 395.600,247.200 392.228,247.200 391.728 C 247.200 391.535,247.560 391.117,248.000 390.800 C 248.440 390.483,248.800 389.918,248.800 389.545 C 248.800 389.172,248.935 388.807,249.100 388.733 C 249.659 388.485,251.200 385.130,251.200 384.162 C 251.200 383.633,251.380 383.200,251.600 383.200 C 251.820 383.200,252.000 382.311,252.000 381.224 C 252.000 380.137,252.180 379.136,252.400 379.000 C 252.663 378.838,252.800 364.329,252.800 336.776 L 252.800 294.800 272.018 294.800 L 291.236 294.800 292.218 293.818 C 293.255 292.782,293.746 287.200,292.800 287.200 C 292.580 287.200,292.400 286.660,292.400 286.000 C 292.400 285.340,292.243 284.800,292.052 284.800 C 291.860 284.800,291.581 283.855,291.432 282.700 C 291.185 280.781,290.771 279.134,290.000 277.000 C 289.216 274.830,288.800 273.261,288.800 272.472 C 288.800 271.992,288.640 271.600,288.444 271.600 C 288.248 271.600,287.978 270.970,287.844 270.200 C 287.710 269.430,287.490 268.170,287.356 267.400 C 287.222 266.630,286.952 266.000,286.756 266.000 C 286.560 266.000,286.400 265.460,286.400 264.800 C 286.400 264.140,286.220 263.600,286.000 263.600 C 285.780 263.600,285.600 262.970,285.600 262.200 C 285.600 261.430,285.420 260.800,285.200 260.800 C 284.980 260.800,284.800 260.260,284.800 259.600 C 284.800 258.940,284.620 258.400,284.400 258.400 C 284.180 258.400,284.000 257.781,284.000 257.024 C 284.000 256.267,283.820 255.536,283.600 255.400 C 283.380 255.264,283.200 254.623,283.200 253.976 C 283.200 253.329,283.020 252.800,282.800 252.800 C 282.580 252.800,282.400 252.271,282.400 251.624 C 282.400 250.977,282.220 250.336,282.000 250.200 C 281.780 250.064,281.600 249.333,281.600 248.576 C 281.600 247.819,281.420 247.200,281.200 247.200 C 280.980 247.200,280.800 246.660,280.800 246.000 C 280.800 245.340,280.620 244.800,280.400 244.800 C 280.180 244.800,280.000 244.170,280.000 243.400 C 280.000 242.630,279.820 242.000,279.600 242.000 C 279.380 242.000,279.200 241.460,279.200 240.800 C 279.200 240.140,279.020 239.600,278.800 239.600 C 278.580 239.600,278.400 238.981,278.400 238.224 C 278.400 237.467,278.220 236.736,278.000 236.600 C 277.780 236.464,277.600 235.823,277.600 235.176 C 277.600 234.529,277.420 234.000,277.200 234.000 C 276.980 234.000,276.800 233.460,276.800 232.800 C 276.800 232.140,276.620 231.600,276.400 231.600 C 276.180 231.600,276.000 231.058,276.000 230.395 C 276.000 229.732,275.840 228.877,275.645 228.495 C 275.450 228.113,274.969 226.360,274.578 224.600 C 274.186 222.840,273.716 221.229,273.533 221.020 C 273.350 220.811,273.200 220.151,273.200 219.553 C 273.200 218.956,273.022 218.407,272.804 218.333 C 271.981 218.056,272.177 214.205,273.063 213.255 C 273.520 212.764,274.229 211.741,274.638 210.981 C 275.047 210.222,275.521 209.600,275.691 209.600 C 275.861 209.600,276.000 209.338,276.000 209.018 C 276.000 208.698,276.405 208.012,276.900 207.494 C 278.411 205.913,279.985 203.823,279.993 203.388 C 279.997 203.162,280.360 202.717,280.800 202.400 C 281.240 202.083,281.600 201.620,281.600 201.371 C 281.600 201.122,282.140 200.354,282.800 199.663 C 283.460 198.972,284.000 198.175,284.000 197.892 C 284.000 197.609,284.360 197.117,284.800 196.800 C 285.240 196.483,285.600 196.038,285.601 195.812 C 285.601 195.585,286.141 194.770,286.800 194.000 C 287.459 193.230,287.999 192.441,287.999 192.247 C 288.000 192.053,288.323 191.603,288.719 191.247 C 289.733 190.334,291.600 186.325,291.600 185.060 C 291.600 184.477,291.780 184.000,292.000 184.000 C 292.245 184.000,292.400 182.067,292.400 179.000 C 292.400 175.933,292.245 174.000,292.000 174.000 C 291.780 174.000,291.599 173.325,291.598 172.500 C 291.596 171.675,291.326 170.484,290.998 169.854 C 290.669 169.224,290.400 168.459,290.400 168.154 C 290.400 167.849,290.220 167.600,290.000 167.600 C 289.780 167.600,289.600 167.336,289.600 167.013 C 289.600 166.246,283.570 160.171,282.458 159.818 C 281.986 159.669,281.600 159.419,281.600 159.264 C 281.600 159.109,280.925 158.628,280.100 158.196 C 279.275 157.764,278.309 157.094,277.953 156.706 C 277.597 156.317,277.052 156.000,276.741 156.000 C 276.431 156.000,275.917 155.640,275.600 155.200 C 275.283 154.760,274.833 154.400,274.600 154.400 C 274.367 154.400,273.917 154.040,273.600 153.600 C 273.283 153.160,272.793 152.800,272.512 152.800 C 272.230 152.800,272.000 152.620,272.000 152.400 C 272.000 152.180,271.770 152.000,271.488 152.000 C 271.207 152.000,270.717 151.640,270.400 151.200 C 270.083 150.760,269.585 150.400,269.294 150.400 C 268.293 150.400,266.000 147.480,266.000 146.205 C 266.000 145.872,265.820 145.600,265.600 145.600 C 265.380 145.600,265.200 145.240,265.200 144.800 C 265.200 144.360,265.020 144.000,264.800 144.000 C 264.580 144.000,264.400 143.770,264.400 143.488 C 264.400 143.207,264.040 142.717,263.600 142.400 C 263.160 142.083,262.800 141.579,262.800 141.280 C 262.800 140.982,262.080 140.046,261.200 139.200 C 260.320 138.354,259.600 137.379,259.600 137.031 C 259.600 136.684,259.442 136.400,259.248 136.400 C 259.055 136.400,258.195 135.725,257.338 134.900 C 256.480 134.075,255.289 133.145,254.689 132.832 C 254.090 132.520,253.600 132.115,253.600 131.932 C 253.600 131.750,253.240 131.600,252.800 131.600 C 252.360 131.600,252.000 131.420,252.000 131.200 C 252.000 130.980,251.640 130.800,251.200 130.800 C 250.760 130.800,250.400 130.620,250.400 130.400 C 250.400 130.180,250.040 130.000,249.600 130.000 C 249.160 130.000,248.800 129.820,248.800 129.600 C 248.800 129.380,248.451 129.200,248.024 129.200 C 247.597 129.200,247.136 129.020,247.000 128.800 C 246.864 128.580,246.133 128.400,245.376 128.400 C 244.619 128.400,244.000 128.220,244.000 128.000 C 244.000 127.780,243.021 127.600,241.824 127.600 C 240.627 127.600,239.536 127.420,239.400 127.200 C 239.264 126.980,238.291 126.800,237.238 126.800 C 235.418 126.800,233.085 125.985,232.584 125.175 C 232.457 124.969,232.003 124.800,231.576 124.800 C 231.149 124.800,230.800 124.620,230.800 124.400 C 230.800 124.180,230.480 124.000,230.088 124.000 C 229.697 124.000,229.117 123.640,228.800 123.200 C 228.483 122.760,227.903 122.400,227.512 122.400 C 227.120 122.400,226.800 122.220,226.800 122.000 C 226.800 121.780,226.260 121.600,225.600 121.600 C 224.940 121.600,224.399 121.465,224.397 121.300 C 224.393 120.894,222.414 120.000,221.520 120.000 C 221.124 120.000,220.800 119.820,220.800 119.600 C 220.800 119.380,220.440 119.200,220.000 119.200 C 219.560 119.200,219.200 119.020,219.200 118.800 C 219.200 118.580,218.491 118.400,217.624 118.400 C 216.757 118.400,215.936 118.220,215.800 118.000 C 215.664 117.780,214.854 117.600,214.000 117.600 C 213.146 117.600,212.336 117.420,212.200 117.200 C 212.064 116.980,210.883 116.800,209.576 116.800 C 208.259 116.800,207.200 116.622,207.200 116.400 C 207.200 116.147,204.400 116.000,199.600 116.000 C 194.800 116.000,192.000 116.147,192.000 116.400 M211.284 125.524 C 211.546 125.786,212.354 126.000,213.080 126.000 C 213.806 126.000,214.400 126.180,214.400 126.400 C 214.400 126.620,214.940 126.800,215.600 126.800 C 216.260 126.800,216.800 126.980,216.800 127.200 C 216.800 127.420,217.340 127.600,218.000 127.600 C 218.660 127.600,219.200 127.780,219.200 128.000 C 219.200 128.220,219.560 128.400,220.000 128.400 C 220.440 128.400,220.800 128.580,220.800 128.800 C 220.800 129.020,221.160 129.200,221.600 129.200 C 222.040 129.200,222.400 129.303,222.400 129.429 C 222.400 129.898,221.235 130.800,220.629 130.800 C 220.283 130.800,220.000 130.980,220.000 131.200 C 220.000 131.420,219.640 131.600,219.200 131.600 C 218.760 131.600,218.400 131.750,218.400 131.932 C 218.400 132.115,217.905 132.520,217.300 132.832 C 216.695 133.145,215.750 133.863,215.200 134.429 C 214.650 134.995,213.705 135.781,213.100 136.175 C 212.495 136.569,212.000 137.057,212.000 137.259 C 212.000 137.461,211.403 138.224,210.673 138.953 C 209.944 139.683,209.112 140.847,208.825 141.540 C 208.538 142.233,208.145 142.800,207.951 142.800 C 207.758 142.800,207.600 143.070,207.600 143.400 C 207.600 143.730,207.420 144.000,207.200 144.000 C 206.980 144.000,206.800 144.360,206.800 144.800 C 206.800 145.240,206.620 145.600,206.400 145.600 C 206.180 145.600,206.000 146.050,206.000 146.600 C 206.000 147.150,205.820 147.600,205.600 147.600 C 205.380 147.600,205.200 148.129,205.200 148.776 C 205.200 149.423,205.020 150.064,204.800 150.200 C 204.580 150.336,204.400 150.977,204.400 151.624 C 204.400 152.271,204.220 152.800,204.000 152.800 C 203.773 152.800,203.600 153.974,203.600 155.522 L 203.600 158.244 200.300 158.714 C 195.366 159.418,194.278 159.621,193.400 160.000 C 192.532 160.375,190.770 160.729,188.100 161.066 C 187.165 161.184,186.400 161.442,186.400 161.640 C 186.400 161.838,185.680 162.000,184.800 162.000 C 183.920 162.000,183.200 162.180,183.200 162.400 C 183.200 162.620,182.401 162.800,181.424 162.800 C 180.447 162.800,179.536 162.980,179.400 163.200 C 179.264 163.420,178.569 163.600,177.856 163.600 C 177.143 163.600,176.374 163.786,176.147 164.013 C 175.864 164.296,175.791 164.046,175.913 163.213 C 176.011 162.546,176.250 162.000,176.445 162.000 C 176.640 162.000,176.800 161.460,176.800 160.800 C 176.800 160.140,176.980 159.600,177.200 159.600 C 177.420 159.600,177.600 159.060,177.600 158.400 C 177.600 157.740,177.780 157.200,178.000 157.200 C 178.220 157.200,178.400 156.480,178.400 155.600 C 178.400 154.720,178.580 154.000,178.800 154.000 C 179.040 154.000,179.200 152.408,179.200 150.024 C 179.200 147.804,179.023 145.938,178.800 145.800 C 178.580 145.664,178.400 144.933,178.400 144.176 C 178.400 143.419,178.220 142.800,178.000 142.800 C 177.780 142.800,177.600 142.440,177.600 142.000 C 177.600 141.560,177.420 141.200,177.200 141.200 C 176.980 141.200,176.800 140.840,176.800 140.400 C 176.800 139.960,176.620 139.600,176.400 139.600 C 176.180 139.600,176.000 139.240,176.000 138.800 C 176.000 138.360,175.864 138.000,175.698 138.000 C 175.531 138.000,175.168 137.487,174.890 136.859 C 174.613 136.232,173.854 135.197,173.204 134.559 C 171.911 133.291,171.662 132.400,172.600 132.400 C 172.930 132.400,173.200 132.220,173.200 132.000 C 173.200 131.780,173.470 131.600,173.800 131.600 C 174.130 131.600,174.400 131.420,174.400 131.200 C 174.400 130.980,174.720 130.800,175.112 130.800 C 175.503 130.800,176.083 130.440,176.400 130.000 C 176.739 129.530,177.435 129.200,178.088 129.200 C 178.700 129.200,179.200 129.020,179.200 128.800 C 179.200 128.580,179.560 128.400,180.000 128.400 C 180.440 128.400,180.800 128.220,180.800 128.000 C 180.800 127.780,181.340 127.600,182.000 127.600 C 182.660 127.600,183.200 127.420,183.200 127.200 C 183.200 126.980,183.740 126.800,184.400 126.800 C 185.060 126.800,185.600 126.620,185.600 126.400 C 185.600 126.180,186.320 126.000,187.200 126.000 C 188.080 126.000,188.800 125.830,188.800 125.622 C 188.800 124.737,210.402 124.642,211.284 125.524 M239.600 136.000 C 239.600 136.220,240.219 136.400,240.976 136.400 C 241.733 136.400,242.464 136.580,242.600 136.800 C 242.736 137.020,243.161 137.200,243.544 137.200 C 244.419 137.200,246.393 138.099,246.397 138.500 C 246.399 138.665,246.760 138.800,247.200 138.800 C 247.640 138.800,248.000 138.980,248.000 139.200 C 248.000 139.420,248.269 139.600,248.597 139.600 C 249.667 139.600,256.000 145.569,256.000 146.578 C 256.000 146.920,256.180 147.200,256.400 147.200 C 256.620 147.200,256.800 147.560,256.800 148.000 C 256.800 148.440,256.980 148.800,257.200 148.800 C 257.420 148.800,257.600 149.070,257.600 149.400 C 257.600 149.730,257.780 150.000,258.000 150.000 C 258.220 150.000,258.408 150.405,258.418 150.900 C 258.427 151.395,258.698 152.520,259.019 153.400 C 259.677 155.203,259.874 164.569,259.271 165.342 C 259.074 165.594,258.793 166.429,258.647 167.197 C 258.321 168.910,257.511 170.800,257.102 170.800 C 256.936 170.800,256.800 171.160,256.800 171.600 C 256.800 172.040,256.620 172.400,256.400 172.400 C 256.180 172.400,255.994 172.715,255.987 173.100 C 255.980 173.485,255.059 174.610,253.941 175.600 C 252.822 176.590,251.304 177.985,250.567 178.700 C 249.830 179.415,248.951 180.000,248.613 180.000 C 248.276 180.000,248.000 180.180,248.000 180.400 C 248.000 180.620,247.640 180.800,247.200 180.800 C 246.760 180.800,246.400 180.980,246.400 181.200 C 246.400 181.420,246.040 181.600,245.600 181.600 C 245.160 181.600,244.800 181.780,244.800 182.000 C 244.800 182.220,244.361 182.400,243.824 182.400 C 243.287 182.400,242.736 182.580,242.600 182.800 C 242.464 183.020,241.733 183.200,240.976 183.200 C 240.219 183.200,239.600 183.380,239.600 183.600 C 239.600 183.837,238.133 184.000,236.000 184.000 C 233.867 184.000,232.400 183.837,232.400 183.600 C 232.400 183.380,231.680 183.200,230.800 183.200 C 229.920 183.200,229.200 183.020,229.200 182.800 C 229.200 182.580,228.660 182.400,228.000 182.400 C 227.340 182.400,226.800 182.220,226.800 182.000 C 226.800 181.780,226.440 181.600,226.000 181.600 C 225.560 181.600,225.200 181.464,225.200 181.298 C 225.200 181.131,224.622 180.740,223.916 180.427 C 223.210 180.114,222.061 179.305,221.362 178.629 C 220.664 177.953,219.178 176.590,218.059 175.600 C 216.941 174.610,216.020 173.485,216.013 173.100 C 216.006 172.715,215.820 172.400,215.600 172.400 C 215.380 172.400,215.200 172.040,215.200 171.600 C 215.200 171.160,215.065 170.799,214.900 170.797 C 214.541 170.793,213.600 168.856,213.600 168.120 C 213.600 167.834,213.420 167.600,213.200 167.600 C 212.980 167.600,212.800 167.060,212.800 166.400 C 212.800 165.740,212.620 165.200,212.400 165.200 C 212.153 165.200,212.000 163.133,212.000 159.800 C 212.000 156.467,212.153 154.400,212.400 154.400 C 212.620 154.400,212.800 153.860,212.800 153.200 C 212.800 152.540,212.980 152.000,213.200 152.000 C 213.420 152.000,213.600 151.584,213.600 151.075 C 213.600 150.567,213.960 149.764,214.400 149.292 C 214.840 148.820,215.200 148.156,215.200 147.817 C 215.200 147.478,215.380 147.200,215.600 147.200 C 215.820 147.200,216.000 146.913,216.000 146.562 C 216.000 145.653,221.909 140.058,223.700 139.271 C 224.525 138.908,225.200 138.474,225.200 138.306 C 225.200 138.138,225.560 138.000,226.000 138.000 C 226.440 138.000,226.800 137.820,226.800 137.600 C 226.800 137.380,227.340 137.200,228.000 137.200 C 228.660 137.200,229.200 137.020,229.200 136.800 C 229.200 136.580,229.920 136.400,230.800 136.400 C 231.680 136.400,232.400 136.220,232.400 136.000 C 232.400 135.763,233.867 135.600,236.000 135.600 C 238.133 135.600,239.600 135.763,239.600 136.000 M163.167 138.479 C 166.288 140.088,169.200 142.852,169.200 144.205 C 169.200 144.532,169.380 144.800,169.600 144.800 C 169.820 144.800,170.000 145.340,170.000 146.000 C 170.000 146.660,170.180 147.200,170.400 147.200 C 170.629 147.200,170.800 148.400,170.800 150.000 C 170.800 151.600,170.629 152.800,170.400 152.800 C 170.180 152.800,170.000 153.340,170.000 154.000 C 170.000 154.660,169.820 155.200,169.600 155.200 C 169.380 155.200,169.200 155.740,169.200 156.400 C 169.200 157.060,169.020 157.600,168.800 157.600 C 168.580 157.600,168.400 158.039,168.400 158.576 C 168.400 159.113,168.220 159.664,168.000 159.800 C 167.780 159.936,167.600 160.487,167.600 161.024 C 167.600 161.561,167.420 162.000,167.200 162.000 C 166.980 162.000,166.800 162.540,166.800 163.200 C 166.800 163.860,166.620 164.400,166.400 164.400 C 166.180 164.400,166.000 164.940,166.000 165.600 C 166.000 166.260,165.820 166.800,165.600 166.800 C 165.380 166.800,165.200 167.340,165.200 168.000 C 165.200 168.660,165.020 169.200,164.800 169.200 C 164.580 169.200,164.400 169.740,164.400 170.400 C 164.400 171.060,164.220 171.600,164.000 171.600 C 163.780 171.600,163.600 172.140,163.600 172.800 C 163.600 173.460,163.420 174.000,163.200 174.000 C 162.980 174.000,162.800 174.439,162.800 174.976 C 162.800 175.513,162.620 176.064,162.400 176.200 C 162.180 176.336,162.000 176.876,162.000 177.400 C 162.000 177.924,161.820 178.464,161.600 178.600 C 161.380 178.736,161.200 179.276,161.200 179.800 C 161.200 180.324,161.020 180.864,160.800 181.000 C 160.580 181.136,160.400 181.676,160.400 182.200 C 160.400 182.724,160.220 183.264,160.000 183.400 C 159.780 183.536,159.600 184.076,159.600 184.600 C 159.600 185.124,159.433 185.656,159.228 185.783 C 159.023 185.909,158.733 187.000,158.582 188.206 C 158.431 189.413,158.149 190.400,157.954 190.400 C 157.759 190.400,157.600 191.390,157.600 192.600 C 157.600 193.810,157.780 194.800,158.000 194.800 C 158.220 194.800,158.400 195.057,158.400 195.371 C 158.400 196.009,160.523 197.200,161.661 197.200 C 162.068 197.200,162.400 197.380,162.400 197.600 C 162.400 197.820,162.839 198.000,163.376 198.000 C 163.913 198.000,164.464 198.180,164.600 198.400 C 164.736 198.620,165.276 198.800,165.800 198.800 C 166.324 198.800,166.864 198.980,167.000 199.200 C 167.136 199.420,167.676 199.600,168.200 199.600 C 168.724 199.600,169.264 199.780,169.400 200.000 C 169.536 200.220,170.087 200.400,170.624 200.400 C 171.161 200.400,171.600 200.580,171.600 200.800 C 171.600 201.020,172.140 201.200,172.800 201.200 C 173.460 201.200,174.000 201.380,174.000 201.600 C 174.000 201.820,174.540 202.000,175.200 202.000 C 175.860 202.000,176.400 202.180,176.400 202.400 C 176.400 202.620,176.839 202.800,177.376 202.800 C 177.913 202.800,178.464 202.980,178.600 203.200 C 178.736 203.420,179.276 203.600,179.800 203.600 C 180.324 203.600,180.864 203.780,181.000 204.000 C 181.136 204.220,181.676 204.400,182.200 204.400 C 182.724 204.400,183.264 204.580,183.400 204.800 C 183.536 205.020,184.076 205.200,184.600 205.200 C 185.124 205.200,185.664 205.380,185.800 205.600 C 185.936 205.820,186.363 206.000,186.749 206.000 C 187.135 206.000,188.383 206.450,189.523 207.000 C 190.663 207.550,191.693 208.000,191.811 208.000 C 192.264 208.000,194.800 210.799,194.800 211.298 C 194.800 211.587,195.160 212.083,195.600 212.400 C 196.070 212.739,196.400 213.435,196.400 214.088 C 196.400 214.700,196.580 215.200,196.800 215.200 C 197.037 215.200,197.200 216.667,197.200 218.800 C 197.200 220.933,197.037 222.400,196.800 222.400 C 196.580 222.400,196.400 222.760,196.400 223.200 C 196.400 223.640,196.220 224.000,196.000 224.000 C 195.780 224.000,195.600 224.360,195.600 224.800 C 195.600 225.240,195.420 225.600,195.200 225.600 C 194.980 225.600,194.800 225.774,194.800 225.987 C 194.800 226.578,192.273 229.200,191.703 229.200 C 191.426 229.200,191.200 229.380,191.200 229.600 C 191.200 229.820,190.840 230.000,190.400 230.000 C 189.960 230.000,189.600 230.180,189.600 230.400 C 189.600 230.620,189.240 230.800,188.800 230.800 C 188.360 230.800,188.000 230.980,188.000 231.200 C 188.000 231.433,186.675 231.600,184.824 231.600 C 183.077 231.600,181.536 231.420,181.400 231.200 C 181.264 230.980,180.533 230.800,179.776 230.800 C 179.019 230.800,178.400 230.620,178.400 230.400 C 178.400 230.180,177.860 230.000,177.200 230.000 C 176.540 230.000,176.000 229.820,176.000 229.600 C 176.000 229.380,175.561 229.200,175.024 229.200 C 174.487 229.200,173.936 229.020,173.800 228.800 C 173.664 228.580,173.113 228.400,172.576 228.400 C 172.039 228.400,171.600 228.220,171.600 228.000 C 171.600 227.780,171.060 227.600,170.400 227.600 C 169.740 227.600,169.200 227.420,169.200 227.200 C 169.200 226.980,168.838 226.800,168.395 226.800 C 167.952 226.800,167.277 226.642,166.895 226.448 C 165.615 225.801,162.210 224.796,161.300 224.798 C 160.805 224.799,160.400 224.620,160.400 224.400 C 160.400 224.180,159.860 224.000,159.200 224.000 C 158.540 224.000,158.000 223.820,158.000 223.600 C 158.000 223.380,157.460 223.200,156.800 223.200 C 156.140 223.200,155.600 223.020,155.600 222.800 C 155.600 222.580,155.150 222.400,154.600 222.400 C 154.050 222.400,153.600 222.220,153.600 222.000 C 153.600 221.780,153.060 221.600,152.400 221.600 C 151.740 221.600,151.200 221.420,151.200 221.200 C 151.200 220.980,150.660 220.800,150.000 220.800 C 149.340 220.800,148.800 220.620,148.800 220.400 C 148.800 220.180,148.260 220.000,147.600 220.000 C 146.940 220.000,146.400 219.820,146.400 219.600 C 146.400 219.380,145.860 219.200,145.200 219.200 C 144.540 219.200,144.000 219.020,144.000 218.800 C 144.000 218.580,143.460 218.400,142.800 218.400 C 142.140 218.400,141.600 218.220,141.600 218.000 C 141.600 217.780,141.161 217.600,140.624 217.600 C 140.087 217.600,139.536 217.420,139.400 217.200 C 139.264 216.980,138.713 216.800,138.176 216.800 C 137.639 216.800,137.200 216.620,137.200 216.400 C 137.200 216.180,136.660 216.000,136.000 216.000 C 135.340 216.000,134.800 215.820,134.800 215.600 C 134.800 215.380,134.480 215.200,134.088 215.200 C 133.697 215.200,133.117 214.840,132.800 214.400 C 132.483 213.960,131.969 213.600,131.659 213.600 C 131.036 213.600,129.883 212.397,128.879 210.700 C 128.520 210.095,128.086 209.600,127.914 209.600 C 127.741 209.600,127.600 209.150,127.600 208.600 C 127.600 208.050,127.420 207.600,127.200 207.600 C 126.980 207.600,126.800 206.880,126.800 206.000 C 126.800 205.120,126.620 204.400,126.400 204.400 C 126.180 204.400,126.000 203.950,126.000 203.400 C 126.000 202.850,126.180 202.400,126.400 202.400 C 126.620 202.400,126.800 201.781,126.800 201.024 C 126.800 200.267,126.980 199.536,127.200 199.400 C 127.420 199.264,127.600 198.713,127.600 198.176 C 127.600 197.639,127.780 197.200,128.000 197.200 C 128.220 197.200,128.400 196.660,128.400 196.000 C 128.400 195.340,128.580 194.800,128.800 194.800 C 129.020 194.800,129.200 194.260,129.200 193.600 C 129.200 192.940,129.380 192.400,129.600 192.400 C 129.820 192.400,130.000 191.860,130.000 191.200 C 130.000 190.540,130.180 190.000,130.400 190.000 C 130.620 190.000,130.800 189.561,130.800 189.024 C 130.800 188.487,130.980 187.936,131.200 187.800 C 131.420 187.664,131.600 187.113,131.600 186.576 C 131.600 186.039,131.780 185.600,132.000 185.600 C 132.220 185.600,132.400 185.060,132.400 184.400 C 132.400 183.740,132.580 183.200,132.800 183.200 C 133.020 183.200,133.200 182.660,133.200 182.000 C 133.200 181.340,133.380 180.800,133.600 180.800 C 133.820 180.800,134.000 180.260,134.000 179.600 C 134.000 178.940,134.180 178.400,134.400 178.400 C 134.620 178.400,134.800 177.860,134.800 177.200 C 134.800 176.540,134.980 176.000,135.200 176.000 C 135.420 176.000,135.600 175.561,135.600 175.024 C 135.600 174.487,135.780 173.936,136.000 173.800 C 136.220 173.664,136.400 173.124,136.400 172.600 C 136.400 172.076,136.580 171.536,136.800 171.400 C 137.020 171.264,137.200 170.713,137.200 170.176 C 137.200 169.639,137.380 169.200,137.600 169.200 C 137.820 169.200,138.000 168.660,138.000 168.000 C 138.000 167.340,138.180 166.800,138.400 166.800 C 138.620 166.800,138.800 166.260,138.800 165.600 C 138.800 164.940,138.980 164.400,139.200 164.400 C 139.420 164.400,139.600 163.860,139.600 163.200 C 139.600 162.540,139.780 162.000,140.000 162.000 C 140.220 162.000,140.400 161.471,140.400 160.824 C 140.400 160.177,140.575 159.539,140.788 159.407 C 141.002 159.275,141.295 158.275,141.440 157.184 C 141.585 156.093,141.860 155.200,142.052 155.200 C 142.243 155.200,142.400 154.660,142.400 154.000 C 142.400 153.340,142.580 152.800,142.800 152.800 C 143.020 152.800,143.200 152.260,143.200 151.600 C 143.200 150.940,143.380 150.400,143.600 150.400 C 143.820 150.400,144.000 149.860,144.000 149.200 C 144.000 148.540,144.180 148.000,144.400 148.000 C 144.620 148.000,144.800 147.584,144.800 147.075 C 144.800 146.567,145.160 145.764,145.600 145.292 C 146.040 144.820,146.400 144.156,146.400 143.817 C 146.400 143.478,146.580 143.200,146.800 143.200 C 147.020 143.200,147.200 142.840,147.200 142.400 C 147.200 141.960,147.372 141.600,147.582 141.600 C 147.792 141.600,148.396 141.168,148.924 140.639 C 152.430 137.134,158.712 136.181,163.167 138.479 M270.400 162.000 C 270.717 162.440,271.225 162.800,271.528 162.800 C 271.831 162.800,272.556 163.295,273.140 163.900 C 273.723 164.505,274.695 165.255,275.300 165.568 C 275.905 165.880,276.400 166.285,276.400 166.468 C 276.400 166.650,276.587 166.800,276.816 166.800 C 277.478 166.800,282.145 171.678,282.747 173.000 C 283.047 173.660,283.452 174.513,283.647 174.895 C 284.132 175.849,284.094 181.495,283.600 181.800 C 283.380 181.936,283.200 182.487,283.200 183.024 C 283.200 183.561,283.020 184.000,282.800 184.000 C 282.580 184.000,282.400 184.320,282.400 184.712 C 282.400 185.103,282.040 185.683,281.600 186.000 C 281.160 186.317,280.800 186.809,280.800 187.092 C 280.800 187.375,280.260 188.172,279.600 188.863 C 278.940 189.554,278.400 190.322,278.400 190.571 C 278.400 190.820,278.040 191.283,277.600 191.600 C 277.160 191.917,276.800 192.329,276.800 192.515 C 276.800 192.701,276.350 193.443,275.800 194.164 C 275.250 194.886,274.800 195.644,274.800 195.849 C 274.800 196.055,274.440 196.483,274.000 196.800 C 273.560 197.117,273.200 197.625,273.200 197.928 C 273.200 198.231,272.660 198.983,272.000 199.600 C 271.340 200.217,270.800 200.969,270.800 201.272 C 270.800 201.575,270.440 202.083,270.000 202.400 C 269.560 202.717,269.200 203.225,269.200 203.528 C 269.200 203.831,268.660 204.583,268.000 205.200 C 267.340 205.817,266.800 206.569,266.800 206.872 C 266.800 207.175,266.440 207.683,266.000 208.000 C 265.560 208.317,265.200 208.807,265.200 209.088 C 265.200 209.370,265.059 209.600,264.886 209.600 C 264.714 209.600,264.279 210.095,263.921 210.700 C 263.563 211.305,262.804 212.340,262.235 213.000 C 261.666 213.660,261.201 214.343,261.200 214.517 C 261.200 214.692,260.757 215.313,260.216 215.896 C 259.675 216.480,259.023 217.462,258.767 218.079 C 258.512 218.695,258.145 219.200,257.951 219.200 C 257.758 219.200,257.600 219.488,257.600 219.840 C 257.600 220.191,257.060 220.983,256.400 221.600 C 255.740 222.217,255.200 222.933,255.200 223.192 C 255.200 224.027,250.327 228.400,249.397 228.400 C 249.069 228.400,248.800 228.580,248.800 228.800 C 248.800 229.020,248.361 229.200,247.824 229.200 C 247.287 229.200,246.736 229.380,246.600 229.600 C 245.183 231.894,233.200 227.256,233.200 224.413 C 233.200 224.186,233.020 224.000,232.800 224.000 C 232.580 224.000,232.400 223.640,232.400 223.200 C 232.400 222.760,232.220 222.400,232.000 222.400 C 231.780 222.400,231.600 222.040,231.600 221.600 C 231.600 221.160,231.420 220.800,231.200 220.800 C 230.963 220.800,230.800 219.333,230.800 217.200 C 230.800 215.067,230.963 213.600,231.200 213.600 C 231.420 213.600,231.600 213.060,231.600 212.400 C 231.600 211.740,231.768 211.200,231.973 211.200 C 232.178 211.200,232.460 210.840,232.600 210.400 C 232.804 209.759,233.205 209.600,234.627 209.600 C 235.602 209.600,236.400 209.420,236.400 209.200 C 236.400 208.980,237.199 208.800,238.176 208.800 C 239.153 208.800,240.051 208.641,240.171 208.446 C 240.292 208.252,241.202 207.971,242.195 207.822 C 243.188 207.673,244.000 207.382,244.000 207.175 C 244.000 206.969,244.360 206.800,244.800 206.800 C 245.240 206.800,245.600 206.620,245.600 206.400 C 245.600 206.180,245.960 206.000,246.400 206.000 C 246.840 206.000,247.200 205.820,247.200 205.600 C 247.200 205.380,247.454 205.200,247.763 205.200 C 248.429 205.200,255.200 198.651,255.200 198.008 C 255.200 197.765,255.536 197.206,255.947 196.764 C 256.981 195.655,258.800 189.747,258.800 187.500 C 258.800 186.481,258.980 185.536,259.200 185.400 C 259.420 185.264,259.600 184.429,259.600 183.545 C 259.600 182.192,259.854 181.694,261.200 180.400 C 262.080 179.554,262.800 178.661,262.800 178.415 C 262.800 178.168,263.160 177.580,263.600 177.108 C 264.040 176.636,264.400 176.013,264.400 175.725 C 264.400 175.436,264.580 175.200,264.800 175.200 C 265.020 175.200,265.200 174.840,265.200 174.400 C 265.200 173.960,265.380 173.600,265.600 173.600 C 265.820 173.600,266.000 173.150,266.000 172.600 C 266.000 172.050,266.180 171.600,266.400 171.600 C 266.620 171.600,266.800 171.060,266.800 170.400 C 266.800 169.740,266.980 169.200,267.200 169.200 C 267.420 169.200,267.600 168.671,267.600 168.024 C 267.600 167.377,267.780 166.736,268.000 166.600 C 268.220 166.464,268.400 165.193,268.400 163.776 C 268.400 160.973,269.168 160.291,270.400 162.000 M192.400 169.567 C 192.400 170.666,189.214 173.200,187.831 173.200 C 187.044 173.200,186.400 173.020,186.400 172.800 C 186.400 172.580,185.680 172.400,184.800 172.400 C 183.920 172.400,183.200 172.297,183.200 172.171 C 183.200 171.472,184.547 170.800,185.948 170.800 C 186.831 170.800,187.664 170.620,187.800 170.400 C 187.936 170.180,188.667 170.000,189.424 170.000 C 190.181 170.000,190.800 169.820,190.800 169.600 C 190.800 169.380,191.160 169.200,191.600 169.200 C 192.040 169.200,192.400 169.365,192.400 169.567 M205.200 170.800 C 205.200 171.460,205.380 172.000,205.600 172.000 C 205.820 172.000,206.000 172.234,206.000 172.520 C 206.000 173.256,206.941 175.193,207.300 175.197 C 207.465 175.199,207.600 175.483,207.600 175.829 C 207.600 176.174,207.870 176.727,208.200 177.057 C 208.888 177.745,208.986 178.400,208.400 178.400 C 208.180 178.400,208.000 178.220,208.000 178.000 C 208.000 177.780,207.381 177.600,206.624 177.600 C 205.867 177.600,205.136 177.420,205.000 177.200 C 204.864 176.980,204.144 176.800,203.400 176.800 C 202.656 176.800,201.936 176.620,201.800 176.400 C 201.664 176.180,200.933 176.000,200.176 176.000 C 198.682 176.000,198.536 175.833,199.300 174.995 C 199.575 174.694,200.790 173.361,202.000 172.032 C 204.475 169.316,205.200 169.036,205.200 170.800 M172.400 178.000 C 172.400 178.220,173.120 178.400,174.000 178.400 C 174.880 178.400,175.600 178.580,175.600 178.800 C 175.600 179.020,176.230 179.200,177.000 179.200 C 177.770 179.200,178.400 179.380,178.400 179.600 C 178.400 179.820,179.120 180.000,180.000 180.000 C 180.880 180.000,181.600 180.180,181.600 180.400 C 181.600 180.620,182.309 180.800,183.176 180.800 C 184.043 180.800,184.864 180.980,185.000 181.200 C 185.136 181.420,186.047 181.600,187.024 181.600 C 188.001 181.600,188.800 181.780,188.800 182.000 C 188.800 182.220,189.520 182.400,190.400 182.400 C 191.280 182.400,192.000 182.580,192.000 182.800 C 192.000 183.020,192.619 183.200,193.376 183.200 C 194.133 183.200,194.864 183.380,195.000 183.600 C 195.136 183.820,195.867 184.000,196.624 184.000 C 197.381 184.000,198.000 184.180,198.000 184.400 C 198.000 184.620,198.709 184.800,199.576 184.800 C 200.443 184.800,201.252 184.961,201.374 185.158 C 201.582 185.494,202.611 185.706,206.700 186.253 C 207.635 186.378,208.400 186.642,208.400 186.840 C 208.400 187.038,209.019 187.200,209.776 187.200 C 210.533 187.200,211.264 187.380,211.400 187.600 C 211.536 187.820,212.256 188.000,213.000 188.000 C 213.744 188.000,214.464 188.180,214.600 188.400 C 214.736 188.620,215.456 188.800,216.200 188.800 C 216.944 188.800,217.652 188.961,217.774 189.158 C 217.895 189.355,218.671 189.610,219.497 189.725 C 220.324 189.840,221.810 190.139,222.800 190.389 C 226.028 191.204,228.166 191.552,230.100 191.576 C 231.145 191.589,232.000 191.780,232.000 192.000 C 232.000 192.240,233.600 192.400,236.000 192.400 C 238.200 192.400,240.000 192.246,240.000 192.058 C 240.000 191.869,241.305 191.609,242.900 191.480 C 245.817 191.242,248.362 190.532,248.878 189.812 C 249.032 189.597,249.300 189.577,249.478 189.766 C 249.655 189.955,249.575 190.190,249.300 190.288 C 249.025 190.386,248.800 190.812,248.800 191.233 C 248.800 191.655,248.620 192.000,248.400 192.000 C 248.180 192.000,248.000 192.192,248.000 192.426 C 248.000 192.953,243.862 197.200,243.349 197.200 C 243.144 197.200,242.717 197.560,242.400 198.000 C 242.083 198.440,241.503 198.800,241.112 198.800 C 240.720 198.800,240.400 198.980,240.400 199.200 C 240.400 199.420,239.860 199.600,239.200 199.600 C 238.540 199.600,238.000 199.780,238.000 200.000 C 238.000 200.220,237.460 200.400,236.800 200.400 C 236.140 200.400,235.600 200.580,235.600 200.800 C 235.600 201.020,234.700 201.200,233.600 201.200 C 232.500 201.200,231.600 201.380,231.600 201.600 C 231.600 201.820,230.801 202.000,229.824 202.000 C 228.847 202.000,227.936 202.180,227.800 202.400 C 227.664 202.620,226.753 202.800,225.776 202.800 C 224.799 202.800,224.000 202.980,224.000 203.200 C 224.000 203.420,223.280 203.600,222.400 203.600 C 221.520 203.600,220.800 203.780,220.800 204.000 C 220.800 204.220,219.900 204.400,218.800 204.400 C 217.700 204.400,216.800 204.580,216.800 204.800 C 216.800 205.020,215.900 205.200,214.800 205.200 C 213.700 205.200,212.800 205.380,212.800 205.600 C 212.800 205.820,211.990 206.000,211.000 206.000 C 210.010 206.000,209.200 206.180,209.200 206.400 C 209.200 206.620,208.401 206.800,207.424 206.800 C 206.447 206.800,205.536 206.980,205.400 207.200 C 204.772 208.215,202.000 207.253,202.000 206.020 C 202.000 205.402,197.726 201.200,197.097 201.200 C 196.811 201.200,196.317 200.840,196.000 200.400 C 195.683 199.960,195.103 199.600,194.712 199.600 C 194.320 199.600,194.000 199.420,194.000 199.200 C 194.000 198.980,193.460 198.800,192.800 198.800 C 192.140 198.800,191.600 198.620,191.600 198.400 C 191.600 198.180,191.251 198.000,190.824 198.000 C 190.397 198.000,189.936 197.820,189.800 197.600 C 189.664 197.380,189.124 197.200,188.600 197.200 C 188.076 197.200,187.558 197.056,187.449 196.879 C 187.340 196.703,186.328 196.307,185.200 196.000 C 184.072 195.693,183.060 195.297,182.951 195.121 C 182.842 194.944,182.401 194.800,181.971 194.800 C 181.541 194.800,180.877 194.636,180.495 194.436 C 180.113 194.236,178.180 193.592,176.200 193.006 C 174.220 192.420,172.287 191.774,171.905 191.571 C 171.523 191.367,170.758 191.200,170.205 191.200 C 169.652 191.200,169.200 191.020,169.200 190.800 C 169.200 190.580,168.660 190.400,168.000 190.400 C 166.822 190.400,166.412 189.887,167.200 189.400 C 167.420 189.264,167.600 188.713,167.600 188.176 C 167.600 187.639,167.780 187.200,168.000 187.200 C 168.220 187.200,168.400 186.660,168.400 186.000 C 168.400 185.340,168.580 184.800,168.800 184.800 C 169.020 184.800,169.200 184.260,169.200 183.600 C 169.200 182.940,169.380 182.400,169.600 182.400 C 169.820 182.400,170.000 181.860,170.000 181.200 C 170.000 180.540,170.180 180.000,170.400 180.000 C 170.620 180.000,170.800 179.460,170.800 178.800 C 170.800 177.867,170.978 177.600,171.600 177.600 C 172.040 177.600,172.400 177.780,172.400 178.000 M222.400 217.200 C 222.400 220.400,222.554 222.400,222.800 222.400 C 223.020 222.400,223.200 223.030,223.200 223.800 C 223.200 224.570,223.380 225.200,223.600 225.200 C 223.820 225.200,224.000 225.560,224.000 226.000 C 224.000 226.440,224.180 226.800,224.400 226.800 C 224.620 226.800,224.800 227.072,224.800 227.404 C 224.800 228.851,229.846 234.767,231.100 234.791 C 231.375 234.796,231.600 234.980,231.600 235.200 C 231.600 235.420,231.825 235.604,232.100 235.609 C 232.375 235.614,233.050 235.970,233.600 236.400 C 234.150 236.830,235.005 237.186,235.500 237.191 C 235.995 237.196,236.400 237.380,236.400 237.600 C 236.400 237.820,237.120 238.000,238.000 238.000 C 238.880 238.000,239.600 238.180,239.600 238.400 C 239.600 238.641,241.267 238.800,243.800 238.800 C 246.333 238.800,248.000 238.641,248.000 238.400 C 248.000 238.180,248.619 238.000,249.376 238.000 C 250.133 238.000,250.864 237.820,251.000 237.600 C 251.136 237.380,251.597 237.200,252.024 237.200 C 252.451 237.200,252.800 237.020,252.800 236.800 C 252.800 236.580,253.160 236.400,253.600 236.400 C 254.040 236.400,254.400 236.220,254.400 236.000 C 254.400 235.780,254.643 235.600,254.941 235.600 C 255.238 235.600,256.046 235.060,256.737 234.400 C 257.428 233.740,258.144 233.200,258.329 233.200 C 258.514 233.200,258.920 232.710,259.232 232.111 C 259.545 231.511,260.475 230.320,261.300 229.462 C 262.125 228.605,262.800 227.721,262.800 227.499 C 262.800 227.276,263.127 226.803,263.528 226.447 C 263.928 226.091,264.378 225.472,264.527 225.070 C 264.910 224.039,266.000 225.150,266.000 226.571 C 266.000 227.137,266.160 227.600,266.356 227.600 C 266.552 227.600,266.822 228.230,266.956 229.000 C 267.090 229.770,267.310 231.030,267.444 231.800 C 267.578 232.570,267.848 233.200,268.044 233.200 C 268.240 233.200,268.400 233.740,268.400 234.400 C 268.400 235.060,268.580 235.600,268.800 235.600 C 269.020 235.600,269.200 236.219,269.200 236.976 C 269.200 237.733,269.380 238.464,269.600 238.600 C 269.820 238.736,270.000 239.276,270.000 239.800 C 270.000 240.324,270.180 240.864,270.400 241.000 C 270.620 241.136,270.800 241.766,270.800 242.400 C 270.800 243.034,270.980 243.664,271.200 243.800 C 271.420 243.936,271.600 244.577,271.600 245.224 C 271.600 245.871,271.780 246.400,272.000 246.400 C 272.220 246.400,272.400 246.940,272.400 247.600 C 272.400 248.260,272.580 248.800,272.800 248.800 C 273.020 248.800,273.200 249.520,273.200 250.400 C 273.200 251.280,273.380 252.000,273.600 252.000 C 273.820 252.000,274.000 252.540,274.000 253.200 C 274.000 253.860,274.180 254.400,274.400 254.400 C 274.620 254.400,274.808 254.985,274.818 255.700 C 274.827 256.415,275.095 257.720,275.412 258.600 C 275.729 259.480,275.991 260.605,275.994 261.100 C 275.997 261.595,276.180 262.000,276.400 262.000 C 276.620 262.000,276.800 262.619,276.800 263.376 C 276.800 264.133,276.980 264.864,277.200 265.000 C 277.420 265.136,277.600 265.777,277.600 266.424 C 277.600 267.071,277.780 267.600,278.000 267.600 C 278.220 267.600,278.400 268.140,278.400 268.800 L 278.400 270.000 200.000 270.000 L 121.600 270.000 121.600 268.800 C 121.600 268.140,121.780 267.600,122.000 267.600 C 122.220 267.600,122.400 267.071,122.400 266.424 C 122.400 265.777,122.580 265.136,122.800 265.000 C 123.020 264.864,123.200 264.133,123.200 263.376 C 123.200 262.619,123.380 262.000,123.600 262.000 C 123.820 262.000,124.003 261.595,124.006 261.100 C 124.009 260.605,124.271 259.480,124.588 258.600 C 124.905 257.720,125.173 256.415,125.182 255.700 C 125.192 254.985,125.380 254.400,125.600 254.400 C 125.820 254.400,126.000 253.860,126.000 253.200 L 126.000 252.000 139.100 251.987 C 153.006 251.974,153.600 251.896,153.600 250.080 C 153.600 249.622,153.780 249.136,154.000 249.000 C 154.220 248.864,154.400 248.403,154.400 247.976 C 154.400 247.549,154.220 247.200,154.000 247.200 C 153.780 247.200,153.600 246.760,153.600 246.223 C 153.600 244.128,152.838 244.000,140.391 244.000 L 128.961 244.000 129.125 242.596 C 129.215 241.824,129.449 241.094,129.644 240.973 C 129.840 240.852,130.000 240.324,130.000 239.800 C 130.000 239.276,130.180 238.736,130.400 238.600 C 130.620 238.464,130.800 237.733,130.800 236.976 C 130.800 236.219,130.980 235.600,131.200 235.600 C 131.420 235.600,131.600 235.060,131.600 234.400 C 131.600 233.740,131.760 233.200,131.956 233.200 C 132.152 233.200,132.427 232.525,132.568 231.700 C 133.190 228.049,133.307 227.600,133.644 227.600 C 133.840 227.600,134.000 227.060,134.000 226.400 C 134.000 225.730,134.221 225.180,134.500 225.156 C 135.617 225.057,137.022 225.290,137.380 225.634 C 137.589 225.835,138.174 226.000,138.680 226.000 C 139.186 226.000,139.600 226.180,139.600 226.400 C 139.600 226.620,140.140 226.800,140.800 226.800 C 141.460 226.800,142.000 226.980,142.000 227.200 C 142.000 227.420,142.540 227.600,143.200 227.600 C 143.860 227.600,144.400 227.780,144.400 228.000 C 144.400 228.220,144.839 228.400,145.376 228.400 C 145.913 228.400,146.464 228.580,146.600 228.800 C 146.736 229.020,147.287 229.200,147.824 229.200 C 148.361 229.200,148.800 229.380,148.800 229.600 C 148.800 229.820,149.340 230.000,150.000 230.000 C 150.660 230.000,151.200 230.180,151.200 230.400 C 151.200 230.620,151.740 230.800,152.400 230.800 C 153.060 230.800,153.600 230.980,153.600 231.200 C 153.600 231.420,154.140 231.600,154.800 231.600 C 155.460 231.600,156.000 231.780,156.000 232.000 C 156.000 232.220,156.540 232.400,157.200 232.400 C 157.860 232.400,158.400 232.580,158.400 232.800 C 158.400 233.020,158.839 233.200,159.376 233.200 C 159.913 233.200,160.464 233.380,160.600 233.600 C 160.736 233.820,161.287 234.000,161.824 234.000 C 162.361 234.000,162.800 234.180,162.800 234.400 C 162.800 234.620,163.340 234.800,164.000 234.800 C 164.660 234.800,165.200 234.980,165.200 235.200 C 165.200 235.420,165.740 235.600,166.400 235.600 C 167.060 235.600,167.600 235.780,167.600 236.000 C 167.600 236.220,168.140 236.400,168.800 236.400 C 169.460 236.400,170.000 236.580,170.000 236.800 C 170.000 237.020,170.540 237.200,171.200 237.200 C 171.860 237.200,172.400 237.380,172.400 237.600 C 172.400 237.820,172.940 238.000,173.600 238.000 C 174.260 238.000,174.800 238.180,174.800 238.400 C 174.800 238.620,175.239 238.800,175.776 238.800 C 176.313 238.800,176.864 238.980,177.000 239.200 C 177.136 239.420,177.856 239.600,178.600 239.600 C 179.344 239.600,180.064 239.780,180.200 240.000 C 180.339 240.225,182.263 240.400,184.600 240.400 C 186.937 240.400,188.861 240.225,189.000 240.000 C 189.136 239.780,189.766 239.600,190.400 239.600 C 191.034 239.600,191.664 239.420,191.800 239.200 C 191.936 238.980,192.487 238.800,193.024 238.800 C 193.561 238.800,194.000 238.620,194.000 238.400 C 194.000 238.180,194.320 238.000,194.712 238.000 C 195.103 238.000,195.683 237.640,196.000 237.200 C 196.317 236.760,196.811 236.400,197.097 236.400 C 197.775 236.400,202.000 232.175,202.000 231.497 C 202.000 231.211,202.360 230.717,202.800 230.400 C 203.240 230.083,203.600 229.503,203.600 229.112 C 203.600 228.720,203.780 228.400,204.000 228.400 C 204.220 228.400,204.400 228.051,204.400 227.624 C 204.400 227.197,204.580 226.736,204.800 226.600 C 205.020 226.464,205.200 225.654,205.200 224.800 C 205.200 223.946,205.380 223.136,205.600 223.000 C 205.820 222.864,206.000 221.269,206.000 219.456 C 206.000 215.632,206.272 215.200,208.680 215.200 C 209.626 215.200,210.400 215.020,210.400 214.800 C 210.400 214.580,211.300 214.400,212.400 214.400 C 213.500 214.400,214.400 214.220,214.400 214.000 C 214.400 213.780,215.120 213.600,216.000 213.600 C 216.880 213.600,217.600 213.420,217.600 213.200 C 217.600 212.980,218.500 212.800,219.600 212.800 C 220.700 212.800,221.600 212.620,221.600 212.400 C 221.600 212.180,221.780 212.000,222.000 212.000 C 222.246 212.000,222.400 214.000,222.400 217.200 M281.600 279.600 C 281.600 280.260,281.780 280.800,282.000 280.800 C 282.220 280.800,282.400 281.419,282.400 282.176 C 282.400 282.933,282.580 283.664,282.800 283.800 C 283.020 283.936,283.200 284.577,283.200 285.224 L 283.200 286.400 200.000 286.400 L 116.800 286.400 116.800 285.224 C 116.800 284.577,116.980 283.936,117.200 283.800 C 117.420 283.664,117.600 282.933,117.600 282.176 C 117.600 281.419,117.780 280.800,118.000 280.800 C 118.220 280.800,118.400 280.260,118.400 279.600 L 118.400 278.400 200.000 278.400 L 281.600 278.400 281.600 279.600 M188.000 336.776 C 188.000 364.329,187.863 378.838,187.600 379.000 C 187.380 379.136,187.200 379.777,187.200 380.424 C 187.200 381.071,187.020 381.600,186.800 381.600 C 186.580 381.600,186.400 381.960,186.400 382.400 C 186.400 382.840,186.220 383.200,186.000 383.200 C 185.780 383.200,185.600 383.520,185.600 383.912 C 185.600 384.303,185.240 384.883,184.800 385.200 C 184.360 385.517,184.000 385.973,184.000 386.213 C 184.000 386.746,181.909 388.800,181.366 388.800 C 181.152 388.800,180.717 389.160,180.400 389.600 C 180.083 390.040,179.503 390.400,179.112 390.400 C 178.720 390.400,178.400 390.560,178.400 390.755 C 178.400 390.950,177.860 391.188,177.200 391.285 L 176.000 391.461 176.000 369.576 C 176.000 346.261,176.027 346.602,174.057 344.768 C 173.182 343.952,170.000 343.664,170.000 344.400 C 170.000 344.620,169.640 344.800,169.200 344.800 C 168.667 344.800,168.400 345.067,168.400 345.600 C 168.400 346.040,168.220 346.400,168.000 346.400 C 167.738 346.400,167.600 354.177,167.600 368.931 L 167.600 391.461 166.400 391.285 C 165.740 391.188,165.200 390.950,165.200 390.755 C 165.200 390.560,164.880 390.400,164.488 390.400 C 164.097 390.400,163.517 390.040,163.200 389.600 C 162.883 389.160,162.385 388.800,162.094 388.800 C 161.437 388.800,159.600 387.006,159.600 386.365 C 159.600 386.106,159.285 385.603,158.900 385.247 C 158.141 384.546,157.228 382.458,156.908 380.695 C 156.798 380.087,156.549 379.492,156.354 379.371 C 156.152 379.247,156.000 360.998,156.000 336.976 L 156.000 294.800 172.000 294.800 L 188.000 294.800 188.000 336.776 M243.884 336.700 C 243.816 359.745,243.618 379.140,243.444 379.800 C 243.270 380.460,242.873 381.567,242.564 382.260 C 242.254 382.954,242.000 383.736,242.000 384.000 C 242.000 384.263,241.460 384.983,240.800 385.600 C 240.140 386.217,239.600 387.009,239.600 387.360 C 239.600 387.733,239.266 388.000,238.800 388.000 C 238.360 388.000,238.000 388.180,238.000 388.400 C 238.000 388.620,237.820 388.800,237.600 388.800 C 237.337 388.800,237.200 378.467,237.200 358.600 C 237.200 338.733,237.063 328.400,236.800 328.400 C 236.580 328.400,236.400 328.117,236.400 327.771 C 236.400 326.859,235.388 325.987,233.828 325.557 C 232.248 325.121,229.200 326.100,229.200 327.043 C 229.200 327.350,229.020 327.600,228.800 327.600 C 228.537 327.600,228.400 338.650,228.400 359.951 L 228.400 392.302 226.500 392.098 C 225.455 391.986,224.297 391.738,223.926 391.547 C 223.556 391.356,222.881 391.200,222.426 391.200 C 221.972 391.200,221.600 391.020,221.600 390.800 C 221.600 390.580,221.328 390.400,220.996 390.400 C 220.664 390.400,219.828 389.860,219.137 389.200 C 218.446 388.540,217.638 388.000,217.341 388.000 C 217.043 388.000,216.800 387.757,216.800 387.459 C 216.800 387.162,216.260 386.354,215.600 385.663 C 214.940 384.972,214.400 384.136,214.400 383.804 C 214.400 383.472,214.220 383.200,214.000 383.200 C 213.780 383.200,213.600 382.840,213.600 382.400 C 213.600 381.960,213.420 381.600,213.200 381.600 C 212.980 381.600,212.800 381.060,212.800 380.400 C 212.800 379.740,212.620 379.200,212.400 379.200 C 212.136 379.200,212.000 364.867,212.000 337.000 L 212.000 294.800 228.004 294.800 L 244.007 294.800 243.884 336.700 " stroke="none" fill="#040404" fill-rule="evenodd"></path><path id="path1" d="" stroke="none" fill="#080404" fill-rule="evenodd"></path><path id="path2" d="" stroke="none" fill="#080404" fill-rule="evenodd"></path><path id="path3" d="" stroke="none" fill="#080404" fill-rule="evenodd"></path><path id="path4" d="" stroke="none" fill="#080404" fill-rule="evenodd"></path></g></svg>