<svg xmlns:xlink="http://www.w3.org/1999/xlink" xmlns="http://www.w3.org/2000/svg" width="80" height="80" viewBox="0 0 80 80"><path fill="#967A44" d="M44.033,32.19C38.372,26.529,32.206,23.027,28.431,23c-1.109-0.008-2.012,0.283-2.635,0.907 c-2.748,2.748,0.96,10.914,8.283,18.237s15.487,11.031,18.237,8.283C55.064,47.678,51.356,39.513,44.033,32.19z"></path><path fill="#BA9B48" d="M49.726,51.834C49.725,51.834,49.725,51.834,49.726,51.834c-4.05-0.001-10.33-3.666-16.001-9.336 c-3.583-3.583-6.432-7.483-8.02-10.981c-1.657-3.648-1.75-6.476-0.263-7.963c0.698-0.699,1.69-1.053,2.947-1.053 c4.092,0.028,10.354,3.693,15.997,9.336c7.634,7.633,11.271,15.955,8.282,18.944C51.97,51.479,50.979,51.834,49.726,51.834z M28.427,23.5c-1.02,0-1.773,0.256-2.277,0.76c-1.154,1.154-0.984,3.648,0.466,6.843c1.54,3.392,4.316,7.187,7.816,10.688 c5.408,5.409,11.555,9.043,15.293,9.043h0.001c0.979,0,1.731-0.256,2.236-0.761c2.506-2.507-1.286-10.535-8.282-17.53 C38.297,27.16,32.167,23.526,28.427,23.5L28.427,23.5z"></path><path fill="#8BB7F0" d="M29.833,68.333l-1.889,1.889L27,71.167l1.326,1.326L29.833,74l1.653-1.653l1.181-1.181l-0.943-0.944 L29.833,68.333z"></path><path fill="#4E7AB5" d="M29.833,74.707l-3.54-3.541l3.54-3.54l3.541,3.54L29.833,74.707z M27.707,71.167l2.126,2.126 l2.127-2.126l-2.127-2.126L27.707,71.167z"></path><path fill="#DCD5F2" d="M20.167,6l-1.938,1.938l-0.895,0.895l0.797,0.797l2.036,2.036l1.451-1.451L23,8.833l-1.566-1.566 L20.167,6z"></path><path fill="#8B75A1" d="M20.167,12.374l-3.541-3.54l3.541-3.541l3.54,3.541L20.167,12.374z M18.04,8.833l2.127,2.126 l2.126-2.126l-2.126-2.126L18.04,8.833z"></path><path fill="#8BB7F0" d="M45.944,6l-2.306,2.306l-0.527,0.527l0.729,0.729l2.104,2.104l2.833-2.833L45.944,6z"></path><path fill="#4E7AB5" d="M45.944,12.374l-3.54-3.54l3.54-3.541l3.54,3.541L45.944,12.374z M43.818,8.833l2.126,2.126 l2.126-2.126l-2.126-2.126L43.818,8.833z"></path><path fill="#FFB5D2" d="M71.167,26.778l-1.269,1.269l-1.564,1.564l1.063,1.063l1.77,1.77l1.742-1.742L74,29.611 l-1.096-1.096L71.167,26.778z"></path><path fill="#EA4C89" d="M71.167,33.151l-3.541-3.54l3.541-3.541l3.54,3.541L71.167,33.151z M69.04,29.611l2.127,2.126 l2.126-2.126l-2.126-2.126L69.04,29.611z"></path><path fill="#8BB7F0" d="M8.833,40l-1.947,1.947L6,42.833l1.063,1.063l1.77,1.77l1.83-1.83l1.003-1.003l-1.031-1.031 L8.833,40z"></path><path fill="#4E7AB5" d="M8.833,46.374l-3.54-3.54l3.54-3.541l3.541,3.541L8.833,46.374z M6.707,42.833l2.126,2.126 l2.127-2.126l-2.127-2.126L6.707,42.833z"></path><path fill="#FFC49C" d="M69.222,53.222l-2.42,2.42L65.444,57l1.269,1.269l2.508,2.508l2.656-2.656L73,57l-0.914-0.914 L69.222,53.222z"></path><path fill="#A16A4A" d="M69.223,61.485L64.737,57l4.485-4.485L73.707,57L69.223,61.485z M66.151,57l3.071,3.071L72.293,57 l-3.07-3.071L66.151,57z"></path><g><path fill="#FFB5D2" d="M70.722,74.5h-3.778v-0.236c-0.089-2.716-1.024-5.431-1.653-5.431c-1.377,0-2.731,1.658-3.819,2.992 c-1.171,1.436-2.182,2.675-3.736,2.675c-2.603,0-3.181-3.09-3.74-6.077c-0.094-0.504-0.215-1.152-0.353-1.768 c-0.096,0.196-0.193,0.387-0.28,0.567c-1.766,3.579-3.593,7.278-6.488,7.278c-2.233,0-4.486-2.086-4.486-6h3.778 c0,1.113,0.291,2.222,0.708,2.222c0.723-0.355,2.389-3.731,3.102-5.172c1.36-2.756,2.108-4.273,3.746-4.273 c2.78,0,3.392,3.279,3.987,6.451c0.117,0.621,0.107,1.372,0.45,2.182c0.081,0.193,0.266-0.323,0.387-0.472 c1.509-1.849,3.576-4.382,6.745-4.382c4.904,0,5.383,7.624,5.431,9.152V74.5z"></path><path fill="#EA4C89" d="M71.223,75h-4.778v-0.736c-0.083-2.531-0.866-4.594-1.227-4.928 c-1.124,0.067-2.412,1.646-3.357,2.805C60.658,73.614,59.526,75,57.736,75c-3.017,0-3.661-3.441-4.23-6.478 c-0.021-0.11-0.042-0.222-0.063-0.333C51.719,71.656,49.869,75,46.875,75c-2.478,0-4.986-2.233-4.986-6.5V68h4.778v0.5 c0,0.693,0.117,1.247,0.229,1.544c0.389-0.468,1.149-1.713,2.627-4.706c1.406-2.848,2.251-4.56,4.199-4.56 c3.19,0,3.873,3.635,4.476,6.842c0.039,0.208,0.064,0.412,0.091,0.625c0.024,0.201,0.049,0.405,0.086,0.613 c1.553-1.896,3.662-4.303,6.917-4.303c5.357,0,5.88,8.027,5.931,9.636V75z M67.434,74h2.781c-0.081-1.811-0.672-8.444-4.923-8.444 c-2.933,0-4.912,2.427-6.357,4.198c-0.021,0.03-0.049,0.086-0.078,0.142c-0.132,0.248-0.295,0.557-0.653,0.557h-0.332l-0.173-0.348 c-0.269-0.637-0.34-1.222-0.402-1.738c-0.023-0.191-0.045-0.374-0.077-0.545c-0.688-3.657-1.3-6.043-3.496-6.043 c-1.275,0-1.895,1.152-3.296,3.991c-1.793,3.629-2.693,5.09-3.332,5.402l-0.104,0.051h-0.116c-0.896,0-1.128-1.424-1.188-2.222 h-2.785c0.176,3.285,2.085,5,3.973,5c2.588,0,4.343-3.558,6.04-6.999l0.901-1.847l0.313,1.392c0.132,0.585,0.248,1.199,0.341,1.694 C55.13,71.758,55.702,74,57.736,74c1.315,0,2.211-1.097,3.345-2.486c1.158-1.42,2.595-3.181,4.211-3.181 C66.547,68.333,67.315,71.844,67.434,74z"></path></g><g><path fill="#FFEEA3" d="M34.078,42.144c-6.588-6.588-10.234-13.844-8.9-17.238l-0.015-0.017L6,70.222L51.333,51.06 l-0.013-0.017C47.928,52.378,40.669,48.734,34.078,42.144z"></path><path fill="#BA9B48" d="M5.06,71.163l19.952-47.2l0.729,0.825l-0.097,0.301c-1.272,3.239,2.506,10.419,8.788,16.702 c5.399,5.398,11.538,9.026,15.275,9.026c0.546,0,1.027-0.081,1.43-0.239l0.356-0.14l0.608,0.818l-0.574,0.265L5.06,71.163z M24.513,27.713L6.94,69.282l41.551-17.564c-4.022-0.617-9.646-4.099-14.767-9.22C28.568,37.341,25.132,31.691,24.513,27.713z"></path></g><g><path fill="#FFC49C" d="M71.611,5.503c-3.81,0.062-6.456,0.884-7.996,2.412c-0.875,0.867-1.369,1.963-1.439,3.181 c-0.002,0.023-0.009,0.147-0.009,0.185c0.034,2.357,1.19,4.399,1.596,5.081c0.076,0.128,0.094,0.538-0.474,0.396 c-1.014-0.047-2.136-0.336-3.285-0.581c-3.379-0.72-6.292-1.343-8.033,0.062c-0.733,0.595-1.137,1.475-1.137,2.484 c0,2.178,1.409,4.097,2.541,5.64c0.468,0.638,1.177,1.602,1.237,1.915c0,0.98-0.686,1.349-4.31,2.331 c-4.072,1.103-10.801,3.336-14.578,9.002c5.667-3.778,11.526-4.261,15.564-5.355c3.493-0.944,7.102-1.923,7.102-5.978 c0-1.468-0.956-2.771-1.97-4.152c-0.686-0.935-2.302-2.219-1.745-2.96c0.625-0.833,3.179,0.414,4.541,0.705 c1.851,0.395,3.553,0.731,4.917,0.737v0.004c1.617,0,2.748-0.833,3.224-1.549l0.183-0.348c0.215-0.536,0.295-1.063,0.295-1.551 c0-1.32-0.589-2.355-0.714-2.559c-0.27-0.406-1.077-1.817-1.154-3.207c-0.002-0.03-0.002-0.127,0-0.144 c0.026-0.259,0.113-0.465,0.312-0.659c0.319-0.317,1.696-1.343,6.279-1.317H73.5V5.501C73.5,5.501,71.877,5.497,71.611,5.503z"></path><path fill="#A16A4A" d="M33.92,39.415l1.387-2.08c3.778-5.668,10.292-7.97,14.863-9.208 c3.455-0.937,3.908-1.256,3.939-1.781c-0.126-0.309-0.828-1.264-1.135-1.682c-1.182-1.611-2.642-3.602-2.642-5.941 c0-1.161,0.47-2.181,1.323-2.872c0.795-0.642,1.846-0.953,3.214-0.953c1.529,0,3.324,0.382,5.224,0.787l0.647,0.142 c0.844,0.187,1.645,0.364,2.378,0.42c-0.929-1.67-1.43-3.377-1.452-4.959c0-0.053,0.008-0.208,0.011-0.235 c0.076-1.327,0.625-2.54,1.585-3.493c1.646-1.633,4.452-2.493,8.341-2.557C71.711,5.001,72.049,5,72.41,5L74,5.002v4.776l-1.617,0 c-4.356,0-5.557,0.976-5.753,1.171c-0.108,0.106-0.151,0.199-0.168,0.356c0.067,1.227,0.731,2.508,1.073,3.023 c0.142,0.23,0.798,1.375,0.798,2.836c0,0.606-0.111,1.19-0.33,1.737l-0.205,0.395c-0.569,0.861-1.849,1.815-3.667,1.815l-0.5-0.019 c-1.326-0.071-2.896-0.386-4.521-0.732c-0.408-0.087-0.895-0.248-1.409-0.417c-0.795-0.262-1.695-0.559-2.271-0.559 c-0.216,0-0.325,0.042-0.355,0.083c-0.159,0.212,0.701,1.159,1.025,1.515c0.27,0.297,0.531,0.586,0.724,0.849 c1.016,1.382,2.066,2.811,2.066,4.447c0,4.441-3.969,5.514-7.471,6.461c-0.944,0.256-1.984,0.478-3.085,0.713 C44.745,34.22,40.28,35.174,36,38.028L33.92,39.415z M54.87,15.898c-1.146,0-1.968,0.232-2.585,0.73 c-0.614,0.498-0.952,1.242-0.952,2.095c0,2.011,1.353,3.856,2.44,5.339c0.848,1.154,1.26,1.762,1.329,2.122 c0.009,1.52-1.135,1.95-4.671,2.908c-3.799,1.029-8.981,2.811-12.642,6.719c3.671-1.912,7.308-2.689,10.333-3.335 c1.088-0.233,2.115-0.452,3.033-0.701c3.462-0.937,6.732-1.821,6.732-5.496c0-1.308-0.909-2.545-1.873-3.855 c-0.174-0.238-0.413-0.499-0.657-0.768c-0.816-0.897-1.74-1.915-1.084-2.788c0.239-0.32,0.628-0.482,1.154-0.482 c0.737,0,1.676,0.31,2.584,0.609c0.489,0.161,0.95,0.313,1.306,0.389c1.779,0.379,3.487,0.72,4.814,0.725l0.164,0 c1.333-0.053,2.252-0.735,2.643-1.322l0.157-0.304c0.149-0.38,0.236-0.839,0.236-1.317c0-1.192-0.533-2.124-0.641-2.298 c-0.036-0.055-1.13-1.719-1.227-3.44c-0.003-0.044-0.001-0.201,0.002-0.229c0.039-0.385,0.186-0.692,0.46-0.96 c0.438-0.436,1.951-1.459,6.455-1.459l0.617,0V6.001L72.41,6c-0.353,0-0.682,0-0.789,0.003c-3.623,0.06-6.197,0.822-7.653,2.267 c-0.783,0.776-1.229,1.764-1.293,2.855l-0.008,0.157c0.021,1.515,0.549,3.186,1.525,4.824c0.119,0.203,0.166,0.529,0.008,0.806 c-0.184,0.318-0.561,0.449-1.033,0.332c-0.772-0.026-1.681-0.228-2.643-0.441l-0.625-0.137 C58.039,16.27,56.294,15.898,54.87,15.898z"></path></g><g><path fill="#8BB7F0" d="M70.722,47.5H74.5c0-0.31-0.019-0.61-0.053-0.9c-0.769-6.367-9.69-8.1-15.058-8.1 c-11.333,0-17,5.4-17,5.4s5.667-1.8,17-1.8C59.502,42.1,70.722,42.248,70.722,47.5z"></path><path fill="#4E7AB5" d="M75,48h-4.777v-0.5c0-4.709-10.727-4.899-10.835-4.9c-11.104,0-16.792,1.759-16.848,1.776 l-2.06,0.651l1.563-1.49C42.281,43.312,47.986,38,59.389,38c5.395,0,14.741,1.799,15.555,8.54C74.98,46.85,75,47.17,75,47.5V48z M71.192,47h2.79c-0.008-0.115-0.019-0.229-0.031-0.341C73.221,40.613,64.454,39,59.389,39c-7.249,0-12.163,2.272-14.681,3.831 c2.683-0.533,7.556-1.23,14.681-1.23C59.504,41.6,70.543,41.664,71.192,47z"></path></g><g><path fill="#FFC49C" d="M14.236,22.8c-4.337,0-4.861-0.25-4.93-0.691c-0.098-0.625,1.434-1.048,2.123-1.375 c1.432-0.68,3.028-1.441,3.423-2.892c0.06-0.219,0.093-0.455,0.093-0.708c0-0.251-0.023-0.485-0.064-0.708 c-0.351-1.853-2.065-2.748-3.353-3.423c-1.715-0.897-2.25-1.324-2.25-2.244c0-1.096,1.903-1.477,2.222-1.481V5.5 c-2.278,0-6,1.62-6,5.258c0,3.355,2.677,4.754,4.276,5.591c0.293,0.155,0.308,0.841,0.028,0.975C7.99,18.187,5.5,19.372,5.5,21.856 c0,4.722,5.715,4.285,8.736,4.722c0.677,0.098,0.156,0.524-0.223,0.714c-0.94,0.802-2.423,1.71-6.548,3.173l1.264,3.561 c3.005-1.067,9.994-3.972,9.994-7.92C18.722,24.513,17.319,22.8,14.236,22.8z"></path><path fill="#A16A4A" d="M8.425,34.665l-1.599-4.503l0.472-0.167c4.008-1.422,5.425-2.285,6.281-2.992 c-0.341-0.037-0.687-0.066-1.045-0.097c-3-0.255-7.534-0.64-7.534-5.05c0-2.756,2.676-4.072,4.503-4.941 c0.007-0.058-0.001-0.139-0.021-0.173C7.955,15.961,5,14.415,5,10.758C5,6.83,8.879,5,11.5,5H12v4.772l-0.494,0.006 c-0.357,0.009-1.729,0.395-1.729,0.98c0,0.592,0.26,0.9,1.981,1.801c1.36,0.712,3.217,1.684,3.612,3.773 c0.049,0.257,0.073,0.527,0.073,0.801c0,0.292-0.037,0.575-0.11,0.842c-0.456,1.675-2.174,2.49-3.689,3.21 c-0.16,0.076-0.362,0.157-0.579,0.243c-0.313,0.125-1.003,0.4-1.218,0.602c0.403,0.179,1.877,0.27,4.389,0.27 c3.426,0,4.986,1.973,4.986,3.805c0,4.11-6.47,7.021-10.327,8.392L8.425,34.665z M8.103,30.768l0.929,2.616 c2.673-0.994,9.191-3.778,9.191-7.278c0-1.351-1.247-2.805-3.986-2.805c-4.561,0-5.289-0.251-5.425-1.114 c-0.137-0.882,0.983-1.329,1.884-1.687c0.195-0.078,0.377-0.15,0.521-0.218c1.32-0.627,2.818-1.338,3.153-2.571 c0.05-0.181,0.075-0.375,0.075-0.577c0-0.218-0.02-0.422-0.056-0.615c-0.306-1.613-1.849-2.421-3.089-3.071 c-1.716-0.897-2.522-1.455-2.522-2.689c0-1.173,1.381-1.734,2.223-1.914V6.028c-1.979,0.212-5,1.642-5,4.73 c0,3.051,2.411,4.313,4.007,5.147c0.378,0.2,0.505,0.642,0.498,0.989c-0.008,0.409-0.188,0.738-0.483,0.88 C8.229,18.627,6,19.687,6,21.855c0,3.234,2.869,3.735,6.619,4.054c0.611,0.052,1.187,0.101,1.688,0.174 c0.581,0.084,0.719,0.409,0.748,0.595c0.082,0.509-0.467,0.875-0.763,1.032C13.404,28.459,12.008,29.353,8.103,30.768z"></path></g><g><path fill="#FFFFFF" d="M12.575,61.911c-0.079,0-0.158-0.019-0.232-0.057c-0.244-0.128-0.339-0.431-0.21-0.675l12.75-24.297 c0.128-0.246,0.432-0.337,0.675-0.21c0.244,0.128,0.339,0.431,0.21,0.675l-12.75,24.297C12.929,61.813,12.755,61.911,12.575,61.911 z"></path></g><g><path fill="#FFB5D2" d="M32,32.445c0.362-1.231,1.833-5.667,1.833-11.333c0-2.397-0.631-4.252-1.875-5.516 c-2.031-2.061-5.139-2.029-5.19-2.04H26.5V9.778h0.229c0.138,0.004,4.6-0.089,7.766,3.092c1.995,2.002,3.005,4.775,3.005,8.241 C37.5,28.667,32,32.445,32,32.445z"></path><path fill="#EA4C89" d="M31.123,33.653l0.49-1.66c0.471-1.556,1.72-5.688,1.72-10.882c0-2.261-0.582-3.999-1.731-5.165 c-1.633-1.657-4.09-1.865-4.804-1.889L26,14.056V9.278h0.729c0.843,0.002,5.064,0.169,8.12,3.24c2.09,2.098,3.15,4.989,3.15,8.594 c0,7.729-5.483,11.585-5.717,11.745L31.123,33.653z M27,13.071c1.073,0.047,3.546,0.38,5.314,2.173 c1.339,1.36,2.019,3.333,2.019,5.867c0,4.213-0.797,7.738-1.369,9.821C34.525,29.347,37,26.054,37,21.111 c0-3.331-0.962-5.985-2.859-7.888c-2.549-2.561-6.011-2.9-7.141-2.94V13.071z"></path></g></svg>