<svg id="svg" version="1.1" xmlns="http://www.w3.org/2000/svg" xmlns:xlink="http://www.w3.org/1999/xlink" width="400" height="400" viewBox="0, 0, 400,400"><g id="svgg"><path id="path0" d="M305.078 24.010 C 299.629 25.374,296.445 30.828,297.151 37.585 C 297.959 45.316,292.154 48.064,287.481 42.164 C 284.448 38.334,281.509 36.718,277.578 36.720 C 265.610 36.725,261.290 51.878,271.359 58.529 C 277.434 62.542,274.124 68.788,266.224 68.221 C 258.296 67.652,253.134 72.203,253.128 79.767 C 253.122 87.249,258.700 91.821,266.895 91.051 C 274.273 90.358,277.535 97.108,271.533 100.649 C 268.080 102.686,266.135 106.454,266.119 111.136 C 266.078 122.819,281.422 126.653,287.891 116.576 C 289.978 113.325,291.089 112.995,294.439 114.633 L 297.266 116.016 297.266 121.484 C 297.266 133.664,309.207 140.012,317.159 132.060 L 318.756 130.463 322.073 132.874 C 336.718 143.519,356.313 139.137,364.901 123.298 C 369.959 113.968,368.569 99.718,361.853 92.069 L 359.417 89.295 361.362 87.468 C 369.882 79.464,360.961 64.593,349.670 67.975 C 343.323 69.877,340.273 61.877,345.973 58.279 C 356.223 51.809,351.776 36.719,339.618 36.719 L 334.826 36.719 330.827 41.016 C 324.424 47.895,319.256 46.107,320.010 37.273 C 320.803 27.986,313.854 21.813,305.078 24.010 M311.724 32.036 C 313.101 33.413,313.231 34.250,312.796 38.927 C 311.613 51.664,327.986 57.708,335.122 47.169 C 337.487 43.676,340.633 42.808,343.038 44.984 C 345.515 47.226,344.836 49.300,340.234 53.548 C 329.920 63.071,338.327 78.543,351.774 74.786 C 355.930 73.624,359.173 78.619,356.445 81.980 C 354.748 84.072,353.284 84.139,346.876 82.421 C 324.889 76.526,305.398 97.367,312.353 119.335 C 313.890 124.191,313.890 124.228,312.361 126.171 C 308.799 130.699,303.275 126.966,304.632 120.948 C 307.379 108.767,288.025 100.883,282.344 111.869 C 280.082 116.244,275.057 116.463,273.499 112.254 C 272.659 109.983,273.803 107.765,276.797 105.858 C 286.760 99.512,280.311 82.878,268.280 83.892 C 262.586 84.373,260.156 83.138,260.156 79.764 C 260.156 76.024,262.314 74.857,268.126 75.453 C 276.055 76.265,281.250 70.808,281.250 61.666 C 281.250 57.507,280.816 56.871,274.141 51.250 C 272.206 49.621,272.255 47.276,274.266 45.265 C 276.612 42.919,279.629 43.546,281.841 46.840 C 289.106 57.656,305.594 51.870,304.391 38.927 C 303.852 33.124,305.171 30.469,308.594 30.469 C 309.453 30.469,310.862 31.174,311.724 32.036 M150.186 39.930 C 119.388 45.061,105.267 65.935,101.561 111.808 C 100.273 127.760,97.750 144.698,96.473 145.975 C 96.254 146.194,95.095 145.649,93.898 144.764 C 92.700 143.879,89.892 142.228,87.657 141.095 L 83.594 139.036 83.594 132.370 C 83.594 120.415,81.724 118.750,68.291 118.750 C 54.970 118.750,52.344 121.104,52.344 133.044 L 52.344 138.795 48.425 140.631 C 33.709 147.524,32.647 152.122,32.969 207.606 L 33.203 248.047 35.378 252.175 C 36.680 254.646,38.796 257.154,40.650 258.425 C 42.532 259.715,43.614 261.006,43.409 261.719 C 43.223 262.363,41.463 267.404,39.498 272.921 C 28.174 304.714,24.428 338.446,31.037 349.116 C 36.459 357.870,51.251 358.344,64.151 350.176 L 66.673 348.579 67.907 350.992 C 71.010 357.061,65.197 356.584,142.439 357.106 C 230.807 357.703,262.869 357.212,265.920 355.213 C 269.780 352.683,270.313 350.012,270.313 333.177 C 270.312 317.543,270.087 316.138,267.036 312.783 C 265.595 311.198,265.564 310.626,266.427 301.672 C 267.908 286.321,265.821 264.673,260.153 236.577 C 257.429 223.076,257.555 224.215,258.789 224.234 C 261.810 224.280,272.475 234.868,271.420 236.773 C 268.793 241.514,269.882 245.262,275.425 250.565 C 284.262 259.020,285.565 258.647,297.912 244.132 C 314.460 224.678,314.398 224.857,307.008 217.825 C 301.195 212.293,293.746 210.127,291.735 213.382 C 290.768 214.946,288.657 213.613,278.392 204.960 C 264.369 193.138,260.630 191.685,253.539 195.301 C 251.866 196.154,250.438 196.769,250.365 196.668 C 250.292 196.567,248.737 191.741,246.908 185.944 C 244.879 179.514,242.745 174.335,241.436 172.663 L 239.291 169.922 240.751 167.578 C 252.474 148.760,241.999 118.377,223.160 116.558 L 219.368 116.192 219.885 110.244 C 220.169 106.973,220.941 99.735,221.600 94.160 C 223.571 77.483,219.903 71.449,204.876 66.648 C 201.182 65.468,200.519 64.896,198.318 60.988 C 189.451 45.246,169.823 36.659,150.186 39.930 M172.175 48.471 C 177.906 50.615,185.381 55.720,188.714 59.766 L 191.289 62.891 183.641 62.625 C 166.275 62.023,147.266 68.920,142.944 77.392 C 140.946 81.309,140.884 84.442,142.497 99.914 C 143.186 106.527,143.750 112.541,143.750 113.279 C 143.750 114.345,142.780 114.723,139.043 115.113 C 114.869 117.640,113.106 165.186,136.914 172.539 C 149.779 176.513,156.822 175.436,162.820 168.580 L 166.277 164.628 168.359 166.267 C 174.989 171.482,187.263 172.801,196.133 169.252 L 201.211 167.221 210.202 171.798 C 221.330 177.462,226.362 178.746,231.055 177.117 C 237.152 175.000,234.492 176.561,218.945 184.227 C 193.215 196.912,173.022 205.111,169.531 204.289 C 168.457 204.036,150.657 197.254,129.975 189.219 L 92.372 174.609 95.348 168.684 C 102.150 155.145,106.408 139.126,107.791 121.875 C 110.254 91.162,110.949 86.789,114.880 77.255 C 124.672 53.509,150.697 40.435,172.175 48.471 M303.477 68.286 C 297.952 70.693,295.070 77.095,296.844 83.018 C 300.343 94.695,316.845 94.695,320.343 83.018 C 323.364 72.935,313.196 64.053,303.477 68.286 M193.588 70.767 C 201.318 72.353,211.886 77.244,213.759 80.101 C 215.517 82.785,215.521 84.659,213.807 101.563 C 212.033 119.042,212.265 118.181,208.698 120.542 L 205.650 122.559 203.965 120.766 C 196.476 112.794,179.238 111.861,168.850 118.866 L 165.435 121.169 164.254 119.485 C 162.697 117.260,157.342 114.882,153.843 114.861 L 151.046 114.844 149.643 100.586 C 148.871 92.744,148.281 85.525,148.332 84.544 C 148.865 74.260,173.726 66.692,193.588 70.767 M312.145 76.136 C 314.432 78.424,314.576 80.443,312.622 82.856 C 309.721 86.439,303.125 84.153,303.125 79.565 C 303.125 77.559,306.541 74.219,308.594 74.219 C 309.492 74.219,311.090 75.082,312.145 76.136 M345.498 89.352 C 353.634 91.801,354.046 90.893,337.144 107.777 L 322.023 122.884 320.300 119.506 C 311.936 103.112,327.868 84.046,345.498 89.352 M360.721 111.029 C 359.962 126.375,344.749 135.912,330.841 129.760 L 327.022 128.071 342.222 112.841 L 357.422 97.611 359.218 101.344 C 360.726 104.477,360.967 106.036,360.721 111.029 M157.191 123.019 C 168.028 127.564,162.997 165.858,151.319 167.715 L 148.342 168.189 150.645 164.758 C 157.344 154.782,158.135 137.288,152.411 125.714 L 150.253 121.350 153.056 121.905 C 154.598 122.211,156.458 122.712,157.191 123.019 M192.348 122.308 C 202.867 125.892,209.074 137.887,205.957 148.609 C 201.722 163.177,183.078 169.174,171.864 159.575 L 168.662 156.834 169.194 152.441 C 169.907 146.552,170.208 146.267,171.964 149.817 C 175.548 157.061,184.213 159.701,191.839 155.873 C 205.738 148.896,200.788 127.854,185.252 127.869 C 178.895 127.874,171.146 133.045,171.070 137.332 C 171.015 140.411,169.669 136.202,169.409 132.139 C 168.875 123.800,181.211 118.513,192.348 122.308 M143.441 125.424 C 150.994 133.432,150.994 154.068,143.441 162.076 C 138.162 167.674,132.071 164.360,128.927 154.181 C 123.351 136.126,133.873 115.278,143.441 125.424 M226.002 124.490 C 239.604 130.184,242.557 158.375,230.647 168.832 C 227.321 171.752,226.764 171.657,215.430 166.237 C 206.741 162.082,206.309 161.728,208.102 160.241 C 212.942 156.224,215.291 140.696,212.252 132.813 C 211.506 130.879,210.818 128.981,210.722 128.596 C 210.018 125.772,221.618 122.655,226.002 124.490 M76.403 131.933 C 76.607 136.990,76.479 137.635,75.363 137.207 C 74.663 136.938,70.780 136.719,66.733 136.719 L 59.375 136.719 59.375 132.188 C 59.375 126.000,59.847 125.686,68.737 125.950 L 76.172 126.172 76.403 131.933 M187.814 135.464 C 195.872 138.831,193.815 150.355,185.156 150.355 C 176.612 150.355,174.436 138.932,182.327 135.498 C 185.351 134.181,184.752 134.185,187.814 135.464 M80.507 145.989 C 85.966 148.082,91.824 151.767,92.906 153.790 C 93.870 155.591,89.873 163.735,72.716 194.922 C 56.979 223.528,50.064 238.546,47.639 249.382 C 46.483 254.547,45.253 254.557,42.062 249.424 L 40.234 246.484 40.234 203.516 L 40.234 160.547 42.058 156.845 C 47.712 145.363,65.657 140.297,80.507 145.989 M127.413 195.960 C 148.215 204.086,166.641 210.966,168.359 211.249 C 174.369 212.238,192.367 205.391,221.094 191.187 C 229.902 186.832,237.448 183.254,237.863 183.236 C 238.770 183.196,243.887 199.049,243.577 200.939 C 243.455 201.685,226.531 214.082,204.952 229.231 L 166.545 256.195 160.812 254.976 C 154.203 253.571,147.405 253.886,139.633 255.957 C 133.368 257.626,132.168 257.208,125.453 251.013 L 121.047 246.947 126.148 236.766 C 131.463 226.160,132.001 224.252,130.121 222.692 C 127.203 220.270,125.588 221.897,120.320 232.563 C 115.236 242.858,115.234 242.861,112.891 242.329 C 96.960 238.712,78.220 257.246,72.992 281.787 L 71.630 288.183 68.042 286.349 C 49.322 276.777,48.175 258.655,64.234 226.172 C 69.326 215.872,88.701 180.647,89.131 180.908 C 89.384 181.061,106.611 187.834,127.413 195.960 M263.303 202.102 C 265.269 203.447,276.979 213.113,282.138 217.650 L 284.979 220.149 281.548 224.332 C 277.068 229.795,277.942 229.938,268.710 222.232 C 263.003 217.468,260.172 215.591,259.033 215.815 C 258.147 215.989,239.462 228.803,217.512 244.291 C 168.183 279.097,173.921 275.390,171.154 274.244 C 166.766 272.426,165.599 266.525,169.025 263.471 C 169.948 262.648,187.227 250.415,207.422 236.287 C 227.617 222.158,247.262 208.390,251.078 205.690 C 258.414 200.498,260.194 199.976,263.303 202.102 M300.977 222.072 C 304.808 225.051,305.255 224.035,294.488 236.843 C 283.440 249.987,284.728 249.168,280.625 245.655 C 276.198 241.866,276.189 241.891,285.683 230.611 C 297.040 217.117,295.623 217.909,300.977 222.072 M252.619 234.961 C 258.449 260.986,261.498 296.389,258.824 307.031 L 258.137 309.766 216.179 309.766 C 193.101 309.766,174.220 309.660,174.219 309.532 C 174.219 309.403,174.702 308.348,175.292 307.188 C 177.121 303.590,178.972 294.796,179.537 287.017 L 180.078 279.572 215.234 254.697 C 234.570 241.015,250.626 229.791,250.914 229.754 C 251.202 229.718,251.969 232.061,252.619 234.961 M323.949 242.835 C 321.733 245.283,322.265 246.001,338.086 261.929 C 354.747 278.702,356.025 279.689,361.094 279.685 C 371.639 279.675,376.440 265.321,367.734 259.830 C 364.604 257.856,361.949 263.068,364.343 266.486 C 366.211 269.154,364.078 272.656,360.586 272.656 C 359.526 272.656,353.594 267.276,343.359 257.031 C 327.560 241.217,326.268 240.272,323.949 242.835 M305.273 243.031 C 301.422 245.275,302.673 246.822,332.231 276.371 C 355.072 299.207,360.951 304.688,362.604 304.688 C 365.176 304.688,366.717 302.900,366.130 300.596 C 365.574 298.414,309.379 242.178,307.788 242.211 C 307.157 242.224,306.025 242.593,305.273 243.031 M111.167 249.492 C 112.555 250.072,116.670 253.113,120.313 256.250 C 130.262 264.820,131.854 265.185,145.703 262.085 C 150.176 261.083,153.209 260.846,156.369 261.249 L 160.786 261.812 160.024 264.572 C 158.181 271.247,162.101 278.649,168.725 281.002 C 173.305 282.628,173.525 283.629,171.553 293.877 C 166.987 317.608,157.286 320.939,132.606 307.250 L 123.415 302.152 109.559 301.101 C 81.061 298.940,78.128 297.606,79.266 287.319 C 81.508 267.061,100.192 244.906,111.167 249.492 M304.063 262.656 C 301.814 264.904,303.353 266.978,318.750 282.441 C 334.714 298.474,335.529 299.627,332.813 302.344 C 330.895 304.262,329.720 304.299,326.641 302.539 C 321.474 299.586,319.132 305.774,324.139 309.149 C 330.262 313.275,339.177 309.556,341.050 302.096 C 342.444 296.540,341.439 295.083,324.377 277.930 C 308.388 261.855,306.376 260.343,304.063 262.656 M49.155 278.153 C 51.693 283.498,58.764 289.860,66.208 293.494 C 73.695 297.150,73.411 296.720,73.426 304.440 C 73.436 310.223,73.283 310.881,71.821 311.345 C 68.094 312.528,67.194 315.877,67.190 328.560 L 67.188 340.324 61.133 343.546 C 49.587 349.689,42.171 350.561,38.050 346.260 C 31.987 339.931,34.570 311.390,43.881 281.836 C 46.665 272.997,46.697 272.975,49.155 278.153 M95.006 306.956 C 98.827 307.425,103.842 307.809,106.150 307.810 C 109.793 307.812,110.219 307.967,109.375 308.984 C 108.577 309.946,105.897 310.156,94.436 310.156 L 80.469 310.156 80.469 307.146 L 80.469 304.135 84.264 305.120 C 86.352 305.661,91.186 306.488,95.006 306.956 M220.156 317.344 C 221.717 318.904,221.455 347.965,219.866 349.554 C 218.277 351.142,189.217 351.404,187.656 349.844 C 186.643 348.830,186.251 317.915,187.240 316.927 C 188.228 315.939,219.143 316.330,220.156 317.344 M98.438 317.586 C 98.438 318.135,75.552 335.156,74.814 335.156 C 73.738 335.156,74.110 318.143,75.195 317.705 C 76.486 317.184,98.438 317.072,98.438 317.586 M139.943 319.045 C 149.767 323.389,158.215 323.560,165.307 319.558 C 168.793 317.591,170.373 317.188,174.598 317.188 L 179.688 317.188 179.688 333.594 L 179.688 350.000 128.464 350.000 C 94.649 350.000,76.727 349.725,75.730 349.191 C 72.535 347.481,73.802 344.416,79.108 341.023 C 84.373 337.656,103.354 323.510,107.813 319.630 L 110.547 317.251 123.145 317.219 C 134.750 317.190,136.074 317.334,139.943 319.045 M262.344 318.125 C 263.900 319.682,263.640 347.186,262.054 348.772 C 261.016 349.810,258.298 350.000,244.475 350.000 L 228.125 350.000 228.125 333.594 L 228.125 317.188 244.766 317.188 C 256.667 317.188,261.673 317.455,262.344 318.125 " stroke="none" fill="#000000" fill-rule="evenodd"></path></g></svg>