<svg id="svg" version="1.1" xmlns="http://www.w3.org/2000/svg" xmlns:xlink="http://www.w3.org/1999/xlink" width="400" height="400" viewBox="0, 0, 400,400"><g id="svgg"><path id="path0" d="M251.892 1.108 C 244.432 4.357,239.864 11.865,239.851 20.898 L 239.844 26.563 234.180 26.570 C 224.633 26.583,216.529 31.919,214.188 39.733 C 213.540 41.897,213.283 57.314,213.289 93.841 L 213.297 144.922 215.143 148.828 C 220.735 160.657,217.019 160.120,293.359 160.131 L 358.203 160.141 362.109 158.294 C 369.688 154.711,373.392 148.510,373.420 139.356 L 373.438 133.790 379.883 133.436 C 389.532 132.906,394.900 129.550,398.374 121.875 C 400.547 117.076,400.925 17.014,398.790 11.889 C 397.194 8.057,392.560 3.293,388.672 1.487 C 384.561 -0.424,256.226 -0.779,251.892 1.108 M384.129 15.761 L 385.938 17.460 385.938 66.578 L 385.938 115.696 384.020 117.614 C 382.445 119.189,381.328 119.531,377.770 119.531 L 373.438 119.531 373.430 80.664 L 373.422 41.797 371.576 37.891 C 366.098 26.305,367.809 26.600,306.055 26.580 L 253.906 26.563 253.906 22.371 C 253.906 19.314,254.344 17.623,255.525 16.121 L 257.145 14.063 319.733 14.063 L 382.321 14.063 384.129 15.761 M39.844 33.594 L 39.844 40.625 53.516 40.625 L 67.188 40.625 67.188 33.594 L 67.188 26.563 53.516 26.563 L 39.844 26.563 39.844 33.594 M79.688 33.594 L 79.688 40.625 119.922 40.625 L 160.156 40.625 160.156 33.594 L 160.156 26.563 119.922 26.563 L 79.688 26.563 79.688 33.594 M357.457 42.543 C 359.032 44.118,359.375 45.234,359.375 48.793 L 359.375 53.125 293.359 53.125 L 227.344 53.125 227.344 48.494 C 227.344 39.925,221.459 40.625,293.500 40.625 L 355.540 40.625 357.457 42.543 M53.125 60.156 L 53.125 67.188 66.797 67.188 L 80.469 67.188 80.469 60.156 L 80.469 53.125 66.797 53.125 L 53.125 53.125 53.125 60.156 M92.969 60.156 L 92.969 67.188 133.203 67.188 L 173.438 67.188 173.438 60.156 L 173.438 53.125 133.203 53.125 L 92.969 53.125 92.969 60.156 M359.375 104.723 L 359.375 142.259 357.457 144.176 L 355.540 146.094 293.359 146.094 L 231.179 146.094 229.261 144.176 L 227.344 142.259 227.344 104.723 L 227.344 67.188 293.359 67.188 L 359.375 67.188 359.375 104.723 M46.094 86.719 L 46.094 93.750 59.766 93.750 L 73.438 93.750 73.438 86.719 L 73.438 79.688 59.766 79.688 L 46.094 79.688 46.094 86.719 M85.938 86.719 L 85.938 93.750 126.563 93.750 L 167.188 93.750 167.188 86.719 L 167.188 79.688 126.563 79.688 L 85.938 79.688 85.938 86.719 M259.375 100.000 L 259.375 107.031 266.406 107.031 L 273.438 107.031 273.438 100.000 L 273.438 92.969 266.406 92.969 L 259.375 92.969 259.375 100.000 M285.938 100.000 L 285.938 107.031 292.969 107.031 L 300.000 107.031 300.000 100.000 L 300.000 92.969 292.969 92.969 L 285.938 92.969 285.938 100.000 M313.281 100.000 L 313.281 107.031 320.313 107.031 L 327.344 107.031 327.344 100.000 L 327.344 92.969 320.313 92.969 L 313.281 92.969 313.281 100.000 M35.870 133.534 C 27.229 136.260,26.563 138.462,26.563 164.280 C 26.563 197.394,31.105 206.141,51.758 212.792 C 52.913 213.164,53.127 214.235,53.137 219.702 C 53.160 233.081,57.205 242.998,66.600 252.721 L 72.654 258.984 72.655 263.455 L 72.656 267.925 68.555 269.091 C 66.299 269.733,56.581 272.385,46.960 274.986 C 24.678 281.008,18.845 284.049,10.310 294.091 C 0.509 305.623,-0.000 308.714,-0.000 356.669 L -0.000 396.603 1.808 398.301 L 3.616 400.000 200.109 400.000 L 396.603 400.000 398.301 398.192 C 400.003 396.380,401.019 366.847,399.515 362.926 C 398.303 359.767,395.512 359.375,374.258 359.375 L 353.906 359.375 353.906 352.734 L 353.906 346.094 340.625 346.094 L 327.344 346.094 327.344 336.763 L 327.344 327.432 356.055 327.193 C 390.636 326.904,393.627 326.064,398.538 315.252 C 400.760 310.361,400.738 216.114,398.513 211.328 C 396.707 207.440,391.943 202.806,388.111 201.210 C 382.904 199.041,229.045 199.415,224.515 201.608 C 220.677 203.466,215.961 208.379,214.377 212.171 C 212.461 216.756,212.819 311.040,214.768 315.234 C 219.785 326.030,222.896 326.906,257.227 327.193 L 285.937 327.432 285.938 336.763 L 285.938 346.094 272.656 346.094 L 259.375 346.094 259.375 352.734 L 259.375 359.375 229.688 359.375 L 200.000 359.375 200.000 338.055 C 200.000 310.721,198.493 304.426,189.395 293.750 C 180.863 283.737,175.627 281.123,150.221 274.191 C 139.142 271.167,129.463 268.507,128.711 268.279 C 127.617 267.946,127.344 266.972,127.344 263.401 L 127.344 258.938 133.124 253.044 C 142.428 243.558,146.839 232.973,146.863 220.077 C 146.875 213.997,146.881 213.979,149.242 213.156 C 153.280 211.748,153.909 209.358,153.879 195.547 C 153.807 163.091,141.807 144.004,116.032 135.351 L 109.766 133.247 73.828 133.072 C 54.063 132.976,36.981 133.184,35.870 133.534 M106.692 147.715 C 126.644 151.332,138.723 166.733,139.651 189.737 L 140.072 200.178 135.856 199.607 C 127.397 198.460,124.404 195.294,121.832 184.765 C 118.247 170.094,113.252 168.749,104.302 180.043 C 88.297 200.240,57.909 206.703,45.459 192.559 C 41.004 187.498,40.625 185.334,40.625 164.948 L 40.625 146.875 71.341 146.875 C 89.865 146.875,103.897 147.209,106.692 147.715 M112.383 200.304 C 116.096 206.883,125.402 213.281,131.258 213.281 C 134.933 213.281,132.558 229.878,127.811 237.366 C 110.063 265.365,65.792 251.737,67.340 218.750 L 67.578 213.672 73.561 213.129 C 84.505 212.137,96.531 207.056,105.463 199.651 C 107.823 197.695,109.811 196.094,109.881 196.094 C 109.950 196.094,111.076 197.988,112.383 200.304 M384.129 215.761 L 385.938 217.460 385.938 263.281 L 385.938 309.103 383.922 310.997 L 381.907 312.891 354.625 313.115 L 327.344 313.339 327.344 289.989 C 327.344 257.425,328.663 259.375,306.641 259.375 C 284.619 259.375,285.938 257.425,285.938 289.989 L 285.938 313.339 258.656 313.115 L 231.374 312.891 229.359 310.997 L 227.344 309.103 227.344 263.391 L 227.344 217.679 229.042 215.871 L 230.741 214.063 306.531 214.063 L 382.321 214.063 384.129 215.761 M100.000 266.797 C 102.793 266.797,106.924 266.521,109.180 266.184 L 113.281 265.571 113.293 270.872 C 113.300 273.787,113.615 276.662,113.995 277.260 C 114.506 278.068,112.787 279.944,107.342 284.522 L 100.000 290.695 92.658 284.522 C 87.213 279.944,85.494 278.068,86.005 277.260 C 86.385 276.662,86.700 273.787,86.707 270.872 L 86.719 265.571 90.820 266.184 C 93.076 266.521,97.207 266.797,100.000 266.797 M313.281 309.766 L 313.281 346.094 306.641 346.094 L 300.000 346.094 300.000 309.766 L 300.000 273.438 306.641 273.438 L 313.281 273.438 313.281 309.766 M82.702 294.942 C 96.336 306.324,98.413 307.599,101.890 306.726 C 103.375 306.354,115.446 296.787,129.715 284.673 C 131.210 283.404,162.905 291.816,168.878 295.067 C 174.246 297.988,180.185 304.310,183.054 310.156 L 185.547 315.234 185.787 337.305 L 186.027 359.375 176.607 359.375 L 167.188 359.375 167.188 342.969 L 167.188 326.563 160.156 326.563 L 153.125 326.563 153.125 342.969 L 153.125 359.375 100.000 359.375 L 46.875 359.375 46.875 342.969 L 46.875 326.563 39.844 326.563 L 32.813 326.563 32.813 342.969 L 32.813 359.375 23.393 359.375 L 13.973 359.375 14.213 337.305 L 14.453 315.234 16.967 310.098 C 19.861 304.184,25.613 298.065,31.073 295.094 C 33.817 293.600,64.850 284.193,68.750 283.673 C 68.965 283.644,75.243 288.715,82.702 294.942 M385.938 379.688 L 385.938 385.938 200.000 385.938 L 14.063 385.938 14.063 379.688 L 14.063 373.438 200.000 373.438 L 385.938 373.438 385.938 379.688 " stroke="none" fill="#000000" fill-rule="evenodd"></path></g></svg>