<svg id="svg" version="1.1" xmlns="http://www.w3.org/2000/svg" xmlns:xlink="http://www.w3.org/1999/xlink" width="400" height="400" viewBox="0, 0, 400,400"><g id="svgg"><path id="path0" d="M276.180 12.365 C 275.971 12.565,274.810 12.830,273.600 12.952 C 269.218 13.394,267.600 13.687,267.600 14.040 C 267.600 14.238,266.981 14.400,266.224 14.400 C 265.467 14.400,264.736 14.580,264.600 14.800 C 264.464 15.020,263.823 15.200,263.176 15.200 C 262.529 15.200,262.000 15.380,262.000 15.600 C 262.000 15.820,261.561 16.000,261.024 16.000 C 260.487 16.000,259.936 16.180,259.800 16.400 C 259.664 16.620,259.113 16.800,258.576 16.800 C 258.039 16.800,257.600 16.980,257.600 17.200 C 257.600 17.420,257.240 17.600,256.800 17.600 C 256.360 17.600,256.000 17.780,256.000 18.000 C 256.000 18.220,255.460 18.400,254.800 18.400 C 254.140 18.400,253.600 18.580,253.600 18.800 C 253.600 19.020,253.240 19.200,252.800 19.200 C 252.360 19.200,252.000 19.380,252.000 19.600 C 252.000 19.820,251.640 20.000,251.200 20.000 C 250.760 20.000,250.400 20.180,250.400 20.400 C 250.400 20.620,250.040 20.800,249.600 20.800 C 249.160 20.800,248.800 20.980,248.800 21.200 C 248.800 21.420,248.480 21.600,248.088 21.600 C 247.697 21.600,247.117 21.960,246.800 22.400 C 246.483 22.840,245.903 23.200,245.512 23.200 C 245.120 23.200,244.800 23.380,244.800 23.600 C 244.800 23.820,244.616 24.000,244.391 24.000 C 243.949 24.000,240.930 25.886,240.071 26.699 C 239.781 26.975,239.384 27.200,239.190 27.200 C 238.995 27.200,238.386 27.650,237.836 28.200 C 237.286 28.750,236.656 29.200,236.436 29.200 C 235.822 29.200,223.200 41.995,223.200 42.617 C 223.200 42.722,222.660 43.372,222.000 44.063 C 221.340 44.754,220.800 45.522,220.800 45.771 C 220.800 46.020,220.440 46.483,220.000 46.800 C 219.560 47.117,219.200 47.657,219.200 48.000 C 219.200 48.343,218.840 48.883,218.400 49.200 C 217.960 49.517,217.600 50.097,217.600 50.488 C 217.600 50.880,217.420 51.200,217.200 51.200 C 216.980 51.200,216.800 51.436,216.800 51.725 C 216.800 52.013,216.440 52.636,216.000 53.108 C 215.560 53.580,215.200 54.244,215.200 54.583 C 215.200 54.922,215.020 55.200,214.800 55.200 C 214.580 55.200,214.400 55.560,214.400 56.000 C 214.400 56.440,214.220 56.800,214.000 56.800 C 213.780 56.800,213.600 57.160,213.600 57.600 C 213.600 58.040,213.420 58.400,213.200 58.400 C 212.980 58.400,212.800 58.749,212.800 59.176 C 212.800 59.603,212.620 60.064,212.400 60.200 C 212.180 60.336,212.000 60.797,212.000 61.224 C 212.000 61.651,211.820 62.000,211.600 62.000 C 211.380 62.000,211.200 62.349,211.200 62.776 C 211.200 63.203,211.020 63.664,210.800 63.800 C 210.580 63.936,210.400 64.476,210.400 65.000 C 210.400 65.524,210.220 66.064,210.000 66.200 C 209.780 66.336,209.600 66.851,209.600 67.344 C 209.600 67.837,209.421 68.419,209.202 68.638 C 208.984 68.856,208.688 70.152,208.546 71.518 C 208.403 72.883,208.132 74.000,207.943 74.000 C 207.754 74.000,207.600 74.720,207.600 75.600 C 207.600 76.480,207.420 77.200,207.200 77.200 C 206.978 77.200,206.800 78.259,206.800 79.576 C 206.800 80.883,206.620 82.064,206.400 82.200 C 206.138 82.362,206.000 94.737,206.000 118.024 C 206.000 141.475,206.136 153.600,206.400 153.600 C 206.620 153.600,206.800 153.878,206.800 154.219 C 206.800 154.559,207.339 155.144,207.997 155.519 C 208.656 155.893,209.196 156.335,209.197 156.500 C 209.199 156.665,211.205 156.800,213.656 156.800 C 218.553 156.800,219.162 157.075,219.187 159.300 C 219.194 159.905,219.380 160.400,219.600 160.400 C 219.820 160.400,220.000 160.940,220.000 161.600 C 220.000 162.260,220.180 162.800,220.400 162.800 C 220.620 162.800,220.800 163.239,220.800 163.776 C 220.800 164.313,220.980 164.864,221.200 165.000 C 221.420 165.136,221.600 165.597,221.600 166.024 C 221.600 166.451,221.780 166.800,222.000 166.800 C 222.220 166.800,222.400 167.340,222.400 168.000 C 222.400 168.660,222.580 169.200,222.800 169.200 C 223.020 169.200,223.200 169.560,223.200 170.000 C 223.200 170.440,223.380 170.800,223.600 170.800 C 223.820 170.800,224.000 171.250,224.000 171.800 C 224.000 172.350,224.180 172.800,224.400 172.800 C 224.620 172.800,224.801 173.115,224.802 173.500 C 224.804 173.885,225.074 174.716,225.402 175.346 C 225.731 175.976,226.000 176.741,226.000 177.046 C 226.000 177.351,226.210 177.600,226.467 177.600 C 226.723 177.600,226.829 177.704,226.701 177.832 C 226.574 177.960,225.689 177.636,224.735 177.112 C 220.191 174.617,228.083 174.800,125.000 174.800 C 19.199 174.800,29.752 174.461,23.590 178.062 C 21.056 179.544,16.829 183.819,15.632 186.112 C 15.320 186.711,14.915 187.200,14.732 187.200 C 14.550 187.200,14.400 187.560,14.400 188.000 C 14.400 188.440,14.220 188.800,14.000 188.800 C 13.780 188.800,13.600 189.340,13.600 190.000 C 13.600 190.660,13.420 191.200,13.200 191.200 C 12.980 191.200,12.800 191.639,12.800 192.176 C 12.800 192.713,12.620 193.264,12.400 193.400 C 11.846 193.742,11.846 318.658,12.400 319.000 C 12.620 319.136,12.800 319.777,12.800 320.424 C 12.800 321.071,12.980 321.600,13.200 321.600 C 13.420 321.600,13.600 322.050,13.600 322.600 C 13.600 323.150,13.780 323.600,14.000 323.600 C 14.220 323.600,14.400 323.960,14.400 324.400 C 14.400 324.840,14.550 325.200,14.732 325.200 C 14.915 325.200,15.320 325.689,15.632 326.288 C 16.889 328.696,21.304 333.111,23.712 334.368 C 24.311 334.680,24.800 335.085,24.800 335.268 C 24.800 335.450,25.160 335.600,25.600 335.600 C 26.040 335.600,26.400 335.780,26.400 336.000 C 26.400 336.220,26.850 336.400,27.400 336.400 C 27.950 336.400,28.400 336.580,28.400 336.800 C 28.400 337.020,28.929 337.200,29.576 337.200 C 30.223 337.200,30.864 337.380,31.000 337.600 C 31.160 337.859,39.537 338.000,54.824 338.000 C 78.133 338.000,78.400 338.009,78.400 338.800 C 78.400 339.240,78.220 339.600,78.000 339.600 C 77.780 339.600,77.600 340.320,77.600 341.200 C 77.600 342.080,77.420 342.800,77.200 342.800 C 76.980 342.800,76.800 343.419,76.800 344.176 C 76.800 344.933,76.639 345.652,76.442 345.774 C 76.245 345.895,75.979 346.671,75.850 347.497 C 75.722 348.324,75.397 350.395,75.129 352.100 C 74.861 353.805,74.497 355.200,74.321 355.200 C 74.144 355.200,74.000 355.920,74.000 356.800 C 74.000 357.680,73.820 358.400,73.600 358.400 C 73.380 358.400,73.200 359.030,73.200 359.800 C 73.200 360.570,73.020 361.200,72.800 361.200 C 72.580 361.200,72.400 361.920,72.400 362.800 C 72.400 363.680,72.220 364.400,72.000 364.400 C 71.780 364.400,71.600 365.120,71.600 366.000 C 71.600 366.880,71.420 367.600,71.200 367.600 C 70.980 367.600,70.800 368.320,70.800 369.200 C 70.800 370.080,70.620 370.800,70.400 370.800 C 70.180 370.800,70.000 371.520,70.000 372.400 C 70.000 373.280,69.820 374.000,69.600 374.000 C 69.380 374.000,69.200 374.630,69.200 375.400 C 69.200 376.170,69.020 376.800,68.800 376.800 C 68.560 376.800,68.400 378.400,68.400 380.800 C 68.400 383.000,68.537 384.800,68.705 384.800 C 68.873 384.800,69.188 385.205,69.405 385.700 C 69.622 386.195,70.205 386.778,70.700 386.995 C 71.195 387.212,71.600 387.527,71.600 387.695 C 71.600 387.863,95.630 388.000,125.000 388.000 C 154.370 388.000,178.400 387.863,178.400 387.695 C 178.400 387.527,178.805 387.212,179.300 386.995 C 179.795 386.778,180.378 386.195,180.595 385.700 C 180.812 385.205,181.127 384.800,181.295 384.800 C 181.463 384.800,181.600 377.600,181.600 368.800 C 181.600 358.400,181.460 352.800,181.200 352.800 C 180.980 352.800,180.800 352.517,180.800 352.171 C 180.800 351.363,179.837 350.400,179.029 350.400 C 178.683 350.400,178.400 350.220,178.400 350.000 C 178.400 349.780,177.481 349.600,176.357 349.600 C 174.624 349.600,174.353 349.500,174.567 348.941 C 174.706 348.579,174.932 346.959,175.069 345.341 C 175.206 343.723,175.471 342.400,175.659 342.400 C 175.846 342.400,176.000 341.667,176.000 340.771 C 176.000 337.900,175.425 338.000,191.971 338.000 L 206.800 338.000 206.800 339.600 C 206.800 340.480,206.620 341.200,206.400 341.200 C 206.180 341.200,206.000 341.639,206.000 342.176 C 206.000 342.713,205.820 343.264,205.600 343.400 C 205.380 343.536,205.200 344.166,205.200 344.800 C 205.200 345.434,205.020 346.064,204.800 346.200 C 204.580 346.336,204.400 346.977,204.400 347.624 C 204.400 348.271,204.220 348.800,204.000 348.800 C 203.780 348.800,203.600 349.329,203.600 349.976 C 203.600 350.623,203.420 351.264,203.200 351.400 C 202.980 351.536,202.800 352.267,202.800 353.024 C 202.800 353.781,202.620 354.400,202.400 354.400 C 202.180 354.400,202.000 354.940,202.000 355.600 C 202.000 356.260,201.820 356.800,201.600 356.800 C 201.380 356.800,201.200 357.430,201.200 358.200 C 201.200 358.970,201.020 359.600,200.800 359.600 C 200.580 359.600,200.400 360.140,200.400 360.800 C 200.400 361.460,200.220 362.000,200.000 362.000 C 199.780 362.000,199.600 362.529,199.600 363.176 C 199.600 363.823,199.420 364.464,199.200 364.600 C 198.980 364.736,198.800 365.467,198.800 366.224 C 198.800 366.981,198.620 367.600,198.400 367.600 C 198.180 367.600,198.000 368.140,198.000 368.800 C 198.000 369.460,197.820 370.000,197.600 370.000 C 197.380 370.000,197.200 370.619,197.200 371.376 C 197.200 372.133,197.020 372.864,196.800 373.000 C 196.580 373.136,196.400 373.777,196.400 374.424 C 196.400 375.071,196.220 375.600,196.000 375.600 C 195.780 375.600,195.600 376.129,195.600 376.776 C 195.600 377.423,195.420 378.064,195.200 378.200 C 194.980 378.336,194.800 378.889,194.800 379.429 C 194.800 379.969,194.642 380.723,194.449 381.105 C 193.044 383.886,192.904 386.129,194.100 386.677 C 195.621 387.374,197.812 388.000,198.728 388.000 C 199.208 388.000,199.600 388.180,199.600 388.400 C 199.600 388.620,200.129 388.800,200.776 388.800 C 201.423 388.800,202.064 388.980,202.200 389.200 C 202.336 389.420,203.067 389.600,203.824 389.600 C 204.581 389.600,205.200 389.780,205.200 390.000 C 205.200 392.205,207.401 388.998,207.824 386.177 C 207.972 385.194,208.252 384.292,208.446 384.171 C 208.641 384.051,208.800 383.243,208.800 382.376 C 208.800 381.509,208.980 380.800,209.200 380.800 C 209.420 380.800,209.600 380.260,209.600 379.600 C 209.600 378.940,209.780 378.400,210.000 378.400 C 210.220 378.400,210.400 377.781,210.400 377.024 C 210.400 376.267,210.580 375.536,210.800 375.400 C 211.020 375.264,211.200 374.713,211.200 374.176 C 211.200 373.639,211.380 373.200,211.600 373.200 C 211.820 373.200,212.000 372.671,212.000 372.024 C 212.000 371.377,212.180 370.736,212.400 370.600 C 212.620 370.464,212.800 369.733,212.800 368.976 C 212.800 368.219,212.980 367.600,213.200 367.600 C 213.420 367.600,213.600 367.060,213.600 366.400 C 213.600 365.740,213.780 365.200,214.000 365.200 C 214.220 365.200,214.400 364.581,214.400 363.824 C 214.400 363.067,214.580 362.336,214.800 362.200 C 215.020 362.064,215.200 361.423,215.200 360.776 C 215.200 360.129,215.380 359.600,215.600 359.600 C 215.820 359.600,216.000 359.060,216.000 358.400 C 216.000 357.740,216.180 357.200,216.400 357.200 C 216.620 357.200,216.800 356.570,216.800 355.800 C 216.800 355.030,216.980 354.400,217.200 354.400 C 217.420 354.400,217.600 353.871,217.600 353.224 C 217.600 352.577,217.780 351.936,218.000 351.800 C 218.220 351.664,218.400 351.034,218.400 350.400 C 218.400 349.766,218.580 349.136,218.800 349.000 C 219.020 348.864,219.200 348.223,219.200 347.576 C 219.200 346.929,219.380 346.400,219.600 346.400 C 219.820 346.400,220.000 346.760,220.000 347.200 C 220.000 347.640,220.150 348.000,220.332 348.000 C 220.515 348.000,220.919 348.495,221.230 349.100 C 221.540 349.705,222.111 350.491,222.497 350.847 C 222.884 351.203,223.200 351.788,223.200 352.147 C 223.200 352.506,223.380 352.800,223.600 352.800 C 223.861 352.800,224.000 358.867,224.000 370.200 C 224.000 381.533,224.139 387.600,224.400 387.600 C 224.620 387.600,224.800 387.870,224.800 388.200 C 224.800 388.904,229.375 389.087,229.800 388.400 C 229.938 388.177,231.804 388.000,234.024 388.000 L 238.000 388.000 238.000 368.000 C 238.000 354.933,237.861 348.000,237.600 348.000 C 237.380 348.000,237.200 347.577,237.200 347.059 C 237.200 346.542,236.660 345.554,236.000 344.863 C 235.340 344.172,234.800 343.465,234.800 343.292 C 234.800 343.119,234.440 342.717,234.000 342.400 C 233.560 342.083,233.200 341.543,233.200 341.200 C 233.200 340.857,232.840 340.317,232.400 340.000 C 231.960 339.683,231.600 339.103,231.600 338.712 C 231.600 338.320,231.420 338.000,231.200 338.000 C 230.980 338.000,230.800 337.640,230.800 337.200 C 230.800 336.760,230.620 336.400,230.400 336.400 C 230.180 336.400,230.000 335.961,230.000 335.424 C 230.000 334.887,229.820 334.336,229.600 334.200 C 228.928 333.784,229.144 331.996,229.900 331.715 C 230.647 331.438,232.000 330.068,232.000 329.589 C 232.000 329.430,232.630 328.613,233.400 327.772 C 234.170 326.931,234.800 326.009,234.800 325.722 C 234.800 325.435,234.980 325.200,235.200 325.200 C 235.420 325.200,235.600 324.840,235.600 324.400 C 235.600 323.960,235.780 323.600,236.000 323.600 C 236.220 323.600,236.400 323.150,236.400 322.600 C 236.400 322.050,236.580 321.600,236.800 321.600 C 237.020 321.600,237.200 321.060,237.200 320.400 C 237.200 319.740,237.380 319.200,237.600 319.200 C 237.864 319.200,238.000 303.261,238.000 272.184 L 238.000 225.168 241.300 225.284 L 244.600 225.400 244.724 226.900 C 244.792 227.725,245.017 228.400,245.224 228.400 C 245.431 228.400,245.600 228.929,245.600 229.576 C 245.600 230.223,245.780 230.864,246.000 231.000 C 246.220 231.136,246.400 231.766,246.400 232.400 C 246.400 233.034,246.580 233.664,246.800 233.800 C 247.020 233.936,247.200 234.577,247.200 235.224 C 247.200 235.871,247.380 236.400,247.600 236.400 C 247.820 236.400,248.000 237.019,248.000 237.776 C 248.000 238.533,248.180 239.264,248.400 239.400 C 248.620 239.536,248.800 240.087,248.800 240.624 C 248.800 241.161,248.980 241.600,249.200 241.600 C 249.420 241.600,249.600 242.140,249.600 242.800 C 249.600 243.460,249.780 244.000,250.000 244.000 C 250.220 244.000,250.405 244.315,250.411 244.700 C 250.417 245.085,250.869 246.210,251.414 247.200 C 251.960 248.190,252.515 249.315,252.650 249.700 C 252.784 250.085,253.052 250.400,253.247 250.400 C 253.441 250.400,253.600 250.720,253.600 251.112 C 253.600 251.503,253.960 252.083,254.400 252.400 C 254.840 252.717,255.200 253.194,255.200 253.459 C 255.200 254.022,262.165 261.200,262.712 261.200 C 262.915 261.200,263.646 261.740,264.337 262.400 C 265.028 263.060,265.864 263.600,266.196 263.600 C 266.528 263.600,266.800 263.780,266.800 264.000 C 266.800 264.220,267.160 264.400,267.600 264.400 C 268.040 264.400,268.400 264.580,268.400 264.800 C 268.400 265.020,268.760 265.200,269.200 265.200 C 269.640 265.200,270.000 265.380,270.000 265.600 C 270.000 265.820,270.360 266.000,270.800 266.000 C 271.240 266.000,271.600 266.180,271.600 266.400 C 271.600 266.620,272.039 266.800,272.576 266.800 C 273.113 266.800,273.664 266.980,273.800 267.200 C 273.936 267.420,274.476 267.600,275.000 267.600 C 275.524 267.600,276.064 267.780,276.200 268.000 C 276.336 268.220,277.052 268.400,277.790 268.400 C 278.529 268.400,279.196 268.589,279.273 268.819 C 279.466 269.397,295.334 269.397,295.527 268.819 C 295.604 268.589,296.372 268.400,297.233 268.400 C 298.095 268.400,298.800 268.220,298.800 268.000 C 298.800 267.780,299.329 267.600,299.976 267.600 C 300.623 267.600,301.264 267.420,301.400 267.200 C 301.536 266.980,302.087 266.800,302.624 266.800 C 303.161 266.800,303.600 266.620,303.600 266.400 C 303.600 266.180,303.960 266.000,304.400 266.000 C 304.840 266.000,305.200 265.820,305.200 265.600 C 305.200 265.380,305.560 265.200,306.000 265.200 C 306.440 265.200,306.800 265.020,306.800 264.800 C 306.800 264.580,307.070 264.400,307.400 264.400 C 307.730 264.400,308.000 264.220,308.000 264.000 C 308.000 263.780,308.320 263.600,308.712 263.600 C 309.103 263.600,309.683 263.240,310.000 262.800 C 310.317 262.360,310.783 262.000,311.035 262.000 C 311.286 262.000,312.504 261.055,313.740 259.900 C 314.977 258.745,316.703 257.170,317.576 256.400 C 318.449 255.630,319.172 254.820,319.183 254.600 C 319.193 254.380,319.741 253.570,320.400 252.800 C 321.059 252.030,321.599 251.175,321.599 250.900 C 321.600 250.625,321.735 250.397,321.900 250.394 C 322.177 250.388,322.973 248.821,324.567 245.140 C 324.915 244.336,325.200 243.211,325.200 242.640 C 325.200 242.068,325.380 241.600,325.600 241.600 C 325.820 241.600,326.000 241.161,326.000 240.624 C 326.000 240.087,326.180 239.536,326.400 239.400 C 326.620 239.264,326.800 238.533,326.800 237.776 C 326.800 237.019,326.980 236.400,327.200 236.400 C 327.420 236.400,327.600 235.860,327.600 235.200 C 327.600 234.540,327.780 234.000,328.000 234.000 C 328.220 234.000,328.400 233.280,328.400 232.400 C 328.400 231.520,328.580 230.800,328.800 230.800 C 329.020 230.800,329.200 230.260,329.200 229.600 C 329.200 228.940,329.380 228.400,329.600 228.400 C 329.820 228.400,330.000 227.680,330.000 226.800 L 330.000 225.200 333.600 225.200 L 337.200 225.200 337.200 257.805 C 337.200 292.816,337.099 291.106,339.300 293.250 C 339.905 293.839,340.400 294.543,340.400 294.814 C 340.400 295.084,340.731 295.597,341.136 295.953 C 341.541 296.309,341.994 297.095,342.144 297.700 C 342.293 298.305,342.592 298.800,342.808 298.800 C 343.023 298.800,343.200 299.160,343.200 299.600 C 343.200 300.040,343.380 300.400,343.600 300.400 C 343.820 300.400,344.000 300.760,344.000 301.200 C 344.000 301.640,344.180 302.000,344.400 302.000 C 344.620 302.000,344.800 302.439,344.800 302.976 C 344.800 303.513,344.980 304.064,345.200 304.200 C 345.420 304.336,345.600 304.887,345.600 305.424 C 345.600 305.961,345.780 306.400,346.000 306.400 C 346.220 306.400,346.400 306.940,346.400 307.600 C 346.400 308.260,346.580 308.800,346.800 308.800 C 347.020 308.800,347.200 309.700,347.200 310.800 C 347.200 311.900,347.380 312.800,347.600 312.800 C 348.139 312.800,348.139 324.267,347.600 324.600 C 347.380 324.736,347.200 325.647,347.200 326.624 C 347.200 327.601,347.020 328.400,346.800 328.400 C 346.580 328.400,346.400 328.929,346.400 329.576 C 346.400 330.223,346.220 330.864,346.000 331.000 C 345.780 331.136,345.600 331.687,345.600 332.224 C 345.600 332.761,345.420 333.200,345.200 333.200 C 344.980 333.200,344.800 333.560,344.800 334.000 C 344.800 334.733,344.533 334.800,341.624 334.800 C 339.877 334.800,338.336 334.980,338.200 335.200 C 338.064 335.420,336.444 335.600,334.600 335.600 C 332.756 335.600,331.136 335.780,331.000 336.000 C 330.675 336.525,325.200 336.525,325.200 336.000 C 325.200 335.780,324.930 335.600,324.600 335.600 C 324.270 335.600,324.000 335.420,324.000 335.200 C 324.000 334.980,323.640 334.800,323.200 334.800 C 322.760 334.800,322.400 334.620,322.400 334.400 C 322.400 334.180,322.040 334.000,321.600 334.000 C 321.160 334.000,320.800 333.820,320.800 333.600 C 320.800 333.380,320.440 333.200,320.000 333.200 C 319.560 333.200,319.200 333.020,319.200 332.800 C 319.200 332.580,318.840 332.400,318.400 332.400 C 317.960 332.400,317.600 332.220,317.600 332.000 C 317.600 331.780,317.240 331.600,316.800 331.600 C 316.360 331.600,316.000 331.420,316.000 331.200 C 316.000 330.980,315.640 330.800,315.200 330.800 C 314.760 330.800,314.400 330.620,314.400 330.400 C 314.400 330.180,314.117 330.000,313.771 330.000 C 312.895 330.000,311.643 328.719,312.304 328.499 C 312.577 328.408,312.800 328.028,312.800 327.655 C 312.800 327.282,313.160 326.717,313.600 326.400 C 314.040 326.083,314.400 325.595,314.400 325.316 C 314.400 324.847,315.079 323.870,316.300 322.584 C 316.575 322.294,316.800 321.814,316.800 321.517 C 316.800 321.220,317.160 320.717,317.600 320.400 C 318.040 320.083,318.400 319.543,318.400 319.200 C 318.400 318.857,318.760 318.317,319.200 318.000 C 319.640 317.683,320.000 317.186,320.000 316.895 C 320.000 316.604,320.360 315.980,320.800 315.508 C 321.240 315.036,321.600 314.413,321.600 314.125 C 321.600 313.836,321.745 313.600,321.923 313.600 C 322.101 313.600,322.864 312.385,323.618 310.900 C 326.117 305.985,325.724 294.182,322.971 291.428 C 322.657 291.114,322.400 290.693,322.400 290.492 C 322.400 289.915,319.114 286.658,317.900 286.032 C 317.295 285.720,316.800 285.315,316.800 285.132 C 316.800 284.950,316.440 284.800,316.000 284.800 C 315.560 284.800,315.200 284.620,315.200 284.400 C 315.200 284.180,314.840 284.000,314.400 284.000 C 313.960 284.000,313.600 283.820,313.600 283.600 C 313.600 283.380,313.060 283.200,312.400 283.200 C 311.740 283.200,311.200 283.020,311.200 282.800 C 311.200 282.553,309.133 282.400,305.800 282.400 C 302.467 282.400,300.400 282.553,300.400 282.800 C 300.400 283.020,299.860 283.200,299.200 283.200 C 298.540 283.200,298.000 283.380,298.000 283.600 C 298.000 283.820,297.640 284.000,297.200 284.000 C 296.760 284.000,296.400 284.180,296.400 284.400 C 296.400 284.620,296.040 284.800,295.600 284.800 C 295.160 284.800,294.800 284.980,294.800 285.200 C 294.800 285.420,294.601 285.600,294.359 285.600 C 293.745 285.600,288.800 290.678,288.800 291.309 C 288.800 291.592,288.440 292.083,288.000 292.400 C 287.560 292.717,287.200 293.207,287.200 293.488 C 287.200 293.770,287.020 294.000,286.800 294.000 C 286.580 294.000,286.400 294.236,286.400 294.525 C 286.400 294.813,286.040 295.436,285.600 295.908 C 285.160 296.380,284.800 297.004,284.800 297.295 C 284.800 297.586,284.440 298.083,284.000 298.400 C 283.560 298.717,283.200 299.257,283.200 299.600 C 283.200 299.943,282.840 300.483,282.400 300.800 C 281.960 301.117,281.600 301.657,281.600 302.000 C 281.600 302.343,281.240 302.883,280.800 303.200 C 280.360 303.517,280.000 304.097,280.000 304.488 C 280.000 304.880,279.850 305.200,279.668 305.200 C 279.485 305.200,279.080 305.695,278.768 306.300 C 278.456 306.905,278.111 307.490,278.001 307.600 C 277.440 308.159,276.000 310.415,276.000 310.735 C 276.000 310.937,275.730 311.326,275.400 311.600 C 275.070 311.874,274.800 312.396,274.800 312.761 C 274.800 313.125,274.440 313.683,274.000 314.000 C 273.560 314.317,273.200 314.857,273.200 315.200 C 273.200 315.543,272.840 316.083,272.400 316.400 C 271.960 316.717,271.600 317.257,271.600 317.600 C 271.600 317.943,271.240 318.483,270.800 318.800 C 270.360 319.117,270.000 319.657,270.000 320.000 C 270.000 320.343,269.640 320.883,269.200 321.200 C 268.760 321.517,268.400 322.014,268.400 322.305 C 268.400 322.596,268.040 323.220,267.600 323.692 C 267.160 324.164,266.800 324.787,266.800 325.075 C 266.800 325.364,266.620 325.600,266.400 325.600 C 266.180 325.600,266.000 325.870,266.000 326.200 C 266.000 326.530,265.850 326.800,265.668 326.800 C 265.485 326.800,265.080 327.295,264.768 327.900 C 264.455 328.505,263.885 329.349,263.500 329.775 C 263.115 330.202,262.800 330.787,262.800 331.075 C 262.800 331.364,262.650 331.600,262.468 331.600 C 262.285 331.600,261.880 332.095,261.568 332.700 C 261.255 333.305,260.862 333.980,260.694 334.200 C 259.747 335.440,258.400 337.691,258.400 338.034 C 258.400 338.254,258.040 338.820,257.600 339.292 C 257.160 339.764,256.800 340.387,256.800 340.675 C 256.800 340.964,256.620 341.200,256.400 341.200 C 256.180 341.200,256.000 341.470,256.000 341.800 C 256.000 342.130,255.850 342.400,255.668 342.400 C 255.485 342.400,255.081 342.895,254.770 343.500 C 254.460 344.105,253.889 344.891,253.503 345.247 C 253.116 345.603,252.800 346.148,252.800 346.459 C 252.800 346.769,252.440 347.283,252.000 347.600 C 251.560 347.917,251.200 348.457,251.200 348.800 C 251.200 349.143,250.840 349.683,250.400 350.000 C 249.960 350.317,249.600 350.814,249.600 351.105 C 249.600 351.396,249.240 352.020,248.800 352.492 C 248.360 352.964,248.000 353.587,248.000 353.875 C 248.000 354.164,247.842 354.400,247.649 354.400 C 247.455 354.400,247.073 354.940,246.800 355.600 C 246.527 356.260,246.145 356.800,245.951 356.800 C 245.758 356.800,245.600 357.094,245.600 357.453 C 245.600 357.812,245.285 358.399,244.900 358.757 C 244.515 359.116,243.975 359.809,243.700 360.299 C 243.101 361.365,243.019 367.841,243.600 368.200 C 243.820 368.336,244.000 369.056,244.000 369.800 C 244.000 370.544,244.180 371.264,244.400 371.400 C 244.620 371.536,244.800 372.346,244.800 373.200 C 244.800 374.054,244.980 374.864,245.200 375.000 C 245.420 375.136,245.600 375.957,245.600 376.824 C 245.600 377.691,245.780 378.400,246.000 378.400 C 246.220 378.400,246.400 379.120,246.400 380.000 C 246.400 380.880,246.580 381.600,246.800 381.600 C 247.020 381.600,247.200 382.062,247.200 382.626 C 247.200 383.959,247.780 385.007,249.432 386.659 L 250.773 388.000 254.787 388.000 C 257.196 388.000,258.800 387.840,258.800 387.600 C 258.800 387.380,259.505 387.200,260.367 387.200 C 261.228 387.200,262.003 386.992,262.088 386.737 C 262.283 386.151,264.121 386.578,264.943 387.401 C 265.676 388.133,363.600 388.331,363.600 387.600 C 363.600 387.380,364.219 387.200,364.976 387.200 C 365.733 387.200,366.464 387.020,366.600 386.800 C 366.736 386.580,367.197 386.400,367.624 386.400 C 368.051 386.400,368.400 386.220,368.400 386.000 C 368.400 385.780,368.850 385.600,369.400 385.600 C 369.950 385.600,370.400 385.420,370.400 385.200 C 370.400 384.980,370.760 384.800,371.200 384.800 C 371.640 384.800,372.000 384.620,372.000 384.400 C 372.000 384.180,372.270 384.000,372.600 384.000 C 372.930 384.000,373.200 383.820,373.200 383.600 C 373.200 383.380,373.430 383.200,373.712 383.200 C 373.993 383.200,374.483 382.840,374.800 382.400 C 375.117 381.960,375.610 381.600,375.896 381.600 C 376.572 381.600,381.600 376.572,381.600 375.896 C 381.600 375.610,381.960 375.117,382.400 374.800 C 382.840 374.483,383.200 373.993,383.200 373.712 C 383.200 373.430,383.380 373.200,383.600 373.200 C 383.820 373.200,384.000 372.930,384.000 372.600 C 384.000 372.270,384.135 371.999,384.300 371.997 C 384.706 371.993,385.600 370.014,385.600 369.120 C 385.600 368.724,385.780 368.400,386.000 368.400 C 386.220 368.400,386.400 368.051,386.400 367.624 C 386.400 367.197,386.580 366.736,386.800 366.600 C 387.020 366.464,387.200 365.733,387.200 364.976 C 387.200 364.219,387.380 363.600,387.600 363.600 C 387.865 363.600,388.000 343.067,388.000 302.800 C 388.000 262.533,387.865 242.000,387.600 242.000 C 387.380 242.000,387.200 241.280,387.200 240.400 C 387.200 239.520,387.020 238.800,386.800 238.800 C 386.580 238.800,386.400 238.260,386.400 237.600 C 386.400 236.940,386.220 236.400,386.000 236.400 C 385.780 236.400,385.600 236.155,385.600 235.856 C 385.600 235.199,383.124 230.255,382.700 230.067 C 382.535 229.993,382.400 229.628,382.400 229.255 C 382.400 228.882,382.040 228.317,381.600 228.000 C 381.160 227.683,380.800 227.281,380.800 227.107 C 380.800 226.693,373.307 219.200,372.893 219.200 C 372.719 219.200,372.317 218.840,372.000 218.400 C 371.683 217.960,371.118 217.600,370.745 217.600 C 370.372 217.600,370.007 217.465,369.933 217.300 C 369.745 216.876,364.801 214.400,364.144 214.400 C 363.845 214.400,363.600 214.220,363.600 214.000 C 363.600 213.780,363.060 213.600,362.400 213.600 C 361.740 213.600,361.200 213.420,361.200 213.200 C 361.200 212.980,360.480 212.800,359.600 212.800 C 358.720 212.800,358.000 212.620,358.000 212.400 C 358.000 212.139,351.267 212.000,338.600 212.000 L 319.200 212.000 319.200 206.200 L 319.200 200.400 329.805 200.400 C 340.440 200.400,341.166 200.317,342.685 198.929 C 342.968 198.669,343.200 198.214,343.200 197.917 C 343.200 197.620,343.560 197.117,344.000 196.800 C 344.440 196.483,344.800 195.986,344.800 195.695 C 344.800 195.404,345.160 194.780,345.600 194.308 C 346.040 193.836,346.400 193.213,346.400 192.925 C 346.400 192.636,346.580 192.400,346.800 192.400 C 347.020 192.400,347.200 192.207,347.200 191.972 C 347.200 191.737,347.740 190.759,348.400 189.800 C 349.060 188.841,349.600 187.863,349.600 187.628 C 349.600 187.393,349.780 187.200,350.000 187.200 C 350.220 187.200,350.400 186.840,350.400 186.400 C 350.400 185.960,350.580 185.600,350.800 185.600 C 351.020 185.600,351.200 185.240,351.200 184.800 C 351.200 184.360,351.380 184.000,351.600 184.000 C 351.820 184.000,352.000 183.640,352.000 183.200 C 352.000 182.760,352.180 182.400,352.400 182.400 C 352.620 182.400,352.800 182.040,352.800 181.600 C 352.800 181.160,352.980 180.800,353.200 180.800 C 353.420 180.800,353.600 180.440,353.600 180.000 C 353.600 179.560,353.780 179.200,354.000 179.200 C 354.220 179.200,354.400 178.840,354.400 178.400 C 354.400 177.960,354.580 177.600,354.800 177.600 C 355.020 177.600,355.200 177.240,355.200 176.800 C 355.200 176.360,355.380 176.000,355.600 176.000 C 355.820 176.000,356.000 175.764,356.000 175.475 C 356.000 175.186,356.365 174.195,356.810 173.273 C 357.256 172.350,357.729 171.056,357.860 170.398 C 357.992 169.739,358.257 169.200,358.450 169.200 C 358.643 169.200,358.800 168.660,358.800 168.000 C 358.800 167.340,358.980 166.800,359.200 166.800 C 359.420 166.800,359.600 166.361,359.600 165.824 C 359.600 165.287,359.780 164.736,360.000 164.600 C 360.220 164.464,360.400 164.003,360.400 163.576 C 360.400 163.149,360.580 162.800,360.800 162.800 C 361.020 162.800,361.200 162.260,361.200 161.600 C 361.200 160.940,361.380 160.400,361.600 160.400 C 361.820 160.400,362.000 159.860,362.000 159.200 C 362.000 158.540,362.180 158.000,362.400 158.000 C 362.620 158.000,362.800 157.370,362.800 156.600 C 362.800 155.830,362.980 155.200,363.200 155.200 C 363.420 155.200,363.600 154.671,363.600 154.024 C 363.600 153.377,363.780 152.736,364.000 152.600 C 364.220 152.464,364.400 151.733,364.400 150.976 C 364.400 150.219,364.580 149.600,364.800 149.600 C 365.020 149.600,365.200 148.891,365.200 148.024 C 365.200 147.157,365.380 146.336,365.600 146.200 C 365.820 146.064,366.000 145.153,366.000 144.176 C 366.000 143.199,366.180 142.400,366.400 142.400 C 366.620 142.400,366.800 141.500,366.800 140.400 C 366.800 139.300,366.980 138.400,367.200 138.400 C 367.426 138.400,367.600 137.267,367.600 135.800 C 367.600 134.333,367.774 133.200,368.000 133.200 C 368.220 133.200,368.400 132.733,368.400 132.162 C 368.400 131.162,369.489 129.257,370.781 127.996 C 371.377 127.414,371.662 126.965,373.162 124.245 C 375.149 120.642,376.164 106.048,374.572 103.961 C 374.337 103.652,373.904 102.640,373.611 101.710 C 373.318 100.781,372.746 99.664,372.339 99.227 C 371.933 98.791,371.600 98.244,371.600 98.013 C 371.600 97.782,371.060 97.028,370.400 96.337 L 369.200 95.081 369.200 88.741 C 369.200 84.780,369.050 82.400,368.800 82.400 C 368.578 82.400,368.400 81.341,368.400 80.024 C 368.400 78.717,368.220 77.536,368.000 77.400 C 367.780 77.264,367.600 76.443,367.600 75.576 C 367.600 74.709,367.420 74.000,367.200 74.000 C 366.980 74.000,366.800 73.280,366.800 72.400 C 366.800 71.520,366.620 70.800,366.400 70.800 C 366.180 70.800,366.000 70.260,366.000 69.600 C 366.000 68.940,365.820 68.400,365.600 68.400 C 365.380 68.400,365.200 67.860,365.200 67.200 C 365.200 66.540,365.020 66.000,364.800 66.000 C 364.580 66.000,364.400 65.460,364.400 64.800 C 364.400 64.140,364.220 63.600,364.000 63.600 C 363.780 63.600,363.600 63.240,363.600 62.800 C 363.600 62.360,363.420 62.000,363.200 62.000 C 362.980 62.000,362.800 61.550,362.800 61.000 C 362.800 60.450,362.620 60.000,362.400 60.000 C 362.180 60.000,362.000 59.640,362.000 59.200 C 362.000 58.760,361.820 58.400,361.600 58.400 C 361.380 58.400,361.200 58.040,361.200 57.600 C 361.200 57.160,361.020 56.800,360.800 56.800 C 360.580 56.800,360.400 56.440,360.400 56.000 C 360.400 55.560,360.220 55.200,360.000 55.200 C 359.780 55.200,359.600 54.840,359.600 54.400 C 359.600 53.960,359.453 53.600,359.274 53.600 C 359.094 53.600,358.431 52.520,357.800 51.200 C 357.169 49.880,356.506 48.800,356.326 48.800 C 356.147 48.800,356.000 48.564,356.000 48.275 C 356.000 47.987,355.640 47.364,355.200 46.892 C 354.760 46.420,354.400 45.923,354.400 45.788 C 354.400 45.653,354.175 45.314,353.900 45.035 C 353.625 44.755,352.950 43.927,352.400 43.194 C 350.072 40.092,337.433 27.871,335.768 27.113 C 335.236 26.870,334.800 26.548,334.800 26.397 C 334.800 26.245,334.080 25.797,333.200 25.400 C 332.320 25.003,331.600 24.526,331.600 24.339 C 331.600 24.153,331.240 24.000,330.800 24.000 C 330.360 24.000,330.000 23.820,330.000 23.600 C 330.000 23.380,329.764 23.200,329.475 23.200 C 329.187 23.200,328.564 22.840,328.092 22.400 C 327.620 21.960,326.956 21.600,326.617 21.600 C 326.278 21.600,326.000 21.420,326.000 21.200 C 326.000 20.980,325.655 20.800,325.233 20.800 C 324.812 20.800,324.407 20.665,324.333 20.500 C 324.112 20.001,320.778 18.400,319.962 18.400 C 319.543 18.400,319.200 18.220,319.200 18.000 C 319.200 17.780,318.840 17.600,318.400 17.600 C 317.960 17.600,317.600 17.420,317.600 17.200 C 317.600 16.980,317.060 16.800,316.400 16.800 C 315.740 16.800,315.200 16.620,315.200 16.400 C 315.200 16.180,314.660 16.000,314.000 16.000 C 313.340 16.000,312.800 15.820,312.800 15.600 C 312.800 15.380,312.260 15.200,311.600 15.200 C 310.940 15.200,310.400 15.020,310.400 14.800 C 310.400 14.580,309.680 14.400,308.800 14.400 C 307.920 14.400,307.200 14.220,307.200 14.000 C 307.200 13.780,306.491 13.600,305.624 13.600 C 304.757 13.600,303.936 13.420,303.800 13.200 C 303.664 12.980,302.483 12.800,301.176 12.800 C 299.859 12.800,298.800 12.622,298.800 12.400 C 298.800 11.886,276.714 11.852,276.180 12.365 M291.200 25.600 C 291.200 25.835,292.600 26.000,294.600 26.000 C 296.600 26.000,298.000 26.165,298.000 26.400 C 298.000 26.620,298.900 26.800,300.000 26.800 C 301.100 26.800,302.000 26.980,302.000 27.200 C 302.000 27.420,302.720 27.600,303.600 27.600 C 304.480 27.600,305.200 27.780,305.200 28.000 C 305.200 28.220,305.740 28.400,306.400 28.400 C 307.060 28.400,307.600 28.580,307.600 28.800 C 307.600 29.020,308.140 29.200,308.800 29.200 C 309.460 29.200,310.000 29.380,310.000 29.600 C 310.000 29.820,310.450 30.000,311.000 30.000 C 311.550 30.000,312.000 30.180,312.000 30.400 C 312.000 30.620,312.272 30.800,312.605 30.800 C 312.938 30.800,313.613 31.008,314.105 31.262 C 315.982 32.233,316.407 32.400,316.995 32.400 C 317.328 32.400,317.600 32.580,317.600 32.800 C 317.600 33.020,317.878 33.200,318.217 33.200 C 318.556 33.200,319.220 33.560,319.692 34.000 C 320.164 34.440,320.787 34.800,321.075 34.800 C 321.364 34.800,321.600 34.980,321.600 35.200 C 321.600 35.420,321.960 35.600,322.400 35.600 C 322.840 35.600,323.200 35.750,323.200 35.932 C 323.200 36.115,323.692 36.520,324.294 36.832 C 325.466 37.440,325.671 37.589,328.338 39.775 C 329.294 40.559,330.240 41.200,330.440 41.200 C 330.959 41.200,340.400 50.748,340.400 51.272 C 340.400 51.511,340.720 51.997,341.112 52.353 C 341.503 52.709,342.538 54.123,343.412 55.497 C 344.285 56.870,345.135 57.995,345.300 57.997 C 345.465 57.998,345.600 58.360,345.600 58.800 C 345.600 59.240,345.780 59.600,346.000 59.600 C 346.220 59.600,346.400 59.960,346.400 60.400 C 346.400 60.840,346.535 61.200,346.701 61.200 C 346.866 61.200,347.424 62.055,347.941 63.100 C 348.458 64.145,349.043 65.313,349.240 65.695 C 349.438 66.077,349.600 66.662,349.600 66.995 C 349.600 67.328,349.780 67.600,350.000 67.600 C 350.220 67.600,350.400 67.960,350.400 68.400 C 350.400 68.840,350.580 69.200,350.800 69.200 C 351.020 69.200,351.200 69.740,351.200 70.400 C 351.200 71.060,351.380 71.600,351.600 71.600 C 351.820 71.600,352.000 72.039,352.000 72.576 C 352.000 73.113,352.180 73.664,352.400 73.800 C 352.620 73.936,352.800 74.566,352.800 75.200 C 352.800 75.834,352.980 76.464,353.200 76.600 C 353.420 76.736,353.600 77.557,353.600 78.424 C 353.600 79.291,353.780 80.000,354.000 80.000 C 354.220 80.000,354.400 80.900,354.400 82.000 C 354.400 83.100,354.580 84.000,354.800 84.000 C 355.020 84.000,355.200 84.720,355.200 85.600 L 355.200 87.200 350.583 87.200 C 346.519 87.200,345.864 87.104,345.108 86.400 C 344.636 85.960,344.013 85.600,343.725 85.600 C 343.436 85.600,343.200 85.420,343.200 85.200 C 343.200 84.980,342.880 84.800,342.488 84.800 C 342.097 84.800,341.517 84.440,341.200 84.000 C 340.883 83.560,340.393 83.200,340.112 83.200 C 339.830 83.200,339.600 83.050,339.600 82.868 C 339.600 82.685,339.111 82.280,338.514 81.968 C 337.917 81.655,336.625 80.635,335.643 79.700 C 334.661 78.765,333.730 78.000,333.574 78.000 C 333.197 78.000,329.200 74.236,329.200 73.882 C 329.200 73.729,328.300 72.685,327.200 71.561 C 326.100 70.438,325.200 69.365,325.200 69.177 C 325.200 68.879,323.784 66.549,322.905 65.400 C 322.737 65.180,322.152 64.100,321.605 63.000 C 321.058 61.900,320.518 60.910,320.405 60.800 C 319.930 60.337,319.200 58.766,319.200 58.205 C 319.200 57.872,319.020 57.600,318.800 57.600 C 318.580 57.600,318.400 57.240,318.400 56.800 C 318.400 56.360,318.220 56.000,318.000 56.000 C 317.780 56.000,317.600 55.460,317.600 54.800 C 317.600 54.140,317.420 53.600,317.200 53.600 C 316.980 53.600,316.800 53.161,316.800 52.624 C 316.800 52.087,316.620 51.536,316.400 51.400 C 316.180 51.264,316.000 50.724,316.000 50.200 C 316.000 49.676,315.820 49.136,315.600 49.000 C 315.380 48.864,315.200 48.324,315.200 47.800 C 315.200 47.276,315.020 46.736,314.800 46.600 C 314.580 46.464,314.400 45.913,314.400 45.376 C 314.400 44.839,314.220 44.400,314.000 44.400 C 313.780 44.400,313.600 43.860,313.600 43.200 C 313.600 42.540,313.420 42.000,313.200 42.000 C 312.980 42.000,312.800 41.640,312.800 41.200 C 312.800 40.760,312.620 40.400,312.400 40.400 C 312.180 40.400,312.000 40.117,312.000 39.771 C 312.000 38.963,311.037 38.000,310.229 38.000 C 309.883 38.000,309.600 37.820,309.600 37.600 C 309.600 37.365,308.200 37.200,306.200 37.200 C 304.200 37.200,302.800 37.365,302.800 37.600 C 302.800 37.820,302.517 38.000,302.171 38.000 C 301.363 38.000,300.400 38.963,300.400 39.771 C 300.400 40.117,300.220 40.400,300.000 40.400 C 299.780 40.400,299.600 40.749,299.600 41.176 C 299.600 41.603,299.420 42.064,299.200 42.200 C 298.980 42.336,298.800 42.977,298.800 43.624 C 298.800 44.271,298.620 44.800,298.400 44.800 C 298.180 44.800,298.000 45.340,298.000 46.000 C 298.000 46.660,297.820 47.200,297.600 47.200 C 297.380 47.200,297.200 47.740,297.200 48.400 C 297.200 49.060,297.020 49.600,296.800 49.600 C 296.580 49.600,296.400 50.129,296.400 50.776 C 296.400 51.423,296.220 52.064,296.000 52.200 C 295.780 52.336,295.600 52.966,295.600 53.600 C 295.600 54.234,295.420 54.864,295.200 55.000 C 294.980 55.136,294.800 55.777,294.800 56.424 C 294.800 57.071,294.620 57.600,294.400 57.600 C 294.180 57.600,294.000 58.039,294.000 58.576 C 294.000 59.113,293.841 59.651,293.646 59.771 C 293.451 59.892,293.198 60.487,293.083 61.095 C 292.967 61.703,292.497 63.618,292.037 65.351 C 291.576 67.084,291.200 68.839,291.200 69.251 C 291.200 69.663,291.020 70.000,290.800 70.000 C 290.580 70.000,290.400 70.540,290.400 71.200 C 290.400 71.860,290.220 72.400,290.000 72.400 C 289.780 72.400,289.600 72.940,289.600 73.600 C 289.600 74.260,289.420 74.800,289.200 74.800 C 288.980 74.800,288.800 75.340,288.800 76.000 C 288.800 76.660,288.620 77.200,288.400 77.200 C 288.180 77.200,288.000 77.729,288.000 78.376 C 288.000 79.023,287.820 79.664,287.600 79.800 C 287.380 79.936,287.200 80.577,287.200 81.224 C 287.200 81.871,287.020 82.400,286.800 82.400 C 286.580 82.400,286.400 82.850,286.400 83.400 C 286.400 83.950,286.220 84.400,286.000 84.400 C 285.780 84.400,285.600 84.850,285.600 85.400 C 285.600 85.950,285.420 86.400,285.200 86.400 C 284.980 86.400,284.800 86.940,284.800 87.600 C 284.800 88.260,284.620 88.800,284.400 88.800 C 284.180 88.800,284.000 89.160,284.000 89.600 C 284.000 90.040,283.820 90.400,283.600 90.400 C 283.380 90.400,283.200 90.760,283.200 91.200 C 283.200 91.640,283.020 92.000,282.800 92.000 C 282.580 92.000,282.400 92.272,282.400 92.605 C 282.400 93.166,281.670 94.737,281.195 95.200 C 281.082 95.310,280.542 96.300,279.995 97.400 C 279.448 98.500,278.865 99.460,278.700 99.533 C 278.535 99.607,278.400 99.929,278.400 100.250 C 278.400 100.571,278.040 101.220,277.600 101.692 C 277.160 102.164,276.800 102.787,276.800 103.075 C 276.800 103.364,276.647 103.600,276.461 103.600 C 276.274 103.600,275.797 104.320,275.400 105.200 C 275.003 106.080,274.526 106.800,274.339 106.800 C 274.153 106.800,274.000 107.044,274.000 107.342 C 274.000 107.640,273.495 108.315,272.878 108.842 C 272.260 109.369,271.316 110.430,270.780 111.200 C 269.740 112.693,259.382 123.200,258.951 123.200 C 258.809 123.200,258.403 123.523,258.047 123.917 C 257.691 124.312,256.545 125.167,255.501 125.817 C 254.456 126.468,253.601 127.135,253.601 127.300 C 253.600 127.465,253.364 127.600,253.075 127.600 C 252.787 127.600,252.202 127.915,251.775 128.300 C 251.349 128.685,250.505 129.255,249.900 129.568 C 249.295 129.880,248.800 130.285,248.800 130.468 C 248.800 130.650,248.440 130.800,248.000 130.800 C 247.560 130.800,247.200 130.946,247.200 131.125 C 247.200 131.304,246.570 131.698,245.800 132.000 C 245.030 132.302,244.400 132.696,244.400 132.875 C 244.400 133.054,244.164 133.200,243.875 133.200 C 243.587 133.200,242.964 133.560,242.492 134.000 C 242.020 134.440,241.277 134.800,240.840 134.800 C 240.404 134.800,239.936 134.980,239.800 135.200 C 239.664 135.420,239.203 135.600,238.776 135.600 C 238.349 135.600,238.000 135.780,238.000 136.000 C 238.000 136.220,237.640 136.400,237.200 136.400 C 236.760 136.400,236.400 136.580,236.400 136.800 C 236.400 137.020,235.860 137.200,235.200 137.200 C 234.540 137.200,234.000 137.380,234.000 137.600 C 234.000 137.820,233.640 138.000,233.200 138.000 C 232.760 138.000,232.400 138.180,232.400 138.400 C 232.400 138.620,231.860 138.800,231.200 138.800 C 230.540 138.800,230.000 138.980,230.000 139.200 C 230.000 139.420,229.370 139.600,228.600 139.600 C 227.830 139.600,227.200 139.780,227.200 140.000 C 227.200 140.220,226.660 140.400,226.000 140.400 C 225.340 140.400,224.800 140.555,224.800 140.744 C 224.800 140.933,223.855 141.188,222.700 141.311 C 221.545 141.434,220.282 141.659,219.894 141.812 C 218.776 142.252,219.300 84.956,220.424 83.820 C 220.631 83.611,220.800 82.587,220.800 81.544 C 220.800 80.501,220.980 79.536,221.200 79.400 C 221.420 79.264,221.600 78.443,221.600 77.576 C 221.600 76.709,221.780 76.000,222.000 76.000 C 222.220 76.000,222.400 75.496,222.400 74.880 C 222.400 74.264,222.543 73.589,222.718 73.380 C 222.893 73.171,223.264 72.280,223.543 71.400 C 224.216 69.272,225.811 65.155,226.447 63.905 C 226.641 63.523,226.800 62.978,226.800 62.694 C 226.800 62.409,227.160 61.917,227.600 61.600 C 228.040 61.283,228.400 60.703,228.400 60.312 C 228.400 59.920,228.580 59.600,228.800 59.600 C 229.020 59.600,229.200 59.280,229.200 58.888 C 229.200 58.497,229.560 57.917,230.000 57.600 C 230.440 57.283,230.800 56.793,230.800 56.512 C 230.800 56.230,230.950 56.000,231.132 56.000 C 231.315 56.000,231.720 55.508,232.032 54.907 C 232.345 54.306,233.095 53.289,233.700 52.648 C 234.305 52.006,234.800 51.325,234.800 51.133 C 234.800 50.942,235.925 49.639,237.300 48.239 C 238.675 46.838,240.610 44.798,241.600 43.705 C 242.590 42.612,243.940 41.432,244.600 41.082 C 245.260 40.733,246.323 39.986,246.962 39.423 C 247.601 38.861,248.248 38.400,248.400 38.400 C 248.552 38.400,249.199 37.950,249.838 37.400 C 250.477 36.851,251.225 36.401,251.500 36.400 C 251.775 36.400,252.000 36.241,252.000 36.047 C 252.000 35.852,252.315 35.593,252.700 35.471 C 253.447 35.234,255.667 33.954,256.000 33.568 C 256.110 33.440,256.785 33.081,257.500 32.770 C 258.215 32.459,258.800 32.069,258.800 31.902 C 258.800 31.736,259.340 31.600,260.000 31.600 C 260.660 31.600,261.200 31.420,261.200 31.200 C 261.200 30.980,261.560 30.800,262.000 30.800 C 262.440 30.800,262.800 30.620,262.800 30.400 C 262.800 30.180,263.340 30.000,264.000 30.000 C 264.660 30.000,265.200 29.820,265.200 29.600 C 265.200 29.380,265.740 29.200,266.400 29.200 C 267.060 29.200,267.600 29.020,267.600 28.800 C 267.600 28.580,268.140 28.400,268.800 28.400 C 269.460 28.400,270.000 28.220,270.000 28.000 C 270.000 27.780,270.720 27.600,271.600 27.600 C 272.480 27.600,273.200 27.420,273.200 27.200 C 273.200 26.980,274.010 26.800,275.000 26.800 C 275.990 26.800,276.800 26.620,276.800 26.400 C 276.800 26.160,278.400 26.000,280.800 26.000 C 283.200 26.000,284.800 25.840,284.800 25.600 C 284.800 25.367,286.133 25.200,288.000 25.200 C 289.867 25.200,291.200 25.367,291.200 25.600 M307.600 67.600 C 307.600 68.040,307.780 68.400,308.000 68.400 C 308.220 68.400,308.400 68.738,308.400 69.151 C 308.400 69.564,308.670 70.126,309.000 70.400 C 309.330 70.674,309.600 71.068,309.600 71.277 C 309.600 71.485,310.140 72.441,310.800 73.400 C 311.460 74.359,312.000 75.255,312.000 75.390 C 312.000 75.526,312.450 76.086,313.000 76.636 C 313.550 77.186,314.000 77.789,314.000 77.976 C 314.000 78.163,314.810 79.174,315.800 80.222 C 316.790 81.270,317.600 82.282,317.600 82.470 C 317.600 82.936,322.956 88.225,325.413 90.186 C 326.506 91.058,327.691 92.093,328.047 92.486 C 328.403 92.879,328.922 93.200,329.200 93.200 C 329.478 93.200,329.997 93.516,330.353 93.903 C 330.709 94.289,331.495 94.860,332.100 95.170 C 332.705 95.481,333.200 95.885,333.200 96.068 C 333.200 96.250,333.520 96.400,333.912 96.400 C 334.303 96.400,334.883 96.760,335.200 97.200 C 335.517 97.640,336.097 98.000,336.488 98.000 C 337.317 98.000,337.624 130.491,336.800 131.000 C 336.575 131.139,336.400 133.071,336.400 135.424 C 336.400 137.941,336.241 139.600,336.000 139.600 C 335.780 139.600,335.600 140.309,335.600 141.176 C 335.600 142.043,335.420 142.864,335.200 143.000 C 334.980 143.136,334.800 143.777,334.800 144.424 C 334.800 145.071,334.620 145.600,334.400 145.600 C 334.180 145.600,334.000 146.140,334.000 146.800 C 334.000 147.460,333.820 148.000,333.600 148.000 C 333.380 148.000,333.200 148.349,333.200 148.776 C 333.200 149.203,333.020 149.664,332.800 149.800 C 332.580 149.936,332.400 150.487,332.400 151.024 C 332.400 151.561,332.220 152.000,332.000 152.000 C 331.780 152.000,331.600 152.360,331.600 152.800 C 331.600 153.240,331.420 153.600,331.200 153.600 C 330.980 153.600,330.800 153.920,330.800 154.312 C 330.800 154.703,330.440 155.283,330.000 155.600 C 329.560 155.917,329.200 156.482,329.200 156.855 C 329.200 157.228,329.054 157.593,328.875 157.667 C 328.696 157.740,327.679 159.052,326.616 160.583 C 324.584 163.506,318.265 170.000,317.452 170.000 C 317.190 170.000,316.717 170.360,316.400 170.800 C 316.083 171.240,315.627 171.600,315.387 171.600 C 315.147 171.600,314.593 171.915,314.155 172.300 C 312.619 173.651,308.670 175.714,306.253 176.428 C 305.234 176.728,304.400 177.115,304.400 177.287 C 304.400 177.459,303.860 177.600,303.200 177.600 C 302.540 177.600,302.000 177.780,302.000 178.000 C 302.000 178.220,301.471 178.400,300.824 178.400 C 300.177 178.400,299.536 178.580,299.400 178.800 C 299.264 179.020,298.479 179.200,297.656 179.200 C 296.833 179.200,295.974 179.386,295.747 179.613 C 295.181 180.179,279.460 180.181,279.272 179.615 C 279.196 179.387,278.439 179.200,277.590 179.200 C 276.742 179.200,275.936 179.020,275.800 178.800 C 275.664 178.580,275.034 178.400,274.400 178.400 C 273.766 178.400,273.136 178.220,273.000 178.000 C 272.864 177.780,272.313 177.600,271.776 177.600 C 271.239 177.600,270.800 177.420,270.800 177.200 C 270.800 176.980,270.528 176.800,270.195 176.800 C 269.862 176.800,269.277 176.632,268.895 176.426 C 267.283 175.557,265.440 174.800,264.939 174.800 C 264.642 174.800,264.400 174.620,264.400 174.400 C 264.400 174.180,264.080 174.000,263.688 174.000 C 263.297 174.000,262.717 173.640,262.400 173.200 C 262.083 172.760,261.543 172.400,261.200 172.400 C 260.857 172.400,260.317 172.040,260.000 171.600 C 259.683 171.160,259.103 170.800,258.712 170.800 C 258.320 170.800,258.000 170.639,258.000 170.443 C 258.000 170.246,255.930 168.004,253.400 165.460 C 250.870 162.916,248.800 160.646,248.800 160.417 C 248.800 160.188,248.650 160.000,248.468 160.000 C 248.285 160.000,247.881 159.505,247.570 158.900 C 247.260 158.295,246.689 157.509,246.303 157.153 C 245.916 156.797,245.600 156.212,245.600 155.853 C 245.600 155.494,245.420 155.200,245.200 155.200 C 244.980 155.200,244.800 154.840,244.800 154.400 C 244.800 153.960,244.620 153.600,244.400 153.600 C 244.180 153.600,244.000 153.240,244.000 152.800 C 244.000 152.360,243.820 152.000,243.600 152.000 C 243.380 152.000,243.200 151.655,243.200 151.233 C 243.200 150.812,242.975 150.382,242.700 150.279 C 241.972 150.006,243.578 148.829,244.700 148.813 C 245.195 148.806,245.600 148.620,245.600 148.400 C 245.600 148.180,245.960 148.000,246.400 148.000 C 246.840 148.000,247.200 147.820,247.200 147.600 C 247.200 147.380,247.560 147.200,248.000 147.200 C 248.440 147.200,248.800 147.020,248.800 146.800 C 248.800 146.580,249.160 146.400,249.600 146.400 C 250.040 146.400,250.400 146.220,250.400 146.000 C 250.400 145.780,250.760 145.600,251.200 145.600 C 251.640 145.600,252.000 145.420,252.000 145.200 C 252.000 144.980,252.236 144.800,252.525 144.800 C 252.813 144.800,253.436 144.440,253.908 144.000 C 254.380 143.560,255.044 143.200,255.383 143.200 C 255.722 143.200,256.000 143.020,256.000 142.800 C 256.000 142.580,256.270 142.400,256.600 142.400 C 256.930 142.400,257.200 142.247,257.200 142.061 C 257.200 141.874,257.920 141.397,258.800 141.000 C 259.680 140.603,260.400 140.126,260.400 139.939 C 260.400 139.753,260.625 139.600,260.900 139.599 C 261.175 139.599,262.030 139.059,262.800 138.400 C 263.570 137.741,264.353 137.201,264.540 137.201 C 264.726 137.200,265.383 136.660,266.000 136.000 C 266.617 135.340,267.308 134.800,267.536 134.800 C 267.764 134.800,269.537 133.184,271.475 131.209 C 275.780 126.824,276.947 125.655,280.009 122.665 C 281.324 121.381,282.400 120.148,282.400 119.926 C 282.400 119.703,282.940 119.017,283.600 118.400 C 284.260 117.783,284.800 117.126,284.801 116.940 C 284.801 116.753,285.341 115.970,286.000 115.200 C 286.659 114.430,287.199 113.615,287.199 113.388 C 287.200 113.162,287.560 112.717,288.000 112.400 C 288.440 112.083,288.800 111.503,288.800 111.112 C 288.800 110.720,288.935 110.399,289.100 110.399 C 289.265 110.398,289.940 109.363,290.600 108.099 C 291.260 106.834,291.904 105.710,292.032 105.600 C 292.160 105.490,292.519 104.815,292.830 104.100 C 293.141 103.385,293.531 102.800,293.698 102.800 C 293.864 102.800,294.000 102.440,294.000 102.000 C 294.000 101.560,294.180 101.200,294.400 101.200 C 294.620 101.200,294.800 100.840,294.800 100.400 C 294.800 99.960,294.980 99.600,295.200 99.600 C 295.420 99.600,295.600 99.240,295.600 98.800 C 295.600 98.360,295.780 98.000,296.000 98.000 C 296.220 98.000,296.400 97.460,296.400 96.800 C 296.400 96.140,296.580 95.600,296.800 95.600 C 297.020 95.600,297.200 95.240,297.200 94.800 C 297.200 94.360,297.380 94.000,297.600 94.000 C 297.820 94.000,298.000 93.561,298.000 93.024 C 298.000 92.487,298.180 91.936,298.400 91.800 C 298.620 91.664,298.800 91.203,298.800 90.776 C 298.800 90.349,298.980 90.000,299.200 90.000 C 299.420 90.000,299.600 89.561,299.600 89.024 C 299.600 88.487,299.780 87.936,300.000 87.800 C 300.220 87.664,300.400 87.124,300.400 86.600 C 300.400 86.076,300.580 85.536,300.800 85.400 C 301.020 85.264,301.200 84.724,301.200 84.200 C 301.200 83.676,301.380 83.136,301.600 83.000 C 301.820 82.864,302.000 82.133,302.000 81.376 C 302.000 80.619,302.180 80.000,302.400 80.000 C 302.620 80.000,302.800 79.460,302.800 78.800 C 302.800 78.140,302.980 77.600,303.200 77.600 C 303.420 77.600,303.600 77.060,303.600 76.400 C 303.600 75.740,303.780 75.200,304.000 75.200 C 304.220 75.200,304.400 74.660,304.400 74.000 C 304.400 73.340,304.580 72.800,304.800 72.800 C 305.020 72.800,305.200 72.271,305.200 71.624 C 305.200 70.977,305.380 70.336,305.600 70.200 C 305.820 70.064,306.000 69.506,306.000 68.960 C 306.000 67.993,306.695 66.846,307.300 66.815 C 307.465 66.807,307.600 67.160,307.600 67.600 M311.200 100.000 C 311.200 100.220,310.961 100.400,310.670 100.400 C 310.378 100.400,309.843 100.715,309.479 101.100 C 307.166 103.551,306.800 104.026,306.800 104.582 C 306.800 104.922,306.620 105.200,306.400 105.200 C 306.159 105.200,306.000 106.867,306.000 109.400 C 306.000 111.933,306.159 113.600,306.400 113.600 C 306.620 113.600,306.800 113.864,306.800 114.186 C 306.800 114.990,309.540 117.909,310.961 118.620 C 312.323 119.300,320.000 119.453,320.000 118.800 C 320.000 118.580,320.276 118.400,320.613 118.400 C 321.395 118.400,323.736 116.071,324.564 114.469 C 326.304 111.105,325.262 104.436,322.578 101.751 C 321.835 101.008,320.951 100.400,320.613 100.400 C 320.276 100.400,320.000 100.220,320.000 100.000 C 320.000 99.758,318.267 99.600,315.600 99.600 C 312.933 99.600,311.200 99.758,311.200 100.000 M353.600 101.600 C 353.600 101.820,353.872 102.000,354.205 102.000 C 357.385 102.000,361.200 107.652,361.200 112.363 C 361.200 116.637,358.126 122.400,355.846 122.400 C 355.491 122.400,355.200 122.580,355.200 122.800 C 355.200 123.020,354.840 123.200,354.400 123.200 C 353.960 123.200,353.600 123.380,353.600 123.600 C 353.600 123.820,352.880 124.000,352.000 124.000 L 350.400 124.000 350.400 112.600 L 350.400 101.200 352.000 101.200 C 352.880 101.200,353.600 101.380,353.600 101.600 M268.400 140.200 C 268.400 141.933,268.569 143.200,268.800 143.200 C 269.020 143.200,269.200 143.740,269.200 144.400 C 269.200 145.060,269.380 145.600,269.600 145.600 C 269.820 145.600,270.000 145.960,270.000 146.400 C 270.000 146.840,270.180 147.200,270.400 147.200 C 270.620 147.200,270.800 147.482,270.800 147.827 C 270.800 149.466,278.807 156.000,280.814 156.000 C 281.220 156.000,281.664 156.180,281.800 156.400 C 281.946 156.636,284.337 156.800,287.624 156.800 C 291.075 156.800,293.200 156.648,293.200 156.400 C 293.200 156.180,293.740 156.000,294.400 156.000 C 295.060 156.000,295.600 155.820,295.600 155.600 C 295.600 155.380,295.960 155.200,296.400 155.200 C 296.840 155.200,297.200 155.020,297.200 154.800 C 297.200 154.580,297.461 154.400,297.781 154.400 C 298.537 154.400,304.400 148.537,304.400 147.781 C 304.400 147.461,304.580 147.200,304.800 147.200 C 305.020 147.200,305.200 146.840,305.200 146.400 C 305.200 145.960,305.380 145.600,305.600 145.600 C 305.820 145.600,306.000 145.060,306.000 144.400 C 306.000 143.740,306.180 143.200,306.400 143.200 C 306.631 143.200,306.800 141.933,306.800 140.200 L 306.800 137.200 299.819 137.200 L 292.838 137.200 292.421 138.700 C 292.192 139.525,292.003 140.348,292.002 140.529 C 291.998 141.204,290.944 141.870,289.172 142.315 C 285.531 143.231,282.400 141.331,282.400 138.205 L 282.400 137.200 275.400 137.200 L 268.400 137.200 268.400 140.200 M352.800 139.200 C 352.800 139.860,352.620 140.400,352.400 140.400 C 352.180 140.400,352.000 141.120,352.000 142.000 C 352.000 142.880,351.820 143.600,351.600 143.600 C 351.380 143.600,351.200 144.219,351.200 144.976 C 351.200 145.733,351.020 146.464,350.800 146.600 C 350.580 146.736,350.400 147.467,350.400 148.224 C 350.400 148.981,350.220 149.600,350.000 149.600 C 349.780 149.600,349.600 150.219,349.600 150.976 C 349.600 151.733,349.420 152.464,349.200 152.600 C 348.980 152.736,348.800 153.276,348.800 153.800 C 348.800 154.324,348.620 154.864,348.400 155.000 C 348.180 155.136,348.000 155.676,348.000 156.200 C 348.000 156.724,347.820 157.264,347.600 157.400 C 347.380 157.536,347.200 157.997,347.200 158.424 C 347.200 158.851,347.020 159.200,346.800 159.200 C 346.580 159.200,346.400 159.639,346.400 160.176 C 346.400 160.713,346.220 161.264,346.000 161.400 C 345.780 161.536,345.600 162.087,345.600 162.624 C 345.600 163.161,345.420 163.600,345.200 163.600 C 344.980 163.600,344.800 163.836,344.800 164.125 C 344.800 164.414,344.440 165.395,344.000 166.306 C 343.560 167.216,343.200 168.240,343.200 168.581 C 343.200 168.921,343.020 169.200,342.800 169.200 C 342.580 169.200,342.399 169.515,342.398 169.900 C 342.396 170.285,342.126 171.116,341.798 171.746 C 341.469 172.376,341.200 173.141,341.200 173.446 C 341.200 173.751,341.020 174.000,340.800 174.000 C 340.580 174.000,340.400 174.360,340.400 174.800 C 340.400 175.240,340.220 175.600,340.000 175.600 C 339.780 175.600,339.600 175.870,339.600 176.200 C 339.600 176.530,339.420 176.800,339.200 176.800 C 338.980 176.800,338.800 177.160,338.800 177.600 C 338.800 178.040,338.641 178.400,338.447 178.400 C 338.252 178.400,337.993 178.715,337.871 179.100 C 337.575 180.036,336.276 182.166,335.900 182.333 C 335.735 182.407,335.600 182.812,335.600 183.233 C 335.600 183.655,335.450 184.000,335.268 184.000 C 335.085 184.000,334.680 184.495,334.368 185.100 C 333.283 187.203,333.293 187.200,326.029 187.200 C 322.273 187.200,319.200 187.052,319.200 186.872 C 319.200 186.439,321.097 184.800,321.598 184.800 C 322.016 184.800,323.110 183.971,324.632 182.500 C 325.144 182.005,325.764 181.600,326.008 181.600 C 326.252 181.600,327.329 180.700,328.400 179.600 C 329.471 178.500,330.509 177.600,330.706 177.600 C 331.179 177.600,338.000 170.382,338.000 169.882 C 338.000 169.668,338.328 169.203,338.730 168.847 C 339.131 168.491,339.986 167.210,340.630 166.000 C 341.273 164.790,341.935 163.740,342.100 163.667 C 342.265 163.593,342.400 163.188,342.400 162.767 C 342.400 162.345,342.580 162.000,342.800 162.000 C 343.020 162.000,343.200 161.640,343.200 161.200 C 343.200 160.760,343.380 160.400,343.600 160.400 C 343.820 160.400,344.000 160.055,344.000 159.633 C 344.000 159.212,344.135 158.807,344.300 158.733 C 344.799 158.512,346.400 155.178,346.400 154.362 C 346.400 153.943,346.580 153.600,346.800 153.600 C 347.020 153.600,347.200 153.060,347.200 152.400 C 347.200 151.740,347.380 151.200,347.600 151.200 C 347.820 151.200,348.000 150.660,348.000 150.000 C 348.000 149.340,348.180 148.800,348.400 148.800 C 348.620 148.800,348.800 148.080,348.800 147.200 C 348.800 146.320,348.980 145.600,349.200 145.600 C 349.420 145.600,349.600 144.700,349.600 143.600 C 349.600 142.500,349.780 141.600,350.000 141.600 C 350.220 141.600,350.400 140.790,350.400 139.800 C 350.400 138.067,350.444 138.000,351.600 138.000 C 352.667 138.000,352.800 138.133,352.800 139.200 M243.519 176.400 C 245.010 177.940,246.373 179.200,246.547 179.200 C 246.721 179.200,247.554 179.920,248.400 180.800 C 249.246 181.680,250.182 182.400,250.480 182.400 C 250.779 182.400,251.283 182.760,251.600 183.200 C 251.917 183.640,252.457 184.000,252.800 184.000 C 253.143 184.000,253.683 184.360,254.000 184.800 C 254.317 185.240,254.897 185.600,255.288 185.600 C 255.733 185.600,256.000 185.900,256.000 186.400 C 256.000 187.144,255.733 187.200,252.171 187.200 C 248.129 187.200,247.862 187.095,246.832 185.100 C 246.520 184.495,246.115 184.000,245.932 184.000 C 245.750 184.000,245.600 183.640,245.600 183.200 C 245.600 182.760,245.420 182.400,245.200 182.400 C 244.980 182.400,244.800 182.164,244.800 181.875 C 244.800 181.587,244.440 180.964,244.000 180.492 C 243.560 180.020,243.200 179.356,243.200 179.017 C 243.200 178.678,243.020 178.400,242.800 178.400 C 242.580 178.400,242.400 178.040,242.400 177.600 C 242.400 177.160,242.220 176.800,242.000 176.800 C 241.780 176.800,241.599 176.575,241.598 176.300 C 241.596 176.025,241.337 175.305,241.021 174.700 C 240.171 173.071,240.529 173.315,243.519 176.400 M212.600 188.400 C 212.736 188.620,213.433 188.800,214.149 188.800 C 216.703 188.800,222.400 192.497,222.400 194.154 C 222.400 194.509,222.580 194.800,222.800 194.800 C 223.020 194.800,223.200 195.160,223.200 195.600 C 223.200 196.040,223.380 196.400,223.600 196.400 C 223.820 196.400,224.000 197.300,224.000 198.400 C 224.000 199.500,224.180 200.400,224.400 200.400 C 224.665 200.400,224.800 219.267,224.800 256.200 C 224.800 293.133,224.665 312.000,224.400 312.000 C 224.180 312.000,224.000 312.900,224.000 314.000 C 224.000 315.100,223.820 316.000,223.600 316.000 C 223.380 316.000,223.200 316.360,223.200 316.800 C 223.200 317.240,223.020 317.600,222.800 317.600 C 222.580 317.600,222.400 317.875,222.400 318.211 C 222.400 318.546,221.595 319.626,220.611 320.611 C 219.626 321.595,218.546 322.400,218.211 322.400 C 217.875 322.400,217.600 322.580,217.600 322.800 C 217.600 323.020,217.240 323.200,216.800 323.200 C 216.360 323.200,216.000 323.380,216.000 323.600 C 216.000 323.820,215.100 324.000,214.000 324.000 C 212.900 324.000,212.000 324.180,212.000 324.400 C 212.000 324.663,201.733 324.800,182.000 324.800 L 152.000 324.800 152.000 322.224 C 152.000 320.807,152.180 319.536,152.400 319.400 C 152.620 319.264,152.800 317.914,152.800 316.400 C 152.800 314.886,152.980 313.536,153.200 313.400 C 153.420 313.264,153.600 311.849,153.600 310.256 C 153.600 308.663,153.766 307.189,153.969 306.980 C 154.172 306.771,154.435 305.340,154.555 303.800 C 154.760 301.147,155.040 298.730,156.027 291.100 C 156.261 289.285,156.541 285.605,156.649 282.923 L 156.845 278.045 155.223 276.423 L 153.600 274.800 125.000 274.800 L 96.400 274.800 94.800 276.400 C 93.848 277.352,93.200 278.378,93.200 278.933 C 93.200 279.447,93.065 280.001,92.901 280.166 C 92.588 280.478,91.774 284.426,91.346 287.700 C 91.210 288.745,90.941 289.600,90.749 289.600 C 90.557 289.600,90.400 290.219,90.400 290.976 C 90.400 291.733,90.220 292.464,90.000 292.600 C 89.780 292.736,89.600 293.467,89.600 294.224 C 89.600 294.981,89.420 295.600,89.200 295.600 C 88.980 295.600,88.800 296.320,88.800 297.200 C 88.800 298.080,88.620 298.800,88.400 298.800 C 88.180 298.800,88.000 299.520,88.000 300.400 C 88.000 301.280,87.820 302.000,87.600 302.000 C 87.380 302.000,87.200 302.720,87.200 303.600 C 87.200 304.480,87.020 305.200,86.800 305.200 C 86.580 305.200,86.400 305.920,86.400 306.800 C 86.400 307.680,86.220 308.400,86.000 308.400 C 85.780 308.400,85.600 309.030,85.600 309.800 C 85.600 310.570,85.420 311.200,85.200 311.200 C 84.980 311.200,84.800 311.920,84.800 312.800 C 84.800 313.680,84.620 314.400,84.400 314.400 C 84.180 314.400,84.000 315.120,84.000 316.000 C 84.000 316.880,83.820 317.600,83.600 317.600 C 83.380 317.600,83.200 318.320,83.200 319.200 C 83.200 320.080,83.020 320.800,82.800 320.800 C 82.580 320.800,82.400 321.443,82.400 322.229 C 82.400 324.927,83.526 324.800,59.652 324.800 C 45.680 324.800,37.960 324.659,37.800 324.400 C 37.664 324.180,36.753 324.000,35.776 324.000 C 34.799 324.000,34.000 323.820,34.000 323.600 C 34.000 323.380,33.640 323.200,33.200 323.200 C 32.760 323.200,32.400 323.020,32.400 322.800 C 32.400 322.580,32.125 322.400,31.789 322.400 C 30.996 322.400,27.600 319.004,27.600 318.211 C 27.600 317.875,27.420 317.600,27.200 317.600 C 26.980 317.600,26.800 317.240,26.800 316.800 C 26.800 316.360,26.620 316.000,26.400 316.000 C 26.180 316.000,26.000 315.201,26.000 314.224 C 26.000 313.247,25.820 312.336,25.600 312.200 C 25.336 312.037,25.200 292.929,25.200 256.176 C 25.200 219.259,25.335 200.400,25.600 200.400 C 25.820 200.400,26.000 199.500,26.000 198.400 C 26.000 197.300,26.180 196.400,26.400 196.400 C 26.620 196.400,26.800 196.040,26.800 195.600 C 26.800 195.160,26.980 194.800,27.200 194.800 C 27.420 194.800,27.600 194.509,27.600 194.154 C 27.600 192.494,33.233 188.800,35.763 188.800 C 36.527 188.800,37.264 188.620,37.400 188.400 C 37.742 187.846,212.258 187.846,212.600 188.400 M270.000 192.000 C 270.000 192.220,270.720 192.400,271.600 192.400 C 272.480 192.400,273.200 192.580,273.200 192.800 C 273.200 193.020,274.089 193.200,275.176 193.200 C 276.263 193.200,277.264 193.380,277.400 193.600 C 277.554 193.850,281.471 194.000,287.824 194.000 C 294.341 194.000,298.000 193.856,298.000 193.600 C 298.000 193.380,298.900 193.200,300.000 193.200 C 301.100 193.200,302.000 193.020,302.000 192.800 C 302.000 192.580,302.619 192.400,303.376 192.400 C 304.133 192.400,304.864 192.220,305.000 192.000 C 305.843 190.635,306.000 192.609,306.000 204.600 C 306.000 213.000,306.142 217.600,306.400 217.600 C 306.620 217.600,306.800 217.960,306.800 218.400 C 306.800 218.840,306.980 219.200,307.200 219.200 C 307.420 219.200,307.600 219.427,307.600 219.704 C 307.600 221.309,312.843 225.166,315.114 225.232 C 315.711 225.249,315.975 225.354,315.700 225.465 C 315.425 225.576,315.200 226.282,315.200 227.033 C 315.200 227.785,315.020 228.400,314.800 228.400 C 314.580 228.400,314.400 228.929,314.400 229.576 C 314.400 230.223,314.220 230.864,314.000 231.000 C 313.780 231.136,313.600 231.867,313.600 232.624 C 313.600 233.381,313.420 234.000,313.200 234.000 C 312.980 234.000,312.800 234.540,312.800 235.200 C 312.800 235.860,312.620 236.400,312.400 236.400 C 312.180 236.400,312.000 236.940,312.000 237.600 C 312.000 238.260,311.820 238.800,311.600 238.800 C 311.380 238.800,311.200 239.065,311.200 239.388 C 311.200 240.046,309.819 242.661,308.959 243.631 C 308.652 243.979,308.400 244.484,308.400 244.754 C 308.400 245.283,303.760 250.000,303.240 250.000 C 303.066 250.000,302.401 250.450,301.762 251.000 C 301.123 251.549,300.375 251.999,300.100 252.000 C 299.825 252.000,299.600 252.180,299.600 252.400 C 299.600 252.620,299.240 252.800,298.800 252.800 C 298.360 252.800,298.000 252.980,298.000 253.200 C 298.000 253.420,297.460 253.600,296.800 253.600 C 296.140 253.600,295.600 253.780,295.600 254.000 C 295.600 254.220,295.060 254.400,294.400 254.400 C 293.740 254.400,293.200 254.580,293.200 254.800 C 293.200 255.048,291.000 255.200,287.400 255.200 C 283.800 255.200,281.600 255.048,281.600 254.800 C 281.600 254.580,281.060 254.400,280.400 254.400 C 279.740 254.400,279.200 254.220,279.200 254.000 C 279.200 253.780,278.660 253.600,278.000 253.600 C 277.340 253.600,276.800 253.420,276.800 253.200 C 276.800 252.980,276.480 252.800,276.088 252.800 C 275.697 252.800,275.117 252.440,274.800 252.000 C 274.483 251.560,273.993 251.200,273.712 251.200 C 273.430 251.200,273.200 251.050,273.200 250.868 C 273.200 250.685,272.705 250.280,272.100 249.968 C 270.745 249.268,267.482 246.002,266.531 244.391 C 266.144 243.736,265.686 243.200,265.514 243.200 C 265.341 243.200,265.200 242.930,265.200 242.600 C 265.200 242.270,265.020 242.000,264.800 242.000 C 264.580 242.000,264.400 241.640,264.400 241.200 C 264.400 240.760,264.220 240.400,264.000 240.400 C 263.780 240.400,263.600 240.040,263.600 239.600 C 263.600 239.160,263.420 238.800,263.200 238.800 C 262.980 238.800,262.800 238.260,262.800 237.600 C 262.800 236.940,262.620 236.400,262.400 236.400 C 262.180 236.400,262.000 235.871,262.000 235.224 C 262.000 234.577,261.820 233.936,261.600 233.800 C 261.380 233.664,261.200 232.933,261.200 232.176 C 261.200 231.419,261.020 230.800,260.800 230.800 C 260.580 230.800,260.400 230.271,260.400 229.624 C 260.400 228.977,260.220 228.336,260.000 228.200 C 259.780 228.064,259.600 227.438,259.600 226.810 C 259.600 226.181,259.375 225.576,259.100 225.465 C 258.825 225.354,259.101 225.249,259.713 225.232 C 262.116 225.163,265.975 222.610,267.168 220.300 C 267.480 219.695,267.885 219.200,268.068 219.200 C 268.250 219.200,268.400 218.851,268.400 218.424 C 268.400 217.997,268.580 217.536,268.800 217.400 C 269.053 217.244,269.200 212.463,269.200 204.376 C 269.200 196.125,269.342 191.600,269.600 191.600 C 269.820 191.600,270.000 191.780,270.000 192.000 M239.744 199.600 C 240.105 199.600,240.400 199.780,240.400 200.000 C 240.400 200.253,243.267 200.400,248.200 200.400 L 256.000 200.400 256.000 206.200 L 256.000 212.000 247.000 212.000 L 238.000 212.000 238.013 205.100 C 238.023 199.276,238.108 198.309,238.557 198.900 C 238.849 199.285,239.383 199.600,239.744 199.600 M37.200 206.200 L 37.200 212.800 50.000 212.800 L 62.800 212.800 62.800 206.200 L 62.800 199.600 50.000 199.600 L 37.200 199.600 37.200 206.200 M74.800 206.200 L 74.800 212.800 87.600 212.800 L 100.400 212.800 100.400 206.200 L 100.400 199.600 87.600 199.600 L 74.800 199.600 74.800 206.200 M112.000 206.200 L 112.000 212.800 125.000 212.800 L 138.000 212.800 138.000 206.200 L 138.000 199.600 125.000 199.600 L 112.000 199.600 112.000 206.200 M149.600 206.200 L 149.600 212.800 162.400 212.800 L 175.200 212.800 175.200 206.200 L 175.200 199.600 162.400 199.600 L 149.600 199.600 149.600 206.200 M187.200 206.200 L 187.200 212.800 200.000 212.800 L 212.800 212.800 212.800 206.200 L 212.800 199.600 200.000 199.600 L 187.200 199.600 187.200 206.200 M355.800 226.400 C 355.936 226.620,356.577 226.800,357.224 226.800 C 357.871 226.800,358.400 226.946,358.400 227.125 C 358.400 227.304,359.030 227.698,359.800 228.000 C 360.570 228.302,361.200 228.696,361.200 228.875 C 361.200 229.054,361.520 229.200,361.912 229.200 C 362.303 229.200,362.883 229.560,363.200 230.000 C 363.517 230.440,363.995 230.800,364.262 230.800 C 364.895 230.800,369.200 235.105,369.200 235.738 C 369.200 236.005,369.560 236.483,370.000 236.800 C 370.440 237.117,370.800 237.697,370.800 238.088 C 370.800 238.480,370.946 238.800,371.125 238.800 C 371.304 238.800,371.698 239.430,372.000 240.200 C 372.302 240.970,372.696 241.600,372.875 241.600 C 373.054 241.600,373.200 242.219,373.200 242.976 C 373.200 243.733,373.380 244.464,373.600 244.600 C 373.820 244.736,374.000 246.097,374.000 247.624 C 374.000 249.208,374.172 250.400,374.400 250.400 C 375.220 250.400,374.921 330.660,374.100 331.032 C 373.432 331.335,369.577 331.767,363.300 332.243 C 360.559 332.451,360.400 332.417,360.400 331.632 C 360.400 331.174,360.580 330.800,360.800 330.800 C 361.022 330.800,361.200 329.733,361.200 328.400 C 361.200 327.067,361.378 326.000,361.600 326.000 C 361.852 326.000,362.000 323.275,362.000 318.624 C 362.000 314.137,361.843 311.150,361.600 311.000 C 361.380 310.864,361.200 309.863,361.200 308.776 C 361.200 307.689,361.020 306.800,360.800 306.800 C 360.580 306.800,360.400 306.080,360.400 305.200 C 360.400 304.320,360.220 303.600,360.000 303.600 C 359.780 303.600,359.600 303.071,359.600 302.424 C 359.600 301.777,359.420 301.136,359.200 301.000 C 358.980 300.864,358.800 300.324,358.800 299.800 C 358.800 299.276,358.620 298.736,358.400 298.600 C 358.180 298.464,358.000 298.008,358.000 297.587 C 358.000 296.719,355.998 292.270,355.516 292.067 C 355.342 291.993,355.200 291.628,355.200 291.255 C 355.200 290.882,354.840 290.317,354.400 290.000 C 353.960 289.683,353.600 289.143,353.600 288.800 C 353.600 288.457,353.240 287.917,352.800 287.600 C 352.360 287.283,352.000 286.743,352.000 286.400 C 352.000 286.057,351.640 285.517,351.200 285.200 C 350.413 284.632,350.400 284.165,350.400 255.312 L 350.400 226.000 352.976 226.000 C 354.393 226.000,355.664 226.180,355.800 226.400 M141.856 289.500 C 141.729 290.325,141.503 292.761,141.354 294.913 C 141.204 297.065,140.929 298.920,140.741 299.036 C 140.554 299.152,140.400 300.587,140.400 302.224 C 140.400 303.941,140.231 305.200,140.000 305.200 C 139.767 305.200,139.600 306.533,139.600 308.400 C 139.600 310.267,139.433 311.600,139.200 311.600 C 138.969 311.600,138.800 312.859,138.800 314.576 C 138.800 316.213,138.620 317.664,138.400 317.800 C 138.180 317.936,138.000 319.387,138.000 321.024 C 138.000 322.741,137.831 324.000,137.600 324.000 C 137.369 324.000,137.200 325.259,137.200 326.976 C 137.200 328.613,137.020 330.064,136.800 330.200 C 136.580 330.336,136.400 331.776,136.400 333.400 C 136.400 335.024,136.220 336.464,136.000 336.600 C 135.780 336.736,135.600 338.187,135.600 339.824 C 135.600 341.541,135.431 342.800,135.200 342.800 C 134.969 342.800,134.800 344.059,134.800 345.776 C 134.800 347.413,134.620 348.864,134.400 349.000 C 134.180 349.136,134.000 350.576,134.000 352.200 C 134.000 353.824,133.820 355.264,133.600 355.400 C 133.380 355.536,133.200 356.987,133.200 358.624 C 133.200 360.341,133.031 361.600,132.800 361.600 C 132.569 361.600,132.400 362.859,132.400 364.576 C 132.400 366.213,132.220 367.664,132.000 367.800 C 131.780 367.936,131.600 369.351,131.600 370.944 C 131.600 372.663,131.405 374.035,131.120 374.320 C 130.167 375.273,84.000 374.983,84.000 374.024 C 84.000 373.597,84.180 373.136,84.400 373.000 C 84.620 372.864,84.800 372.133,84.800 371.376 C 84.800 370.619,84.980 370.000,85.200 370.000 C 85.420 370.000,85.600 369.280,85.600 368.400 C 85.600 367.520,85.780 366.800,86.000 366.800 C 86.220 366.800,86.400 366.080,86.400 365.200 C 86.400 364.320,86.580 363.600,86.800 363.600 C 87.020 363.600,87.200 362.880,87.200 362.000 C 87.200 361.120,87.380 360.400,87.600 360.400 C 87.820 360.400,88.000 359.781,88.000 359.024 C 88.000 358.267,88.180 357.536,88.400 357.400 C 88.620 357.264,88.800 356.544,88.800 355.800 C 88.800 355.056,88.980 354.336,89.200 354.200 C 89.420 354.064,89.600 353.344,89.600 352.600 C 89.600 351.856,89.780 351.136,90.000 351.000 C 90.220 350.864,90.400 350.144,90.400 349.400 C 90.400 348.656,90.565 347.945,90.766 347.821 C 90.967 347.696,91.259 346.246,91.413 344.597 C 91.568 342.949,91.853 341.600,92.047 341.600 C 92.241 341.600,92.400 340.970,92.400 340.200 C 92.400 339.430,92.580 338.800,92.800 338.800 C 93.020 338.800,93.200 338.080,93.200 337.200 C 93.200 336.320,93.380 335.600,93.600 335.600 C 93.820 335.600,94.000 334.880,94.000 334.000 C 94.000 333.120,94.180 332.400,94.400 332.400 C 94.620 332.400,94.800 331.680,94.800 330.800 C 94.800 329.920,94.980 329.200,95.200 329.200 C 95.420 329.200,95.600 328.480,95.600 327.600 C 95.600 326.720,95.780 326.000,96.000 326.000 C 96.220 326.000,96.400 325.370,96.400 324.600 C 96.400 323.830,96.580 323.200,96.800 323.200 C 97.020 323.200,97.200 322.480,97.200 321.600 C 97.200 320.720,97.380 320.000,97.600 320.000 C 97.820 320.000,98.000 319.280,98.000 318.400 C 98.000 317.520,98.180 316.800,98.400 316.800 C 98.620 316.800,98.800 316.080,98.800 315.200 C 98.800 314.320,98.980 313.600,99.200 313.600 C 99.420 313.600,99.600 312.880,99.600 312.000 C 99.600 311.120,99.780 310.400,100.000 310.400 C 100.220 310.400,100.400 309.781,100.400 309.024 C 100.400 308.267,100.580 307.536,100.800 307.400 C 101.020 307.264,101.200 306.533,101.200 305.776 C 101.200 305.019,101.380 304.400,101.600 304.400 C 101.820 304.400,102.000 303.680,102.000 302.800 C 102.000 301.920,102.180 301.200,102.400 301.200 C 102.620 301.200,102.800 300.480,102.800 299.600 C 102.800 298.720,102.980 298.000,103.200 298.000 C 103.420 298.000,103.600 297.280,103.600 296.400 C 103.600 295.520,103.780 294.800,104.000 294.800 C 104.220 294.800,104.400 294.080,104.400 293.200 C 104.400 292.320,104.580 291.600,104.800 291.600 C 105.020 291.600,105.200 291.006,105.200 290.280 C 105.200 287.929,104.613 288.000,124.124 288.000 L 142.088 288.000 141.856 289.500 M309.647 298.049 C 311.506 300.024,311.834 302.966,310.400 304.800 C 309.970 305.350,309.614 306.025,309.609 306.300 C 309.604 306.575,309.423 306.800,309.208 306.800 C 308.992 306.800,308.702 307.250,308.564 307.800 C 308.426 308.350,308.153 308.800,307.957 308.800 C 307.760 308.800,307.600 309.070,307.600 309.400 C 307.600 309.730,307.420 310.000,307.200 310.000 C 306.980 310.000,306.800 310.270,306.800 310.600 C 306.800 310.930,306.620 311.200,306.400 311.200 C 306.180 311.200,306.000 311.470,306.000 311.800 C 306.000 312.130,305.820 312.400,305.600 312.400 C 305.380 312.400,305.200 312.670,305.200 313.000 C 305.200 313.330,305.020 313.600,304.800 313.600 C 304.580 313.600,304.400 313.870,304.400 314.200 C 304.400 314.530,304.220 314.800,304.000 314.800 C 303.780 314.800,303.600 315.070,303.600 315.400 C 303.600 315.730,303.420 316.000,303.200 316.000 C 302.980 316.000,302.800 316.236,302.800 316.525 C 302.800 316.813,302.440 317.436,302.000 317.908 C 301.560 318.380,301.200 319.004,301.200 319.295 C 301.200 319.586,300.840 320.083,300.400 320.400 C 299.960 320.717,299.600 321.257,299.600 321.600 C 299.600 321.943,299.240 322.483,298.800 322.800 C 298.360 323.117,298.000 323.658,298.000 324.002 C 298.000 324.479,297.212 324.749,294.700 325.134 C 292.885 325.413,290.500 325.822,289.400 326.044 C 288.300 326.266,286.590 326.546,285.600 326.666 C 284.610 326.787,283.571 327.072,283.290 327.300 C 283.010 327.528,282.650 327.574,282.490 327.402 C 282.331 327.231,282.425 327.010,282.700 326.912 C 282.975 326.814,283.200 326.428,283.200 326.055 C 283.200 325.682,283.560 325.117,284.000 324.800 C 284.440 324.483,284.800 324.076,284.800 323.895 C 284.800 323.714,285.160 323.180,285.600 322.708 C 286.040 322.236,286.400 321.613,286.400 321.325 C 286.400 321.036,286.558 320.800,286.751 320.800 C 286.945 320.800,287.327 320.260,287.600 319.600 C 287.873 318.940,288.234 318.400,288.402 318.400 C 288.570 318.400,288.807 318.085,288.929 317.700 C 289.198 316.851,290.414 314.826,291.100 314.084 C 291.375 313.786,291.600 313.235,291.600 312.860 C 291.600 312.484,291.960 311.917,292.400 311.600 C 292.840 311.283,293.200 310.743,293.200 310.400 C 293.200 310.057,293.560 309.517,294.000 309.200 C 294.440 308.883,294.800 308.393,294.800 308.112 C 294.800 307.830,294.980 307.600,295.200 307.600 C 295.420 307.600,295.600 307.330,295.600 307.000 C 295.600 306.670,295.780 306.400,296.000 306.400 C 296.220 306.400,296.400 306.212,296.400 305.983 C 296.400 305.754,296.760 305.180,297.200 304.708 C 297.640 304.236,298.000 303.613,298.000 303.325 C 298.000 303.036,298.180 302.800,298.400 302.800 C 298.620 302.800,298.800 302.564,298.800 302.275 C 298.800 301.987,299.160 301.364,299.600 300.892 C 300.040 300.420,300.400 299.891,300.400 299.717 C 300.401 299.086,302.309 297.200,302.947 297.200 C 303.306 297.200,303.600 297.020,303.600 296.800 C 303.600 295.485,308.108 296.416,309.647 298.049 M162.000 339.200 C 162.000 339.860,161.820 340.400,161.600 340.400 C 161.380 340.400,161.200 341.199,161.200 342.176 C 161.200 343.153,161.020 344.064,160.800 344.200 C 160.580 344.336,160.400 345.121,160.400 345.944 C 160.400 346.767,160.175 347.925,159.900 348.517 L 159.400 349.594 154.100 349.597 L 148.800 349.600 148.800 347.224 C 148.800 345.917,148.980 344.736,149.200 344.600 C 149.420 344.464,149.600 343.028,149.600 341.410 C 149.600 337.845,149.152 338.071,156.300 338.032 L 162.000 338.000 162.000 339.200 M299.600 339.200 C 299.600 339.420,299.960 339.600,300.400 339.600 C 300.840 339.600,301.200 339.780,301.200 340.000 C 301.200 340.220,301.449 340.400,301.754 340.400 C 302.059 340.400,302.824 340.669,303.454 340.998 C 304.084 341.326,304.915 341.596,305.300 341.598 C 305.685 341.599,306.000 341.780,306.000 342.000 C 306.000 342.220,306.360 342.400,306.800 342.400 C 307.240 342.400,307.600 342.546,307.600 342.725 C 307.600 342.904,308.230 343.298,309.000 343.600 C 309.770 343.902,310.400 344.296,310.400 344.475 C 310.400 344.654,310.760 344.800,311.200 344.800 C 311.640 344.800,312.000 344.980,312.000 345.200 C 312.000 345.420,312.360 345.600,312.800 345.600 C 313.240 345.600,313.600 345.780,313.600 346.000 C 313.600 346.220,313.960 346.400,314.400 346.400 C 314.840 346.400,315.200 346.580,315.200 346.800 C 315.200 347.020,315.560 347.200,316.000 347.200 C 316.440 347.200,316.800 347.380,316.800 347.600 C 316.800 347.820,317.160 348.000,317.600 348.000 C 318.040 348.000,318.400 348.180,318.400 348.400 C 318.400 348.620,318.760 348.800,319.200 348.800 C 319.640 348.800,320.000 348.980,320.000 349.200 C 320.000 349.420,320.360 349.600,320.800 349.600 C 321.240 349.600,321.600 349.780,321.600 350.000 C 321.600 350.248,323.725 350.400,327.176 350.400 C 330.463 350.400,332.854 350.236,333.000 350.000 C 333.136 349.780,334.666 349.600,336.400 349.600 C 338.134 349.600,339.664 349.420,339.800 349.200 C 339.936 348.980,341.556 348.800,343.400 348.800 C 345.244 348.800,346.864 348.620,347.000 348.400 C 347.136 348.180,348.767 348.000,350.624 348.000 C 352.608 348.000,354.000 347.835,354.000 347.600 C 354.000 347.363,355.467 347.200,357.600 347.200 C 359.733 347.200,361.200 347.037,361.200 346.800 C 361.200 346.565,362.600 346.400,364.600 346.400 C 366.600 346.400,368.000 346.235,368.000 346.000 C 368.000 345.765,369.400 345.600,371.400 345.600 L 374.800 345.600 374.800 350.800 C 374.800 354.000,374.646 356.000,374.400 356.000 C 374.178 356.000,374.000 357.059,374.000 358.376 C 374.000 359.683,373.820 360.864,373.600 361.000 C 373.380 361.136,373.200 361.597,373.200 362.024 C 373.200 362.451,373.020 362.800,372.800 362.800 C 372.580 362.800,372.400 363.160,372.400 363.600 C 372.400 364.040,372.220 364.400,372.000 364.400 C 371.780 364.400,371.600 364.667,371.600 364.993 C 371.600 366.182,366.182 371.600,364.993 371.600 C 364.667 371.600,364.400 371.780,364.400 372.000 C 364.400 372.220,364.040 372.400,363.600 372.400 C 363.160 372.400,362.800 372.580,362.800 372.800 C 362.800 373.020,362.350 373.200,361.800 373.200 C 361.250 373.200,360.800 373.380,360.800 373.600 C 360.800 373.822,359.733 374.000,358.400 374.000 C 357.067 374.000,356.000 374.178,356.000 374.400 C 356.000 374.664,342.267 374.800,315.600 374.800 L 275.200 374.800 275.200 359.000 L 275.200 343.200 276.400 343.200 C 277.060 343.200,277.600 343.020,277.600 342.800 C 277.600 342.580,278.500 342.400,279.600 342.400 C 280.700 342.400,281.600 342.246,281.600 342.058 C 281.600 341.869,283.039 341.595,284.798 341.448 C 286.557 341.302,288.459 341.006,289.024 340.791 C 289.590 340.576,290.660 340.400,291.402 340.400 C 292.145 340.400,292.864 340.220,293.000 340.000 C 293.136 339.780,294.036 339.600,295.000 339.600 C 295.964 339.600,296.864 339.420,297.000 339.200 C 297.136 338.980,297.777 338.800,298.424 338.800 C 299.071 338.800,299.600 338.980,299.600 339.200 M262.000 365.600 L 262.000 372.400 261.000 372.400 C 260.450 372.400,260.000 372.593,260.000 372.829 C 260.000 373.064,259.730 372.987,259.400 372.657 C 259.070 372.327,258.800 371.603,258.800 371.048 C 258.800 370.493,258.538 369.034,258.218 367.805 C 257.649 365.618,257.729 364.400,258.443 364.400 C 258.639 364.400,258.800 364.040,258.800 363.600 C 258.800 363.160,258.980 362.800,259.200 362.800 C 259.420 362.800,259.600 362.564,259.600 362.275 C 259.600 361.987,259.960 361.364,260.400 360.892 C 260.840 360.420,261.200 359.756,261.200 359.417 C 261.200 359.078,261.380 358.800,261.600 358.800 C 261.851 358.800,262.000 361.333,262.000 365.600 M168.400 368.800 L 168.400 374.800 157.000 374.800 L 145.600 374.800 145.600 372.424 C 145.600 371.117,145.780 369.936,146.000 369.800 C 146.220 369.664,146.400 368.249,146.400 366.656 C 146.400 362.574,145.726 362.800,157.880 362.800 L 168.400 362.800 168.400 368.800 " stroke="none" fill="#040404" fill-rule="evenodd"></path><path id="path1" d="" stroke="none" fill="#080404" fill-rule="evenodd"></path><path id="path2" d="" stroke="none" fill="#080404" fill-rule="evenodd"></path><path id="path3" d="" stroke="none" fill="#080404" fill-rule="evenodd"></path><path id="path4" d="" stroke="none" fill="#080404" fill-rule="evenodd"></path></g></svg>