<svg id="svg" version="1.1" xmlns="http://www.w3.org/2000/svg" xmlns:xlink="http://www.w3.org/1999/xlink" width="400" height="400" viewBox="0, 0, 400,400"><g id="svgg"><path id="path0" d="M98.438 36.758 C 29.682 42.248,-17.533 114.031,6.195 176.998 C 7.944 181.639,9.375 185.549,9.375 185.687 C 9.375 185.825,8.293 185.938,6.971 185.938 C 1.155 185.938,-2.417 194.767,1.638 199.119 C 3.998 201.653,6.396 202.344,12.830 202.344 L 18.528 202.344 21.536 207.227 C 45.074 245.427,97.065 299.605,157.645 349.060 C 176.072 364.104,175.594 363.808,180.881 363.403 C 184.608 363.117,252.678 305.215,255.512 299.920 C 257.941 295.381,255.034 288.996,250.038 287.899 C 246.440 287.109,243.587 288.951,231.870 299.635 C 212.281 317.496,182.003 343.210,179.375 344.219 C 177.974 344.756,160.371 330.336,136.328 308.957 C 95.928 273.032,62.507 237.408,43.453 209.961 L 38.165 202.344 73.014 202.344 C 109.847 202.344,112.102 202.143,113.906 198.699 C 114.319 197.911,117.528 187.246,121.037 175.000 C 124.546 162.754,127.604 152.207,127.833 151.563 C 128.062 150.918,136.787 177.719,147.222 211.120 C 157.656 244.521,166.631 272.377,167.166 273.021 C 169.544 275.886,177.325 275.894,179.699 273.033 C 180.229 272.395,185.468 256.493,191.343 237.694 L 202.024 203.516 220.816 203.125 C 240.284 202.720,240.751 202.640,243.530 199.219 C 245.422 196.889,244.745 191.500,242.248 189.002 L 239.964 186.719 216.510 186.719 C 186.313 186.719,191.253 182.186,179.261 220.898 C 176.299 230.459,173.682 238.281,173.444 238.281 C 173.207 238.281,164.583 211.123,154.280 177.930 C 133.628 111.396,134.389 113.281,128.197 113.281 C 121.648 113.281,121.310 113.977,112.052 146.484 C 107.525 162.383,103.122 177.764,102.268 180.664 L 100.715 185.938 64.444 185.938 L 28.172 185.937 25.556 180.273 C 16.662 161.016,14.411 146.628,17.634 129.636 C 31.620 55.910,114.475 28.144,169.655 78.692 C 177.809 86.161,180.004 86.161,188.157 78.692 C 240.502 30.741,320.846 53.599,338.574 121.486 L 339.640 125.570 329.000 126.007 C 268.995 128.471,240.422 198.807,281.560 242.785 C 300.452 262.981,332.890 269.404,358.850 258.087 C 412.158 234.849,414.081 159.034,362.024 132.949 L 357.252 130.558 356.296 125.630 C 340.301 43.230,245.200 8.472,181.836 61.867 L 178.906 64.336 175.977 61.867 C 162.900 50.848,147.033 42.820,130.875 39.048 C 125.272 37.740,121.793 37.314,109.375 36.419 C 107.441 36.280,102.520 36.432,98.438 36.758 M342.528 143.362 C 372.228 149.654,391.117 183.114,381.044 211.590 C 367.910 248.720,321.810 259.344,294.153 231.614 C 257.483 194.849,291.617 132.578,342.528 143.362 M328.125 158.678 C 323.920 160.328,323.474 161.869,323.455 174.805 L 323.438 186.719 312.071 186.719 C 297.092 186.719,293.423 188.769,294.844 196.346 C 295.889 201.916,297.842 202.701,311.390 203.000 L 323.438 203.265 323.438 214.974 L 323.438 226.683 325.721 228.966 C 327.512 230.757,328.705 231.250,331.250 231.250 C 333.795 231.250,334.988 230.757,336.779 228.966 L 339.063 226.683 339.063 214.974 L 339.063 203.265 351.110 203.000 C 364.658 202.701,366.611 201.916,367.656 196.346 C 369.077 188.769,365.408 186.719,350.429 186.719 L 339.063 186.719 339.063 174.973 C 339.063 161.916,338.541 160.163,334.207 158.652 C 331.363 157.661,330.710 157.664,328.125 158.678 M265.716 267.680 C 259.847 271.791,261.614 281.208,268.497 282.499 C 273.951 283.523,278.125 279.919,278.125 274.186 C 278.125 267.901,270.848 264.086,265.716 267.680 " stroke="none" fill="#000000" fill-rule="evenodd"></path></g></svg>