<svg id="svg" version="1.1" xmlns="http://www.w3.org/2000/svg" xmlns:xlink="http://www.w3.org/1999/xlink" width="400" height="400" viewBox="0, 0, 400,400"><g id="svgg"><path id="path0" d="M190.297 0.949 C 189.470 1.458,188.286 2.326,187.666 2.878 C 187.046 3.431,186.253 4.044,185.904 4.241 C 185.556 4.439,184.542 5.275,183.653 6.100 C 182.763 6.925,181.927 7.600,181.796 7.600 C 181.581 7.600,177.479 10.834,174.839 13.086 C 174.267 13.573,173.609 13.978,173.375 13.986 C 173.141 13.994,172.421 14.558,171.775 15.240 C 171.129 15.922,170.240 16.645,169.800 16.845 C 169.360 17.046,167.830 18.203,166.400 19.417 C 162.414 22.802,157.293 26.799,156.928 26.811 C 156.748 26.818,155.734 27.628,154.675 28.611 C 153.616 29.595,152.626 30.401,152.475 30.402 C 152.324 30.403,151.625 30.943,150.922 31.602 C 150.219 32.261,149.482 32.800,149.284 32.800 C 149.086 32.800,148.581 33.184,148.162 33.653 C 147.743 34.123,146.500 35.181,145.400 36.005 C 144.300 36.829,142.950 37.906,142.400 38.399 C 141.850 38.891,140.770 39.704,140.000 40.204 C 139.230 40.705,138.203 41.493,137.717 41.957 C 137.231 42.421,136.691 42.801,136.517 42.802 C 136.343 42.803,135.515 43.433,134.678 44.202 C 133.840 44.971,133.052 45.600,132.926 45.600 C 132.800 45.600,132.032 46.185,131.220 46.900 C 128.573 49.230,124.359 52.595,123.832 52.800 C 123.327 52.996,121.766 54.193,118.858 56.613 C 118.056 57.281,116.696 58.361,115.834 59.013 C 112.215 61.757,110.181 63.362,109.644 63.899 C 109.329 64.213,108.426 64.882,107.636 65.385 C 106.846 65.888,105.617 66.863,104.904 67.550 C 104.191 68.238,103.471 68.802,103.304 68.803 C 103.137 68.805,102.363 69.390,101.584 70.103 C 100.805 70.817,99.886 71.580,99.541 71.800 C 99.197 72.020,97.341 73.460,95.418 75.000 C 93.494 76.540,91.713 77.870,91.460 77.956 C 91.207 78.042,90.167 78.852,89.149 79.756 C 88.131 80.660,86.429 82.030,85.368 82.800 C 83.529 84.134,82.006 85.359,78.026 88.707 C 77.050 89.528,75.845 90.380,75.349 90.600 C 74.852 90.820,73.723 91.675,72.840 92.500 C 71.957 93.325,71.092 94.002,70.917 94.003 C 70.743 94.005,69.937 94.635,69.127 95.403 C 68.316 96.172,67.540 96.800,67.401 96.800 C 67.262 96.800,66.305 97.510,65.274 98.378 C 64.243 99.246,62.320 100.865,61.000 101.975 C 59.680 103.085,58.410 103.994,58.178 103.996 C 57.947 103.998,57.146 104.630,56.400 105.400 C 55.654 106.170,54.830 106.800,54.571 106.800 C 54.311 106.800,53.862 107.085,53.573 107.433 C 52.953 108.179,45.613 114.020,42.893 115.930 C 41.852 116.661,40.550 117.672,40.000 118.176 C 39.450 118.680,38.701 119.252,38.335 119.446 C 37.969 119.641,36.942 120.475,36.053 121.300 C 35.163 122.125,34.327 122.800,34.196 122.800 C 33.981 122.800,29.879 126.034,27.239 128.286 C 26.667 128.773,26.020 129.179,25.800 129.189 C 25.580 129.199,24.590 130.007,23.600 130.985 C 22.610 131.963,21.620 132.773,21.400 132.784 C 21.180 132.795,20.350 133.388,19.555 134.102 C 18.760 134.816,17.836 135.580,17.502 135.800 C 17.167 136.020,15.600 137.280,14.018 138.600 C 12.436 139.920,10.601 141.299,9.939 141.665 C 9.278 142.031,8.076 142.932,7.268 143.669 C 6.461 144.405,5.350 145.302,4.800 145.662 C 4.250 146.022,3.403 146.695,2.917 147.158 C 2.431 147.621,1.874 148.000,1.679 148.000 C 0.228 148.000,-0.000 149.336,0.000 157.834 L 0.000 166.204 14.331 180.531 C 27.491 193.687,29.432 195.492,31.200 196.214 C 31.530 196.348,32.131 196.637,32.536 196.855 C 32.940 197.073,34.560 197.210,36.136 197.158 L 39.000 197.066 39.000 289.033 L 39.000 381.000 21.479 381.104 C -1.576 381.241,0.000 380.437,0.000 392.070 L 0.000 400.000 200.000 400.000 L 400.000 400.000 400.000 392.075 L 400.000 384.150 398.900 383.175 C 396.621 381.156,397.078 381.200,378.614 381.200 L 361.216 381.200 361.108 344.900 L 361.000 308.600 359.600 306.009 C 358.830 304.584,357.796 303.218,357.303 302.974 C 356.809 302.729,356.089 302.261,355.703 301.933 C 351.591 298.449,342.855 300.989,339.893 306.530 L 339.000 308.200 338.892 344.701 L 338.784 381.201 218.892 381.101 L 99.000 381.000 98.792 344.800 C 98.678 324.890,98.435 308.150,98.253 307.600 C 94.525 296.380,79.076 297.284,76.429 308.877 C 76.141 310.136,76.000 322.360,76.000 345.977 L 76.000 381.200 68.600 381.200 L 61.200 381.200 61.200 281.045 L 61.200 180.890 62.453 179.945 C 63.142 179.425,64.357 178.457,65.153 177.793 C 67.236 176.056,71.287 172.992,72.065 172.565 C 72.431 172.364,73.458 171.525,74.347 170.700 C 75.237 169.875,76.108 169.199,76.283 169.197 C 76.457 169.195,77.410 168.393,78.400 167.415 C 79.390 166.437,80.345 165.628,80.521 165.618 C 80.805 165.602,84.658 162.590,87.561 160.114 C 88.133 159.627,88.771 159.222,88.981 159.214 C 89.190 159.206,89.941 158.639,90.648 157.953 C 91.356 157.267,92.284 156.502,92.711 156.253 C 93.753 155.644,99.727 150.957,101.765 149.149 C 102.664 148.351,103.985 147.345,104.700 146.914 C 105.414 146.482,106.712 145.470,107.582 144.665 C 108.453 143.859,109.308 143.198,109.483 143.197 C 109.657 143.195,110.437 142.610,111.216 141.897 C 111.995 141.183,112.914 140.420,113.259 140.200 C 113.603 139.980,115.461 138.540,117.386 137.000 C 119.312 135.460,121.183 134.083,121.544 133.939 C 121.905 133.795,122.912 132.940,123.781 132.039 C 124.651 131.138,125.551 130.399,125.781 130.397 C 126.012 130.395,127.010 129.593,128.000 128.615 C 128.990 127.637,129.933 126.828,130.096 126.818 C 130.258 126.808,131.485 125.945,132.822 124.900 C 134.159 123.855,135.982 122.515,136.872 121.922 C 137.763 121.329,139.147 120.238,139.947 119.497 C 140.748 118.756,141.702 117.981,142.066 117.775 C 142.431 117.569,143.421 116.761,144.265 115.979 C 145.109 115.198,146.070 114.434,146.400 114.281 C 146.730 114.129,148.080 113.107,149.400 112.011 C 150.720 110.914,152.497 109.518,153.348 108.909 C 154.199 108.299,155.571 107.215,156.396 106.500 C 157.222 105.785,158.055 105.199,158.248 105.197 C 158.442 105.195,159.410 104.393,160.400 103.415 C 161.390 102.437,162.345 101.628,162.521 101.618 C 162.698 101.608,164.109 100.565,165.656 99.300 C 167.203 98.035,169.174 96.528,170.035 95.950 C 170.896 95.373,172.407 94.158,173.392 93.250 C 174.376 92.343,175.321 91.599,175.491 91.598 C 175.661 91.597,176.375 91.057,177.078 90.398 C 177.781 89.739,178.511 89.200,178.700 89.200 C 178.889 89.200,179.654 88.570,180.400 87.800 C 181.146 87.030,181.960 86.400,182.209 86.400 C 182.457 86.400,183.093 85.940,183.621 85.378 C 184.149 84.815,185.383 83.824,186.362 83.176 C 187.342 82.527,188.823 81.367,189.654 80.598 C 190.485 79.829,191.308 79.198,191.483 79.197 C 191.657 79.195,192.463 78.565,193.273 77.797 C 194.084 77.028,194.865 76.400,195.009 76.400 C 195.153 76.400,196.197 75.590,197.329 74.600 C 199.880 72.368,200.233 72.368,202.716 74.600 C 203.817 75.590,204.831 76.400,204.969 76.400 C 205.108 76.400,205.845 76.968,206.608 77.662 C 207.370 78.356,208.329 79.121,208.739 79.362 C 209.689 79.921,214.114 83.404,216.029 85.100 C 216.836 85.815,217.665 86.400,217.870 86.400 C 218.075 86.400,218.854 87.030,219.600 87.800 C 220.346 88.570,221.109 89.200,221.295 89.200 C 221.481 89.200,222.031 89.578,222.517 90.039 C 223.003 90.501,224.351 91.493,225.514 92.243 C 226.677 92.994,227.728 93.869,227.851 94.187 C 227.973 94.506,228.821 95.207,229.736 95.745 C 230.651 96.283,231.836 97.191,232.370 97.762 C 232.903 98.333,233.478 98.800,233.647 98.800 C 233.817 98.800,234.640 99.429,235.478 100.198 C 236.315 100.967,237.180 101.605,237.400 101.616 C 237.620 101.627,238.610 102.437,239.600 103.415 C 240.590 104.393,241.532 105.195,241.694 105.197 C 242.077 105.201,248.508 110.166,249.181 110.977 C 249.465 111.319,249.868 111.600,250.076 111.600 C 250.283 111.600,251.116 112.228,251.927 112.997 C 252.737 113.765,253.543 114.395,253.717 114.397 C 253.892 114.398,254.702 115.017,255.517 115.771 C 256.333 116.525,257.685 117.606,258.521 118.173 C 259.358 118.741,260.438 119.613,260.921 120.111 C 261.405 120.609,262.520 121.503,263.400 122.097 C 264.280 122.691,266.035 123.992,267.301 124.988 C 268.566 125.985,269.702 126.800,269.824 126.800 C 269.947 126.800,270.861 127.565,271.857 128.500 C 272.852 129.435,273.879 130.290,274.139 130.400 C 274.399 130.510,276.354 131.995,278.484 133.700 C 280.613 135.405,282.500 136.808,282.678 136.818 C 282.855 136.828,283.810 137.637,284.800 138.615 C 285.790 139.593,286.743 140.395,286.917 140.397 C 287.091 140.399,287.631 140.779,288.117 141.243 C 288.603 141.707,289.630 142.494,290.400 142.994 C 291.170 143.493,292.453 144.508,293.252 145.251 C 294.051 145.993,295.401 147.094,296.252 147.698 C 298.474 149.274,303.108 152.910,305.152 154.682 C 306.116 155.517,307.106 156.273,307.352 156.362 C 307.788 156.521,312.354 160.070,316.532 163.497 C 317.669 164.431,318.870 165.319,319.200 165.471 C 319.530 165.623,320.610 166.522,321.600 167.469 C 322.590 168.416,323.597 169.193,323.838 169.195 C 324.079 169.198,324.589 169.545,324.971 169.967 C 325.352 170.389,327.405 172.046,329.532 173.648 C 331.660 175.250,334.051 177.110,334.847 177.781 C 335.643 178.451,336.855 179.422,337.539 179.939 L 338.784 180.878 338.892 218.739 C 339.015 261.691,338.655 257.485,342.537 261.339 C 345.400 264.181,349.822 265.273,353.081 263.943 C 357.640 262.083,358.100 261.737,359.398 259.200 C 359.792 258.430,360.314 257.440,360.557 257.000 C 360.867 256.441,361.033 247.330,361.110 226.700 L 361.220 197.200 363.973 197.200 C 368.756 197.200,369.192 196.865,385.500 180.635 L 400.000 166.204 400.000 157.748 L 400.000 149.292 398.900 148.574 C 398.295 148.179,397.170 147.259,396.400 146.531 C 395.630 145.803,394.853 145.205,394.673 145.203 C 394.494 145.202,393.684 144.554,392.873 143.765 C 392.063 142.977,390.832 142.081,390.137 141.776 C 389.442 141.470,388.516 140.766,388.079 140.210 C 387.642 139.655,387.128 139.200,386.936 139.200 C 386.743 139.200,385.660 138.390,384.529 137.400 C 383.397 136.410,382.375 135.600,382.258 135.600 C 382.140 135.600,381.360 134.971,380.522 134.202 C 379.685 133.433,378.820 132.795,378.600 132.784 C 378.380 132.773,377.390 131.963,376.400 130.985 C 375.410 130.007,374.449 129.205,374.264 129.203 C 374.079 129.201,372.979 128.390,371.821 127.400 C 370.662 126.410,369.543 125.600,369.335 125.600 C 369.127 125.600,368.346 124.970,367.600 124.200 C 366.854 123.430,366.053 122.792,365.822 122.782 C 365.590 122.772,364.590 121.963,363.600 120.985 C 362.610 120.007,361.603 119.205,361.362 119.203 C 361.121 119.201,360.581 118.817,360.162 118.348 C 359.743 117.880,358.681 117.039,357.801 116.481 C 356.922 115.922,355.617 114.862,354.901 114.125 L 353.600 112.785 353.600 73.616 C 353.600 47.935,353.462 34.362,353.200 34.200 C 352.980 34.064,352.800 33.457,352.800 32.852 C 352.800 32.246,352.484 31.402,352.097 30.975 C 351.710 30.549,351.088 29.723,350.714 29.140 C 350.339 28.556,348.917 27.521,347.553 26.840 L 345.072 25.600 319.836 25.602 C 289.557 25.605,289.917 25.534,286.670 32.164 L 285.600 34.350 285.600 47.195 L 285.600 60.041 284.100 58.934 C 283.275 58.325,281.944 57.281,281.142 56.613 C 278.313 54.259,276.702 53.038,274.975 51.943 C 274.015 51.334,273.000 50.468,272.719 50.018 C 272.437 49.568,272.023 49.200,271.797 49.200 C 271.571 49.200,270.460 48.390,269.329 47.400 C 268.197 46.410,267.110 45.600,266.914 45.600 C 266.718 45.600,265.946 44.970,265.200 44.200 C 264.454 43.430,263.686 42.800,263.495 42.800 C 263.303 42.800,262.484 42.172,261.673 41.403 C 260.863 40.635,260.006 40.005,259.770 40.003 C 259.533 40.002,258.903 39.530,258.370 38.955 C 257.836 38.381,256.410 37.231,255.200 36.400 C 253.990 35.569,252.564 34.419,252.030 33.845 C 251.497 33.270,250.900 32.800,250.704 32.800 C 250.507 32.800,249.684 32.172,248.873 31.403 C 248.063 30.635,247.257 30.005,247.083 30.003 C 246.908 30.002,246.076 29.362,245.233 28.582 C 244.390 27.802,242.868 26.636,241.850 25.991 C 240.833 25.346,240.000 24.634,240.000 24.409 C 240.000 24.184,239.772 24.000,239.493 24.000 C 239.214 24.000,238.060 23.190,236.929 22.200 C 235.797 21.210,234.770 20.400,234.647 20.400 C 234.524 20.400,233.563 19.593,232.512 18.607 C 231.460 17.621,230.410 16.811,230.178 16.807 C 229.947 16.803,229.146 16.170,228.400 15.400 C 227.654 14.630,226.886 14.000,226.695 14.000 C 226.351 14.000,225.808 13.586,220.941 9.609 C 219.589 8.504,218.362 7.600,218.215 7.600 C 218.067 7.600,217.284 6.972,216.473 6.203 C 215.663 5.435,214.865 4.805,214.701 4.803 C 214.536 4.802,213.726 4.162,212.901 3.381 C 209.435 0.105,209.023 -0.001,199.929 0.012 C 192.147 0.024,191.736 0.064,190.297 0.949 M202.128 23.953 C 203.048 24.588,204.143 25.488,204.562 25.953 C 204.981 26.419,205.521 26.806,205.762 26.813 C 206.003 26.820,206.821 27.450,207.581 28.213 C 208.340 28.976,209.099 29.600,209.267 29.600 C 209.436 29.600,211.397 31.085,213.625 32.900 C 215.854 34.715,217.968 36.380,218.323 36.600 C 218.678 36.820,219.605 37.583,220.384 38.297 C 221.163 39.010,221.946 39.595,222.123 39.597 C 222.301 39.598,223.261 40.365,224.257 41.300 C 225.252 42.235,226.295 43.090,226.575 43.200 C 226.854 43.310,227.695 43.903,228.442 44.518 C 229.831 45.661,231.471 46.924,235.933 50.290 C 237.327 51.340,239.307 52.960,240.333 53.889 C 241.360 54.817,242.400 55.582,242.644 55.589 C 242.889 55.595,243.959 56.410,245.022 57.400 C 246.085 58.390,247.089 59.200,247.253 59.200 C 247.417 59.200,248.357 59.875,249.341 60.700 C 252.646 63.469,254.345 64.800,254.575 64.800 C 254.700 64.800,255.657 65.609,256.701 66.598 C 257.746 67.587,258.797 68.397,259.038 68.398 C 259.279 68.399,259.789 68.745,260.171 69.167 C 260.552 69.589,262.605 71.246,264.732 72.848 C 266.860 74.450,269.256 76.310,270.058 76.981 C 272.828 79.297,274.486 80.554,276.252 81.674 C 277.227 82.292,278.125 83.061,278.249 83.382 C 278.372 83.704,279.221 84.407,280.136 84.945 C 281.051 85.483,282.236 86.391,282.770 86.962 C 283.303 87.533,283.878 88.000,284.047 88.000 C 284.217 88.000,285.040 88.629,285.878 89.398 C 286.715 90.167,287.540 90.797,287.711 90.798 C 287.882 90.799,288.645 91.368,289.408 92.062 C 290.170 92.756,291.129 93.521,291.539 93.762 C 292.489 94.321,296.914 97.804,298.829 99.500 C 299.636 100.215,300.422 100.800,300.575 100.800 C 300.728 100.800,301.516 101.428,302.327 102.197 C 303.137 102.965,303.943 103.595,304.117 103.597 C 304.292 103.598,305.102 104.217,305.917 104.971 C 306.733 105.725,308.058 106.788,308.862 107.333 C 309.667 107.879,310.657 108.619,311.062 108.977 C 311.468 109.336,312.610 110.246,313.600 110.999 C 314.590 111.752,316.437 113.185,317.704 114.184 C 318.972 115.183,320.103 116.000,320.219 116.000 C 320.335 116.000,321.274 116.810,322.308 117.800 C 323.341 118.790,324.318 119.600,324.480 119.600 C 324.641 119.600,326.563 121.040,328.751 122.800 C 330.940 124.560,332.881 126.008,333.065 126.018 C 333.249 126.028,334.210 126.837,335.200 127.815 C 336.190 128.793,337.137 129.595,337.303 129.597 C 337.470 129.599,338.100 130.038,338.703 130.573 C 339.307 131.108,340.520 132.033,341.400 132.628 C 342.280 133.223,343.222 134.027,343.493 134.413 C 343.765 134.800,344.755 135.569,345.693 136.122 C 346.632 136.676,347.929 137.685,348.575 138.364 C 349.221 139.044,349.919 139.600,350.126 139.600 C 350.334 139.600,351.181 140.185,352.009 140.900 C 354.267 142.848,356.461 144.575,356.964 144.800 C 357.211 144.910,359.185 146.440,361.353 148.200 C 363.520 149.960,365.580 151.580,365.930 151.800 C 366.281 152.020,367.205 152.783,367.984 153.497 C 368.763 154.210,369.580 154.803,369.800 154.815 C 370.020 154.827,371.010 155.637,372.000 156.615 C 372.990 157.593,374.025 158.395,374.300 158.397 C 375.288 158.403,374.717 159.093,369.018 164.782 L 363.236 170.554 362.132 169.977 C 361.526 169.660,360.271 168.703,359.344 167.852 C 358.417 167.000,357.308 166.100,356.879 165.852 C 356.450 165.603,355.132 164.626,353.950 163.681 C 352.767 162.736,350.921 161.296,349.847 160.481 C 348.773 159.666,347.122 158.370,346.178 157.600 C 342.522 154.618,341.461 153.813,339.775 152.743 C 338.815 152.134,337.800 151.268,337.519 150.818 C 337.237 150.368,336.823 150.000,336.597 150.000 C 336.371 150.000,335.260 149.190,334.129 148.200 C 332.997 147.210,331.975 146.400,331.858 146.400 C 331.740 146.400,330.960 145.771,330.122 145.002 C 329.285 144.233,328.454 143.603,328.277 143.602 C 328.099 143.601,327.156 142.853,326.181 141.939 C 325.206 141.026,324.077 140.081,323.672 139.839 C 322.142 138.928,318.976 136.545,317.373 135.100 C 316.459 134.275,315.584 133.600,315.429 133.600 C 315.273 133.600,314.484 132.972,313.673 132.203 C 312.863 131.435,312.057 130.805,311.883 130.803 C 311.708 130.802,310.876 130.162,310.033 129.382 C 309.190 128.602,307.668 127.436,306.650 126.791 C 305.633 126.146,304.800 125.434,304.800 125.209 C 304.800 124.984,304.575 124.798,304.300 124.796 C 304.025 124.794,302.720 123.885,301.400 122.775 C 300.080 121.665,298.157 120.046,297.126 119.178 C 296.095 118.310,295.138 117.600,294.999 117.600 C 294.860 117.600,294.084 116.972,293.273 116.203 C 292.463 115.435,291.671 114.805,291.513 114.803 C 291.356 114.802,289.437 113.360,287.249 111.600 C 285.060 109.840,283.119 108.392,282.935 108.382 C 282.751 108.372,281.790 107.563,280.800 106.585 C 279.810 105.607,278.857 104.805,278.683 104.803 C 278.509 104.801,277.969 104.421,277.483 103.957 C 276.997 103.493,275.880 102.660,275.000 102.106 C 274.120 101.552,273.040 100.671,272.600 100.149 C 272.160 99.628,271.056 98.705,270.147 98.100 C 268.161 96.779,262.510 92.364,260.235 90.357 C 259.336 89.564,258.393 88.844,258.140 88.757 C 257.887 88.671,256.106 87.340,254.182 85.800 C 252.259 84.260,250.403 82.820,250.059 82.600 C 249.714 82.380,248.795 81.617,248.016 80.903 C 247.237 80.190,246.457 79.605,246.283 79.603 C 246.108 79.602,245.253 78.941,244.382 78.135 C 243.512 77.330,242.304 76.369,241.700 76.000 C 241.095 75.631,240.343 75.019,240.029 74.638 C 239.715 74.258,238.952 73.685,238.333 73.366 C 237.715 73.046,236.325 72.023,235.246 71.092 C 234.167 70.161,232.368 68.680,231.248 67.800 C 230.128 66.920,228.714 65.782,228.106 65.272 C 227.498 64.762,226.060 63.732,224.911 62.984 C 223.762 62.236,222.593 61.258,222.315 60.812 C 222.036 60.365,221.666 60.000,221.493 60.000 C 221.068 60.000,215.194 55.500,214.238 54.443 C 213.819 53.979,213.312 53.600,213.111 53.600 C 212.911 53.600,212.084 52.972,211.273 52.203 C 210.463 51.435,209.606 50.805,209.370 50.803 C 209.133 50.802,208.518 50.352,208.003 49.804 C 206.979 48.713,204.128 47.200,203.097 47.200 C 202.740 47.200,202.336 47.020,202.200 46.800 C 202.064 46.580,201.074 46.400,200.000 46.400 C 198.926 46.400,197.936 46.580,197.800 46.800 C 197.664 47.020,197.209 47.200,196.789 47.200 C 195.934 47.200,193.429 48.514,192.487 49.456 C 192.149 49.794,191.226 50.485,190.436 50.992 C 189.646 51.499,188.603 52.293,188.117 52.757 C 187.631 53.221,187.091 53.601,186.917 53.603 C 186.743 53.605,185.790 54.407,184.800 55.385 C 183.810 56.363,182.855 57.172,182.679 57.182 C 182.395 57.198,178.542 60.210,175.639 62.686 C 175.067 63.173,174.420 63.582,174.200 63.595 C 173.980 63.608,173.126 64.199,172.302 64.909 C 171.479 65.619,169.880 66.920,168.750 67.800 C 167.619 68.680,165.953 70.033,165.047 70.807 C 162.981 72.572,158.816 75.751,157.935 76.235 C 157.569 76.436,156.542 77.275,155.653 78.100 C 154.763 78.925,153.892 79.602,153.717 79.603 C 153.543 79.605,152.763 80.190,151.984 80.903 C 151.205 81.617,150.278 82.380,149.923 82.600 C 149.568 82.820,147.454 84.485,145.225 86.300 C 142.997 88.115,141.066 89.600,140.935 89.600 C 140.804 89.600,140.018 90.185,139.188 90.900 C 138.358 91.615,136.814 92.830,135.758 93.600 C 133.926 94.936,132.377 96.184,128.426 99.507 C 127.450 100.328,126.245 101.180,125.749 101.400 C 125.252 101.620,124.160 102.441,123.321 103.225 C 122.483 104.009,121.498 104.819,121.134 105.025 C 120.769 105.231,119.742 106.075,118.853 106.900 C 117.963 107.725,117.127 108.400,116.996 108.400 C 116.781 108.400,112.679 111.634,110.039 113.886 C 109.467 114.373,108.829 114.778,108.619 114.786 C 108.410 114.794,107.659 115.361,106.952 116.047 C 106.244 116.733,105.310 117.498,104.876 117.747 C 104.441 117.996,102.777 119.280,101.177 120.600 C 96.287 124.635,94.053 126.379,92.800 127.141 C 92.140 127.543,90.926 128.487,90.100 129.239 C 89.275 129.992,88.150 130.902,87.600 131.262 C 87.050 131.622,86.203 132.295,85.717 132.758 C 85.231 133.221,84.674 133.600,84.479 133.600 C 84.284 133.600,83.781 133.979,83.362 134.443 C 82.416 135.489,76.535 139.999,76.111 140.003 C 75.940 140.005,74.990 140.807,74.000 141.785 C 73.010 142.763,72.020 143.573,71.800 143.584 C 71.580 143.595,70.715 144.233,69.878 145.002 C 69.040 145.771,68.252 146.400,68.126 146.400 C 68.000 146.400,67.232 146.985,66.420 147.700 C 63.773 150.030,59.559 153.395,59.032 153.600 C 58.527 153.796,56.966 154.993,54.058 157.413 C 53.256 158.081,51.896 159.161,51.034 159.813 C 47.415 162.557,45.381 164.162,44.844 164.699 C 44.529 165.013,43.626 165.682,42.836 166.185 C 42.046 166.688,40.857 167.618,40.193 168.250 C 37.185 171.117,37.507 171.241,31.001 164.717 C 25.173 158.872,24.779 158.403,25.700 158.397 C 25.975 158.395,27.010 157.593,28.000 156.615 C 28.990 155.637,29.945 154.828,30.121 154.818 C 30.405 154.802,34.258 151.790,37.161 149.314 C 37.733 148.827,38.388 148.422,38.617 148.414 C 38.846 148.406,39.828 147.590,40.800 146.600 C 41.772 145.610,42.719 144.800,42.905 144.800 C 43.091 144.800,44.514 143.765,46.068 142.500 C 47.622 141.235,49.188 140.020,49.547 139.800 C 49.906 139.580,50.944 138.740,51.854 137.934 C 52.764 137.128,54.024 136.200,54.654 135.872 C 55.284 135.544,56.236 134.809,56.770 134.238 C 57.303 133.667,57.933 133.199,58.170 133.197 C 58.406 133.195,59.410 132.393,60.400 131.415 C 61.390 130.437,62.397 129.628,62.638 129.618 C 62.879 129.608,63.419 129.221,63.838 128.757 C 64.810 127.682,70.672 123.200,71.106 123.200 C 71.286 123.200,72.228 122.390,73.200 121.400 C 74.172 120.410,75.161 119.600,75.398 119.600 C 75.635 119.600,76.687 118.790,77.735 117.800 C 78.783 116.810,79.719 116.000,79.816 116.000 C 80.111 116.000,84.761 112.387,85.033 111.947 C 85.173 111.720,86.213 110.936,87.344 110.206 C 88.475 109.476,89.762 108.534,90.205 108.113 C 90.647 107.691,91.306 107.178,91.670 106.973 C 92.033 106.768,93.058 105.925,93.947 105.100 C 94.837 104.275,95.675 103.600,95.809 103.600 C 96.063 103.600,98.238 101.904,100.745 99.750 C 101.545 99.063,102.920 98.015,103.800 97.421 C 104.680 96.827,106.067 95.725,106.883 94.971 C 107.698 94.217,108.508 93.598,108.683 93.597 C 108.857 93.595,109.663 92.965,110.473 92.197 C 111.284 91.428,112.072 90.800,112.225 90.800 C 112.378 90.800,113.155 90.251,113.951 89.580 C 117.732 86.396,119.347 85.144,120.331 84.632 C 120.919 84.326,121.850 83.585,122.400 82.985 C 122.950 82.385,123.866 81.603,124.435 81.247 C 125.469 80.600,127.196 79.266,129.942 76.993 C 132.105 75.204,136.104 72.183,136.865 71.765 C 137.231 71.564,138.258 70.725,139.147 69.900 C 140.037 69.075,140.908 68.399,141.083 68.398 C 141.257 68.397,142.254 67.587,143.299 66.598 C 144.343 65.609,145.297 64.800,145.420 64.800 C 145.622 64.800,149.800 61.499,152.361 59.314 C 152.933 58.827,153.571 58.422,153.781 58.414 C 153.990 58.406,154.741 57.839,155.448 57.153 C 156.156 56.467,157.084 55.702,157.511 55.453 C 158.535 54.855,164.495 50.184,166.565 48.357 C 167.464 47.563,168.920 46.457,169.800 45.900 C 170.680 45.342,171.797 44.507,172.283 44.043 C 172.769 43.579,173.309 43.199,173.483 43.197 C 173.657 43.195,174.610 42.393,175.600 41.415 C 176.590 40.437,177.545 39.628,177.721 39.618 C 178.005 39.602,181.858 36.590,184.761 34.114 C 185.333 33.627,185.988 33.222,186.217 33.214 C 186.446 33.206,187.428 32.390,188.400 31.400 C 189.372 30.410,190.354 29.599,190.583 29.598 C 190.812 29.597,191.685 28.967,192.522 28.198 C 193.360 27.429,194.192 26.800,194.373 26.800 C 194.554 26.800,194.949 26.500,195.251 26.134 C 197.723 23.135,199.928 22.436,202.128 23.953 M330.800 71.662 C 330.800 94.560,330.776 95.303,330.069 94.662 C 329.666 94.298,329.171 93.991,328.969 93.980 C 328.766 93.970,327.880 93.246,327.000 92.372 C 326.120 91.498,324.990 90.676,324.489 90.546 C 323.989 90.415,323.398 89.971,323.178 89.558 C 322.957 89.146,321.904 88.221,320.837 87.504 C 318.253 85.767,312.729 81.424,310.331 79.245 L 308.400 77.491 308.400 62.745 L 308.400 48.000 319.600 48.000 L 330.800 48.000 330.800 71.662 M120.309 167.949 C 117.353 169.361,116.178 170.494,114.867 173.200 L 113.800 175.400 113.800 253.028 L 113.800 330.656 114.782 332.628 C 116.448 335.972,117.161 336.747,119.717 337.995 L 122.188 339.200 200.016 339.200 L 277.843 339.200 280.021 338.138 C 282.936 336.716,283.405 336.265,284.911 333.428 L 286.200 331.000 286.200 253.200 L 286.200 175.400 285.114 173.188 C 283.804 170.522,282.509 169.265,279.621 167.860 L 277.443 166.800 200.021 166.827 L 122.600 166.854 120.309 167.949 M188.600 215.800 L 188.600 241.800 162.300 241.903 L 136.000 242.006 136.000 215.800 L 136.000 189.594 162.300 189.697 L 188.600 189.800 188.600 215.800 M263.400 215.800 L 263.400 241.800 237.400 241.800 L 211.400 241.800 211.296 216.200 C 211.239 202.120,211.279 190.374,211.385 190.097 C 211.537 189.699,216.972 189.616,237.489 189.697 L 263.400 189.800 263.400 215.800 M188.703 290.900 L 188.806 317.200 162.403 317.200 L 136.000 317.200 136.000 290.797 L 136.000 264.394 162.300 264.497 L 188.600 264.600 188.703 290.900 M263.503 290.900 L 263.606 317.200 237.403 317.200 L 211.200 317.200 211.200 291.067 C 211.200 276.693,211.321 264.812,211.470 264.664 C 211.618 264.516,223.363 264.441,237.570 264.497 L 263.400 264.600 263.503 290.900 M82.615 270.010 C 75.600 273.496,74.065 282.723,79.591 288.191 C 86.807 295.331,98.566 290.386,98.593 280.200 C 98.615 271.701,90.117 266.282,82.615 270.010 M344.769 274.400 C 340.309 276.639,337.216 283.884,339.176 287.505 C 339.383 287.887,339.645 288.652,339.760 289.205 C 341.008 295.240,352.569 297.308,358.102 292.485 C 360.602 290.305,361.961 282.851,360.422 279.761 C 359.475 277.860,355.532 274.000,354.536 274.000 C 354.047 274.000,353.536 273.820,353.400 273.600 C 352.840 272.694,347.112 273.225,344.769 274.400 " stroke="none" fill="#040404" fill-rule="evenodd"></path><path id="path1" d="" stroke="none" fill="#080404" fill-rule="evenodd"></path><path id="path2" d="" stroke="none" fill="#080404" fill-rule="evenodd"></path><path id="path3" d="" stroke="none" fill="#080404" fill-rule="evenodd"></path><path id="path4" d="" stroke="none" fill="#080404" fill-rule="evenodd"></path></g></svg>