<svg id="svg" version="1.1" xmlns="http://www.w3.org/2000/svg" xmlns:xlink="http://www.w3.org/1999/xlink" width="400" height="400" viewBox="0, 0, 400,400"><g id="svgg"><path id="path0" d="M56.824 40.756 C 55.208 41.346,54.033 42.898,52.161 46.916 C 49.796 51.993,49.413 52.394,45.187 54.227 C 35.277 58.525,35.335 66.218,45.313 70.991 C 49.180 72.841,49.846 73.543,51.977 78.006 C 56.638 87.766,63.675 87.766,68.335 78.006 C 70.466 73.543,71.133 72.841,75.000 70.991 C 84.978 66.218,85.035 58.525,75.125 54.227 C 70.901 52.395,70.516 51.991,68.158 46.930 C 65.079 40.320,62.245 38.777,56.824 40.756 M96.355 59.418 C 90.370 62.393,90.624 59.818,90.630 117.306 C 90.636 174.017,90.333 170.685,95.814 174.299 C 98.961 176.373,277.331 176.636,281.323 174.571 C 286.959 171.657,286.713 174.293,286.711 116.797 C 286.708 59.983,286.966 63.080,281.948 59.527 C 278.700 57.228,100.971 57.123,96.355 59.418 M62.012 61.035 C 63.392 62.647,63.385 62.743,61.795 64.334 L 60.156 65.972 58.518 64.334 C 56.963 62.779,58.088 59.375,60.156 59.375 C 60.395 59.375,61.230 60.122,62.012 61.035 M274.219 116.797 L 274.219 163.281 188.672 163.281 L 103.125 163.281 103.125 116.797 L 103.125 70.313 188.672 70.313 L 274.219 70.313 274.219 116.797 M108.650 77.058 C 107.064 79.076,107.031 79.864,107.031 116.475 C 107.031 155.933,107.114 156.887,110.670 158.508 C 113.891 159.975,264.272 159.711,267.132 158.232 C 270.391 156.547,270.313 157.576,270.313 116.479 L 270.313 78.397 268.504 76.699 L 266.696 75.000 188.483 75.000 L 110.270 75.000 108.650 77.058 M345.703 76.846 C 342.588 78.227,341.710 79.397,339.439 85.193 C 336.930 91.594,336.005 92.508,329.528 94.983 C 318.029 99.377,318.046 108.974,329.559 113.172 C 335.514 115.343,337.715 117.632,339.958 123.987 C 344.245 136.128,354.268 134.920,358.526 121.748 C 359.823 117.735,362.733 115.128,368.097 113.172 C 379.611 108.974,379.627 99.377,368.128 94.983 C 361.600 92.488,360.830 91.712,358.030 84.804 C 355.016 77.365,350.747 74.610,345.703 76.846 M257.813 112.619 L 257.813 137.738 249.759 125.315 C 235.054 102.629,232.736 101.943,222.593 117.283 C 219.513 121.942,216.741 125.598,216.434 125.408 C 216.126 125.218,211.377 118.105,205.879 109.601 C 194.484 91.975,192.620 89.844,188.608 89.844 C 184.175 89.844,183.569 90.511,172.284 107.784 C 166.379 116.823,161.301 124.219,160.999 124.219 C 160.697 124.219,158.069 120.570,155.159 116.111 C 145.468 101.261,143.111 101.898,129.221 123.121 L 119.555 137.891 119.543 112.695 L 119.531 87.500 188.672 87.500 L 257.813 87.500 257.813 112.619 M354.243 101.965 L 357.057 104.111 354.636 105.897 C 353.304 106.880,351.443 108.730,350.500 110.008 L 348.785 112.332 347.157 110.040 C 346.261 108.779,344.440 106.945,343.111 105.964 L 340.693 104.180 344.120 101.316 C 346.004 99.740,347.782 97.710,348.070 96.803 C 348.566 95.239,348.665 95.273,350.011 97.487 C 350.791 98.770,352.696 100.785,354.243 101.965 M4.974 100.717 C -0.239 103.896,0.000 101.770,0.000 144.990 C 0.000 194.014,-1.448 190.625,19.492 190.625 L 31.250 190.625 31.250 259.766 L 31.250 328.906 22.449 328.906 C 8.269 328.906,5.469 331.462,5.469 344.401 C 5.469 360.518,3.155 359.766,52.734 359.766 C 101.868 359.766,99.721 360.366,100.594 346.369 L 101.001 339.844 166.552 339.844 L 232.102 339.844 234.020 337.926 C 236.557 335.389,236.557 331.798,234.020 329.261 L 232.102 327.344 166.442 327.344 L 100.781 327.344 100.781 313.672 L 100.781 300.000 189.063 300.000 L 277.344 300.000 277.344 313.672 L 277.344 327.344 267.933 327.344 C 257.232 327.344,254.688 328.544,254.688 333.594 C 254.688 338.643,257.232 339.844,267.933 339.844 L 277.344 339.844 277.344 346.133 C 277.344 359.515,277.762 359.704,308.065 360.003 C 339.855 360.316,341.406 359.654,341.406 345.780 L 341.406 339.844 357.422 339.844 L 373.438 339.844 373.438 346.606 C 373.438 352.629,373.653 353.650,375.406 355.948 C 379.801 361.711,393.637 361.711,398.032 355.948 L 400.000 353.368 400.000 317.231 L 400.000 281.094 397.344 278.437 C 395.883 276.977,394.125 275.781,393.437 275.781 C 392.352 275.781,392.188 274.364,392.187 265.027 C 392.187 245.698,392.918 246.094,357.200 246.094 C 323.312 246.094,322.656 246.335,322.656 258.804 L 322.656 265.054 320.960 262.898 C 318.019 259.159,313.874 257.849,304.927 257.830 L 296.963 257.813 296.724 235.292 L 296.484 212.772 294.387 209.606 C 293.125 207.700,290.928 205.779,288.867 204.782 L 285.444 203.125 188.672 203.125 C 78.059 203.125,87.419 202.513,82.997 210.036 L 80.859 213.672 80.610 235.661 L 80.361 257.651 71.112 257.927 C 53.393 258.456,53.128 259.056,53.126 298.633 L 53.125 328.906 48.438 328.906 L 43.750 328.906 43.750 259.766 L 43.750 190.625 55.546 190.625 C 74.483 190.625,75.276 189.856,75.640 171.167 C 76.001 152.634,72.906 147.230,65.340 153.182 L 63.281 154.801 63.281 166.463 L 63.281 178.125 37.500 178.125 L 11.719 178.125 11.719 144.922 L 11.719 111.719 37.500 111.719 L 63.281 111.719 63.281 121.818 C 63.281 132.968,64.311 135.194,69.441 135.131 C 74.641 135.068,75.781 132.095,75.781 118.594 C 75.781 98.531,77.138 99.218,37.512 99.222 C 9.269 99.224,7.272 99.316,4.974 100.717 M214.337 145.898 C 214.810 146.670,210.755 146.875,195.038 146.875 L 175.140 146.875 171.899 141.744 L 168.659 136.613 178.545 121.454 L 188.431 106.296 201.085 125.609 C 208.044 136.231,214.008 145.361,214.337 145.898 M152.506 135.167 L 160.091 146.875 144.518 146.875 L 128.945 146.875 136.543 135.162 C 140.722 128.720,144.316 123.452,144.531 123.454 C 144.746 123.456,148.335 128.727,152.506 135.167 M239.844 133.360 C 243.066 138.358,246.353 143.443,247.147 144.661 L 248.591 146.875 239.335 146.871 L 230.078 146.867 227.344 142.592 C 223.985 137.341,223.816 138.620,228.906 130.823 C 234.130 122.822,232.858 122.526,239.844 133.360 M315.106 165.927 C 313.914 166.953,312.049 170.029,310.961 172.763 C 309.015 177.659,308.896 177.777,303.177 180.560 C 292.151 185.925,291.250 194.352,301.301 198.106 C 307.386 200.379,308.697 201.594,311.348 207.411 C 316.401 218.498,324.825 218.727,328.878 207.887 C 330.955 202.333,333.470 199.904,339.068 198.045 C 348.204 195.010,348.113 184.654,338.922 181.479 C 333.873 179.735,330.325 176.303,329.001 171.884 C 326.810 164.571,320.052 161.674,315.106 165.927 M323.185 186.650 L 326.241 189.706 323.149 192.798 L 320.056 195.890 317.121 192.805 L 314.186 189.720 317.054 186.722 C 318.631 185.073,319.968 183.695,320.025 183.659 C 320.082 183.623,321.504 184.969,323.185 186.650 M182.813 223.381 C 182.813 231.639,184.190 234.375,188.350 234.375 C 193.440 234.375,195.313 230.983,195.313 221.758 L 195.313 215.625 238.906 215.625 C 271.771 215.625,282.731 215.856,283.438 216.563 C 284.120 217.245,284.375 223.162,284.375 238.291 L 284.375 259.083 281.935 261.377 C 278.059 265.022,277.344 267.627,277.344 278.100 L 277.344 287.500 273.047 287.500 L 268.750 287.500 268.747 269.727 C 268.743 243.481,269.889 244.531,241.238 244.531 C 212.384 244.531,213.281 243.710,213.281 270.105 L 213.281 287.500 204.297 287.500 L 195.313 287.500 195.313 270.820 C 195.313 261.187,194.966 253.145,194.492 251.787 C 193.083 247.744,188.379 246.516,184.871 249.275 L 182.813 250.895 182.813 269.197 L 182.813 287.500 175.000 287.500 L 167.188 287.500 167.182 269.727 C 167.175 243.591,168.209 244.544,139.832 244.536 C 110.797 244.529,111.719 243.690,111.719 270.105 L 111.719 287.500 106.355 287.500 L 100.992 287.500 100.621 277.930 C 100.217 267.517,99.518 265.309,95.382 261.377 L 92.969 259.083 92.969 238.291 C 92.969 223.162,93.224 217.245,93.906 216.563 C 94.613 215.856,105.660 215.625,138.828 215.625 L 182.813 215.625 182.813 223.381 M154.688 272.266 L 154.688 287.500 139.453 287.500 L 124.219 287.500 124.219 272.266 L 124.219 257.031 139.453 257.031 L 154.688 257.031 154.688 272.266 M256.250 272.266 L 256.250 287.500 241.016 287.500 L 225.781 287.500 225.781 272.266 L 225.781 257.031 241.016 257.031 L 256.250 257.031 256.250 272.266 M379.688 259.766 C 379.688 260.780,376.693 260.938,357.422 260.938 C 338.151 260.938,335.156 260.780,335.156 259.766 C 335.156 258.751,338.151 258.594,357.422 258.594 C 376.693 258.594,379.688 258.751,379.688 259.766 M87.344 271.250 C 88.047 271.953,88.281 281.615,88.281 309.922 L 88.281 347.656 76.953 347.656 L 65.625 347.656 65.625 309.505 C 65.625 288.522,65.859 271.120,66.146 270.833 C 67.113 269.866,86.338 270.244,87.344 271.250 M311.531 309.180 L 311.733 347.656 300.789 347.656 L 289.844 347.656 289.844 309.505 C 289.844 288.522,290.088 271.110,290.386 270.812 C 290.685 270.513,295.519 270.367,301.128 270.486 L 311.328 270.703 311.531 309.180 M379.688 274.219 C 379.688 274.721,371.745 275.000,357.422 275.000 C 343.099 275.000,335.156 274.721,335.156 274.219 C 335.156 273.716,343.099 273.438,357.422 273.438 C 371.745 273.438,379.688 273.716,379.688 274.219 M388.281 299.219 L 388.281 310.938 357.422 310.938 L 326.563 310.938 326.563 299.219 L 326.563 287.500 357.422 287.500 L 388.281 287.500 388.281 299.219 M347.656 295.867 C 343.576 297.367,342.260 303.198,345.313 306.250 C 347.358 308.296,365.688 308.619,368.487 306.659 C 372.210 304.051,371.302 297.645,366.997 296.144 C 364.564 295.296,349.785 295.084,347.656 295.867 M388.281 325.391 L 388.281 327.344 357.422 327.344 L 326.563 327.344 326.563 325.391 L 326.563 323.438 357.422 323.438 L 388.281 323.438 388.281 325.391 M328.906 343.750 C 328.906 346.701,328.620 347.656,327.734 347.656 C 326.849 347.656,326.563 346.701,326.563 343.750 C 326.563 340.799,326.849 339.844,327.734 339.844 C 328.620 339.844,328.906 340.799,328.906 343.750 M388.281 343.750 C 388.281 347.135,388.073 347.656,386.719 347.656 C 385.365 347.656,385.156 347.135,385.156 343.750 C 385.156 340.365,385.365 339.844,386.719 339.844 C 388.073 339.844,388.281 340.365,388.281 343.750 M53.125 344.531 L 53.125 347.656 35.547 347.656 L 17.969 347.656 17.969 344.531 L 17.969 341.406 35.547 341.406 L 53.125 341.406 53.125 344.531 " stroke="none" fill="#000000" fill-rule="evenodd"></path></g></svg>