<svg 
xmlns:xlink="http://www.w3.org/1999/xlink"
 xmlns="http://www.w3.org/2000/svg" viewBox="0 0 80 80" width="80" height="80"><path d="M30.621 28.373v2.361c0 1.747-1.665 3.278-3.563 3.278s-3.563-1.531-3.563-3.278v-2.361c0-1.747 1.665-3.282 3.563-3.282s3.563 1.535 3.563 3.282zM48.389 37.999l-4.16 11.118H32.995l4.199-11.118z" fill="#ABD8C7"/><path d="m47.092 37.999-4.16 11.118h1.73l4.16-11.118z" fill="#9AC1B1"/><path d="M50.318 36.663a.86.86 0 0 0-.701-.368H36.605a.854.854 0 0 0-.796.549l-4.631 12.272h-7.619v-.67c0-.125.104-.225.225-.225h7.663v-1.699h-7.663a1.926 1.926 0 0 0-1.924 1.924v1.522a.85.85 0 0 0 .852.848h27.269v-1.699h-3.939l4.372-11.671a.862.862 0 0 0-.096-.783zm-6.089 12.454H32.995l4.199-11.118H48.39l-4.161 11.118zm-20.32-5.643h-4.493v1.704h4.493a.6.6 0 0 1 .601.601v.549h1.704v-.549a2.306 2.306 0 0 0-2.305-2.305zm8.731-10.05h-.852a.83.83 0 0 0-.432.134c.605-.809.964-1.786.964-2.824v-2.361c0-2.698-2.409-4.982-5.263-4.982s-5.263 2.283-5.263 4.982v2.361c0 .999.333 1.942.891 2.729-.065-.013-.125-.039-.195-.039h-.856c-4.061 0-7.369 3.308-7.369 7.369v8c0 .471.385.852.852.852h6.24v-1.704H15.97v-7.148a5.674 5.674 0 0 1 5.665-5.669h.074a5.339 5.339 0 0 0 5.263 4.484h.337c2.646 0 4.852-1.946 5.263-4.484h.069c1.137 0 2.231.337 3.17.969l.951-1.41a7.346 7.346 0 0 0-4.122-1.259zm-9.146-5.051c0-1.747 1.665-3.282 3.563-3.282s3.563 1.535 3.563 3.282v2.361c0 1.747-1.665 3.278-3.563 3.278s-3.563-1.531-3.563-3.278v-2.361zm7.442 5.903a3.63 3.63 0 0 1-3.628 3.628h-.337a3.634 3.634 0 0 1-3.632-3.628c0-.026-.009-.048-.013-.074a5.396 5.396 0 0 0 3.732 1.514 5.406 5.406 0 0 0 3.939-1.725.769.769 0 0 0-.061.285zm19.382 2.387a.86.86 0 0 0-.701-.368H36.605a.854.854 0 0 0-.796.549l-4.631 12.272h-7.619v-.67c0-.125.104-.225.225-.225h7.663v-1.699h-7.663a1.926 1.926 0 0 0-1.924 1.924v1.522a.85.85 0 0 0 .852.848h27.269v-1.699h-3.939l4.372-11.671a.862.862 0 0 0-.096-.783zm-6.089 12.454H32.995l4.199-11.118H48.39l-4.161 11.118zM32.64 33.424h-.852a.83.83 0 0 0-.432.134c.605-.809.964-1.786.964-2.824v-2.361c0-2.698-2.409-4.982-5.263-4.982s-5.263 2.283-5.263 4.982v2.361c0 .999.333 1.942.891 2.729-.065-.013-.125-.039-.195-.039h-.856c-4.061 0-7.369 3.308-7.369 7.369v8c0 .471.385.852.852.852h6.24v-1.704H15.97v-7.148a5.674 5.674 0 0 1 5.665-5.669h.074a5.339 5.339 0 0 0 5.263 4.484h.337c2.646 0 4.852-1.946 5.263-4.484h.069c1.137 0 2.231.337 3.17.969l.951-1.41a7.346 7.346 0 0 0-4.122-1.259zm-9.146-5.051c0-1.747 1.665-3.282 3.563-3.282s3.563 1.535 3.563 3.282v2.361c0 1.747-1.665 3.278-3.563 3.278s-3.563-1.531-3.563-3.278v-2.361zm7.442 5.903a3.63 3.63 0 0 1-3.628 3.628h-.337a3.634 3.634 0 0 1-3.632-3.628c0-.026-.009-.048-.013-.074a5.396 5.396 0 0 0 3.732 1.514 5.406 5.406 0 0 0 3.939-1.725.769.769 0 0 0-.061.285zm-7.027 9.198h-4.493v1.704h4.493a.6.6 0 0 1 .601.601v.549h1.704v-.549a2.306 2.306 0 0 0-2.305-2.305zm0 0h-4.493v1.704h4.493a.6.6 0 0 1 .601.601v.549h1.704v-.549a2.306 2.306 0 0 0-2.305-2.305zm8.731-10.05h-.852a.83.83 0 0 0-.432.134c.605-.809.964-1.786.964-2.824v-2.361c0-2.698-2.409-4.982-5.263-4.982s-5.263 2.283-5.263 4.982v2.361c0 .999.333 1.942.891 2.729-.065-.013-.125-.039-.195-.039h-.856c-4.061 0-7.369 3.308-7.369 7.369v8c0 .471.385.852.852.852h6.24v-1.704H15.97v-7.148a5.674 5.674 0 0 1 5.665-5.669h.074a5.339 5.339 0 0 0 5.263 4.484h.337c2.646 0 4.852-1.946 5.263-4.484h.069c1.137 0 2.231.337 3.17.969l.951-1.41a7.346 7.346 0 0 0-4.122-1.259zm-9.146-5.051c0-1.747 1.665-3.282 3.563-3.282s3.563 1.535 3.563 3.282v2.361c0 1.747-1.665 3.278-3.563 3.278s-3.563-1.531-3.563-3.278v-2.361zm7.442 5.903a3.63 3.63 0 0 1-3.628 3.628h-.337a3.634 3.634 0 0 1-3.632-3.628c0-.026-.009-.048-.013-.074a5.396 5.396 0 0 0 3.732 1.514 5.406 5.406 0 0 0 3.939-1.725.769.769 0 0 0-.061.285zm19.382 2.387a.86.86 0 0 0-.701-.368H36.605a.854.854 0 0 0-.796.549l-4.631 12.272h-7.619v-.67c0-.125.104-.225.225-.225h7.663v-1.699h-7.663a1.926 1.926 0 0 0-1.924 1.924v1.522a.85.85 0 0 0 .852.848h27.269v-1.699h-3.939l4.372-11.671a.862.862 0 0 0-.096-.783zm-6.089 12.454H32.995l4.199-11.118H48.39l-4.161 11.118zm6.089-12.454a.86.86 0 0 0-.701-.368H36.605a.854.854 0 0 0-.796.549l-4.631 12.272h-7.619v-.67c0-.125.104-.225.225-.225h7.663v-1.699h-7.663a1.926 1.926 0 0 0-1.924 1.924v1.522a.85.85 0 0 0 .852.848h27.269v-1.699h-3.939l4.372-11.671a.862.862 0 0 0-.096-.783zm-6.089 12.454H32.995l4.199-11.118H48.39l-4.161 11.118zM15.97 40.792a5.674 5.674 0 0 1 5.665-5.669h.074a5.339 5.339 0 0 0 5.263 4.484h.337c2.646 0 4.852-1.946 5.263-4.484h.069c1.137 0 2.231.337 3.17.969l.951-1.41a7.34 7.34 0 0 0-4.121-1.258h-.852a.83.83 0 0 0-.432.134c.605-.809.964-1.786.964-2.824v-2.361c0-2.698-2.409-4.982-5.263-4.982s-5.263 2.283-5.263 4.982v2.361c0 .999.333 1.942.891 2.729-.065-.013-.125-.039-.195-.039h-.856c-4.061 0-7.369 3.308-7.369 7.369v8c0 .471.385.852.852.852h6.24v-1.704H15.97v-7.149zm7.524-12.419c0-1.747 1.665-3.282 3.563-3.282s3.563 1.535 3.563 3.282v2.361c0 1.747-1.665 3.278-3.563 3.278s-3.563-1.531-3.563-3.278v-2.361zm3.563 7.343a5.406 5.406 0 0 0 3.939-1.725.778.778 0 0 0-.061.285 3.63 3.63 0 0 1-3.628 3.628h-.337a3.634 3.634 0 0 1-3.632-3.628c0-.026-.009-.048-.013-.074a5.392 5.392 0 0 0 3.732 1.514zm-.843 10.612v-.549a2.308 2.308 0 0 0-2.305-2.305h-4.493v1.704h4.493a.6.6 0 0 1 .601.601v.549h1.704zm29.591 8.436V28.563l3.135 2.517 1.064-1.328L32.549 7.724a.846.846 0 0 0-1.064 0l-9.738 7.805V12.42a.851.851 0 0 0-.852-.852h-8.592a.854.854 0 0 0-.852.852v11.356L4 29.752l1.064 1.328 3.131-2.508v26.192H0v1.699h64v-1.699h-8.195zm-1.699-27.52v27.52H9.894V27.21l2.941-2.361a.839.839 0 0 0 .32-.662V13.272h6.889v4.03c0 .324.19.623.484.765a.84.84 0 0 0 .899-.104l10.59-8.489 22.149 17.769h-.06zm-18.296 9.6-4.631 12.272H23.56v-.67c0-.125.104-.225.225-.225h7.663v-1.699h-7.663a1.926 1.926 0 0 0-1.924 1.924v1.522a.85.85 0 0 0 .852.848h27.269v-1.699h-3.939l4.372-11.671a.856.856 0 0 0-.095-.783.86.86 0 0 0-.701-.368H36.605a.853.853 0 0 0-.795.549zm12.579 1.155-4.16 11.118H32.995l4.199-11.118h11.195zM32.32 28.373c0-2.698-2.409-4.982-5.263-4.982s-5.263 2.283-5.263 4.982v2.361c0 .999.333 1.942.891 2.729-.065-.013-.125-.039-.195-.039h-.856c-4.061 0-7.369 3.308-7.369 7.369v8c0 .471.385.852.852.852h6.24v-1.704H15.97v-7.148a5.674 5.674 0 0 1 5.665-5.669h.074a5.339 5.339 0 0 0 5.263 4.484h.337c2.646 0 4.852-1.946 5.263-4.484h.069c1.137 0 2.231.337 3.17.969l.951-1.41a7.34 7.34 0 0 0-4.121-1.258h-.852a.83.83 0 0 0-.432.134c.605-.809.964-1.786.964-2.824v-2.362zm-8.826 0c0-1.747 1.665-3.282 3.563-3.282s3.563 1.535 3.563 3.282v2.361c0 1.747-1.665 3.278-3.563 3.278s-3.563-1.531-3.563-3.278v-2.361zm7.442 5.903a3.63 3.63 0 0 1-3.628 3.628h-.337a3.634 3.634 0 0 1-3.632-3.628c0-.026-.009-.048-.013-.074a5.396 5.396 0 0 0 3.732 1.514 5.406 5.406 0 0 0 3.939-1.725.769.769 0 0 0-.061.285zm-4.722 12.052v-.549a2.308 2.308 0 0 0-2.305-2.305h-4.493v1.704h4.493a.6.6 0 0 1 .601.601v.549h1.704zm-2.305-2.854h-4.493v1.704h4.493a.6.6 0 0 1 .601.601v.549h1.704v-.549a2.306 2.306 0 0 0-2.305-2.305zm8.731-10.05h-.852a.83.83 0 0 0-.432.134c.605-.809.964-1.786.964-2.824v-2.361c0-2.698-2.409-4.982-5.263-4.982s-5.263 2.283-5.263 4.982v2.361c0 .999.333 1.942.891 2.729-.065-.013-.125-.039-.195-.039h-.856c-4.061 0-7.369 3.308-7.369 7.369v8c0 .471.385.852.852.852h6.24v-1.704H15.97v-7.148a5.674 5.674 0 0 1 5.665-5.669h.074a5.339 5.339 0 0 0 5.263 4.484h.337c2.646 0 4.852-1.946 5.263-4.484h.069c1.137 0 2.231.337 3.17.969l.951-1.41a7.346 7.346 0 0 0-4.122-1.259zm-9.146-5.051c0-1.747 1.665-3.282 3.563-3.282s3.563 1.535 3.563 3.282v2.361c0 1.747-1.665 3.278-3.563 3.278s-3.563-1.531-3.563-3.278v-2.361zm7.442 5.903a3.63 3.63 0 0 1-3.628 3.628h-.337a3.634 3.634 0 0 1-3.632-3.628c0-.026-.009-.048-.013-.074a5.396 5.396 0 0 0 3.732 1.514 5.406 5.406 0 0 0 3.939-1.725.769.769 0 0 0-.061.285zm19.382 2.387a.86.86 0 0 0-.701-.368H36.605a.854.854 0 0 0-.796.549l-4.631 12.272h-7.619v-.67c0-.125.104-.225.225-.225h7.663v-1.699h-7.663a1.926 1.926 0 0 0-1.924 1.924v1.522a.85.85 0 0 0 .852.848h27.269v-1.699h-3.939l4.372-11.671a.862.862 0 0 0-.096-.783zm-6.089 12.454H32.995l4.199-11.118H48.39l-4.161 11.118zm6.089-12.454a.86.86 0 0 0-.701-.368H36.605a.854.854 0 0 0-.796.549l-4.631 12.272h-7.619v-.67c0-.125.104-.225.225-.225h7.663v-1.699h-7.663a1.926 1.926 0 0 0-1.924 1.924v1.522a.85.85 0 0 0 .852.848h27.269v-1.699h-3.939l4.372-11.671a.862.862 0 0 0-.096-.783zm-6.089 12.454H32.995l4.199-11.118H48.39l-4.161 11.118zM32.64 33.424h-.852a.83.83 0 0 0-.432.134c.605-.809.964-1.786.964-2.824v-2.361c0-2.698-2.409-4.982-5.263-4.982s-5.263 2.283-5.263 4.982v2.361c0 .999.333 1.942.891 2.729-.065-.013-.125-.039-.195-.039h-.856c-4.061 0-7.369 3.308-7.369 7.369v8c0 .471.385.852.852.852h6.24v-1.704H15.97v-7.148a5.674 5.674 0 0 1 5.665-5.669h.074a5.339 5.339 0 0 0 5.263 4.484h.337c2.646 0 4.852-1.946 5.263-4.484h.069c1.137 0 2.231.337 3.17.969l.951-1.41a7.346 7.346 0 0 0-4.122-1.259zm-9.146-5.051c0-1.747 1.665-3.282 3.563-3.282s3.563 1.535 3.563 3.282v2.361c0 1.747-1.665 3.278-3.563 3.278s-3.563-1.531-3.563-3.278v-2.361zm7.442 5.903a3.63 3.63 0 0 1-3.628 3.628h-.337a3.634 3.634 0 0 1-3.632-3.628c0-.026-.009-.048-.013-.074a5.396 5.396 0 0 0 3.732 1.514 5.406 5.406 0 0 0 3.939-1.725.769.769 0 0 0-.061.285zm-7.027 9.198h-4.493v1.704h4.493a.6.6 0 0 1 .601.601v.549h1.704v-.549a2.306 2.306 0 0 0-2.305-2.305z" fill="#47705D"/></svg>