<svg id="svg" version="1.1" xmlns="http://www.w3.org/2000/svg" xmlns:xlink="http://www.w3.org/1999/xlink" width="400" height="400" viewBox="0, 0, 400,400"><g id="svgg"><path id="path0" d="M199.000 21.200 C 198.857 21.432,196.663 21.600,193.776 21.600 C 190.725 21.600,188.800 21.755,188.800 22.000 C 188.800 22.220,187.900 22.400,186.800 22.400 C 185.700 22.400,184.800 22.580,184.800 22.800 C 184.800 23.020,184.080 23.200,183.200 23.200 C 182.320 23.200,181.600 23.380,181.600 23.600 C 181.600 23.820,180.970 24.000,180.200 24.000 C 179.430 24.000,178.800 24.180,178.800 24.400 C 178.800 24.620,178.471 24.800,178.068 24.800 C 177.183 24.800,171.554 26.756,171.020 27.249 C 170.811 27.442,170.316 27.600,169.920 27.600 C 169.524 27.600,169.200 27.780,169.200 28.000 C 169.200 28.220,168.840 28.400,168.400 28.400 C 167.960 28.400,167.600 28.580,167.600 28.800 C 167.600 29.020,167.364 29.200,167.075 29.200 C 166.787 29.200,166.164 29.560,165.692 30.000 C 165.220 30.440,164.556 30.800,164.217 30.800 C 163.878 30.800,163.600 30.980,163.600 31.200 C 163.600 31.420,163.364 31.600,163.075 31.600 C 162.787 31.600,162.164 31.960,161.692 32.400 C 161.220 32.840,160.710 33.200,160.560 33.200 C 160.410 33.200,159.771 33.740,159.140 34.400 C 158.509 35.060,157.764 35.600,157.485 35.600 C 157.205 35.600,156.717 35.960,156.400 36.400 C 156.083 36.840,155.575 37.200,155.272 37.200 C 154.969 37.200,154.217 37.740,153.600 38.400 C 152.983 39.060,152.231 39.600,151.928 39.600 C 151.625 39.600,151.117 39.960,150.800 40.400 C 150.483 40.840,150.073 41.200,149.889 41.200 C 149.442 41.200,144.236 44.832,144.067 45.262 C 143.993 45.448,143.718 45.600,143.455 45.600 C 143.192 45.600,142.717 45.960,142.400 46.400 C 142.083 46.840,141.575 47.200,141.272 47.200 C 140.969 47.200,140.217 47.740,139.600 48.400 C 138.983 49.060,138.231 49.600,137.928 49.600 C 137.625 49.600,137.117 49.960,136.800 50.400 C 136.483 50.840,136.020 51.200,135.771 51.200 C 135.522 51.200,134.754 51.740,134.063 52.400 C 133.372 53.060,132.575 53.600,132.292 53.600 C 132.009 53.600,131.517 53.960,131.200 54.400 C 130.883 54.840,130.393 55.200,130.112 55.200 C 129.830 55.200,129.600 55.380,129.600 55.600 C 129.600 55.820,129.370 56.000,129.088 56.000 C 128.807 56.000,128.317 56.360,128.000 56.800 C 127.683 57.240,127.193 57.600,126.912 57.600 C 126.630 57.600,126.396 57.735,126.392 57.900 C 126.388 58.065,125.488 58.732,124.392 59.383 C 123.296 60.033,122.400 60.708,122.400 60.883 C 122.400 61.057,122.157 61.200,121.859 61.200 C 121.562 61.200,120.754 61.740,120.063 62.400 C 119.372 63.060,118.575 63.600,118.292 63.600 C 118.009 63.600,117.517 63.960,117.200 64.400 C 116.883 64.840,116.420 65.200,116.171 65.200 C 115.922 65.200,115.194 65.695,114.552 66.300 C 113.911 66.905,112.894 67.655,112.293 67.968 C 111.692 68.280,111.200 68.685,111.200 68.868 C 111.200 69.050,111.002 69.200,110.760 69.200 C 110.519 69.200,109.817 69.740,109.200 70.400 C 108.583 71.060,107.880 71.600,107.636 71.600 C 107.392 71.600,106.628 72.140,105.937 72.800 C 105.246 73.460,104.438 74.000,104.141 74.000 C 103.843 74.000,103.600 74.158,103.600 74.351 C 103.600 74.545,103.095 74.912,102.479 75.167 C 101.862 75.423,100.880 76.075,100.296 76.616 C 99.713 77.157,99.092 77.600,98.917 77.601 C 98.743 77.601,97.970 78.141,97.200 78.800 C 96.430 79.459,95.615 79.999,95.388 79.999 C 95.162 80.000,94.717 80.360,94.400 80.800 C 94.083 81.240,93.633 81.600,93.400 81.600 C 93.167 81.600,92.717 81.960,92.400 82.400 C 92.083 82.840,91.620 83.200,91.371 83.200 C 91.122 83.200,90.354 83.740,89.663 84.400 C 88.972 85.060,88.224 85.600,88.000 85.600 C 87.776 85.600,87.028 86.140,86.337 86.800 C 85.646 87.460,84.878 88.000,84.629 88.000 C 84.380 88.000,83.917 88.360,83.600 88.800 C 83.283 89.240,82.775 89.600,82.472 89.600 C 82.169 89.600,81.417 90.140,80.800 90.800 C 80.183 91.460,79.469 92.000,79.213 92.000 C 78.690 92.000,76.145 93.815,75.153 94.896 C 74.797 95.283,74.294 95.600,74.035 95.600 C 73.776 95.600,73.114 96.050,72.564 96.600 C 72.014 97.150,71.400 97.600,71.200 97.600 C 71.000 97.600,70.386 98.050,69.836 98.600 C 69.286 99.150,68.647 99.600,68.415 99.600 C 68.183 99.600,67.428 100.140,66.737 100.800 C 66.046 101.460,65.278 102.000,65.029 102.000 C 64.780 102.000,64.317 102.360,64.000 102.800 C 63.683 103.240,63.220 103.600,62.971 103.600 C 62.722 103.600,61.954 104.140,61.263 104.800 C 60.572 105.460,59.865 106.000,59.692 106.000 C 59.519 106.000,59.117 106.360,58.800 106.800 C 58.483 107.240,57.980 107.600,57.683 107.600 C 57.386 107.600,56.892 107.825,56.585 108.100 C 55.317 109.238,54.817 109.600,54.517 109.600 C 54.343 109.601,53.677 110.051,53.038 110.600 C 52.399 111.150,51.732 111.600,51.556 111.600 C 51.380 111.600,50.786 112.050,50.236 112.600 C 49.686 113.150,49.075 113.600,48.878 113.600 C 48.680 113.600,47.954 114.140,47.263 114.800 C 46.572 115.460,45.775 116.000,45.492 116.000 C 45.209 116.000,44.717 116.360,44.400 116.800 C 44.083 117.240,43.665 117.600,43.472 117.600 C 43.279 117.600,42.617 118.140,42.000 118.800 C 41.383 119.460,40.631 120.000,40.328 120.000 C 40.025 120.000,39.517 120.360,39.200 120.800 C 38.883 121.240,38.375 121.600,38.072 121.600 C 37.769 121.600,37.017 122.140,36.400 122.800 C 35.783 123.460,35.083 124.000,34.843 124.000 C 34.056 124.000,27.200 130.440,27.200 131.179 C 27.200 131.379,26.953 131.790,26.652 132.091 C 25.895 132.847,24.800 135.030,24.800 135.780 C 24.800 136.121,24.620 136.400,24.400 136.400 C 24.180 136.400,24.000 136.760,24.000 137.200 C 24.000 137.640,23.820 138.000,23.600 138.000 C 23.380 138.000,23.200 138.540,23.200 139.200 C 23.200 139.860,23.020 140.400,22.800 140.400 C 22.580 140.400,22.400 141.019,22.400 141.776 C 22.400 142.533,22.220 143.264,22.000 143.400 C 21.780 143.536,21.600 145.178,21.600 147.050 C 21.600 148.921,21.394 150.837,21.143 151.307 C 20.799 151.948,20.799 152.200,21.143 152.314 C 21.434 152.411,21.600 153.613,21.600 155.633 C 21.600 157.478,21.767 158.800,22.000 158.800 C 22.220 158.800,22.400 159.340,22.400 160.000 C 22.400 160.660,22.580 161.200,22.800 161.200 C 23.020 161.200,23.200 161.740,23.200 162.400 C 23.200 163.060,23.380 163.600,23.600 163.600 C 23.820 163.600,24.000 163.960,24.000 164.400 C 24.000 164.840,24.180 165.200,24.400 165.200 C 24.620 165.200,24.800 165.464,24.800 165.786 C 24.800 166.599,26.076 169.200,26.474 169.200 C 26.653 169.200,26.800 169.454,26.800 169.764 C 26.800 170.765,34.762 178.400,35.807 178.400 C 36.133 178.400,36.400 178.580,36.400 178.800 C 36.400 179.020,36.720 179.200,37.112 179.200 C 37.503 179.200,38.083 179.560,38.400 180.000 C 38.739 180.470,39.435 180.800,40.088 180.800 C 40.700 180.800,41.200 180.980,41.200 181.200 C 41.200 181.420,41.560 181.600,42.000 181.600 C 42.440 181.600,42.800 181.780,42.800 182.000 C 42.800 182.220,43.340 182.400,44.000 182.400 C 44.660 182.400,45.200 182.580,45.200 182.800 C 45.200 183.020,46.190 183.200,47.400 183.200 C 48.610 183.200,49.600 183.380,49.600 183.600 C 49.600 183.842,51.327 184.000,53.982 184.000 L 58.365 184.000 58.482 245.580 C 58.575 294.184,58.705 307.266,59.100 307.660 C 59.375 307.935,59.600 308.844,59.600 309.680 C 59.600 310.516,59.780 311.200,60.000 311.200 C 60.220 311.200,60.400 311.740,60.400 312.400 C 60.400 313.060,60.580 313.600,60.800 313.600 C 61.020 313.600,61.200 314.039,61.200 314.576 C 61.200 315.113,61.380 315.664,61.600 315.800 C 61.820 315.936,62.000 316.397,62.000 316.824 C 62.000 317.251,62.180 317.600,62.400 317.600 C 62.620 317.600,62.800 317.960,62.800 318.400 C 62.800 318.840,62.980 319.200,63.200 319.200 C 63.420 319.200,63.600 319.436,63.600 319.725 C 63.600 320.013,63.960 320.636,64.400 321.108 C 64.840 321.580,65.203 322.109,65.207 322.283 C 65.225 323.067,72.411 330.800,73.121 330.800 C 73.319 330.800,74.046 331.340,74.737 332.000 C 75.428 332.660,76.174 333.200,76.396 333.200 C 76.618 333.200,76.800 333.380,76.800 333.600 C 76.800 333.820,77.070 334.000,77.400 334.000 C 77.730 334.000,78.000 334.180,78.000 334.400 C 78.000 334.620,78.270 334.800,78.600 334.800 C 78.933 334.800,79.200 335.156,79.200 335.600 C 79.200 336.040,79.020 336.400,78.800 336.400 C 78.580 336.400,78.400 336.940,78.400 337.600 C 78.400 338.260,78.220 338.800,78.000 338.800 C 77.780 338.800,77.600 339.340,77.600 340.000 C 77.600 340.660,77.420 341.200,77.200 341.200 C 76.980 341.200,76.800 341.620,76.800 342.133 C 76.800 342.647,76.681 343.186,76.535 343.332 C 75.988 343.879,74.800 347.818,74.800 349.085 C 74.800 349.808,74.620 350.400,74.400 350.400 C 74.153 350.400,74.000 352.467,74.000 355.800 C 74.000 358.770,74.156 361.200,74.346 361.200 C 74.536 361.200,74.800 361.993,74.933 362.963 C 75.187 364.818,76.733 368.400,77.280 368.400 C 77.456 368.400,77.600 368.658,77.600 368.974 C 77.600 370.528,84.671 376.000,86.679 376.000 C 86.965 376.000,87.200 376.180,87.200 376.400 C 87.200 376.620,87.560 376.800,88.000 376.800 C 88.440 376.800,88.800 376.980,88.800 377.200 C 88.800 377.420,89.610 377.600,90.600 377.600 C 91.590 377.600,92.400 377.780,92.400 378.000 C 92.400 378.266,128.467 378.400,199.800 378.400 C 271.133 378.400,307.200 378.266,307.200 378.000 C 307.200 377.780,307.920 377.600,308.800 377.600 C 309.680 377.600,310.400 377.420,310.400 377.200 C 310.400 376.980,310.940 376.800,311.600 376.800 C 312.260 376.800,312.800 376.620,312.800 376.400 C 312.800 376.180,313.160 376.000,313.600 376.000 C 314.040 376.000,314.400 375.864,314.400 375.698 C 314.400 375.531,314.969 375.144,315.664 374.836 C 317.162 374.173,322.400 368.989,322.400 368.169 C 322.400 367.856,322.536 367.600,322.702 367.600 C 322.869 367.600,323.240 367.015,323.529 366.300 C 323.817 365.585,324.232 364.668,324.453 364.263 C 324.673 363.858,324.957 362.283,325.084 360.763 C 325.212 359.243,325.470 358.000,325.658 358.000 C 326.140 358.000,326.086 353.700,325.600 353.400 C 325.380 353.264,325.200 352.347,325.200 351.362 C 325.200 349.650,323.444 343.415,322.738 342.620 C 322.552 342.411,322.400 341.826,322.400 341.320 C 322.400 340.814,322.220 340.400,322.000 340.400 C 321.780 340.400,321.600 339.860,321.600 339.200 C 321.600 338.540,321.420 338.000,321.200 338.000 C 320.980 338.000,320.800 337.460,320.800 336.800 C 320.800 336.140,320.620 335.600,320.400 335.600 C 320.180 335.600,320.000 335.420,320.000 335.200 C 320.000 334.980,320.360 334.800,320.800 334.800 C 321.240 334.800,321.600 334.620,321.600 334.400 C 321.600 334.180,321.870 334.000,322.200 334.000 C 322.530 334.000,322.800 333.820,322.800 333.600 C 322.800 333.380,323.030 333.200,323.312 333.200 C 323.593 333.200,324.083 332.840,324.400 332.400 C 324.717 331.960,325.119 331.600,325.293 331.600 C 325.647 331.600,333.200 324.138,333.200 323.788 C 333.200 323.666,333.560 323.180,334.000 322.708 C 334.440 322.236,334.800 321.613,334.800 321.325 C 334.800 321.036,334.961 320.800,335.158 320.800 C 335.592 320.800,338.000 315.906,338.000 315.025 C 338.000 314.681,338.180 314.400,338.400 314.400 C 338.620 314.400,338.800 313.860,338.800 313.200 C 338.800 312.540,338.960 312.000,339.156 312.000 C 339.352 312.000,339.627 311.325,339.767 310.500 C 339.907 309.675,340.225 308.010,340.474 306.800 C 340.794 305.240,340.967 287.071,341.067 244.300 L 341.208 184.000 345.580 184.000 C 348.064 184.000,350.060 183.827,350.200 183.600 C 350.336 183.380,351.236 183.200,352.200 183.200 C 353.164 183.200,354.064 183.020,354.200 182.800 C 354.336 182.580,354.876 182.400,355.400 182.400 C 355.924 182.400,356.464 182.220,356.600 182.000 C 356.736 181.780,357.287 181.600,357.824 181.600 C 358.361 181.600,358.800 181.420,358.800 181.200 C 358.800 180.980,359.160 180.800,359.600 180.800 C 360.040 180.800,360.400 180.620,360.400 180.400 C 360.400 180.180,360.760 180.000,361.200 180.000 C 361.640 180.000,362.000 179.820,362.000 179.600 C 362.000 179.380,362.243 179.200,362.541 179.200 C 362.838 179.200,363.646 178.660,364.337 178.000 C 365.028 177.340,365.782 176.800,366.014 176.800 C 366.922 176.800,373.178 169.916,373.193 168.900 C 373.197 168.625,373.347 168.400,373.526 168.400 C 373.924 168.400,375.200 165.799,375.200 164.986 C 375.200 164.664,375.380 164.400,375.600 164.400 C 375.820 164.400,376.000 163.860,376.000 163.200 C 376.000 162.540,376.180 162.000,376.400 162.000 C 376.620 162.000,376.800 161.460,376.800 160.800 C 376.800 160.140,376.980 159.600,377.200 159.600 C 377.420 159.600,377.600 158.801,377.600 157.824 C 377.600 156.847,377.780 155.936,378.000 155.800 C 378.229 155.659,378.400 153.604,378.400 151.000 C 378.400 148.396,378.229 146.341,378.000 146.200 C 377.780 146.064,377.600 145.063,377.600 143.976 C 377.600 142.889,377.420 142.000,377.200 142.000 C 376.980 142.000,376.800 141.460,376.800 140.800 C 376.800 140.140,376.620 139.600,376.400 139.600 C 376.180 139.600,376.000 139.238,376.000 138.795 C 376.000 138.352,375.831 137.677,375.624 137.295 C 375.417 136.913,374.932 135.835,374.547 134.900 C 374.161 133.965,373.701 133.200,373.523 133.200 C 373.345 133.200,373.200 132.965,373.200 132.678 C 373.200 132.391,372.576 131.446,371.813 130.578 C 368.041 126.286,367.373 125.600,366.962 125.600 C 366.718 125.600,365.954 125.060,365.263 124.400 C 364.572 123.740,363.808 123.200,363.564 123.200 C 363.320 123.200,362.617 122.660,362.000 122.000 C 361.383 121.340,360.631 120.800,360.328 120.800 C 360.025 120.800,359.517 120.440,359.200 120.000 C 358.883 119.560,358.433 119.200,358.200 119.200 C 357.967 119.200,357.517 118.840,357.200 118.400 C 356.883 117.960,356.393 117.600,356.112 117.600 C 355.830 117.600,355.600 117.420,355.600 117.200 C 355.600 116.980,355.370 116.800,355.088 116.800 C 354.807 116.800,354.317 116.440,354.000 116.000 C 353.683 115.560,353.238 115.200,353.012 115.199 C 352.785 115.199,351.970 114.659,351.200 114.000 C 350.430 113.341,349.657 112.801,349.482 112.801 C 349.307 112.800,348.714 112.350,348.164 111.800 C 347.614 111.250,347.005 110.800,346.810 110.800 C 346.616 110.800,346.210 110.553,345.909 110.252 C 345.608 109.950,344.740 109.384,343.980 108.993 C 343.221 108.602,342.309 107.948,341.953 107.541 C 341.597 107.133,341.142 106.800,340.941 106.800 C 340.741 106.800,340.317 106.440,340.000 106.000 C 339.683 105.560,339.191 105.200,338.908 105.200 C 338.625 105.200,337.828 104.660,337.137 104.000 C 336.446 103.340,335.678 102.800,335.429 102.800 C 335.180 102.800,334.717 102.440,334.400 102.000 C 334.083 101.560,333.620 101.200,333.371 101.200 C 333.122 101.200,332.354 100.660,331.663 100.000 C 330.972 99.340,330.217 98.800,329.985 98.800 C 329.753 98.800,329.114 98.350,328.564 97.800 C 328.014 97.250,327.400 96.800,327.200 96.800 C 327.000 96.800,326.386 96.350,325.836 95.800 C 325.286 95.250,324.740 94.800,324.622 94.800 C 324.431 94.800,321.398 92.642,320.117 91.595 C 319.851 91.378,319.428 91.200,319.177 91.200 C 318.926 91.200,318.217 90.660,317.600 90.000 C 316.983 89.340,316.231 88.800,315.928 88.800 C 315.625 88.800,315.117 88.440,314.800 88.000 C 314.483 87.560,314.020 87.200,313.771 87.200 C 313.522 87.200,312.754 86.660,312.063 86.000 C 311.372 85.340,310.629 84.800,310.411 84.800 C 310.192 84.800,309.516 84.351,308.907 83.803 C 306.778 81.884,305.397 80.801,305.082 80.800 C 304.907 80.800,304.314 80.350,303.764 79.800 C 303.214 79.250,302.620 78.800,302.444 78.800 C 302.268 78.800,301.601 78.350,300.962 77.800 C 300.323 77.251,299.652 76.801,299.471 76.800 C 299.291 76.800,298.892 76.575,298.585 76.300 C 297.260 75.112,296.809 74.800,296.413 74.800 C 296.182 74.800,295.428 74.260,294.737 73.600 C 294.046 72.940,293.278 72.400,293.029 72.400 C 292.780 72.400,292.317 72.040,292.000 71.600 C 291.683 71.160,291.233 70.800,291.000 70.800 C 290.767 70.800,290.317 70.440,290.000 70.000 C 289.683 69.560,289.193 69.200,288.912 69.200 C 288.630 69.200,288.400 69.020,288.400 68.800 C 288.400 68.580,288.170 68.400,287.888 68.400 C 287.607 68.400,287.117 68.040,286.800 67.600 C 286.483 67.160,285.991 66.800,285.708 66.800 C 285.425 66.800,284.628 66.260,283.937 65.600 C 283.246 64.940,282.478 64.400,282.229 64.400 C 281.980 64.400,281.517 64.040,281.200 63.600 C 280.883 63.160,280.385 62.800,280.094 62.800 C 279.802 62.800,279.114 62.350,278.564 61.800 C 278.014 61.250,277.416 60.800,277.236 60.800 C 277.056 60.800,276.299 60.263,275.554 59.606 C 274.809 58.950,273.975 58.410,273.700 58.406 C 273.425 58.403,273.200 58.250,273.200 58.068 C 273.200 57.885,272.705 57.481,272.100 57.170 C 271.495 56.860,270.709 56.289,270.353 55.903 C 269.997 55.516,269.502 55.200,269.253 55.200 C 269.004 55.200,268.800 55.020,268.800 54.800 C 268.800 54.580,268.570 54.400,268.288 54.400 C 268.007 54.400,267.517 54.040,267.200 53.600 C 266.883 53.160,266.391 52.800,266.108 52.800 C 265.825 52.800,265.028 52.260,264.337 51.600 C 263.646 50.940,262.878 50.400,262.629 50.400 C 262.380 50.400,261.917 50.040,261.600 49.600 C 261.283 49.160,260.775 48.800,260.472 48.800 C 260.169 48.800,259.417 48.260,258.800 47.600 C 258.183 46.940,257.579 46.400,257.458 46.400 C 257.336 46.400,256.033 45.500,254.561 44.400 C 253.089 43.300,251.759 42.400,251.605 42.400 C 251.451 42.400,250.801 41.950,250.162 41.400 C 249.523 40.851,248.815 40.401,248.588 40.400 C 248.362 40.400,247.917 40.040,247.600 39.600 C 247.283 39.160,246.775 38.800,246.472 38.800 C 246.169 38.800,245.417 38.260,244.800 37.600 C 244.183 36.940,243.431 36.400,243.128 36.400 C 242.825 36.400,242.317 36.040,242.000 35.600 C 241.683 35.160,241.259 34.800,241.059 34.800 C 240.858 34.800,240.403 34.484,240.047 34.097 C 239.691 33.711,238.905 33.140,238.300 32.830 C 237.695 32.519,237.200 32.115,237.200 31.932 C 237.200 31.750,236.880 31.600,236.488 31.600 C 236.097 31.600,235.517 31.240,235.200 30.800 C 234.883 30.360,234.303 30.000,233.912 30.000 C 233.520 30.000,233.200 29.820,233.200 29.600 C 233.200 29.380,232.840 29.200,232.400 29.200 C 231.960 29.200,231.600 29.020,231.600 28.800 C 231.600 28.580,231.240 28.400,230.800 28.400 C 230.360 28.400,230.000 28.220,230.000 28.000 C 230.000 27.780,229.640 27.600,229.200 27.600 C 228.760 27.600,228.400 27.420,228.400 27.200 C 228.400 26.980,228.158 26.800,227.861 26.800 C 227.565 26.800,226.772 26.525,226.099 26.189 C 225.425 25.853,223.958 25.361,222.837 25.095 C 221.717 24.828,220.800 24.473,220.800 24.305 C 220.800 24.137,220.080 24.000,219.200 24.000 C 218.320 24.000,217.600 23.820,217.600 23.600 C 217.600 23.380,216.981 23.200,216.224 23.200 C 215.467 23.200,214.736 23.020,214.600 22.800 C 214.464 22.580,213.463 22.400,212.376 22.400 C 211.289 22.400,210.400 22.220,210.400 22.000 C 210.400 21.755,208.475 21.600,205.424 21.600 C 202.537 21.600,200.343 21.432,200.200 21.200 C 200.064 20.980,199.794 20.800,199.600 20.800 C 199.406 20.800,199.136 20.980,199.000 21.200 M200.600 28.800 C 200.739 29.025,202.671 29.200,205.024 29.200 C 207.541 29.200,209.200 29.359,209.200 29.600 C 209.200 29.820,209.999 30.000,210.976 30.000 C 211.953 30.000,212.864 30.180,213.000 30.400 C 213.136 30.620,213.867 30.800,214.624 30.800 C 215.381 30.800,216.000 30.980,216.000 31.200 C 216.000 31.420,216.540 31.600,217.200 31.600 C 217.860 31.600,218.400 31.780,218.400 32.000 C 218.400 32.220,218.940 32.400,219.600 32.400 C 220.260 32.400,220.800 32.547,220.800 32.728 C 220.800 32.908,221.700 33.300,222.800 33.600 C 223.900 33.900,224.800 34.258,224.800 34.398 C 224.800 34.537,225.430 34.898,226.200 35.200 C 226.970 35.502,227.600 35.896,227.600 36.075 C 227.600 36.254,227.878 36.400,228.217 36.400 C 228.556 36.400,229.220 36.760,229.692 37.200 C 230.164 37.640,230.787 38.000,231.075 38.000 C 231.364 38.000,231.600 38.158,231.600 38.351 C 231.600 38.545,232.140 38.927,232.800 39.200 C 233.460 39.473,234.000 39.828,234.000 39.988 C 234.000 40.148,234.720 40.603,235.600 41.000 C 236.480 41.397,237.200 41.874,237.200 42.061 C 237.200 42.247,237.443 42.400,237.741 42.400 C 238.038 42.400,238.846 42.940,239.537 43.600 C 240.228 44.260,240.966 44.800,241.178 44.800 C 241.390 44.800,241.999 45.205,242.532 45.700 C 244.813 47.820,246.039 48.800,246.411 48.800 C 246.629 48.800,247.372 49.340,248.063 50.000 C 248.754 50.660,249.522 51.200,249.771 51.200 C 250.020 51.200,250.483 51.560,250.800 52.000 C 251.117 52.440,251.609 52.800,251.892 52.800 C 252.175 52.800,252.972 53.340,253.663 54.000 C 254.354 54.660,255.122 55.200,255.371 55.200 C 255.620 55.200,256.083 55.560,256.400 56.000 C 256.717 56.440,257.145 56.800,257.351 56.800 C 257.556 56.800,258.314 57.250,259.036 57.800 C 259.757 58.350,260.499 58.800,260.685 58.800 C 260.871 58.800,261.283 59.160,261.600 59.600 C 261.917 60.040,262.407 60.400,262.688 60.400 C 262.970 60.400,263.200 60.580,263.200 60.800 C 263.200 61.020,263.430 61.200,263.712 61.200 C 263.993 61.200,264.483 61.560,264.800 62.000 C 265.117 62.440,265.609 62.800,265.892 62.800 C 266.175 62.800,266.972 63.340,267.663 64.000 C 268.354 64.660,269.122 65.200,269.371 65.200 C 269.620 65.200,270.083 65.560,270.400 66.000 C 270.717 66.440,271.225 66.800,271.528 66.800 C 271.831 66.800,272.556 67.295,273.140 67.900 C 273.723 68.505,274.695 69.255,275.300 69.568 C 275.905 69.880,276.400 70.285,276.400 70.468 C 276.400 70.650,276.670 70.800,277.000 70.800 C 277.330 70.800,277.601 70.935,277.603 71.100 C 277.604 71.265,278.279 71.848,279.103 72.396 C 279.926 72.944,280.690 73.498,280.800 73.627 C 280.910 73.755,281.630 74.207,282.400 74.630 C 283.170 75.054,284.091 75.715,284.447 76.100 C 284.803 76.485,285.316 76.800,285.586 76.800 C 285.857 76.800,286.583 77.340,287.200 78.000 C 287.817 78.660,288.569 79.200,288.872 79.200 C 289.175 79.200,289.683 79.560,290.000 80.000 C 290.317 80.440,290.805 80.800,291.085 80.800 C 291.364 80.800,292.109 81.340,292.740 82.000 C 293.371 82.660,294.052 83.200,294.255 83.200 C 294.458 83.200,294.883 83.560,295.200 84.000 C 295.517 84.440,296.009 84.800,296.292 84.800 C 296.575 84.800,297.372 85.340,298.063 86.000 C 298.754 86.660,299.522 87.200,299.771 87.200 C 300.020 87.200,300.483 87.560,300.800 88.000 C 301.117 88.440,301.573 88.800,301.813 88.800 C 302.053 88.800,302.615 89.141,303.062 89.557 C 303.509 89.974,304.488 90.631,305.238 91.017 C 305.987 91.403,306.891 92.052,307.247 92.459 C 307.603 92.867,308.098 93.200,308.347 93.200 C 308.596 93.200,308.800 93.350,308.800 93.532 C 308.800 93.715,309.292 94.120,309.893 94.432 C 310.494 94.745,311.511 95.495,312.152 96.100 C 312.794 96.705,313.522 97.200,313.771 97.200 C 314.020 97.200,314.483 97.560,314.800 98.000 C 315.117 98.440,315.580 98.800,315.829 98.800 C 316.078 98.800,316.846 99.340,317.537 100.000 C 318.228 100.660,318.983 101.200,319.215 101.200 C 319.447 101.200,320.086 101.650,320.636 102.200 C 321.186 102.750,321.800 103.200,322.000 103.200 C 322.200 103.200,322.787 103.605,323.305 104.100 C 323.823 104.595,324.525 105.180,324.864 105.400 C 327.939 107.395,329.019 108.169,329.133 108.460 C 329.207 108.647,329.539 108.800,329.873 108.800 C 330.206 108.800,330.983 109.340,331.600 110.000 C 332.217 110.660,332.969 111.200,333.272 111.200 C 333.575 111.200,334.083 111.560,334.400 112.000 C 334.717 112.440,335.180 112.800,335.429 112.800 C 335.678 112.800,336.446 113.340,337.137 114.000 C 337.828 114.660,338.583 115.200,338.815 115.200 C 339.047 115.200,339.673 115.637,340.207 116.171 C 340.741 116.705,341.723 117.464,342.389 117.857 C 343.055 118.251,343.600 118.714,343.600 118.886 C 343.600 119.059,343.830 119.200,344.112 119.200 C 344.393 119.200,344.883 119.560,345.200 120.000 C 345.517 120.440,345.962 120.800,346.188 120.801 C 346.415 120.801,347.230 121.341,348.000 122.000 C 348.770 122.659,349.543 123.199,349.717 123.199 C 350.017 123.200,350.517 123.563,351.785 124.700 C 352.092 124.975,352.586 125.200,352.883 125.200 C 353.180 125.200,353.683 125.560,354.000 126.000 C 354.317 126.440,354.780 126.800,355.029 126.800 C 355.278 126.800,356.046 127.340,356.737 128.000 C 357.428 128.660,358.097 129.200,358.225 129.200 C 358.353 129.200,358.694 129.425,358.984 129.700 C 359.959 130.625,361.207 131.600,361.418 131.600 C 361.775 131.600,364.400 134.353,364.400 134.727 C 364.400 134.922,364.940 135.646,365.600 136.337 C 366.260 137.028,366.800 137.864,366.800 138.196 C 366.800 138.528,366.946 138.800,367.125 138.800 C 367.304 138.800,367.698 139.430,368.000 140.200 C 368.302 140.970,368.696 141.600,368.875 141.600 C 369.054 141.600,369.200 142.140,369.200 142.800 C 369.200 143.460,369.380 144.000,369.600 144.000 C 369.820 144.000,370.000 144.720,370.000 145.600 C 370.000 146.480,370.180 147.200,370.400 147.200 C 370.637 147.200,370.800 148.667,370.800 150.800 C 370.800 152.933,370.637 154.400,370.400 154.400 C 370.180 154.400,370.000 155.120,370.000 156.000 C 370.000 156.880,369.820 157.600,369.600 157.600 C 369.380 157.600,369.200 158.039,369.200 158.576 C 369.200 159.113,369.020 159.664,368.800 159.800 C 368.580 159.936,368.400 160.397,368.400 160.824 C 368.400 161.251,368.264 161.600,368.098 161.600 C 367.931 161.600,367.536 162.185,367.220 162.900 C 366.903 163.615,366.320 164.549,365.922 164.975 C 365.525 165.402,365.200 165.901,365.200 166.084 C 365.200 166.452,360.952 170.800,360.592 170.800 C 360.468 170.800,359.980 171.160,359.508 171.600 C 359.036 172.040,358.413 172.400,358.125 172.400 C 357.836 172.400,357.600 172.580,357.600 172.800 C 357.600 173.020,357.240 173.200,356.800 173.200 C 356.360 173.200,356.000 173.380,356.000 173.600 C 356.000 173.820,355.640 174.000,355.200 174.000 C 354.760 174.000,354.400 174.143,354.400 174.319 C 354.400 174.922,348.995 175.749,345.200 175.727 C 341.348 175.705,336.400 174.916,336.400 174.324 C 336.400 174.146,336.040 174.000,335.600 174.000 C 335.160 174.000,334.800 173.820,334.800 173.600 C 334.800 173.380,334.440 173.200,334.000 173.200 C 333.560 173.200,333.200 173.020,333.200 172.800 C 333.200 172.580,332.928 172.400,332.596 172.400 C 332.264 172.400,331.428 171.860,330.737 171.200 C 330.046 170.540,329.278 170.000,329.029 170.000 C 328.780 170.000,328.317 169.640,328.000 169.200 C 327.683 168.760,327.196 168.400,326.919 168.400 C 326.641 168.400,325.916 167.951,325.307 167.403 C 323.204 165.508,321.799 164.401,321.496 164.400 C 321.329 164.400,320.628 163.860,319.937 163.200 C 319.246 162.540,318.478 162.000,318.229 162.000 C 317.980 162.000,317.517 161.640,317.200 161.200 C 316.883 160.760,316.385 160.400,316.094 160.400 C 315.803 160.400,315.080 159.950,314.487 159.400 C 313.893 158.850,313.180 158.400,312.900 158.400 C 312.621 158.400,311.828 157.860,311.137 157.200 C 310.446 156.540,309.678 156.000,309.429 156.000 C 309.180 156.000,308.717 155.640,308.400 155.200 C 308.083 154.760,307.633 154.400,307.400 154.400 C 307.167 154.400,306.717 154.040,306.400 153.600 C 306.083 153.160,305.593 152.800,305.312 152.800 C 305.030 152.800,304.800 152.620,304.800 152.400 C 304.800 152.180,304.570 152.000,304.288 152.000 C 304.007 152.000,303.517 151.640,303.200 151.200 C 302.883 150.760,302.391 150.400,302.108 150.400 C 301.825 150.400,301.028 149.860,300.337 149.200 C 299.646 148.540,298.878 148.000,298.629 148.000 C 298.380 148.000,297.917 147.640,297.600 147.200 C 297.283 146.760,296.791 146.400,296.508 146.400 C 296.225 146.400,295.428 145.860,294.737 145.200 C 294.046 144.540,293.320 144.000,293.122 144.000 C 292.925 144.000,292.314 143.550,291.764 143.000 C 291.214 142.450,290.542 142.000,290.270 142.000 C 289.999 142.000,289.517 141.640,289.200 141.200 C 288.883 140.760,288.391 140.400,288.108 140.400 C 287.825 140.400,287.028 139.860,286.337 139.200 C 285.646 138.540,284.878 138.000,284.629 138.000 C 284.380 138.000,283.917 137.640,283.600 137.200 C 283.283 136.760,282.775 136.400,282.472 136.400 C 282.169 136.400,281.417 135.860,280.800 135.200 C 280.183 134.540,279.431 134.000,279.128 134.000 C 278.825 134.000,278.317 133.640,278.000 133.200 C 277.683 132.760,277.175 132.400,276.872 132.400 C 276.569 132.400,275.817 131.860,275.200 131.200 C 274.583 130.540,273.881 130.000,273.640 130.000 C 273.398 130.000,273.200 129.859,273.200 129.686 C 273.200 129.514,272.667 129.057,272.015 128.672 C 271.363 128.287,270.589 127.732,270.295 127.438 C 270.001 127.144,269.230 126.626,268.580 126.286 C 267.931 125.946,267.003 125.293,266.517 124.834 C 266.031 124.375,265.396 124.000,265.105 124.000 C 264.814 124.000,264.317 123.640,264.000 123.200 C 263.683 122.760,263.175 122.400,262.872 122.400 C 262.569 122.400,261.817 121.860,261.200 121.200 C 260.583 120.540,259.831 120.000,259.528 120.000 C 259.225 120.000,258.717 119.640,258.400 119.200 C 258.083 118.760,257.681 118.400,257.508 118.400 C 257.335 118.400,256.628 117.860,255.937 117.200 C 255.246 116.540,254.478 116.000,254.229 116.000 C 253.980 116.000,253.517 115.640,253.200 115.200 C 252.883 114.760,252.420 114.400,252.171 114.400 C 251.922 114.400,251.154 113.860,250.463 113.200 C 249.772 112.540,249.017 112.000,248.785 112.000 C 248.553 112.000,247.914 111.550,247.364 111.000 C 246.814 110.450,246.219 110.000,246.043 110.000 C 245.867 110.000,245.307 109.640,244.800 109.200 C 244.293 108.760,243.617 108.400,243.299 108.400 C 242.981 108.400,242.217 107.860,241.600 107.200 C 240.983 106.540,240.321 106.000,240.128 106.000 C 239.935 106.000,239.517 105.640,239.200 105.200 C 238.883 104.760,238.375 104.400,238.072 104.400 C 237.769 104.400,237.017 103.860,236.400 103.200 C 235.783 102.540,235.031 102.000,234.728 102.000 C 234.425 102.000,233.917 101.640,233.600 101.200 C 233.283 100.760,232.820 100.400,232.571 100.400 C 232.322 100.400,231.554 99.860,230.863 99.200 C 230.172 98.540,229.417 98.000,229.185 98.000 C 228.953 98.000,228.314 97.550,227.764 97.000 C 227.214 96.450,226.600 96.000,226.400 96.000 C 226.200 96.000,225.586 95.550,225.036 95.000 C 224.486 94.450,223.876 94.000,223.680 94.000 C 223.484 94.000,222.991 93.632,222.583 93.181 C 222.176 92.731,221.248 92.081,220.521 91.736 C 219.794 91.391,219.200 90.949,219.200 90.754 C 219.200 90.559,218.912 90.400,218.560 90.400 C 218.209 90.400,217.417 89.860,216.800 89.200 C 216.183 88.540,215.480 88.000,215.236 88.000 C 214.992 88.000,214.228 87.460,213.537 86.800 C 212.846 86.140,212.078 85.600,211.829 85.600 C 211.580 85.600,211.117 85.240,210.800 84.800 C 210.483 84.360,209.985 84.000,209.694 84.000 C 209.402 84.000,208.744 83.595,208.232 83.100 C 206.707 81.626,205.616 80.800,205.195 80.800 C 204.978 80.800,204.800 80.620,204.800 80.400 C 204.800 80.180,204.350 80.000,203.800 80.000 C 203.250 80.000,202.800 79.820,202.800 79.600 C 202.800 79.369,201.541 79.200,199.824 79.200 C 198.187 79.200,196.736 79.380,196.600 79.600 C 196.464 79.820,196.003 80.000,195.576 80.000 C 195.149 80.000,194.800 80.180,194.800 80.400 C 194.800 80.620,194.575 80.800,194.300 80.800 C 193.820 80.801,192.661 81.669,190.293 83.803 C 189.684 84.351,188.959 84.800,188.681 84.800 C 188.404 84.800,187.917 85.160,187.600 85.600 C 187.283 86.040,186.820 86.400,186.571 86.400 C 186.322 86.400,185.554 86.940,184.863 87.600 C 184.172 88.260,183.408 88.800,183.164 88.800 C 182.920 88.800,182.217 89.340,181.600 90.000 C 180.983 90.660,180.274 91.200,180.023 91.200 C 179.772 91.200,179.349 91.378,179.083 91.595 C 177.802 92.642,174.769 94.800,174.578 94.800 C 174.460 94.800,173.914 95.250,173.364 95.800 C 172.814 96.350,172.200 96.800,172.000 96.800 C 171.800 96.800,171.186 97.250,170.636 97.800 C 170.086 98.350,169.447 98.800,169.215 98.800 C 168.983 98.800,168.228 99.340,167.537 100.000 C 166.846 100.660,166.078 101.200,165.829 101.200 C 165.580 101.200,165.117 101.560,164.800 102.000 C 164.483 102.440,163.975 102.800,163.672 102.800 C 163.369 102.800,162.617 103.340,162.000 104.000 C 161.383 104.660,160.631 105.200,160.328 105.200 C 160.025 105.200,159.517 105.560,159.200 106.000 C 158.883 106.440,158.459 106.800,158.259 106.800 C 158.058 106.800,157.603 107.133,157.247 107.541 C 156.891 107.948,155.987 108.597,155.238 108.983 C 154.488 109.369,153.509 110.026,153.062 110.443 C 152.615 110.859,152.053 111.200,151.813 111.200 C 151.573 111.200,151.117 111.560,150.800 112.000 C 150.483 112.440,149.991 112.800,149.708 112.800 C 149.425 112.800,148.628 113.340,147.937 114.000 C 147.246 114.660,146.504 115.200,146.288 115.200 C 146.071 115.200,145.603 115.516,145.247 115.903 C 144.891 116.289,144.108 116.858,143.507 117.167 C 142.905 117.475,142.308 118.059,142.180 118.464 C 142.051 118.869,141.638 119.200,141.261 119.200 C 140.885 119.200,140.317 119.560,140.000 120.000 C 139.683 120.440,139.175 120.800,138.872 120.800 C 138.569 120.800,137.817 121.340,137.200 122.000 C 136.583 122.660,135.857 123.200,135.586 123.200 C 135.316 123.200,134.803 123.517,134.447 123.906 C 134.091 124.294,133.125 124.964,132.300 125.396 C 131.475 125.828,130.800 126.321,130.800 126.491 C 130.800 126.661,130.564 126.800,130.275 126.800 C 129.987 126.800,129.396 127.115,128.962 127.500 C 127.472 128.821,124.847 130.800,124.584 130.800 C 124.439 130.800,123.817 131.340,123.200 132.000 C 122.583 132.660,121.831 133.200,121.528 133.200 C 121.225 133.200,120.717 133.560,120.400 134.000 C 120.083 134.440,119.575 134.800,119.272 134.800 C 118.969 134.800,118.217 135.340,117.600 136.000 C 116.983 136.660,116.231 137.200,115.928 137.200 C 115.625 137.200,115.117 137.560,114.800 138.000 C 114.483 138.440,114.020 138.800,113.771 138.800 C 113.522 138.800,112.754 139.340,112.063 140.000 C 111.372 140.660,110.712 141.200,110.595 141.200 C 110.204 141.200,107.007 143.381,106.353 144.094 C 105.997 144.482,105.484 144.800,105.214 144.800 C 104.943 144.800,104.217 145.340,103.600 146.000 C 102.983 146.660,102.231 147.200,101.928 147.200 C 101.625 147.200,101.117 147.560,100.800 148.000 C 100.483 148.440,100.020 148.800,99.771 148.800 C 99.522 148.800,98.754 149.340,98.063 150.000 C 97.372 150.660,96.624 151.200,96.400 151.200 C 96.176 151.200,95.428 151.740,94.737 152.400 C 94.046 153.060,93.250 153.600,92.968 153.600 C 92.685 153.600,92.340 153.960,92.200 154.400 C 92.060 154.840,91.638 155.200,91.261 155.200 C 90.885 155.200,90.317 155.560,90.000 156.000 C 89.683 156.440,89.227 156.800,88.987 156.800 C 88.747 156.800,88.185 157.141,87.738 157.557 C 87.291 157.974,86.312 158.631,85.562 159.017 C 84.813 159.403,83.909 160.052,83.553 160.459 C 83.197 160.867,82.652 161.200,82.341 161.200 C 82.031 161.200,81.517 161.560,81.200 162.000 C 80.883 162.440,80.420 162.800,80.171 162.800 C 79.922 162.800,79.154 163.340,78.463 164.000 C 77.772 164.660,77.105 165.200,76.980 165.200 C 76.671 165.200,73.556 167.632,72.753 168.500 C 72.397 168.885,71.878 169.200,71.600 169.200 C 71.322 169.200,70.803 169.516,70.447 169.903 C 70.091 170.289,69.305 170.860,68.700 171.170 C 68.095 171.481,67.600 171.885,67.600 172.068 C 67.600 172.250,67.322 172.400,66.983 172.400 C 66.644 172.400,65.980 172.760,65.508 173.200 C 65.036 173.640,64.233 174.000,63.725 174.000 C 63.216 174.000,62.800 174.148,62.800 174.329 C 62.800 174.960,57.774 175.762,54.000 175.734 C 50.030 175.704,44.800 174.908,44.800 174.334 C 44.800 174.150,44.440 174.000,44.000 174.000 C 43.560 174.000,43.200 173.820,43.200 173.600 C 43.200 173.380,42.840 173.200,42.400 173.200 C 41.960 173.200,41.600 173.020,41.600 172.800 C 41.600 172.580,41.423 172.400,41.207 172.400 C 40.161 172.400,34.014 166.151,32.832 163.888 C 32.520 163.289,32.115 162.800,31.932 162.800 C 31.750 162.800,31.600 162.440,31.600 162.000 C 31.600 161.560,31.420 161.200,31.200 161.200 C 30.980 161.200,30.800 160.750,30.800 160.200 C 30.800 159.650,30.620 159.200,30.400 159.200 C 30.180 159.200,30.000 158.660,30.000 158.000 C 30.000 157.340,29.820 156.800,29.600 156.800 C 29.376 156.800,29.200 155.693,29.200 154.280 C 29.200 152.853,28.992 151.552,28.720 151.280 C 28.347 150.907,28.347 150.693,28.720 150.320 C 28.992 150.048,29.200 148.747,29.200 147.320 C 29.200 145.907,29.376 144.800,29.600 144.800 C 29.820 144.800,30.000 144.260,30.000 143.600 C 30.000 142.940,30.180 142.400,30.400 142.400 C 30.620 142.400,30.800 142.166,30.800 141.880 C 30.800 141.144,31.741 139.207,32.100 139.203 C 32.265 139.201,32.400 138.930,32.400 138.600 C 32.400 138.270,32.580 138.000,32.800 138.000 C 33.020 138.000,33.200 137.721,33.200 137.379 C 33.200 136.752,39.695 130.000,40.298 130.000 C 40.477 130.000,40.883 129.640,41.200 129.200 C 41.517 128.760,41.980 128.400,42.229 128.400 C 42.478 128.400,43.246 127.860,43.937 127.200 C 44.628 126.540,45.382 126.000,45.613 126.000 C 45.844 126.000,46.431 125.625,46.917 125.166 C 47.403 124.707,48.331 124.054,48.980 123.714 C 49.630 123.374,50.408 122.850,50.709 122.548 C 51.010 122.247,51.416 122.000,51.610 122.000 C 51.805 122.000,52.414 121.550,52.964 121.000 C 53.514 120.450,54.107 120.000,54.282 120.000 C 54.597 119.999,55.978 118.916,58.107 116.997 C 58.716 116.449,59.441 116.000,59.719 116.000 C 59.996 116.000,60.483 115.640,60.800 115.200 C 61.117 114.760,61.580 114.400,61.829 114.400 C 62.078 114.400,62.846 113.860,63.537 113.200 C 64.228 112.540,64.992 112.000,65.236 112.000 C 65.480 112.000,66.183 111.460,66.800 110.800 C 67.417 110.140,68.169 109.600,68.472 109.600 C 68.775 109.600,69.283 109.240,69.600 108.800 C 69.917 108.360,70.393 108.000,70.658 108.000 C 70.922 108.000,71.673 107.550,72.327 107.000 C 72.981 106.450,73.633 106.000,73.776 106.000 C 73.919 106.000,74.486 105.550,75.036 105.000 C 75.586 104.450,76.200 104.000,76.400 104.000 C 76.600 104.000,77.214 103.550,77.764 103.000 C 78.314 102.450,78.953 102.000,79.185 102.000 C 79.417 102.000,80.172 101.460,80.863 100.800 C 81.554 100.140,82.322 99.600,82.571 99.600 C 82.820 99.600,83.283 99.240,83.600 98.800 C 83.917 98.360,84.380 98.000,84.629 98.000 C 84.878 98.000,85.646 97.460,86.337 96.800 C 87.028 96.140,87.825 95.600,88.108 95.600 C 88.391 95.600,88.883 95.240,89.200 94.800 C 89.517 94.360,89.935 94.000,90.128 94.000 C 90.321 94.000,90.983 93.460,91.600 92.800 C 92.217 92.140,92.911 91.600,93.143 91.600 C 93.662 91.600,96.287 89.917,97.486 88.814 C 97.973 88.366,98.513 88.000,98.686 87.999 C 98.859 87.999,99.630 87.459,100.400 86.800 C 101.170 86.141,101.985 85.601,102.212 85.601 C 102.438 85.600,102.883 85.240,103.200 84.800 C 103.517 84.360,103.980 84.000,104.229 84.000 C 104.478 84.000,105.246 83.460,105.937 82.800 C 106.628 82.140,107.335 81.600,107.508 81.600 C 107.681 81.600,108.083 81.240,108.400 80.800 C 108.717 80.360,109.225 80.000,109.528 80.000 C 109.831 80.000,110.583 79.460,111.200 78.800 C 111.817 78.140,112.569 77.600,112.872 77.600 C 113.175 77.600,113.683 77.240,114.000 76.800 C 114.317 76.360,114.724 76.000,114.903 76.000 C 115.334 76.000,122.961 70.738,123.133 70.322 C 123.207 70.145,123.449 70.000,123.673 70.000 C 123.896 70.000,124.583 69.460,125.200 68.800 C 125.817 68.140,126.569 67.600,126.872 67.600 C 127.175 67.600,127.683 67.240,128.000 66.800 C 128.317 66.360,128.780 66.000,129.029 66.000 C 129.278 66.000,130.046 65.460,130.737 64.800 C 131.428 64.140,132.225 63.600,132.508 63.600 C 132.791 63.600,133.283 63.240,133.600 62.800 C 133.917 62.360,134.380 62.000,134.629 62.000 C 134.878 62.000,135.606 61.505,136.248 60.900 C 136.889 60.295,137.906 59.545,138.507 59.232 C 139.108 58.920,139.600 58.515,139.600 58.332 C 139.600 58.150,139.825 57.997,140.100 57.994 C 140.375 57.990,141.209 57.450,141.954 56.794 C 142.699 56.137,143.456 55.600,143.636 55.600 C 143.816 55.600,144.414 55.150,144.964 54.600 C 145.514 54.050,146.202 53.600,146.494 53.600 C 146.785 53.600,147.283 53.240,147.600 52.800 C 147.917 52.360,148.380 52.000,148.629 52.000 C 148.878 52.000,149.646 51.460,150.337 50.800 C 151.028 50.140,151.825 49.600,152.108 49.600 C 152.391 49.600,152.883 49.240,153.200 48.800 C 153.517 48.360,154.007 48.000,154.288 48.000 C 154.570 48.000,154.800 47.820,154.800 47.600 C 154.800 47.380,155.030 47.200,155.312 47.200 C 155.593 47.200,156.083 46.840,156.400 46.400 C 156.717 45.960,157.167 45.600,157.400 45.600 C 157.633 45.600,158.083 45.240,158.400 44.800 C 158.717 44.360,159.180 44.000,159.429 44.000 C 159.678 44.000,160.446 43.460,161.137 42.800 C 161.828 42.140,162.621 41.600,162.900 41.600 C 163.180 41.600,163.893 41.150,164.487 40.600 C 165.080 40.050,165.760 39.600,165.999 39.600 C 166.238 39.600,166.820 39.240,167.292 38.800 C 167.764 38.360,168.387 38.000,168.675 38.000 C 168.964 38.000,169.200 37.864,169.200 37.698 C 169.200 37.531,169.785 37.141,170.500 36.830 C 171.215 36.519,171.890 36.160,172.000 36.032 C 172.406 35.560,174.008 34.800,174.595 34.800 C 174.928 34.800,175.200 34.620,175.200 34.400 C 175.200 34.180,175.560 34.000,176.000 34.000 C 176.440 34.000,176.800 33.853,176.800 33.672 C 176.800 33.492,177.700 33.100,178.800 32.800 C 179.900 32.500,180.800 32.108,180.800 31.928 C 180.800 31.747,181.419 31.600,182.176 31.600 C 182.933 31.600,183.664 31.420,183.800 31.200 C 183.936 30.980,184.577 30.800,185.224 30.800 C 185.871 30.800,186.400 30.620,186.400 30.400 C 186.400 30.180,187.199 30.000,188.176 30.000 C 189.153 30.000,190.064 29.820,190.200 29.600 C 190.339 29.375,192.271 29.200,194.624 29.200 C 197.141 29.200,198.800 29.041,198.800 28.800 C 198.800 28.580,199.149 28.400,199.576 28.400 C 200.003 28.400,200.464 28.580,200.600 28.800 M200.400 87.551 C 200.400 87.745,200.940 88.127,201.600 88.400 C 202.260 88.673,202.800 89.025,202.800 89.181 C 202.800 89.337,203.295 89.720,203.900 90.032 C 205.019 90.610,205.588 91.006,206.585 91.900 C 206.892 92.175,207.382 92.400,207.675 92.400 C 207.968 92.400,208.432 92.760,208.707 93.200 C 208.982 93.640,209.403 94.000,209.643 94.000 C 209.883 94.000,210.583 94.540,211.200 95.200 C 211.817 95.860,212.569 96.400,212.872 96.400 C 213.175 96.400,213.683 96.760,214.000 97.200 C 214.317 97.640,214.780 98.000,215.029 98.000 C 215.278 98.000,216.046 98.540,216.737 99.200 C 217.428 99.860,218.176 100.400,218.400 100.400 C 218.624 100.400,219.372 100.940,220.063 101.600 C 220.754 102.260,221.522 102.800,221.771 102.800 C 222.020 102.800,222.483 103.160,222.800 103.600 C 223.117 104.040,223.631 104.400,223.941 104.400 C 224.252 104.400,224.797 104.717,225.153 105.104 C 226.057 106.089,228.672 108.000,229.114 108.000 C 229.316 108.000,230.046 108.540,230.737 109.200 C 231.428 109.860,232.176 110.400,232.400 110.400 C 232.624 110.400,233.372 110.940,234.063 111.600 C 234.754 112.260,235.522 112.800,235.771 112.800 C 236.020 112.800,236.483 113.160,236.800 113.600 C 237.117 114.040,237.625 114.400,237.928 114.400 C 238.231 114.400,238.983 114.940,239.600 115.600 C 240.217 116.260,240.965 116.800,241.264 116.800 C 241.563 116.800,242.032 117.160,242.307 117.600 C 242.582 118.040,242.987 118.400,243.207 118.400 C 243.427 118.400,244.172 118.940,244.863 119.600 C 245.554 120.260,246.322 120.800,246.571 120.800 C 246.820 120.800,247.283 121.160,247.600 121.600 C 247.917 122.040,248.431 122.400,248.741 122.400 C 249.052 122.400,249.597 122.733,249.953 123.141 C 250.309 123.548,251.213 124.197,251.962 124.583 C 252.712 124.969,253.691 125.626,254.138 126.043 C 254.585 126.459,255.147 126.800,255.387 126.800 C 255.627 126.800,256.083 127.160,256.400 127.600 C 256.717 128.040,257.205 128.400,257.485 128.400 C 257.764 128.400,258.509 128.940,259.140 129.600 C 259.771 130.260,260.452 130.800,260.655 130.800 C 260.858 130.800,261.283 131.160,261.600 131.600 C 261.917 132.040,262.409 132.400,262.692 132.400 C 262.975 132.400,263.772 132.940,264.463 133.600 C 265.154 134.260,265.922 134.800,266.171 134.800 C 266.420 134.800,266.883 135.160,267.200 135.600 C 267.517 136.040,268.025 136.400,268.328 136.400 C 268.631 136.400,269.383 136.940,270.000 137.600 C 270.617 138.260,271.343 138.800,271.614 138.800 C 271.884 138.800,272.397 139.118,272.753 139.506 C 273.407 140.219,276.604 142.400,276.995 142.400 C 277.112 142.400,277.772 142.940,278.463 143.600 C 279.154 144.260,279.922 144.800,280.171 144.800 C 280.420 144.800,280.883 145.160,281.200 145.600 C 281.517 146.040,282.025 146.400,282.328 146.400 C 282.631 146.400,283.383 146.940,284.000 147.600 C 284.617 148.260,285.369 148.800,285.672 148.800 C 285.975 148.800,286.483 149.160,286.800 149.600 C 287.117 150.040,287.625 150.400,287.928 150.400 C 288.231 150.400,288.983 150.940,289.600 151.600 C 290.217 152.260,290.911 152.800,291.142 152.800 C 291.374 152.800,291.988 153.205,292.506 153.700 C 293.944 155.074,296.162 156.785,296.517 156.793 C 296.818 156.800,297.323 157.168,298.585 158.300 C 298.892 158.575,299.386 158.800,299.683 158.800 C 299.980 158.800,300.483 159.160,300.800 159.600 C 301.117 160.040,301.625 160.400,301.928 160.400 C 302.231 160.400,302.983 160.940,303.600 161.600 C 304.217 162.260,304.969 162.800,305.272 162.800 C 305.575 162.800,306.083 163.160,306.400 163.600 C 306.717 164.040,307.218 164.400,307.514 164.400 C 307.810 164.400,308.506 164.940,309.061 165.600 C 309.617 166.260,310.285 166.800,310.547 166.800 C 310.809 166.800,311.283 167.160,311.600 167.600 C 311.917 168.040,312.380 168.400,312.629 168.400 C 312.878 168.400,313.646 168.940,314.337 169.600 C 315.028 170.260,315.783 170.800,316.015 170.800 C 316.247 170.800,316.886 171.250,317.436 171.800 C 317.986 172.350,318.595 172.800,318.790 172.800 C 318.984 172.800,319.390 173.047,319.691 173.348 C 319.992 173.650,320.860 174.216,321.620 174.607 C 322.379 174.998,323.291 175.652,323.647 176.059 C 324.003 176.467,324.498 176.800,324.747 176.800 C 324.996 176.800,325.200 176.950,325.200 177.132 C 325.200 177.315,325.695 177.720,326.300 178.032 C 326.905 178.345,327.749 178.915,328.175 179.300 C 328.602 179.685,329.187 180.000,329.475 180.000 C 329.764 180.000,330.000 180.180,330.000 180.400 C 330.000 180.620,330.234 180.800,330.520 180.800 C 330.806 180.800,331.525 181.025,332.117 181.300 L 333.194 181.800 333.197 242.676 C 333.199 282.833,333.064 303.637,332.800 303.800 C 332.580 303.936,332.400 304.847,332.400 305.824 C 332.400 306.801,332.220 307.600,332.000 307.600 C 331.780 307.600,331.600 308.052,331.600 308.605 C 331.600 309.158,331.440 309.923,331.244 310.305 C 331.048 310.687,330.463 311.900,329.944 313.000 C 329.425 314.100,328.865 315.060,328.700 315.133 C 328.535 315.207,328.400 315.612,328.400 316.033 C 328.400 316.455,328.250 316.800,328.068 316.800 C 327.885 316.800,327.480 317.295,327.168 317.900 C 325.949 320.262,321.575 324.607,318.814 326.200 C 317.669 326.860,316.491 327.625,316.195 327.900 C 315.899 328.175,315.374 328.400,315.029 328.400 C 314.683 328.400,314.400 328.580,314.400 328.800 C 314.400 329.020,313.961 329.200,313.424 329.200 C 312.887 329.200,312.336 329.380,312.200 329.600 C 312.064 329.820,311.603 330.000,311.176 330.000 C 310.749 330.000,310.400 330.180,310.400 330.400 C 310.400 330.620,309.770 330.800,309.000 330.800 C 308.230 330.800,307.600 330.980,307.600 331.200 C 307.600 331.466,271.467 331.600,200.000 331.600 C 128.533 331.600,92.400 331.466,92.400 331.200 C 92.400 330.980,91.781 330.800,91.024 330.800 C 90.267 330.800,89.536 330.620,89.400 330.400 C 89.264 330.180,88.713 330.000,88.176 330.000 C 87.639 330.000,87.200 329.820,87.200 329.600 C 87.200 329.380,86.946 329.200,86.634 329.200 C 86.323 329.200,84.928 328.620,83.534 327.911 C 81.073 326.658,80.584 326.349,79.415 325.300 C 79.108 325.025,78.646 324.800,78.389 324.800 C 77.745 324.800,74.751 321.572,73.374 319.393 C 72.751 318.407,72.096 317.600,71.920 317.600 C 71.744 317.600,71.600 317.240,71.600 316.800 C 71.600 316.360,71.448 316.000,71.263 316.000 C 70.948 316.000,69.609 313.489,68.703 311.200 C 68.485 310.650,68.148 309.887,67.953 309.505 C 67.759 309.123,67.600 308.358,67.600 307.805 C 67.600 307.252,67.420 306.800,67.200 306.800 C 66.971 306.800,66.800 305.600,66.800 304.000 C 66.800 302.400,66.629 301.200,66.400 301.200 C 66.135 301.200,66.000 281.000,66.000 241.400 C 66.000 181.867,66.004 181.600,66.800 181.600 C 67.240 181.600,67.600 181.420,67.600 181.200 C 67.600 180.980,67.960 180.800,68.400 180.800 C 68.840 180.800,69.200 180.620,69.200 180.400 C 69.200 180.180,69.560 180.000,70.000 180.000 C 70.440 180.000,70.800 179.820,70.800 179.600 C 70.800 179.380,71.036 179.200,71.325 179.200 C 71.613 179.200,72.236 178.840,72.708 178.400 C 73.180 177.960,73.682 177.600,73.823 177.600 C 73.964 177.600,74.583 177.060,75.200 176.400 C 75.817 175.740,76.511 175.200,76.743 175.200 C 77.262 175.200,79.887 173.517,81.086 172.414 C 81.573 171.966,82.166 171.600,82.404 171.600 C 82.642 171.600,83.286 171.150,83.836 170.600 C 84.386 170.050,85.000 169.600,85.200 169.600 C 85.400 169.600,86.014 169.150,86.564 168.600 C 87.114 168.050,87.725 167.600,87.922 167.600 C 88.120 167.600,88.846 167.060,89.537 166.400 C 90.228 165.740,90.935 165.200,91.108 165.200 C 91.281 165.200,91.683 164.840,92.000 164.400 C 92.317 163.960,92.825 163.600,93.128 163.600 C 93.431 163.600,94.183 163.060,94.800 162.400 C 95.417 161.740,96.169 161.200,96.472 161.200 C 96.775 161.200,97.283 160.840,97.600 160.400 C 97.917 159.960,98.431 159.600,98.741 159.600 C 99.052 159.600,99.597 159.267,99.953 158.859 C 100.309 158.452,101.221 157.798,101.980 157.407 C 102.740 157.016,103.601 156.456,103.895 156.162 C 104.189 155.868,104.963 155.313,105.615 154.928 C 106.267 154.543,106.800 154.086,106.800 153.914 C 106.800 153.741,106.998 153.600,107.240 153.600 C 107.481 153.600,108.183 153.060,108.800 152.400 C 109.417 151.740,110.169 151.200,110.472 151.200 C 110.775 151.200,111.283 150.840,111.600 150.400 C 111.917 149.960,112.425 149.600,112.728 149.600 C 113.031 149.600,113.783 149.060,114.400 148.400 C 115.017 147.740,115.769 147.200,116.072 147.200 C 116.375 147.200,116.883 146.840,117.200 146.400 C 117.517 145.960,117.980 145.600,118.229 145.600 C 118.478 145.600,119.246 145.060,119.937 144.400 C 120.628 143.740,121.425 143.200,121.708 143.200 C 121.991 143.200,122.483 142.840,122.800 142.400 C 123.117 141.960,123.564 141.600,123.792 141.600 C 124.021 141.600,124.693 141.150,125.287 140.600 C 125.880 140.050,126.571 139.600,126.822 139.600 C 127.073 139.600,127.783 139.060,128.400 138.400 C 129.017 137.740,129.769 137.200,130.072 137.200 C 130.375 137.200,130.883 136.840,131.200 136.400 C 131.517 135.960,132.025 135.600,132.328 135.600 C 132.631 135.600,133.383 135.060,134.000 134.400 C 134.617 133.740,135.369 133.200,135.672 133.200 C 135.975 133.200,136.483 132.840,136.800 132.400 C 137.117 131.960,137.607 131.600,137.888 131.600 C 138.170 131.600,138.400 131.420,138.400 131.200 C 138.400 130.980,138.630 130.800,138.912 130.800 C 139.193 130.800,139.683 130.440,140.000 130.000 C 140.317 129.560,140.767 129.200,141.000 129.200 C 141.233 129.200,141.683 128.840,142.000 128.400 C 142.317 127.960,142.825 127.600,143.128 127.600 C 143.431 127.600,144.183 127.060,144.800 126.400 C 145.417 125.740,146.166 125.200,146.465 125.200 C 146.764 125.200,147.493 124.750,148.087 124.200 C 148.680 123.650,149.403 123.200,149.694 123.200 C 149.985 123.200,150.483 122.840,150.800 122.400 C 151.117 121.960,151.580 121.600,151.829 121.600 C 152.078 121.600,152.806 121.105,153.448 120.500 C 154.089 119.895,155.106 119.145,155.707 118.832 C 156.308 118.520,156.800 118.115,156.800 117.932 C 156.800 117.750,156.998 117.600,157.240 117.600 C 157.481 117.600,158.183 117.060,158.800 116.400 C 159.417 115.740,160.169 115.200,160.472 115.200 C 160.775 115.200,161.283 114.840,161.600 114.400 C 161.917 113.960,162.380 113.600,162.629 113.600 C 162.878 113.600,163.646 113.060,164.337 112.400 C 165.028 111.740,165.792 111.200,166.036 111.200 C 166.280 111.200,166.983 110.660,167.600 110.000 C 168.217 109.340,169.009 108.800,169.360 108.800 C 169.712 108.800,170.000 108.642,170.000 108.449 C 170.000 108.255,170.522 107.881,171.160 107.616 C 171.799 107.352,172.730 106.700,173.230 106.168 C 173.730 105.636,174.338 105.200,174.581 105.200 C 174.825 105.200,175.283 104.840,175.600 104.400 C 175.917 103.960,176.380 103.600,176.629 103.600 C 176.878 103.600,177.646 103.060,178.337 102.400 C 179.028 101.740,179.825 101.200,180.108 101.200 C 180.391 101.200,180.883 100.840,181.200 100.400 C 181.517 99.960,181.980 99.600,182.229 99.600 C 182.478 99.600,183.246 99.060,183.937 98.400 C 184.628 97.740,185.392 97.200,185.636 97.200 C 185.880 97.200,186.583 96.660,187.200 96.000 C 187.817 95.340,188.569 94.800,188.872 94.800 C 189.175 94.800,189.683 94.440,190.000 94.000 C 190.317 93.560,190.725 93.200,190.906 93.200 C 191.088 93.200,191.686 92.750,192.236 92.200 C 192.786 91.650,193.453 91.200,193.718 91.200 C 193.983 91.199,194.717 90.754,195.349 90.211 C 195.981 89.667,196.796 89.128,197.160 89.013 C 197.524 88.897,198.081 88.442,198.399 88.001 C 198.974 87.203,200.400 86.883,200.400 87.551 M195.000 151.600 C 194.864 151.820,193.773 152.000,192.576 152.000 C 191.379 152.000,190.400 152.180,190.400 152.400 C 190.400 152.620,189.860 152.800,189.200 152.800 C 188.540 152.800,188.000 152.980,188.000 153.200 C 188.000 153.420,187.460 153.600,186.800 153.600 C 186.140 153.600,185.600 153.780,185.600 154.000 C 185.600 154.220,185.240 154.400,184.800 154.400 C 184.360 154.400,184.000 154.580,184.000 154.800 C 184.000 155.020,183.766 155.200,183.480 155.200 C 182.744 155.200,180.807 156.141,180.803 156.500 C 180.801 156.665,180.440 156.800,180.000 156.800 C 179.560 156.800,179.200 156.958,179.200 157.150 C 179.200 157.343,178.673 157.755,178.030 158.067 C 176.829 158.649,171.600 163.316,171.600 163.806 C 171.600 163.956,171.105 164.556,170.500 165.140 C 169.895 165.723,169.145 166.695,168.832 167.300 C 168.520 167.905,168.115 168.400,167.932 168.400 C 167.750 168.400,167.600 168.760,167.600 169.200 C 167.600 169.640,167.447 170.000,167.261 170.000 C 167.074 170.000,166.597 170.720,166.200 171.600 C 165.285 173.628,165.150 173.613,162.800 171.200 C 161.729 170.100,160.610 169.200,160.314 169.200 C 160.019 169.200,159.517 168.840,159.200 168.400 C 158.883 167.960,158.393 167.600,158.112 167.600 C 157.830 167.600,157.600 167.420,157.600 167.200 C 157.600 166.980,157.330 166.800,157.000 166.800 C 156.670 166.800,156.400 166.620,156.400 166.400 C 156.400 166.180,156.040 166.000,155.600 166.000 C 155.160 166.000,154.800 165.820,154.800 165.600 C 154.800 165.380,154.350 165.200,153.800 165.200 C 153.250 165.200,152.800 165.020,152.800 164.800 C 152.800 164.580,152.440 164.400,152.000 164.400 C 151.560 164.400,151.200 164.220,151.200 164.000 C 151.200 163.780,150.660 163.600,150.000 163.600 C 149.340 163.600,148.800 163.420,148.800 163.200 C 148.800 162.980,148.091 162.800,147.224 162.800 C 146.357 162.800,145.536 162.620,145.400 162.400 C 145.250 162.157,142.270 162.000,137.800 162.000 C 133.330 162.000,130.350 162.157,130.200 162.400 C 130.064 162.620,129.344 162.800,128.600 162.800 C 127.856 162.800,127.136 162.980,127.000 163.200 C 126.864 163.420,126.313 163.600,125.776 163.600 C 125.239 163.600,124.800 163.780,124.800 164.000 C 124.800 164.220,124.260 164.400,123.600 164.400 C 122.940 164.400,122.400 164.580,122.400 164.800 C 122.400 165.020,122.040 165.200,121.600 165.200 C 121.160 165.200,120.800 165.380,120.800 165.600 C 120.800 165.820,120.480 166.000,120.088 166.000 C 119.697 166.000,119.117 166.360,118.800 166.800 C 118.483 167.240,117.903 167.600,117.512 167.600 C 117.120 167.600,116.800 167.750,116.800 167.932 C 116.800 168.115,116.305 168.520,115.701 168.832 C 114.212 169.601,107.600 176.345,107.600 177.095 C 107.600 177.276,107.240 177.683,106.800 178.000 C 106.360 178.317,106.000 178.897,106.000 179.288 C 106.000 179.680,105.853 180.000,105.674 180.000 C 105.265 180.000,103.600 183.081,103.600 183.838 C 103.600 184.147,103.420 184.400,103.200 184.400 C 102.980 184.400,102.800 184.850,102.800 185.400 C 102.800 185.950,102.620 186.400,102.400 186.400 C 102.180 186.400,102.000 186.929,102.000 187.576 C 102.000 188.223,101.820 188.864,101.600 189.000 C 101.380 189.136,101.200 190.047,101.200 191.024 C 101.200 192.001,101.020 192.800,100.800 192.800 C 100.546 192.800,100.400 195.867,100.400 201.200 C 100.400 206.533,100.546 209.600,100.800 209.600 C 101.025 209.600,101.200 210.725,101.200 212.176 C 101.200 213.593,101.380 214.864,101.600 215.000 C 101.820 215.136,102.000 216.036,102.000 217.000 C 102.000 217.964,102.180 218.864,102.400 219.000 C 102.620 219.136,102.800 219.856,102.800 220.600 C 102.800 221.344,102.980 222.064,103.200 222.200 C 103.420 222.336,103.600 223.067,103.600 223.824 C 103.600 224.581,103.780 225.200,104.000 225.200 C 104.220 225.200,104.400 225.740,104.400 226.400 C 104.400 227.060,104.580 227.600,104.800 227.600 C 105.020 227.600,105.200 228.140,105.200 228.800 C 105.200 229.460,105.380 230.000,105.600 230.000 C 105.820 230.000,106.000 230.540,106.000 231.200 C 106.000 231.860,106.180 232.400,106.400 232.400 C 106.620 232.400,106.800 232.760,106.800 233.200 C 106.800 233.640,106.980 234.000,107.200 234.000 C 107.420 234.000,107.600 234.540,107.600 235.200 C 107.600 235.860,107.780 236.400,108.000 236.400 C 108.220 236.400,108.400 236.685,108.400 237.034 C 108.400 237.892,112.066 245.600,112.475 245.600 C 112.654 245.600,112.800 245.960,112.800 246.400 C 112.800 246.840,112.980 247.200,113.200 247.200 C 113.420 247.200,113.600 247.560,113.600 248.000 C 113.600 248.440,113.780 248.800,114.000 248.800 C 114.220 248.800,114.400 249.078,114.400 249.417 C 114.400 249.756,114.760 250.420,115.200 250.892 C 115.640 251.364,116.000 251.987,116.000 252.275 C 116.000 252.564,116.180 252.800,116.400 252.800 C 116.620 252.800,116.800 253.036,116.800 253.325 C 116.800 253.613,117.115 254.198,117.500 254.625 C 117.885 255.051,118.455 255.895,118.768 256.500 C 119.080 257.105,119.485 257.600,119.668 257.600 C 119.850 257.600,120.000 257.830,120.000 258.112 C 120.000 258.393,120.360 258.883,120.800 259.200 C 121.240 259.517,121.600 260.025,121.600 260.328 C 121.600 260.631,122.140 261.383,122.800 262.000 C 123.460 262.617,124.000 263.326,124.000 263.577 C 124.000 263.828,124.352 264.412,124.783 264.874 C 125.644 265.798,125.383 266.778,123.937 268.047 C 123.532 268.403,123.200 268.988,123.200 269.347 C 123.200 269.706,123.020 270.000,122.800 270.000 C 122.580 270.000,122.400 270.360,122.400 270.800 C 122.400 271.240,122.220 271.600,122.000 271.600 C 121.780 271.600,121.600 271.960,121.600 272.400 C 121.600 272.840,121.420 273.200,121.200 273.200 C 120.980 273.200,120.800 273.560,120.800 274.000 C 120.800 274.440,120.620 274.800,120.400 274.800 C 120.180 274.800,120.000 275.509,120.000 276.376 C 120.000 277.243,119.820 278.064,119.600 278.200 C 119.069 278.528,119.069 288.272,119.600 288.600 C 119.820 288.736,120.000 289.467,120.000 290.224 C 120.000 290.981,120.180 291.600,120.400 291.600 C 120.620 291.600,120.800 292.039,120.800 292.576 C 120.800 293.113,120.980 293.664,121.200 293.800 C 121.420 293.936,121.600 294.357,121.600 294.735 C 121.600 295.114,121.960 295.683,122.400 296.000 C 122.840 296.317,123.200 296.857,123.200 297.200 C 123.200 297.543,123.560 298.083,124.000 298.400 C 124.440 298.717,124.800 299.185,124.800 299.440 C 124.800 299.896,126.701 301.923,129.188 304.120 C 129.886 304.736,131.749 305.878,133.328 306.657 C 134.908 307.436,136.513 308.237,136.895 308.437 C 137.277 308.637,137.862 308.800,138.195 308.800 C 138.528 308.800,138.800 308.980,138.800 309.200 C 138.800 309.420,139.340 309.600,140.000 309.600 C 140.660 309.600,141.200 309.780,141.200 310.000 C 141.200 310.220,141.830 310.400,142.600 310.400 C 143.370 310.400,144.000 310.580,144.000 310.800 C 144.000 311.020,144.900 311.200,146.000 311.200 C 147.100 311.200,148.000 311.380,148.000 311.600 C 148.000 311.820,148.900 312.000,150.000 312.000 C 151.100 312.000,152.000 312.180,152.000 312.400 C 152.000 312.622,153.067 312.800,154.400 312.800 C 155.733 312.800,156.800 312.978,156.800 313.200 C 156.800 313.431,158.067 313.600,159.800 313.600 C 161.533 313.600,162.800 313.769,162.800 314.000 C 162.800 314.237,164.267 314.400,166.400 314.400 C 168.533 314.400,170.000 314.563,170.000 314.800 C 170.000 315.048,172.125 315.200,175.576 315.200 C 178.863 315.200,181.254 315.364,181.400 315.600 C 181.558 315.855,187.004 316.000,196.424 316.000 C 206.008 316.000,211.200 315.859,211.200 315.600 C 211.200 315.351,213.533 315.200,217.400 315.200 C 221.267 315.200,223.600 315.049,223.600 314.800 C 223.600 314.560,225.200 314.400,227.600 314.400 C 230.000 314.400,231.600 314.240,231.600 314.000 C 231.600 313.762,233.125 313.600,235.376 313.600 C 237.463 313.600,239.263 313.421,239.400 313.200 C 239.536 312.980,240.987 312.800,242.624 312.800 C 244.341 312.800,245.600 312.631,245.600 312.400 C 245.600 312.171,246.800 312.000,248.400 312.000 C 250.000 312.000,251.200 311.829,251.200 311.600 C 251.200 311.378,252.267 311.200,253.600 311.200 C 254.933 311.200,256.000 311.022,256.000 310.800 C 256.000 310.580,256.630 310.400,257.400 310.400 C 258.170 310.400,258.800 310.220,258.800 310.000 C 258.800 309.780,259.340 309.600,260.000 309.600 C 260.660 309.600,261.200 309.420,261.200 309.200 C 261.200 308.980,261.740 308.800,262.400 308.800 C 263.060 308.800,263.600 308.620,263.600 308.400 C 263.600 308.180,263.864 308.000,264.186 308.000 C 264.999 308.000,267.600 306.724,267.600 306.326 C 267.600 306.147,267.856 306.000,268.169 306.000 C 269.189 306.000,276.000 298.943,276.000 297.885 C 276.000 297.606,276.360 297.117,276.800 296.800 C 277.240 296.483,277.600 295.903,277.600 295.512 C 277.600 295.120,277.780 294.800,278.000 294.800 C 278.220 294.800,278.400 294.260,278.400 293.600 C 278.400 292.940,278.580 292.400,278.800 292.400 C 279.020 292.400,279.200 291.860,279.200 291.200 C 279.200 290.540,279.380 290.000,279.600 290.000 C 279.851 290.000,280.000 287.533,280.000 283.400 C 280.000 279.267,279.851 276.800,279.600 276.800 C 279.380 276.800,279.200 276.170,279.200 275.400 C 279.200 274.630,279.020 274.000,278.800 274.000 C 278.580 274.000,278.400 273.640,278.400 273.200 C 278.400 272.760,278.220 272.400,278.000 272.400 C 277.780 272.400,277.600 272.040,277.600 271.600 C 277.600 271.160,277.420 270.800,277.200 270.800 C 276.980 270.800,276.800 270.480,276.800 270.088 C 276.800 269.697,276.440 269.117,276.000 268.800 C 275.560 268.483,275.200 267.980,275.200 267.683 C 275.200 267.386,274.930 266.873,274.600 266.543 C 273.801 265.744,273.832 265.573,275.000 264.313 C 275.550 263.720,276.000 263.029,276.000 262.778 C 276.000 262.527,276.540 261.817,277.200 261.200 C 277.860 260.583,278.400 259.831,278.400 259.528 C 278.400 259.225,278.760 258.717,279.200 258.400 C 279.640 258.083,280.000 257.593,280.000 257.312 C 280.000 257.030,280.150 256.800,280.332 256.800 C 280.515 256.800,280.920 256.305,281.232 255.700 C 281.545 255.095,282.115 254.251,282.500 253.825 C 282.885 253.398,283.200 252.813,283.200 252.525 C 283.200 252.236,283.380 252.000,283.600 252.000 C 283.820 252.000,284.000 251.722,284.000 251.383 C 284.000 251.044,284.360 250.380,284.800 249.908 C 285.240 249.436,285.600 248.813,285.600 248.525 C 285.600 248.236,285.780 248.000,286.000 248.000 C 286.220 248.000,286.400 247.640,286.400 247.200 C 286.400 246.760,286.580 246.400,286.800 246.400 C 287.020 246.400,287.200 246.040,287.200 245.600 C 287.200 245.160,287.380 244.800,287.600 244.800 C 287.820 244.800,288.000 244.440,288.000 244.000 C 288.000 243.560,288.180 243.200,288.400 243.200 C 288.620 243.200,288.800 242.855,288.800 242.433 C 288.800 242.012,288.943 241.607,289.119 241.533 C 289.617 241.325,291.251 237.597,291.490 236.125 C 291.608 235.396,291.861 234.800,292.052 234.800 C 292.244 234.800,292.400 234.440,292.400 234.000 C 292.400 233.560,292.580 233.200,292.800 233.200 C 293.020 233.200,293.200 232.660,293.200 232.000 C 293.200 231.340,293.380 230.800,293.600 230.800 C 293.820 230.800,294.000 230.260,294.000 229.600 C 294.000 228.940,294.180 228.400,294.400 228.400 C 294.620 228.400,294.800 227.860,294.800 227.200 C 294.800 226.540,294.980 226.000,295.200 226.000 C 295.420 226.000,295.600 225.370,295.600 224.600 C 295.600 223.830,295.780 223.200,296.000 223.200 C 296.220 223.200,296.400 222.480,296.400 221.600 C 296.400 220.720,296.580 220.000,296.800 220.000 C 297.020 220.000,297.200 219.291,297.200 218.424 C 297.200 217.557,297.380 216.736,297.600 216.600 C 297.820 216.464,298.000 215.384,298.000 214.200 C 298.000 213.016,298.180 211.936,298.400 211.800 C 298.629 211.658,298.800 209.596,298.800 206.976 C 298.800 204.192,298.957 202.400,299.200 202.400 C 299.422 202.400,299.600 201.333,299.600 200.000 C 299.600 198.667,299.422 197.600,299.200 197.600 C 298.967 197.600,298.800 196.267,298.800 194.400 C 298.800 192.533,298.633 191.200,298.400 191.200 C 298.180 191.200,298.000 190.480,298.000 189.600 C 298.000 188.720,297.820 188.000,297.600 188.000 C 297.380 188.000,297.200 187.460,297.200 186.800 C 297.200 186.140,297.020 185.600,296.800 185.600 C 296.580 185.600,296.400 185.240,296.400 184.800 C 296.400 184.360,296.220 184.000,296.000 184.000 C 295.780 184.000,295.600 183.640,295.600 183.200 C 295.600 182.760,295.420 182.400,295.200 182.400 C 294.980 182.400,294.800 182.040,294.800 181.600 C 294.800 181.160,294.620 180.800,294.400 180.800 C 294.180 180.800,294.000 180.440,294.000 180.000 C 294.000 179.560,293.820 179.200,293.600 179.200 C 293.380 179.200,293.200 178.930,293.200 178.600 C 293.200 178.270,293.020 178.000,292.800 178.000 C 292.580 178.000,292.400 177.730,292.400 177.400 C 292.400 177.070,292.265 176.795,292.100 176.790 C 291.935 176.784,291.080 175.821,290.200 174.650 C 289.320 173.478,287.790 171.910,286.800 171.165 C 285.810 170.419,284.709 169.492,284.353 169.105 C 283.997 168.717,283.452 168.400,283.141 168.400 C 282.831 168.400,282.317 168.040,282.000 167.600 C 281.683 167.160,281.103 166.800,280.712 166.800 C 280.320 166.800,280.000 166.620,280.000 166.400 C 280.000 166.180,279.640 166.000,279.200 166.000 C 278.760 166.000,278.400 165.820,278.400 165.600 C 278.400 165.380,278.040 165.200,277.600 165.200 C 277.160 165.200,276.800 165.020,276.800 164.800 C 276.800 164.580,276.260 164.400,275.600 164.400 C 274.940 164.400,274.400 164.220,274.400 164.000 C 274.400 163.780,273.950 163.600,273.400 163.600 C 272.850 163.600,272.400 163.420,272.400 163.200 C 272.400 162.980,271.691 162.800,270.824 162.800 C 269.957 162.800,269.136 162.620,269.000 162.400 C 268.850 162.157,265.929 162.000,261.576 162.000 C 257.059 162.000,254.400 162.148,254.400 162.400 C 254.400 162.620,253.768 162.800,252.995 162.800 C 252.222 162.800,251.277 162.968,250.895 163.173 C 250.513 163.379,249.345 163.778,248.300 164.061 C 247.255 164.343,246.400 164.715,246.400 164.887 C 246.400 165.059,246.040 165.200,245.600 165.200 C 245.160 165.200,244.800 165.380,244.800 165.600 C 244.800 165.820,244.440 166.000,244.000 166.000 C 243.560 166.000,243.200 166.180,243.200 166.400 C 243.200 166.620,242.930 166.800,242.600 166.800 C 242.270 166.800,242.000 166.950,242.000 167.132 C 242.000 167.315,241.505 167.719,240.900 168.030 C 240.295 168.340,239.509 168.911,239.153 169.297 C 238.797 169.684,238.288 170.000,238.022 170.000 C 237.755 170.000,236.832 170.734,235.971 171.631 C 234.358 173.309,233.200 173.224,233.200 171.429 C 233.200 171.083,233.020 170.800,232.800 170.800 C 232.580 170.800,232.400 170.440,232.400 170.000 C 232.400 169.560,232.250 169.200,232.068 169.200 C 231.885 169.200,231.481 168.705,231.170 168.100 C 230.860 167.495,230.289 166.709,229.903 166.353 C 229.516 165.997,229.200 165.512,229.200 165.275 C 229.200 164.684,224.280 159.811,222.801 158.937 C 222.140 158.547,221.600 158.086,221.600 157.914 C 221.600 157.741,221.280 157.600,220.888 157.600 C 220.497 157.600,219.917 157.240,219.600 156.800 C 219.283 156.360,218.703 156.000,218.312 156.000 C 217.920 156.000,217.600 155.820,217.600 155.600 C 217.600 155.380,217.240 155.200,216.800 155.200 C 216.360 155.200,216.000 155.020,216.000 154.800 C 216.000 154.580,215.561 154.400,215.024 154.400 C 214.487 154.400,213.936 154.220,213.800 154.000 C 213.664 153.780,213.203 153.600,212.776 153.600 C 212.349 153.600,212.000 153.420,212.000 153.200 C 212.000 152.980,211.280 152.800,210.400 152.800 C 209.520 152.800,208.800 152.620,208.800 152.400 C 208.800 152.180,207.810 152.000,206.600 152.000 C 205.390 152.000,204.400 151.820,204.400 151.600 C 204.400 151.357,202.608 151.200,199.824 151.200 C 197.204 151.200,195.142 151.371,195.000 151.600 M203.600 159.200 C 203.600 159.420,204.500 159.600,205.600 159.600 C 206.700 159.600,207.600 159.780,207.600 160.000 C 207.600 160.220,208.050 160.400,208.600 160.400 C 209.150 160.400,209.600 160.580,209.600 160.800 C 209.600 161.020,209.834 161.200,210.120 161.200 C 210.856 161.200,212.793 162.141,212.797 162.500 C 212.799 162.665,213.160 162.800,213.600 162.800 C 214.040 162.800,214.400 162.980,214.400 163.200 C 214.400 163.420,214.672 163.600,215.004 163.600 C 215.336 163.600,216.172 164.140,216.863 164.800 C 217.554 165.460,218.288 166.000,218.494 166.000 C 219.021 166.000,223.200 170.409,223.200 170.965 C 223.200 171.217,223.560 171.683,224.000 172.000 C 224.440 172.317,224.800 172.785,224.800 173.039 C 224.800 173.294,225.070 173.726,225.400 174.000 C 225.730 174.274,226.000 174.836,226.000 175.249 C 226.000 175.662,226.180 176.000,226.400 176.000 C 226.620 176.000,226.800 176.349,226.800 176.776 C 226.800 177.203,226.980 177.664,227.200 177.800 C 227.420 177.936,227.600 178.487,227.600 179.024 C 227.600 179.561,227.780 180.000,228.000 180.000 C 228.220 180.000,228.400 180.540,228.400 181.200 C 228.400 181.860,228.220 182.400,228.000 182.400 C 227.780 182.400,227.600 182.760,227.600 183.200 C 227.600 183.640,227.420 184.000,227.200 184.000 C 226.980 184.000,226.800 184.272,226.800 184.605 C 226.800 184.938,226.644 185.523,226.454 185.905 C 225.586 187.645,225.145 189.662,224.922 192.900 C 224.790 194.825,224.528 196.400,224.341 196.400 C 223.284 196.400,224.028 200.730,225.328 202.150 C 226.622 203.562,229.200 204.261,229.200 203.200 C 229.200 202.980,229.483 202.800,229.829 202.800 C 231.029 202.800,231.600 201.722,231.600 199.452 C 231.600 198.239,231.780 197.136,232.000 197.000 C 232.220 196.864,232.400 195.773,232.400 194.576 C 232.400 193.379,232.580 192.400,232.800 192.400 C 233.020 192.400,233.200 191.860,233.200 191.200 C 233.200 190.540,233.380 190.000,233.600 190.000 C 233.820 190.000,234.000 189.550,234.000 189.000 C 234.000 188.450,234.180 188.000,234.400 188.000 C 234.620 188.000,234.800 187.640,234.800 187.200 C 234.800 186.760,234.980 186.400,235.200 186.400 C 235.420 186.400,235.600 186.040,235.600 185.600 C 235.600 185.160,235.750 184.800,235.932 184.800 C 236.115 184.800,236.519 184.305,236.830 183.700 C 237.140 183.095,237.711 182.309,238.097 181.953 C 238.484 181.597,238.800 181.137,238.800 180.931 C 238.800 180.725,239.430 179.869,240.200 179.028 C 240.970 178.187,241.600 177.342,241.600 177.150 C 241.600 176.957,241.878 176.800,242.218 176.800 C 242.558 176.800,243.255 176.381,243.766 175.870 C 244.278 175.358,245.260 174.707,245.948 174.421 C 246.637 174.136,247.200 173.745,247.200 173.551 C 247.200 173.358,247.560 173.200,248.000 173.200 C 248.440 173.200,248.800 173.020,248.800 172.800 C 248.800 172.580,249.149 172.400,249.576 172.400 C 250.003 172.400,250.464 172.220,250.600 172.000 C 250.736 171.780,251.287 171.600,251.824 171.600 C 252.361 171.600,252.800 171.420,252.800 171.200 C 252.800 170.980,253.419 170.800,254.176 170.800 C 254.933 170.800,255.664 170.620,255.800 170.400 C 255.946 170.163,258.404 170.000,261.824 170.000 C 265.408 170.000,267.600 170.152,267.600 170.400 C 267.600 170.620,268.320 170.800,269.200 170.800 C 270.080 170.800,270.800 170.947,270.800 171.128 C 270.800 171.308,271.700 171.700,272.800 172.000 C 273.900 172.300,274.802 172.647,274.805 172.772 C 274.807 172.898,275.521 173.341,276.391 173.758 C 277.261 174.175,278.294 174.810,278.687 175.169 C 279.079 175.528,280.030 176.263,280.800 176.802 C 282.533 178.016,284.000 179.446,284.000 179.922 C 284.000 180.120,284.540 180.846,285.200 181.537 C 285.860 182.228,286.400 183.025,286.400 183.308 C 286.400 183.591,286.760 184.083,287.200 184.400 C 287.640 184.717,288.000 185.297,288.000 185.688 C 288.000 186.080,288.180 186.400,288.400 186.400 C 288.620 186.400,288.800 186.760,288.800 187.200 C 288.800 187.640,288.980 188.000,289.200 188.000 C 289.420 188.000,289.600 188.439,289.600 188.976 C 289.600 189.513,289.780 190.064,290.000 190.200 C 290.220 190.336,290.400 190.851,290.400 191.344 C 290.400 191.837,290.616 192.456,290.881 192.721 C 291.519 193.359,291.476 209.884,290.834 210.526 C 290.595 210.765,290.400 211.813,290.400 212.856 C 290.400 213.899,290.220 214.864,290.000 215.000 C 289.780 215.136,289.600 215.957,289.600 216.824 C 289.600 217.691,289.420 218.400,289.200 218.400 C 288.980 218.400,288.800 219.120,288.800 220.000 C 288.800 220.880,288.620 221.600,288.400 221.600 C 288.180 221.600,288.000 222.140,288.000 222.800 C 288.000 223.460,287.820 224.000,287.600 224.000 C 287.380 224.000,287.200 224.540,287.200 225.200 C 287.200 225.860,287.020 226.400,286.800 226.400 C 286.580 226.400,286.400 226.850,286.400 227.400 C 286.400 227.950,286.220 228.400,286.000 228.400 C 285.780 228.400,285.600 228.940,285.600 229.600 C 285.600 230.260,285.420 230.800,285.200 230.800 C 284.980 230.800,284.800 231.160,284.800 231.600 C 284.800 232.040,284.620 232.400,284.400 232.400 C 284.180 232.400,284.000 232.672,284.000 233.005 C 284.000 233.338,283.820 233.968,283.600 234.405 C 283.380 234.842,283.020 235.558,282.800 235.995 C 282.580 236.432,282.400 237.062,282.400 237.395 C 282.400 237.728,282.220 238.000,282.000 238.000 C 281.780 238.000,281.600 238.360,281.600 238.800 C 281.600 239.240,281.420 239.600,281.200 239.600 C 280.980 239.600,280.800 239.960,280.800 240.400 C 280.800 240.840,280.620 241.200,280.400 241.200 C 280.180 241.200,280.000 241.397,280.000 241.638 C 280.000 241.879,279.661 242.554,279.247 243.138 C 278.525 244.156,277.878 245.247,275.654 249.200 C 275.097 250.190,274.497 251.060,274.320 251.133 C 274.144 251.207,274.000 251.572,274.000 251.945 C 274.000 252.318,273.640 252.883,273.200 253.200 C 272.760 253.517,272.400 253.980,272.400 254.229 C 272.400 254.478,271.860 255.246,271.200 255.937 C 270.540 256.628,270.000 257.373,270.000 257.593 C 270.000 258.071,267.628 260.400,267.141 260.400 C 266.953 260.400,266.800 260.240,266.800 260.043 C 266.800 259.602,263.869 258.400,262.792 258.400 C 262.356 258.400,262.000 258.220,262.000 258.000 C 262.000 257.780,261.561 257.600,261.024 257.600 C 260.487 257.600,259.936 257.420,259.800 257.200 C 259.664 256.980,259.124 256.800,258.600 256.800 C 258.076 256.800,257.536 256.620,257.400 256.400 C 257.264 256.180,256.353 256.000,255.376 256.000 C 254.399 256.000,253.600 255.820,253.600 255.600 C 253.600 255.372,252.408 255.200,250.824 255.200 C 249.297 255.200,247.936 255.020,247.800 254.800 C 247.664 254.580,246.033 254.400,244.176 254.400 C 242.192 254.400,240.800 254.235,240.800 254.000 C 240.800 253.759,239.133 253.600,236.600 253.600 C 234.067 253.600,232.400 253.441,232.400 253.200 C 232.400 252.955,230.475 252.800,227.424 252.800 C 224.537 252.800,222.343 252.632,222.200 252.400 C 222.040 252.141,214.137 252.000,199.800 252.000 C 185.463 252.000,177.560 252.141,177.400 252.400 C 177.256 252.633,174.996 252.800,171.976 252.800 C 168.792 252.800,166.800 252.954,166.800 253.200 C 166.800 253.441,165.133 253.600,162.600 253.600 C 160.067 253.600,158.400 253.759,158.400 254.000 C 158.400 254.233,157.067 254.400,155.200 254.400 C 153.333 254.400,152.000 254.567,152.000 254.800 C 152.000 255.029,150.800 255.200,149.200 255.200 C 147.600 255.200,146.400 255.371,146.400 255.600 C 146.400 255.820,145.410 256.000,144.200 256.000 C 142.990 256.000,142.000 256.180,142.000 256.400 C 142.000 256.620,141.460 256.800,140.800 256.800 C 140.140 256.800,139.600 256.980,139.600 257.200 C 139.600 257.420,139.060 257.600,138.400 257.600 C 137.740 257.600,137.200 257.780,137.200 258.000 C 137.200 258.220,136.885 258.401,136.500 258.402 C 136.115 258.404,135.284 258.674,134.654 259.002 C 134.024 259.331,133.274 259.600,132.988 259.600 C 132.701 259.600,132.382 259.825,132.277 260.100 C 132.156 260.421,131.750 260.185,131.144 259.440 C 130.625 258.802,129.795 257.866,129.300 257.358 C 128.805 256.851,128.400 256.247,128.400 256.015 C 128.400 255.783,127.860 255.028,127.200 254.337 C 126.540 253.646,126.000 252.838,126.000 252.541 C 126.000 252.243,125.842 252.000,125.649 252.000 C 125.455 252.000,125.067 251.445,124.786 250.766 C 124.505 250.087,124.077 249.322,123.835 249.066 C 123.593 248.810,122.963 247.745,122.435 246.700 C 121.906 245.655,121.356 244.800,121.212 244.800 C 121.067 244.800,120.702 244.170,120.400 243.400 C 120.098 242.630,119.704 242.000,119.525 242.000 C 119.346 242.000,119.200 241.640,119.200 241.200 C 119.200 240.760,119.020 240.400,118.800 240.400 C 118.580 240.400,118.400 240.040,118.400 239.600 C 118.400 239.160,118.220 238.800,118.000 238.800 C 117.780 238.800,117.600 238.440,117.600 238.000 C 117.600 237.560,117.420 237.200,117.200 237.200 C 116.980 237.200,116.800 236.840,116.800 236.400 C 116.800 235.960,116.620 235.600,116.400 235.600 C 116.180 235.600,116.000 235.251,116.000 234.824 C 116.000 234.397,115.820 233.936,115.600 233.800 C 115.380 233.664,115.200 233.113,115.200 232.576 C 115.200 232.039,115.020 231.600,114.800 231.600 C 114.580 231.600,114.400 231.240,114.400 230.800 C 114.400 230.360,114.220 230.000,114.000 230.000 C 113.780 230.000,113.600 229.460,113.600 228.800 C 113.600 228.140,113.420 227.600,113.200 227.600 C 112.980 227.600,112.800 227.150,112.800 226.600 C 112.800 226.050,112.620 225.600,112.400 225.600 C 112.180 225.600,112.000 225.060,112.000 224.400 C 112.000 223.740,111.820 223.200,111.600 223.200 C 111.380 223.200,111.200 222.581,111.200 221.824 C 111.200 221.067,111.020 220.336,110.800 220.200 C 110.580 220.064,110.400 219.344,110.400 218.600 C 110.400 217.856,110.220 217.136,110.000 217.000 C 109.780 216.864,109.600 216.043,109.600 215.176 C 109.600 214.309,109.447 213.600,109.259 213.600 C 108.801 213.600,108.209 206.093,108.217 200.400 C 108.225 195.360,108.719 190.800,109.257 190.800 C 109.446 190.800,109.600 190.350,109.600 189.800 C 109.600 189.250,109.780 188.800,110.000 188.800 C 110.220 188.800,110.400 188.440,110.400 188.000 C 110.400 187.560,110.580 187.200,110.800 187.200 C 111.020 187.200,111.200 186.840,111.200 186.400 C 111.200 185.960,111.380 185.600,111.600 185.600 C 111.820 185.600,112.000 185.280,112.000 184.888 C 112.000 184.497,112.360 183.917,112.800 183.600 C 113.240 183.283,113.600 182.791,113.600 182.506 C 113.600 181.943,119.777 175.674,121.030 174.964 C 124.523 172.986,125.708 172.400,126.214 172.400 C 126.536 172.400,126.800 172.264,126.800 172.097 C 126.800 171.731,129.667 170.800,130.794 170.800 C 131.237 170.800,131.600 170.620,131.600 170.400 C 131.600 170.151,133.859 170.000,137.576 170.000 C 141.129 170.000,143.653 170.162,143.800 170.400 C 143.936 170.620,144.566 170.800,145.200 170.800 C 145.834 170.800,146.464 170.980,146.600 171.200 C 146.736 171.420,147.287 171.600,147.824 171.600 C 148.361 171.600,148.800 171.780,148.800 172.000 C 148.800 172.220,149.160 172.400,149.600 172.400 C 150.040 172.400,150.400 172.580,150.400 172.800 C 150.400 173.020,150.760 173.200,151.200 173.200 C 151.640 173.200,152.000 173.380,152.000 173.600 C 152.000 173.820,152.360 174.000,152.800 174.000 C 153.240 174.000,153.600 174.145,153.600 174.323 C 153.600 174.501,154.275 174.952,155.100 175.327 C 155.925 175.701,157.050 176.558,157.600 177.231 C 158.150 177.904,159.185 179.067,159.900 179.814 C 160.615 180.562,161.200 181.325,161.200 181.511 C 161.200 181.697,161.515 182.198,161.900 182.625 C 162.285 183.051,162.855 183.895,163.168 184.500 C 163.480 185.105,163.885 185.600,164.068 185.600 C 164.250 185.600,164.400 185.960,164.400 186.400 C 164.400 186.840,164.580 187.200,164.800 187.200 C 165.020 187.200,165.200 187.639,165.200 188.176 C 165.200 188.713,165.380 189.264,165.600 189.400 C 165.820 189.536,166.000 190.087,166.000 190.624 C 166.000 191.161,166.180 191.600,166.400 191.600 C 166.620 191.600,166.800 192.320,166.800 193.200 C 166.800 194.080,166.980 194.800,167.200 194.800 C 167.433 194.800,167.600 196.133,167.600 198.000 C 167.600 199.867,167.767 201.200,168.000 201.200 C 168.220 201.200,168.400 201.560,168.400 202.000 C 168.400 202.533,168.667 202.800,169.200 202.800 C 169.640 202.800,170.000 202.980,170.000 203.200 C 170.000 204.586,174.172 203.103,174.849 201.476 C 175.709 199.411,174.658 188.525,173.486 187.353 C 173.329 187.195,173.200 186.657,173.200 186.157 C 173.200 185.657,173.020 185.136,172.800 185.000 C 172.580 184.864,172.400 184.403,172.400 183.976 C 172.400 183.549,172.220 183.200,172.000 183.200 C 171.780 183.200,171.600 182.840,171.600 182.400 C 171.600 181.960,171.384 181.600,171.120 181.600 C 170.747 181.600,170.747 181.493,171.120 181.120 C 171.384 180.856,171.600 180.237,171.600 179.744 C 171.600 179.251,171.780 178.736,172.000 178.600 C 172.220 178.464,172.400 178.003,172.400 177.576 C 172.400 177.149,172.580 176.800,172.800 176.800 C 173.020 176.800,173.200 176.455,173.200 176.033 C 173.200 175.612,173.335 175.207,173.500 175.133 C 173.665 175.060,174.160 174.286,174.600 173.413 C 175.405 171.818,177.399 169.361,179.135 167.826 C 179.649 167.372,180.678 166.415,181.422 165.700 C 182.165 164.985,183.010 164.400,183.298 164.400 C 183.587 164.400,184.083 164.040,184.400 163.600 C 184.717 163.160,185.297 162.800,185.688 162.800 C 186.080 162.800,186.400 162.620,186.400 162.400 C 186.400 162.180,186.760 162.000,187.200 162.000 C 187.640 162.000,188.000 161.820,188.000 161.600 C 188.000 161.380,188.450 161.200,189.000 161.200 C 189.550 161.200,190.000 161.020,190.000 160.800 C 190.000 160.580,190.540 160.400,191.200 160.400 C 191.860 160.400,192.400 160.220,192.400 160.000 C 192.400 159.780,193.300 159.600,194.400 159.600 C 195.500 159.600,196.400 159.420,196.400 159.200 C 196.400 158.963,197.867 158.800,200.000 158.800 C 202.133 158.800,203.600 158.963,203.600 159.200 M177.820 211.738 C 176.841 213.022,176.387 215.750,177.100 216.067 C 177.476 216.234,178.775 218.364,179.071 219.300 C 179.193 219.685,179.452 220.000,179.647 220.000 C 179.841 220.000,180.000 220.360,180.000 220.800 C 180.000 221.240,180.180 221.600,180.400 221.600 C 180.620 221.600,180.800 221.949,180.800 222.376 C 180.800 222.803,180.980 223.264,181.200 223.400 C 181.420 223.536,181.600 223.997,181.600 224.424 C 181.600 224.851,181.780 225.200,182.000 225.200 C 182.220 225.200,182.400 225.920,182.400 226.800 C 182.400 227.680,182.580 228.400,182.800 228.400 C 183.020 228.400,183.200 229.300,183.200 230.400 C 183.200 231.500,183.380 232.400,183.600 232.400 C 183.843 232.400,184.000 234.139,184.000 236.818 C 184.000 242.244,184.586 243.200,187.912 243.200 C 191.493 243.200,191.764 242.542,191.486 234.511 C 191.358 230.820,191.070 227.260,190.846 226.600 C 190.622 225.940,190.025 224.006,189.520 222.302 C 189.014 220.598,188.465 219.203,188.300 219.202 C 188.135 219.201,188.000 218.840,188.000 218.400 C 188.000 217.960,187.820 217.600,187.600 217.600 C 187.380 217.600,187.200 217.240,187.200 216.800 C 187.200 216.360,187.020 216.000,186.800 216.000 C 186.580 216.000,186.400 215.640,186.400 215.200 C 186.400 214.760,186.220 214.400,186.000 214.400 C 185.780 214.400,185.600 214.165,185.600 213.878 C 185.600 210.810,179.755 209.201,177.820 211.738 M215.455 211.455 C 214.875 212.035,214.400 212.755,214.400 213.055 C 214.400 213.355,214.220 213.600,214.000 213.600 C 213.780 213.600,213.600 213.945,213.600 214.367 C 213.600 214.788,213.465 215.193,213.300 215.267 C 212.825 215.478,211.200 218.641,211.200 219.354 C 211.200 219.710,211.059 220.000,210.887 220.000 C 210.715 220.000,210.342 220.855,210.057 221.900 C 209.773 222.945,209.352 224.250,209.122 224.800 C 208.892 225.350,208.610 227.830,208.496 230.311 C 208.381 232.792,208.133 234.918,207.944 235.035 C 207.469 235.328,207.511 237.098,208.000 237.400 C 208.220 237.536,208.400 238.717,208.400 240.024 C 208.400 241.869,208.534 242.400,209.000 242.400 C 209.330 242.400,209.600 242.580,209.600 242.800 C 209.600 243.020,210.603 243.200,211.829 243.200 C 214.322 243.200,215.200 242.635,215.200 241.029 C 215.200 240.463,215.380 240.000,215.600 240.000 C 215.820 240.000,216.000 239.651,216.000 239.224 C 216.000 238.797,215.820 238.336,215.600 238.200 C 215.380 238.064,215.200 237.524,215.200 237.000 C 215.200 236.476,215.380 235.936,215.600 235.800 C 215.820 235.664,216.000 234.123,216.000 232.376 C 216.000 230.525,216.167 229.200,216.400 229.200 C 216.620 229.200,216.800 228.480,216.800 227.600 C 216.800 226.720,216.980 226.000,217.200 226.000 C 217.420 226.000,217.600 225.657,217.600 225.238 C 217.600 224.422,219.201 221.088,219.700 220.867 C 219.865 220.793,220.000 220.388,220.000 219.967 C 220.000 219.545,220.180 219.200,220.400 219.200 C 220.620 219.200,220.800 218.922,220.800 218.583 C 220.800 218.244,221.160 217.580,221.600 217.108 C 225.084 213.368,219.072 207.838,215.455 211.455 M153.600 217.200 C 153.600 217.420,153.240 217.600,152.800 217.600 C 152.267 217.600,152.000 217.867,152.000 218.400 C 152.000 218.840,151.820 219.200,151.600 219.200 C 151.380 219.200,151.200 219.920,151.200 220.800 C 151.200 221.680,151.380 222.400,151.600 222.400 C 151.820 222.400,152.000 222.605,152.000 222.856 C 152.000 223.108,153.440 224.713,155.200 226.424 C 156.960 228.135,158.400 229.809,158.400 230.144 C 158.400 230.479,158.565 230.855,158.767 230.980 C 159.237 231.270,162.000 236.846,162.000 237.504 C 162.000 237.777,162.180 238.000,162.400 238.000 C 162.620 238.000,162.800 238.362,162.800 238.805 C 162.800 239.248,162.958 239.923,163.151 240.305 C 163.693 241.378,164.400 243.779,164.400 244.547 C 164.400 247.124,169.589 248.267,171.453 246.100 C 172.437 244.956,172.856 241.200,172.000 241.200 C 171.780 241.200,171.600 240.581,171.600 239.824 C 171.600 239.067,171.420 238.336,171.200 238.200 C 170.980 238.064,170.800 237.524,170.800 237.000 C 170.800 236.476,170.620 235.936,170.400 235.800 C 170.180 235.664,170.000 235.203,170.000 234.776 C 170.000 234.349,169.820 234.000,169.600 234.000 C 169.380 234.000,169.200 233.657,169.200 233.238 C 169.200 232.422,167.599 229.088,167.100 228.867 C 166.935 228.793,166.800 228.478,166.800 228.167 C 166.800 227.855,166.620 227.600,166.400 227.600 C 166.180 227.600,166.000 227.330,166.000 227.000 C 166.000 226.670,165.850 226.400,165.668 226.400 C 165.485 226.400,165.080 225.909,164.768 225.309 C 162.559 221.061,153.600 214.556,153.600 217.200 M242.230 217.324 C 241.130 218.005,236.400 222.718,236.400 223.133 C 236.400 223.325,235.860 224.046,235.200 224.737 C 234.540 225.428,234.000 226.092,234.000 226.213 C 234.000 226.334,233.640 226.820,233.200 227.292 C 232.760 227.764,232.400 228.387,232.400 228.675 C 232.400 228.964,232.220 229.200,232.000 229.200 C 231.780 229.200,231.600 229.560,231.600 230.000 C 231.600 230.440,231.420 230.800,231.200 230.800 C 230.980 230.800,230.800 231.160,230.800 231.600 C 230.800 232.040,230.653 232.400,230.472 232.400 C 230.292 232.400,229.896 233.311,229.593 234.425 C 229.290 235.539,228.897 236.540,228.721 236.649 C 228.544 236.758,228.400 237.366,228.400 238.000 C 228.400 238.634,228.220 239.264,228.000 239.400 C 227.780 239.536,227.600 240.231,227.600 240.944 C 227.600 241.657,227.394 242.446,227.142 242.698 C 226.629 243.211,227.265 245.252,228.328 246.500 C 229.755 248.176,234.800 246.971,234.800 244.954 C 234.800 244.429,234.980 244.000,235.200 244.000 C 235.420 244.000,235.600 243.280,235.600 242.400 C 235.600 241.520,235.780 240.800,236.000 240.800 C 236.220 240.800,236.400 240.457,236.400 240.038 C 236.400 239.619,236.783 238.494,237.250 237.538 C 237.718 236.582,238.226 235.530,238.379 235.200 C 238.981 233.907,240.621 230.975,241.000 230.514 C 241.220 230.247,241.625 229.759,241.900 229.431 C 242.175 229.102,242.400 228.632,242.400 228.386 C 242.400 227.911,244.610 225.670,246.726 224.000 C 250.488 221.030,246.297 214.806,242.230 217.324 M220.800 260.000 C 220.800 260.247,222.867 260.400,226.200 260.400 C 229.533 260.400,231.600 260.553,231.600 260.800 C 231.600 261.040,233.200 261.200,235.600 261.200 C 238.000 261.200,239.600 261.360,239.600 261.600 C 239.600 261.831,240.867 262.000,242.600 262.000 C 244.333 262.000,245.600 262.169,245.600 262.400 C 245.600 262.633,246.933 262.800,248.800 262.800 C 250.667 262.800,252.000 262.967,252.000 263.200 C 252.000 263.420,252.709 263.600,253.576 263.600 C 254.443 263.600,255.264 263.780,255.400 264.000 C 255.536 264.220,256.076 264.400,256.600 264.400 C 257.124 264.400,257.664 264.580,257.800 264.800 C 257.936 265.020,258.397 265.200,258.824 265.200 C 259.251 265.200,259.600 265.380,259.600 265.600 C 259.600 265.820,259.960 266.000,260.400 266.000 C 260.840 266.000,261.200 266.180,261.200 266.400 C 261.200 266.620,261.520 266.800,261.912 266.800 C 262.303 266.800,262.883 267.160,263.200 267.600 C 263.517 268.040,264.011 268.400,264.297 268.400 C 264.971 268.400,268.831 272.286,269.568 273.706 C 269.880 274.308,270.285 274.800,270.468 274.800 C 270.650 274.800,270.800 275.149,270.800 275.576 C 270.800 276.003,270.980 276.464,271.200 276.600 C 271.420 276.736,271.600 277.197,271.600 277.624 C 271.600 278.051,271.780 278.400,272.000 278.400 C 272.244 278.400,272.400 280.267,272.400 283.200 C 272.400 286.133,272.244 288.000,272.000 288.000 C 271.780 288.000,271.600 288.540,271.600 289.200 C 271.600 289.860,271.420 290.400,271.200 290.400 C 270.980 290.400,270.800 290.760,270.800 291.200 C 270.800 291.640,270.620 292.000,270.400 292.000 C 270.180 292.000,270.000 292.178,270.000 292.395 C 270.000 293.522,263.751 299.600,262.593 299.600 C 262.267 299.600,262.000 299.746,262.000 299.925 C 262.000 300.104,261.370 300.498,260.600 300.800 C 259.830 301.102,259.200 301.496,259.200 301.675 C 259.200 301.854,258.660 302.000,258.000 302.000 C 257.340 302.000,256.800 302.180,256.800 302.400 C 256.800 302.620,256.260 302.800,255.600 302.800 C 254.940 302.800,254.400 302.980,254.400 303.200 C 254.400 303.420,253.421 303.600,252.224 303.600 C 251.027 303.600,249.936 303.780,249.800 304.000 C 249.664 304.220,248.404 304.400,247.000 304.400 C 245.596 304.400,244.336 304.580,244.200 304.800 C 244.064 305.020,242.714 305.200,241.200 305.200 C 239.686 305.200,238.336 305.380,238.200 305.600 C 238.064 305.820,236.343 306.000,234.376 306.000 C 232.259 306.000,230.800 306.163,230.800 306.400 C 230.800 306.639,229.267 306.800,227.000 306.800 C 224.733 306.800,223.200 306.961,223.200 307.200 C 223.200 307.449,220.933 307.600,217.200 307.600 C 213.467 307.600,211.200 307.751,211.200 308.000 C 211.200 308.259,206.000 308.400,196.400 308.400 C 186.800 308.400,181.600 308.259,181.600 308.000 C 181.600 307.754,179.600 307.600,176.400 307.600 C 173.200 307.600,171.200 307.446,171.200 307.200 C 171.200 306.965,169.808 306.800,167.824 306.800 C 165.967 306.800,164.336 306.620,164.200 306.400 C 164.064 306.180,162.613 306.000,160.976 306.000 C 159.259 306.000,158.000 305.831,158.000 305.600 C 158.000 305.380,157.010 305.200,155.800 305.200 C 154.590 305.200,153.600 305.020,153.600 304.800 C 153.600 304.580,152.610 304.400,151.400 304.400 C 150.190 304.400,149.200 304.220,149.200 304.000 C 149.200 303.780,148.390 303.600,147.400 303.600 C 146.410 303.600,145.600 303.420,145.600 303.200 C 145.600 302.980,145.060 302.800,144.400 302.800 C 143.740 302.800,143.200 302.620,143.200 302.400 C 143.200 302.180,142.876 302.000,142.480 302.000 C 141.586 302.000,139.607 301.106,139.603 300.700 C 139.601 300.535,139.240 300.400,138.800 300.400 C 138.360 300.400,138.000 300.220,138.000 300.000 C 138.000 299.780,137.728 299.600,137.396 299.600 C 137.064 299.600,136.228 299.060,135.537 298.400 C 134.846 297.740,134.122 297.200,133.927 297.200 C 133.468 297.200,130.800 294.534,130.800 294.075 C 130.800 293.882,130.440 293.398,130.000 293.000 C 129.560 292.602,129.200 292.034,129.200 291.738 C 129.200 291.442,129.020 291.200,128.800 291.200 C 128.580 291.200,128.400 290.840,128.400 290.400 C 128.400 289.960,128.220 289.600,128.000 289.600 C 127.780 289.600,127.600 289.060,127.600 288.400 C 127.600 287.740,127.420 287.200,127.200 287.200 C 126.963 287.200,126.800 285.733,126.800 283.600 C 126.800 281.467,126.963 280.000,127.200 280.000 C 127.420 280.000,127.600 279.280,127.600 278.400 C 127.600 277.520,127.780 276.800,128.000 276.800 C 128.220 276.800,128.400 276.440,128.400 276.000 C 128.400 275.560,128.580 275.200,128.800 275.200 C 129.020 275.200,129.200 275.022,129.200 274.805 C 129.200 274.433,129.960 273.385,131.100 272.184 C 131.375 271.894,131.600 271.530,131.600 271.375 C 131.600 270.996,133.708 269.201,134.153 269.200 C 134.347 269.200,134.797 268.884,135.153 268.497 C 135.509 268.111,136.295 267.540,136.900 267.230 C 137.505 266.919,138.000 266.515,138.000 266.332 C 138.000 266.150,138.360 266.000,138.800 266.000 C 139.240 266.000,139.600 265.820,139.600 265.600 C 139.600 265.380,140.050 265.200,140.600 265.200 C 141.150 265.200,141.600 265.020,141.600 264.800 C 141.600 264.580,142.140 264.400,142.800 264.400 C 143.460 264.400,144.000 264.220,144.000 264.000 C 144.000 263.780,144.709 263.600,145.576 263.600 C 146.443 263.600,147.264 263.420,147.400 263.200 C 147.536 262.980,148.987 262.800,150.624 262.800 C 152.341 262.800,153.600 262.631,153.600 262.400 C 153.600 262.169,154.867 262.000,156.600 262.000 C 158.333 262.000,159.600 261.831,159.600 261.600 C 159.600 261.358,161.333 261.200,164.000 261.200 C 166.667 261.200,168.400 261.042,168.400 260.800 C 168.400 260.557,170.200 260.400,173.000 260.400 C 175.800 260.400,177.600 260.243,177.600 260.000 C 177.600 259.738,185.067 259.600,199.200 259.600 C 213.333 259.600,220.800 259.738,220.800 260.000 M247.700 270.598 C 246.056 272.465,247.942 276.000,250.582 276.000 C 251.362 276.000,252.000 276.180,252.000 276.400 C 252.000 276.620,252.234 276.800,252.520 276.800 C 253.256 276.800,255.193 277.741,255.197 278.100 C 255.199 278.265,255.478 278.400,255.818 278.400 C 258.539 278.400,259.875 284.364,257.681 286.714 C 257.020 287.421,256.191 288.000,255.840 288.000 C 255.488 288.000,255.200 288.180,255.200 288.400 C 255.200 288.620,254.840 288.800,254.400 288.800 C 253.960 288.800,253.600 288.980,253.600 289.200 C 253.600 289.420,253.060 289.600,252.400 289.600 C 251.740 289.600,251.200 289.780,251.200 290.000 C 251.200 290.222,250.133 290.400,248.800 290.400 C 247.467 290.400,246.400 290.578,246.400 290.800 C 246.400 291.024,245.291 291.200,243.873 291.200 C 242.484 291.200,240.369 291.380,239.173 291.600 C 236.944 292.011,230.382 292.574,219.800 293.263 C 211.956 293.773,183.119 293.764,175.200 293.248 C 163.491 292.485,158.596 292.075,156.000 291.641 C 151.435 290.877,146.901 291.050,146.600 292.000 C 146.460 292.440,146.178 292.800,145.973 292.800 C 145.768 292.800,145.600 293.348,145.600 294.018 C 145.600 295.901,147.144 297.200,149.382 297.200 C 150.382 297.200,151.200 297.380,151.200 297.600 C 151.200 297.829,152.400 298.000,154.000 298.000 C 155.600 298.000,156.800 298.171,156.800 298.400 C 156.800 298.631,158.059 298.800,159.776 298.800 C 161.413 298.800,162.864 298.980,163.000 299.200 C 163.137 299.421,164.937 299.600,167.024 299.600 C 169.275 299.600,170.800 299.762,170.800 300.000 C 170.800 300.245,172.725 300.400,175.776 300.400 C 178.663 300.400,180.857 300.568,181.000 300.800 C 181.160 301.058,188.530 301.200,201.800 301.200 C 215.070 301.200,222.440 301.058,222.600 300.800 C 222.742 300.569,224.871 300.400,227.624 300.400 C 230.541 300.400,232.400 300.244,232.400 300.000 C 232.400 299.759,234.067 299.600,236.600 299.600 C 239.133 299.600,240.800 299.441,240.800 299.200 C 240.800 298.967,242.133 298.800,244.000 298.800 C 245.867 298.800,247.200 298.633,247.200 298.400 C 247.200 298.171,248.400 298.000,250.000 298.000 C 251.600 298.000,252.800 297.829,252.800 297.600 C 252.800 297.380,253.342 297.200,254.005 297.200 C 254.668 297.200,255.523 297.040,255.905 296.844 C 256.287 296.648,257.455 296.080,258.500 295.581 C 259.545 295.082,260.400 294.523,260.400 294.337 C 260.400 294.152,260.678 294.000,261.018 294.000 C 261.663 294.000,263.600 292.280,263.600 291.706 C 263.600 291.525,263.960 291.117,264.400 290.800 C 264.840 290.483,265.200 289.903,265.200 289.512 C 265.200 289.120,265.380 288.800,265.600 288.800 C 265.820 288.800,266.000 288.080,266.000 287.200 C 266.000 286.320,266.180 285.600,266.400 285.600 C 266.620 285.600,266.800 284.801,266.800 283.824 C 266.800 282.847,266.620 281.936,266.400 281.800 C 266.180 281.664,266.000 280.843,266.000 279.976 C 266.000 279.109,265.820 278.400,265.600 278.400 C 265.380 278.400,265.200 278.164,265.200 277.875 C 265.200 277.587,264.840 276.964,264.400 276.492 C 263.960 276.020,263.600 275.523,263.600 275.388 C 263.600 274.937,262.464 274.000,261.917 274.000 C 261.620 274.000,261.117 273.640,260.800 273.200 C 260.483 272.760,259.903 272.400,259.512 272.400 C 259.120 272.400,258.800 272.220,258.800 272.000 C 258.800 271.780,258.440 271.600,258.000 271.600 C 257.560 271.600,257.200 271.420,257.200 271.200 C 257.200 270.980,256.761 270.800,256.224 270.800 C 255.687 270.800,255.136 270.620,255.000 270.400 C 254.601 269.755,248.291 269.927,247.700 270.598 M312.800 339.000 C 312.800 339.550,312.980 340.000,313.200 340.000 C 313.420 340.000,313.600 340.540,313.600 341.200 C 313.600 341.860,313.747 342.400,313.928 342.400 C 314.108 342.400,314.500 343.300,314.800 344.400 C 315.100 345.500,315.492 346.400,315.672 346.400 C 315.853 346.400,316.000 346.940,316.000 347.600 C 316.000 348.260,316.180 348.800,316.400 348.800 C 316.620 348.800,316.800 349.340,316.800 350.000 C 316.800 350.660,316.980 351.200,317.200 351.200 C 317.420 351.200,317.600 351.920,317.600 352.800 C 317.600 353.680,317.780 354.400,318.000 354.400 C 318.220 354.400,318.400 355.019,318.400 355.776 C 318.400 356.533,318.220 357.264,318.000 357.400 C 317.780 357.536,317.600 358.267,317.600 359.024 C 317.600 359.781,317.420 360.400,317.200 360.400 C 316.980 360.400,316.800 360.760,316.800 361.200 C 316.800 361.640,316.620 362.000,316.400 362.000 C 316.180 362.000,316.000 362.285,316.000 362.633 C 316.000 363.365,311.173 368.400,310.471 368.400 C 310.212 368.400,310.000 368.580,310.000 368.800 C 310.000 369.020,309.640 369.200,309.200 369.200 C 308.760 369.200,308.400 369.380,308.400 369.600 C 308.400 369.820,307.860 370.000,307.200 370.000 C 306.540 370.000,306.000 370.180,306.000 370.400 C 306.000 370.666,270.408 370.800,200.024 370.800 C 129.804 370.800,93.964 370.665,93.800 370.400 C 93.664 370.180,93.149 370.000,92.656 370.000 C 91.621 370.000,89.608 369.143,89.603 368.700 C 89.601 368.535,89.326 368.400,88.991 368.400 C 88.199 368.400,84.000 364.201,84.000 363.409 C 84.000 363.074,83.865 362.799,83.700 362.797 C 83.341 362.793,82.400 360.856,82.400 360.120 C 82.400 359.834,82.220 359.600,82.000 359.600 C 81.761 359.600,81.600 358.067,81.600 355.800 C 81.600 353.533,81.761 352.000,82.000 352.000 C 82.220 352.000,82.400 351.460,82.400 350.800 C 82.400 350.140,82.580 349.600,82.800 349.600 C 83.020 349.600,83.200 349.238,83.200 348.795 C 83.200 348.352,83.408 347.587,83.662 347.095 C 84.658 345.169,84.800 344.783,84.800 344.005 C 84.800 343.562,84.980 343.200,85.200 343.200 C 85.420 343.200,85.600 342.660,85.600 342.000 C 85.600 341.340,85.768 340.800,85.973 340.800 C 86.179 340.800,86.404 340.308,86.473 339.706 C 86.605 338.570,89.546 338.230,90.580 339.232 C 91.122 339.757,308.800 339.725,308.800 339.200 C 308.800 338.980,309.520 338.800,310.400 338.800 C 311.280 338.800,312.000 338.620,312.000 338.400 C 312.000 338.180,312.180 338.000,312.400 338.000 C 312.620 338.000,312.800 338.450,312.800 339.000 " stroke="none" fill="#040404" fill-rule="evenodd"></path><path id="path1" d="" stroke="none" fill="#080404" fill-rule="evenodd"></path><path id="path2" d="" stroke="none" fill="#080404" fill-rule="evenodd"></path><path id="path3" d="" stroke="none" fill="#080404" fill-rule="evenodd"></path><path id="path4" d="" stroke="none" fill="#080404" fill-rule="evenodd"></path></g></svg>