<svg id="svg" version="1.1" xmlns="http://www.w3.org/2000/svg" xmlns:xlink="http://www.w3.org/1999/xlink" width="400" height="400" viewBox="0, 0, 400,400"><g id="svgg"><path id="path0" d="M54.697 11.902 C 48.154 18.449,42.800 23.925,42.800 24.072 C 42.800 24.219,33.170 33.967,21.400 45.735 L 0.000 67.131 0.000 216.504 C 0.000 360.705,0.025 365.899,0.731 366.538 C 1.134 366.902,1.843 367.200,2.308 367.200 C 2.773 367.200,3.264 367.380,3.400 367.600 C 3.564 367.865,48.933 368.000,138.209 368.000 L 272.772 368.000 274.686 366.946 C 277.314 365.500,277.394 365.422,278.671 363.075 L 279.800 361.000 279.902 182.643 C 279.959 82.481,279.852 4.092,279.657 3.843 C 279.466 3.599,279.181 2.861,279.023 2.202 C 278.865 1.543,278.548 0.778,278.319 0.502 C 277.986 0.102,256.534 -0.000,172.249 -0.000 L 66.595 0.000 54.697 11.902 M260.400 182.401 L 260.400 348.801 138.300 348.701 L 16.200 348.600 16.099 213.939 L 15.999 79.277 19.299 76.044 L 22.600 72.811 22.894 75.105 C 23.270 78.044,24.413 80.259,26.445 81.989 C 29.310 84.428,28.851 84.387,53.688 84.394 L 76.376 84.400 78.488 83.431 C 81.490 82.054,82.814 80.462,83.967 76.840 C 84.261 75.916,84.400 66.048,84.400 46.007 C 84.400 29.796,84.520 16.413,84.667 16.267 C 84.813 16.120,124.413 16.000,172.667 16.000 L 260.400 16.000 260.400 182.401 M64.400 47.600 L 64.400 64.400 47.800 64.400 C 37.000 64.400,31.200 64.540,31.200 64.800 C 31.200 65.020,30.986 65.200,30.725 65.200 C 30.464 65.200,30.734 64.695,31.325 64.078 C 31.916 63.461,32.400 62.834,32.400 62.684 C 32.400 62.386,63.920 30.800,64.217 30.800 C 64.318 30.800,64.400 38.360,64.400 47.600 M287.000 32.400 C 286.864 32.620,286.429 32.800,286.033 32.800 C 285.067 32.800,281.798 35.720,281.022 37.276 C 279.280 40.768,280.609 46.893,283.597 49.144 C 285.957 50.921,286.589 51.141,290.155 51.431 L 293.600 51.710 293.600 217.855 L 293.600 384.000 171.600 384.000 L 49.600 384.000 49.600 381.526 C 49.600 376.372,47.572 372.429,43.888 370.423 C 42.251 369.532,37.075 369.231,36.600 370.000 C 36.464 370.220,35.951 370.400,35.460 370.400 C 34.426 370.400,31.657 373.104,30.543 375.200 C 29.237 377.661,29.434 395.069,30.800 397.800 L 31.800 399.800 171.358 399.901 C 267.390 399.970,311.073 399.872,311.417 399.586 C 313.300 398.023,313.200 408.221,313.200 217.303 L 313.200 39.357 312.191 37.332 C 309.820 32.575,308.140 32.000,296.609 32.000 C 290.799 32.000,287.153 32.152,287.000 32.400 M144.663 37.245 C 142.485 37.581,140.361 38.483,139.606 39.393 C 139.329 39.727,138.876 40.000,138.600 40.000 C 138.324 40.000,137.855 40.293,137.557 40.651 C 136.914 41.427,128.430 45.600,127.497 45.600 C 127.140 45.600,126.736 45.780,126.600 46.000 C 126.464 46.220,125.744 46.400,125.000 46.400 C 124.256 46.400,123.555 46.550,123.442 46.732 C 123.221 47.089,119.756 47.728,114.600 48.361 C 109.300 49.012,106.500 50.669,104.775 54.175 C 103.907 55.939,103.598 66.504,104.400 67.000 C 104.620 67.136,104.800 68.493,104.800 70.016 C 104.800 72.746,104.952 74.106,106.182 82.400 C 106.525 84.710,106.804 87.084,106.803 87.676 C 106.801 88.268,106.980 88.864,107.200 89.000 C 107.420 89.136,107.600 90.281,107.600 91.544 C 107.600 92.807,107.747 94.011,107.927 94.220 C 108.107 94.429,108.485 95.590,108.768 96.800 C 109.907 101.679,111.751 106.088,113.198 107.399 C 113.639 107.798,114.000 108.292,114.000 108.497 C 114.000 108.703,114.810 109.797,115.800 110.929 C 116.790 112.060,117.600 113.109,117.600 113.259 C 117.600 113.937,127.958 123.200,128.716 123.200 C 128.914 123.200,129.383 123.540,129.759 123.955 C 130.135 124.370,131.333 125.133,132.421 125.649 C 133.510 126.166,134.400 126.710,134.400 126.859 C 134.400 127.167,137.644 128.800,138.255 128.800 C 138.477 128.800,139.773 129.340,141.135 130.000 C 144.282 131.524,148.681 131.703,151.000 130.400 C 151.783 129.960,152.660 129.600,152.947 129.600 C 153.708 129.600,159.860 126.451,160.421 125.775 C 160.683 125.459,161.075 125.200,161.291 125.200 C 161.508 125.200,162.219 124.750,162.873 124.200 C 163.527 123.650,164.282 123.200,164.552 123.200 C 164.822 123.200,165.654 122.570,166.400 121.800 C 167.146 121.030,167.950 120.400,168.186 120.400 C 168.671 120.400,176.400 112.755,176.400 112.276 C 176.400 112.106,176.778 111.569,177.239 111.083 C 179.611 108.587,183.581 101.239,183.593 99.324 C 183.597 98.622,183.760 97.948,183.956 97.827 C 184.151 97.706,184.398 97.021,184.504 96.304 C 184.609 95.587,185.058 93.200,185.500 91.000 C 186.455 86.258,187.206 81.102,187.203 79.324 C 187.201 78.622,187.380 77.936,187.600 77.800 C 187.820 77.664,188.004 76.348,188.010 74.876 C 188.015 73.404,188.188 71.480,188.394 70.600 C 189.729 64.910,189.189 52.800,187.601 52.800 C 187.432 52.800,187.199 52.441,187.085 52.002 C 186.970 51.563,186.544 51.077,186.138 50.922 C 185.732 50.767,185.065 50.329,184.656 49.949 C 183.936 49.281,180.889 48.642,173.293 47.568 C 171.474 47.310,169.888 46.942,169.769 46.750 C 169.650 46.557,168.854 46.400,168.000 46.400 C 167.146 46.400,166.348 46.240,166.227 46.044 C 166.106 45.849,165.517 45.566,164.918 45.415 C 163.378 45.029,158.980 42.895,156.492 41.328 C 155.333 40.598,154.230 40.000,154.041 40.000 C 153.852 40.000,153.484 39.742,153.222 39.426 C 151.767 37.673,148.042 36.724,144.663 37.245 M352.000 56.017 C 347.058 56.662,342.550 58.565,338.870 61.559 C 336.449 63.530,331.600 69.435,331.600 70.414 C 331.600 70.764,331.261 71.759,330.848 72.625 C 328.693 77.134,328.800 71.524,328.800 180.355 L 328.800 280.752 329.800 283.525 C 330.350 285.049,330.800 286.759,330.800 287.325 C 330.800 287.890,330.980 288.464,331.200 288.600 C 331.420 288.736,331.600 289.199,331.600 289.629 C 331.600 290.059,331.758 290.723,331.951 291.105 C 332.441 292.076,333.102 294.323,333.421 296.104 C 333.569 296.932,333.850 297.707,334.045 297.828 C 334.240 297.949,334.400 298.457,334.400 298.957 C 334.400 299.457,334.530 299.997,334.689 300.156 C 334.848 300.315,335.286 301.650,335.663 303.123 C 337.004 308.374,337.299 309.409,337.647 310.095 C 337.841 310.477,338.000 311.141,338.000 311.571 C 338.000 312.001,338.180 312.464,338.400 312.600 C 338.620 312.736,338.800 313.289,338.800 313.829 C 338.800 314.369,338.965 315.123,339.167 315.505 C 339.368 315.887,339.831 317.280,340.194 318.600 C 340.557 319.920,341.022 321.413,341.227 321.919 C 341.432 322.424,341.600 323.333,341.600 323.939 C 341.600 324.544,341.776 325.216,341.990 325.430 C 342.352 325.792,343.803 330.775,344.283 333.305 C 344.398 333.913,344.651 334.508,344.846 334.629 C 345.041 334.749,345.200 335.161,345.200 335.545 C 345.200 337.881,348.213 342.109,350.678 343.234 C 355.646 345.501,361.425 343.418,363.836 338.491 C 364.833 336.454,365.256 335.163,366.619 330.000 C 366.939 328.790,367.841 325.730,368.624 323.200 C 369.407 320.670,370.234 317.880,370.463 317.000 C 370.691 316.120,371.040 315.087,371.239 314.705 C 371.438 314.323,371.600 313.684,371.600 313.285 C 371.600 312.886,371.761 312.389,371.958 312.180 C 372.155 311.971,372.499 310.990,372.723 310.000 C 373.458 306.756,374.448 303.015,374.787 302.200 C 375.537 300.400,377.200 294.774,377.200 294.038 C 377.200 293.603,377.380 293.136,377.600 293.000 C 377.820 292.864,378.000 292.311,378.000 291.771 C 378.000 291.231,378.163 290.477,378.363 290.095 C 378.841 289.182,380.358 284.030,381.042 281.000 C 381.488 279.023,381.585 263.440,381.592 192.500 L 381.600 106.400 382.793 106.400 L 383.986 106.400 384.113 127.700 C 384.184 139.609,384.407 149.550,384.620 150.248 C 386.160 155.303,393.053 157.986,398.000 155.457 L 399.800 154.537 399.903 124.326 L 400.005 94.115 397.269 91.548 C 393.364 87.884,390.554 86.806,384.900 86.802 L 381.600 86.800 381.600 83.051 C 381.600 79.154,380.688 74.488,379.462 72.120 C 379.098 71.416,378.800 70.654,378.800 70.428 C 378.800 67.115,367.362 57.200,363.541 57.200 C 363.160 57.200,362.749 57.041,362.629 56.847 C 362.509 56.653,361.194 56.373,359.706 56.225 C 358.218 56.077,356.460 55.894,355.800 55.817 C 355.140 55.740,353.430 55.830,352.000 56.017 M151.328 60.825 C 156.290 63.294,157.970 64.400,156.758 64.400 C 156.420 64.400,155.408 65.030,154.508 65.800 C 153.609 66.570,152.726 67.200,152.546 67.200 C 152.367 67.200,151.005 68.406,149.520 69.879 L 146.820 72.558 145.910 71.749 C 140.701 67.118,131.345 71.597,130.903 78.935 C 130.650 83.133,131.373 84.419,137.282 90.272 C 146.318 99.222,148.621 98.985,159.824 87.942 C 166.936 80.932,167.329 80.614,167.041 82.100 C 166.945 82.595,166.656 84.350,166.400 86.000 C 166.143 87.650,165.769 89.313,165.567 89.695 C 165.365 90.077,165.200 91.011,165.200 91.771 C 165.200 92.531,165.020 93.264,164.800 93.400 C 164.580 93.536,164.400 94.046,164.400 94.534 C 164.400 97.268,155.244 106.411,149.681 109.233 C 146.285 110.955,145.362 110.728,139.160 106.640 C 136.876 105.135,130.925 98.984,130.128 97.304 C 129.787 96.587,129.349 96.000,129.154 96.000 C 128.959 96.000,128.800 95.638,128.800 95.195 C 128.800 94.752,128.641 94.077,128.448 93.695 C 127.858 92.532,126.800 87.757,126.800 86.258 C 126.800 85.482,126.643 84.750,126.452 84.632 C 126.260 84.514,125.978 83.468,125.824 82.308 C 125.117 76.962,124.857 74.814,124.624 72.400 C 124.487 70.970,124.310 69.143,124.231 68.341 L 124.087 66.881 126.237 66.613 C 127.420 66.465,128.491 66.177,128.617 65.972 C 128.744 65.767,129.199 65.600,129.629 65.600 C 130.059 65.600,130.723 65.438,131.105 65.239 C 131.487 65.040,132.610 64.647,133.600 64.364 C 134.590 64.081,136.333 63.434,137.474 62.925 C 138.615 62.416,139.743 62.000,139.980 62.000 C 140.473 62.000,141.887 61.249,142.868 60.467 C 143.476 59.982,146.021 58.478,146.328 58.423 C 146.398 58.410,148.648 59.491,151.328 60.825 M359.069 76.778 C 362.013 79.458,361.787 76.855,361.912 109.518 L 362.025 138.872 360.851 138.036 C 360.205 137.576,359.310 137.200,358.862 137.200 C 358.414 137.200,357.936 137.020,357.800 136.800 C 357.658 136.571,355.596 136.400,352.976 136.400 L 348.400 136.400 348.436 108.700 L 348.472 81.000 349.538 79.032 C 351.477 75.448,356.343 74.297,359.069 76.778 M361.681 210.900 L 361.562 268.400 354.981 268.400 L 348.400 268.400 348.400 212.261 L 348.400 156.122 353.100 155.880 C 357.711 155.643,360.639 154.831,361.415 153.576 C 361.820 152.920,361.807 150.019,361.681 210.900 M71.800 162.000 C 71.664 162.220,71.152 162.400,70.661 162.400 C 69.422 162.400,66.207 165.823,65.589 167.800 C 65.314 168.680,64.898 169.816,64.664 170.325 C 64.354 170.999,64.369 171.458,64.719 172.019 C 64.984 172.443,65.200 173.146,65.200 173.582 C 65.200 176.857,69.215 180.251,74.167 181.164 C 77.524 181.782,215.320 181.777,218.633 181.158 C 226.675 179.656,230.280 173.620,227.039 167.084 C 225.785 164.556,223.527 162.400,222.132 162.400 C 221.646 162.400,221.136 162.220,221.000 162.000 C 220.837 161.736,195.537 161.600,146.400 161.600 C 97.263 161.600,71.963 161.736,71.800 162.000 M74.000 196.682 C 73.010 196.775,72.029 197.019,71.820 197.225 C 71.611 197.431,71.064 197.600,70.605 197.600 C 69.147 197.600,65.200 202.252,65.200 203.971 C 65.200 204.401,65.020 204.864,64.800 205.000 C 64.580 205.136,64.400 205.676,64.400 206.200 C 64.400 206.724,64.580 207.264,64.800 207.400 C 65.020 207.536,65.200 208.059,65.200 208.562 C 65.200 210.607,67.901 214.093,70.483 215.381 C 72.071 216.174,125.699 216.328,128.040 215.546 C 135.698 212.991,135.917 202.109,128.400 197.664 L 126.600 196.600 101.200 196.557 C 87.230 196.533,74.990 196.589,74.000 196.682 M146.000 196.695 C 145.010 196.781,144.029 197.019,143.820 197.225 C 143.611 197.431,143.064 197.600,142.605 197.600 C 141.147 197.600,137.200 202.252,137.200 203.971 C 137.200 204.401,137.020 204.864,136.800 205.000 C 136.580 205.136,136.400 205.676,136.400 206.200 C 136.400 206.724,136.580 207.264,136.800 207.400 C 137.020 207.536,137.200 208.059,137.200 208.562 C 137.200 209.881,138.227 211.747,139.840 213.360 C 142.672 216.192,139.574 216.000,182.424 216.000 L 221.124 216.000 222.807 215.102 C 224.777 214.051,227.600 210.850,227.600 209.668 C 227.600 209.217,227.780 208.736,228.000 208.600 C 230.266 207.199,225.588 198.098,222.255 197.424 C 221.565 197.284,220.100 197.010,219.000 196.814 C 217.103 196.477,149.801 196.367,146.000 196.695 M71.091 232.384 C 68.139 233.440,65.200 236.866,65.200 239.252 C 65.200 239.637,65.020 240.064,64.800 240.200 C 64.580 240.336,64.400 240.876,64.400 241.400 C 64.400 241.924,64.580 242.464,64.800 242.600 C 65.020 242.736,65.200 243.276,65.200 243.800 C 65.200 244.324,65.380 244.864,65.600 245.000 C 65.820 245.136,66.000 245.559,66.000 245.940 C 66.000 246.910,68.456 249.408,70.368 250.383 C 71.962 251.197,72.251 251.200,146.484 251.196 L 221.000 251.192 223.058 250.012 C 225.425 248.655,227.600 246.222,227.600 244.932 C 227.600 244.446,227.803 243.922,228.050 243.769 C 230.211 242.434,226.423 234.812,222.400 232.400 C 220.762 231.417,73.836 231.402,71.091 232.384 M71.434 267.435 C 68.483 268.239,65.200 271.886,65.200 274.360 C 65.200 274.796,65.020 275.264,64.800 275.400 C 64.580 275.536,64.400 276.076,64.400 276.600 C 64.400 277.124,64.580 277.664,64.800 277.800 C 65.020 277.936,65.200 278.363,65.200 278.748 C 65.200 281.051,67.937 284.277,71.074 285.671 C 73.529 286.762,176.103 286.629,178.400 285.531 C 185.941 281.929,185.361 270.592,177.485 267.661 L 175.170 266.800 124.285 266.850 C 83.147 266.890,73.023 267.002,71.434 267.435 M192.723 267.362 C 190.267 268.240,186.800 271.585,186.800 273.078 C 186.800 273.497,186.601 274.039,186.359 274.281 C 185.570 275.070,186.459 280.682,187.561 281.868 C 187.935 282.271,188.356 282.902,188.497 283.272 C 188.638 283.641,189.886 284.496,191.271 285.172 L 193.788 286.400 207.116 286.400 C 222.305 286.400,222.512 286.362,225.797 282.982 C 230.347 278.300,227.716 269.003,221.342 267.233 C 218.981 266.577,194.613 266.688,192.723 267.362 M357.827 290.100 C 357.675 291.255,357.382 292.371,357.175 292.580 C 356.969 292.789,356.800 293.363,356.800 293.856 C 356.800 294.349,356.620 294.864,356.400 295.000 C 356.180 295.136,356.000 295.666,356.000 296.178 C 356.000 296.690,355.738 297.614,355.417 298.232 L 354.834 299.355 354.565 297.669 C 354.416 296.741,354.139 295.886,353.947 295.768 C 353.756 295.649,353.600 295.124,353.600 294.600 C 353.600 294.076,353.420 293.536,353.200 293.400 C 352.980 293.264,352.800 292.634,352.800 292.000 C 352.800 291.366,352.620 290.736,352.400 290.600 C 352.180 290.464,352.000 289.823,352.000 289.176 L 352.000 288.000 355.052 288.000 L 358.103 288.000 357.827 290.100 M71.800 302.400 C 71.664 302.620,71.152 302.800,70.661 302.800 C 69.422 302.800,66.207 306.223,65.589 308.200 C 65.314 309.080,64.898 310.216,64.664 310.725 C 64.354 311.399,64.369 311.858,64.719 312.419 C 64.984 312.843,65.200 313.546,65.200 313.982 C 65.200 316.004,67.616 319.071,70.293 320.448 L 72.144 321.400 146.572 321.400 C 230.964 321.400,221.881 321.779,225.743 318.098 C 230.083 313.962,228.501 306.064,222.688 302.839 L 221.176 302.000 146.611 302.000 C 97.333 302.000,71.963 302.136,71.800 302.400 " stroke="none" fill="#040404" fill-rule="evenodd"></path><path id="path1" d="" stroke="none" fill="#080404" fill-rule="evenodd"></path><path id="path2" d="" stroke="none" fill="#080404" fill-rule="evenodd"></path><path id="path3" d="" stroke="none" fill="#080404" fill-rule="evenodd"></path><path id="path4" d="" stroke="none" fill="#080404" fill-rule="evenodd"></path></g></svg>