<svg id="svg" version="1.1" xmlns="http://www.w3.org/2000/svg" xmlns:xlink="http://www.w3.org/1999/xlink" width="400" height="400" viewBox="0, 0, 400,400"><g id="svgg"><path id="path0" d="M106.200 0.757 C 101.620 1.918,97.924 3.178,93.852 4.968 C 92.560 5.536,91.283 6.000,91.014 6.000 C 90.395 6.000,77.367 12.539,76.468 13.300 C 76.100 13.611,75.170 14.176,74.400 14.554 C 73.630 14.933,72.280 15.781,71.400 16.440 C 70.520 17.099,68.900 18.242,67.800 18.980 C 66.700 19.718,65.403 20.699,64.917 21.161 C 64.431 21.622,63.891 22.001,63.717 22.003 C 63.543 22.005,62.590 22.807,61.600 23.785 C 60.610 24.763,59.613 25.572,59.385 25.582 C 58.793 25.608,45.753 38.944,43.600 41.725 C 42.610 43.004,41.215 44.736,40.500 45.574 C 39.785 46.412,39.200 47.202,39.200 47.329 C 39.200 47.457,38.390 48.720,37.400 50.137 C 36.410 51.553,35.600 52.896,35.600 53.122 C 35.600 53.348,35.434 53.593,35.231 53.667 C 34.544 53.915,28.781 64.336,27.631 67.409 C 27.198 68.567,26.384 70.467,25.822 71.632 C 25.260 72.797,24.800 74.065,24.800 74.451 C 24.800 74.837,24.634 75.255,24.431 75.381 C 24.228 75.506,23.943 76.149,23.798 76.809 C 23.653 77.468,23.261 78.557,22.926 79.228 C 22.591 79.899,22.222 81.162,22.105 82.034 C 21.988 82.906,21.736 83.716,21.546 83.833 C 21.356 83.951,21.200 84.399,21.200 84.829 C 21.200 85.259,21.040 85.923,20.844 86.305 C 20.413 87.144,19.411 91.564,18.782 95.400 C 18.529 96.940,18.160 98.513,17.961 98.895 C 17.762 99.277,17.600 100.751,17.600 102.171 C 17.600 103.591,17.420 104.864,17.200 105.000 C 16.980 105.136,16.800 106.379,16.800 107.761 C 16.800 113.893,16.290 118.868,15.637 119.107 C 15.287 119.236,14.261 119.939,13.359 120.671 C 12.456 121.402,11.545 122.000,11.334 122.000 C 10.887 122.000,8.800 124.099,8.800 124.549 C 8.800 124.716,8.362 125.428,7.826 126.131 C 6.280 128.157,4.000 133.065,4.000 134.365 C 4.000 135.018,3.820 135.664,3.600 135.800 C 3.380 135.936,3.200 137.646,3.200 139.600 C 3.200 141.554,3.380 143.264,3.600 143.400 C 3.820 143.536,4.000 144.346,4.000 145.200 C 4.000 146.054,4.180 146.864,4.400 147.000 C 4.620 147.136,4.800 147.598,4.800 148.027 C 4.800 148.936,6.806 152.800,7.279 152.800 C 7.455 152.800,7.600 153.050,7.600 153.357 C 7.600 154.234,11.902 158.308,14.885 160.256 L 17.600 162.028 17.600 165.190 C 17.600 166.930,17.780 168.464,18.000 168.600 C 18.507 168.913,18.528 175.710,18.024 176.220 C 17.817 176.429,17.569 178.670,17.473 181.200 C 17.376 183.730,17.094 186.954,16.846 188.364 C 16.118 192.491,14.796 198.143,14.382 198.895 C 14.172 199.277,14.000 199.864,14.000 200.200 C 14.000 200.536,13.836 201.123,13.635 201.505 C 13.435 201.887,12.967 203.100,12.596 204.200 C 12.225 205.300,11.129 207.872,10.161 209.915 C 9.192 211.958,8.400 213.812,8.400 214.034 C 8.400 214.257,8.040 215.184,7.600 216.094 C 7.160 217.005,6.800 218.040,6.800 218.395 C 6.800 218.750,6.647 219.211,6.459 219.420 C 5.984 219.951,4.800 224.433,4.800 225.703 C 4.800 226.280,4.620 226.864,4.400 227.000 C 4.180 227.136,4.000 228.306,4.000 229.600 C 4.000 230.894,3.820 232.064,3.600 232.200 C 3.356 232.351,3.200 235.396,3.200 240.000 C 3.200 244.604,3.356 247.649,3.600 247.800 C 3.820 247.936,4.000 249.018,4.000 250.205 C 4.000 251.391,4.158 252.776,4.351 253.281 C 4.543 253.787,4.908 255.100,5.161 256.200 C 5.972 259.732,6.854 262.560,7.637 264.138 C 8.057 264.984,8.400 265.870,8.400 266.108 C 8.400 266.836,11.296 272.529,12.277 273.731 C 12.784 274.353,13.200 275.090,13.200 275.369 C 13.200 275.648,13.560 276.202,14.000 276.600 C 14.440 276.998,14.800 277.538,14.800 277.800 C 14.800 278.062,15.161 278.603,15.603 279.003 C 17.518 280.736,17.687 281.898,16.258 283.521 C 14.486 285.534,11.200 290.244,11.200 290.772 C 11.200 291.007,11.041 291.200,10.846 291.200 C 10.651 291.200,10.175 291.875,9.789 292.700 C 9.403 293.525,8.730 294.710,8.293 295.333 C 7.250 296.821,4.000 303.252,4.000 303.828 C 4.000 304.075,3.691 304.890,3.314 305.639 C 2.937 306.387,2.089 308.440,1.431 310.200 L 0.232 313.400 0.096 351.800 C 0.021 372.920,0.067 390.944,0.198 391.854 C 0.454 393.635,5.116 398.884,7.120 399.646 C 7.663 399.852,71.043 400.001,157.692 399.998 L 307.327 399.995 310.237 398.595 C 311.838 397.825,313.438 396.905,313.792 396.551 C 315.091 395.252,319.358 395.821,321.163 397.534 C 321.472 397.828,322.676 398.503,323.837 399.034 L 325.949 400.000 342.885 400.000 L 359.822 400.000 362.211 398.767 C 363.525 398.088,364.972 397.188,365.426 396.767 C 365.880 396.345,366.464 396.000,366.725 396.000 C 366.985 396.000,367.895 395.370,368.747 394.600 C 369.600 393.830,370.453 393.200,370.643 393.200 C 371.072 393.200,381.600 382.729,381.600 382.302 C 381.600 382.132,382.031 381.500,382.558 380.897 C 383.826 379.445,388.000 373.261,388.000 372.834 C 388.000 372.649,388.256 372.285,388.569 372.025 C 389.188 371.512,394.400 361.216,394.400 360.508 C 394.400 360.270,394.735 359.384,395.143 358.538 C 395.935 356.900,396.120 356.421,398.358 350.200 L 399.797 346.200 399.798 314.561 C 399.800 292.159,399.670 282.641,399.355 281.961 C 399.110 281.432,398.583 280.010,398.185 278.800 C 397.079 275.444,394.298 269.835,393.064 268.471 C 392.699 268.067,392.400 267.590,392.400 267.410 C 392.400 267.230,391.770 266.314,391.000 265.374 C 390.230 264.434,389.600 263.488,389.600 263.272 C 389.600 263.056,388.962 262.366,388.182 261.739 C 387.402 261.113,385.898 259.835,384.840 258.900 C 383.782 257.965,382.725 257.200,382.489 257.200 C 382.254 257.200,381.553 256.784,380.931 256.274 C 380.309 255.765,379.150 255.049,378.355 254.682 C 376.008 253.598,375.780 253.104,376.543 250.744 C 376.904 249.624,377.200 248.379,377.200 247.978 C 377.200 247.576,377.361 247.148,377.558 247.026 C 377.755 246.905,378.010 246.129,378.125 245.303 C 378.240 244.476,378.541 242.990,378.792 242.000 C 382.723 226.538,380.122 217.837,371.197 216.589 C 370.208 216.451,369.040 216.178,368.600 215.982 C 365.980 214.819,343.026 214.861,341.820 216.031 C 341.611 216.234,340.857 216.400,340.144 216.400 C 339.431 216.400,338.751 216.556,338.632 216.747 C 338.514 216.939,337.677 217.213,336.772 217.358 C 335.867 217.503,334.430 217.976,333.579 218.411 C 332.728 218.845,331.761 219.200,331.430 219.200 C 330.757 219.200,327.510 220.925,326.046 222.060 C 325.521 222.467,324.891 222.802,324.646 222.805 C 324.401 222.808,323.210 223.753,322.000 224.905 C 317.883 228.825,317.259 229.024,316.265 226.729 C 315.867 225.810,315.014 224.293,314.371 223.357 C 313.727 222.421,313.200 221.557,313.200 221.436 C 313.200 221.315,312.525 220.199,311.700 218.957 C 310.875 217.716,309.997 216.349,309.748 215.920 C 304.502 206.868,292.844 208.270,289.962 218.300 C 289.285 220.655,291.026 225.734,293.436 228.431 C 293.746 228.779,294.000 229.252,294.000 229.483 C 294.000 229.713,294.275 230.130,294.611 230.409 C 295.387 231.053,299.689 239.893,300.641 242.800 C 301.037 244.010,301.505 245.171,301.681 245.380 C 301.856 245.589,302.000 246.138,302.000 246.600 C 302.000 247.062,302.162 247.611,302.359 247.820 C 302.556 248.029,302.828 249.010,302.963 250.000 C 303.436 253.475,303.691 256.800,303.485 256.800 C 303.370 256.800,301.775 256.014,299.938 255.052 C 298.102 254.091,295.880 253.078,295.000 252.800 C 294.120 252.523,293.220 252.161,293.000 251.995 C 292.780 251.830,291.970 251.596,291.200 251.476 C 290.430 251.356,288.000 250.892,285.800 250.446 C 283.600 250.000,280.630 249.628,279.200 249.618 L 276.600 249.600 276.563 240.900 C 276.530 233.402,276.398 231.620,275.606 228.000 C 275.101 225.690,274.602 223.303,274.498 222.695 C 274.393 222.087,274.149 221.492,273.954 221.371 C 273.759 221.251,273.600 220.634,273.600 220.000 C 273.600 219.366,273.420 218.736,273.200 218.600 C 272.980 218.464,272.800 217.924,272.800 217.400 C 272.800 216.876,272.620 216.336,272.400 216.200 C 272.180 216.064,271.999 215.648,271.999 215.276 C 271.998 214.904,271.368 213.350,270.599 211.823 C 269.829 210.296,269.200 208.805,269.200 208.510 C 269.200 208.215,268.782 207.124,268.272 206.087 C 267.762 205.049,267.111 203.390,266.827 202.400 C 266.542 201.410,266.164 200.240,265.988 199.800 C 265.689 199.056,265.238 197.322,264.323 193.400 C 263.938 191.747,263.468 189.408,262.759 185.600 C 262.148 182.326,261.838 164.885,262.356 162.976 C 262.721 161.628,263.103 161.234,264.992 160.251 C 266.206 159.619,267.200 158.944,267.200 158.751 C 267.200 158.558,267.455 158.400,267.766 158.400 C 270.030 158.400,275.639 149.071,276.430 143.990 C 276.927 140.801,276.640 134.084,275.979 133.420 C 275.770 133.211,275.599 132.761,275.598 132.420 C 275.590 129.488,268.730 121.238,264.921 119.580 L 263.642 119.023 263.452 114.012 C 263.138 105.708,262.040 97.264,260.408 90.600 C 259.285 86.012,259.105 85.368,258.761 84.705 C 258.562 84.323,258.392 83.693,258.383 83.305 C 258.374 82.917,257.945 81.430,257.430 80.000 C 256.915 78.570,256.267 76.770,255.990 76.000 C 255.713 75.230,255.152 73.908,254.743 73.062 C 254.335 72.216,254.000 71.322,254.000 71.074 C 254.000 70.461,248.553 59.488,247.013 57.000 C 246.333 55.900,245.526 54.505,245.220 53.900 C 244.915 53.295,244.515 52.800,244.332 52.800 C 244.150 52.800,244.000 52.648,244.000 52.461 C 244.000 52.004,239.755 45.652,238.613 44.400 C 238.111 43.850,237.632 43.194,237.550 42.942 C 236.875 40.877,220.669 24.844,217.040 22.651 C 216.358 22.239,215.350 21.407,214.800 20.803 C 214.250 20.199,213.419 19.587,212.953 19.442 C 212.487 19.298,211.784 18.824,211.391 18.390 C 210.998 17.955,210.465 17.600,210.208 17.600 C 209.950 17.600,209.317 17.150,208.800 16.600 C 208.283 16.050,207.644 15.600,207.379 15.600 C 207.115 15.600,206.666 15.321,206.384 14.980 C 206.101 14.639,205.044 13.989,204.035 13.535 C 203.026 13.082,201.897 12.443,201.526 12.116 C 200.717 11.405,191.582 6.802,190.975 6.801 C 190.741 6.800,189.617 6.350,188.477 5.800 C 187.337 5.250,186.221 4.800,185.997 4.800 C 185.772 4.800,185.232 4.620,184.795 4.400 C 184.358 4.180,183.642 3.820,183.205 3.600 C 182.768 3.380,182.084 3.200,181.685 3.200 C 181.286 3.200,180.789 3.048,180.580 2.863 C 180.371 2.677,179.120 2.222,177.800 1.852 C 176.480 1.482,174.860 0.961,174.200 0.694 C 171.994 -0.198,109.738 -0.140,106.200 0.757 M154.200 17.635 C 156.180 17.861,158.430 18.197,159.200 18.382 C 159.970 18.567,161.500 18.939,162.600 19.208 C 163.700 19.478,165.230 19.842,166.000 20.017 C 167.784 20.424,173.029 21.825,174.611 22.317 C 175.278 22.524,176.575 23.077,177.495 23.547 C 178.415 24.016,179.414 24.400,179.716 24.400 C 180.341 24.400,193.488 30.999,194.400 31.771 C 194.730 32.050,195.270 32.377,195.600 32.498 C 195.930 32.618,196.993 33.321,197.963 34.059 C 199.958 35.576,200.734 36.119,203.236 37.748 C 204.206 38.380,205.720 39.584,206.600 40.423 C 215.181 48.608,217.601 51.016,217.604 51.378 C 217.606 51.610,218.177 52.250,218.872 52.800 C 219.568 53.350,220.719 54.700,221.430 55.800 C 222.140 56.900,223.099 58.197,223.561 58.683 C 224.022 59.169,224.400 59.723,224.400 59.914 C 224.400 60.104,224.850 60.683,225.400 61.200 C 225.950 61.717,226.400 62.285,226.400 62.462 C 226.400 62.639,226.997 63.733,227.726 64.892 C 228.456 66.052,229.360 67.667,229.737 68.483 C 230.113 69.299,230.587 70.068,230.789 70.193 C 231.349 70.539,234.733 77.713,235.981 81.200 C 236.257 81.970,236.803 83.320,237.195 84.200 C 237.587 85.080,238.093 86.520,238.321 87.400 C 238.549 88.280,239.199 90.497,239.767 92.328 C 240.335 94.158,240.793 96.228,240.784 96.928 L 240.769 98.200 240.246 97.000 C 239.958 96.340,239.425 95.553,239.061 95.251 C 238.698 94.949,238.400 94.488,238.400 94.226 C 238.400 93.965,238.076 93.402,237.680 92.975 C 237.284 92.549,236.831 91.930,236.673 91.600 C 236.515 91.270,235.840 90.280,235.172 89.400 C 234.505 88.520,233.465 87.080,232.862 86.200 C 232.259 85.320,231.106 83.920,230.299 83.089 C 229.493 82.258,228.601 81.093,228.317 80.501 C 228.032 79.908,227.396 79.222,226.903 78.976 C 226.409 78.730,225.676 78.230,225.272 77.865 C 223.998 76.712,221.208 76.515,208.993 76.717 C 197.286 76.910,185.451 76.329,184.961 75.538 C 184.847 75.352,183.514 75.200,182.000 75.200 C 180.486 75.200,179.136 75.020,179.000 74.800 C 178.864 74.580,178.317 74.400,177.784 74.400 C 176.509 74.400,167.997 72.473,167.105 71.982 C 166.723 71.772,166.136 71.600,165.800 71.600 C 165.464 71.600,164.877 71.441,164.495 71.247 C 163.395 70.688,159.421 69.200,159.028 69.200 C 158.695 69.200,151.719 65.955,150.400 65.187 C 150.070 64.994,148.343 64.097,146.563 63.192 C 144.783 62.288,142.026 60.569,140.437 59.374 C 138.848 58.178,137.424 57.192,137.274 57.182 C 137.123 57.172,136.190 56.363,135.200 55.385 C 134.210 54.407,133.215 53.605,132.990 53.603 C 132.469 53.599,126.801 47.914,126.797 47.391 C 126.795 47.176,125.993 46.190,125.015 45.200 C 124.037 44.210,123.228 43.252,123.218 43.072 C 123.177 42.334,120.719 39.200,120.181 39.200 C 119.861 39.200,119.600 39.053,119.600 38.874 C 119.600 38.345,116.727 36.892,115.075 36.585 C 110.036 35.649,106.370 38.155,103.162 44.730 C 101.054 49.049,100.447 50.012,98.100 52.770 C 97.385 53.610,96.800 54.468,96.800 54.676 C 96.800 55.147,89.835 61.999,89.352 62.003 C 89.158 62.004,88.280 62.716,87.400 63.583 C 86.520 64.451,85.606 65.170,85.370 65.180 C 85.133 65.191,84.517 65.650,84.000 66.200 C 83.483 66.750,82.850 67.200,82.592 67.200 C 82.335 67.200,81.798 67.560,81.400 68.000 C 81.002 68.440,80.496 68.800,80.276 68.800 C 80.056 68.800,79.319 69.215,78.638 69.723 C 77.059 70.901,65.636 76.501,63.000 77.390 C 61.900 77.760,60.280 78.386,59.400 78.779 C 57.353 79.694,53.036 81.065,51.096 81.418 C 50.268 81.568,49.493 81.850,49.372 82.045 C 49.251 82.240,48.454 82.400,47.600 82.400 C 46.746 82.400,45.949 82.559,45.829 82.754 C 45.549 83.206,43.200 83.563,43.200 83.154 C 43.200 82.985,43.380 82.736,43.600 82.600 C 43.820 82.464,44.000 81.997,44.000 81.563 C 44.000 80.556,50.715 66.983,52.132 65.124 C 52.720 64.354,53.200 63.516,53.200 63.262 C 53.200 63.008,53.359 62.800,53.554 62.800 C 53.749 62.800,54.203 62.215,54.563 61.500 C 55.820 59.005,63.503 49.786,67.866 45.538 C 71.408 42.090,77.676 36.813,78.238 36.806 C 78.479 36.803,79.002 36.440,79.400 36.000 C 79.798 35.560,80.335 35.200,80.592 35.200 C 80.850 35.200,81.483 34.750,82.000 34.200 C 82.517 33.650,83.095 33.200,83.286 33.200 C 83.476 33.200,84.567 32.570,85.710 31.800 C 86.854 31.030,87.983 30.400,88.219 30.400 C 88.456 30.400,88.998 30.080,89.425 29.689 C 90.277 28.908,96.003 26.000,96.689 26.000 C 96.925 26.000,98.082 25.504,99.259 24.897 C 100.437 24.290,102.480 23.448,103.800 23.026 C 105.120 22.604,106.371 22.110,106.580 21.929 C 106.789 21.748,107.434 21.600,108.013 21.600 C 108.593 21.600,109.188 21.479,109.337 21.330 C 109.768 20.899,118.071 18.845,119.476 18.821 C 120.178 18.810,120.848 18.647,120.963 18.459 C 121.760 17.170,145.062 16.592,154.200 17.635 M116.800 67.000 C 117.546 67.770,118.370 68.400,118.629 68.400 C 118.889 68.400,119.349 68.701,119.651 69.068 C 120.327 69.890,127.173 75.350,128.000 75.727 C 128.330 75.877,129.410 76.626,130.400 77.391 C 131.390 78.156,132.823 79.063,133.585 79.406 C 134.347 79.750,135.269 80.300,135.633 80.630 C 136.514 81.428,147.984 87.200,148.687 87.200 C 148.991 87.200,149.958 87.547,150.836 87.972 C 151.715 88.397,152.965 88.860,153.613 89.003 C 154.261 89.145,154.894 89.428,155.019 89.631 C 155.145 89.834,155.676 90.000,156.200 90.000 C 156.724 90.000,157.264 90.180,157.400 90.400 C 157.536 90.620,158.051 90.800,158.544 90.800 C 159.037 90.800,159.611 90.968,159.820 91.174 C 160.278 91.625,168.130 93.600,169.465 93.600 C 169.985 93.600,170.723 93.769,171.105 93.975 C 171.723 94.308,173.742 94.698,181.600 96.001 C 185.153 96.590,188.182 96.857,195.400 97.219 C 199.140 97.407,203.072 97.678,204.137 97.823 C 205.363 97.990,206.236 97.924,206.517 97.643 C 207.802 96.358,216.400 97.286,216.400 98.709 C 216.400 98.911,216.761 99.403,217.203 99.803 C 217.645 100.202,218.950 101.964,220.103 103.717 C 221.256 105.470,222.374 107.143,222.586 107.433 C 223.096 108.132,222.520 108.680,221.913 108.073 C 221.653 107.813,221.037 107.600,220.544 107.600 C 220.051 107.600,219.536 107.420,219.400 107.200 C 219.264 106.980,218.862 106.800,218.506 106.800 C 218.151 106.800,216.586 106.198,215.030 105.462 C 210.047 103.106,211.442 103.201,181.772 103.187 C 158.162 103.176,154.088 103.090,153.424 102.587 C 152.996 102.264,152.242 102.000,151.747 102.000 C 151.252 102.000,150.736 101.820,150.600 101.600 C 150.464 101.380,149.924 101.200,149.400 101.200 C 148.876 101.200,148.336 101.020,148.200 100.800 C 148.064 100.580,147.074 100.400,146.000 100.400 C 144.926 100.400,143.936 100.220,143.800 100.000 C 143.664 99.780,142.044 99.600,140.200 99.600 C 138.356 99.600,136.736 99.780,136.600 100.000 C 136.464 100.220,135.474 100.400,134.400 100.400 C 133.326 100.400,132.336 100.580,132.200 100.800 C 132.064 101.020,131.524 101.200,131.000 101.200 C 130.476 101.200,129.936 101.380,129.800 101.600 C 129.664 101.820,129.153 102.000,128.665 102.000 C 128.177 102.000,127.379 102.279,126.892 102.620 C 126.116 103.164,122.551 103.254,98.103 103.346 C 67.364 103.462,68.866 103.353,63.776 105.834 C 61.783 106.805,59.936 107.600,59.671 107.600 C 59.406 107.600,58.877 107.779,58.495 107.997 C 56.328 109.236,53.281 109.759,54.327 108.713 C 54.587 108.453,54.800 107.559,54.800 106.726 C 54.800 104.262,55.662 101.600,56.459 101.600 C 56.841 101.600,57.264 101.420,57.400 101.200 C 57.536 100.980,57.999 100.800,58.429 100.800 C 58.859 100.800,59.523 100.642,59.905 100.449 C 60.856 99.968,65.572 98.353,66.800 98.087 C 67.350 97.968,68.390 97.540,69.112 97.135 C 69.834 96.731,70.649 96.400,70.923 96.400 C 71.197 96.400,73.022 95.590,74.978 94.600 C 76.934 93.610,78.764 92.800,79.044 92.800 C 79.652 92.800,83.807 90.681,84.741 89.895 C 85.103 89.589,86.435 88.829,87.700 88.204 C 88.965 87.580,90.000 86.919,90.000 86.735 C 90.000 86.551,90.184 86.400,90.408 86.400 C 90.632 86.400,91.558 85.905,92.465 85.300 C 93.372 84.695,94.412 84.020,94.777 83.800 C 95.141 83.580,96.176 82.815,97.077 82.100 C 97.978 81.385,98.875 80.800,99.071 80.800 C 99.267 80.800,100.405 79.810,101.600 78.600 C 102.795 77.390,103.955 76.400,104.178 76.400 C 104.659 76.400,111.600 69.564,111.600 69.091 C 111.600 68.571,114.482 65.600,114.986 65.600 C 115.237 65.600,116.054 66.230,116.800 67.000 M142.908 124.200 C 143.077 126.180,143.317 129.240,143.442 130.999 C 143.566 132.759,143.809 134.379,143.981 134.599 C 144.154 134.820,144.425 135.720,144.584 136.600 C 144.743 137.480,145.216 138.955,145.636 139.878 C 146.056 140.801,146.400 141.729,146.400 141.940 C 146.400 142.565,148.120 145.600,148.474 145.600 C 148.653 145.600,148.800 145.788,148.800 146.017 C 148.800 149.176,163.414 161.183,167.276 161.197 C 167.648 161.199,168.064 161.380,168.200 161.600 C 168.336 161.820,168.966 162.000,169.600 162.000 C 170.234 162.000,170.850 162.157,170.968 162.348 C 171.809 163.710,192.463 163.765,195.800 162.415 C 196.240 162.237,197.410 161.854,198.400 161.564 C 201.334 160.705,206.300 158.219,207.791 156.863 C 208.554 156.168,209.314 155.600,209.480 155.600 C 209.982 155.600,216.000 149.455,216.000 148.943 C 216.000 148.681,216.142 148.407,216.316 148.333 C 216.807 148.127,219.062 144.626,219.800 142.926 C 220.164 142.087,220.791 140.666,221.192 139.770 C 221.594 138.873,222.245 136.533,222.640 134.570 C 223.035 132.606,223.375 130.963,223.395 130.917 C 223.470 130.751,226.756 131.823,227.040 132.107 C 227.201 132.268,227.731 132.400,228.218 132.400 C 229.708 132.400,230.088 133.301,229.854 136.281 C 229.002 147.143,228.028 153.258,226.761 155.695 C 226.562 156.077,226.400 156.741,226.400 157.171 C 226.400 157.601,226.234 158.055,226.031 158.181 C 225.828 158.306,225.536 158.980,225.383 159.678 C 225.230 160.375,224.766 161.549,224.352 162.285 C 223.938 163.022,223.600 163.868,223.600 164.166 C 223.600 164.861,220.484 171.101,219.982 171.411 C 219.774 171.540,219.172 172.587,218.646 173.737 C 218.120 174.887,217.400 176.068,217.045 176.363 C 216.690 176.657,216.400 177.066,216.400 177.270 C 216.400 177.475,215.410 178.883,214.200 180.400 C 212.990 181.917,212.000 183.290,212.000 183.452 C 212.000 183.885,199.095 196.800,198.663 196.800 C 198.462 196.800,197.618 197.385,196.788 198.100 C 194.545 200.032,191.816 201.976,190.166 202.817 C 189.362 203.227,188.411 203.811,188.052 204.114 C 187.034 204.974,178.373 209.200,177.627 209.200 C 177.260 209.200,176.789 209.356,176.580 209.546 C 175.958 210.113,170.656 212.000,169.686 212.000 C 169.193 212.000,168.477 212.172,168.095 212.381 C 167.013 212.975,158.713 214.800,157.096 214.800 C 156.299 214.800,155.536 214.980,155.400 215.200 C 155.264 215.420,153.734 215.600,152.000 215.600 C 150.266 215.600,148.736 215.780,148.600 216.000 C 148.448 216.246,145.070 216.400,139.800 216.400 C 134.530 216.400,131.152 216.246,131.000 216.000 C 130.864 215.780,129.514 215.600,128.000 215.600 C 126.486 215.600,125.136 215.420,125.000 215.200 C 124.864 214.980,124.124 214.800,123.355 214.800 C 122.587 214.800,120.662 214.527,119.079 214.192 C 117.496 213.858,115.210 213.392,114.000 213.157 C 112.790 212.922,111.487 212.565,111.105 212.365 C 110.723 212.164,110.084 212.000,109.685 212.000 C 109.286 212.000,108.789 211.856,108.580 211.681 C 108.371 211.505,107.210 211.038,106.000 210.643 C 103.170 209.719,90.247 203.380,89.597 202.597 C 89.325 202.269,88.882 202.000,88.613 202.000 C 88.344 202.000,87.798 201.640,87.400 201.200 C 87.002 200.760,86.491 200.400,86.264 200.400 C 86.037 200.400,85.442 200.015,84.941 199.544 C 84.440 199.074,83.681 198.489,83.255 198.244 C 81.849 197.439,75.837 192.151,73.800 189.928 C 70.424 186.245,67.933 183.300,67.198 182.123 C 66.812 181.505,66.115 180.603,65.648 180.117 C 65.182 179.631,64.800 179.077,64.800 178.886 C 64.800 178.696,64.350 178.117,63.800 177.600 C 63.250 177.083,62.800 176.444,62.800 176.179 C 62.800 175.915,62.548 175.489,62.241 175.234 C 61.226 174.392,54.826 160.943,54.135 158.200 C 54.024 157.760,53.784 157.040,53.601 156.600 C 53.419 156.160,52.961 154.450,52.584 152.800 C 52.207 151.150,51.741 149.278,51.549 148.640 C 51.357 148.002,51.200 146.528,51.200 145.364 C 51.200 144.200,51.020 143.136,50.800 143.000 C 50.188 142.622,50.280 133.386,50.900 132.932 C 51.354 132.599,54.017 131.646,56.300 131.001 C 57.155 130.759,57.200 130.856,57.200 132.949 C 57.200 134.161,57.356 135.249,57.546 135.367 C 57.736 135.484,57.983 136.260,58.095 137.090 C 59.212 145.404,74.103 161.200,80.824 161.200 C 81.225 161.200,81.664 161.380,81.800 161.600 C 81.936 161.820,82.541 162.000,83.144 162.000 C 83.747 162.000,84.411 162.162,84.620 162.359 C 86.244 163.894,105.591 163.900,108.495 162.367 C 108.877 162.165,109.607 162.000,110.119 162.000 C 110.964 162.000,113.410 161.130,117.232 159.468 C 118.019 159.126,118.896 158.566,119.181 158.223 C 119.465 157.880,119.901 157.598,120.149 157.597 C 120.397 157.595,121.263 156.965,122.073 156.197 C 122.884 155.428,123.711 154.800,123.912 154.800 C 124.647 154.800,130.384 148.206,130.395 147.349 C 130.398 147.101,130.678 146.667,131.018 146.385 C 132.052 145.527,135.092 138.752,135.588 136.200 C 135.845 134.880,136.223 133.149,136.427 132.354 C 136.632 131.558,136.800 128.646,136.800 125.883 C 136.800 120.170,136.624 120.431,140.400 120.538 L 142.600 120.600 142.908 124.200 M116.400 126.254 C 116.400 129.876,115.307 133.651,113.663 135.706 C 108.979 141.561,106.823 142.506,97.654 142.719 C 88.106 142.941,86.473 142.450,81.968 138.000 C 78.410 134.484,76.800 130.456,76.800 125.067 L 76.800 123.600 96.600 123.600 L 116.400 123.600 116.400 126.254 M202.800 127.178 C 202.800 133.318,199.576 138.315,193.730 141.233 L 191.000 142.596 183.946 142.723 C 178.244 142.825,176.606 142.730,175.397 142.225 C 174.575 141.881,173.592 141.600,173.213 141.600 C 172.834 141.600,172.198 141.240,171.800 140.800 C 171.402 140.360,170.886 140.000,170.655 140.000 C 168.011 140.000,163.616 131.209,163.605 125.900 L 163.600 123.600 183.200 123.600 L 202.800 123.600 202.800 127.178 M30.000 139.819 L 30.000 142.838 27.518 142.719 C 25.098 142.603,25.015 142.562,24.244 141.095 L 23.454 139.589 24.805 138.195 C 25.980 136.983,26.409 136.800,28.078 136.800 L 30.000 136.800 30.000 139.819 M255.191 137.791 C 257.422 140.165,255.825 142.800,252.156 142.800 L 250.000 142.800 250.005 140.700 C 250.015 137.125,250.212 136.800,252.377 136.800 C 253.864 136.800,254.456 137.008,255.191 137.791 M40.000 177.467 C 40.000 177.784,40.810 179.283,41.800 180.800 C 42.790 182.317,43.600 183.704,43.600 183.884 C 43.600 184.331,46.455 188.567,46.868 188.733 C 47.051 188.807,47.200 189.060,47.200 189.296 C 47.200 189.531,47.650 190.314,48.200 191.036 C 48.750 191.757,49.200 192.539,49.200 192.773 C 49.200 193.008,49.384 193.200,49.609 193.200 C 49.834 193.200,50.557 194.051,51.216 195.090 C 51.876 196.130,53.312 197.927,54.408 199.083 C 55.503 200.239,56.400 201.319,56.400 201.484 C 56.400 201.885,62.497 208.000,62.897 208.000 C 63.071 208.000,64.393 209.125,65.836 210.500 C 67.278 211.875,68.632 213.062,68.844 213.138 C 69.056 213.214,70.888 214.523,72.915 216.047 C 74.942 217.570,77.095 219.037,77.700 219.306 C 78.305 219.575,78.800 219.910,78.800 220.051 C 78.800 220.192,79.973 220.891,81.407 221.604 C 82.841 222.317,84.112 223.058,84.232 223.251 C 84.444 223.595,87.716 225.200,88.205 225.200 C 88.342 225.200,90.130 226.010,92.179 227.000 C 94.228 227.990,96.085 228.800,96.306 228.800 C 96.528 228.800,97.224 229.069,97.854 229.398 C 98.484 229.727,99.630 230.100,100.400 230.227 C 101.170 230.354,102.160 230.621,102.600 230.821 C 103.040 231.021,104.750 231.614,106.400 232.139 L 109.400 233.093 109.513 237.747 C 109.630 242.576,109.319 243.389,107.974 241.769 C 106.590 240.101,100.695 238.000,97.400 238.000 C 94.860 238.000,87.388 240.172,86.220 241.249 C 86.011 241.442,85.521 241.600,85.132 241.600 C 84.743 241.600,83.783 241.960,83.000 242.400 C 82.217 242.840,81.374 243.200,81.128 243.200 C 80.881 243.200,79.762 243.632,78.640 244.160 C 77.518 244.688,76.240 245.214,75.800 245.328 C 74.768 245.597,69.212 247.873,68.305 248.398 C 67.923 248.619,67.344 248.800,67.018 248.800 C 66.691 248.800,65.834 249.130,65.112 249.534 C 64.390 249.938,63.305 250.391,62.700 250.542 C 62.095 250.692,61.600 250.992,61.600 251.208 C 61.600 251.423,61.367 251.600,61.083 251.600 C 60.799 251.600,59.772 252.410,58.800 253.400 C 57.751 254.468,56.670 255.200,56.140 255.200 C 55.649 255.200,55.136 255.380,55.000 255.600 C 54.864 255.820,54.403 256.000,53.976 256.000 C 52.872 256.000,39.757 262.591,37.600 264.229 C 36.610 264.981,35.440 265.777,35.000 265.997 C 34.560 266.218,33.873 266.624,33.473 266.899 C 32.407 267.634,26.000 257.264,26.000 254.804 C 26.000 254.576,25.836 254.077,25.635 253.695 C 25.435 253.313,25.060 251.920,24.802 250.600 C 24.545 249.280,24.169 247.445,23.967 246.523 C 23.492 244.354,23.492 235.646,23.967 233.477 C 24.169 232.555,24.558 230.720,24.831 229.400 C 25.105 228.080,25.480 226.829,25.664 226.620 C 25.849 226.411,26.000 225.892,26.000 225.467 C 26.000 225.041,26.630 223.457,27.400 221.946 C 28.170 220.435,28.800 218.946,28.800 218.636 C 28.800 218.327,29.430 216.907,30.200 215.481 C 30.970 214.056,31.600 212.520,31.600 212.068 C 31.600 211.617,31.780 211.136,32.000 211.000 C 32.220 210.864,32.400 210.401,32.400 209.971 C 32.400 209.541,32.558 208.877,32.751 208.495 C 33.510 206.994,34.933 202.521,35.104 201.097 C 35.203 200.271,35.445 199.495,35.642 199.374 C 35.839 199.252,36.000 198.531,36.000 197.771 C 36.000 197.011,36.164 196.077,36.364 195.695 C 36.936 194.602,38.391 184.263,38.669 179.306 C 38.899 175.209,38.969 174.904,39.461 175.852 C 39.757 176.424,40.000 177.150,40.000 177.467 M242.011 184.800 C 242.473 189.808,243.479 195.791,244.044 196.895 C 244.240 197.277,244.400 198.121,244.400 198.771 C 244.400 199.421,244.580 200.064,244.800 200.200 C 245.020 200.336,245.200 201.121,245.200 201.944 C 245.200 202.767,245.350 203.611,245.532 203.820 C 245.715 204.029,246.196 205.334,246.601 206.719 C 247.007 208.105,247.487 209.330,247.669 209.443 C 247.851 209.555,248.000 209.999,248.000 210.429 C 248.000 210.859,248.180 211.568,248.400 212.005 C 248.620 212.442,248.980 213.158,249.200 213.595 C 249.420 214.032,249.600 214.580,249.600 214.813 C 249.600 215.046,250.388 216.893,251.350 218.918 C 252.313 220.943,253.405 223.680,253.777 225.000 C 254.150 226.320,254.622 227.813,254.827 228.319 C 255.032 228.824,255.200 229.733,255.200 230.339 C 255.200 230.944,255.412 231.652,255.671 231.911 C 256.353 232.593,256.374 248.586,255.693 249.267 C 255.422 249.538,255.200 250.451,255.200 251.296 C 255.200 252.930,253.868 256.000,253.159 256.000 C 252.926 256.000,251.966 256.630,251.026 257.400 C 250.086 258.170,249.160 258.800,248.968 258.800 C 248.776 258.800,247.340 260.070,245.777 261.623 L 242.935 264.445 240.627 263.248 C 239.357 262.589,238.021 261.786,237.659 261.463 C 236.990 260.866,231.354 258.152,228.800 257.196 C 228.030 256.908,227.229 256.521,227.020 256.336 C 226.811 256.151,226.351 256.000,225.999 256.000 C 224.899 256.000,221.200 253.958,221.200 253.352 C 221.200 253.034,220.885 252.663,220.500 252.527 C 220.115 252.390,219.523 252.042,219.184 251.753 C 218.086 250.817,213.825 248.810,212.924 248.805 C 212.442 248.802,211.945 248.635,211.821 248.434 C 211.697 248.233,210.291 247.578,208.697 246.980 C 207.104 246.382,205.629 245.737,205.420 245.546 C 205.211 245.356,204.733 245.200,204.358 245.200 C 203.983 245.200,202.984 244.860,202.138 244.445 C 201.292 244.029,199.250 243.197,197.600 242.596 C 195.950 241.995,193.880 241.187,193.000 240.802 C 188.153 238.679,185.577 238.000,182.367 238.000 C 178.745 238.000,174.088 239.673,172.026 241.715 L 170.375 243.349 170.487 238.184 C 170.599 233.053,170.607 233.016,171.600 232.747 C 173.824 232.143,177.436 231.021,178.000 230.758 C 178.330 230.604,179.410 230.247,180.400 229.964 C 181.390 229.681,183.133 229.034,184.274 228.525 C 185.415 228.016,186.510 227.600,186.706 227.600 C 187.221 227.600,198.780 221.735,199.552 221.082 C 199.909 220.781,200.839 220.242,201.621 219.886 C 202.403 219.529,203.376 218.869,203.783 218.419 C 204.191 217.968,204.675 217.600,204.860 217.600 C 205.045 217.600,206.638 216.475,208.400 215.100 C 210.163 213.725,212.189 212.194,212.902 211.697 C 214.790 210.383,227.600 197.522,227.600 196.941 C 227.600 196.670,228.275 195.652,229.100 194.678 C 231.447 191.907,234.510 187.567,235.447 185.687 C 235.916 184.744,236.561 183.664,236.880 183.287 C 237.199 182.909,238.199 181.118,239.102 179.307 C 241.416 174.667,241.389 174.687,241.493 177.600 C 241.545 179.030,241.778 182.270,242.011 184.800 M359.200 235.727 C 359.200 238.077,357.148 244.863,355.248 248.798 C 351.998 255.526,348.412 258.636,341.200 260.981 C 339.990 261.375,338.687 261.855,338.305 262.048 C 337.923 262.242,336.809 262.400,335.829 262.400 C 334.849 262.400,333.936 262.580,333.800 262.800 C 333.660 263.027,331.663 263.200,329.176 263.200 L 324.800 263.200 324.800 261.594 C 324.800 259.851,325.749 255.837,326.690 253.600 C 327.999 250.488,329.778 247.163,330.468 246.538 C 330.871 246.174,331.200 245.704,331.200 245.493 C 331.200 244.666,336.477 239.729,338.479 238.684 C 340.729 237.509,343.837 236.510,346.800 236.011 C 348.546 235.716,359.200 235.472,359.200 235.727 M149.591 255.200 C 149.583 273.044,149.550 273.841,148.800 274.800 C 148.370 275.350,148.014 276.025,148.009 276.300 C 148.004 276.575,147.850 276.800,147.668 276.800 C 147.485 276.800,147.080 277.295,146.768 277.900 C 146.455 278.505,144.985 280.749,143.500 282.886 C 142.015 285.023,140.800 286.958,140.800 287.186 C 140.800 288.187,139.520 287.457,138.545 285.900 C 137.960 284.965,137.327 284.140,137.140 284.067 C 136.953 283.993,136.800 283.765,136.800 283.560 C 136.800 283.355,135.360 281.066,133.600 278.472 L 130.400 273.758 130.400 255.179 L 130.400 236.600 140.000 236.600 L 149.600 236.600 149.591 255.200 M96.728 260.203 C 97.208 260.755,97.600 261.323,97.600 261.465 C 97.600 261.608,98.050 262.314,98.600 263.036 C 99.150 263.757,99.600 264.511,99.600 264.711 C 99.600 264.912,99.960 265.402,100.400 265.800 C 100.840 266.198,101.200 266.693,101.200 266.900 C 101.200 267.106,102.010 268.340,103.000 269.642 C 103.990 270.944,104.800 272.116,104.800 272.247 C 104.800 272.378,105.250 273.019,105.800 273.673 C 106.350 274.327,106.800 275.074,106.800 275.334 C 106.800 275.595,107.160 276.032,107.600 276.307 C 108.040 276.582,108.400 277.075,108.400 277.402 C 108.400 278.003,111.128 282.086,111.695 282.333 C 111.863 282.407,112.000 282.660,112.000 282.896 C 112.000 283.131,112.450 283.914,113.000 284.636 C 113.550 285.357,114.000 286.111,114.000 286.311 C 114.000 286.512,114.360 287.002,114.800 287.400 C 115.240 287.798,115.600 288.293,115.600 288.500 C 115.600 288.706,116.410 289.940,117.400 291.242 C 118.390 292.544,119.200 293.725,119.200 293.867 C 119.200 294.008,119.650 294.714,120.200 295.436 C 120.750 296.157,121.200 296.895,121.200 297.077 C 121.200 297.259,121.560 297.632,122.000 297.907 C 122.440 298.182,122.800 298.706,122.800 299.072 C 122.800 299.438,123.059 300.023,123.375 300.373 C 126.859 304.222,127.514 306.149,125.946 307.933 C 125.206 308.776,123.790 310.501,122.800 311.767 C 121.810 313.034,120.235 314.927,119.300 315.976 C 118.365 317.025,117.600 318.018,117.600 318.184 C 117.600 318.643,115.178 321.600,114.802 321.600 C 114.620 321.600,114.080 320.791,113.601 319.802 C 113.122 318.813,112.578 317.910,112.391 317.794 C 112.204 317.679,111.798 317.093,111.489 316.492 C 109.824 313.258,109.081 311.974,108.760 311.775 C 108.563 311.654,107.967 310.603,107.435 309.440 C 106.903 308.277,106.220 307.072,105.917 306.763 C 105.614 306.453,104.788 304.995,104.082 303.523 C 103.376 302.051,102.623 300.738,102.410 300.606 C 102.196 300.474,101.709 299.699,101.327 298.883 C 100.945 298.067,99.881 296.230,98.963 294.800 C 98.045 293.370,96.793 291.300,96.181 290.200 C 93.954 286.196,93.627 285.626,92.698 284.126 C 92.179 283.287,91.444 281.933,91.066 281.117 C 90.688 280.301,90.204 279.526,89.990 279.394 C 89.776 279.262,89.140 278.178,88.576 276.985 C 88.011 275.792,87.399 274.723,87.216 274.610 C 86.916 274.425,86.155 273.101,84.511 269.908 C 84.202 269.307,83.792 268.719,83.600 268.600 C 82.610 267.988,81.605 264.800,82.402 264.800 C 82.623 264.800,83.737 264.350,84.877 263.800 C 86.017 263.250,87.156 262.800,87.407 262.800 C 87.659 262.800,88.750 262.351,89.832 261.802 C 90.914 261.253,92.070 260.789,92.400 260.772 C 92.730 260.755,93.540 260.408,94.200 260.000 C 95.757 259.038,95.711 259.034,96.728 260.203 M188.592 261.054 C 190.136 261.633,191.571 262.263,191.780 262.454 C 191.989 262.644,192.442 262.800,192.786 262.800 C 193.691 262.800,198.400 265.163,198.400 265.617 C 198.400 265.828,198.245 266.000,198.055 266.000 C 197.865 266.000,197.136 267.165,196.436 268.588 C 195.735 270.012,195.009 271.271,194.822 271.386 C 194.636 271.501,193.901 272.722,193.189 274.098 C 192.477 275.474,191.558 277.078,191.147 277.662 C 190.736 278.246,190.400 278.840,190.400 278.983 C 190.400 279.126,189.590 280.483,188.600 282.000 C 187.610 283.517,186.799 284.902,186.798 285.079 C 186.797 285.255,186.251 286.210,185.585 287.200 C 184.918 288.190,184.079 289.630,183.719 290.400 C 183.360 291.170,182.824 292.087,182.527 292.438 C 182.231 292.788,181.479 294.048,180.855 295.238 C 180.232 296.427,179.064 298.469,178.261 299.776 C 177.457 301.084,176.800 302.361,176.800 302.614 C 176.800 302.868,176.484 303.362,176.099 303.711 C 175.713 304.060,174.858 305.392,174.199 306.673 C 173.539 307.953,172.788 309.225,172.529 309.499 C 172.271 309.774,171.604 310.960,171.048 312.134 C 170.492 313.309,169.759 314.502,169.419 314.784 C 169.078 315.067,168.800 315.432,168.800 315.596 C 168.800 316.350,165.792 321.200,165.325 321.200 C 165.036 321.200,163.944 320.084,162.900 318.719 C 161.855 317.355,160.415 315.578,159.700 314.771 C 158.985 313.964,158.399 313.145,158.397 312.952 C 158.395 312.758,157.593 311.790,156.615 310.800 C 155.637 309.810,154.828 308.803,154.818 308.562 C 154.808 308.321,154.440 307.798,154.000 307.400 C 152.999 306.494,152.999 305.679,154.000 304.400 C 154.430 303.850,154.786 303.267,154.791 303.105 C 154.796 302.942,155.055 302.492,155.367 302.105 C 156.152 301.129,162.000 292.372,162.000 292.172 C 162.000 292.082,162.255 291.692,162.567 291.305 C 163.352 290.329,169.200 281.572,169.200 281.372 C 169.200 281.282,169.455 280.892,169.767 280.505 C 170.917 279.076,176.400 270.724,176.400 270.401 C 176.400 270.217,176.550 270.007,176.733 269.933 C 176.916 269.860,177.748 268.720,178.581 267.400 C 183.687 259.311,183.784 259.250,188.592 261.054 M279.800 270.400 C 279.936 270.620,281.106 270.800,282.400 270.800 C 283.694 270.800,284.864 270.980,285.000 271.200 C 285.136 271.420,285.552 271.601,285.924 271.602 C 286.296 271.604,287.116 271.874,287.746 272.202 C 288.376 272.531,289.113 272.800,289.384 272.800 C 290.110 272.800,292.240 273.926,292.807 274.608 C 293.077 274.934,293.545 275.200,293.848 275.200 C 294.150 275.200,295.095 275.830,295.947 276.600 C 296.800 277.370,297.672 278.000,297.886 278.000 C 298.101 278.000,298.563 278.315,298.913 278.700 C 299.702 279.567,302.075 280.756,305.400 281.950 C 312.532 284.512,340.530 283.962,346.095 281.151 C 346.477 280.958,347.141 280.800,347.571 280.800 C 348.001 280.800,348.464 280.620,348.600 280.400 C 348.736 280.180,349.161 280.000,349.544 280.000 C 350.597 280.000,358.847 275.791,360.083 274.623 C 360.678 274.060,361.322 273.600,361.513 273.600 C 361.704 273.600,362.283 273.150,362.800 272.600 C 365.318 269.920,372.085 273.969,376.636 280.879 C 377.606 282.352,378.400 283.738,378.400 283.959 C 378.400 284.530,380.664 291.197,380.957 291.490 C 381.091 291.624,381.200 292.593,381.200 293.643 C 381.200 294.693,381.354 295.648,381.542 295.764 C 382.916 296.613,382.962 329.057,381.594 332.200 C 381.402 332.640,381.170 333.720,381.077 334.600 C 380.928 336.010,380.244 338.837,378.753 344.200 C 378.256 345.991,378.131 346.329,376.617 350.000 C 376.027 351.430,375.395 352.960,375.214 353.400 C 374.310 355.591,372.260 359.639,371.961 359.824 C 371.774 359.940,371.307 360.701,370.924 361.517 C 370.540 362.333,369.905 363.349,369.513 363.775 C 369.121 364.202,368.800 364.677,368.800 364.831 C 368.800 364.985,368.174 365.807,367.409 366.656 C 366.644 367.505,366.014 368.444,366.009 368.742 C 366.004 369.040,364.155 371.123,361.900 373.371 C 351.186 384.053,343.671 385.522,331.000 379.409 C 319.080 373.658,313.614 373.675,302.068 379.500 C 299.342 380.875,296.782 382.000,296.379 382.000 C 295.977 382.000,295.536 382.180,295.400 382.400 C 295.068 382.938,287.245 382.913,284.877 382.367 C 280.578 381.375,273.200 376.119,269.720 371.571 C 268.807 370.377,267.713 369.040,267.290 368.600 C 266.582 367.865,264.819 365.338,263.764 363.546 C 263.525 363.139,263.056 362.489,262.723 362.103 C 261.888 361.134,256.400 349.811,256.400 349.058 C 256.400 348.722,256.220 348.336,256.000 348.200 C 255.780 348.064,255.600 347.524,255.600 347.000 C 255.600 346.476,255.441 345.949,255.246 345.829 C 255.051 345.708,254.798 345.113,254.682 344.505 C 254.567 343.897,254.176 342.320,253.814 341.000 C 251.375 332.104,250.409 324.562,250.404 314.369 C 250.399 305.138,251.399 294.263,252.433 292.305 C 252.635 291.923,252.800 291.203,252.800 290.705 C 252.802 284.069,261.926 272.725,268.050 271.746 C 268.912 271.608,269.714 271.339,269.832 271.147 C 269.951 270.956,271.106 270.800,272.400 270.800 C 273.694 270.800,274.864 270.620,275.000 270.400 C 275.136 270.180,276.216 270.000,277.400 270.000 C 278.584 270.000,279.664 270.180,279.800 270.400 M63.486 275.100 C 63.630 275.485,64.074 276.035,64.474 276.323 C 64.873 276.610,65.200 277.119,65.200 277.453 C 65.200 277.787,65.973 279.261,66.917 280.730 C 67.862 282.198,69.026 284.241,69.505 285.269 C 69.983 286.296,70.561 287.252,70.788 287.393 C 71.016 287.533,71.561 288.437,72.000 289.400 C 72.439 290.363,72.978 291.263,73.198 291.399 C 73.418 291.535,74.167 292.851,74.863 294.323 C 75.559 295.795,76.436 297.360,76.814 297.800 C 77.191 298.240,77.950 299.410,78.500 300.400 C 79.051 301.390,80.154 303.342,80.951 304.738 C 81.748 306.135,82.400 307.418,82.400 307.589 C 82.400 307.761,82.666 308.123,82.990 308.392 C 83.315 308.661,84.033 309.839,84.587 311.009 C 85.140 312.179,85.824 313.375,86.107 313.668 C 86.389 313.961,87.156 315.280,87.810 316.599 C 88.465 317.918,89.315 319.234,89.700 319.522 C 90.085 319.810,90.400 320.319,90.400 320.653 C 90.400 320.987,91.173 322.461,92.117 323.930 C 93.062 325.398,94.226 327.441,94.705 328.469 C 95.183 329.496,95.755 330.449,95.977 330.586 C 96.198 330.722,96.690 331.501,97.071 332.317 C 97.452 333.133,98.317 334.700,98.994 335.800 C 99.670 336.900,100.480 338.340,100.794 339.000 C 101.107 339.660,101.670 340.560,102.045 341.000 C 102.419 341.440,103.123 342.570,103.609 343.510 C 104.703 345.630,107.389 348.437,109.177 349.329 C 112.474 350.974,119.533 349.381,121.490 346.550 C 121.881 345.986,123.685 343.642,125.500 341.343 C 127.315 339.043,128.800 336.990,128.800 336.781 C 128.800 336.571,129.070 336.400,129.400 336.400 C 129.926 336.400,130.000 339.244,130.000 359.600 L 130.000 382.800 74.262 382.800 C 20.509 382.800,18.500 382.774,17.853 382.059 C 16.724 380.811,17.201 328.265,18.368 325.400 C 18.547 324.960,18.905 323.790,19.164 322.800 C 20.314 318.404,20.890 316.574,21.232 316.220 C 21.434 316.011,21.598 315.561,21.596 315.220 C 21.581 312.690,30.050 298.599,33.974 294.627 C 35.088 293.498,36.000 292.438,36.000 292.270 C 36.000 291.781,38.886 288.800,39.364 288.795 C 39.604 288.792,40.790 287.834,42.000 286.666 C 43.210 285.498,44.470 284.420,44.800 284.271 C 45.130 284.122,46.210 283.371,47.200 282.602 C 48.190 281.832,49.372 281.039,49.826 280.839 C 50.281 280.639,51.355 279.999,52.213 279.417 C 53.921 278.258,57.474 276.501,60.600 275.270 C 63.146 274.267,63.175 274.265,63.486 275.100 M221.100 276.230 C 226.304 278.634,228.934 280.036,229.929 280.936 C 230.333 281.301,230.840 281.600,231.057 281.600 C 232.114 281.600,233.743 283.984,233.310 284.895 C 232.594 286.399,230.800 295.837,230.800 298.100 C 230.800 298.899,230.620 299.664,230.400 299.800 C 229.887 300.117,229.854 329.733,230.366 330.705 C 230.567 331.087,230.938 332.930,231.191 334.800 C 231.734 338.821,232.725 343.519,233.236 344.495 C 233.436 344.877,233.600 345.541,233.600 345.971 C 233.600 346.401,233.756 346.849,233.947 346.968 C 234.139 347.086,234.414 347.929,234.560 348.841 C 234.706 349.753,235.180 351.277,235.613 352.228 C 236.046 353.178,236.400 354.141,236.400 354.366 C 236.400 354.591,236.760 355.417,237.200 356.200 C 237.640 356.983,238.000 357.871,238.000 358.174 C 238.000 358.974,244.445 371.600,244.854 371.600 C 245.044 371.600,245.200 371.786,245.200 372.013 C 245.200 372.438,249.086 378.222,250.567 380.000 C 251.025 380.550,251.627 381.405,251.903 381.900 L 252.407 382.800 201.403 382.800 L 150.400 382.800 150.417 359.500 L 150.434 336.200 152.016 338.000 C 152.886 338.990,153.598 339.900,153.599 340.023 C 153.600 340.145,154.410 341.115,155.400 342.178 C 156.390 343.241,157.200 344.320,157.200 344.574 C 157.200 344.829,157.875 345.679,158.700 346.464 C 160.023 347.721,160.867 348.261,163.695 349.657 C 167.194 351.385,174.011 348.452,175.913 344.400 C 176.274 343.630,176.803 342.761,177.088 342.468 C 177.373 342.175,178.067 340.964,178.629 339.776 C 179.191 338.588,179.801 337.523,179.984 337.410 C 180.167 337.297,180.712 336.438,181.196 335.502 C 181.679 334.566,182.385 333.440,182.765 333.000 C 183.144 332.560,184.037 330.990,184.747 329.512 C 185.457 328.033,186.210 326.717,186.420 326.587 C 186.630 326.458,187.161 325.563,187.600 324.600 C 188.039 323.637,188.582 322.735,188.807 322.596 C 189.032 322.456,189.847 321.013,190.618 319.389 C 191.389 317.764,192.205 316.321,192.431 316.181 C 192.657 316.041,193.371 314.834,194.018 313.498 C 194.665 312.162,195.446 310.783,195.753 310.434 C 196.060 310.085,196.800 308.853,197.399 307.697 C 197.998 306.540,198.625 305.508,198.794 305.404 C 198.962 305.300,199.701 303.996,200.437 302.507 C 201.172 301.018,202.006 299.561,202.290 299.268 C 202.574 298.975,203.267 297.764,203.829 296.576 C 204.391 295.388,205.001 294.323,205.184 294.210 C 205.367 294.097,205.912 293.238,206.396 292.302 C 206.879 291.366,207.585 290.240,207.965 289.800 C 208.344 289.360,209.237 287.790,209.947 286.312 C 210.657 284.833,211.410 283.517,211.620 283.387 C 211.830 283.258,212.361 282.363,212.800 281.400 C 213.239 280.437,213.789 279.531,214.022 279.387 C 214.255 279.243,214.896 278.140,215.446 276.936 C 216.597 274.420,217.058 274.363,221.100 276.230 M267.562 278.169 C 262.598 281.812,261.809 289.073,265.917 293.309 C 275.472 303.163,289.664 289.663,280.644 279.300 C 280.213 278.805,279.622 278.400,279.330 278.400 C 279.039 278.400,278.800 278.220,278.800 278.000 C 278.800 277.780,278.361 277.600,277.824 277.600 C 277.287 277.600,276.736 277.420,276.600 277.200 C 275.909 276.083,269.463 276.774,267.562 278.169 M263.074 303.780 C 262.234 304.079,261.230 304.611,260.842 304.962 C 260.454 305.313,259.939 305.600,259.697 305.600 C 259.456 305.600,258.676 306.815,257.964 308.300 L 256.670 311.000 256.753 318.789 C 256.799 323.073,256.992 327.303,257.182 328.189 C 257.373 329.075,257.654 331.466,257.807 333.503 C 257.960 335.539,258.246 337.305,258.443 337.426 C 258.639 337.548,258.800 338.706,258.800 340.000 C 258.800 341.294,258.980 342.464,259.200 342.600 C 259.420 342.736,259.600 343.456,259.600 344.200 C 259.600 344.944,259.780 345.664,260.000 345.800 C 260.220 345.936,260.403 346.442,260.406 346.924 C 260.413 347.929,261.700 352.234,262.120 352.653 C 262.274 352.807,262.400 353.221,262.400 353.573 C 262.400 355.574,265.860 360.700,268.286 362.292 C 270.028 363.436,275.140 363.435,277.614 362.292 C 283.803 359.430,285.091 353.087,281.206 344.600 C 281.005 344.160,280.376 341.550,279.808 338.800 C 279.240 336.050,278.601 333.247,278.388 332.572 C 278.175 331.896,278.000 330.589,278.000 329.666 C 278.000 328.744,277.830 327.677,277.622 327.295 C 277.414 326.913,277.082 322.766,276.885 318.080 C 276.554 310.235,276.457 309.474,275.659 308.480 C 275.183 307.886,274.619 306.995,274.406 306.500 C 274.194 306.005,273.773 305.600,273.472 305.600 C 273.171 305.600,272.615 305.259,272.237 304.841 C 270.854 303.313,265.969 302.747,263.074 303.780 M162.000 357.666 C 157.180 360.454,154.870 368.540,157.948 371.854 C 158.329 372.264,158.762 372.919,158.911 373.309 C 159.060 373.699,159.501 374.140,159.891 374.289 C 160.281 374.438,160.920 374.857,161.311 375.220 C 164.908 378.559,175.600 375.502,175.600 371.134 C 175.600 370.756,175.780 370.336,176.000 370.200 C 176.220 370.064,176.400 369.369,176.400 368.656 C 176.400 367.943,176.596 367.164,176.835 366.925 C 177.148 366.612,177.148 366.415,176.835 366.222 C 176.596 366.074,176.400 365.361,176.400 364.638 C 176.400 358.903,167.398 354.545,162.000 357.666 " stroke="none" fill="#040404" fill-rule="evenodd"></path><path id="path1" d="" stroke="none" fill="#080404" fill-rule="evenodd"></path><path id="path2" d="" stroke="none" fill="#080404" fill-rule="evenodd"></path><path id="path3" d="" stroke="none" fill="#080404" fill-rule="evenodd"></path><path id="path4" d="" stroke="none" fill="#080404" fill-rule="evenodd"></path></g></svg>