<svg id="svg" version="1.1" xmlns="http://www.w3.org/2000/svg" xmlns:xlink="http://www.w3.org/1999/xlink" width="400" height="400" viewBox="0, 0, 400,400"><g id="svgg"><path id="path0" d="M243.750 1.434 C 237.803 3.411,233.157 5.867,228.190 9.659 L 223.958 12.891 214.492 12.619 C 179.273 11.609,157.641 46.233,173.969 77.480 C 176.433 82.195,185.180 92.188,186.844 92.188 C 187.205 92.188,187.500 96.758,187.500 102.344 L 187.500 112.500 182.813 112.500 C 175.034 112.500,175.000 112.582,175.000 131.250 C 175.000 149.918,175.034 150.000,182.812 150.000 L 187.500 150.000 187.500 153.125 C 187.500 156.169,187.430 156.250,184.795 156.250 C 176.767 156.250,167.187 163.312,164.130 171.483 C 157.691 188.694,169.222 206.250,186.965 206.250 L 191.840 206.250 193.968 211.134 C 197.891 220.140,208.403 232.549,216.602 237.852 L 218.750 239.242 218.750 250.871 L 218.750 262.500 206.250 262.500 L 193.750 262.500 193.747 255.664 C 193.743 246.206,189.910 240.637,183.398 240.628 C 181.302 240.625,181.250 240.516,181.250 236.091 C 181.250 220.001,161.766 209.830,147.697 218.576 L 143.750 221.029 139.717 218.522 C 135.903 216.151,135.275 216.016,128.125 216.016 C 120.975 216.016,120.347 216.151,116.533 218.522 L 112.500 221.029 108.467 218.522 C 102.419 214.762,91.331 214.762,85.283 218.522 L 81.250 221.029 77.303 218.576 C 63.234 209.830,43.750 220.001,43.750 236.091 C 43.750 240.516,43.698 240.625,41.602 240.628 C 38.680 240.632,34.688 243.199,32.808 246.282 C 31.354 248.666,31.256 250.255,31.253 271.289 L 31.250 293.750 25.977 293.753 C 12.898 293.760,12.507 294.877,12.503 332.227 L 12.500 362.500 7.813 362.500 C 0.034 362.500,0.000 362.582,0.000 381.250 C 0.000 395.833,0.104 396.979,1.562 398.438 C 4.031 400.906,383.469 400.906,385.937 398.437 C 388.049 396.326,388.373 308.877,386.301 300.089 C 383.234 287.081,373.284 274.405,361.239 268.161 C 351.022 262.865,348.497 262.525,319.336 262.512 L 293.750 262.500 293.750 250.871 L 293.750 239.242 295.898 237.852 C 304.097 232.549,314.609 220.140,318.532 211.134 L 320.660 206.250 325.535 206.250 C 339.685 206.250,350.000 195.709,350.000 181.250 C 350.000 167.879,339.630 156.250,327.705 156.250 C 325.070 156.250,325.000 156.169,325.000 153.125 L 325.000 150.000 329.688 150.000 C 337.466 150.000,337.500 149.918,337.500 131.250 C 337.500 112.582,337.466 112.500,329.688 112.500 L 325.000 112.500 325.000 102.344 C 325.000 96.758,325.282 92.188,325.627 92.188 C 325.972 92.188,328.141 90.342,330.446 88.086 C 359.763 59.405,339.174 11.434,298.056 12.619 L 288.637 12.891 283.186 8.808 C 272.435 0.755,255.383 -2.433,243.750 1.434 M268.926 15.774 C 271.534 16.993,275.406 19.846,278.209 22.615 C 283.910 28.246,285.086 28.643,290.974 26.932 C 324.336 17.233,345.007 59.154,317.712 81.153 L 312.500 85.354 312.500 98.927 L 312.500 112.500 256.250 112.500 L 200.000 112.500 200.000 98.927 L 200.000 85.354 194.788 81.153 C 167.352 59.041,187.758 17.795,221.601 26.956 C 227.254 28.486,230.236 27.835,232.349 24.611 C 238.960 14.522,256.950 10.175,268.926 15.774 M325.000 131.250 L 325.000 137.500 256.250 137.500 L 187.500 137.500 187.500 131.250 L 187.500 125.000 256.250 125.000 L 325.000 125.000 325.000 131.250 M312.479 164.258 C 312.433 194.997,309.122 206.256,296.147 219.788 C 274.286 242.587,238.214 242.587,216.353 219.788 C 203.378 206.256,200.067 194.997,200.021 164.258 L 200.000 150.000 256.250 150.000 L 312.500 150.000 312.479 164.258 M220.313 164.063 C 216.298 168.077,219.266 175.000,225.000 175.000 C 229.167 175.000,231.250 172.917,231.250 168.750 C 231.250 166.667,230.729 165.104,229.688 164.063 C 228.646 163.021,227.083 162.500,225.000 162.500 C 222.917 162.500,221.354 163.021,220.313 164.063 M282.813 164.063 C 278.798 168.077,281.766 175.000,287.500 175.000 C 291.667 175.000,293.750 172.917,293.750 168.750 C 293.750 166.667,293.229 165.104,292.188 164.063 C 291.146 163.021,289.583 162.500,287.500 162.500 C 285.417 162.500,283.854 163.021,282.813 164.063 M187.511 179.883 C 187.517 185.576,187.726 190.996,187.975 191.927 C 188.400 193.511,188.249 193.578,185.603 192.981 C 174.674 190.517,172.065 176.804,181.438 171.090 C 187.100 167.637,187.499 168.214,187.511 179.883 M331.062 171.090 C 340.435 176.804,337.826 190.517,326.897 192.981 C 324.251 193.578,324.100 193.511,324.525 191.927 C 324.774 190.996,324.983 185.576,324.989 179.883 C 325.001 168.214,325.400 167.637,331.062 171.090 M232.813 195.313 C 228.906 199.219,231.899 211.512,238.318 217.932 C 253.723 233.336,281.250 222.571,281.250 201.143 C 281.250 191.267,269.805 190.479,268.339 200.254 C 267.280 207.317,262.643 211.713,256.250 211.713 C 249.857 211.713,245.220 207.317,244.161 200.254 C 243.237 194.095,236.823 191.302,232.813 195.313 M71.011 230.910 C 73.109 232.675,74.983 236.784,74.996 239.648 C 74.999 240.376,72.606 240.625,65.625 240.625 C 55.394 240.625,55.673 240.782,57.058 235.792 C 58.158 231.835,61.801 228.906,65.625 228.906 C 67.711 228.906,69.359 229.519,71.011 230.910 M102.261 230.910 C 104.359 232.675,106.233 236.784,106.246 239.648 C 106.249 240.376,103.856 240.625,96.875 240.625 C 86.644 240.625,86.923 240.782,88.308 235.792 C 89.408 231.835,93.051 228.906,96.875 228.906 C 98.961 228.906,100.609 229.519,102.261 230.910 M133.511 230.910 C 135.609 232.675,137.483 236.784,137.496 239.648 C 137.499 240.376,135.106 240.625,128.125 240.625 C 117.894 240.625,118.173 240.782,119.558 235.792 C 120.658 231.835,124.301 228.906,128.125 228.906 C 130.211 228.906,131.859 229.519,133.511 230.910 M164.761 230.910 C 166.859 232.675,168.733 236.784,168.746 239.648 C 168.749 240.376,166.356 240.625,159.375 240.625 C 149.144 240.625,149.423 240.782,150.808 235.792 C 151.908 231.835,155.551 228.906,159.375 228.906 C 161.461 228.906,163.109 229.519,164.761 230.910 M237.500 247.826 C 241.959 249.330,244.244 249.539,256.250 249.539 C 268.256 249.539,270.541 249.330,275.000 247.826 C 277.793 246.885,280.342 246.109,280.664 246.104 C 280.986 246.098,281.250 249.785,281.250 254.297 L 281.250 262.500 256.250 262.500 L 231.250 262.500 231.250 254.297 C 231.250 249.785,231.514 246.098,231.836 246.104 C 232.158 246.109,234.707 246.885,237.500 247.826 M181.250 273.438 L 181.250 293.750 112.500 293.750 L 43.750 293.750 43.750 273.438 L 43.750 253.125 112.500 253.125 L 181.250 253.125 181.250 273.438 M331.250 331.250 L 331.250 387.500 278.125 387.500 L 225.000 387.500 225.000 376.563 C 225.000 363.193,224.615 362.500,217.188 362.500 L 212.500 362.500 212.497 332.227 C 212.493 294.877,212.102 293.760,199.023 293.753 L 193.750 293.750 193.750 284.375 L 193.750 275.000 262.500 275.000 L 331.250 275.000 331.250 331.250 M355.457 280.286 C 363.423 284.893,369.919 292.891,372.899 301.759 C 374.464 306.418,374.552 308.486,374.826 347.070 L 375.112 387.500 359.431 387.500 L 343.750 387.500 343.750 331.683 L 343.750 275.865 347.852 277.062 C 350.107 277.720,353.530 279.171,355.457 280.286 M200.000 334.375 L 200.000 362.500 112.500 362.500 L 25.000 362.500 25.000 334.375 L 25.000 306.250 112.500 306.250 L 200.000 306.250 200.000 334.375 M251.563 307.813 C 250.521 308.854,250.000 310.417,250.000 312.500 C 250.000 314.583,250.521 316.146,251.563 317.188 C 252.604 318.229,254.167 318.750,256.250 318.750 C 258.333 318.750,259.896 318.229,260.938 317.188 C 261.979 316.146,262.500 314.583,262.500 312.500 C 262.500 310.417,261.979 308.854,260.938 307.813 C 259.896 306.771,258.333 306.250,256.250 306.250 C 254.167 306.250,252.604 306.771,251.563 307.813 M251.563 345.313 C 250.521 346.354,250.000 347.917,250.000 350.000 C 250.000 352.083,250.521 353.646,251.563 354.688 C 252.604 355.729,254.167 356.250,256.250 356.250 C 258.333 356.250,259.896 355.729,260.938 354.688 C 261.979 353.646,262.500 352.083,262.500 350.000 C 262.500 347.917,261.979 346.354,260.938 345.313 C 259.896 344.271,258.333 343.750,256.250 343.750 C 254.167 343.750,252.604 344.271,251.563 345.313 M212.500 381.250 L 212.500 387.500 112.500 387.500 L 12.500 387.500 12.500 381.250 L 12.500 375.000 112.500 375.000 L 212.500 375.000 212.500 381.250 " stroke="none" fill="#000000" fill-rule="evenodd"></path></g></svg>