<svg id="svg" version="1.1" xmlns="http://www.w3.org/2000/svg" xmlns:xlink="http://www.w3.org/1999/xlink" width="400" height="400" viewBox="0, 0, 400,400"><g id="svgg"><path id="path0" d="M219.200 0.800 C 219.200 1.020,218.300 1.200,217.200 1.200 C 216.100 1.200,215.200 1.380,215.200 1.600 C 215.200 1.820,214.581 2.000,213.824 2.000 C 213.067 2.000,212.336 2.180,212.200 2.400 C 212.064 2.620,211.513 2.800,210.976 2.800 C 210.439 2.800,210.000 2.980,210.000 3.200 C 210.000 3.420,209.651 3.600,209.224 3.600 C 208.797 3.600,208.336 3.780,208.200 4.000 C 208.064 4.220,207.513 4.400,206.976 4.400 C 206.439 4.400,206.000 4.580,206.000 4.800 C 206.000 5.020,205.640 5.200,205.200 5.200 C 204.760 5.200,204.400 5.380,204.400 5.600 C 204.400 5.820,204.040 6.000,203.600 6.000 C 203.160 6.000,202.800 6.180,202.800 6.400 C 202.800 6.620,202.524 6.800,202.187 6.800 C 201.403 6.800,198.800 9.385,198.800 10.163 C 198.800 10.487,198.620 10.864,198.400 11.000 C 198.180 11.136,198.000 12.137,198.000 13.224 C 198.000 14.311,198.180 15.200,198.400 15.200 C 198.620 15.200,198.800 15.488,198.800 15.840 C 198.800 16.670,201.330 19.200,202.160 19.200 C 202.512 19.200,202.800 19.380,202.800 19.600 C 202.800 19.820,203.689 20.000,204.776 20.000 C 205.863 20.000,206.864 19.820,207.000 19.600 C 207.136 19.380,207.597 19.200,208.024 19.200 C 208.451 19.200,208.800 19.020,208.800 18.800 C 208.800 18.580,209.160 18.400,209.600 18.400 C 210.040 18.400,210.400 18.220,210.400 18.000 C 210.400 17.780,210.760 17.600,211.200 17.600 C 211.640 17.600,212.000 17.420,212.000 17.200 C 212.000 16.980,212.360 16.800,212.800 16.800 C 213.240 16.800,213.600 16.620,213.600 16.400 C 213.600 16.180,214.140 16.000,214.800 16.000 C 215.460 16.000,216.000 15.820,216.000 15.600 C 216.000 15.380,216.540 15.200,217.200 15.200 C 217.860 15.200,218.400 15.020,218.400 14.800 C 218.400 14.580,219.210 14.400,220.200 14.400 C 221.190 14.400,222.000 14.220,222.000 14.000 C 222.000 13.750,224.400 13.600,228.400 13.600 C 232.400 13.600,234.800 13.750,234.800 14.000 C 234.800 14.220,235.520 14.400,236.400 14.400 C 237.280 14.400,238.000 14.580,238.000 14.800 C 238.000 15.020,238.540 15.200,239.200 15.200 C 239.860 15.200,240.400 15.380,240.400 15.600 C 240.400 15.820,240.735 16.000,241.144 16.000 C 241.946 16.000,246.913 18.405,247.133 18.900 C 247.207 19.065,247.612 19.200,248.033 19.200 C 248.455 19.200,248.800 19.350,248.800 19.532 C 248.800 19.715,249.295 20.119,249.900 20.430 C 250.505 20.740,251.270 21.274,251.600 21.616 C 251.930 21.958,252.830 22.673,253.600 23.206 C 254.370 23.738,255.238 24.405,255.529 24.687 C 255.819 24.969,256.194 25.200,256.361 25.200 C 256.528 25.200,256.920 25.692,257.232 26.294 C 257.735 27.264,258.530 28.334,259.800 29.753 C 260.020 29.999,260.455 30.695,260.768 31.300 C 261.080 31.905,261.485 32.400,261.668 32.400 C 261.850 32.400,262.000 32.760,262.000 33.200 C 262.000 33.640,262.180 34.000,262.400 34.000 C 262.620 34.000,262.800 34.360,262.800 34.800 C 262.800 35.240,262.980 35.600,263.200 35.600 C 263.420 35.600,263.600 35.960,263.600 36.400 C 263.600 36.840,263.780 37.200,264.000 37.200 C 264.220 37.200,264.400 37.560,264.400 38.000 C 264.400 38.440,264.580 38.800,264.800 38.800 C 265.020 38.800,265.200 39.250,265.200 39.800 C 265.200 40.350,265.380 40.800,265.600 40.800 C 265.820 40.800,266.000 41.340,266.000 42.000 C 266.000 42.660,266.180 43.200,266.400 43.200 C 266.620 43.200,266.800 43.884,266.800 44.720 C 266.800 45.556,267.016 46.456,267.280 46.720 C 267.653 47.093,266.009 47.200,259.880 47.200 C 254.893 47.200,252.000 47.053,252.000 46.800 C 252.000 46.580,251.021 46.400,249.824 46.400 C 248.627 46.400,247.536 46.220,247.400 46.000 C 247.264 45.780,246.443 45.600,245.576 45.600 C 244.709 45.600,244.000 45.420,244.000 45.200 C 244.000 44.980,243.280 44.800,242.400 44.800 C 241.520 44.800,240.800 44.620,240.800 44.400 C 240.800 44.180,240.524 44.000,240.186 44.000 C 239.466 44.000,233.317 42.102,232.305 41.567 C 231.923 41.365,231.248 41.200,230.805 41.200 C 230.362 41.200,230.000 41.020,230.000 40.800 C 230.000 40.580,229.640 40.400,229.200 40.400 C 228.760 40.400,228.400 40.220,228.400 40.000 C 228.400 39.780,228.040 39.600,227.600 39.600 C 227.160 39.600,226.800 39.420,226.800 39.200 C 226.800 38.980,226.440 38.800,226.000 38.800 C 225.560 38.800,225.200 38.654,225.200 38.475 C 225.200 38.296,224.570 37.902,223.800 37.600 C 223.030 37.298,222.400 36.904,222.400 36.725 C 222.400 36.546,222.040 36.400,221.600 36.400 C 221.160 36.400,220.800 36.220,220.800 36.000 C 220.800 35.780,220.564 35.600,220.275 35.600 C 219.987 35.600,219.364 35.240,218.892 34.800 C 218.420 34.360,217.756 34.000,217.417 34.000 C 217.078 34.000,216.800 33.820,216.800 33.600 C 216.800 33.369,215.533 33.200,213.800 33.200 C 212.067 33.200,210.800 33.369,210.800 33.600 C 210.800 33.820,210.570 34.000,210.288 34.000 C 210.007 34.000,209.512 34.382,209.188 34.849 C 208.865 35.316,208.375 35.933,208.100 36.220 C 207.825 36.508,207.600 37.015,207.600 37.348 C 207.600 37.681,207.420 38.064,207.200 38.200 C 206.980 38.336,206.800 38.887,206.800 39.424 C 206.800 39.961,206.620 40.400,206.400 40.400 C 206.180 40.400,206.000 40.760,206.000 41.200 C 206.000 41.640,205.854 42.000,205.675 42.000 C 205.496 42.000,205.102 42.630,204.800 43.400 C 204.498 44.170,204.104 44.800,203.925 44.800 C 203.746 44.800,203.600 45.120,203.600 45.512 C 203.600 45.903,203.240 46.483,202.800 46.800 C 202.360 47.117,202.000 47.610,202.000 47.896 C 202.000 48.624,196.947 53.600,196.207 53.600 C 195.873 53.600,195.600 53.780,195.600 54.000 C 195.600 54.651,190.041 54.498,189.371 53.829 C 188.705 53.162,188.563 48.193,189.200 47.800 C 189.420 47.664,189.600 46.764,189.600 45.800 C 189.600 44.836,189.780 43.936,190.000 43.800 C 190.220 43.664,190.400 43.034,190.400 42.400 C 190.400 41.766,190.570 41.142,190.777 41.014 C 190.984 40.886,191.275 39.976,191.422 38.991 C 191.570 38.006,191.850 37.200,192.045 37.200 C 192.240 37.200,192.400 36.840,192.400 36.400 C 192.400 35.960,192.580 35.600,192.800 35.600 C 193.020 35.600,193.200 35.240,193.200 34.800 C 193.200 34.360,193.380 34.000,193.600 34.000 C 193.820 34.000,194.000 33.640,194.000 33.200 C 194.000 32.760,194.180 32.400,194.400 32.400 C 194.629 32.400,194.800 31.200,194.800 29.600 C 194.800 28.000,194.629 26.800,194.400 26.800 C 194.180 26.800,194.000 26.612,194.000 26.382 C 194.000 25.880,192.495 24.395,191.283 23.700 C 190.246 23.105,185.600 23.024,185.600 23.600 C 185.600 23.820,185.322 24.000,184.982 24.000 C 184.305 24.000,182.400 25.732,182.400 26.348 C 182.400 26.560,182.265 26.793,182.100 26.867 C 181.668 27.059,180.000 30.372,180.000 31.038 C 180.000 31.347,179.820 31.600,179.600 31.600 C 179.380 31.600,179.200 31.960,179.200 32.400 C 179.200 32.840,179.020 33.200,178.800 33.200 C 178.580 33.200,178.400 33.740,178.400 34.400 C 178.400 35.060,178.220 35.600,178.000 35.600 C 177.780 35.600,177.600 36.140,177.600 36.800 C 177.600 37.460,177.420 38.000,177.200 38.000 C 176.980 38.000,176.800 38.720,176.800 39.600 C 176.800 40.480,176.642 41.200,176.448 41.200 C 176.119 41.200,175.934 42.457,175.343 48.700 C 175.178 50.448,174.940 51.200,174.553 51.200 C 174.249 51.200,174.000 51.380,174.000 51.600 C 174.000 51.820,173.280 52.000,172.400 52.000 C 171.520 52.000,170.800 52.180,170.800 52.400 C 170.800 52.620,170.440 52.800,170.000 52.800 C 169.560 52.800,169.200 52.980,169.200 53.200 C 169.200 53.420,168.840 53.600,168.400 53.600 C 167.960 53.600,167.600 53.780,167.600 54.000 C 167.600 54.220,167.351 54.400,167.046 54.400 C 166.399 54.400,161.666 58.976,160.824 60.415 C 159.154 63.271,158.634 64.798,158.478 67.300 C 158.385 68.785,158.150 70.000,157.955 70.000 C 157.760 70.000,157.600 70.810,157.600 71.800 C 157.600 72.790,157.760 73.600,157.955 73.600 C 158.150 73.600,158.381 74.815,158.469 76.300 C 158.623 78.910,160.117 83.200,160.871 83.200 C 161.052 83.200,161.200 83.446,161.200 83.746 C 161.200 85.772,169.407 91.600,172.261 91.600 C 172.971 91.600,173.664 91.780,173.800 92.000 C 173.936 92.220,174.377 92.400,174.781 92.400 C 175.657 92.400,176.000 93.161,176.000 95.104 C 176.000 95.896,176.168 97.096,176.373 97.772 C 176.578 98.447,176.959 99.810,177.218 100.800 C 177.478 101.790,177.875 103.050,178.099 103.600 C 178.323 104.150,178.648 104.960,178.820 105.400 C 179.852 108.038,180.228 108.800,180.498 108.800 C 180.664 108.800,180.800 109.160,180.800 109.600 C 180.800 110.040,180.980 110.400,181.200 110.400 C 181.420 110.400,181.600 110.760,181.600 111.200 C 181.600 111.640,181.780 112.000,182.000 112.000 C 182.220 112.000,182.400 112.360,182.400 112.800 C 182.400 113.240,182.550 113.600,182.732 113.600 C 182.915 113.600,183.320 114.095,183.632 114.700 C 183.945 115.305,184.515 116.149,184.900 116.575 C 185.285 117.002,185.600 117.494,185.600 117.669 C 185.600 118.241,193.680 126.800,194.220 126.800 C 194.363 126.800,194.983 127.340,195.600 128.000 C 196.217 128.660,196.943 129.200,197.214 129.200 C 199.335 129.200,199.025 132.353,196.900 132.391 C 196.625 132.396,196.400 132.580,196.400 132.800 C 196.400 133.020,196.130 133.200,195.800 133.200 C 195.470 133.200,195.200 133.380,195.200 133.600 C 195.200 133.820,195.023 134.000,194.807 134.000 C 194.077 134.000,187.200 140.512,187.200 141.204 C 187.200 141.450,186.660 142.106,186.000 142.661 C 185.340 143.217,184.800 143.925,184.800 144.236 C 184.800 144.546,184.620 144.800,184.400 144.800 C 184.180 144.800,184.000 145.036,184.000 145.325 C 184.000 145.613,183.640 146.236,183.200 146.708 C 182.760 147.180,182.400 147.844,182.400 148.183 C 182.400 148.522,182.220 148.800,182.000 148.800 C 181.780 148.800,181.600 149.160,181.600 149.600 C 181.600 150.040,181.420 150.400,181.200 150.400 C 180.980 150.400,180.800 150.940,180.800 151.600 C 180.800 152.260,180.620 152.800,180.400 152.800 C 180.180 152.800,180.000 153.340,180.000 154.000 C 180.000 154.660,179.820 155.200,179.600 155.200 C 179.380 155.200,179.200 155.729,179.200 156.376 C 179.200 157.023,179.020 157.664,178.800 157.800 C 178.580 157.936,178.400 158.566,178.400 159.200 C 178.400 159.834,178.220 160.464,178.000 160.600 C 177.780 160.736,177.600 161.456,177.600 162.200 C 177.600 162.944,177.420 163.664,177.200 163.800 C 176.980 163.936,176.800 164.656,176.800 165.400 C 176.800 166.144,176.620 166.864,176.400 167.000 C 176.180 167.136,176.000 167.678,176.000 168.204 C 176.000 168.730,175.730 170.198,175.400 171.465 C 175.070 172.731,174.800 174.360,174.800 175.084 C 174.800 175.808,174.620 176.400,174.400 176.400 C 174.180 176.400,174.000 177.210,174.000 178.200 C 174.000 179.190,173.820 180.000,173.600 180.000 C 173.380 180.000,173.200 180.900,173.200 182.000 C 173.200 183.100,173.020 184.000,172.800 184.000 C 172.580 184.000,172.400 184.900,172.400 186.000 C 172.400 187.100,172.220 188.000,172.000 188.000 C 171.780 188.000,171.600 188.900,171.600 190.000 C 171.600 191.100,171.420 192.000,171.200 192.000 C 170.980 192.000,170.800 192.990,170.800 194.200 C 170.800 195.410,170.620 196.400,170.400 196.400 C 170.178 196.400,170.000 197.459,170.000 198.776 C 170.000 200.083,169.820 201.264,169.600 201.400 C 169.380 201.536,169.200 202.627,169.200 203.824 C 169.200 205.965,169.181 206.000,168.024 206.000 C 167.377 206.000,166.736 206.180,166.600 206.400 C 166.464 206.620,165.744 206.800,165.000 206.800 C 164.256 206.800,163.536 206.980,163.400 207.200 C 163.264 207.420,162.533 207.600,161.776 207.600 C 161.019 207.600,160.400 207.755,160.400 207.945 C 160.400 208.135,159.371 208.411,158.112 208.559 C 155.725 208.839,150.698 210.378,150.467 210.899 C 150.393 211.065,150.095 211.200,149.804 211.200 C 149.311 211.200,146.045 212.754,145.600 213.201 C 145.490 213.311,144.905 213.656,144.300 213.968 C 143.695 214.280,143.200 214.685,143.200 214.868 C 143.200 215.050,143.002 215.200,142.760 215.200 C 142.519 215.200,141.817 215.740,141.200 216.400 C 140.583 217.060,139.895 217.600,139.671 217.600 C 139.447 217.600,138.439 218.424,137.432 219.432 C 136.269 220.594,135.600 221.032,135.600 220.632 C 135.600 220.284,135.420 220.000,135.200 220.000 C 134.980 220.000,134.800 219.561,134.800 219.024 C 134.800 218.487,134.620 217.936,134.400 217.800 C 134.180 217.664,134.000 217.203,134.000 216.776 C 134.000 216.349,133.820 216.000,133.600 216.000 C 133.380 216.000,133.200 215.640,133.200 215.200 C 133.200 214.760,133.020 214.400,132.800 214.400 C 132.580 214.400,132.400 214.040,132.400 213.600 C 132.400 213.160,132.220 212.800,132.000 212.800 C 131.780 212.800,131.600 212.530,131.600 212.200 C 131.600 211.870,131.420 211.600,131.200 211.600 C 130.980 211.600,130.800 211.330,130.800 211.000 C 130.800 210.670,130.620 210.400,130.400 210.400 C 130.180 210.400,130.000 210.170,130.000 209.888 C 130.000 209.607,129.640 209.117,129.200 208.800 C 128.760 208.483,128.400 208.024,128.400 207.780 C 128.400 206.854,118.872 196.951,117.097 196.032 C 116.494 195.720,116.000 195.337,116.000 195.181 C 116.000 195.025,115.460 194.673,114.800 194.400 C 114.140 194.127,113.600 193.745,113.600 193.551 C 113.600 193.358,113.317 193.200,112.971 193.200 C 112.626 193.200,112.073 192.930,111.743 192.600 C 111.413 192.270,110.796 192.000,110.371 192.000 C 109.947 192.000,109.600 191.820,109.600 191.600 C 109.600 191.380,109.240 191.200,108.800 191.200 C 108.360 191.200,108.000 191.020,108.000 190.800 C 108.000 190.580,107.550 190.400,107.000 190.400 C 106.450 190.400,106.000 190.220,106.000 190.000 C 106.000 189.780,105.640 189.600,105.200 189.600 C 104.760 189.600,104.400 189.420,104.400 189.200 C 104.400 188.980,103.860 188.800,103.200 188.800 C 102.540 188.800,102.000 188.620,102.000 188.400 C 102.000 188.180,101.280 188.000,100.400 188.000 C 99.520 188.000,98.800 187.820,98.800 187.600 C 98.800 187.380,98.091 187.200,97.224 187.200 C 96.357 187.200,95.536 187.020,95.400 186.800 C 95.264 186.580,93.554 186.400,91.600 186.400 C 89.646 186.400,87.936 186.220,87.800 186.000 C 87.460 185.450,50.400 185.450,50.400 186.000 C 50.400 186.239,48.867 186.400,46.600 186.400 C 44.333 186.400,42.800 186.561,42.800 186.800 C 42.800 187.020,42.080 187.200,41.200 187.200 C 40.320 187.200,39.600 187.380,39.600 187.600 C 39.600 187.820,38.880 188.000,38.000 188.000 C 37.120 188.000,36.400 188.180,36.400 188.400 C 36.400 188.620,35.860 188.800,35.200 188.800 C 34.540 188.800,34.000 188.980,34.000 189.200 C 34.000 189.420,33.640 189.600,33.200 189.600 C 32.760 189.600,32.400 189.780,32.400 190.000 C 32.400 190.220,31.860 190.400,31.200 190.400 C 30.540 190.400,30.000 190.580,30.000 190.800 C 30.000 191.020,29.640 191.200,29.200 191.200 C 28.760 191.200,28.399 191.335,28.399 191.500 C 28.398 191.665,27.588 192.133,26.599 192.540 C 25.609 192.946,24.800 193.441,24.800 193.640 C 24.800 193.838,24.480 194.000,24.088 194.000 C 23.697 194.000,23.117 194.360,22.800 194.800 C 22.483 195.240,21.975 195.600,21.672 195.600 C 21.369 195.600,20.617 196.140,20.000 196.800 C 19.383 197.460,18.700 198.000,18.481 198.000 C 17.933 198.000,12.399 203.478,11.208 205.200 C 10.675 205.970,10.126 206.690,9.989 206.800 C 9.852 206.910,9.399 207.585,8.984 208.300 C 8.568 209.015,8.086 209.600,7.914 209.600 C 7.741 209.600,7.600 209.836,7.600 210.125 C 7.600 210.413,7.240 211.036,6.800 211.508 C 6.360 211.980,6.000 212.644,6.000 212.983 C 6.000 213.322,5.820 213.600,5.600 213.600 C 5.380 213.600,5.200 213.960,5.200 214.400 C 5.200 214.840,5.020 215.200,4.800 215.200 C 4.580 215.200,4.400 215.560,4.400 216.000 C 4.400 216.440,4.220 216.800,4.000 216.800 C 3.780 216.800,3.600 217.160,3.600 217.600 C 3.600 218.040,3.420 218.400,3.200 218.400 C 2.980 218.400,2.800 218.940,2.800 219.600 C 2.800 220.260,2.620 220.800,2.400 220.800 C 2.180 220.800,2.000 221.340,2.000 222.000 C 2.000 222.660,1.820 223.200,1.600 223.200 C 1.380 223.200,1.200 223.704,1.200 224.320 C 1.200 224.936,0.975 225.665,0.700 225.940 C -0.022 226.662,-0.022 251.338,0.700 252.060 C 0.975 252.335,1.200 253.154,1.200 253.880 C 1.200 254.606,1.380 255.200,1.600 255.200 C 1.820 255.200,2.000 255.639,2.000 256.176 C 2.000 256.713,2.180 257.264,2.400 257.400 C 2.620 257.536,2.800 258.087,2.800 258.624 C 2.800 259.161,2.980 259.600,3.200 259.600 C 3.420 259.600,3.600 259.960,3.600 260.400 C 3.600 260.840,3.780 261.200,4.000 261.200 C 4.220 261.200,4.400 261.560,4.400 262.000 C 4.400 262.440,4.580 262.800,4.800 262.800 C 5.020 262.800,5.200 263.160,5.200 263.600 C 5.200 264.040,5.380 264.400,5.600 264.400 C 5.820 264.400,6.000 264.720,6.000 265.112 C 6.000 265.503,6.360 266.083,6.800 266.400 C 7.240 266.717,7.600 267.297,7.600 267.688 C 7.600 268.080,7.747 268.400,7.926 268.400 C 8.105 268.400,8.545 268.985,8.903 269.700 C 10.040 271.971,17.496 280.000,18.467 280.000 C 18.694 280.000,19.383 280.540,20.000 281.200 C 20.617 281.860,21.369 282.400,21.672 282.400 C 21.975 282.400,22.483 282.760,22.800 283.200 C 23.117 283.640,23.614 284.000,23.905 284.000 C 24.196 284.000,24.820 284.360,25.292 284.800 C 25.764 285.240,26.387 285.600,26.675 285.600 C 26.964 285.600,27.200 285.736,27.200 285.902 C 27.200 286.069,27.695 286.408,28.300 286.656 C 28.905 286.904,29.760 287.263,30.200 287.453 C 30.711 287.675,28.869 287.840,25.100 287.911 C 21.617 287.976,19.200 288.181,19.200 288.411 C 19.200 288.625,18.480 288.800,17.600 288.800 C 16.720 288.800,16.000 288.980,16.000 289.200 C 16.000 289.420,15.550 289.600,15.000 289.600 C 14.450 289.600,14.000 289.780,14.000 290.000 C 14.000 290.220,13.674 290.400,13.275 290.400 C 12.877 290.400,12.164 290.760,11.692 291.200 C 11.220 291.640,10.586 292.000,10.283 292.000 C 9.980 292.000,9.257 292.495,8.677 293.100 C 8.097 293.705,7.212 294.590,6.711 295.067 C 5.169 296.535,3.827 298.174,3.232 299.312 C 2.920 299.911,2.515 300.400,2.332 300.400 C 2.150 300.400,2.000 300.760,2.000 301.200 C 2.000 301.640,1.820 302.000,1.600 302.000 C 1.380 302.000,1.200 302.414,1.200 302.920 C 1.200 303.426,0.975 304.065,0.700 304.340 C -0.019 305.059,-0.019 322.060,0.700 322.300 C 0.975 322.392,1.200 322.705,1.200 322.996 C 1.200 323.728,2.875 326.800,3.274 326.800 C 3.453 326.800,3.600 327.073,3.600 327.406 C 3.600 327.959,9.290 334.000,9.810 334.000 C 9.933 334.000,10.420 334.360,10.892 334.800 C 11.364 335.240,11.987 335.600,12.275 335.600 C 12.564 335.600,12.800 335.780,12.800 336.000 C 12.800 336.220,13.149 336.400,13.576 336.400 C 14.003 336.400,14.464 336.580,14.600 336.800 C 14.736 337.020,15.287 337.200,15.824 337.200 C 16.361 337.200,16.800 337.362,16.800 337.560 C 16.800 337.970,19.203 338.351,23.700 338.653 L 26.800 338.861 26.800 367.230 C 26.800 385.877,26.937 395.600,27.200 395.600 C 27.420 395.600,27.600 395.960,27.600 396.400 C 27.600 396.840,27.780 397.200,28.000 397.200 C 28.220 397.200,28.400 397.476,28.400 397.813 C 28.400 398.149,28.715 398.541,29.100 398.683 C 29.485 398.825,29.928 399.135,30.085 399.371 C 30.490 399.979,369.510 399.979,369.915 399.371 C 370.072 399.135,370.515 398.825,370.900 398.683 C 371.285 398.541,371.600 398.149,371.600 397.813 C 371.600 397.476,371.780 397.200,372.000 397.200 C 372.220 397.200,372.400 396.840,372.400 396.400 C 372.400 395.960,372.580 395.600,372.800 395.600 C 373.063 395.600,373.200 385.877,373.200 367.230 L 373.200 338.861 376.300 338.653 C 380.797 338.351,383.200 337.970,383.200 337.560 C 383.200 337.362,383.639 337.200,384.176 337.200 C 384.713 337.200,385.264 337.020,385.400 336.800 C 385.536 336.580,385.997 336.400,386.424 336.400 C 386.851 336.400,387.200 336.220,387.200 336.000 C 387.200 335.780,387.436 335.600,387.725 335.600 C 388.013 335.600,388.636 335.240,389.108 334.800 C 389.580 334.360,390.067 334.000,390.190 334.000 C 390.710 334.000,396.400 327.959,396.400 327.406 C 396.400 327.073,396.547 326.800,396.726 326.800 C 397.125 326.800,398.800 323.728,398.800 322.996 C 398.800 322.705,399.025 322.392,399.300 322.300 C 399.679 322.174,399.800 320.048,399.800 313.487 C 399.800 307.103,399.669 304.709,399.300 304.340 C 399.025 304.065,398.800 303.426,398.800 302.920 C 398.800 302.414,398.620 302.000,398.400 302.000 C 397.613 302.000,398.019 299.945,399.000 298.964 L 400.000 297.964 400.000 277.024 L 400.000 256.085 398.840 254.842 C 398.201 254.159,397.391 253.600,397.040 253.600 C 396.688 253.600,396.400 253.420,396.400 253.200 C 396.400 252.980,395.550 252.800,394.512 252.800 C 392.202 252.800,388.817 254.283,388.807 255.300 C 388.803 255.685,388.620 256.000,388.400 256.000 C 388.180 256.000,388.000 256.360,388.000 256.800 C 388.000 257.240,387.820 257.600,387.600 257.600 C 387.369 257.600,387.200 258.867,387.200 260.600 L 387.200 263.600 384.880 263.600 C 383.604 263.600,382.389 263.435,382.180 263.232 C 381.971 263.030,380.585 262.760,379.100 262.632 C 377.615 262.505,375.185 262.295,373.700 262.168 C 372.215 262.040,370.829 261.770,370.620 261.568 C 370.411 261.365,369.207 261.200,367.944 261.200 C 366.681 261.200,365.536 261.020,365.400 260.800 C 365.264 260.580,364.119 260.400,362.856 260.400 C 361.593 260.400,360.389 260.236,360.180 260.035 C 359.971 259.835,358.810 259.574,357.600 259.456 C 348.334 258.552,345.600 258.203,345.600 257.922 C 345.600 257.745,344.610 257.600,343.400 257.600 C 342.190 257.600,341.200 257.420,341.200 257.200 C 341.200 256.980,340.311 256.800,339.224 256.800 C 338.137 256.800,337.136 256.620,337.000 256.400 C 336.864 256.180,335.773 256.000,334.576 256.000 C 333.379 256.000,332.400 255.820,332.400 255.600 C 332.400 255.380,331.500 255.200,330.400 255.200 C 329.300 255.200,328.400 255.020,328.400 254.800 C 328.400 254.580,327.500 254.400,326.400 254.400 C 325.300 254.400,324.400 254.220,324.400 254.000 C 324.400 253.780,323.511 253.600,322.424 253.600 C 321.337 253.600,320.336 253.420,320.200 253.200 C 320.064 252.980,319.243 252.800,318.376 252.800 C 317.509 252.800,316.800 252.620,316.800 252.400 C 316.800 252.180,315.900 252.000,314.800 252.000 C 313.700 252.000,312.800 251.820,312.800 251.600 C 312.800 251.380,312.080 251.200,311.200 251.200 C 310.320 251.200,309.600 251.020,309.600 250.800 C 309.600 250.580,308.790 250.400,307.800 250.400 C 306.810 250.400,306.000 250.220,306.000 250.000 C 306.000 249.780,305.280 249.600,304.400 249.600 C 303.520 249.600,302.800 249.420,302.800 249.200 C 302.800 248.980,302.080 248.800,301.200 248.800 C 300.320 248.800,299.600 248.620,299.600 248.400 C 299.600 248.180,298.880 248.000,298.000 248.000 C 297.120 248.000,296.400 247.820,296.400 247.600 C 296.400 247.380,295.860 247.200,295.200 247.200 C 294.540 247.200,294.000 247.020,294.000 246.800 C 294.000 246.580,293.381 246.400,292.624 246.400 C 291.867 246.400,291.136 246.220,291.000 246.000 C 290.864 245.780,290.324 245.600,289.800 245.600 C 289.276 245.600,288.736 245.420,288.600 245.200 C 288.464 244.980,287.924 244.800,287.400 244.800 C 286.876 244.800,286.336 244.620,286.200 244.400 C 286.064 244.180,285.513 244.000,284.976 244.000 C 284.439 244.000,284.000 243.856,284.000 243.679 C 284.000 243.503,282.821 243.022,281.380 242.610 C 279.940 242.198,278.669 241.712,278.557 241.530 C 278.445 241.349,278.085 241.200,277.758 241.200 C 277.080 241.200,275.200 239.449,275.200 238.818 C 275.200 238.588,275.380 238.400,275.600 238.400 C 275.820 238.400,276.000 237.770,276.000 237.000 C 276.000 236.230,276.180 235.600,276.400 235.600 C 276.620 235.600,276.800 235.071,276.800 234.424 C 276.800 233.777,276.980 233.136,277.200 233.000 C 277.420 232.864,277.600 232.313,277.600 231.776 C 277.600 231.239,277.780 230.800,278.000 230.800 C 278.220 230.800,278.400 230.260,278.400 229.600 C 278.400 228.940,278.580 228.400,278.800 228.400 C 279.020 228.400,279.200 228.040,279.200 227.600 C 279.200 227.160,279.380 226.800,279.600 226.800 C 279.820 226.800,280.000 226.440,280.000 226.000 C 280.000 225.560,280.180 225.200,280.400 225.200 C 280.620 225.200,280.800 224.840,280.800 224.400 C 280.800 223.960,280.946 223.600,281.125 223.600 C 281.304 223.600,281.698 222.970,282.000 222.200 C 282.302 221.430,282.696 220.800,282.875 220.800 C 283.054 220.800,283.200 220.440,283.200 220.000 C 283.200 219.560,283.380 219.200,283.600 219.200 C 283.820 219.200,284.000 218.840,284.000 218.400 C 284.000 217.960,284.180 217.600,284.400 217.600 C 284.620 217.600,284.800 217.331,284.800 217.003 C 284.800 215.585,286.471 214.400,288.472 214.400 C 289.532 214.400,290.400 214.580,290.400 214.800 C 290.400 215.035,291.800 215.200,293.800 215.200 C 295.800 215.200,297.200 215.035,297.200 214.800 C 297.200 214.580,298.100 214.400,299.200 214.400 C 300.300 214.400,301.200 214.220,301.200 214.000 C 301.200 213.780,301.560 213.600,302.000 213.600 C 302.440 213.600,302.800 213.420,302.800 213.200 C 302.800 212.980,303.160 212.800,303.600 212.800 C 304.040 212.800,304.400 212.620,304.400 212.400 C 304.400 212.180,304.644 212.000,304.941 212.000 C 305.239 212.000,305.959 211.505,306.541 210.900 C 309.585 207.737,310.400 206.790,310.400 206.413 C 310.400 206.186,310.580 206.000,310.800 206.000 C 311.020 206.000,311.200 205.640,311.200 205.200 C 311.200 204.760,311.380 204.400,311.600 204.400 C 311.820 204.400,312.000 204.040,312.000 203.600 C 312.000 203.160,312.180 202.800,312.400 202.800 C 312.620 202.800,312.800 202.440,312.800 202.000 C 312.800 201.560,312.980 201.200,313.200 201.200 C 313.420 201.200,313.600 200.671,313.600 200.024 C 313.600 199.377,313.780 198.736,314.000 198.600 C 314.220 198.464,314.400 197.553,314.400 196.576 C 314.400 195.599,314.580 194.800,314.800 194.800 C 315.020 194.800,315.200 194.080,315.200 193.200 C 315.200 192.320,315.293 191.600,315.406 191.600 C 315.762 191.600,322.400 198.371,322.400 198.735 C 322.400 198.925,322.940 199.646,323.600 200.337 C 324.260 201.028,324.800 201.776,324.800 202.000 C 324.800 202.225,325.397 203.261,326.127 204.304 C 326.857 205.347,327.711 206.785,328.024 207.500 C 328.338 208.215,328.731 208.800,328.898 208.800 C 329.064 208.800,329.200 209.076,329.200 209.413 C 329.200 209.751,329.824 210.651,330.587 211.413 C 331.349 212.176,332.249 212.800,332.587 212.800 C 332.924 212.800,333.200 212.980,333.200 213.200 C 333.200 213.429,334.400 213.600,336.000 213.600 C 337.600 213.600,338.800 213.429,338.800 213.200 C 338.800 212.980,338.989 212.800,339.220 212.800 C 339.451 212.800,340.991 211.495,342.642 209.900 C 346.565 206.111,356.443 196.253,359.040 193.535 C 360.162 192.361,362.001 190.590,363.127 189.600 C 364.253 188.610,365.180 187.485,365.187 187.100 C 365.194 186.715,365.380 186.400,365.600 186.400 C 365.833 186.400,366.000 185.067,366.000 183.200 C 366.000 181.440,365.863 180.000,365.695 180.000 C 365.527 180.000,365.212 179.595,364.995 179.100 C 364.778 178.605,364.195 178.022,363.700 177.805 C 363.205 177.588,362.800 177.273,362.800 177.105 C 362.800 176.937,361.351 176.800,359.581 176.800 L 356.361 176.800 353.576 179.624 C 350.584 182.658,350.459 182.677,349.232 180.300 C 348.920 179.695,348.515 179.200,348.332 179.200 C 348.150 179.200,348.000 178.880,348.000 178.488 C 348.000 178.097,347.640 177.517,347.200 177.200 C 346.760 176.883,346.400 176.393,346.400 176.112 C 346.400 175.830,346.220 175.600,346.000 175.600 C 345.780 175.600,345.600 175.357,345.600 175.059 C 345.600 174.762,345.060 173.954,344.400 173.263 C 343.740 172.572,343.200 171.802,343.200 171.551 C 343.200 171.299,342.868 170.803,342.461 170.447 C 342.055 170.091,341.463 169.302,341.146 168.693 C 340.045 166.576,331.666 157.600,330.792 157.600 C 330.577 157.600,329.659 156.880,328.752 156.000 C 327.845 155.120,326.921 154.400,326.699 154.400 C 326.476 154.400,326.003 154.071,325.647 153.670 C 325.291 153.268,324.415 152.684,323.700 152.372 C 322.985 152.060,322.400 151.669,322.400 151.502 C 322.400 151.336,322.040 151.200,321.600 151.200 C 321.160 151.200,320.800 151.020,320.800 150.800 C 320.800 150.580,320.440 150.400,320.000 150.400 C 319.560 150.400,319.200 150.220,319.200 150.000 C 319.200 149.780,318.840 149.600,318.400 149.600 C 317.960 149.600,317.600 149.420,317.600 149.200 C 317.600 148.980,317.060 148.800,316.400 148.800 C 315.740 148.800,315.200 148.620,315.200 148.400 C 315.200 148.180,314.491 148.000,313.624 148.000 C 312.757 148.000,311.936 147.820,311.800 147.600 C 311.654 147.364,309.263 147.200,305.976 147.200 C 302.525 147.200,300.400 147.352,300.400 147.600 C 300.400 147.820,299.695 148.000,298.833 148.000 C 297.971 148.000,297.162 148.225,297.033 148.500 C 296.847 148.900,296.753 148.900,296.567 148.500 C 296.438 148.225,295.988 148.000,295.567 148.000 C 295.145 148.000,294.800 147.820,294.800 147.600 C 294.800 147.380,294.440 147.200,294.000 147.200 C 293.560 147.200,293.200 147.059,293.200 146.887 C 293.200 146.715,292.345 146.343,291.300 146.061 C 290.255 145.778,289.087 145.379,288.705 145.173 C 287.750 144.660,275.600 144.684,275.600 145.200 C 275.600 145.420,274.880 145.600,274.000 145.600 C 273.120 145.600,272.400 145.780,272.400 146.000 C 272.400 146.220,271.860 146.400,271.200 146.400 C 270.540 146.400,270.000 146.580,270.000 146.800 C 270.000 147.020,269.561 147.200,269.024 147.200 C 268.487 147.200,267.936 147.380,267.800 147.600 C 267.664 147.820,267.203 148.000,266.776 148.000 C 266.349 148.000,266.000 148.180,266.000 148.400 C 266.000 148.620,265.640 148.800,265.200 148.800 C 264.760 148.800,264.400 148.980,264.400 149.200 C 264.400 149.420,264.040 149.600,263.600 149.600 C 263.160 149.600,262.800 149.780,262.800 150.000 C 262.800 150.220,262.440 150.400,262.000 150.400 C 261.560 150.400,261.200 150.536,261.200 150.702 C 261.200 150.869,260.615 151.260,259.900 151.572 C 259.185 151.884,258.300 152.478,257.934 152.892 C 257.286 153.623,257.261 153.619,257.009 152.722 C 256.636 151.395,256.234 150.437,255.197 148.400 C 254.693 147.410,254.083 146.196,253.840 145.703 C 253.598 145.210,253.265 144.805,253.100 144.803 C 252.935 144.801,252.800 144.602,252.800 144.360 C 252.800 144.118,252.170 143.290,251.400 142.520 C 250.630 141.750,250.000 140.963,250.000 140.771 C 250.000 140.578,249.181 139.602,248.180 138.602 C 246.259 136.680,246.320 135.600,248.348 135.600 C 248.791 135.600,249.264 135.420,249.400 135.200 C 249.536 134.980,249.997 134.800,250.424 134.800 C 250.851 134.800,251.200 134.620,251.200 134.400 C 251.200 134.180,251.560 134.000,252.000 134.000 C 252.440 134.000,252.800 133.820,252.800 133.600 C 252.800 133.380,253.160 133.200,253.600 133.200 C 254.040 133.200,254.400 133.020,254.400 132.800 C 254.400 132.580,254.670 132.400,255.000 132.400 C 255.330 132.400,255.600 132.220,255.600 132.000 C 255.600 131.780,255.870 131.600,256.200 131.600 C 256.530 131.600,256.800 131.420,256.800 131.200 C 256.800 130.980,257.030 130.800,257.312 130.800 C 257.593 130.800,258.083 130.440,258.400 130.000 C 258.717 129.560,259.221 129.200,259.520 129.200 C 259.818 129.200,260.724 128.519,261.531 127.687 C 262.339 126.855,263.630 125.741,264.400 125.211 C 265.170 124.682,266.160 123.807,266.600 123.268 C 267.040 122.729,268.255 121.401,269.300 120.317 C 270.345 119.233,271.200 118.207,271.200 118.036 C 271.200 117.864,271.650 117.201,272.200 116.562 C 272.749 115.923,273.199 115.190,273.200 114.933 C 273.200 114.677,273.335 114.407,273.500 114.333 C 273.935 114.140,275.200 111.635,275.200 110.968 C 275.200 110.655,275.380 110.400,275.600 110.400 C 275.820 110.400,276.000 110.040,276.000 109.600 C 276.000 109.160,276.180 108.800,276.400 108.800 C 276.620 108.800,276.800 108.451,276.800 108.024 C 276.800 107.597,276.980 107.136,277.200 107.000 C 277.420 106.864,277.600 106.403,277.600 105.976 C 277.600 105.549,277.780 105.200,278.000 105.200 C 278.220 105.200,278.400 104.660,278.400 104.000 C 278.400 103.340,278.580 102.800,278.800 102.800 C 279.020 102.800,279.200 102.170,279.200 101.400 C 279.200 100.630,279.380 100.000,279.600 100.000 C 279.820 100.000,280.000 99.190,280.000 98.200 C 280.000 97.210,280.180 96.400,280.400 96.400 C 280.633 96.400,280.800 95.067,280.800 93.200 C 280.800 91.333,280.967 90.000,281.200 90.000 C 281.751 90.000,281.751 50.540,281.200 50.200 C 280.980 50.064,280.800 48.523,280.800 46.776 C 280.800 44.925,280.633 43.600,280.400 43.600 C 280.180 43.600,280.000 42.880,280.000 42.000 C 280.000 41.120,279.820 40.400,279.600 40.400 C 279.380 40.400,279.200 39.680,279.200 38.800 C 279.200 37.920,279.020 37.200,278.800 37.200 C 278.580 37.200,278.400 36.660,278.400 36.000 C 278.400 35.340,278.220 34.800,278.000 34.800 C 277.780 34.800,277.600 34.451,277.600 34.024 C 277.600 33.597,277.420 33.136,277.200 33.000 C 276.980 32.864,276.800 32.313,276.800 31.776 C 276.800 31.239,276.620 30.800,276.400 30.800 C 276.180 30.800,276.000 30.440,276.000 30.000 C 276.000 29.560,275.820 29.200,275.600 29.200 C 275.380 29.200,275.200 28.924,275.200 28.586 C 275.200 28.047,274.193 26.157,273.609 25.600 C 273.493 25.490,273.144 24.905,272.832 24.300 C 272.520 23.695,272.115 23.200,271.932 23.200 C 271.750 23.200,271.600 22.924,271.600 22.587 C 271.600 22.249,270.970 21.343,270.200 20.573 C 269.430 19.803,268.800 18.995,268.800 18.777 C 268.800 18.323,262.857 12.400,262.401 12.400 C 262.236 12.400,261.413 11.770,260.572 11.000 C 259.731 10.230,258.809 9.600,258.522 9.600 C 258.235 9.600,258.000 9.432,258.000 9.227 C 258.000 9.022,257.609 8.730,257.131 8.578 C 256.653 8.426,255.899 7.964,255.455 7.551 C 255.012 7.138,254.413 6.800,254.125 6.800 C 253.836 6.800,253.600 6.620,253.600 6.400 C 253.600 6.180,253.240 6.000,252.800 6.000 C 252.360 6.000,252.000 5.820,252.000 5.600 C 252.000 5.380,251.640 5.200,251.200 5.200 C 250.760 5.200,250.400 5.020,250.400 4.800 C 250.400 4.580,250.051 4.400,249.624 4.400 C 249.197 4.400,248.736 4.220,248.600 4.000 C 248.464 3.780,247.913 3.600,247.376 3.600 C 246.839 3.600,246.400 3.420,246.400 3.200 C 246.400 2.980,245.860 2.800,245.200 2.800 C 244.540 2.800,244.000 2.620,244.000 2.400 C 244.000 2.180,243.471 2.000,242.824 2.000 C 242.177 2.000,241.536 1.820,241.400 1.600 C 241.264 1.380,240.454 1.200,239.600 1.200 C 238.746 1.200,237.936 1.020,237.800 0.800 C 237.647 0.552,234.063 0.400,228.376 0.400 C 222.525 0.400,219.200 0.545,219.200 0.800 M217.600 50.000 C 217.600 50.220,217.960 50.400,218.400 50.400 C 218.840 50.400,219.200 50.580,219.200 50.800 C 219.200 51.020,219.560 51.200,220.000 51.200 C 220.440 51.200,220.800 51.380,220.800 51.600 C 220.800 51.820,221.160 52.000,221.600 52.000 C 222.040 52.000,222.400 52.180,222.400 52.400 C 222.400 52.620,222.672 52.800,223.005 52.800 C 223.338 52.800,223.923 52.959,224.305 53.153 C 224.687 53.348,225.450 53.684,226.000 53.900 C 227.754 54.589,229.379 55.283,230.095 55.647 C 230.477 55.841,231.141 56.000,231.571 56.000 C 232.001 56.000,232.451 56.159,232.571 56.354 C 232.692 56.549,233.287 56.810,233.895 56.935 C 234.503 57.060,236.170 57.462,237.600 57.829 C 239.030 58.196,241.055 58.582,242.100 58.687 C 243.145 58.791,244.000 59.040,244.000 59.239 C 244.000 59.437,245.080 59.600,246.400 59.600 C 247.733 59.600,248.800 59.778,248.800 60.000 C 248.800 60.242,250.533 60.400,253.200 60.400 C 255.867 60.400,257.600 60.558,257.600 60.800 C 257.600 61.039,259.133 61.200,261.400 61.200 C 263.667 61.200,265.200 61.039,265.200 60.800 C 265.200 60.580,265.740 60.400,266.400 60.400 L 267.600 60.400 267.600 76.776 C 267.600 87.263,267.456 93.242,267.200 93.400 C 266.980 93.536,266.800 94.267,266.800 95.024 C 266.800 95.781,266.620 96.400,266.400 96.400 C 266.180 96.400,266.000 96.940,266.000 97.600 C 266.000 98.260,265.820 98.800,265.600 98.800 C 265.380 98.800,265.200 99.340,265.200 100.000 C 265.200 100.660,265.020 101.200,264.800 101.200 C 264.580 101.200,264.400 101.560,264.400 102.000 C 264.400 102.440,264.220 102.800,264.000 102.800 C 263.780 102.800,263.600 103.160,263.600 103.600 C 263.600 104.040,263.420 104.400,263.200 104.400 C 262.980 104.400,262.800 104.760,262.800 105.200 C 262.800 105.640,262.642 106.000,262.449 106.000 C 262.255 106.000,261.873 106.540,261.600 107.200 C 261.327 107.860,260.957 108.400,260.778 108.400 C 260.600 108.400,260.343 108.749,260.208 109.176 C 259.891 110.175,251.757 118.400,251.085 118.400 C 250.806 118.400,250.317 118.760,250.000 119.200 C 249.683 119.640,249.103 120.000,248.712 120.000 C 248.320 120.000,248.000 120.180,248.000 120.400 C 248.000 120.620,247.640 120.800,247.200 120.800 C 246.760 120.800,246.400 120.980,246.400 121.200 C 246.400 121.420,246.040 121.600,245.600 121.600 C 245.160 121.600,244.799 121.735,244.797 121.900 C 244.793 122.306,242.814 123.200,241.920 123.200 C 241.524 123.200,241.200 123.380,241.200 123.600 C 241.200 123.820,240.786 124.000,240.280 124.000 C 239.774 124.000,239.189 124.164,238.980 124.365 C 238.577 124.751,230.368 125.786,228.000 125.749 C 225.219 125.705,217.600 124.674,217.600 124.341 C 217.600 124.153,217.060 124.000,216.400 124.000 C 215.740 124.000,215.200 123.820,215.200 123.600 C 215.200 123.380,214.840 123.200,214.400 123.200 C 213.960 123.200,213.600 123.020,213.600 122.800 C 213.600 122.580,213.347 122.400,213.038 122.400 C 212.520 122.400,209.260 120.861,208.800 120.399 C 208.690 120.289,208.105 119.944,207.500 119.632 C 206.895 119.320,206.400 118.915,206.400 118.732 C 206.400 118.550,206.220 118.400,206.001 118.400 C 205.781 118.400,204.926 117.757,204.101 116.972 C 203.275 116.187,202.129 115.262,201.554 114.918 C 200.979 114.573,200.227 113.821,199.882 113.246 C 199.538 112.671,198.613 111.525,197.828 110.699 C 197.043 109.874,196.400 109.058,196.400 108.887 C 196.400 108.716,196.040 108.317,195.600 108.000 C 195.160 107.683,194.800 107.186,194.800 106.895 C 194.800 106.604,194.440 105.980,194.000 105.508 C 193.560 105.036,193.200 104.413,193.200 104.125 C 193.200 103.836,193.020 103.600,192.800 103.600 C 192.580 103.600,192.400 103.186,192.400 102.680 C 192.400 102.174,192.250 101.589,192.068 101.380 C 191.885 101.171,191.418 99.830,191.030 98.400 C 190.642 96.970,190.162 95.487,189.962 95.105 C 189.763 94.723,189.600 93.609,189.600 92.629 C 189.600 91.649,189.420 90.736,189.200 90.600 C 188.980 90.464,188.800 88.743,188.800 86.776 C 188.800 84.659,188.637 83.200,188.400 83.200 C 188.180 83.200,188.000 82.912,188.000 82.560 C 188.000 81.628,185.424 79.200,184.435 79.200 C 183.970 79.200,183.232 78.977,182.795 78.704 C 182.162 78.309,181.838 78.309,181.205 78.704 C 178.936 80.121,172.400 77.617,172.400 75.330 C 172.400 75.039,172.220 74.800,172.000 74.800 C 171.771 74.800,171.600 73.600,171.600 72.000 C 171.600 70.400,171.771 69.200,172.000 69.200 C 172.220 69.200,172.400 68.922,172.400 68.582 C 172.400 67.886,174.140 66.000,174.782 66.000 C 175.012 66.000,175.200 65.820,175.200 65.600 C 175.200 65.380,175.560 65.200,176.000 65.200 C 176.440 65.200,176.800 65.020,176.800 64.800 C 176.800 64.580,177.520 64.400,178.400 64.400 C 179.280 64.400,180.000 64.580,180.000 64.800 C 180.000 65.020,180.439 65.200,180.976 65.200 C 181.513 65.200,182.064 65.380,182.200 65.600 C 182.336 65.820,182.797 66.000,183.224 66.000 C 183.651 66.000,184.000 66.180,184.000 66.400 C 184.000 66.620,184.540 66.800,185.200 66.800 C 185.860 66.800,186.400 66.980,186.400 67.200 C 186.400 67.429,187.600 67.600,189.200 67.600 C 190.800 67.600,192.000 67.771,192.000 68.000 C 192.000 68.220,192.630 68.400,193.400 68.400 C 194.170 68.400,194.800 68.220,194.800 68.000 C 194.800 67.780,195.700 67.600,196.800 67.600 C 197.900 67.600,198.800 67.420,198.800 67.200 C 198.800 66.980,199.340 66.800,200.000 66.800 C 200.660 66.800,201.200 66.620,201.200 66.400 C 201.200 66.180,201.650 66.000,202.200 66.000 C 202.750 66.000,203.200 65.820,203.200 65.600 C 203.200 65.380,203.470 65.200,203.800 65.200 C 204.130 65.200,204.400 65.020,204.400 64.800 C 204.400 64.580,204.644 64.400,204.941 64.400 C 205.239 64.400,205.958 63.905,206.538 63.300 C 207.119 62.695,208.765 60.988,210.197 59.507 C 211.629 58.026,212.800 56.671,212.800 56.496 C 212.800 56.320,213.160 55.917,213.600 55.600 C 214.040 55.283,214.400 54.786,214.400 54.495 C 214.400 54.204,214.760 53.580,215.200 53.108 C 215.640 52.636,216.000 52.013,216.000 51.725 C 216.000 51.436,216.180 51.200,216.400 51.200 C 216.620 51.200,216.800 50.840,216.800 50.400 C 216.800 49.960,216.980 49.600,217.200 49.600 C 217.420 49.600,217.600 49.780,217.600 50.000 M229.200 68.800 C 229.200 69.020,228.842 69.200,228.405 69.200 C 225.626 69.200,224.800 71.579,224.800 79.580 L 224.800 86.400 226.400 88.000 C 229.343 90.943,237.200 89.685,237.200 86.270 C 237.200 85.927,237.380 85.536,237.600 85.400 C 237.838 85.253,238.000 82.729,238.000 79.176 C 238.000 75.459,237.849 73.200,237.600 73.200 C 237.380 73.200,237.200 72.840,237.200 72.400 C 237.200 71.960,237.032 71.600,236.827 71.600 C 236.622 71.600,236.340 71.240,236.200 70.800 C 236.060 70.360,235.688 70.000,235.373 70.000 C 235.058 70.000,234.800 69.820,234.800 69.600 C 234.800 69.380,234.440 69.200,234.000 69.200 C 233.560 69.200,233.200 69.020,233.200 68.800 C 233.200 68.580,232.300 68.400,231.200 68.400 C 230.100 68.400,229.200 68.580,229.200 68.800 M253.600 68.800 C 253.600 69.020,253.240 69.200,252.800 69.200 C 252.360 69.200,252.000 69.359,252.000 69.553 C 252.000 69.748,251.640 70.001,251.200 70.116 C 250.760 70.231,250.400 70.612,250.400 70.963 C 250.400 71.313,250.220 71.600,250.000 71.600 C 249.780 71.600,249.600 71.960,249.600 72.400 C 249.600 72.840,249.420 73.200,249.200 73.200 C 248.951 73.200,248.800 75.533,248.800 79.400 C 248.800 83.267,248.951 85.600,249.200 85.600 C 249.420 85.600,249.600 85.891,249.600 86.246 C 249.600 88.059,252.392 89.600,255.678 89.600 C 257.395 89.600,258.800 89.463,258.800 89.295 C 258.800 89.127,259.205 88.812,259.700 88.595 C 260.195 88.378,260.778 87.795,260.995 87.300 C 261.212 86.805,261.527 86.400,261.695 86.400 C 261.863 86.400,262.000 83.250,262.000 79.400 C 262.000 75.000,261.851 72.400,261.600 72.400 C 261.380 72.400,261.200 72.122,261.200 71.782 C 261.200 70.901,259.383 69.200,258.442 69.200 C 258.005 69.200,257.536 69.020,257.400 68.800 C 257.264 68.580,256.353 68.400,255.376 68.400 C 254.399 68.400,253.600 68.580,253.600 68.800 M222.600 140.391 C 226.210 140.910,229.200 141.663,229.200 142.053 C 229.200 142.244,229.560 142.400,230.000 142.400 C 230.440 142.400,230.800 142.580,230.800 142.800 C 230.800 143.020,231.160 143.200,231.600 143.200 C 232.040 143.200,232.400 143.380,232.400 143.600 C 232.400 143.820,232.632 144.000,232.916 144.000 C 233.200 144.000,234.235 144.737,235.216 145.638 C 236.197 146.539,237.405 147.549,237.900 147.884 C 238.395 148.218,238.800 148.669,238.800 148.886 C 238.800 149.102,239.314 149.759,239.942 150.345 C 241.324 151.636,244.904 158.888,244.727 160.036 C 244.657 160.488,244.060 161.159,243.400 161.529 C 242.740 161.898,242.140 162.335,242.067 162.500 C 241.993 162.665,241.603 162.800,241.200 162.800 C 240.797 162.800,240.407 162.935,240.333 163.100 C 240.145 163.524,235.201 166.000,234.544 166.000 C 234.245 166.000,234.000 166.180,234.000 166.400 C 234.000 166.620,233.460 166.800,232.800 166.800 C 232.140 166.800,231.600 166.980,231.600 167.200 C 231.600 167.440,230.000 167.600,227.600 167.600 C 225.200 167.600,223.600 167.440,223.600 167.200 C 223.600 166.980,223.071 166.800,222.424 166.800 C 221.777 166.800,221.136 166.620,221.000 166.400 C 220.864 166.180,220.403 166.000,219.976 166.000 C 219.549 166.000,219.200 165.820,219.200 165.600 C 219.200 165.380,218.840 165.200,218.400 165.200 C 217.960 165.200,217.600 165.020,217.600 164.800 C 217.600 164.580,217.280 164.400,216.888 164.400 C 216.497 164.400,215.917 164.040,215.600 163.600 C 215.283 163.160,214.817 162.800,214.565 162.800 C 214.087 162.800,209.600 158.658,209.600 158.216 C 209.600 158.077,209.150 157.514,208.600 156.964 C 208.050 156.414,207.600 155.696,207.600 155.368 C 207.600 154.586,205.000 152.000,204.213 152.000 C 203.876 152.000,203.600 151.820,203.600 151.600 C 203.600 151.380,202.621 151.200,201.424 151.200 C 200.227 151.200,199.136 151.380,199.000 151.600 C 198.864 151.820,198.473 152.000,198.130 152.000 C 196.339 152.000,194.800 154.809,194.800 158.078 C 194.800 159.893,194.968 161.200,195.200 161.200 C 195.420 161.200,195.600 161.560,195.600 162.000 C 195.600 162.440,195.780 162.800,196.000 162.800 C 196.220 162.800,196.400 163.043,196.400 163.341 C 196.400 163.638,196.940 164.446,197.600 165.137 C 198.260 165.828,198.800 166.553,198.800 166.750 C 198.800 167.842,207.155 175.200,208.396 175.200 C 208.618 175.200,208.800 175.380,208.800 175.600 C 208.800 175.820,209.055 176.000,209.367 176.000 C 209.678 176.000,209.993 176.135,210.067 176.300 C 210.288 176.799,213.622 178.400,214.438 178.400 C 214.857 178.400,215.200 178.580,215.200 178.800 C 215.200 179.020,215.740 179.200,216.400 179.200 C 217.060 179.200,217.600 179.380,217.600 179.600 C 217.600 179.820,218.320 180.000,219.200 180.000 C 220.080 180.000,220.800 180.180,220.800 180.400 C 220.800 180.651,223.400 180.800,227.800 180.800 C 232.200 180.800,234.800 180.651,234.800 180.400 C 234.800 180.180,235.520 180.000,236.400 180.000 C 237.280 180.000,238.000 179.820,238.000 179.600 C 238.000 179.380,238.450 179.200,239.000 179.200 C 239.550 179.200,240.000 179.020,240.000 178.800 C 240.000 178.580,240.360 178.400,240.800 178.400 C 241.240 178.400,241.600 178.220,241.600 178.000 C 241.600 177.780,241.960 177.600,242.400 177.600 C 242.840 177.600,243.200 177.420,243.200 177.200 C 243.200 176.980,243.560 176.800,244.000 176.800 C 244.440 176.800,244.800 176.620,244.800 176.400 C 244.800 176.180,245.160 176.000,245.600 176.000 C 246.040 176.000,246.400 175.820,246.400 175.600 C 246.400 175.380,246.724 175.200,247.120 175.200 C 247.516 175.200,248.056 174.984,248.320 174.720 C 248.693 174.347,248.800 174.524,248.800 175.520 C 248.800 176.224,248.980 176.800,249.200 176.800 C 249.420 176.800,249.600 177.520,249.600 178.400 C 249.600 179.280,249.780 180.000,250.000 180.000 C 251.837 180.000,249.948 184.059,246.505 187.509 C 245.347 188.668,244.400 189.774,244.400 189.966 C 244.400 190.158,243.859 190.919,243.199 191.658 C 241.479 193.579,241.200 193.936,241.200 194.212 C 241.200 195.039,239.838 195.600,237.829 195.600 C 236.603 195.600,235.600 195.780,235.600 196.000 C 235.600 196.251,233.075 196.400,228.824 196.400 C 224.737 196.400,221.949 196.559,221.800 196.800 C 221.664 197.021,219.870 197.200,217.800 197.200 C 215.730 197.200,213.936 197.379,213.800 197.600 C 213.664 197.820,212.213 198.000,210.576 198.000 C 208.859 198.000,207.600 198.169,207.600 198.400 C 207.600 198.628,206.408 198.800,204.824 198.800 C 203.297 198.800,201.936 198.980,201.800 199.200 C 201.664 199.420,200.494 199.600,199.200 199.600 C 197.906 199.600,196.736 199.780,196.600 200.000 C 196.464 200.220,195.474 200.400,194.400 200.400 C 193.326 200.400,192.336 200.580,192.200 200.800 C 192.064 201.020,191.063 201.200,189.976 201.200 C 188.889 201.200,188.000 201.380,188.000 201.600 C 188.000 201.820,187.100 202.000,186.000 202.000 C 184.900 202.000,184.000 202.180,184.000 202.400 C 184.000 202.620,183.820 202.800,183.600 202.800 C 183.380 202.800,183.200 202.080,183.200 201.200 C 183.200 200.320,183.380 199.600,183.600 199.600 C 183.822 199.600,184.000 198.533,184.000 197.200 C 184.000 195.867,184.178 194.800,184.400 194.800 C 184.620 194.800,184.800 193.900,184.800 192.800 C 184.800 191.700,184.980 190.800,185.200 190.800 C 185.420 190.800,185.600 190.001,185.600 189.024 C 185.600 188.047,185.780 187.136,186.000 187.000 C 186.220 186.864,186.400 185.953,186.400 184.976 C 186.400 183.999,186.580 183.200,186.800 183.200 C 187.020 183.200,187.200 182.401,187.200 181.424 C 187.200 180.447,187.380 179.536,187.600 179.400 C 187.820 179.264,188.000 178.443,188.000 177.576 C 188.000 176.709,188.180 176.000,188.400 176.000 C 188.620 176.000,188.800 175.381,188.800 174.624 C 188.800 173.867,188.961 173.148,189.158 173.026 C 189.355 172.905,189.610 172.129,189.725 171.303 C 189.840 170.476,190.142 168.990,190.396 168.000 C 190.649 167.010,191.069 164.999,191.328 163.531 C 191.588 162.064,191.935 160.729,192.100 160.565 C 192.265 160.401,192.400 159.757,192.400 159.133 C 192.400 158.510,192.580 158.000,192.800 158.000 C 193.020 158.000,193.200 157.640,193.200 157.200 C 193.200 156.760,193.346 156.400,193.525 156.400 C 193.704 156.400,194.098 155.770,194.400 155.000 C 194.702 154.230,195.096 153.600,195.275 153.600 C 195.454 153.600,195.600 153.312,195.600 152.960 C 195.600 152.609,196.140 151.817,196.800 151.200 C 197.460 150.583,198.000 149.899,198.000 149.680 C 198.000 149.160,200.760 146.400,201.280 146.400 C 201.499 146.400,202.183 145.860,202.800 145.200 C 203.417 144.540,204.209 144.000,204.560 144.000 C 204.912 144.000,205.200 143.854,205.200 143.675 C 205.200 143.496,205.830 143.102,206.600 142.800 C 207.370 142.498,208.000 142.122,208.000 141.965 C 208.000 141.609,211.866 140.792,214.800 140.528 C 216.010 140.419,217.180 140.153,217.400 139.938 C 217.620 139.722,218.340 139.658,219.000 139.796 C 219.660 139.933,221.280 140.201,222.600 140.391 M275.979 160.087 C 275.000 160.794,273.909 161.694,273.553 162.087 C 273.197 162.479,272.702 162.800,272.454 162.800 C 272.205 162.800,271.259 163.520,270.352 164.400 C 269.445 165.280,268.534 166.000,268.326 166.000 C 268.118 166.000,267.105 166.861,266.074 167.914 C 262.451 171.616,261.244 171.754,261.213 168.471 C 261.199 167.041,261.584 166.518,263.300 165.632 C 263.905 165.320,264.400 164.915,264.400 164.732 C 264.400 164.550,264.760 164.400,265.200 164.400 C 265.640 164.400,266.000 164.220,266.000 164.000 C 266.000 163.780,266.360 163.600,266.800 163.600 C 267.240 163.600,267.600 163.454,267.600 163.275 C 267.600 163.096,268.230 162.702,269.000 162.400 C 269.770 162.098,270.400 161.704,270.400 161.525 C 270.400 161.346,270.760 161.200,271.200 161.200 C 271.640 161.200,272.000 161.020,272.000 160.800 C 272.000 160.580,272.349 160.400,272.776 160.400 C 273.203 160.400,273.664 160.220,273.800 160.000 C 273.936 159.780,274.487 159.600,275.024 159.600 C 275.561 159.600,276.000 159.420,276.000 159.200 C 276.000 158.980,276.395 158.800,276.879 158.800 C 277.597 158.800,277.433 159.035,275.979 160.087 M309.000 160.800 C 309.136 161.020,309.777 161.200,310.424 161.200 C 311.071 161.200,311.600 161.380,311.600 161.600 C 311.600 161.820,312.050 162.000,312.600 162.000 C 313.150 162.000,313.600 162.180,313.600 162.400 C 313.600 162.620,313.960 162.800,314.400 162.800 C 314.840 162.800,315.200 162.980,315.200 163.200 C 315.200 163.420,315.436 163.600,315.725 163.600 C 316.013 163.600,316.636 163.960,317.108 164.400 C 317.580 164.840,318.153 165.200,318.381 165.200 C 318.609 165.200,319.715 166.100,320.839 167.200 C 321.962 168.300,323.056 169.200,323.269 169.200 C 323.735 169.200,324.115 169.591,326.189 172.201 C 327.064 173.300,328.279 174.677,328.889 175.260 C 329.500 175.844,330.000 176.492,330.000 176.701 C 330.000 176.910,330.540 177.646,331.200 178.337 C 331.860 179.028,332.400 179.798,332.400 180.049 C 332.400 180.301,332.716 180.797,333.103 181.153 C 333.489 181.509,334.060 182.295,334.370 182.900 C 334.681 183.505,335.085 184.000,335.268 184.000 C 335.450 184.000,335.600 184.320,335.600 184.712 C 335.600 185.103,335.960 185.683,336.400 186.000 C 336.840 186.317,337.200 186.897,337.200 187.288 C 337.200 187.680,337.380 188.000,337.600 188.000 C 337.820 188.000,338.000 188.236,338.000 188.525 C 338.000 188.813,338.360 189.436,338.800 189.908 C 339.240 190.380,339.600 190.954,339.600 191.183 C 339.600 191.412,339.780 191.600,340.000 191.600 C 340.842 191.600,340.341 192.885,338.960 194.266 L 337.521 195.706 336.560 194.671 C 336.032 194.101,335.600 193.487,335.600 193.306 C 335.600 193.125,335.240 192.717,334.800 192.400 C 334.360 192.083,334.000 191.579,334.000 191.280 C 334.000 190.982,333.319 190.076,332.487 189.269 C 331.655 188.461,330.537 187.170,330.003 186.400 C 328.957 184.893,326.887 182.800,326.443 182.800 C 326.293 182.800,325.335 182.011,324.314 181.046 C 323.293 180.082,321.904 179.048,321.229 178.749 C 320.553 178.449,320.000 178.069,320.000 177.902 C 320.000 177.736,319.728 177.600,319.395 177.600 C 319.062 177.600,318.477 177.431,318.095 177.224 C 317.713 177.017,316.905 176.744,316.300 176.617 C 315.248 176.395,315.200 176.279,315.200 173.992 C 315.200 172.664,315.022 171.600,314.800 171.600 C 314.580 171.600,314.400 171.240,314.400 170.800 C 314.400 170.360,314.220 170.000,314.000 170.000 C 313.780 170.000,313.600 169.713,313.600 169.363 C 313.600 169.012,313.240 168.631,312.800 168.516 C 312.360 168.401,312.000 168.148,312.000 167.953 C 312.000 167.759,311.640 167.600,311.200 167.600 C 310.760 167.600,310.400 167.420,310.400 167.200 C 310.400 166.980,309.590 166.800,308.600 166.800 C 307.610 166.800,306.800 166.980,306.800 167.200 C 306.800 167.420,306.342 167.600,305.782 167.600 C 304.757 167.600,303.425 168.702,302.500 170.317 C 302.202 170.838,302.000 172.642,302.000 174.795 C 302.000 178.133,301.941 178.400,301.200 178.400 C 300.760 178.400,300.400 178.580,300.400 178.800 C 300.400 179.020,300.164 179.200,299.875 179.200 C 299.587 179.200,298.964 179.560,298.492 180.000 C 298.020 180.440,297.473 180.800,297.276 180.800 C 297.079 180.800,296.354 181.340,295.663 182.000 C 294.972 182.660,294.314 183.200,294.199 183.200 C 293.930 183.200,284.800 192.326,284.800 192.595 C 284.800 192.707,284.080 193.541,283.200 194.448 C 282.320 195.355,281.600 196.256,281.600 196.452 C 281.600 196.647,281.060 197.372,280.400 198.063 C 279.740 198.754,279.200 199.562,279.200 199.859 C 279.200 200.157,279.050 200.400,278.868 200.400 C 278.685 200.400,278.280 200.895,277.968 201.500 C 277.655 202.105,277.262 202.780,277.094 203.000 C 275.982 204.455,274.800 206.526,274.800 207.018 C 274.800 207.338,274.664 207.600,274.498 207.600 C 274.331 207.600,273.936 208.185,273.620 208.900 C 273.303 209.615,272.720 210.549,272.322 210.975 C 271.925 211.402,271.600 211.987,271.600 212.275 C 271.600 212.564,271.420 212.800,271.200 212.800 C 270.980 212.800,270.800 213.160,270.800 213.600 C 270.800 214.040,270.620 214.400,270.400 214.400 C 270.180 214.400,270.000 214.760,270.000 215.200 C 270.000 215.640,269.820 216.000,269.600 216.000 C 269.380 216.000,269.200 216.360,269.200 216.800 C 269.200 217.240,269.020 217.600,268.800 217.600 C 268.580 217.600,268.400 217.960,268.400 218.400 C 268.400 218.840,268.253 219.200,268.072 219.200 C 267.892 219.200,267.500 220.100,267.200 221.200 C 266.900 222.300,266.508 223.200,266.328 223.200 C 266.147 223.200,266.000 223.472,266.000 223.805 C 266.000 224.138,265.820 224.768,265.600 225.205 C 265.380 225.642,265.020 226.358,264.800 226.795 C 264.580 227.232,264.400 227.941,264.400 228.371 C 264.400 228.801,264.220 229.264,264.000 229.400 C 263.780 229.536,263.600 230.076,263.600 230.600 C 263.600 231.124,263.420 231.664,263.200 231.800 C 262.980 231.936,262.800 232.847,262.800 233.824 C 262.800 234.801,262.620 235.600,262.400 235.600 C 262.157 235.600,262.000 237.400,262.000 240.200 C 262.000 243.000,262.157 244.800,262.400 244.800 C 262.620 244.800,262.800 245.160,262.800 245.600 C 262.800 246.040,262.950 246.400,263.132 246.400 C 263.315 246.400,263.720 246.892,264.032 247.493 C 264.662 248.705,266.373 250.368,267.012 250.387 C 267.238 250.394,267.683 250.760,268.000 251.200 C 268.317 251.640,268.897 252.000,269.288 252.000 C 269.680 252.000,270.000 252.180,270.000 252.400 C 270.000 252.620,270.360 252.800,270.800 252.800 C 271.240 252.800,271.600 252.980,271.600 253.200 C 271.600 253.420,271.960 253.600,272.400 253.600 C 272.840 253.600,273.200 253.780,273.200 254.000 C 273.200 254.220,273.560 254.400,274.000 254.400 C 274.440 254.400,274.800 254.580,274.800 254.800 C 274.800 255.020,275.160 255.200,275.600 255.200 C 276.040 255.200,276.400 255.380,276.400 255.600 C 276.400 255.820,276.726 256.000,277.125 256.000 C 277.524 256.000,278.584 256.355,279.481 256.788 C 280.379 257.222,281.857 257.696,282.765 257.841 C 283.674 257.986,284.514 258.261,284.632 258.453 C 284.751 258.644,285.557 258.800,286.424 258.800 C 287.291 258.800,288.000 258.980,288.000 259.200 C 288.000 259.420,288.540 259.600,289.200 259.600 C 289.860 259.600,290.400 259.780,290.400 260.000 C 290.400 260.220,291.030 260.400,291.800 260.400 C 292.570 260.400,293.200 260.580,293.200 260.800 C 293.200 261.020,293.819 261.200,294.576 261.200 C 295.333 261.200,296.064 261.380,296.200 261.600 C 296.336 261.820,297.157 262.000,298.024 262.000 C 298.891 262.000,299.600 262.180,299.600 262.400 C 299.600 262.620,300.320 262.800,301.200 262.800 C 302.080 262.800,302.800 262.980,302.800 263.200 C 302.800 263.420,303.520 263.600,304.400 263.600 C 305.280 263.600,306.000 263.780,306.000 264.000 C 306.000 264.220,306.799 264.400,307.776 264.400 C 308.753 264.400,309.664 264.580,309.800 264.800 C 309.936 265.020,310.847 265.200,311.824 265.200 C 312.801 265.200,313.600 265.380,313.600 265.600 C 313.600 265.820,314.399 266.000,315.376 266.000 C 316.353 266.000,317.264 266.180,317.400 266.400 C 317.536 266.620,318.436 266.800,319.400 266.800 C 320.364 266.800,321.264 266.980,321.400 267.200 C 321.536 267.420,322.537 267.600,323.624 267.600 C 324.711 267.600,325.600 267.780,325.600 268.000 C 325.600 268.220,326.399 268.400,327.376 268.400 C 328.353 268.400,329.264 268.580,329.400 268.800 C 329.536 269.020,330.627 269.200,331.824 269.200 C 333.021 269.200,334.000 269.380,334.000 269.600 C 334.000 269.822,335.067 270.000,336.400 270.000 C 337.720 270.000,338.800 270.163,338.800 270.363 C 338.800 270.563,339.745 270.828,340.900 270.954 C 346.646 271.577,347.428 271.700,347.780 272.037 C 347.989 272.237,349.168 272.400,350.400 272.400 C 351.632 272.400,352.811 272.564,353.020 272.765 C 353.229 272.965,354.390 273.228,355.600 273.348 C 356.810 273.469,359.060 273.754,360.600 273.983 C 362.140 274.213,365.591 274.625,368.269 274.900 C 370.947 275.175,373.272 275.535,373.436 275.700 C 373.599 275.865,374.963 276.000,376.467 276.000 C 378.022 276.000,379.200 276.172,379.200 276.400 C 379.200 276.629,380.400 276.800,382.000 276.800 C 383.600 276.800,384.800 276.971,384.800 277.200 C 384.800 277.420,385.340 277.600,386.000 277.600 L 387.200 277.600 387.200 282.800 L 387.200 288.000 317.600 288.000 L 248.000 288.000 248.000 286.624 C 248.000 285.867,247.820 285.136,247.600 285.000 C 247.380 284.864,247.200 284.234,247.200 283.600 C 247.200 282.966,247.020 282.336,246.800 282.200 C 246.580 282.064,246.400 281.243,246.400 280.376 C 246.400 279.509,246.220 278.800,246.000 278.800 C 245.780 278.800,245.600 277.990,245.600 277.000 C 245.600 276.010,245.420 275.200,245.200 275.200 C 244.980 275.200,244.800 274.311,244.800 273.224 C 244.800 272.137,244.620 271.136,244.400 271.000 C 244.180 270.864,244.000 269.683,244.000 268.376 C 244.000 267.059,243.822 266.000,243.600 266.000 C 243.363 266.000,243.200 264.533,243.200 262.400 C 243.200 260.267,243.037 258.800,242.800 258.800 C 242.543 258.800,242.400 254.867,242.400 247.800 C 242.400 240.733,242.543 236.800,242.800 236.800 C 243.037 236.800,243.200 235.341,243.200 233.224 C 243.200 231.257,243.380 229.536,243.600 229.400 C 243.820 229.264,244.000 228.083,244.000 226.776 C 244.000 225.459,244.178 224.400,244.400 224.400 C 244.620 224.400,244.800 223.601,244.800 222.624 C 244.800 221.647,244.980 220.736,245.200 220.600 C 245.420 220.464,245.600 219.553,245.600 218.576 C 245.600 217.599,245.780 216.800,246.000 216.800 C 246.220 216.800,246.400 216.080,246.400 215.200 C 246.400 214.320,246.580 213.600,246.800 213.600 C 247.020 213.600,247.200 213.060,247.200 212.400 C 247.200 211.740,247.380 211.200,247.600 211.200 C 247.820 211.200,248.000 210.660,248.000 210.000 C 248.000 209.340,248.180 208.800,248.400 208.800 C 248.620 208.800,248.800 208.260,248.800 207.600 C 248.800 206.940,248.980 206.400,249.200 206.400 C 249.420 206.400,249.600 206.218,249.600 205.996 C 249.600 205.774,250.140 205.028,250.800 204.337 C 251.460 203.646,252.000 202.931,252.000 202.748 C 252.000 202.564,252.810 201.569,253.800 200.535 C 254.790 199.502,255.600 198.528,255.600 198.371 C 255.600 197.650,270.003 182.401,270.686 182.399 C 270.859 182.399,272.223 181.139,273.718 179.599 C 275.213 178.060,276.610 176.800,276.822 176.800 C 277.034 176.800,277.791 176.242,278.504 175.560 C 279.217 174.877,280.340 174.041,281.000 173.700 C 281.660 173.360,282.491 172.748,282.847 172.341 C 283.203 171.933,283.664 171.600,283.871 171.600 C 284.079 171.600,284.598 171.285,285.025 170.900 C 285.451 170.515,286.295 169.945,286.900 169.632 C 287.505 169.320,288.000 168.915,288.000 168.732 C 288.000 168.550,288.270 168.400,288.600 168.400 C 288.930 168.400,289.200 168.220,289.200 168.000 C 289.200 167.780,289.470 167.600,289.800 167.600 C 290.130 167.600,290.400 167.420,290.400 167.200 C 290.400 166.980,290.670 166.800,291.000 166.800 C 291.330 166.800,291.600 166.620,291.600 166.400 C 291.600 166.180,291.920 166.000,292.312 166.000 C 292.703 166.000,293.283 165.640,293.600 165.200 C 293.917 164.760,294.497 164.400,294.888 164.400 C 295.280 164.400,295.600 164.220,295.600 164.000 C 295.600 163.780,295.960 163.600,296.400 163.600 C 296.840 163.600,297.200 163.420,297.200 163.200 C 297.200 162.980,297.560 162.800,298.000 162.800 C 298.440 162.800,298.800 162.620,298.800 162.400 C 298.800 162.180,299.149 162.000,299.576 162.000 C 300.003 162.000,300.464 161.820,300.600 161.600 C 300.736 161.380,301.467 161.200,302.224 161.200 C 302.981 161.200,303.600 161.020,303.600 160.800 C 303.600 160.575,304.725 160.400,306.176 160.400 C 307.593 160.400,308.864 160.580,309.000 160.800 M300.400 196.800 C 300.400 197.020,300.220 197.200,300.000 197.200 C 299.780 197.200,299.600 197.452,299.600 197.760 C 299.600 198.514,296.875 201.200,296.111 201.200 C 295.392 201.200,295.647 200.826,298.200 198.141 C 299.826 196.431,300.400 196.081,300.400 196.800 M92.600 200.000 C 92.736 200.220,93.467 200.400,94.224 200.400 C 94.981 200.400,95.600 200.580,95.600 200.800 C 95.600 201.020,96.140 201.200,96.800 201.200 C 97.460 201.200,98.000 201.380,98.000 201.600 C 98.000 201.820,98.540 202.000,99.200 202.000 C 99.860 202.000,100.400 202.180,100.400 202.400 C 100.400 202.620,100.760 202.800,101.200 202.800 C 101.640 202.800,102.000 202.980,102.000 203.200 C 102.000 203.420,102.360 203.600,102.800 203.600 C 103.240 203.600,103.600 203.780,103.600 204.000 C 103.600 204.220,103.960 204.400,104.400 204.400 C 104.840 204.400,105.200 204.558,105.200 204.751 C 105.200 204.945,105.740 205.327,106.400 205.600 C 107.060 205.873,107.600 206.243,107.600 206.422 C 107.600 206.600,107.956 206.859,108.391 206.997 C 109.235 207.265,116.799 214.533,116.801 215.077 C 116.801 215.255,117.341 216.030,118.000 216.800 C 118.659 217.570,119.199 218.425,119.199 218.700 C 119.200 218.975,119.380 219.200,119.600 219.200 C 119.820 219.200,120.000 219.560,120.000 220.000 C 120.000 220.440,120.180 220.800,120.400 220.800 C 120.620 220.800,120.800 221.160,120.800 221.600 C 120.800 222.040,120.935 222.401,121.100 222.403 C 121.506 222.407,122.400 224.386,122.400 225.280 C 122.400 225.676,122.580 226.000,122.800 226.000 C 123.020 226.000,123.200 226.540,123.200 227.200 C 123.200 227.860,123.380 228.400,123.600 228.400 C 123.820 228.400,124.000 229.105,124.000 229.967 C 124.000 230.828,124.199 231.600,124.442 231.681 C 125.060 231.887,125.060 246.113,124.442 246.319 C 124.199 246.400,124.000 247.172,124.000 248.033 C 124.000 248.895,123.820 249.600,123.600 249.600 C 123.380 249.600,123.200 250.140,123.200 250.800 C 123.200 251.460,123.020 252.000,122.800 252.000 C 122.580 252.000,122.400 252.272,122.400 252.605 C 122.400 252.938,122.240 253.523,122.044 253.905 C 121.848 254.287,121.280 255.455,120.781 256.500 C 120.282 257.545,119.723 258.400,119.537 258.400 C 119.352 258.400,119.200 258.670,119.200 259.000 C 119.200 259.330,119.020 259.600,118.800 259.600 C 118.580 259.600,118.400 259.843,118.400 260.141 C 118.400 260.438,117.903 261.203,117.296 261.841 C 116.688 262.478,115.747 263.630,115.204 264.400 C 114.131 265.922,112.566 267.600,112.219 267.600 C 112.099 267.600,111.237 268.320,110.303 269.200 C 109.369 270.080,108.418 270.800,108.190 270.800 C 107.963 270.800,107.517 271.160,107.200 271.600 C 106.883 272.040,106.343 272.400,106.000 272.400 C 105.657 272.400,105.117 272.760,104.800 273.200 C 104.483 273.640,103.903 274.000,103.512 274.000 C 103.120 274.000,102.800 274.142,102.800 274.316 C 102.800 274.491,101.525 274.982,99.966 275.409 C 98.408 275.836,97.047 276.324,96.943 276.493 C 96.838 276.662,96.234 276.800,95.600 276.800 C 94.966 276.800,94.336 276.980,94.200 277.200 C 94.064 277.420,93.153 277.600,92.176 277.600 C 91.199 277.600,90.400 277.780,90.400 278.000 C 90.400 278.240,88.800 278.400,86.400 278.400 C 84.000 278.400,82.400 278.560,82.400 278.800 C 82.400 279.020,82.124 279.200,81.787 279.200 C 80.793 279.200,78.400 281.859,78.400 282.963 C 78.400 283.507,78.220 284.064,78.000 284.200 C 77.780 284.336,77.600 284.876,77.600 285.400 C 77.600 285.924,77.780 286.464,78.000 286.600 C 79.654 287.622,76.613 294.800,74.525 294.800 C 74.236 294.800,74.000 294.980,74.000 295.200 C 74.000 295.429,72.800 295.600,71.200 295.600 C 69.600 295.600,68.400 295.429,68.400 295.200 C 68.400 294.980,68.122 294.800,67.782 294.800 C 67.086 294.800,65.200 293.060,65.200 292.418 C 65.200 292.188,65.020 292.000,64.800 292.000 C 64.580 292.000,64.400 291.640,64.400 291.200 C 64.400 290.760,64.220 290.400,64.000 290.400 C 63.780 290.400,63.600 289.680,63.600 288.800 C 63.600 287.920,63.780 287.200,64.000 287.200 C 64.220 287.200,64.400 286.750,64.400 286.200 C 64.400 285.650,64.580 285.200,64.800 285.200 C 65.020 285.200,65.200 284.750,65.200 284.200 C 65.200 283.650,65.380 283.200,65.600 283.200 C 65.820 283.200,66.000 282.660,66.000 282.000 C 66.000 281.340,66.180 280.800,66.400 280.800 C 66.620 280.800,66.800 279.911,66.800 278.824 C 66.800 277.737,66.980 276.736,67.200 276.600 C 67.420 276.464,67.600 275.463,67.600 274.376 C 67.600 273.289,67.420 272.400,67.200 272.400 C 66.980 272.400,66.800 271.500,66.800 270.400 C 66.800 269.300,66.620 268.400,66.400 268.400 C 66.180 268.400,66.000 267.860,66.000 267.200 C 66.000 266.540,65.820 266.000,65.600 266.000 C 65.380 266.000,65.200 265.766,65.200 265.480 C 65.200 264.744,64.259 262.807,63.900 262.803 C 63.735 262.801,63.600 262.552,63.600 262.248 C 63.600 261.945,62.876 261.000,61.991 260.148 C 61.107 259.297,59.447 257.655,58.303 256.500 C 57.159 255.345,56.033 254.400,55.800 254.400 C 55.567 254.400,55.117 254.040,54.800 253.600 C 54.483 253.160,53.986 252.800,53.695 252.800 C 53.404 252.800,52.780 252.440,52.308 252.000 C 51.836 251.560,51.213 251.200,50.925 251.200 C 50.636 251.200,50.400 251.020,50.400 250.800 C 50.400 250.580,50.040 250.400,49.600 250.400 C 49.160 250.400,48.800 250.220,48.800 250.000 C 48.800 249.780,48.980 249.600,49.200 249.600 C 49.420 249.600,49.600 249.240,49.600 248.800 C 49.600 248.360,49.780 248.000,50.000 248.000 C 50.220 248.000,50.400 247.640,50.400 247.200 C 50.400 246.760,50.580 246.400,50.800 246.400 C 51.020 246.400,51.200 246.040,51.200 245.600 C 51.200 245.160,51.380 244.800,51.600 244.800 C 51.820 244.800,52.000 244.528,52.000 244.195 C 52.000 243.862,52.159 243.277,52.353 242.895 C 52.717 242.179,53.411 240.554,54.100 238.800 C 54.316 238.250,54.652 237.487,54.847 237.105 C 55.041 236.723,55.200 236.048,55.200 235.605 C 55.200 235.162,55.380 234.800,55.600 234.800 C 55.820 234.800,56.000 234.271,56.000 233.624 C 56.000 232.977,56.159 232.349,56.354 232.229 C 56.549 232.108,56.809 231.513,56.933 230.905 C 57.057 230.297,57.449 228.450,57.805 226.800 C 58.161 225.150,58.550 222.585,58.671 221.100 C 58.792 219.615,59.050 218.400,59.245 218.400 C 59.440 218.400,59.600 216.611,59.600 214.424 C 59.600 212.204,59.777 210.338,60.000 210.200 C 60.223 210.062,60.400 208.204,60.400 206.000 C 60.400 203.796,60.223 201.938,60.000 201.800 C 59.780 201.664,59.600 201.113,59.600 200.576 L 59.600 199.600 75.976 199.600 C 86.463 199.600,92.442 199.744,92.600 200.000 M46.009 215.130 C 45.784 215.205,45.600 216.332,45.600 217.633 C 45.600 218.944,45.422 220.000,45.200 220.000 C 44.980 220.000,44.800 220.709,44.800 221.576 C 44.800 222.443,44.620 223.264,44.400 223.400 C 44.180 223.536,44.000 224.267,44.000 225.024 C 44.000 225.781,43.840 226.400,43.645 226.400 C 43.450 226.400,43.196 226.895,43.080 227.500 C 42.526 230.386,41.683 233.068,40.753 234.895 C 40.559 235.277,40.400 235.952,40.400 236.395 C 40.400 236.838,40.220 237.200,40.000 237.200 C 39.780 237.200,39.600 237.560,39.600 238.000 C 39.600 238.440,39.420 238.800,39.200 238.800 C 38.980 238.800,38.800 239.160,38.800 239.600 C 38.800 240.040,38.620 240.400,38.400 240.400 C 38.180 240.400,38.000 240.760,38.000 241.200 C 38.000 241.640,37.854 242.000,37.675 242.000 C 37.496 242.000,37.102 242.630,36.800 243.400 C 36.498 244.170,36.104 244.800,35.925 244.800 C 35.746 244.800,35.600 245.160,35.600 245.600 C 35.600 246.040,35.420 246.400,35.200 246.400 C 34.980 246.400,34.800 246.720,34.800 247.112 C 34.800 247.503,34.440 248.083,34.000 248.400 C 33.560 248.717,33.200 249.297,33.200 249.688 C 33.200 250.080,33.020 250.400,32.800 250.400 C 32.569 250.400,32.400 251.667,32.400 253.400 C 32.400 255.133,32.569 256.400,32.800 256.400 C 33.020 256.400,33.201 256.625,33.201 256.900 C 33.202 257.175,33.741 257.760,34.400 258.200 C 35.059 258.640,35.598 259.135,35.599 259.300 C 35.599 259.465,35.960 259.600,36.400 259.600 C 36.840 259.600,37.200 259.780,37.200 260.000 C 37.200 260.220,37.740 260.400,38.400 260.400 C 39.060 260.400,39.600 260.580,39.600 260.800 C 39.600 261.020,39.960 261.200,40.400 261.200 C 40.840 261.200,41.200 261.380,41.200 261.600 C 41.200 261.820,41.560 262.000,42.000 262.000 C 42.440 262.000,42.800 262.180,42.800 262.400 C 42.800 262.620,43.070 262.800,43.400 262.800 C 43.730 262.800,44.000 262.980,44.000 263.200 C 44.000 263.420,44.320 263.600,44.712 263.600 C 45.103 263.600,45.683 263.960,46.000 264.400 C 46.317 264.840,46.810 265.200,47.096 265.200 C 47.824 265.200,52.800 270.253,52.800 270.993 C 52.800 271.327,52.980 271.600,53.200 271.600 C 53.851 271.600,53.698 277.159,53.029 277.829 C 52.362 278.495,47.393 278.637,47.000 278.000 C 46.864 277.780,45.964 277.600,45.000 277.600 C 44.036 277.600,43.136 277.420,43.000 277.200 C 42.864 276.980,42.311 276.800,41.771 276.800 C 41.231 276.800,40.477 276.644,40.095 276.454 C 39.173 275.994,36.822 275.170,35.700 274.913 C 35.205 274.799,34.800 274.548,34.800 274.353 C 34.800 274.159,34.440 274.000,34.000 274.000 C 33.560 274.000,33.200 273.820,33.200 273.600 C 33.200 273.380,32.964 273.200,32.675 273.200 C 32.387 273.200,31.764 272.840,31.292 272.400 C 30.820 271.960,30.232 271.600,29.985 271.600 C 29.739 271.600,28.846 270.880,28.000 270.000 C 27.154 269.120,26.298 268.400,26.096 268.400 C 25.655 268.400,23.754 266.337,22.410 264.400 C 21.875 263.630,21.114 262.709,20.719 262.353 C 20.324 261.997,20.000 261.502,20.000 261.253 C 20.000 261.004,19.820 260.800,19.600 260.800 C 19.380 260.800,19.200 260.530,19.200 260.200 C 19.200 259.870,19.020 259.600,18.800 259.600 C 18.580 259.600,18.400 259.330,18.400 259.000 C 18.400 258.670,18.220 258.400,18.000 258.400 C 17.780 258.400,17.600 258.040,17.600 257.600 C 17.600 257.160,17.420 256.800,17.200 256.800 C 16.980 256.800,16.800 256.440,16.800 256.000 C 16.800 255.560,16.620 255.200,16.400 255.200 C 16.180 255.200,16.000 254.840,16.000 254.400 C 16.000 253.960,15.820 253.600,15.600 253.600 C 15.380 253.600,15.200 253.060,15.200 252.400 C 15.200 251.740,15.020 251.200,14.800 251.200 C 14.580 251.200,14.400 250.660,14.400 250.000 C 14.400 249.340,14.220 248.800,14.000 248.800 C 13.780 248.800,13.600 248.091,13.600 247.224 C 13.600 246.357,13.420 245.536,13.200 245.400 C 12.660 245.066,12.660 232.400,13.200 232.400 C 13.420 232.400,13.600 231.680,13.600 230.800 C 13.600 229.920,13.780 229.200,14.000 229.200 C 14.220 229.200,14.400 228.660,14.400 228.000 C 14.400 227.340,14.580 226.800,14.800 226.800 C 15.020 226.800,15.200 226.260,15.200 225.600 C 15.200 224.940,15.380 224.400,15.600 224.400 C 15.820 224.400,16.000 224.040,16.000 223.600 C 16.000 223.160,16.146 222.800,16.325 222.800 C 16.504 222.800,16.898 222.170,17.200 221.400 C 17.502 220.630,17.896 220.000,18.075 220.000 C 18.254 220.000,18.400 219.640,18.400 219.200 C 18.400 218.760,18.550 218.400,18.732 218.400 C 18.915 218.400,19.320 217.908,19.632 217.307 C 19.945 216.706,20.695 215.689,21.300 215.048 C 21.905 214.406,22.400 213.722,22.400 213.527 C 22.400 213.333,23.030 212.543,23.800 211.773 C 24.570 211.003,25.200 210.199,25.200 209.987 C 25.200 209.774,25.478 209.600,25.818 209.600 C 26.158 209.600,26.870 209.195,27.399 208.700 C 28.735 207.451,29.235 207.085,30.500 206.432 C 31.105 206.120,31.600 205.715,31.600 205.532 C 31.600 205.350,31.960 205.200,32.400 205.200 C 32.840 205.200,33.201 205.065,33.203 204.900 C 33.207 204.541,35.144 203.600,35.880 203.600 C 36.166 203.600,36.400 203.420,36.400 203.200 C 36.400 202.980,36.760 202.800,37.200 202.800 C 37.640 202.800,38.000 202.620,38.000 202.400 C 38.000 202.180,38.450 202.000,39.000 202.000 C 39.550 202.000,40.000 201.820,40.000 201.600 C 40.000 201.380,40.540 201.200,41.200 201.200 C 41.860 201.200,42.400 201.030,42.400 200.822 C 42.400 200.614,43.255 200.389,44.300 200.322 L 46.200 200.200 46.309 207.597 C 46.380 212.379,46.274 215.042,46.009 215.130 M71.600 205.600 C 71.600 205.820,71.322 206.000,70.982 206.000 C 70.101 206.000,68.400 207.817,68.400 208.758 C 68.400 209.195,68.220 209.664,68.000 209.800 C 67.780 209.936,67.600 210.847,67.600 211.824 C 67.600 212.801,67.780 213.600,68.000 213.600 C 68.220 213.600,68.400 213.960,68.400 214.400 C 68.400 214.840,68.580 215.200,68.800 215.200 C 69.020 215.200,69.200 215.487,69.200 215.837 C 69.200 216.188,69.560 216.569,70.000 216.684 C 70.440 216.799,70.800 217.052,70.800 217.247 C 70.800 217.441,71.160 217.600,71.600 217.600 C 72.040 217.600,72.400 217.780,72.400 218.000 C 72.400 218.249,74.733 218.400,78.600 218.400 C 82.467 218.400,84.800 218.249,84.800 218.000 C 84.800 217.780,85.076 217.600,85.413 217.600 C 87.307 217.600,88.800 214.961,88.800 211.613 C 88.800 209.738,88.633 208.400,88.400 208.400 C 88.180 208.400,88.000 208.170,88.000 207.889 C 88.000 207.315,86.604 206.000,85.995 206.000 C 85.778 206.000,85.600 205.820,85.600 205.600 C 85.600 205.349,83.000 205.200,78.600 205.200 C 74.200 205.200,71.600 205.349,71.600 205.600 M234.000 209.976 C 234.000 210.183,233.820 210.464,233.600 210.600 C 233.380 210.736,233.200 211.467,233.200 212.224 C 233.200 212.981,233.020 213.600,232.800 213.600 C 232.580 213.600,232.400 214.309,232.400 215.176 C 232.400 216.043,232.220 216.864,232.000 217.000 C 231.780 217.136,231.600 218.047,231.600 219.024 C 231.600 220.001,231.420 220.800,231.200 220.800 C 230.978 220.800,230.800 221.859,230.800 223.176 C 230.800 224.483,230.620 225.664,230.400 225.800 C 230.180 225.936,230.000 227.466,230.000 229.200 C 230.000 230.934,229.820 232.464,229.600 232.600 C 229.345 232.758,229.200 238.196,229.200 247.600 C 229.200 257.004,229.345 262.442,229.600 262.600 C 229.820 262.736,230.000 264.277,230.000 266.024 C 230.000 267.875,230.167 269.200,230.400 269.200 C 230.622 269.200,230.800 270.259,230.800 271.576 C 230.800 272.883,230.980 274.064,231.200 274.200 C 231.420 274.336,231.600 275.337,231.600 276.424 C 231.600 277.511,231.780 278.400,232.000 278.400 C 232.220 278.400,232.400 279.199,232.400 280.176 C 232.400 281.153,232.580 282.064,232.800 282.200 C 233.020 282.336,233.200 283.056,233.200 283.800 C 233.200 284.544,233.380 285.264,233.600 285.400 C 233.820 285.536,234.000 285.997,234.000 286.424 C 234.000 287.299,223.130 287.658,222.600 286.800 C 222.464 286.580,220.754 286.400,218.800 286.400 C 216.846 286.400,215.136 286.220,215.000 286.000 C 214.864 285.780,213.413 285.600,211.776 285.600 C 210.059 285.600,208.800 285.431,208.800 285.200 C 208.800 284.975,207.675 284.800,206.224 284.800 C 204.807 284.800,203.536 284.620,203.400 284.400 C 203.264 284.180,202.184 284.000,201.000 284.000 C 199.816 284.000,198.736 283.820,198.600 283.600 C 198.464 283.380,197.373 283.200,196.176 283.200 C 194.979 283.200,194.000 283.020,194.000 282.800 C 194.000 282.580,193.111 282.400,192.024 282.400 C 190.937 282.400,189.936 282.220,189.800 282.000 C 189.664 281.780,188.764 281.600,187.800 281.600 C 186.836 281.600,185.936 281.420,185.800 281.200 C 185.664 280.980,184.854 280.800,184.000 280.800 C 183.146 280.800,182.336 280.620,182.200 280.400 C 182.064 280.180,181.153 280.000,180.176 280.000 C 179.199 280.000,178.400 279.820,178.400 279.600 C 178.400 279.380,177.680 279.200,176.800 279.200 C 175.920 279.200,175.200 279.020,175.200 278.800 C 175.200 278.580,174.585 278.400,173.832 278.400 C 170.761 278.400,170.005 277.438,170.003 273.524 C 170.001 271.612,169.820 269.936,169.600 269.800 C 169.353 269.647,169.200 266.200,169.200 260.789 C 169.200 250.959,168.420 248.000,165.829 248.000 C 165.483 248.000,165.200 247.820,165.200 247.600 C 165.200 247.024,160.554 247.105,159.520 247.700 C 159.042 247.975,158.054 248.779,157.325 249.487 L 156.000 250.773 156.000 261.563 C 156.000 268.325,156.149 272.445,156.400 272.600 C 157.018 272.982,156.873 274.000,156.200 274.000 C 155.870 274.000,155.600 273.820,155.600 273.600 C 155.600 273.380,155.240 273.200,154.800 273.200 C 154.360 273.200,154.000 273.020,154.000 272.800 C 154.000 272.580,153.730 272.400,153.400 272.400 C 153.070 272.400,152.800 272.220,152.800 272.000 C 152.800 271.780,152.512 271.600,152.160 271.600 C 151.809 271.600,151.017 271.060,150.400 270.400 C 149.783 269.740,149.073 269.200,148.821 269.200 C 148.252 269.200,146.889 267.842,145.610 266.000 C 145.075 265.230,144.314 264.309,143.919 263.953 C 143.524 263.597,143.200 263.012,143.200 262.653 C 143.200 262.294,143.064 262.000,142.898 262.000 C 142.731 262.000,142.347 261.415,142.044 260.700 C 141.741 259.985,141.263 258.860,140.983 258.200 C 139.668 255.106,139.006 249.818,139.404 245.600 C 139.620 243.319,141.573 236.701,142.100 236.467 C 142.265 236.393,142.400 235.988,142.400 235.567 C 142.400 235.145,142.550 234.800,142.732 234.800 C 142.915 234.800,143.320 234.309,143.632 233.708 C 144.422 232.190,150.655 226.000,151.394 226.000 C 151.727 226.000,152.000 225.852,152.000 225.670 C 152.000 225.489,153.125 224.846,154.500 224.241 C 155.875 223.637,157.313 222.975,157.695 222.771 C 158.077 222.567,158.842 222.400,159.395 222.400 C 159.948 222.400,160.400 222.220,160.400 222.000 C 160.400 221.780,161.120 221.600,162.000 221.600 C 162.880 221.600,163.600 221.420,163.600 221.200 C 163.600 220.980,164.219 220.800,164.976 220.800 C 165.733 220.800,166.464 220.620,166.600 220.400 C 166.736 220.180,167.456 220.000,168.200 220.000 C 168.944 220.000,169.664 219.820,169.800 219.600 C 169.936 219.380,170.667 219.200,171.424 219.200 C 172.181 219.200,172.800 219.020,172.800 218.800 C 172.800 218.580,173.520 218.400,174.400 218.400 C 175.280 218.400,176.000 218.238,176.000 218.040 C 176.000 217.842,176.810 217.572,177.800 217.440 C 178.790 217.308,180.410 217.092,181.400 216.960 C 182.390 216.828,183.200 216.558,183.200 216.360 C 183.200 216.162,183.999 216.000,184.976 216.000 C 185.953 216.000,186.864 215.820,187.000 215.600 C 187.136 215.380,188.047 215.200,189.024 215.200 C 190.001 215.200,190.800 215.020,190.800 214.800 C 190.800 214.580,191.700 214.400,192.800 214.400 C 193.900 214.400,194.800 214.220,194.800 214.000 C 194.800 213.778,195.867 213.600,197.200 213.600 C 198.533 213.600,199.600 213.422,199.600 213.200 C 199.600 212.978,200.667 212.800,202.000 212.800 C 203.333 212.800,204.400 212.622,204.400 212.400 C 204.400 212.169,205.667 212.000,207.400 212.000 C 209.133 212.000,210.400 211.831,210.400 211.600 C 210.400 211.367,211.733 211.200,213.600 211.200 C 215.467 211.200,216.800 211.033,216.800 210.800 C 216.800 210.561,218.333 210.400,220.600 210.400 C 222.867 210.400,224.400 210.239,224.400 210.000 C 224.400 209.756,226.267 209.600,229.200 209.600 C 231.933 209.600,234.000 209.762,234.000 209.976 M72.400 229.600 C 72.400 229.820,72.112 230.000,71.760 230.000 C 70.930 230.000,68.400 232.530,68.400 233.360 C 68.400 233.712,68.220 234.000,68.000 234.000 C 67.780 234.000,67.600 234.900,67.600 236.000 C 67.600 237.100,67.780 238.000,68.000 238.000 C 68.220 238.000,68.400 238.368,68.400 238.817 C 68.400 239.780,69.504 241.058,71.013 241.841 C 72.321 242.519,85.600 242.664,85.600 242.000 C 85.600 241.780,85.883 241.600,86.229 241.600 C 89.013 241.600,89.907 234.165,87.446 231.478 C 86.701 230.665,85.812 230.000,85.470 230.000 C 85.127 230.000,84.736 229.820,84.600 229.600 C 84.453 229.362,81.929 229.200,78.376 229.200 C 74.659 229.200,72.400 229.351,72.400 229.600 M131.027 269.400 C 131.392 270.170,131.851 270.800,132.046 270.800 C 132.241 270.800,132.400 271.043,132.400 271.341 C 132.400 271.638,132.940 272.446,133.600 273.137 C 134.260 273.828,134.800 274.488,134.800 274.604 C 134.800 275.022,139.996 280.000,140.432 280.000 C 140.678 280.000,141.383 280.540,142.000 281.200 C 142.617 281.860,143.236 282.400,143.377 282.400 C 143.518 282.400,144.020 282.760,144.492 283.200 C 144.964 283.640,145.587 284.000,145.875 284.000 C 146.164 284.000,146.400 284.180,146.400 284.400 C 146.400 284.620,146.760 284.800,147.200 284.800 C 147.640 284.800,148.000 284.980,148.000 285.200 C 148.000 285.420,148.360 285.600,148.800 285.600 C 149.240 285.600,149.600 285.780,149.600 286.000 C 149.600 286.220,149.962 286.400,150.405 286.400 C 150.848 286.400,151.523 286.561,151.905 286.759 C 152.287 286.956,153.050 287.304,153.600 287.532 C 154.306 287.824,147.506 287.954,130.476 287.973 C 114.489 287.991,106.436 287.865,106.600 287.600 C 106.736 287.380,107.107 287.200,107.424 287.200 C 107.741 287.200,108.000 287.020,108.000 286.800 C 108.000 286.580,108.360 286.400,108.800 286.400 C 109.240 286.400,109.600 286.220,109.600 286.000 C 109.600 285.780,109.960 285.600,110.400 285.600 C 110.840 285.600,111.200 285.420,111.200 285.200 C 111.200 284.980,111.478 284.800,111.817 284.800 C 112.156 284.800,112.820 284.440,113.292 284.000 C 113.764 283.560,114.387 283.200,114.675 283.200 C 114.964 283.200,115.200 283.050,115.200 282.868 C 115.200 282.685,115.695 282.280,116.300 281.968 C 116.905 281.655,117.877 280.905,118.460 280.300 C 119.044 279.695,119.627 279.200,119.756 279.200 C 120.124 279.200,121.610 277.929,122.964 276.456 C 123.644 275.717,124.605 274.690,125.100 274.174 C 125.595 273.658,126.000 273.120,126.000 272.979 C 126.000 272.837,126.540 272.217,127.200 271.600 C 127.860 270.983,128.400 270.315,128.400 270.115 C 128.400 269.750,129.886 268.000,130.197 268.000 C 130.288 268.000,130.661 268.630,131.027 269.400 M56.342 303.500 C 57.606 304.765,59.081 306.057,59.620 306.371 C 61.705 307.586,62.625 307.995,63.276 307.998 C 63.648 307.999,64.064 308.180,64.200 308.400 C 64.336 308.620,65.337 308.800,66.424 308.800 C 67.511 308.800,68.400 308.980,68.400 309.200 C 68.400 309.426,69.533 309.600,71.000 309.600 C 72.467 309.600,73.600 309.426,73.600 309.200 C 73.600 308.980,74.489 308.800,75.576 308.800 C 76.663 308.800,77.664 308.620,77.800 308.400 C 77.936 308.180,78.390 308.000,78.810 308.000 C 79.758 308.000,82.400 306.768,82.400 306.326 C 82.400 306.147,82.654 306.000,82.965 306.000 C 83.276 306.000,84.627 304.920,85.968 303.600 L 88.405 301.200 124.703 301.203 L 161.000 301.206 161.500 302.283 C 161.775 302.875,162.000 303.774,162.000 304.280 C 162.000 304.786,162.180 305.200,162.400 305.200 C 162.620 305.200,162.800 305.729,162.800 306.376 C 162.800 307.023,162.980 307.664,163.200 307.800 C 163.420 307.936,163.600 308.397,163.600 308.824 C 163.600 309.251,163.780 309.600,164.000 309.600 C 164.220 309.600,164.400 310.140,164.400 310.800 C 164.400 311.460,164.580 312.000,164.800 312.000 C 165.020 312.000,165.200 312.439,165.200 312.976 C 165.200 313.513,165.380 314.064,165.600 314.200 C 165.820 314.336,166.000 314.797,166.000 315.224 C 166.000 315.651,166.180 316.000,166.400 316.000 C 166.620 316.000,166.800 316.360,166.800 316.800 C 166.800 317.240,166.980 317.600,167.200 317.600 C 167.420 317.600,167.600 317.949,167.600 318.376 C 167.600 318.803,167.780 319.264,168.000 319.400 C 168.220 319.536,168.400 319.997,168.400 320.424 C 168.400 320.851,168.546 321.200,168.725 321.200 C 168.904 321.200,169.298 321.830,169.600 322.600 C 169.902 323.370,170.296 324.000,170.475 324.000 C 170.654 324.000,170.800 324.270,170.800 324.600 C 170.800 325.129,166.712 325.200,136.412 325.200 C 102.472 325.200,102.005 325.211,100.563 326.021 C 98.734 327.048,98.000 327.772,98.000 328.548 C 98.000 328.881,97.820 329.264,97.600 329.400 C 97.106 329.706,97.071 333.357,97.553 334.305 C 97.748 334.687,98.134 335.488,98.412 336.084 C 99.734 338.916,97.885 338.800,141.496 338.802 L 180.600 338.804 183.713 341.802 C 185.426 343.451,186.963 344.800,187.129 344.800 C 187.296 344.800,188.228 345.520,189.200 346.400 C 190.172 347.280,191.123 348.000,191.313 348.000 C 191.502 348.000,191.894 348.225,192.184 348.500 C 193.522 349.770,194.457 350.400,195.005 350.400 C 195.332 350.400,195.600 350.580,195.600 350.800 C 195.600 351.020,195.960 351.200,196.400 351.200 C 196.840 351.200,197.200 351.348,197.200 351.529 C 197.200 351.890,200.773 353.600,201.528 353.600 C 201.788 353.600,202.000 353.780,202.000 354.000 C 202.000 354.220,202.360 354.400,202.800 354.400 C 203.240 354.400,203.600 354.580,203.600 354.800 C 203.600 355.020,204.140 355.200,204.800 355.200 C 205.460 355.200,206.000 355.380,206.000 355.600 C 206.000 355.820,206.540 356.000,207.200 356.000 C 207.860 356.000,208.400 356.180,208.400 356.400 C 208.400 356.620,209.019 356.800,209.776 356.800 C 210.533 356.800,211.264 356.980,211.400 357.200 C 211.536 357.420,213.081 357.600,214.834 357.600 L 218.021 357.600 219.811 355.811 L 221.600 354.021 221.600 351.011 C 221.600 349.270,221.431 348.000,221.200 348.000 C 220.980 348.000,220.800 347.706,220.800 347.347 C 220.800 346.537,218.839 344.801,217.924 344.800 C 217.552 344.800,217.136 344.620,217.000 344.400 C 216.864 344.180,216.234 344.000,215.600 344.000 C 214.966 344.000,214.336 343.820,214.200 343.600 C 214.064 343.380,213.333 343.200,212.576 343.200 C 211.819 343.200,211.200 343.036,211.200 342.835 C 211.200 342.634,210.481 342.349,209.602 342.200 C 208.723 342.052,207.903 341.766,207.778 341.565 C 207.654 341.364,207.203 341.200,206.776 341.200 C 206.349 341.200,206.000 341.020,206.000 340.800 C 206.000 340.580,205.640 340.400,205.200 340.400 C 204.760 340.400,204.400 340.220,204.400 340.000 C 204.400 339.780,204.040 339.600,203.600 339.600 C 203.160 339.600,202.800 339.420,202.800 339.200 C 202.800 338.935,229.200 338.800,281.200 338.800 L 359.600 338.800 359.600 363.000 L 359.600 387.200 200.000 387.200 L 40.400 387.200 40.400 363.000 L 40.400 338.800 61.400 338.800 C 75.133 338.800,82.400 338.662,82.400 338.400 C 82.400 338.180,82.746 338.000,83.169 338.000 C 84.165 338.000,86.400 335.765,86.400 334.769 C 86.400 334.346,86.580 334.000,86.800 334.000 C 87.294 334.000,87.331 330.646,86.847 329.695 C 86.652 329.313,86.271 328.522,86.000 327.939 C 84.699 325.142,85.613 325.218,51.800 325.101 C 20.684 324.994,19.218 324.922,19.203 323.500 C 19.201 323.335,18.925 323.200,18.589 323.200 C 17.796 323.200,14.400 319.804,14.400 319.011 C 14.400 318.675,14.220 318.400,14.000 318.400 C 13.780 318.400,13.600 318.051,13.600 317.624 C 13.600 317.197,13.420 316.736,13.200 316.600 C 12.980 316.464,12.800 314.833,12.800 312.976 C 12.800 310.992,12.965 309.600,13.200 309.600 C 13.420 309.600,13.600 309.240,13.600 308.800 C 13.600 308.360,13.780 308.000,14.000 308.000 C 14.220 308.000,14.400 307.793,14.400 307.539 C 14.400 306.851,18.651 302.800,19.374 302.800 C 19.718 302.800,20.000 302.620,20.000 302.400 C 20.000 302.180,20.439 302.000,20.976 302.000 C 21.513 302.000,22.064 301.820,22.200 301.600 C 22.358 301.344,28.145 301.200,38.246 301.200 L 54.044 301.200 56.342 303.500 M377.800 301.600 C 377.936 301.820,378.487 302.000,379.024 302.000 C 379.561 302.000,380.000 302.180,380.000 302.400 C 380.000 302.620,380.282 302.800,380.626 302.800 C 381.349 302.800,385.600 306.851,385.600 307.539 C 385.600 307.793,385.780 308.000,386.000 308.000 C 386.220 308.000,386.400 308.360,386.400 308.800 C 386.400 309.240,386.580 309.600,386.800 309.600 C 387.328 309.600,387.328 316.274,386.800 316.600 C 386.580 316.736,386.400 317.197,386.400 317.624 C 386.400 318.051,386.220 318.400,386.000 318.400 C 385.780 318.400,385.600 318.675,385.600 319.011 C 385.600 319.804,382.204 323.200,381.411 323.200 C 381.075 323.200,380.799 323.335,380.797 323.500 C 380.781 325.028,382.789 324.995,282.917 325.105 L 187.233 325.210 186.754 324.305 C 186.490 323.807,185.943 323.109,185.537 322.753 C 185.132 322.397,184.800 321.812,184.800 321.453 C 184.800 321.094,184.620 320.800,184.400 320.800 C 184.180 320.800,184.000 320.564,184.000 320.275 C 184.000 319.987,183.640 319.364,183.200 318.892 C 182.760 318.420,182.400 317.756,182.400 317.417 C 182.400 317.078,182.220 316.800,182.000 316.800 C 181.780 316.800,181.600 316.440,181.600 316.000 C 181.600 315.560,181.420 315.200,181.200 315.200 C 180.980 315.200,180.800 314.840,180.800 314.400 C 180.800 313.960,180.620 313.600,180.400 313.600 C 180.180 313.600,180.000 313.240,180.000 312.800 C 180.000 312.360,179.820 312.000,179.600 312.000 C 179.380 312.000,179.200 311.640,179.200 311.200 C 179.200 310.760,179.020 310.400,178.800 310.400 C 178.580 310.400,178.400 309.950,178.400 309.400 C 178.400 308.850,178.220 308.400,178.000 308.400 C 177.780 308.400,177.600 308.040,177.600 307.600 C 177.600 307.160,177.420 306.800,177.200 306.800 C 176.980 306.800,176.800 306.260,176.800 305.600 C 176.800 304.940,176.620 304.400,176.400 304.400 C 176.180 304.400,176.000 303.860,176.000 303.200 C 176.000 302.540,175.820 302.000,175.600 302.000 C 175.380 302.000,175.200 301.820,175.200 301.600 C 175.200 301.334,209.192 301.200,276.376 301.200 C 343.396 301.200,377.636 301.335,377.800 301.600 " stroke="none" fill="#040404" fill-rule="evenodd"></path><path id="path1" d="" stroke="none" fill="#080404" fill-rule="evenodd"></path><path id="path2" d="" stroke="none" fill="#080404" fill-rule="evenodd"></path><path id="path3" d="" stroke="none" fill="#080404" fill-rule="evenodd"></path><path id="path4" d="" stroke="none" fill="#080404" fill-rule="evenodd"></path></g></svg>