<svg id="svg" version="1.1" xmlns="http://www.w3.org/2000/svg" xmlns:xlink="http://www.w3.org/1999/xlink" width="400" height="400" viewBox="0, 0, 400,400"><g id="svgg"><path id="path0" d="M277.400 40.652 C 269.184 42.580,260.882 50.543,259.757 57.576 C 259.613 58.479,259.339 59.314,259.147 59.432 C 258.644 59.744,258.696 140.688,259.200 141.000 C 259.420 141.136,259.600 141.578,259.600 141.982 C 259.600 146.801,271.162 158.400,275.966 158.400 C 276.337 158.400,276.865 158.625,277.140 158.900 C 277.527 159.288,284.615 159.445,308.760 159.600 L 339.880 159.800 345.040 163.686 C 347.878 165.823,350.814 168.071,351.564 168.681 C 352.314 169.291,353.244 169.972,353.631 170.195 C 354.410 170.644,363.816 177.723,365.964 179.476 C 366.714 180.089,367.635 180.772,368.011 180.995 C 368.387 181.218,369.198 181.755,369.814 182.190 C 371.364 183.283,376.322 183.317,378.600 182.250 C 383.060 180.160,383.692 178.443,383.911 167.814 C 384.092 159.000,384.216 158.450,386.018 158.413 C 388.955 158.352,398.429 151.160,399.637 148.074 C 399.847 147.539,400.000 127.130,400.000 99.721 L 400.000 52.294 399.120 50.847 C 396.310 46.223,390.056 41.911,384.275 40.612 C 380.362 39.733,281.159 39.770,277.400 40.652 M381.023 59.611 C 382.278 60.219,382.961 60.929,383.749 62.448 L 384.800 64.474 384.800 100.013 C 384.800 123.275,384.662 135.638,384.400 135.800 C 384.180 135.936,384.000 136.398,384.000 136.827 C 384.000 139.114,380.852 140.715,376.000 140.895 C 368.527 141.173,365.336 144.162,364.891 151.300 C 364.675 154.762,364.501 154.911,362.678 153.199 C 361.975 152.538,361.040 151.885,360.600 151.746 C 360.160 151.608,359.334 150.979,358.764 150.347 C 358.195 149.716,357.583 149.200,357.406 149.200 C 357.228 149.200,356.314 148.570,355.374 147.800 C 354.434 147.030,353.571 146.400,353.455 146.400 C 353.339 146.400,352.560 145.771,351.722 145.002 C 350.885 144.233,350.032 143.603,349.826 143.602 C 349.620 143.601,349.067 143.238,348.596 142.796 C 346.546 140.870,345.289 140.800,312.804 140.800 C 292.998 140.800,282.361 140.661,282.200 140.400 C 282.064 140.180,281.545 140.000,281.046 140.000 C 280.120 140.000,279.074 139.049,277.874 137.114 C 277.255 136.117,277.200 133.065,277.200 99.705 L 277.200 63.382 278.468 61.844 C 281.219 58.506,276.111 58.803,330.774 58.801 C 378.750 58.800,379.368 58.810,381.023 59.611 M304.200 66.541 C 298.312 69.671,298.105 78.291,303.818 82.395 L 305.774 83.800 338.415 83.800 L 371.056 83.800 372.907 82.848 C 378.891 79.770,379.966 72.428,375.119 67.735 C 372.431 65.132,373.450 65.201,338.400 65.235 L 306.600 65.265 304.200 66.541 M289.846 90.989 C 282.320 93.671,281.850 104.323,289.093 108.048 L 290.944 109.000 331.000 109.000 L 371.056 109.000 372.907 108.048 C 380.291 104.250,379.529 92.995,371.742 90.833 C 369.203 90.128,291.848 90.275,289.846 90.989 M289.800 116.263 C 282.404 118.932,281.846 129.621,288.921 133.128 C 292.216 134.761,292.914 134.795,323.094 134.798 C 356.201 134.800,356.919 134.740,359.606 131.728 C 362.655 128.310,363.265 122.031,360.768 119.771 C 360.346 119.389,360.000 118.839,360.000 118.550 C 360.000 118.260,358.965 117.523,357.700 116.912 L 355.400 115.800 323.400 115.743 C 296.417 115.695,291.149 115.777,289.800 116.263 M29.600 149.655 C 27.950 150.093,26.103 150.551,25.495 150.672 C 24.887 150.793,24.292 151.051,24.171 151.246 C 24.051 151.441,23.655 151.600,23.290 151.600 C 22.387 151.600,16.233 154.637,15.607 155.392 C 15.329 155.726,14.925 156.000,14.710 156.000 C 14.364 156.000,12.872 157.133,8.100 161.020 C 7.385 161.602,6.800 162.268,6.800 162.498 C 6.800 162.729,6.204 163.656,5.477 164.559 C -0.163 171.552,0.021 170.686,0.010 190.325 L 0.000 206.450 1.010 208.584 C 1.565 209.758,2.285 210.939,2.610 211.208 C 2.934 211.477,3.200 211.872,3.200 212.086 C 3.200 212.689,4.731 214.605,8.000 218.093 C 10.664 220.936,12.403 222.393,14.854 223.836 C 15.261 224.075,15.911 224.542,16.297 224.873 C 17.277 225.713,21.223 227.600,21.999 227.600 C 22.351 227.600,22.811 227.754,23.020 227.942 C 23.561 228.430,27.376 229.598,28.475 229.613 C 29.730 229.630,30.692 230.430,31.018 231.728 C 31.167 232.322,31.449 232.906,31.644 233.027 C 31.840 233.148,32.000 233.676,32.000 234.200 C 32.000 234.724,32.180 235.264,32.400 235.400 C 32.620 235.536,32.800 235.999,32.800 236.429 C 32.800 236.859,32.962 237.523,33.160 237.905 C 33.358 238.287,33.845 239.680,34.242 241.000 C 34.639 242.320,35.107 243.571,35.282 243.780 C 35.457 243.989,35.600 244.467,35.600 244.842 C 35.600 245.217,35.942 246.216,36.360 247.062 C 36.777 247.908,37.396 249.500,37.734 250.600 C 38.612 253.455,39.255 255.294,39.654 256.095 C 39.844 256.477,40.000 257.064,40.000 257.400 C 40.000 257.736,40.156 258.323,40.346 258.705 C 40.741 259.497,41.373 261.302,42.270 264.200 C 42.610 265.300,43.209 266.920,43.600 267.800 C 43.991 268.680,44.593 270.300,44.938 271.400 C 45.871 274.376,46.618 276.351,46.926 276.659 C 47.077 276.810,47.200 277.407,47.200 277.987 C 47.200 278.566,47.350 279.211,47.532 279.420 C 47.715 279.629,48.196 280.934,48.601 282.319 C 49.007 283.705,49.487 284.930,49.669 285.043 C 49.851 285.155,50.000 285.599,50.000 286.029 C 50.000 286.784,50.144 287.174,51.138 289.095 C 51.392 289.587,51.600 290.341,51.600 290.771 C 51.600 291.201,51.780 291.664,52.000 291.800 C 52.220 291.936,52.401 292.352,52.402 292.724 C 52.404 293.096,52.674 293.916,53.002 294.546 C 53.331 295.176,53.600 296.003,53.600 296.384 C 53.600 296.764,53.960 297.402,54.400 297.800 C 54.840 298.198,55.200 298.752,55.200 299.031 C 55.200 299.310,55.619 300.047,56.132 300.669 C 56.644 301.291,57.179 302.115,57.319 302.500 C 57.460 302.885,57.768 303.200,58.005 303.200 C 58.242 303.200,59.515 304.098,60.834 305.197 C 62.154 306.295,63.676 307.304,64.217 307.440 L 65.200 307.687 65.202 329.943 C 65.205 361.357,64.368 359.994,83.662 359.998 C 93.954 360.000,94.383 359.969,96.015 359.100 C 98.212 357.930,100.800 354.994,100.800 353.672 C 100.800 353.114,100.974 352.104,101.186 351.428 C 101.771 349.564,103.727 337.187,104.224 332.200 C 104.356 330.880,104.620 329.440,104.811 329.000 C 105.002 328.560,105.242 327.390,105.344 326.400 C 105.447 325.410,105.824 322.710,106.182 320.400 C 106.541 318.090,106.997 315.120,107.196 313.800 C 107.395 312.480,107.679 310.996,107.825 310.503 L 108.092 309.606 191.746 309.503 L 275.400 309.400 277.663 308.322 C 281.630 306.433,283.141 302.148,281.795 296.600 C 281.457 295.206,278.531 292.000,277.597 292.000 C 277.247 292.000,276.789 291.836,276.580 291.635 C 275.705 290.795,266.907 290.696,171.633 290.454 L 71.865 290.200 71.162 289.000 C 70.775 288.340,70.444 287.530,70.427 287.200 C 70.409 286.870,70.126 286.084,69.798 285.454 C 69.469 284.824,69.200 283.980,69.200 283.578 C 69.200 283.176,69.038 282.747,68.840 282.625 C 68.642 282.503,68.264 281.501,68.000 280.400 C 67.736 279.299,67.358 278.297,67.160 278.175 C 66.962 278.053,66.800 277.610,66.800 277.190 C 66.800 276.501,66.080 274.543,65.151 272.705 C 64.958 272.323,64.800 271.736,64.800 271.400 C 64.800 271.064,64.635 270.477,64.433 270.095 C 64.232 269.713,63.758 268.320,63.382 267.000 C 63.005 265.680,62.540 264.429,62.349 264.220 C 62.157 264.011,62.000 263.521,62.000 263.132 C 62.000 262.743,61.669 261.834,61.265 261.112 C 60.860 260.390,60.432 259.350,60.313 258.800 C 60.047 257.572,58.432 252.856,57.951 251.905 C 57.758 251.523,57.600 250.859,57.600 250.429 C 57.600 249.999,57.441 249.549,57.246 249.429 C 57.051 249.308,56.806 248.713,56.700 248.105 C 56.479 246.841,55.018 242.563,53.999 240.200 C 53.316 238.616,52.152 235.267,50.940 231.400 C 50.595 230.300,50.167 229.040,49.990 228.600 C 49.812 228.160,49.577 227.440,49.467 227.000 C 49.085 225.470,47.614 221.854,47.208 221.448 C 46.984 221.224,46.800 220.657,46.800 220.188 C 46.800 217.882,43.048 212.800,41.345 212.800 C 40.851 212.800,40.336 212.620,40.200 212.400 C 40.064 212.180,38.894 212.000,37.600 212.000 C 36.306 212.000,35.150 211.843,35.032 211.652 C 34.914 211.460,33.927 211.218,32.839 211.113 C 22.484 210.118,13.197 196.154,15.827 185.532 C 16.417 183.149,16.765 182.217,18.338 178.805 C 21.885 171.112,37.811 165.110,46.579 168.162 C 48.970 168.994,51.600 172.257,51.600 174.392 C 51.600 174.786,51.869 175.624,52.198 176.254 C 52.526 176.884,52.796 177.704,52.798 178.076 C 52.799 178.448,52.980 178.864,53.200 179.000 C 53.420 179.136,53.600 179.676,53.600 180.200 C 53.600 180.724,53.780 181.264,54.000 181.400 C 54.220 181.536,54.400 181.999,54.400 182.429 C 54.400 182.859,54.556 183.523,54.746 183.905 C 55.309 185.034,56.077 187.318,56.292 188.505 C 56.402 189.113,56.651 189.708,56.846 189.829 C 57.041 189.949,57.200 190.451,57.200 190.944 C 57.200 191.437,57.358 192.011,57.551 192.220 C 57.744 192.429,58.210 193.590,58.586 194.800 C 58.963 196.010,59.615 197.763,60.036 198.696 C 60.456 199.628,60.800 200.743,60.800 201.172 C 60.800 201.601,60.980 202.064,61.200 202.200 C 61.420 202.336,61.600 202.876,61.600 203.400 C 61.600 203.924,61.759 204.451,61.954 204.571 C 62.149 204.692,62.394 205.287,62.500 205.895 C 62.683 206.944,64.119 211.283,64.851 213.000 C 65.523 214.575,67.678 220.617,67.885 221.506 C 68.001 222.004,68.254 222.510,68.448 222.630 C 68.641 222.749,68.800 223.341,68.800 223.944 C 68.800 224.547,68.943 225.211,69.118 225.420 C 69.293 225.629,69.774 226.880,70.189 228.200 C 70.603 229.520,71.090 230.771,71.271 230.980 C 71.452 231.189,71.600 231.686,71.600 232.085 C 71.600 232.484,71.780 233.168,72.000 233.605 C 72.220 234.042,72.580 234.758,72.800 235.195 C 73.020 235.632,73.200 236.341,73.200 236.771 C 73.200 237.201,73.380 237.664,73.600 237.800 C 73.820 237.936,74.000 238.452,74.000 238.947 C 74.000 239.442,74.264 240.196,74.587 240.624 C 74.910 241.051,75.180 241.717,75.187 242.105 C 75.194 242.493,75.361 243.123,75.557 243.505 C 75.753 243.887,76.420 245.820,77.039 247.800 C 77.658 249.780,78.307 251.571,78.482 251.780 C 78.657 251.989,78.800 252.486,78.800 252.885 C 78.800 253.284,78.958 253.923,79.151 254.305 C 79.632 255.256,81.247 259.972,81.513 261.200 C 81.632 261.750,82.060 262.790,82.465 263.512 C 82.869 264.234,83.200 265.091,83.200 265.418 C 83.200 265.744,83.358 266.323,83.552 266.705 C 83.745 267.087,84.213 268.390,84.592 269.600 C 86.065 274.305,86.747 275.170,90.379 276.939 L 92.557 278.000 107.400 278.000 L 122.243 278.000 124.322 276.964 C 126.501 275.878,128.800 273.500,128.800 272.332 C 128.800 271.956,128.980 271.536,129.200 271.400 C 129.734 271.070,129.708 267.983,129.152 265.776 C 128.555 263.405,125.306 260.113,123.239 259.785 C 122.447 259.659,121.487 259.386,121.105 259.178 C 120.723 258.970,116.044 258.800,110.703 258.800 L 100.995 258.800 100.541 257.700 C 100.291 257.095,99.996 256.240,99.884 255.800 C 99.460 254.124,97.090 247.783,96.753 247.420 C 96.559 247.211,96.400 246.896,96.400 246.720 C 96.400 246.544,142.535 246.400,198.921 246.400 L 301.443 246.400 303.468 245.391 C 309.682 242.294,310.598 235.051,305.414 230.000 L 303.566 228.200 266.827 228.092 L 230.088 227.984 225.844 219.443 C 223.510 214.745,221.600 210.749,221.600 210.562 C 221.600 209.748,214.349 195.695,213.424 194.717 C 212.861 194.122,212.400 193.488,212.400 193.309 C 212.400 192.427,203.054 184.000,202.076 184.000 C 201.868 184.000,201.493 183.753,201.243 183.452 C 200.594 182.669,195.858 180.400,194.875 180.400 C 194.420 180.400,193.936 180.220,193.800 180.000 C 193.664 179.780,193.149 179.600,192.656 179.600 C 192.163 179.600,191.589 179.457,191.380 179.282 C 189.129 177.396,183.369 177.213,125.933 177.206 C 70.477 177.200,72.000 177.240,72.000 175.781 C 72.000 175.267,71.841 174.749,71.646 174.629 C 71.451 174.508,71.205 173.913,71.098 173.305 C 70.840 171.837,68.402 165.103,67.953 164.620 C 67.759 164.411,67.600 163.837,67.600 163.344 C 67.600 162.851,67.413 162.331,67.184 162.190 C 66.955 162.049,66.312 161.211,65.755 160.329 C 62.667 155.436,56.753 151.102,50.941 149.471 C 47.272 148.442,33.731 148.559,29.600 149.655 M184.723 196.840 C 189.830 198.037,197.522 203.910,199.600 208.200 C 199.920 208.860,200.591 210.071,201.091 210.892 C 201.591 211.713,202.003 212.703,202.006 213.092 C 202.009 213.481,203.449 216.669,205.206 220.176 C 206.963 223.683,208.400 226.878,208.400 227.276 C 208.400 227.971,206.078 228.000,149.531 228.000 C 84.502 228.000,89.200 228.190,89.200 225.562 C 89.200 224.949,89.020 224.336,88.800 224.200 C 88.580 224.064,88.400 223.610,88.400 223.190 C 88.400 222.501,87.680 220.543,86.751 218.705 C 86.558 218.323,86.400 217.736,86.400 217.400 C 86.400 217.064,86.235 216.477,86.033 216.095 C 85.832 215.713,85.358 214.320,84.982 213.000 C 84.605 211.680,84.140 210.429,83.949 210.220 C 83.757 210.011,83.600 209.521,83.600 209.132 C 83.600 208.743,83.269 207.834,82.865 207.112 C 82.460 206.390,82.032 205.350,81.913 204.800 C 81.647 203.572,80.032 198.856,79.551 197.905 C 79.358 197.523,79.200 197.028,79.200 196.805 C 79.200 196.214,182.196 196.248,184.723 196.840 M322.679 228.775 C 315.619 232.069,315.906 242.482,323.144 245.727 C 323.914 246.072,332.396 246.254,354.400 246.400 L 384.600 246.600 384.710 252.700 L 384.821 258.800 266.234 258.800 C 187.608 258.800,147.564 258.935,147.400 259.200 C 147.264 259.420,146.651 259.600,146.038 259.600 C 137.569 259.600,135.903 273.721,143.945 277.327 C 144.745 277.686,172.016 277.848,256.800 278.000 L 368.600 278.200 368.600 283.459 C 368.600 288.070,368.506 288.822,367.838 289.559 L 367.076 290.400 334.762 290.400 C 313.650 290.400,302.362 290.539,302.200 290.800 C 302.064 291.020,301.001 291.200,299.838 291.200 C 290.419 291.200,287.929 304.304,296.532 308.591 L 298.557 309.600 314.996 309.600 L 331.435 309.600 331.901 311.900 C 332.157 313.165,332.653 316.270,333.003 318.800 C 333.353 321.330,333.811 323.953,334.020 324.628 C 334.229 325.304,334.400 326.688,334.400 327.705 C 334.400 328.721,334.580 329.664,334.800 329.800 C 335.020 329.936,335.200 330.677,335.200 331.447 C 335.200 332.906,335.641 336.198,336.621 342.057 C 336.940 343.959,337.200 346.063,337.200 346.734 C 337.200 347.404,337.380 348.064,337.600 348.200 C 337.820 348.336,338.000 349.236,338.000 350.200 C 338.000 351.164,338.180 352.064,338.400 352.200 C 338.620 352.336,338.806 352.932,338.813 353.524 C 338.834 355.168,340.789 357.650,343.011 358.852 L 345.000 359.928 355.800 359.958 C 369.580 359.997,370.806 359.640,373.236 354.887 L 374.200 353.000 374.313 330.475 L 374.426 307.949 376.057 307.219 C 383.286 303.982,388.000 294.542,388.000 283.300 L 388.000 278.000 388.976 278.000 C 389.513 278.000,390.064 277.820,390.200 277.600 C 390.336 277.380,390.775 277.200,391.175 277.200 C 391.892 277.200,393.699 276.463,395.542 275.418 C 396.060 275.125,397.275 274.108,398.242 273.159 L 400.000 271.433 400.000 253.143 C 400.000 242.534,399.840 234.432,399.619 233.851 C 399.232 232.832,396.442 230.846,392.827 229.013 L 390.827 228.000 357.513 228.032 C 326.487 228.063,324.096 228.113,322.679 228.775 M88.631 310.500 C 88.424 311.506,87.811 315.254,87.203 319.233 C 86.981 320.681,86.800 322.490,86.800 323.253 C 86.800 324.016,86.636 324.811,86.435 325.020 C 86.235 325.229,85.980 326.390,85.869 327.600 C 85.640 330.112,84.483 337.599,84.231 338.200 C 84.139 338.420,84.049 332.075,84.032 324.100 L 84.000 309.600 86.408 309.600 C 88.692 309.600,88.806 309.646,88.631 310.500 M355.154 323.500 C 355.106 337.852,354.844 338.743,353.745 328.294 C 353.612 327.025,353.345 325.889,353.151 325.770 C 352.958 325.651,352.800 324.923,352.800 324.153 C 352.800 322.592,352.243 318.581,351.375 313.892 C 350.543 309.393,350.464 309.600,353.000 309.600 L 355.200 309.600 355.154 323.500 " stroke="none" fill="#040404" fill-rule="evenodd"></path><path id="path1" d="" stroke="none" fill="#080404" fill-rule="evenodd"></path><path id="path2" d="" stroke="none" fill="#080404" fill-rule="evenodd"></path><path id="path3" d="" stroke="none" fill="#080404" fill-rule="evenodd"></path><path id="path4" d="" stroke="none" fill="#080404" fill-rule="evenodd"></path></g></svg>