<svg id="svg" version="1.1" xmlns="http://www.w3.org/2000/svg" xmlns:xlink="http://www.w3.org/1999/xlink" width="400" height="400" viewBox="0, 0, 400,400"><g id="svgg"><path id="path0" d="M123.129 1.501 C 117.755 5.044,117.861 4.245,118.123 39.202 L 118.359 70.703 120.808 77.548 C 124.191 87.002,127.449 92.161,134.959 99.954 L 141.403 106.641 141.405 124.023 L 141.406 141.406 109.883 141.406 L 78.359 141.406 75.313 143.667 C 73.637 144.911,68.052 150.184,62.903 155.386 L 53.540 164.844 38.489 164.844 L 23.438 164.844 23.432 156.836 C 23.428 150.308,23.155 148.415,21.955 146.595 C 17.248 139.456,6.189 139.456,1.483 146.595 C -0.806 150.067,-0.806 249.933,1.483 253.405 C 6.189 260.544,17.248 260.544,21.955 253.405 C 23.155 251.585,23.428 249.692,23.432 243.164 L 23.438 235.156 35.547 235.156 L 47.656 235.156 47.661 313.867 C 47.667 401.537,47.257 394.833,52.845 398.517 C 56.348 400.827,134.166 400.794,140.892 398.480 C 170.931 388.145,173.408 345.645,144.727 332.678 L 141.406 331.177 141.406 318.360 L 141.406 305.543 161.523 305.310 C 186.860 305.018,183.081 307.691,196.909 280.273 L 207.842 258.594 240.986 258.594 L 274.129 258.594 297.630 246.875 L 321.132 235.156 334.312 235.156 C 356.112 235.156,366.999 229.578,373.572 215.039 L 375.073 211.719 383.826 211.714 C 396.088 211.706,399.990 208.879,399.990 200.000 C 399.990 191.121,396.088 188.294,383.826 188.286 L 375.073 188.281 373.572 184.961 C 366.999 170.422,356.112 164.844,334.312 164.844 L 321.132 164.844 297.630 153.125 L 274.129 141.406 242.924 141.406 L 211.719 141.406 211.727 124.023 L 211.734 106.641 218.636 99.493 C 233.337 84.270,235.158 77.398,235.151 37.180 C 235.145 4.269,235.246 4.963,229.968 1.483 C 226.472 -0.822,126.627 -0.805,123.129 1.501 M211.719 35.156 L 211.719 46.875 176.563 46.875 L 141.406 46.875 141.406 35.156 L 141.406 23.438 176.563 23.438 L 211.719 23.438 211.719 35.156 M208.594 71.363 C 208.594 71.941,207.244 74.502,205.595 77.054 C 191.841 98.333,161.284 98.333,147.530 77.054 C 142.802 69.739,140.332 70.313,176.563 70.313 C 202.873 70.313,208.594 70.500,208.594 71.363 M188.281 129.102 L 188.281 141.406 176.563 141.406 L 164.844 141.406 164.844 129.102 L 164.844 116.797 176.563 116.797 L 188.281 116.797 188.281 129.102 M94.536 184.570 C 94.544 214.985,86.057 211.708,164.844 211.708 C 243.631 211.708,235.143 214.985,235.151 184.570 L 235.156 164.844 246.875 164.844 L 258.594 164.844 258.594 200.000 L 258.594 235.156 191.767 235.156 L 124.939 235.156 121.649 238.225 L 118.359 241.294 118.123 293.108 C 117.843 354.512,117.356 351.893,129.362 353.489 C 141.316 355.078,144.980 368.347,135.156 374.468 C 132.486 376.132,131.705 376.177,101.758 376.409 L 71.094 376.646 71.094 279.546 L 71.094 182.446 79.870 173.645 C 87.950 165.542,88.880 164.844,91.589 164.844 L 94.531 164.844 94.536 184.570 M211.719 176.563 L 211.719 188.281 164.844 188.281 L 117.969 188.281 117.969 176.563 L 117.969 164.844 164.844 164.844 L 211.719 164.844 211.719 176.563 M305.469 200.000 L 305.469 215.615 293.750 221.484 L 282.031 227.354 282.031 200.000 L 282.031 172.646 293.750 178.516 L 305.469 184.385 305.469 200.000 M47.656 200.000 L 47.656 211.719 35.547 211.719 L 23.438 211.719 23.438 200.000 L 23.438 188.281 35.547 188.281 L 47.656 188.281 47.656 200.000 M346.974 190.448 C 358.791 197.764,352.375 210.798,336.581 211.558 L 328.906 211.928 328.906 200.000 L 328.906 188.072 336.622 188.444 C 342.634 188.733,344.920 189.176,346.974 190.448 M174.609 270.313 L 168.740 282.031 155.073 282.031 L 141.406 282.031 141.406 270.313 L 141.406 258.594 160.942 258.594 L 180.479 258.594 174.609 270.313 " stroke="none" fill="#000000" fill-rule="evenodd"></path></g></svg>