<svg id="svg" version="1.1" xmlns="http://www.w3.org/2000/svg" xmlns:xlink="http://www.w3.org/1999/xlink" width="400" height="400" viewBox="0, 0, 400,400"><g id="svgg"><path id="path0" d="M167.300 0.278 C 166.585 0.373,166.000 0.619,166.000 0.825 C 166.000 1.031,165.676 1.200,165.280 1.200 C 164.386 1.200,162.407 2.094,162.403 2.500 C 162.401 2.665,162.130 2.800,161.800 2.800 C 161.470 2.800,161.200 2.980,161.200 3.200 C 161.200 3.420,161.003 3.600,160.763 3.600 C 160.282 3.600,154.671 9.175,153.405 10.910 C 152.758 11.798,152.298 12.000,150.929 12.000 C 150.004 12.000,149.136 12.180,149.000 12.400 C 148.864 12.620,148.234 12.800,147.600 12.800 C 146.966 12.800,146.336 12.980,146.200 13.200 C 146.064 13.420,145.513 13.600,144.976 13.600 C 144.439 13.600,144.000 13.780,144.000 14.000 C 144.000 14.220,143.550 14.400,143.000 14.400 C 142.450 14.400,142.000 14.580,142.000 14.800 C 142.000 15.020,141.764 15.200,141.475 15.200 C 141.187 15.200,140.564 15.560,140.092 16.000 C 139.620 16.440,139.044 16.800,138.813 16.800 C 138.582 16.800,137.828 17.340,137.137 18.000 C 136.446 18.660,135.723 19.200,135.530 19.200 C 135.072 19.200,131.600 22.672,131.600 23.130 C 131.600 23.323,131.089 24.016,130.465 24.669 C 129.841 25.321,129.078 26.428,128.768 27.128 C 128.458 27.828,128.069 28.400,127.902 28.400 C 127.736 28.400,127.600 28.653,127.600 28.962 C 127.600 29.271,127.259 30.216,126.842 31.062 C 124.969 34.865,125.000 34.198,125.000 71.000 L 125.000 105.800 126.124 108.127 C 127.161 110.274,132.180 115.987,133.048 116.009 C 133.242 116.014,133.850 116.370,134.400 116.800 C 134.950 117.230,135.805 117.586,136.300 117.591 C 136.795 117.596,137.200 117.780,137.200 118.000 C 137.200 118.220,137.909 118.400,138.776 118.400 C 139.643 118.400,140.464 118.580,140.600 118.800 C 140.736 119.020,141.737 119.200,142.824 119.200 C 144.652 119.200,144.800 119.273,144.800 120.176 C 144.800 120.713,144.980 121.264,145.200 121.400 C 145.420 121.536,145.600 122.076,145.600 122.600 C 145.600 123.124,145.780 123.664,146.000 123.800 C 146.220 123.936,146.400 124.487,146.400 125.024 C 146.400 125.561,146.580 126.000,146.800 126.000 C 147.020 126.000,147.200 126.540,147.200 127.200 C 147.200 127.860,147.380 128.400,147.600 128.400 C 147.820 128.400,148.000 128.760,148.000 129.200 C 148.000 129.640,148.180 130.000,148.400 130.000 C 148.620 130.000,148.800 130.360,148.800 130.800 C 148.800 131.240,148.980 131.600,149.200 131.600 C 149.420 131.600,149.600 131.960,149.600 132.400 C 149.600 132.840,149.780 133.200,150.000 133.200 C 150.220 133.200,150.400 133.478,150.400 133.817 C 150.400 134.156,150.760 134.820,151.200 135.292 C 151.640 135.764,152.000 136.387,152.000 136.675 C 152.000 136.964,152.180 137.200,152.400 137.200 C 152.620 137.200,152.800 137.470,152.800 137.800 C 152.800 138.130,152.980 138.400,153.200 138.400 C 153.420 138.400,153.600 138.630,153.600 138.912 C 153.600 139.193,153.960 139.683,154.400 140.000 C 154.840 140.317,155.200 140.722,155.200 140.899 C 155.200 141.076,155.965 142.026,156.900 143.009 C 157.835 143.993,159.365 145.604,160.300 146.589 L 162.000 148.381 162.000 157.380 C 162.000 166.768,161.416 170.000,159.720 170.000 C 159.434 170.000,159.199 170.135,159.197 170.300 C 159.192 170.747,157.174 171.600,156.120 171.600 C 155.614 171.600,155.200 171.780,155.200 172.000 C 155.200 172.220,154.660 172.400,154.000 172.400 C 153.340 172.400,152.800 172.580,152.800 172.800 C 152.800 173.020,152.260 173.200,151.600 173.200 C 150.940 173.200,150.400 173.380,150.400 173.600 C 150.400 173.820,149.781 174.000,149.024 174.000 C 148.267 174.000,147.536 174.180,147.400 174.400 C 147.264 174.620,146.720 174.800,146.190 174.800 C 145.661 174.800,144.457 175.044,143.514 175.342 C 142.571 175.641,140.990 176.108,140.000 176.381 C 139.010 176.654,137.887 177.040,137.505 177.239 C 137.123 177.438,136.358 177.600,135.805 177.600 C 135.252 177.600,134.800 177.780,134.800 178.000 C 134.800 178.220,134.271 178.400,133.624 178.400 C 132.977 178.400,132.336 178.580,132.200 178.800 C 132.064 179.020,131.434 179.200,130.800 179.200 C 130.166 179.200,129.536 179.380,129.400 179.600 C 129.264 179.820,128.724 180.000,128.200 180.000 C 127.676 180.000,127.136 180.180,127.000 180.400 C 126.864 180.620,126.133 180.800,125.376 180.800 C 124.619 180.800,124.000 180.980,124.000 181.200 C 124.000 181.420,123.460 181.600,122.800 181.600 C 122.140 181.600,121.600 181.780,121.600 182.000 C 121.600 182.220,121.060 182.400,120.400 182.400 C 119.740 182.400,119.200 182.580,119.200 182.800 C 119.200 183.020,118.671 183.200,118.024 183.200 C 117.377 183.200,116.736 183.380,116.600 183.600 C 116.464 183.820,115.913 184.000,115.376 184.000 C 114.839 184.000,114.400 184.180,114.400 184.400 C 114.400 184.620,114.040 184.800,113.600 184.800 C 113.160 184.800,112.800 184.980,112.800 185.200 C 112.800 185.420,112.480 185.600,112.088 185.600 C 111.697 185.600,111.117 185.960,110.800 186.400 C 110.483 186.840,110.080 187.200,109.904 187.200 C 109.488 187.200,104.400 192.288,104.400 192.704 C 104.400 192.880,104.040 193.283,103.600 193.600 C 103.160 193.917,102.800 194.497,102.800 194.888 C 102.800 195.280,102.620 195.600,102.400 195.600 C 102.180 195.600,102.000 195.960,102.000 196.400 C 102.000 196.840,101.820 197.200,101.600 197.200 C 101.380 197.200,101.194 197.605,101.187 198.100 C 101.169 199.419,100.260 200.400,99.056 200.400 C 98.475 200.400,98.000 200.580,98.000 200.800 C 98.000 201.020,97.561 201.200,97.024 201.200 C 96.487 201.200,95.936 201.380,95.800 201.600 C 95.664 201.820,95.203 202.000,94.776 202.000 C 94.349 202.000,94.000 202.180,94.000 202.400 C 94.000 202.620,93.770 202.800,93.488 202.800 C 93.207 202.800,92.717 203.160,92.400 203.600 C 92.083 204.040,91.584 204.400,91.292 204.400 C 90.335 204.400,84.000 211.180,84.000 212.205 C 84.000 212.532,83.820 212.800,83.600 212.800 C 83.380 212.800,83.200 213.160,83.200 213.600 C 83.200 214.040,83.020 214.400,82.800 214.400 C 82.580 214.400,82.400 214.749,82.400 215.176 C 82.400 215.603,82.220 216.064,82.000 216.200 C 81.780 216.336,81.600 217.067,81.600 217.824 C 81.600 218.581,81.420 219.200,81.200 219.200 C 80.646 219.200,80.646 330.658,81.200 331.000 C 81.420 331.136,81.600 331.867,81.600 332.624 C 81.600 333.381,81.780 334.000,82.000 334.000 C 82.220 334.000,82.400 334.349,82.400 334.776 C 82.400 335.203,82.580 335.664,82.800 335.800 C 83.020 335.936,83.200 336.397,83.200 336.824 C 83.200 337.251,83.380 337.600,83.600 337.600 C 83.820 337.600,84.000 337.870,84.000 338.200 C 84.000 338.530,84.180 338.800,84.400 338.800 C 84.620 338.800,84.800 339.054,84.800 339.364 C 84.800 339.675,85.346 340.388,86.013 340.949 L 87.226 341.970 85.213 344.025 C 84.106 345.156,83.200 346.333,83.200 346.641 C 83.200 346.948,83.020 347.200,82.800 347.200 C 82.580 347.200,82.400 347.560,82.400 348.000 C 82.400 348.440,82.220 348.800,82.000 348.800 C 81.780 348.800,81.600 349.340,81.600 350.000 C 81.600 350.660,81.410 351.200,81.178 351.200 C 80.898 351.200,80.797 353.004,80.878 356.596 L 81.000 361.993 46.200 362.145 C 12.856 362.291,7.600 362.440,7.600 363.240 C 7.600 363.438,7.240 363.600,6.800 363.600 C 6.360 363.600,6.000 363.780,6.000 364.000 C 6.000 364.220,5.725 364.400,5.389 364.400 C 4.614 364.400,1.200 367.787,1.200 368.556 C 1.200 368.874,0.975 369.208,0.700 369.300 C -0.027 369.542,-0.027 393.658,0.700 393.900 C 0.975 393.992,1.200 394.326,1.200 394.644 C 1.200 395.395,4.605 398.800,5.356 398.800 C 5.674 398.800,6.008 399.025,6.100 399.300 C 6.345 400.036,393.655 400.036,393.900 399.300 C 393.992 399.025,394.326 398.800,394.644 398.800 C 395.395 398.800,398.800 395.395,398.800 394.644 C 398.800 394.326,399.025 393.992,399.300 393.900 C 399.685 393.772,399.800 390.951,399.800 381.600 C 399.800 372.249,399.685 369.428,399.300 369.300 C 399.025 369.208,398.800 368.874,398.800 368.556 C 398.800 367.787,395.386 364.400,394.611 364.400 C 394.275 364.400,394.000 364.220,394.000 364.000 C 394.000 363.780,393.640 363.600,393.200 363.600 C 392.760 363.600,392.400 363.438,392.400 363.240 C 392.400 362.440,387.144 362.291,353.800 362.145 L 319.000 361.993 319.122 356.596 C 319.203 353.004,319.102 351.200,318.822 351.200 C 318.590 351.200,318.400 350.660,318.400 350.000 C 318.400 349.340,318.220 348.800,318.000 348.800 C 317.780 348.800,317.600 348.440,317.600 348.000 C 317.600 347.560,317.420 347.200,317.200 347.200 C 316.980 347.200,316.800 346.948,316.800 346.641 C 316.800 346.333,315.894 345.156,314.787 344.025 L 312.774 341.970 313.987 340.949 C 314.654 340.388,315.200 339.675,315.200 339.364 C 315.200 339.054,315.380 338.800,315.600 338.800 C 315.820 338.800,316.000 338.530,316.000 338.200 C 316.000 337.870,316.180 337.600,316.400 337.600 C 316.620 337.600,316.800 337.251,316.800 336.824 C 316.800 336.397,316.980 335.936,317.200 335.800 C 317.420 335.664,317.600 335.203,317.600 334.776 C 317.600 334.349,317.780 334.000,318.000 334.000 C 318.220 334.000,318.400 333.381,318.400 332.624 C 318.400 331.867,318.580 331.136,318.800 331.000 C 319.064 330.837,319.200 311.729,319.200 274.976 C 319.200 238.059,319.065 219.200,318.800 219.200 C 318.580 219.200,318.400 218.581,318.400 217.824 C 318.400 217.067,318.220 216.336,318.000 216.200 C 317.780 216.064,317.600 215.603,317.600 215.176 C 317.600 214.749,317.420 214.400,317.200 214.400 C 316.980 214.400,316.800 214.040,316.800 213.600 C 316.800 213.160,316.620 212.800,316.400 212.800 C 316.180 212.800,316.000 212.480,316.000 212.088 C 316.000 211.697,315.640 211.117,315.200 210.800 C 314.760 210.483,314.400 210.080,314.400 209.904 C 314.400 209.369,309.251 204.400,308.696 204.400 C 308.410 204.400,307.917 204.040,307.600 203.600 C 307.283 203.160,306.793 202.800,306.512 202.800 C 306.230 202.800,306.000 202.620,306.000 202.400 C 306.000 202.180,305.651 202.000,305.224 202.000 C 304.797 202.000,304.336 201.820,304.200 201.600 C 304.064 201.380,303.513 201.200,302.976 201.200 C 302.439 201.200,302.000 201.020,302.000 200.800 C 302.000 200.580,301.525 200.400,300.944 200.400 C 299.740 200.400,298.831 199.419,298.813 198.100 C 298.806 197.605,298.620 197.200,298.400 197.200 C 298.180 197.200,298.000 196.840,298.000 196.400 C 298.000 195.960,297.820 195.600,297.600 195.600 C 297.380 195.600,297.200 195.280,297.200 194.888 C 297.200 194.497,296.840 193.917,296.400 193.600 C 295.960 193.283,295.600 192.880,295.600 192.704 C 295.600 192.288,290.512 187.200,290.096 187.200 C 289.920 187.200,289.517 186.840,289.200 186.400 C 288.883 185.960,288.303 185.600,287.912 185.600 C 287.520 185.600,287.200 185.420,287.200 185.200 C 287.200 184.980,286.840 184.800,286.400 184.800 C 285.960 184.800,285.600 184.620,285.600 184.400 C 285.600 184.180,285.161 184.000,284.624 184.000 C 284.087 184.000,283.536 183.820,283.400 183.600 C 283.264 183.380,282.623 183.200,281.976 183.200 C 281.329 183.200,280.800 183.020,280.800 182.800 C 280.800 182.580,280.260 182.400,279.600 182.400 C 278.940 182.400,278.400 182.220,278.400 182.000 C 278.400 181.780,277.860 181.600,277.200 181.600 C 276.540 181.600,276.000 181.420,276.000 181.200 C 276.000 180.980,275.370 180.800,274.600 180.800 C 273.830 180.800,273.200 180.620,273.200 180.400 C 273.200 180.180,272.671 180.000,272.024 180.000 C 271.377 180.000,270.736 179.820,270.600 179.600 C 270.464 179.380,269.924 179.200,269.400 179.200 C 268.876 179.200,268.336 179.020,268.200 178.800 C 268.064 178.580,267.333 178.400,266.576 178.400 C 265.819 178.400,265.200 178.220,265.200 178.000 C 265.200 177.780,264.660 177.600,264.000 177.600 C 263.340 177.600,262.800 177.440,262.800 177.244 C 262.800 177.048,262.215 176.795,261.500 176.681 C 260.785 176.567,259.480 176.259,258.600 175.996 C 257.720 175.733,256.055 175.317,254.900 175.073 C 253.745 174.828,252.800 174.487,252.800 174.314 C 252.800 174.141,252.080 174.000,251.200 174.000 C 250.320 174.000,249.600 173.820,249.600 173.600 C 249.600 173.380,249.060 173.200,248.400 173.200 C 247.740 173.200,247.200 173.020,247.200 172.800 C 247.200 172.580,246.660 172.400,246.000 172.400 C 245.340 172.400,244.800 172.220,244.800 172.000 C 244.800 171.780,244.386 171.600,243.880 171.600 C 242.826 171.600,240.808 170.747,240.803 170.300 C 240.801 170.135,240.566 170.000,240.280 170.000 C 238.584 170.000,238.000 166.768,238.000 157.380 L 238.000 148.381 239.700 146.589 C 240.635 145.604,242.165 143.993,243.100 143.009 C 244.035 142.026,244.800 141.076,244.800 140.899 C 244.800 140.722,245.160 140.317,245.600 140.000 C 246.040 139.683,246.400 139.193,246.400 138.912 C 246.400 138.630,246.580 138.400,246.800 138.400 C 247.020 138.400,247.200 138.130,247.200 137.800 C 247.200 137.470,247.380 137.200,247.600 137.200 C 247.820 137.200,248.000 136.964,248.000 136.675 C 248.000 136.387,248.360 135.764,248.800 135.292 C 249.240 134.820,249.600 134.156,249.600 133.817 C 249.600 133.478,249.780 133.200,250.000 133.200 C 250.220 133.200,250.400 132.840,250.400 132.400 C 250.400 131.960,250.580 131.600,250.800 131.600 C 251.020 131.600,251.200 131.240,251.200 130.800 C 251.200 130.360,251.380 130.000,251.600 130.000 C 251.820 130.000,252.000 129.640,252.000 129.200 C 252.000 128.760,252.180 128.400,252.400 128.400 C 252.620 128.400,252.800 127.860,252.800 127.200 C 252.800 126.540,252.980 126.000,253.200 126.000 C 253.420 126.000,253.600 125.561,253.600 125.024 C 253.600 124.487,253.780 123.936,254.000 123.800 C 254.220 123.664,254.400 123.124,254.400 122.600 C 254.400 122.076,254.580 121.536,254.800 121.400 C 255.020 121.264,255.200 120.713,255.200 120.176 C 255.200 119.273,255.348 119.200,257.176 119.200 C 258.263 119.200,259.264 119.020,259.400 118.800 C 259.536 118.580,260.357 118.400,261.224 118.400 C 262.091 118.400,262.800 118.220,262.800 118.000 C 262.800 117.780,263.216 117.600,263.725 117.600 C 264.233 117.600,265.036 117.240,265.508 116.800 C 265.980 116.360,266.571 116.000,266.820 116.000 C 267.765 116.000,272.388 110.848,273.674 108.363 L 275.000 105.800 275.113 77.751 C 275.188 59.155,275.080 48.707,274.793 46.751 C 274.556 45.128,274.261 43.124,274.138 42.297 C 274.016 41.471,273.755 40.695,273.558 40.574 C 273.361 40.452,273.200 39.823,273.200 39.176 C 273.200 38.529,273.020 38.000,272.800 38.000 C 272.580 38.000,272.400 37.460,272.400 36.800 C 272.400 36.140,272.220 35.600,272.000 35.600 C 271.780 35.600,271.600 35.321,271.600 34.981 C 271.600 34.640,271.240 33.616,270.800 32.706 C 270.360 31.795,270.000 30.814,270.000 30.525 C 270.000 30.236,269.854 30.000,269.675 30.000 C 269.496 30.000,269.102 29.370,268.800 28.600 C 268.498 27.830,268.104 27.200,267.925 27.200 C 267.746 27.200,267.600 26.930,267.600 26.600 C 267.600 26.270,267.420 26.000,267.200 26.000 C 266.980 26.000,266.800 25.770,266.800 25.488 C 266.800 25.207,266.440 24.717,266.000 24.400 C 265.560 24.083,265.200 23.575,265.200 23.272 C 265.200 22.969,264.660 22.217,264.000 21.600 C 263.340 20.983,262.800 20.284,262.800 20.045 C 262.800 19.553,255.480 12.000,255.003 12.000 C 254.833 12.000,254.398 11.659,254.036 11.242 C 253.375 10.479,251.707 9.398,249.300 8.171 C 248.585 7.807,248.000 7.349,248.000 7.154 C 248.000 6.959,247.640 6.800,247.200 6.800 C 246.760 6.800,246.400 6.620,246.400 6.400 C 246.400 6.180,246.040 6.000,245.600 6.000 C 245.160 6.000,244.800 5.820,244.800 5.600 C 244.800 5.380,244.440 5.200,244.000 5.200 C 243.560 5.200,243.200 5.020,243.200 4.800 C 243.200 4.580,242.840 4.400,242.400 4.400 C 241.960 4.400,241.600 4.220,241.600 4.000 C 241.600 3.780,241.240 3.600,240.800 3.600 C 240.360 3.600,240.000 3.420,240.000 3.200 C 240.000 2.980,239.550 2.800,239.000 2.800 C 238.450 2.800,238.000 2.620,238.000 2.400 C 238.000 2.180,237.460 2.000,236.800 2.000 C 236.140 2.000,235.600 1.820,235.600 1.600 C 235.600 1.380,234.895 1.200,234.033 1.200 C 233.135 1.200,232.396 0.987,232.300 0.700 C 232.138 0.214,170.789 -0.184,167.300 0.278 M218.400 12.400 C 218.400 12.640,220.000 12.800,222.400 12.800 C 224.800 12.800,226.400 12.960,226.400 13.200 C 226.400 13.420,227.109 13.600,227.976 13.600 C 228.843 13.600,229.664 13.780,229.800 14.000 C 229.936 14.220,230.577 14.400,231.224 14.400 C 231.871 14.400,232.400 14.580,232.400 14.800 C 232.400 15.020,232.839 15.200,233.376 15.200 C 233.913 15.200,234.464 15.380,234.600 15.600 C 234.736 15.820,235.197 16.000,235.624 16.000 C 236.051 16.000,236.400 16.180,236.400 16.400 C 236.400 16.620,236.760 16.800,237.200 16.800 C 237.640 16.800,238.000 16.980,238.000 17.200 C 238.000 17.420,238.360 17.600,238.800 17.600 C 239.240 17.600,239.600 17.780,239.600 18.000 C 239.600 18.220,239.920 18.400,240.312 18.400 C 240.703 18.400,241.283 18.760,241.600 19.200 C 241.917 19.640,242.336 20.000,242.531 20.000 C 242.725 20.000,243.377 20.405,243.980 20.900 C 244.582 21.395,245.767 22.340,246.613 23.000 C 248.939 24.816,252.800 28.695,252.800 29.217 C 252.800 29.471,253.340 30.183,254.000 30.800 C 254.660 31.417,255.200 32.209,255.200 32.560 C 255.200 32.912,255.380 33.200,255.600 33.200 C 255.820 33.200,256.000 33.520,256.000 33.912 C 256.000 34.303,256.360 34.883,256.800 35.200 C 257.240 35.517,257.600 36.097,257.600 36.488 C 257.600 36.880,257.760 37.200,257.955 37.200 C 258.151 37.200,258.437 37.874,258.592 38.697 C 258.746 39.520,258.990 40.375,259.133 40.597 C 259.636 41.375,260.388 43.809,260.394 44.676 C 260.397 45.158,260.580 45.664,260.800 45.800 C 261.020 45.936,261.200 46.836,261.200 47.800 C 261.200 48.764,261.380 49.664,261.600 49.800 C 262.128 50.126,262.151 81.600,261.624 81.600 C 261.417 81.600,261.136 81.420,261.000 81.200 C 260.864 80.980,259.514 80.800,258.000 80.800 C 256.486 80.800,255.136 80.620,255.000 80.400 C 254.864 80.180,254.448 80.000,254.076 80.000 C 253.161 79.999,251.200 78.263,251.200 77.453 C 251.200 77.094,251.020 76.800,250.800 76.800 C 250.557 76.800,250.400 75.000,250.400 72.200 C 250.400 69.400,250.243 67.600,250.000 67.600 C 249.780 67.600,249.600 67.060,249.600 66.400 C 249.600 65.740,249.420 65.200,249.200 65.200 C 248.980 65.200,248.800 64.840,248.800 64.400 C 248.800 63.960,248.620 63.600,248.400 63.600 C 248.180 63.600,248.000 63.240,248.000 62.800 C 248.000 62.360,247.820 62.000,247.600 62.000 C 247.380 62.000,247.200 61.745,247.200 61.434 C 247.200 61.123,246.641 60.358,245.957 59.734 C 245.274 59.110,244.292 58.195,243.775 57.700 C 243.259 57.205,242.598 56.800,242.306 56.800 C 242.015 56.800,241.517 56.440,241.200 56.000 C 240.883 55.560,240.303 55.200,239.912 55.200 C 239.520 55.200,239.200 55.020,239.200 54.800 C 239.200 54.580,238.750 54.400,238.200 54.400 C 237.650 54.400,237.200 54.220,237.200 54.000 C 237.200 53.780,236.401 53.600,235.424 53.600 C 234.447 53.600,233.536 53.420,233.400 53.200 C 233.264 52.980,232.443 52.800,231.576 52.800 C 230.709 52.800,230.000 52.620,230.000 52.400 C 230.000 52.180,229.100 52.000,228.000 52.000 C 226.900 52.000,226.000 51.820,226.000 51.600 C 226.000 51.380,225.190 51.200,224.200 51.200 C 223.210 51.200,222.400 51.020,222.400 50.800 C 222.400 50.580,221.691 50.400,220.824 50.400 C 219.957 50.400,219.136 50.220,219.000 50.000 C 218.864 49.780,217.953 49.600,216.976 49.600 C 215.999 49.600,215.200 49.438,215.200 49.240 C 215.200 49.042,214.390 48.772,213.400 48.640 C 212.410 48.508,210.790 48.292,209.800 48.160 C 208.810 48.028,208.000 47.758,208.000 47.560 C 208.000 47.362,207.201 47.200,206.224 47.200 C 205.247 47.200,204.336 47.020,204.200 46.800 C 204.064 46.580,203.254 46.400,202.400 46.400 C 201.546 46.400,200.736 46.220,200.600 46.000 C 200.464 45.780,199.654 45.600,198.800 45.600 C 197.946 45.600,197.136 45.420,197.000 45.200 C 196.864 44.980,195.953 44.800,194.976 44.800 C 193.999 44.800,193.200 44.638,193.200 44.440 C 193.200 44.242,192.435 43.986,191.500 43.869 C 190.565 43.753,188.990 43.482,188.000 43.267 C 184.900 42.593,179.082 41.555,177.100 41.322 C 176.055 41.199,175.200 40.941,175.200 40.749 C 175.200 40.557,174.221 40.400,173.024 40.400 C 171.827 40.400,170.736 40.220,170.600 40.000 C 170.464 39.780,169.553 39.600,168.576 39.600 C 167.599 39.600,166.800 39.780,166.800 40.000 C 166.800 40.220,165.911 40.400,164.824 40.400 C 163.737 40.400,162.736 40.580,162.600 40.800 C 162.464 41.020,161.913 41.200,161.376 41.200 C 160.839 41.200,160.400 41.344,160.400 41.520 C 160.400 41.695,159.767 42.068,158.994 42.348 C 157.681 42.822,152.811 47.165,152.791 47.878 C 152.786 48.055,152.430 48.650,152.000 49.200 C 151.570 49.750,151.214 50.605,151.209 51.100 C 151.204 51.595,151.020 52.000,150.800 52.000 C 150.580 52.000,150.400 52.540,150.400 53.200 C 150.400 53.860,150.220 54.400,150.000 54.400 C 149.743 54.400,149.600 58.400,149.600 65.600 C 149.600 72.800,149.457 76.800,149.200 76.800 C 148.980 76.800,148.800 77.094,148.800 77.453 C 148.800 78.263,146.839 79.999,145.924 80.000 C 145.552 80.000,145.136 80.180,145.000 80.400 C 144.864 80.620,143.514 80.800,142.000 80.800 C 140.486 80.800,139.136 80.980,139.000 81.200 C 138.864 81.420,138.583 81.600,138.376 81.600 C 137.847 81.600,137.871 39.727,138.400 39.400 C 138.620 39.264,138.800 38.837,138.800 38.451 C 138.800 37.593,140.611 33.764,141.185 33.409 C 141.413 33.268,141.600 32.876,141.600 32.537 C 141.600 31.816,145.093 28.400,145.830 28.400 C 146.107 28.400,146.393 28.265,146.467 28.100 C 146.659 27.668,149.972 26.000,150.638 26.000 C 150.947 26.000,151.200 25.847,151.200 25.659 C 151.200 25.471,153.094 25.195,155.409 25.046 C 159.927 24.754,161.881 24.054,162.595 22.474 C 162.812 21.993,163.127 21.600,163.295 21.600 C 163.463 21.600,163.600 21.240,163.600 20.800 C 163.600 20.360,163.780 20.000,164.000 20.000 C 164.220 20.000,164.400 19.707,164.400 19.349 C 164.400 18.465,169.490 13.600,170.414 13.600 C 170.821 13.600,171.264 13.420,171.400 13.200 C 171.536 12.980,172.447 12.800,173.424 12.800 C 174.401 12.800,175.200 12.620,175.200 12.400 C 175.200 12.138,182.667 12.000,196.800 12.000 C 210.933 12.000,218.400 12.138,218.400 12.400 M169.200 53.200 C 169.200 53.420,170.100 53.600,171.200 53.600 C 172.300 53.600,173.200 53.780,173.200 54.000 C 173.200 54.220,173.909 54.400,174.776 54.400 C 175.643 54.400,176.464 54.580,176.600 54.800 C 176.736 55.020,177.546 55.200,178.400 55.200 C 179.254 55.200,180.064 55.380,180.200 55.600 C 180.336 55.820,181.236 56.000,182.200 56.000 C 183.164 56.000,184.052 56.161,184.174 56.358 C 184.295 56.555,185.071 56.811,185.897 56.928 C 186.724 57.044,189.020 57.439,191.000 57.805 C 192.980 58.172,195.320 58.564,196.200 58.677 C 197.080 58.789,197.971 59.044,198.180 59.241 C 198.389 59.438,199.334 59.600,200.280 59.600 C 201.226 59.600,202.000 59.780,202.000 60.000 C 202.000 60.220,202.900 60.400,204.000 60.400 C 205.100 60.400,206.000 60.580,206.000 60.800 C 206.000 61.020,206.720 61.200,207.600 61.200 C 208.480 61.200,209.200 61.380,209.200 61.600 C 209.200 61.820,210.010 62.000,211.000 62.000 C 211.990 62.000,212.800 62.180,212.800 62.400 C 212.800 62.620,213.700 62.800,214.800 62.800 C 215.900 62.800,216.800 62.980,216.800 63.200 C 216.800 63.420,217.509 63.600,218.376 63.600 C 219.243 63.600,220.064 63.780,220.200 64.000 C 220.336 64.220,221.247 64.400,222.224 64.400 C 223.201 64.400,224.000 64.580,224.000 64.800 C 224.000 65.020,224.810 65.200,225.800 65.200 C 226.790 65.200,227.600 65.380,227.600 65.600 C 227.600 65.820,228.410 66.000,229.400 66.000 C 230.390 66.000,231.200 66.180,231.200 66.400 C 231.200 66.620,231.705 66.800,232.322 66.800 C 233.594 66.800,236.400 69.108,236.400 70.154 C 236.400 70.509,236.580 70.800,236.800 70.800 C 237.041 70.800,237.200 72.467,237.200 75.000 C 237.200 77.533,237.359 79.200,237.600 79.200 C 237.820 79.200,238.000 79.819,238.000 80.576 C 238.000 81.333,238.180 82.064,238.400 82.200 C 238.620 82.336,238.800 82.797,238.800 83.224 C 238.800 83.651,238.980 84.000,239.200 84.000 C 239.420 84.000,239.600 84.320,239.600 84.712 C 239.600 85.103,239.960 85.683,240.400 86.000 C 240.840 86.317,241.200 86.755,241.200 86.974 C 241.200 87.598,245.299 91.201,246.300 91.457 C 246.795 91.583,247.200 91.847,247.200 92.043 C 247.200 92.240,247.740 92.400,248.400 92.400 C 249.060 92.400,249.600 92.580,249.600 92.800 C 249.600 93.020,250.320 93.200,251.200 93.200 C 252.080 93.200,252.800 93.380,252.800 93.600 C 252.800 93.829,254.000 94.000,255.600 94.000 C 257.200 94.000,258.400 94.171,258.400 94.400 C 258.400 94.620,258.588 94.800,258.818 94.800 C 259.460 94.800,261.200 96.686,261.200 97.382 C 261.200 97.722,261.380 98.000,261.600 98.000 C 262.176 98.000,262.093 101.519,261.500 102.248 C 259.846 104.280,258.835 105.200,258.257 105.200 C 257.896 105.200,257.600 105.380,257.600 105.600 C 257.600 105.848,255.467 106.000,252.000 106.000 C 248.533 106.000,246.400 106.152,246.400 106.400 C 246.400 106.620,246.170 106.800,245.888 106.800 C 245.607 106.800,245.112 107.182,244.788 107.649 C 244.465 108.116,244.001 108.707,243.758 108.962 C 243.287 109.457,242.992 110.704,242.401 114.697 C 242.198 116.070,241.845 117.543,241.616 117.970 C 241.387 118.398,241.200 119.209,241.200 119.774 C 241.200 120.338,241.020 120.800,240.800 120.800 C 240.580 120.800,240.400 121.340,240.400 122.000 C 240.400 122.660,240.220 123.200,240.000 123.200 C 239.780 123.200,239.600 123.560,239.600 124.000 C 239.600 124.440,239.420 124.800,239.200 124.800 C 238.980 124.800,238.800 125.070,238.800 125.400 C 238.800 125.730,238.620 126.000,238.400 126.000 C 238.180 126.000,238.000 126.360,238.000 126.800 C 238.000 127.240,237.850 127.600,237.668 127.600 C 237.485 127.600,237.081 128.095,236.770 128.700 C 236.460 129.305,235.889 130.091,235.503 130.447 C 235.116 130.803,234.800 131.300,234.800 131.551 C 234.800 132.115,225.765 141.200,225.204 141.200 C 224.982 141.200,224.800 141.347,224.800 141.526 C 224.800 141.706,223.720 142.369,222.400 143.000 C 221.080 143.631,220.000 144.294,220.000 144.474 C 220.000 144.653,219.640 144.800,219.200 144.800 C 218.760 144.800,218.400 144.980,218.400 145.200 C 218.400 145.420,217.961 145.600,217.424 145.600 C 216.887 145.600,216.336 145.780,216.200 146.000 C 216.064 146.220,215.603 146.400,215.176 146.400 C 214.749 146.400,214.400 146.580,214.400 146.800 C 214.400 147.020,213.860 147.200,213.200 147.200 C 212.540 147.200,212.000 147.380,212.000 147.600 C 212.000 147.820,211.370 148.000,210.600 148.000 C 209.830 148.000,209.200 148.180,209.200 148.400 C 209.200 148.622,208.133 148.800,206.800 148.800 C 205.467 148.800,204.400 148.978,204.400 149.200 C 204.400 149.442,202.667 149.600,200.000 149.600 C 197.333 149.600,195.600 149.442,195.600 149.200 C 195.600 148.978,194.533 148.800,193.200 148.800 C 191.867 148.800,190.800 148.622,190.800 148.400 C 190.800 148.180,190.170 148.000,189.400 148.000 C 188.630 148.000,188.000 147.820,188.000 147.600 C 188.000 147.380,187.460 147.200,186.800 147.200 C 186.140 147.200,185.600 147.020,185.600 146.800 C 185.600 146.580,185.251 146.400,184.824 146.400 C 184.397 146.400,183.936 146.220,183.800 146.000 C 183.664 145.780,183.113 145.600,182.576 145.600 C 182.039 145.600,181.600 145.420,181.600 145.200 C 181.600 144.980,181.240 144.800,180.800 144.800 C 180.360 144.800,179.997 144.665,179.993 144.500 C 179.990 144.335,178.910 143.666,177.593 143.014 C 176.277 142.361,175.200 141.686,175.200 141.514 C 175.200 141.341,175.016 141.200,174.791 141.200 C 174.219 141.200,165.200 132.139,165.200 131.564 C 165.200 131.305,164.884 130.803,164.497 130.447 C 164.111 130.091,163.540 129.305,163.230 128.700 C 162.919 128.095,162.515 127.600,162.332 127.600 C 162.150 127.600,162.000 127.240,162.000 126.800 C 162.000 126.360,161.820 126.000,161.600 126.000 C 161.380 126.000,161.200 125.730,161.200 125.400 C 161.200 125.070,161.020 124.800,160.800 124.800 C 160.580 124.800,160.400 124.440,160.400 124.000 C 160.400 123.560,160.220 123.200,160.000 123.200 C 159.780 123.200,159.600 122.660,159.600 122.000 C 159.600 121.340,159.420 120.800,159.200 120.800 C 158.980 120.800,158.800 120.296,158.800 119.680 C 158.800 119.064,158.628 118.388,158.418 118.178 C 158.209 117.969,157.855 116.538,157.634 114.998 C 157.022 110.754,156.726 109.471,156.242 108.962 C 155.999 108.707,155.535 108.116,155.212 107.649 C 154.888 107.182,154.393 106.800,154.112 106.800 C 153.830 106.800,153.600 106.620,153.600 106.400 C 153.600 106.152,151.467 106.000,148.000 106.000 C 144.533 106.000,142.400 105.848,142.400 105.600 C 142.400 105.380,142.104 105.200,141.743 105.200 C 141.165 105.200,140.154 104.280,138.500 102.248 C 137.334 100.816,137.995 97.695,139.882 95.722 C 140.367 95.215,140.952 94.800,141.182 94.800 C 141.412 94.800,141.600 94.620,141.600 94.400 C 141.600 94.171,142.800 94.000,144.400 94.000 C 146.000 94.000,147.200 93.829,147.200 93.600 C 147.200 93.380,147.920 93.200,148.800 93.200 C 149.680 93.200,150.400 93.020,150.400 92.800 C 150.400 92.580,150.940 92.400,151.600 92.400 C 152.260 92.400,152.800 92.240,152.800 92.043 C 152.800 91.847,153.228 91.579,153.752 91.448 C 154.868 91.168,158.800 87.743,158.800 87.051 C 158.800 86.790,159.160 86.317,159.600 86.000 C 160.040 85.683,160.400 85.103,160.400 84.712 C 160.400 84.320,160.580 84.000,160.800 84.000 C 161.020 84.000,161.200 83.651,161.200 83.224 C 161.200 82.797,161.380 82.336,161.600 82.200 C 161.820 82.064,162.000 81.333,162.000 80.576 C 162.000 79.819,162.180 79.200,162.400 79.200 C 162.657 79.200,162.800 75.267,162.800 68.200 C 162.800 61.133,162.943 57.200,163.200 57.200 C 163.420 57.200,163.600 56.959,163.600 56.664 C 163.600 55.877,166.250 53.600,167.166 53.600 C 167.599 53.600,168.064 53.420,168.200 53.200 C 168.336 52.980,168.617 52.800,168.824 52.800 C 169.031 52.800,169.200 52.980,169.200 53.200 M178.000 81.200 C 178.000 81.420,177.796 81.600,177.547 81.600 C 176.963 81.600,175.618 83.135,175.158 84.326 C 174.625 85.706,174.710 95.884,175.263 96.918 C 175.865 98.042,176.633 98.800,177.171 98.800 C 177.407 98.800,177.600 98.980,177.600 99.200 C 177.600 99.420,177.960 99.600,178.400 99.600 C 178.840 99.600,179.200 99.780,179.200 100.000 C 179.200 100.220,180.100 100.400,181.200 100.400 C 182.300 100.400,183.200 100.220,183.200 100.000 C 183.200 99.780,183.560 99.600,184.000 99.600 C 184.440 99.600,184.800 99.441,184.800 99.247 C 184.800 99.052,185.115 98.810,185.500 98.707 C 187.479 98.181,189.500 84.800,187.600 84.800 C 187.380 84.800,187.200 84.509,187.200 84.154 C 187.200 82.341,184.408 80.800,181.122 80.800 C 179.307 80.800,178.000 80.968,178.000 81.200 M214.278 82.154 C 213.465 82.899,212.800 83.799,212.800 84.154 C 212.800 84.509,212.620 84.800,212.400 84.800 C 210.500 84.800,212.521 98.181,214.500 98.707 C 214.885 98.810,215.200 99.052,215.200 99.247 C 215.200 99.441,215.560 99.600,216.000 99.600 C 216.440 99.600,216.800 99.780,216.800 100.000 C 216.800 100.220,217.700 100.400,218.800 100.400 C 219.900 100.400,220.800 100.220,220.800 100.000 C 220.800 99.780,221.160 99.600,221.600 99.600 C 222.040 99.600,222.400 99.420,222.400 99.200 C 222.400 98.980,222.593 98.800,222.829 98.800 C 223.367 98.800,224.135 98.042,224.737 96.918 C 225.290 95.884,225.375 85.706,224.842 84.326 C 224.382 83.135,223.037 81.600,222.453 81.600 C 222.204 81.600,222.000 81.420,222.000 81.200 C 222.000 80.008,215.782 80.776,214.278 82.154 M190.614 112.480 C 189.351 113.213,188.000 114.712,188.000 115.382 C 188.000 115.722,187.820 116.000,187.600 116.000 C 187.024 116.000,187.105 120.647,187.700 121.676 C 189.582 124.930,190.509 125.196,200.000 125.196 C 209.491 125.196,210.418 124.930,212.300 121.676 C 212.895 120.647,212.976 116.000,212.400 116.000 C 212.180 116.000,212.000 115.722,212.000 115.382 C 212.000 114.685,210.566 113.131,209.296 112.451 C 208.132 111.829,191.693 111.854,190.614 112.480 M177.800 158.298 C 178.900 158.684,179.860 159.135,179.933 159.300 C 180.007 159.465,180.592 159.600,181.233 159.600 C 181.875 159.600,182.400 159.780,182.400 160.000 C 182.400 160.220,183.019 160.400,183.776 160.400 C 184.533 160.400,185.264 160.580,185.400 160.800 C 185.536 161.020,186.357 161.200,187.224 161.200 C 188.091 161.200,188.800 161.380,188.800 161.600 C 188.800 161.825,189.925 162.000,191.376 162.000 C 192.793 162.000,194.064 162.180,194.200 162.400 C 194.346 162.636,196.730 162.800,200.000 162.800 C 203.270 162.800,205.654 162.636,205.800 162.400 C 205.936 162.180,207.207 162.000,208.624 162.000 C 210.075 162.000,211.200 161.825,211.200 161.600 C 211.200 161.380,211.909 161.200,212.776 161.200 C 213.643 161.200,214.464 161.020,214.600 160.800 C 214.736 160.580,215.467 160.400,216.224 160.400 C 216.981 160.400,217.600 160.220,217.600 160.000 C 217.600 159.780,218.125 159.600,218.767 159.600 C 219.408 159.600,219.993 159.465,220.067 159.300 C 220.190 159.022,223.877 157.594,224.460 157.598 C 224.602 157.599,224.791 160.615,224.878 164.300 C 225.091 173.333,227.918 178.995,233.700 181.969 C 234.305 182.281,234.800 182.685,234.800 182.868 C 234.800 183.050,235.160 183.200,235.600 183.200 C 236.040 183.200,236.400 183.294,236.400 183.409 C 236.400 183.766,232.037 188.000,231.668 188.000 C 231.476 188.000,230.754 188.540,230.063 189.200 C 229.372 189.860,228.626 190.400,228.404 190.400 C 228.182 190.400,228.000 190.580,228.000 190.800 C 228.000 191.020,227.730 191.200,227.400 191.200 C 227.070 191.200,226.800 191.360,226.800 191.557 C 226.800 191.753,226.350 192.026,225.800 192.164 C 225.250 192.302,224.800 192.592,224.800 192.808 C 224.800 193.023,224.440 193.200,224.000 193.200 C 223.560 193.200,223.200 193.380,223.200 193.600 C 223.200 193.820,222.840 194.000,222.400 194.000 C 221.960 194.000,221.600 194.180,221.600 194.400 C 221.600 194.620,221.240 194.800,220.800 194.800 C 220.360 194.800,220.000 194.947,220.000 195.128 C 220.000 195.308,219.100 195.700,218.000 196.000 C 216.900 196.300,216.000 196.692,216.000 196.872 C 216.000 197.053,215.471 197.200,214.824 197.200 C 214.177 197.200,213.536 197.380,213.400 197.600 C 213.264 197.820,212.634 198.000,212.000 198.000 C 211.366 198.000,210.736 198.180,210.600 198.400 C 210.464 198.620,209.373 198.800,208.176 198.800 C 206.979 198.800,206.000 198.980,206.000 199.200 C 206.000 199.449,203.733 199.600,200.000 199.600 C 196.267 199.600,194.000 199.449,194.000 199.200 C 194.000 198.980,193.021 198.800,191.824 198.800 C 190.627 198.800,189.536 198.620,189.400 198.400 C 189.264 198.180,188.634 198.000,188.000 198.000 C 187.366 198.000,186.736 197.820,186.600 197.600 C 186.464 197.380,185.823 197.200,185.176 197.200 C 184.529 197.200,184.000 197.053,184.000 196.872 C 184.000 196.692,183.100 196.300,182.000 196.000 C 180.900 195.700,180.000 195.308,180.000 195.128 C 180.000 194.947,179.640 194.800,179.200 194.800 C 178.760 194.800,178.400 194.620,178.400 194.400 C 178.400 194.180,178.040 194.000,177.600 194.000 C 177.160 194.000,176.800 193.820,176.800 193.600 C 176.800 193.380,176.440 193.200,176.000 193.200 C 175.560 193.200,175.200 193.023,175.200 192.808 C 175.200 192.592,174.750 192.302,174.200 192.164 C 173.650 192.026,173.200 191.753,173.200 191.557 C 173.200 191.360,172.930 191.200,172.600 191.200 C 172.270 191.200,172.000 191.020,172.000 190.800 C 172.000 190.580,171.818 190.400,171.596 190.400 C 171.374 190.400,170.628 189.860,169.937 189.200 C 169.246 188.540,168.524 188.000,168.332 188.000 C 167.963 188.000,163.600 183.766,163.600 183.409 C 163.600 183.294,163.960 183.200,164.400 183.200 C 164.840 183.200,165.200 183.050,165.200 182.868 C 165.200 182.685,165.695 182.281,166.300 181.969 C 172.044 179.014,174.931 173.238,175.131 164.300 C 175.213 160.615,175.398 157.599,175.540 157.598 C 175.683 157.597,176.700 157.912,177.800 158.298 M150.613 189.387 C 151.376 190.149,152.000 190.877,152.000 191.004 C 152.000 191.322,158.006 197.217,159.327 198.195 C 159.917 198.632,160.400 199.127,160.400 199.295 C 160.400 199.463,150.590 199.600,138.600 199.600 C 126.610 199.600,116.800 199.502,116.800 199.382 C 116.800 198.895,118.806 197.200,119.382 197.200 C 119.722 197.200,120.000 197.020,120.000 196.800 C 120.000 196.580,120.349 196.400,120.776 196.400 C 121.203 196.400,121.664 196.220,121.800 196.000 C 121.936 195.780,122.577 195.600,123.224 195.600 C 123.871 195.600,124.400 195.420,124.400 195.200 C 124.400 194.980,124.940 194.800,125.600 194.800 C 126.260 194.800,126.800 194.620,126.800 194.400 C 126.800 194.180,127.329 194.000,127.976 194.000 C 128.623 194.000,129.264 193.820,129.400 193.600 C 129.536 193.380,130.267 193.200,131.024 193.200 C 131.781 193.200,132.400 193.020,132.400 192.800 C 132.400 192.580,132.940 192.400,133.600 192.400 C 134.260 192.400,134.800 192.254,134.800 192.076 C 134.800 191.791,136.893 191.281,141.100 190.541 C 141.815 190.415,142.400 190.152,142.400 189.956 C 142.400 189.760,142.929 189.600,143.576 189.600 C 144.223 189.600,144.864 189.420,145.000 189.200 C 145.136 188.980,145.766 188.800,146.400 188.800 C 147.034 188.800,147.664 188.620,147.800 188.400 C 148.259 187.657,149.220 187.994,150.613 189.387 M252.200 188.400 C 252.336 188.620,252.966 188.800,253.600 188.800 C 254.234 188.800,254.864 188.980,255.000 189.200 C 255.136 189.420,255.689 189.600,256.229 189.600 C 256.769 189.600,257.523 189.758,257.905 189.951 C 259.104 190.557,261.366 191.183,263.319 191.451 C 264.353 191.593,265.200 191.864,265.200 192.054 C 265.200 192.244,265.740 192.400,266.400 192.400 C 267.060 192.400,267.600 192.580,267.600 192.800 C 267.600 193.020,268.219 193.200,268.976 193.200 C 269.733 193.200,270.464 193.380,270.600 193.600 C 270.736 193.820,271.377 194.000,272.024 194.000 C 272.671 194.000,273.200 194.180,273.200 194.400 C 273.200 194.620,273.740 194.800,274.400 194.800 C 275.060 194.800,275.600 194.980,275.600 195.200 C 275.600 195.420,276.129 195.600,276.776 195.600 C 277.423 195.600,278.064 195.780,278.200 196.000 C 278.336 196.220,278.797 196.400,279.224 196.400 C 279.651 196.400,280.000 196.580,280.000 196.800 C 280.000 197.020,280.278 197.200,280.618 197.200 C 281.194 197.200,283.200 198.895,283.200 199.382 C 283.200 199.502,273.390 199.600,261.400 199.600 C 249.410 199.600,239.600 199.463,239.600 199.295 C 239.600 199.127,240.083 198.632,240.673 198.195 C 241.989 197.220,248.000 191.322,248.000 191.006 C 248.000 189.746,251.637 187.489,252.200 188.400 M296.400 213.200 C 296.400 213.420,296.940 213.600,297.600 213.600 C 298.260 213.600,298.800 213.780,298.800 214.000 C 298.800 214.220,299.074 214.400,299.409 214.400 C 300.201 214.400,304.400 218.599,304.400 219.391 C 304.400 219.726,304.580 220.000,304.800 220.000 C 305.020 220.000,305.200 220.360,305.200 220.800 C 305.200 221.240,305.380 221.600,305.600 221.600 C 305.865 221.600,306.000 239.667,306.000 275.000 C 306.000 310.333,305.865 328.400,305.600 328.400 C 305.380 328.400,305.200 328.850,305.200 329.400 C 305.200 329.950,305.020 330.400,304.800 330.400 C 304.580 330.400,304.400 330.588,304.400 330.817 C 304.400 331.046,304.040 331.620,303.600 332.092 C 303.160 332.564,302.800 333.187,302.800 333.475 C 302.800 333.764,302.575 334.000,302.300 334.001 C 302.025 334.001,301.170 334.541,300.400 335.200 C 299.630 335.859,298.595 336.399,298.100 336.399 C 297.605 336.400,297.200 336.580,297.200 336.800 C 297.200 337.057,293.067 337.200,285.600 337.200 C 278.133 337.200,274.000 337.343,274.000 337.600 C 274.000 337.820,273.544 338.000,272.987 338.000 C 271.860 338.000,269.200 340.379,269.200 341.387 C 269.200 341.724,269.020 342.000,268.800 342.000 C 268.580 342.000,268.400 342.990,268.400 344.200 C 268.400 345.410,268.580 346.400,268.800 346.400 C 269.020 346.400,269.200 346.691,269.200 347.046 C 269.200 347.401,269.865 348.301,270.678 349.046 L 272.156 350.400 286.455 350.400 C 295.555 350.400,300.843 350.545,301.000 350.800 C 301.136 351.020,301.514 351.200,301.840 351.200 C 302.394 351.200,302.919 351.536,304.114 352.655 C 306.734 355.110,306.782 357.724,304.253 360.253 L 302.505 362.000 200.000 362.000 L 97.495 362.000 95.747 360.253 C 93.217 357.722,93.277 354.965,95.914 352.651 C 96.197 352.403,96.679 351.975,96.985 351.700 C 97.292 351.425,97.815 351.200,98.148 351.200 C 98.481 351.200,98.864 351.020,99.000 350.800 C 99.163 350.536,125.342 350.400,176.237 350.400 L 253.227 350.400 254.568 349.059 C 256.413 347.214,256.800 346.359,256.801 344.126 C 256.802 341.846,255.373 338.800,254.301 338.800 C 253.915 338.800,253.600 338.620,253.600 338.400 C 253.600 338.180,253.150 338.000,252.600 338.000 C 252.050 338.000,251.600 337.820,251.600 337.600 C 251.600 337.335,226.533 337.200,177.200 337.200 C 127.867 337.200,102.800 337.065,102.800 336.800 C 102.800 336.580,102.384 336.400,101.875 336.400 C 101.367 336.400,100.602 336.085,100.175 335.700 C 99.749 335.315,98.905 334.745,98.300 334.432 C 97.695 334.120,97.200 333.659,97.200 333.408 C 97.200 333.156,96.885 332.593,96.500 332.155 C 95.511 331.030,94.800 329.714,94.800 329.005 C 94.800 328.672,94.620 328.400,94.400 328.400 C 94.135 328.400,94.000 310.333,94.000 275.000 C 94.000 239.667,94.135 221.600,94.400 221.600 C 94.620 221.600,94.800 221.240,94.800 220.800 C 94.800 220.360,94.980 220.000,95.200 220.000 C 95.420 220.000,95.600 219.726,95.600 219.391 C 95.600 218.599,99.799 214.400,100.591 214.400 C 100.926 214.400,101.200 214.220,101.200 214.000 C 101.200 213.780,101.740 213.600,102.400 213.600 C 103.060 213.600,103.600 213.420,103.600 213.200 C 103.600 212.934,136.000 212.800,200.000 212.800 C 264.000 212.800,296.400 212.934,296.400 213.200 M210.000 237.600 C 210.000 237.820,209.722 238.000,209.382 238.000 C 209.042 238.000,208.322 238.442,207.782 238.982 C 207.242 239.522,206.800 240.242,206.800 240.582 C 206.800 240.922,206.620 241.200,206.400 241.200 C 206.180 241.200,206.000 241.650,206.000 242.200 C 206.000 242.750,205.820 243.200,205.600 243.200 C 205.380 243.200,205.200 243.549,205.200 243.976 C 205.200 244.403,205.020 244.864,204.800 245.000 C 204.580 245.136,204.400 245.687,204.400 246.224 C 204.400 246.761,204.220 247.200,204.000 247.200 C 203.780 247.200,203.600 247.560,203.600 248.000 C 203.600 248.440,203.420 248.800,203.200 248.800 C 202.980 248.800,202.800 249.340,202.800 250.000 C 202.800 250.660,202.620 251.200,202.400 251.200 C 202.180 251.200,202.000 251.560,202.000 252.000 C 202.000 252.440,201.820 252.800,201.600 252.800 C 201.380 252.800,201.200 253.340,201.200 254.000 C 201.200 254.660,201.020 255.200,200.800 255.200 C 200.580 255.200,200.400 255.560,200.400 256.000 C 200.400 256.440,200.220 256.800,200.000 256.800 C 199.780 256.800,199.600 257.155,199.600 257.588 C 199.600 258.021,199.240 259.017,198.800 259.800 C 198.360 260.583,198.000 261.579,198.000 262.012 C 198.000 262.445,197.820 262.800,197.600 262.800 C 197.380 262.800,197.200 263.149,197.200 263.576 C 197.200 264.003,197.020 264.464,196.800 264.600 C 196.580 264.736,196.400 265.287,196.400 265.824 C 196.400 266.361,196.220 266.800,196.000 266.800 C 195.780 266.800,195.600 267.149,195.600 267.576 C 195.600 268.003,195.420 268.464,195.200 268.600 C 194.980 268.736,194.800 269.287,194.800 269.824 C 194.800 270.361,194.620 270.800,194.400 270.800 C 194.180 270.800,194.000 271.149,194.000 271.576 C 194.000 272.003,193.820 272.464,193.600 272.600 C 193.380 272.736,193.200 273.287,193.200 273.824 C 193.200 274.361,193.036 274.800,192.835 274.800 C 192.634 274.800,192.349 275.519,192.200 276.398 C 192.052 277.277,191.766 278.097,191.565 278.222 C 191.364 278.346,191.200 278.797,191.200 279.224 C 191.200 279.651,191.020 280.000,190.800 280.000 C 190.580 280.000,190.400 280.540,190.400 281.200 C 190.400 281.860,190.220 282.400,190.000 282.400 C 189.780 282.400,189.600 282.760,189.600 283.200 C 189.600 283.640,189.420 284.000,189.200 284.000 C 188.980 284.000,188.800 284.540,188.800 285.200 C 188.800 285.860,188.620 286.400,188.400 286.400 C 188.180 286.400,188.000 286.760,188.000 287.200 C 188.000 287.640,187.820 288.000,187.600 288.000 C 187.380 288.000,187.200 288.540,187.200 289.200 C 187.200 289.860,187.020 290.400,186.800 290.400 C 186.580 290.400,186.400 290.760,186.400 291.200 C 186.400 291.640,186.220 292.000,186.000 292.000 C 185.780 292.000,185.600 292.450,185.600 293.000 C 185.600 293.550,185.420 294.000,185.200 294.000 C 184.980 294.000,184.800 294.349,184.800 294.776 C 184.800 295.203,184.620 295.664,184.400 295.800 C 184.180 295.936,184.000 296.487,184.000 297.024 C 184.000 297.561,183.820 298.000,183.600 298.000 C 183.380 298.000,183.200 298.360,183.200 298.800 C 183.200 299.240,183.020 299.600,182.800 299.600 C 182.580 299.600,182.400 300.140,182.400 300.800 C 182.400 301.460,182.220 302.000,182.000 302.000 C 181.780 302.000,181.600 302.360,181.600 302.800 C 181.600 303.240,181.420 303.600,181.200 303.600 C 180.974 303.600,180.800 304.733,180.800 306.200 C 180.800 307.667,180.974 308.800,181.200 308.800 C 181.420 308.800,181.600 309.076,181.600 309.413 C 181.600 309.751,182.224 310.651,182.987 311.413 C 185.749 314.176,193.200 312.717,193.200 309.413 C 193.200 309.076,193.380 308.800,193.600 308.800 C 193.820 308.800,194.000 308.440,194.000 308.000 C 194.000 307.560,194.180 307.200,194.400 307.200 C 194.620 307.200,194.800 306.750,194.800 306.200 C 194.800 305.650,194.980 305.200,195.200 305.200 C 195.420 305.200,195.600 304.851,195.600 304.424 C 195.600 303.997,195.780 303.536,196.000 303.400 C 196.220 303.264,196.400 302.713,196.400 302.176 C 196.400 301.639,196.580 301.200,196.800 301.200 C 197.020 301.200,197.200 300.840,197.200 300.400 C 197.200 299.960,197.380 299.600,197.600 299.600 C 197.820 299.600,198.000 299.060,198.000 298.400 C 198.000 297.740,198.180 297.200,198.400 297.200 C 198.620 297.200,198.800 296.840,198.800 296.400 C 198.800 295.960,198.980 295.600,199.200 295.600 C 199.420 295.600,199.600 295.060,199.600 294.400 C 199.600 293.740,199.780 293.200,200.000 293.200 C 200.220 293.200,200.400 292.840,200.400 292.400 C 200.400 291.960,200.580 291.600,200.800 291.600 C 201.020 291.600,201.200 291.150,201.200 290.600 C 201.200 290.050,201.380 289.600,201.600 289.600 C 201.820 289.600,202.000 289.251,202.000 288.824 C 202.000 288.397,202.180 287.936,202.400 287.800 C 202.620 287.664,202.800 287.113,202.800 286.576 C 202.800 286.039,202.980 285.600,203.200 285.600 C 203.420 285.600,203.600 285.251,203.600 284.824 C 203.600 284.397,203.780 283.936,204.000 283.800 C 204.220 283.664,204.400 283.113,204.400 282.576 C 204.400 282.039,204.580 281.600,204.800 281.600 C 205.020 281.600,205.200 281.251,205.200 280.824 C 205.200 280.397,205.380 279.936,205.600 279.800 C 205.820 279.664,206.000 279.113,206.000 278.576 C 206.000 278.039,206.135 277.600,206.300 277.600 C 206.465 277.600,206.947 276.475,207.371 275.100 C 207.795 273.725,208.290 272.429,208.471 272.220 C 208.652 272.011,208.800 271.426,208.800 270.920 C 208.800 270.414,208.980 270.000,209.200 270.000 C 209.420 270.000,209.600 269.640,209.600 269.200 C 209.600 268.760,209.780 268.400,210.000 268.400 C 210.220 268.400,210.400 267.860,210.400 267.200 C 210.400 266.540,210.580 266.000,210.800 266.000 C 211.020 266.000,211.200 265.640,211.200 265.200 C 211.200 264.760,211.380 264.400,211.600 264.400 C 211.820 264.400,212.000 263.860,212.000 263.200 C 212.000 262.540,212.180 262.000,212.400 262.000 C 212.620 262.000,212.800 261.640,212.800 261.200 C 212.800 260.760,212.980 260.400,213.200 260.400 C 213.420 260.400,213.600 259.860,213.600 259.200 C 213.600 258.540,213.780 258.000,214.000 258.000 C 214.220 258.000,214.400 257.640,214.400 257.200 C 214.400 256.760,214.580 256.400,214.800 256.400 C 215.020 256.400,215.200 255.950,215.200 255.400 C 215.200 254.850,215.380 254.400,215.600 254.400 C 215.820 254.400,216.000 254.051,216.000 253.624 C 216.000 253.197,216.180 252.736,216.400 252.600 C 216.620 252.464,216.800 251.913,216.800 251.376 C 216.800 250.839,216.980 250.400,217.200 250.400 C 217.420 250.400,217.600 250.051,217.600 249.624 C 217.600 249.197,217.780 248.736,218.000 248.600 C 218.220 248.464,218.400 247.913,218.400 247.376 C 218.400 246.839,218.580 246.400,218.800 246.400 C 219.026 246.400,219.200 245.267,219.200 243.800 C 219.200 242.333,219.026 241.200,218.800 241.200 C 218.580 241.200,218.400 240.922,218.400 240.582 C 218.400 239.793,216.623 238.000,215.842 238.000 C 215.515 238.000,215.136 237.820,215.000 237.600 C 214.864 237.380,213.683 237.200,212.376 237.200 C 211.059 237.200,210.000 237.378,210.000 237.600 M160.200 250.000 C 160.064 250.220,159.691 250.400,159.372 250.400 C 159.052 250.400,156.926 252.245,154.648 254.500 C 152.369 256.755,148.996 260.059,147.152 261.843 C 141.972 266.855,138.000 271.185,138.000 271.822 C 138.000 272.140,137.820 272.400,137.600 272.400 C 137.372 272.400,137.200 273.584,137.200 275.151 L 137.200 277.902 139.700 280.567 C 142.385 283.429,147.634 288.691,154.996 295.900 L 159.591 300.400 162.396 300.400 C 163.999 300.400,165.200 300.229,165.200 300.000 C 165.200 299.780,165.478 299.600,165.818 299.600 C 166.618 299.600,168.400 297.818,168.400 297.018 C 168.400 296.678,168.580 296.400,168.800 296.400 C 169.020 296.400,169.200 295.410,169.200 294.200 C 169.200 292.990,169.020 292.000,168.800 292.000 C 168.580 292.000,168.400 291.728,168.400 291.395 C 168.400 290.227,167.343 288.991,160.500 282.157 C 156.705 278.367,153.600 275.190,153.600 275.097 C 153.600 275.004,156.930 271.562,161.000 267.448 C 165.070 263.334,168.400 259.706,168.400 259.384 C 168.400 259.063,168.580 258.800,168.800 258.800 C 169.020 258.800,169.200 257.821,169.200 256.624 C 169.200 255.427,169.020 254.336,168.800 254.200 C 168.580 254.064,168.400 253.628,168.400 253.231 C 168.400 252.198,166.460 250.400,165.345 250.400 C 164.825 250.400,164.400 250.220,164.400 250.000 C 164.400 249.780,163.511 249.600,162.424 249.600 C 161.337 249.600,160.336 249.780,160.200 250.000 M235.600 250.000 C 235.600 250.220,235.184 250.400,234.675 250.400 C 233.490 250.400,232.159 251.646,231.398 253.466 C 230.725 255.077,230.587 258.800,231.200 258.800 C 231.420 258.800,231.600 259.063,231.600 259.384 C 231.600 259.706,234.930 263.334,239.000 267.448 C 243.070 271.562,246.400 275.012,246.400 275.115 C 246.400 275.218,243.295 278.393,239.500 282.171 C 232.671 288.968,231.600 290.218,231.600 291.395 C 231.600 291.728,231.420 292.000,231.200 292.000 C 230.980 292.000,230.800 292.990,230.800 294.200 C 230.800 295.410,230.980 296.400,231.200 296.400 C 231.420 296.400,231.600 296.678,231.600 297.018 C 231.600 297.818,233.382 299.600,234.182 299.600 C 234.522 299.600,234.800 299.780,234.800 300.000 C 234.800 300.229,236.001 300.400,237.604 300.400 L 240.409 300.400 245.004 295.900 C 252.366 288.691,257.615 283.429,260.300 280.567 L 262.800 277.902 262.800 275.151 C 262.800 273.584,262.628 272.400,262.400 272.400 C 262.180 272.400,262.000 272.140,262.000 271.822 C 262.000 271.191,258.096 266.929,252.861 261.843 C 251.024 260.060,247.651 256.755,245.365 254.500 C 243.079 252.245,240.948 250.400,240.628 250.400 C 240.309 250.400,239.936 250.220,239.800 250.000 C 239.664 249.780,238.663 249.600,237.576 249.600 C 236.489 249.600,235.600 249.780,235.600 250.000 M387.429 375.771 C 388.253 376.596,388.253 386.604,387.429 387.429 C 386.566 388.292,13.434 388.292,12.571 387.429 C 11.805 386.662,11.744 376.657,12.500 375.798 C 13.257 374.938,386.569 374.912,387.429 375.771 " stroke="none" fill="#040404" fill-rule="evenodd"></path><path id="path1" d="" stroke="none" fill="#080404" fill-rule="evenodd"></path><path id="path2" d="" stroke="none" fill="#080404" fill-rule="evenodd"></path><path id="path3" d="" stroke="none" fill="#080404" fill-rule="evenodd"></path><path id="path4" d="" stroke="none" fill="#080404" fill-rule="evenodd"></path></g></svg>