<svg id="svg" version="1.1" xmlns="http://www.w3.org/2000/svg" xmlns:xlink="http://www.w3.org/1999/xlink" width="400" height="400" viewBox="0, 0, 400,400"><g id="svgg"><path id="path0" d="M104.600 26.354 C 104.380 26.577,101.410 26.848,98.000 26.957 C 90.295 27.204,86.314 27.555,85.820 28.032 C 85.611 28.235,84.576 28.400,83.520 28.400 C 82.464 28.400,81.600 28.580,81.600 28.800 C 81.600 29.020,80.801 29.200,79.824 29.200 C 78.847 29.200,77.936 29.380,77.800 29.600 C 77.664 29.820,76.933 30.000,76.176 30.000 C 75.419 30.000,74.800 30.180,74.800 30.400 C 74.800 30.620,74.260 30.800,73.600 30.800 C 72.940 30.800,72.400 30.980,72.400 31.200 C 72.400 31.420,71.860 31.600,71.200 31.600 C 70.540 31.600,70.000 31.780,70.000 32.000 C 70.000 32.220,69.460 32.400,68.800 32.400 C 68.140 32.400,67.600 32.580,67.600 32.800 C 67.600 33.020,67.161 33.200,66.624 33.200 C 66.087 33.200,65.536 33.380,65.400 33.600 C 65.264 33.820,64.803 34.000,64.376 34.000 C 63.949 34.000,63.600 34.180,63.600 34.400 C 63.600 34.620,63.240 34.800,62.800 34.800 C 62.360 34.800,62.000 34.980,62.000 35.200 C 62.000 35.420,61.766 35.600,61.480 35.600 C 60.744 35.600,58.807 36.541,58.803 36.900 C 58.801 37.065,58.530 37.200,58.200 37.200 C 57.870 37.200,57.600 37.380,57.600 37.600 C 57.600 37.820,57.240 38.000,56.800 38.000 C 56.360 38.000,56.000 38.180,56.000 38.400 C 56.000 38.620,55.640 38.800,55.200 38.800 C 54.760 38.800,54.400 38.950,54.400 39.132 C 54.400 39.315,53.905 39.720,53.300 40.032 C 52.695 40.345,51.851 40.915,51.425 41.300 C 50.998 41.685,50.456 42.000,50.220 42.000 C 49.985 42.000,49.307 42.450,48.713 43.000 C 48.120 43.550,47.492 44.002,47.317 44.004 C 45.365 44.031,42.256 48.822,42.259 51.800 C 42.268 60.166,50.097 60.705,58.226 52.900 C 58.742 52.405,59.402 52.000,59.694 52.000 C 59.985 52.000,60.483 51.640,60.800 51.200 C 61.117 50.760,61.697 50.400,62.088 50.400 C 62.480 50.400,62.800 50.220,62.800 50.000 C 62.800 49.780,63.160 49.600,63.600 49.600 C 64.040 49.600,64.400 49.420,64.400 49.200 C 64.400 48.980,64.760 48.800,65.200 48.800 C 65.640 48.800,66.000 48.620,66.000 48.400 C 66.000 48.180,66.360 48.000,66.800 48.000 C 67.240 48.000,67.600 47.820,67.600 47.600 C 67.600 47.380,67.960 47.200,68.400 47.200 C 68.840 47.200,69.200 47.020,69.200 46.800 C 69.200 46.580,69.560 46.400,70.000 46.400 C 70.440 46.400,70.800 46.220,70.800 46.000 C 70.800 45.780,71.239 45.600,71.776 45.600 C 72.313 45.600,72.864 45.420,73.000 45.200 C 73.136 44.980,73.687 44.800,74.224 44.800 C 74.761 44.800,75.200 44.620,75.200 44.400 C 75.200 44.180,75.740 44.000,76.400 44.000 C 77.060 44.000,77.600 43.820,77.600 43.600 C 77.600 43.380,78.140 43.200,78.800 43.200 C 79.460 43.200,80.000 43.020,80.000 42.800 C 80.000 42.580,80.810 42.400,81.800 42.400 C 82.790 42.400,83.600 42.246,83.600 42.057 C 83.600 41.432,99.915 39.958,106.800 39.962 C 114.208 39.965,130.800 41.414,130.800 42.057 C 130.800 42.246,131.520 42.400,132.400 42.400 C 133.280 42.400,134.000 42.580,134.000 42.800 C 134.000 43.020,134.720 43.200,135.600 43.200 C 136.480 43.200,137.200 43.380,137.200 43.600 C 137.200 43.820,137.740 44.000,138.400 44.000 C 139.060 44.000,139.600 44.180,139.600 44.400 C 139.600 44.620,140.140 44.800,140.800 44.800 C 141.460 44.800,142.000 44.980,142.000 45.200 C 142.000 45.420,142.360 45.600,142.800 45.600 C 143.240 45.600,143.600 45.780,143.600 46.000 C 143.600 46.220,144.050 46.400,144.600 46.400 C 145.150 46.400,145.600 46.580,145.600 46.800 C 145.600 47.020,145.960 47.200,146.400 47.200 C 146.840 47.200,147.200 47.380,147.200 47.600 C 147.200 47.820,147.560 48.000,148.000 48.000 C 148.440 48.000,148.800 48.180,148.800 48.400 C 148.800 48.620,149.160 48.800,149.600 48.800 C 150.040 48.800,150.400 48.980,150.400 49.200 C 150.400 49.420,150.678 49.600,151.017 49.600 C 151.356 49.600,152.020 49.960,152.492 50.400 C 152.964 50.840,153.587 51.200,153.875 51.200 C 154.164 51.200,154.400 51.350,154.400 51.532 C 154.400 51.715,154.895 52.120,155.500 52.432 C 156.105 52.745,157.013 53.405,157.518 53.900 C 158.023 54.395,158.563 54.802,158.718 54.804 C 159.222 54.811,166.800 62.311,166.800 62.802 C 166.800 63.064,167.340 63.783,168.000 64.400 C 168.660 65.017,169.200 65.769,169.200 66.072 C 169.200 66.375,169.560 66.883,170.000 67.200 C 170.440 67.517,170.800 68.097,170.800 68.488 C 170.800 68.880,170.980 69.200,171.200 69.200 C 171.420 69.200,171.600 69.560,171.600 70.000 C 171.600 70.440,171.746 70.800,171.925 70.800 C 172.104 70.800,172.498 71.430,172.800 72.200 C 173.102 72.970,173.496 73.600,173.675 73.600 C 173.854 73.600,174.000 73.960,174.000 74.400 C 174.000 74.840,174.180 75.200,174.400 75.200 C 174.620 75.200,174.800 75.449,174.800 75.754 C 174.800 76.459,175.958 80.378,176.437 81.295 C 176.637 81.677,176.800 82.431,176.800 82.971 C 176.800 83.511,176.980 84.064,177.200 84.200 C 177.420 84.336,177.600 85.056,177.600 85.800 C 177.600 86.544,177.780 87.264,178.000 87.400 C 178.220 87.536,178.400 88.537,178.400 89.624 C 178.400 90.711,178.580 91.600,178.800 91.600 C 179.029 91.600,179.200 92.800,179.200 94.400 C 179.200 96.000,179.371 97.200,179.600 97.200 C 179.856 97.200,180.000 100.867,180.000 107.400 C 180.000 113.933,179.856 117.600,179.600 117.600 C 179.380 117.600,179.200 117.420,179.200 117.200 C 179.200 116.980,178.964 116.800,178.675 116.800 C 178.387 116.800,177.764 116.440,177.292 116.000 C 176.820 115.560,176.156 115.200,175.817 115.200 C 175.478 115.200,175.199 115.065,175.197 114.900 C 175.193 114.499,173.219 113.600,172.344 113.600 C 171.961 113.600,171.536 113.420,171.400 113.200 C 171.264 112.980,170.004 112.800,168.600 112.800 C 167.196 112.800,165.936 112.620,165.800 112.400 C 165.664 112.180,164.573 112.000,163.376 112.000 L 161.200 112.000 161.200 109.000 C 161.200 107.267,161.031 106.000,160.800 106.000 C 160.578 106.000,160.400 104.933,160.400 103.600 C 160.400 102.267,160.222 101.200,160.000 101.200 C 159.780 101.200,159.600 100.570,159.600 99.800 C 159.600 99.030,159.420 98.400,159.200 98.400 C 158.980 98.400,158.800 98.038,158.800 97.595 C 158.800 97.152,158.629 96.477,158.419 96.095 C 158.210 95.713,157.751 94.749,157.399 93.954 C 157.048 93.159,156.409 92.131,155.980 91.671 C 155.551 91.210,155.200 90.635,155.200 90.392 C 155.200 89.858,148.485 83.200,147.947 83.200 C 147.738 83.200,147.180 82.840,146.708 82.400 C 146.236 81.960,145.613 81.600,145.325 81.600 C 145.036 81.600,144.800 81.420,144.800 81.200 C 144.800 80.980,144.440 80.800,144.000 80.800 C 143.560 80.800,143.200 80.620,143.200 80.400 C 143.200 80.180,142.840 80.000,142.400 80.000 C 141.960 80.000,141.600 79.902,141.600 79.783 C 141.600 79.664,141.960 79.180,142.400 78.708 C 142.840 78.236,143.200 77.613,143.200 77.325 C 143.200 77.036,143.380 76.800,143.600 76.800 C 143.820 76.800,144.000 76.440,144.000 76.000 C 144.000 75.560,144.180 75.200,144.400 75.200 C 144.634 75.200,144.800 73.843,144.800 71.928 L 144.800 68.656 142.944 66.928 C 140.136 64.312,133.200 64.971,133.200 67.853 C 133.200 68.154,133.020 68.400,132.800 68.400 C 132.580 68.400,132.400 68.636,132.400 68.925 C 132.400 69.213,132.040 69.836,131.600 70.308 C 131.160 70.780,130.800 71.444,130.800 71.783 C 130.800 72.122,130.620 72.400,130.400 72.400 C 130.180 72.400,130.000 72.760,130.000 73.200 C 130.000 73.640,129.820 74.000,129.600 74.000 C 129.380 74.000,129.200 74.236,129.200 74.525 C 129.200 74.813,128.885 75.407,128.500 75.845 C 127.774 76.670,127.340 77.363,125.645 80.400 C 125.093 81.390,124.497 82.260,124.320 82.333 C 124.144 82.407,124.000 82.695,124.000 82.974 C 124.000 83.253,123.460 84.046,122.800 84.737 C 122.140 85.428,121.600 86.192,121.600 86.436 C 121.600 86.680,121.060 87.383,120.400 88.000 C 119.740 88.617,119.200 89.337,119.200 89.600 C 119.200 89.863,118.660 90.583,118.000 91.200 C 117.340 91.817,116.800 92.447,116.800 92.600 C 116.800 92.753,116.298 93.356,115.685 93.940 C 115.071 94.523,114.142 95.608,113.621 96.352 C 111.456 99.436,98.135 112.800,97.226 112.800 C 97.036 112.800,95.962 113.700,94.839 114.800 C 93.715 115.900,92.689 116.800,92.558 116.800 C 92.428 116.800,91.817 117.340,91.200 118.000 C 90.583 118.660,89.863 119.200,89.600 119.200 C 89.337 119.200,88.617 119.740,88.000 120.400 C 87.383 121.060,86.680 121.600,86.436 121.600 C 86.192 121.600,85.428 122.140,84.737 122.800 C 84.046 123.460,83.238 124.000,82.941 124.000 C 82.643 124.000,82.400 124.168,82.400 124.373 C 82.400 124.578,82.049 124.858,81.620 124.994 C 81.190 125.130,79.475 126.132,77.807 127.221 C 76.140 128.309,74.601 129.200,74.388 129.200 C 74.174 129.200,74.000 129.380,74.000 129.600 C 74.000 129.820,73.640 130.000,73.200 130.000 C 72.760 130.000,72.400 130.180,72.400 130.400 C 72.400 130.620,72.164 130.800,71.875 130.800 C 71.587 130.800,70.964 131.160,70.492 131.600 C 70.020 132.040,69.356 132.400,69.017 132.400 C 68.678 132.400,68.400 132.580,68.400 132.800 C 68.400 133.020,68.040 133.200,67.600 133.200 C 67.160 133.200,66.800 133.380,66.800 133.600 C 66.800 133.820,66.440 134.000,66.000 134.000 C 65.560 134.000,65.200 134.180,65.200 134.400 C 65.200 134.620,64.840 134.800,64.400 134.800 C 63.960 134.800,63.600 134.980,63.600 135.200 C 63.600 135.420,63.240 135.600,62.800 135.600 C 62.360 135.600,62.000 135.780,62.000 136.000 C 62.000 136.220,61.640 136.400,61.200 136.400 C 60.760 136.400,60.400 136.580,60.400 136.800 C 60.400 137.020,60.051 137.200,59.624 137.200 C 59.197 137.200,58.736 137.380,58.600 137.600 C 58.464 137.820,58.087 138.000,57.763 138.000 C 56.985 138.000,54.400 140.603,54.400 141.387 C 54.400 141.724,54.220 142.000,54.000 142.000 C 53.750 142.000,53.600 144.392,53.600 148.376 C 53.600 152.196,53.760 154.852,54.000 155.000 C 54.220 155.136,54.400 156.407,54.400 157.824 C 54.400 159.275,54.575 160.400,54.800 160.400 C 55.020 160.400,55.200 161.120,55.200 162.000 C 55.200 162.880,55.380 163.600,55.600 163.600 C 55.820 163.600,56.000 164.140,56.000 164.800 C 56.000 165.460,56.180 166.000,56.400 166.000 C 56.620 166.000,56.800 166.540,56.800 167.200 C 56.800 167.860,56.980 168.400,57.200 168.400 C 57.420 168.400,57.600 168.762,57.600 169.205 C 57.600 169.648,57.763 170.323,57.963 170.705 C 58.163 171.087,58.838 172.435,59.463 173.699 C 60.088 174.964,60.735 175.999,60.900 175.999 C 61.065 176.000,61.200 176.360,61.200 176.800 C 61.200 177.240,61.350 177.600,61.532 177.600 C 61.715 177.600,62.119 178.095,62.430 178.700 C 62.740 179.305,63.274 180.070,63.616 180.400 C 63.958 180.730,64.676 181.630,65.210 182.400 C 66.349 184.040,71.484 189.200,71.977 189.200 C 72.163 189.200,72.893 189.740,73.600 190.400 C 74.307 191.060,75.136 191.600,75.442 191.600 C 75.749 191.600,76.000 191.750,76.000 191.932 C 76.000 192.115,76.495 192.520,77.100 192.832 C 79.265 193.950,79.200 193.541,79.200 205.971 L 79.200 217.600 63.200 217.600 L 47.200 217.600 47.200 216.000 C 47.200 215.120,47.020 214.400,46.800 214.400 C 46.580 214.400,46.400 213.410,46.400 212.200 C 46.400 210.990,46.220 210.000,46.000 210.000 C 45.780 210.000,45.600 209.100,45.600 208.000 C 45.600 206.900,45.420 206.000,45.200 206.000 C 44.978 206.000,44.800 204.933,44.800 203.600 C 44.800 202.267,44.622 201.200,44.400 201.200 C 44.178 201.200,44.000 200.133,44.000 198.800 C 44.000 197.467,43.822 196.400,43.600 196.400 C 43.374 196.400,43.200 195.267,43.200 193.800 C 43.200 192.333,43.026 191.200,42.800 191.200 C 42.578 191.200,42.400 190.133,42.400 188.800 C 42.400 187.480,42.245 186.400,42.057 186.400 C 41.868 186.400,41.585 184.204,41.428 181.520 C 41.271 178.836,40.975 176.328,40.771 175.946 C 40.567 175.565,40.400 174.197,40.400 172.906 C 40.400 171.616,40.234 170.389,40.030 170.180 C 39.827 169.971,39.564 168.450,39.446 166.800 C 39.328 165.150,39.040 162.270,38.807 160.400 C 38.003 153.973,37.571 149.794,37.357 146.400 C 37.240 144.530,36.976 142.829,36.772 142.620 C 36.567 142.411,36.400 140.422,36.400 138.200 C 36.400 135.978,36.231 133.989,36.023 133.780 C 35.228 132.978,34.429 96.611,35.190 95.850 C 35.415 95.625,35.600 94.407,35.600 93.144 C 35.600 91.881,35.780 90.736,36.000 90.600 C 36.220 90.464,36.400 89.654,36.400 88.800 C 36.400 87.946,36.580 87.136,36.800 87.000 C 37.020 86.864,37.200 86.144,37.200 85.400 C 37.200 84.656,37.380 83.936,37.600 83.800 C 37.820 83.664,38.000 82.933,38.000 82.176 C 38.000 81.419,38.180 80.800,38.400 80.800 C 38.620 80.800,38.800 80.380,38.800 79.867 C 38.800 79.353,38.923 78.810,39.074 78.659 C 41.449 76.285,39.895 68.400,37.053 68.400 C 36.694 68.400,36.400 68.220,36.400 68.000 C 36.400 67.771,35.200 67.600,33.600 67.600 C 32.000 67.600,30.800 67.771,30.800 68.000 C 30.800 68.220,30.522 68.400,30.182 68.400 C 29.382 68.400,27.600 70.182,27.600 70.982 C 27.600 71.322,27.420 71.600,27.200 71.600 C 26.980 71.600,26.800 72.039,26.800 72.576 C 26.800 73.113,26.652 73.644,26.472 73.755 C 26.292 73.867,25.822 75.362,25.427 77.079 C 25.033 78.796,24.550 80.513,24.355 80.895 C 24.160 81.277,24.000 82.211,24.000 82.971 C 24.000 83.731,23.820 84.464,23.600 84.600 C 23.380 84.736,23.200 85.737,23.200 86.824 C 23.200 87.911,23.020 88.800,22.800 88.800 C 22.572 88.800,22.400 89.992,22.400 91.576 C 22.400 93.103,22.220 94.464,22.000 94.600 C 21.745 94.758,21.600 100.204,21.600 109.624 C 21.600 119.208,21.741 124.400,22.000 124.400 C 22.246 124.400,22.400 126.400,22.400 129.600 C 22.400 132.800,22.554 134.800,22.800 134.800 C 23.041 134.800,23.200 136.459,23.200 138.976 C 23.200 141.329,23.375 143.261,23.600 143.400 C 23.821 143.537,24.000 145.337,24.000 147.424 C 24.000 149.675,24.162 151.200,24.400 151.200 C 24.627 151.200,24.812 152.452,24.828 154.100 C 24.856 156.876,25.150 160.183,26.029 167.600 C 26.251 169.470,26.530 172.170,26.649 173.600 C 26.767 175.030,27.030 176.371,27.232 176.580 C 27.435 176.789,27.600 178.184,27.600 179.680 C 27.600 181.227,27.773 182.400,28.000 182.400 C 28.225 182.400,28.400 183.525,28.400 184.976 C 28.400 186.393,28.580 187.664,28.800 187.800 C 29.020 187.936,29.200 189.207,29.200 190.624 C 29.200 192.075,29.375 193.200,29.600 193.200 C 29.822 193.200,30.000 194.259,30.000 195.576 C 30.000 196.883,30.180 198.064,30.400 198.200 C 30.620 198.336,30.800 199.506,30.800 200.800 C 30.800 202.094,30.980 203.264,31.200 203.400 C 31.420 203.536,31.600 204.436,31.600 205.400 C 31.600 206.364,31.780 207.264,32.000 207.400 C 32.220 207.536,32.400 208.627,32.400 209.824 C 32.400 211.021,32.580 212.000,32.800 212.000 C 33.022 212.000,33.200 213.067,33.200 214.400 C 33.200 215.733,33.378 216.800,33.600 216.800 C 33.820 216.800,34.000 216.980,34.000 217.200 C 34.000 217.422,32.941 217.600,31.624 217.600 C 30.317 217.600,29.136 217.780,29.000 218.000 C 28.864 218.220,28.043 218.400,27.176 218.400 C 26.309 218.400,25.600 218.580,25.600 218.800 C 25.600 219.020,24.880 219.200,24.000 219.200 C 23.120 219.200,22.400 219.380,22.400 219.600 C 22.400 219.820,22.040 220.000,21.600 220.000 C 21.160 220.000,20.800 220.180,20.800 220.400 C 20.800 220.620,20.440 220.800,20.000 220.800 C 19.560 220.800,19.200 220.980,19.200 221.200 C 19.200 221.420,18.840 221.600,18.400 221.600 C 17.960 221.600,17.600 221.780,17.600 222.000 C 17.600 222.220,17.240 222.400,16.800 222.400 C 16.360 222.400,16.000 222.580,16.000 222.800 C 16.000 223.020,15.706 223.200,15.347 223.200 C 14.988 223.200,14.403 223.524,14.047 223.919 C 13.691 224.314,12.770 225.062,12.000 225.580 C 10.319 226.711,7.600 229.443,7.600 230.001 C 7.600 230.220,7.420 230.400,7.200 230.400 C 6.980 230.400,6.800 230.630,6.800 230.912 C 6.800 231.193,6.440 231.683,6.000 232.000 C 5.560 232.317,5.200 232.857,5.200 233.200 C 5.200 233.543,4.840 234.083,4.400 234.400 C 3.960 234.717,3.600 235.297,3.600 235.688 C 3.600 236.080,3.420 236.400,3.200 236.400 C 2.980 236.400,2.800 236.760,2.800 237.200 C 2.800 237.640,2.620 238.000,2.400 238.000 C 2.180 238.000,2.000 238.540,2.000 239.200 C 2.000 239.860,1.820 240.400,1.600 240.400 C 1.380 240.400,1.200 240.745,1.200 241.167 C 1.200 241.588,0.975 242.008,0.700 242.100 C -0.035 242.345,-0.035 353.255,0.700 353.500 C 0.975 353.592,1.200 353.976,1.200 354.354 C 1.200 355.221,2.102 357.193,2.500 357.197 C 2.665 357.199,2.800 357.520,2.800 357.912 C 2.800 358.303,3.160 358.883,3.600 359.200 C 4.040 359.517,4.400 360.025,4.400 360.328 C 4.400 360.631,4.895 361.356,5.500 361.940 C 6.105 362.523,6.855 363.495,7.168 364.100 C 7.480 364.705,7.885 365.200,8.067 365.200 C 8.250 365.200,9.141 365.920,10.048 366.800 C 10.955 367.680,11.862 368.400,12.065 368.400 C 12.268 368.400,12.820 368.760,13.292 369.200 C 13.764 369.640,14.387 370.000,14.675 370.000 C 14.964 370.000,15.200 370.180,15.200 370.400 C 15.200 370.620,15.549 370.800,15.976 370.800 C 16.403 370.800,16.864 370.980,17.000 371.200 C 17.136 371.420,17.687 371.600,18.224 371.600 C 18.761 371.600,19.200 371.760,19.200 371.956 C 19.200 372.341,20.418 372.596,25.400 373.258 C 30.240 373.901,38.484 373.607,39.380 372.759 C 39.589 372.562,40.253 372.400,40.856 372.400 C 41.459 372.400,42.064 372.220,42.200 372.000 C 42.336 371.780,42.797 371.600,43.224 371.600 C 43.651 371.600,44.000 371.420,44.000 371.200 C 44.000 370.980,44.360 370.800,44.800 370.800 C 45.240 370.800,45.600 370.620,45.600 370.400 C 45.600 370.180,45.960 370.000,46.400 370.000 C 46.840 370.000,47.200 369.820,47.200 369.600 C 47.200 369.380,47.560 369.200,48.000 369.200 C 48.440 369.200,48.800 369.020,48.800 368.800 C 48.800 368.580,49.078 368.400,49.417 368.400 C 49.756 368.400,50.420 368.040,50.892 367.600 C 51.364 367.160,51.987 366.800,52.275 366.800 C 52.564 366.800,52.800 366.620,52.800 366.400 C 52.800 366.180,53.160 366.000,53.600 366.000 C 54.040 366.000,54.400 365.820,54.400 365.600 C 54.400 365.335,80.933 365.200,133.200 365.200 C 176.540 365.200,212.000 365.063,212.000 364.895 C 212.000 364.727,212.405 364.412,212.900 364.195 C 213.395 363.978,213.978 363.395,214.195 362.900 C 214.412 362.405,214.727 362.000,214.895 362.000 C 215.063 362.000,215.200 335.900,215.200 304.000 C 215.200 265.600,215.065 246.000,214.800 246.000 C 214.580 246.000,214.400 245.280,214.400 244.400 C 214.400 243.520,214.220 242.800,214.000 242.800 C 213.780 242.800,213.600 242.260,213.600 241.600 C 213.600 240.940,213.420 240.400,213.200 240.400 C 212.980 240.400,212.800 240.040,212.800 239.600 C 212.800 239.160,212.620 238.800,212.400 238.800 C 212.180 238.800,212.000 238.566,212.000 238.280 C 212.000 237.544,211.059 235.607,210.700 235.603 C 210.535 235.601,210.400 235.240,210.400 234.800 C 210.400 234.360,210.220 234.000,210.000 234.000 C 209.780 234.000,209.598 233.775,209.595 233.500 C 209.590 233.032,209.116 232.361,206.914 229.700 C 206.427 229.111,206.177 228.533,206.358 228.415 C 206.540 228.297,207.010 227.570,207.403 226.800 C 207.797 226.030,208.452 225.109,208.859 224.753 C 209.267 224.397,209.600 223.974,209.600 223.814 C 209.600 223.653,210.140 223.017,210.800 222.400 C 211.460 221.783,212.000 221.063,212.000 220.800 C 212.000 220.537,212.540 219.817,213.200 219.200 C 213.860 218.583,214.400 217.863,214.400 217.600 C 214.400 217.337,214.940 216.617,215.600 216.000 C 216.260 215.383,216.800 214.663,216.800 214.400 C 216.800 214.137,217.340 213.417,218.000 212.800 C 218.660 212.183,219.200 211.508,219.200 211.299 C 219.200 211.090,219.740 210.354,220.400 209.663 C 221.060 208.972,221.600 208.254,221.600 208.066 C 221.600 207.878,221.940 207.416,222.356 207.040 C 222.772 206.663,223.618 205.556,224.236 204.578 C 224.854 203.600,225.504 202.800,225.680 202.800 C 225.856 202.800,226.000 202.530,226.000 202.200 C 226.000 201.870,226.180 201.600,226.400 201.600 C 226.620 201.600,226.800 201.418,226.800 201.196 C 226.800 200.974,227.340 200.228,228.000 199.537 C 228.660 198.846,229.200 198.120,229.200 197.922 C 229.200 197.725,229.642 197.122,230.182 196.582 L 231.164 195.600 260.782 195.600 L 290.400 195.600 290.400 199.056 C 290.400 202.739,290.000 203.559,288.188 203.587 C 287.742 203.594,287.117 203.960,286.800 204.400 C 286.483 204.840,285.989 205.200,285.703 205.200 C 285.205 205.200,280.800 209.340,280.800 209.808 C 280.800 209.932,280.440 210.420,280.000 210.892 C 279.560 211.364,279.200 212.167,279.200 212.675 C 279.200 213.184,279.020 213.600,278.800 213.600 C 278.580 213.600,278.400 214.140,278.400 214.800 C 278.400 215.460,278.220 216.000,278.000 216.000 C 277.755 216.000,277.600 217.933,277.600 221.000 C 277.600 224.067,277.755 226.000,278.000 226.000 C 278.220 226.000,278.400 226.540,278.400 227.200 C 278.400 227.860,278.580 228.400,278.800 228.400 C 279.020 228.400,279.200 228.760,279.200 229.200 C 279.200 229.640,279.380 230.000,279.600 230.000 C 279.820 230.000,280.000 230.276,280.000 230.614 C 280.000 230.952,280.361 231.627,280.803 232.114 C 281.245 232.601,282.071 233.585,282.639 234.300 C 283.207 235.015,283.859 235.600,284.089 235.600 C 284.318 235.600,284.797 235.915,285.153 236.300 C 285.991 237.207,288.923 238.800,289.754 238.800 C 290.110 238.800,290.400 238.962,290.400 239.160 C 290.400 239.850,298.694 240.666,299.322 240.038 C 299.563 239.797,300.356 239.600,301.085 239.600 C 301.814 239.600,302.723 239.440,303.105 239.244 C 303.487 239.048,304.689 238.463,305.776 237.944 C 307.884 236.937,312.800 232.342,312.800 231.378 C 312.800 231.060,312.980 230.800,313.200 230.800 C 313.420 230.800,313.600 230.440,313.600 230.000 C 313.600 229.560,313.780 229.200,314.000 229.200 C 314.220 229.200,314.400 228.851,314.400 228.424 C 314.400 227.997,314.580 227.536,314.800 227.400 C 315.020 227.264,315.200 226.353,315.200 225.376 C 315.200 224.399,315.380 223.600,315.600 223.600 C 315.828 223.600,316.000 222.408,316.000 220.824 C 316.000 219.297,315.820 217.936,315.600 217.800 C 315.380 217.664,315.200 216.843,315.200 215.976 C 315.200 215.109,315.020 214.400,314.800 214.400 C 314.580 214.400,314.400 214.166,314.400 213.880 C 314.400 213.144,313.459 211.207,313.100 211.203 C 312.935 211.201,312.800 210.928,312.800 210.596 C 312.800 210.264,312.260 209.428,311.600 208.737 C 310.940 208.046,310.400 207.328,310.400 207.141 C 310.400 206.953,310.157 206.800,309.859 206.800 C 309.562 206.800,308.754 206.260,308.063 205.600 C 307.372 204.940,306.626 204.400,306.404 204.400 C 306.182 204.400,306.000 204.220,306.000 204.000 C 306.000 203.780,305.717 203.600,305.371 203.600 C 304.004 203.600,303.600 202.557,303.600 199.029 L 303.600 195.600 342.600 195.600 C 368.333 195.600,381.600 195.464,381.600 195.200 C 381.600 194.980,382.100 194.800,382.712 194.800 C 383.365 194.800,384.061 194.470,384.400 194.000 C 384.717 193.560,385.173 193.200,385.413 193.200 C 385.848 193.200,387.254 191.505,388.399 189.600 C 388.926 188.724,389.014 180.909,389.113 126.500 L 389.226 64.400 390.390 64.400 C 391.029 64.400,391.664 64.220,391.800 64.000 C 391.936 63.780,392.667 63.600,393.424 63.600 C 394.181 63.600,394.800 63.420,394.800 63.200 C 394.800 62.980,395.075 62.800,395.411 62.800 C 395.746 62.800,396.871 61.950,397.911 60.911 L 399.800 59.021 399.800 48.244 C 399.800 39.978,399.684 37.428,399.300 37.300 C 399.025 37.208,398.800 36.870,398.800 36.548 C 398.800 35.775,397.002 34.000,396.218 34.000 C 395.878 34.000,395.600 33.820,395.600 33.600 C 395.600 33.380,395.240 33.200,394.800 33.200 C 394.360 33.200,394.000 33.020,394.000 32.800 C 394.000 32.534,361.008 32.400,295.824 32.400 C 230.804 32.400,197.564 32.535,197.400 32.800 C 197.264 33.020,196.885 33.200,196.558 33.200 C 195.527 33.200,192.472 36.581,191.826 38.436 C 189.575 44.900,191.712 62.000,194.771 62.000 C 195.007 62.000,195.200 62.180,195.200 62.400 C 195.200 62.620,195.470 62.800,195.800 62.800 C 196.130 62.800,196.400 62.980,196.400 63.200 C 196.400 63.420,197.120 63.600,198.000 63.600 C 198.880 63.600,199.600 63.780,199.600 64.000 C 199.600 64.220,200.320 64.400,201.200 64.400 L 202.800 64.400 202.800 126.600 C 202.800 167.800,202.935 188.800,203.200 188.800 C 203.420 188.800,203.600 189.165,203.600 189.611 C 203.600 191.623,209.203 195.600,212.038 195.600 C 213.876 195.600,213.921 195.716,212.600 197.036 C 212.050 197.586,211.600 198.180,211.600 198.356 C 211.600 198.532,211.139 199.199,210.577 199.838 C 210.014 200.477,209.267 201.540,208.917 202.200 C 208.568 202.860,207.948 203.691,207.541 204.047 C 207.133 204.403,206.800 204.916,206.800 205.186 C 206.800 205.457,206.260 206.183,205.600 206.800 C 204.940 207.417,204.400 208.079,204.400 208.272 C 204.400 208.465,204.040 208.883,203.600 209.200 C 203.160 209.517,202.800 210.007,202.800 210.288 C 202.800 210.570,202.620 210.800,202.400 210.800 C 202.180 210.800,202.000 210.982,202.000 211.204 C 202.000 211.426,201.460 212.172,200.800 212.863 C 200.140 213.554,199.600 214.274,199.600 214.463 C 199.600 214.652,199.060 215.372,198.400 216.063 C 197.740 216.754,197.200 217.472,197.200 217.658 C 197.200 218.339,194.307 221.007,194.119 220.500 C 194.017 220.225,193.599 220.000,193.190 220.000 C 192.782 220.000,192.336 219.820,192.200 219.600 C 192.064 219.380,191.423 219.200,190.776 219.200 C 190.129 219.200,189.600 219.020,189.600 218.800 C 189.600 218.580,188.801 218.400,187.824 218.400 C 186.847 218.400,185.936 218.220,185.800 218.000 C 185.664 217.780,184.483 217.600,183.176 217.600 C 181.067 217.600,180.800 217.510,180.800 216.800 C 180.800 216.360,180.980 216.000,181.200 216.000 C 181.422 216.000,181.600 214.933,181.600 213.600 C 181.600 212.267,181.778 211.200,182.000 211.200 C 182.220 211.200,182.400 210.221,182.400 209.024 C 182.400 207.827,182.580 206.736,182.800 206.600 C 183.020 206.464,183.200 205.474,183.200 204.400 C 183.200 203.326,183.380 202.336,183.600 202.200 C 183.820 202.064,184.000 200.883,184.000 199.576 C 184.000 198.269,184.165 197.200,184.366 197.200 C 184.567 197.200,184.833 196.075,184.956 194.700 C 185.475 188.906,185.690 187.380,186.035 187.020 C 186.236 186.811,186.400 185.542,186.400 184.200 C 186.400 182.858,186.565 181.589,186.768 181.380 C 186.970 181.171,187.237 179.830,187.361 178.400 C 187.485 176.970,187.687 174.630,187.810 173.200 C 187.933 171.770,188.199 170.240,188.402 169.800 C 188.605 169.360,188.861 167.740,188.971 166.200 C 189.081 164.660,189.363 161.870,189.596 160.000 C 190.691 151.239,191.545 141.268,191.575 136.900 C 191.590 134.717,191.764 133.200,192.000 133.200 C 192.248 133.200,192.400 131.075,192.400 127.624 C 192.400 124.337,192.564 121.946,192.800 121.800 C 193.053 121.644,193.200 116.863,193.200 108.776 C 193.200 100.525,193.058 96.000,192.800 96.000 C 192.567 96.000,192.400 94.667,192.400 92.800 C 192.400 91.040,192.254 89.600,192.075 89.600 C 191.896 89.600,191.554 87.935,191.315 85.900 C 191.076 83.865,190.672 81.390,190.416 80.400 C 190.160 79.410,189.851 78.105,189.730 77.500 C 189.609 76.895,189.350 76.400,189.155 76.400 C 188.960 76.400,188.800 75.860,188.800 75.200 C 188.800 74.540,188.620 74.000,188.400 74.000 C 188.180 74.000,188.000 73.561,188.000 73.024 C 188.000 72.487,187.820 71.936,187.600 71.800 C 187.380 71.664,187.200 71.203,187.200 70.776 C 187.200 70.349,187.020 70.000,186.800 70.000 C 186.580 70.000,186.400 69.728,186.400 69.395 C 186.400 69.062,186.240 68.477,186.044 68.095 C 185.848 67.713,185.280 66.545,184.781 65.500 C 184.282 64.455,183.723 63.600,183.537 63.600 C 183.352 63.600,183.200 63.240,183.200 62.800 C 183.200 62.360,183.064 62.000,182.898 62.000 C 182.731 62.000,182.365 61.480,182.084 60.845 C 181.803 60.210,181.039 59.132,180.386 58.449 C 179.734 57.766,179.200 57.008,179.200 56.764 C 179.200 56.520,178.660 55.817,178.000 55.200 C 177.340 54.583,176.800 53.876,176.800 53.628 C 176.800 53.380,176.215 52.550,175.500 51.784 C 171.820 47.841,169.953 46.007,168.549 44.958 C 167.697 44.321,166.552 43.395,166.004 42.900 C 165.456 42.405,164.731 42.000,164.392 42.000 C 164.054 42.000,163.517 41.640,163.200 41.200 C 162.883 40.760,162.343 40.400,162.000 40.400 C 161.657 40.400,161.117 40.040,160.800 39.600 C 160.483 39.160,159.903 38.800,159.512 38.800 C 159.120 38.800,158.800 38.654,158.800 38.475 C 158.800 38.296,158.170 37.902,157.400 37.600 C 156.630 37.298,156.000 36.904,156.000 36.725 C 156.000 36.546,155.640 36.400,155.200 36.400 C 154.760 36.400,154.400 36.220,154.400 36.000 C 154.400 35.780,154.040 35.600,153.600 35.600 C 153.160 35.600,152.800 35.420,152.800 35.200 C 152.800 34.980,152.440 34.800,152.000 34.800 C 151.560 34.800,151.200 34.620,151.200 34.400 C 151.200 34.180,150.851 34.000,150.424 34.000 C 149.997 34.000,149.536 33.820,149.400 33.600 C 149.264 33.380,148.713 33.200,148.176 33.200 C 147.639 33.200,147.200 33.020,147.200 32.800 C 147.200 32.580,146.660 32.400,146.000 32.400 C 145.340 32.400,144.800 32.220,144.800 32.000 C 144.800 31.780,144.260 31.600,143.600 31.600 C 142.940 31.600,142.400 31.420,142.400 31.200 C 142.400 30.980,141.871 30.800,141.224 30.800 C 140.577 30.800,139.936 30.620,139.800 30.400 C 139.664 30.180,139.034 30.000,138.400 30.000 C 137.766 30.000,137.136 29.820,137.000 29.600 C 136.864 29.380,135.953 29.200,134.976 29.200 C 133.999 29.200,133.200 29.037,133.200 28.837 C 133.200 28.491,131.543 28.240,126.200 27.775 C 124.880 27.661,123.440 27.397,123.000 27.189 C 122.560 26.982,119.590 26.728,116.400 26.625 C 113.210 26.522,109.340 26.328,107.800 26.193 C 106.101 26.044,104.843 26.108,104.600 26.354 M388.000 48.400 L 388.000 51.200 296.200 51.200 L 204.400 51.200 204.400 48.400 L 204.400 45.600 296.200 45.600 L 388.000 45.600 388.000 48.400 M376.000 123.400 L 376.000 182.400 308.600 182.400 C 266.073 182.400,241.200 182.259,241.200 182.018 C 241.200 181.808,241.650 181.186,242.200 180.636 C 242.750 180.086,243.200 179.430,243.200 179.179 C 243.200 178.927,243.740 178.217,244.400 177.600 C 245.060 176.983,245.600 176.263,245.600 176.000 C 245.600 175.737,246.140 175.017,246.800 174.400 C 247.460 173.783,248.000 173.170,248.000 173.036 C 248.000 172.902,248.540 172.228,249.200 171.537 C 249.860 170.846,250.400 170.104,250.400 169.888 C 250.400 169.671,250.784 169.161,251.253 168.754 C 252.226 167.910,252.565 161.588,251.653 161.284 C 251.404 161.201,251.200 160.876,251.200 160.561 C 251.200 160.246,250.615 159.632,249.900 159.196 C 247.200 157.549,240.400 158.562,240.400 160.611 C 240.400 160.758,239.860 161.383,239.200 162.000 C 238.540 162.617,238.000 163.337,238.000 163.600 C 238.000 163.863,237.460 164.583,236.800 165.200 C 236.140 165.817,235.600 166.537,235.600 166.800 C 235.600 167.063,235.060 167.783,234.400 168.400 C 233.740 169.017,233.200 169.737,233.200 170.000 C 233.200 170.263,232.660 170.983,232.000 171.600 C 231.340 172.217,230.800 172.892,230.800 173.101 C 230.800 173.310,230.260 174.046,229.600 174.737 C 228.940 175.428,228.400 176.174,228.400 176.396 C 228.400 176.618,228.256 176.800,228.080 176.800 C 227.904 176.800,227.275 177.565,226.682 178.500 C 224.238 182.356,224.161 182.400,219.853 182.400 L 216.000 182.400 216.000 123.400 L 216.000 64.400 296.000 64.400 L 376.000 64.400 376.000 123.400 M135.800 92.000 C 135.936 92.220,136.447 92.400,136.935 92.400 C 137.424 92.400,138.083 92.760,138.400 93.200 C 138.717 93.640,139.221 94.000,139.520 94.000 C 139.998 94.000,140.821 94.787,143.996 98.286 C 144.438 98.773,144.800 99.448,144.800 99.786 C 144.800 100.124,144.936 100.400,145.102 100.400 C 145.269 100.400,145.640 100.985,145.929 101.700 C 146.217 102.415,146.621 103.313,146.826 103.695 C 147.032 104.077,147.200 105.022,147.200 105.795 C 147.200 106.568,147.380 107.200,147.600 107.200 C 147.862 107.200,148.000 114.859,148.000 129.376 C 148.000 143.729,147.859 151.640,147.600 151.800 C 147.380 151.936,147.200 153.297,147.200 154.824 C 147.200 156.408,147.028 157.600,146.800 157.600 C 146.580 157.600,146.400 158.219,146.400 158.976 C 146.400 159.733,146.220 160.464,146.000 160.600 C 145.780 160.736,145.600 161.287,145.600 161.824 C 145.600 162.361,145.420 162.800,145.200 162.800 C 144.980 162.800,144.800 163.012,144.800 163.270 C 144.800 164.002,141.874 170.000,141.518 170.000 C 141.343 170.000,141.200 170.320,141.200 170.712 C 141.200 171.103,140.840 171.683,140.400 172.000 C 139.960 172.317,139.600 172.792,139.600 173.054 C 139.600 173.317,139.039 174.042,138.353 174.666 C 137.668 175.290,136.322 176.565,135.364 177.500 C 134.405 178.435,133.386 179.200,133.099 179.200 C 132.812 179.200,132.317 179.560,132.000 180.000 C 131.683 180.440,131.227 180.800,130.987 180.800 C 130.747 180.800,130.202 181.125,129.775 181.522 C 129.349 181.920,128.415 182.503,127.700 182.820 C 126.985 183.136,126.400 183.531,126.400 183.698 C 126.400 183.864,126.040 184.000,125.600 184.000 C 125.160 184.000,124.800 184.180,124.800 184.400 C 124.800 184.620,124.361 184.800,123.824 184.800 C 123.287 184.800,122.736 184.980,122.600 185.200 C 122.464 185.420,122.003 185.600,121.576 185.600 C 121.149 185.600,120.800 185.780,120.800 186.000 C 120.800 186.220,120.080 186.400,119.200 186.400 C 118.320 186.400,117.600 186.580,117.600 186.800 C 117.600 187.031,116.341 187.200,114.624 187.200 C 112.987 187.200,111.536 187.380,111.400 187.600 C 111.262 187.823,109.396 188.000,107.176 188.000 C 104.792 188.000,103.200 187.840,103.200 187.600 C 103.200 187.369,101.933 187.200,100.200 187.200 C 98.467 187.200,97.200 187.031,97.200 186.800 C 97.200 186.580,96.480 186.400,95.600 186.400 C 94.720 186.400,94.000 186.220,94.000 186.000 C 94.000 185.780,93.460 185.600,92.800 185.600 C 92.140 185.600,91.600 185.420,91.600 185.200 C 91.600 184.980,91.240 184.800,90.800 184.800 C 90.360 184.800,90.000 184.620,90.000 184.400 C 90.000 184.180,89.640 184.000,89.200 184.000 C 88.760 184.000,88.400 183.854,88.400 183.675 C 88.400 183.496,87.770 183.102,87.000 182.800 C 86.230 182.498,85.600 182.104,85.600 181.925 C 85.600 181.746,85.328 181.600,84.996 181.600 C 84.664 181.600,83.828 181.060,83.137 180.400 C 82.446 179.740,81.723 179.200,81.530 179.200 C 81.337 179.200,80.410 178.435,79.470 177.500 C 78.530 176.565,77.186 175.350,76.484 174.800 C 75.782 174.250,75.206 173.567,75.204 173.283 C 75.202 172.999,74.975 172.498,74.700 172.169 C 73.660 170.927,73.380 170.543,72.675 169.388 C 72.277 168.735,71.851 167.885,71.729 167.500 C 71.607 167.115,71.348 166.800,71.153 166.800 C 70.959 166.800,70.800 166.440,70.800 166.000 C 70.800 165.560,70.620 165.200,70.400 165.200 C 70.180 165.200,70.000 164.838,70.000 164.395 C 70.000 163.952,69.820 163.232,69.600 162.795 C 69.380 162.358,69.020 161.642,68.800 161.205 C 68.580 160.768,68.400 159.958,68.400 159.405 C 68.400 158.852,68.220 158.400,68.000 158.400 C 67.778 158.400,67.600 157.333,67.600 156.000 C 67.600 154.667,67.422 153.600,67.200 153.600 C 66.980 153.600,66.800 152.597,66.800 151.371 C 66.800 149.078,67.366 148.000,68.571 148.000 C 68.917 148.000,69.200 147.820,69.200 147.600 C 69.200 147.380,69.560 147.200,70.000 147.200 C 70.440 147.200,70.800 147.020,70.800 146.800 C 70.800 146.580,71.160 146.400,71.600 146.400 C 72.040 146.400,72.400 146.254,72.400 146.075 C 72.400 145.896,73.030 145.502,73.800 145.200 C 74.570 144.898,75.200 144.504,75.200 144.325 C 75.200 144.146,75.560 144.000,76.000 144.000 C 76.440 144.000,76.800 143.820,76.800 143.600 C 76.800 143.380,77.120 143.200,77.512 143.200 C 77.903 143.200,78.483 142.840,78.800 142.400 C 79.117 141.960,79.601 141.600,79.875 141.600 C 80.619 141.600,83.200 140.301,83.200 139.926 C 83.200 139.747,83.560 139.600,84.000 139.600 C 84.440 139.600,84.800 139.420,84.800 139.200 C 84.800 138.980,85.036 138.800,85.325 138.800 C 85.613 138.800,86.198 138.485,86.625 138.100 C 87.051 137.715,87.895 137.145,88.500 136.832 C 89.105 136.520,89.600 136.115,89.600 135.932 C 89.600 135.750,89.830 135.600,90.112 135.600 C 90.393 135.600,90.883 135.240,91.200 134.800 C 91.517 134.360,92.057 134.000,92.400 134.000 C 92.743 134.000,93.283 133.640,93.600 133.200 C 93.917 132.760,94.385 132.400,94.640 132.400 C 94.895 132.400,95.845 131.680,96.752 130.800 C 97.659 129.920,98.598 129.200,98.840 129.200 C 99.081 129.200,99.783 128.660,100.400 128.000 C 101.017 127.340,101.719 126.800,101.960 126.800 C 102.202 126.800,102.400 126.620,102.400 126.400 C 102.400 126.180,102.582 126.000,102.804 126.000 C 103.026 126.000,103.791 125.438,104.504 124.752 C 105.217 124.065,106.425 123.030,107.189 122.452 C 108.780 121.246,121.139 108.990,122.017 107.746 C 122.338 107.292,123.545 105.873,124.700 104.591 C 125.855 103.310,126.800 102.113,126.800 101.931 C 126.800 101.749,127.520 100.859,128.400 99.952 C 129.280 99.045,130.000 98.144,130.000 97.948 C 130.000 97.753,130.540 97.028,131.200 96.337 C 131.860 95.646,132.400 94.878,132.400 94.629 C 132.400 94.380,132.760 93.917,133.200 93.600 C 133.640 93.283,134.000 92.703,134.000 92.312 C 134.000 91.543,135.371 91.306,135.800 92.000 M165.200 125.600 C 165.200 125.820,165.920 126.000,166.800 126.000 C 167.680 126.000,168.400 126.180,168.400 126.400 C 168.400 126.620,168.676 126.800,169.013 126.800 C 169.351 126.800,170.251 127.424,171.013 128.187 C 171.776 128.949,172.400 129.849,172.400 130.187 C 172.400 130.524,172.580 130.800,172.800 130.800 C 173.020 130.800,173.200 131.239,173.200 131.776 C 173.200 132.313,173.380 132.864,173.600 133.000 C 173.820 133.136,174.000 133.777,174.000 134.424 C 174.000 135.071,173.820 135.600,173.600 135.600 C 173.380 135.600,173.200 136.100,173.200 136.712 C 173.200 137.365,172.870 138.061,172.400 138.400 C 171.960 138.717,171.600 139.297,171.600 139.688 C 171.600 140.080,171.364 140.400,171.075 140.400 C 170.787 140.400,170.123 140.798,169.601 141.285 C 168.796 142.035,168.083 142.194,164.926 142.332 L 161.200 142.495 161.200 133.848 L 161.200 125.200 163.200 125.200 C 164.300 125.200,165.200 125.380,165.200 125.600 M176.621 154.300 C 176.253 156.365,175.747 161.109,175.147 168.100 C 174.869 171.345,174.497 174.000,174.321 174.000 C 174.144 174.000,174.000 175.249,174.000 176.776 C 174.000 178.303,173.820 179.664,173.600 179.800 C 173.380 179.936,173.200 181.196,173.200 182.600 C 173.200 184.004,173.020 185.264,172.800 185.400 C 172.580 185.536,172.400 186.717,172.400 188.024 C 172.400 189.341,172.222 190.400,172.000 190.400 C 171.778 190.400,171.600 191.459,171.600 192.776 C 171.600 194.083,171.420 195.264,171.200 195.400 C 170.980 195.536,170.800 196.717,170.800 198.024 C 170.800 199.341,170.622 200.400,170.400 200.400 C 170.180 200.400,170.000 201.379,170.000 202.576 C 170.000 203.773,169.820 204.864,169.600 205.000 C 169.380 205.136,169.200 206.137,169.200 207.224 C 169.200 208.311,169.020 209.200,168.800 209.200 C 168.580 209.200,168.400 210.190,168.400 211.400 C 168.400 212.610,168.220 213.600,168.000 213.600 C 167.780 213.600,167.600 214.500,167.600 215.600 L 167.600 217.600 151.600 217.600 L 135.600 217.600 135.600 205.971 C 135.600 193.541,135.535 193.950,137.700 192.832 C 138.305 192.520,138.800 192.115,138.800 191.932 C 138.800 191.750,139.025 191.597,139.300 191.594 C 139.575 191.590,140.610 190.873,141.600 190.000 C 142.590 189.127,143.523 188.410,143.673 188.406 C 144.114 188.396,147.735 184.724,148.807 183.200 C 149.348 182.430,150.288 181.278,150.896 180.641 C 151.503 180.003,152.000 179.321,152.000 179.124 C 152.000 178.927,152.360 178.380,152.800 177.908 C 153.240 177.436,153.600 176.813,153.600 176.525 C 153.600 176.236,153.780 176.000,154.000 176.000 C 154.220 176.000,154.400 175.655,154.400 175.233 C 154.400 174.812,154.541 174.407,154.714 174.333 C 155.240 174.110,158.000 168.197,158.000 167.294 C 158.000 166.828,158.180 166.336,158.400 166.200 C 158.620 166.064,158.800 165.243,158.800 164.376 C 158.800 163.509,158.980 162.800,159.200 162.800 C 159.420 162.800,159.600 162.080,159.600 161.200 C 159.600 160.320,159.780 159.600,160.000 159.600 C 160.220 159.600,160.400 158.790,160.400 157.800 L 160.400 156.000 165.176 156.000 C 167.929 156.000,170.058 155.831,170.200 155.600 C 170.336 155.380,170.851 155.200,171.344 155.200 C 172.379 155.200,174.392 154.343,174.397 153.900 C 174.399 153.735,174.760 153.600,175.200 153.600 C 175.640 153.600,176.000 153.420,176.000 153.200 C 176.000 152.980,176.200 152.800,176.444 152.800 C 176.737 152.800,176.797 153.308,176.621 154.300 M93.200 154.000 C 93.200 154.220,92.840 154.400,92.400 154.400 C 91.960 154.400,91.600 154.580,91.600 154.800 C 91.600 155.020,91.330 155.200,91.000 155.200 C 90.667 155.200,90.400 155.556,90.400 156.000 C 90.400 156.440,90.220 156.800,90.000 156.800 C 89.780 156.800,89.600 157.160,89.600 157.600 C 89.600 158.040,89.420 158.400,89.200 158.400 C 88.980 158.400,88.800 159.210,88.800 160.200 C 88.800 161.190,88.980 162.000,89.200 162.000 C 89.420 162.000,89.600 162.272,89.600 162.605 C 89.600 163.475,90.451 164.873,91.543 165.800 C 92.062 166.240,92.962 167.005,93.543 167.500 C 94.125 167.994,94.825 168.399,95.100 168.400 C 95.375 168.400,95.600 168.580,95.600 168.800 C 95.600 169.020,95.960 169.200,96.400 169.200 C 96.840 169.200,97.200 169.380,97.200 169.600 C 97.200 169.820,97.740 170.000,98.400 170.000 C 99.060 170.000,99.600 170.180,99.600 170.400 C 99.600 170.620,100.500 170.800,101.600 170.800 C 102.700 170.800,103.600 170.980,103.600 171.200 C 103.600 171.439,105.133 171.600,107.400 171.600 C 109.667 171.600,111.200 171.439,111.200 171.200 C 111.200 170.980,112.100 170.800,113.200 170.800 C 114.300 170.800,115.200 170.620,115.200 170.400 C 115.200 170.180,115.639 170.000,116.176 170.000 C 116.713 170.000,117.264 169.820,117.400 169.600 C 117.536 169.380,117.997 169.200,118.424 169.200 C 118.851 169.200,119.200 169.050,119.200 168.868 C 119.200 168.685,119.695 168.280,120.300 167.968 C 120.905 167.656,122.255 166.565,123.300 165.543 L 125.200 163.686 125.200 160.286 C 125.200 156.708,124.039 154.400,122.240 154.400 C 121.888 154.400,121.600 154.220,121.600 154.000 C 121.600 153.778,120.533 153.600,119.200 153.600 C 117.867 153.600,116.800 153.778,116.800 154.000 C 116.800 154.220,116.440 154.400,116.000 154.400 C 115.560 154.400,115.200 154.550,115.200 154.732 C 115.200 154.915,114.705 155.320,114.100 155.632 C 113.495 155.945,112.651 156.515,112.225 156.900 C 111.798 157.285,111.033 157.600,110.525 157.600 C 110.016 157.600,109.600 157.780,109.600 158.000 C 109.600 158.220,108.610 158.400,107.400 158.400 C 106.190 158.400,105.200 158.220,105.200 158.000 C 105.200 157.780,104.660 157.600,104.000 157.600 C 103.340 157.600,102.800 157.450,102.800 157.268 C 102.800 157.085,102.305 156.681,101.700 156.370 C 101.095 156.060,100.309 155.489,99.953 155.103 C 99.597 154.716,99.012 154.400,98.653 154.400 C 98.294 154.400,98.000 154.220,98.000 154.000 C 98.000 153.778,96.933 153.600,95.600 153.600 C 94.267 153.600,93.200 153.778,93.200 154.000 M95.000 200.000 C 95.136 200.220,96.756 200.400,98.600 200.400 C 100.444 200.400,102.064 200.580,102.200 200.800 C 102.343 201.032,104.530 201.200,107.400 201.200 C 110.270 201.200,112.457 201.032,112.600 200.800 C 112.736 200.580,114.356 200.400,116.200 200.400 C 118.044 200.400,119.664 200.220,119.800 200.000 C 119.936 199.780,120.577 199.600,121.224 199.600 L 122.400 199.600 122.400 208.600 L 122.400 217.600 107.400 217.600 L 92.400 217.600 92.400 208.600 L 92.400 199.600 93.576 199.600 C 94.223 199.600,94.864 199.780,95.000 200.000 M298.800 215.502 C 298.800 215.669,299.340 216.044,300.000 216.336 C 300.731 216.659,301.200 217.167,301.200 217.634 C 301.200 218.055,301.380 218.400,301.600 218.400 C 301.820 218.400,302.000 218.760,302.000 219.200 C 302.000 219.640,302.180 220.000,302.400 220.000 C 302.620 220.000,302.800 220.360,302.800 220.800 C 302.800 221.240,302.620 221.600,302.400 221.600 C 302.180 221.600,302.000 222.071,302.000 222.647 C 302.000 223.807,299.870 225.983,298.724 225.994 C 298.352 225.997,297.936 226.180,297.800 226.400 C 297.118 227.503,292.218 225.426,291.587 223.767 C 289.947 219.452,292.458 215.200,296.648 215.200 C 297.832 215.200,298.800 215.336,298.800 215.502 M59.900 232.803 C 60.615 233.896,61.200 234.973,61.200 235.195 C 61.200 235.418,61.341 235.600,61.514 235.600 C 61.686 235.600,62.149 236.145,62.543 236.811 C 62.936 237.477,63.695 238.459,64.229 238.993 C 64.763 239.527,65.200 240.064,65.200 240.187 C 65.200 240.659,72.817 248.000,73.307 248.000 C 73.591 248.000,74.083 248.360,74.400 248.800 C 74.717 249.240,75.124 249.600,75.305 249.600 C 75.486 249.600,76.020 249.960,76.492 250.400 C 76.964 250.840,77.587 251.200,77.875 251.200 C 78.164 251.200,78.400 251.380,78.400 251.600 C 78.400 251.820,78.760 252.000,79.200 252.000 C 79.640 252.000,80.000 252.180,80.000 252.400 C 80.000 252.620,80.439 252.800,80.976 252.800 C 81.513 252.800,82.064 252.980,82.200 253.200 C 82.336 253.420,82.977 253.600,83.624 253.600 C 84.271 253.600,84.800 253.780,84.800 254.000 C 84.800 254.243,86.600 254.400,89.400 254.400 C 92.200 254.400,94.000 254.243,94.000 254.000 C 94.000 253.780,94.619 253.600,95.376 253.600 C 96.133 253.600,96.864 253.420,97.000 253.200 C 97.136 252.980,97.597 252.800,98.024 252.800 C 98.451 252.800,98.800 252.620,98.800 252.400 C 98.800 252.180,99.094 252.000,99.453 252.000 C 99.812 252.000,100.397 251.676,100.753 251.281 C 101.109 250.886,102.030 250.129,102.800 249.600 C 104.336 248.544,105.999 246.802,106.000 246.247 C 106.000 246.053,106.356 245.585,106.790 245.209 C 107.225 244.832,107.739 244.094,107.933 243.569 C 108.275 242.644,108.328 242.675,109.643 244.566 C 111.403 247.096,114.598 250.400,115.286 250.400 C 115.581 250.400,116.083 250.760,116.400 251.200 C 116.717 251.640,117.297 252.000,117.688 252.000 C 118.080 252.000,118.400 252.180,118.400 252.400 C 118.400 252.620,118.760 252.800,119.200 252.800 C 119.640 252.800,120.000 252.980,120.000 253.200 C 120.000 253.420,120.529 253.600,121.176 253.600 C 121.823 253.600,122.464 253.780,122.600 254.000 C 122.741 254.229,124.796 254.400,127.400 254.400 C 130.004 254.400,132.059 254.229,132.200 254.000 C 132.336 253.780,132.977 253.600,133.624 253.600 C 134.271 253.600,134.800 253.420,134.800 253.200 C 134.800 252.980,135.143 252.800,135.562 252.800 C 136.460 252.800,139.466 251.301,140.575 250.300 C 141.002 249.915,141.515 249.600,141.715 249.600 C 141.915 249.600,142.583 249.060,143.200 248.400 C 143.817 247.740,144.505 247.200,144.730 247.200 C 145.467 247.200,153.600 238.673,153.600 237.901 C 153.600 237.731,154.140 237.028,154.800 236.337 C 155.460 235.646,156.000 234.838,156.000 234.541 C 156.000 234.243,156.153 234.000,156.339 234.000 C 156.526 234.000,157.003 233.280,157.400 232.400 L 158.121 230.800 171.061 230.800 C 179.420 230.800,184.000 230.942,184.000 231.200 C 184.000 231.420,184.540 231.600,185.200 231.600 C 185.860 231.600,186.400 231.780,186.400 232.000 C 186.400 232.220,186.220 232.400,186.000 232.400 C 185.780 232.400,185.600 232.643,185.600 232.941 C 185.600 233.238,185.060 234.046,184.400 234.737 C 183.740 235.428,183.200 236.148,183.200 236.337 C 183.200 236.526,182.660 237.246,182.000 237.937 C 181.340 238.628,180.800 239.348,180.800 239.537 C 180.800 239.726,180.301 240.404,179.690 241.043 C 179.080 241.682,177.687 243.463,176.596 245.002 C 175.506 246.541,174.295 248.149,173.906 248.575 C 173.518 249.002,173.200 249.499,173.200 249.679 C 173.200 249.860,172.660 250.572,172.000 251.263 C 171.340 251.954,170.800 252.690,170.800 252.899 C 170.800 253.108,170.260 253.783,169.600 254.400 C 168.940 255.017,168.400 255.809,168.400 256.160 C 168.400 256.533,168.066 256.800,167.600 256.800 C 167.160 256.800,166.800 256.620,166.800 256.400 C 166.800 256.180,166.440 256.000,166.000 256.000 C 165.560 256.000,165.200 255.820,165.200 255.600 C 165.200 255.380,164.660 255.200,164.000 255.200 C 163.340 255.200,162.800 255.020,162.800 254.800 C 162.800 254.580,161.900 254.400,160.800 254.400 C 159.700 254.400,158.800 254.220,158.800 254.000 C 158.800 253.765,157.400 253.600,155.400 253.600 C 153.400 253.600,152.000 253.765,152.000 254.000 C 152.000 254.220,151.201 254.400,150.224 254.400 C 149.247 254.400,148.336 254.580,148.200 254.800 C 148.064 255.020,147.513 255.200,146.976 255.200 C 146.439 255.200,146.000 255.380,146.000 255.600 C 146.000 255.820,145.728 256.000,145.395 256.000 C 144.623 256.000,143.196 256.799,142.357 257.700 C 141.999 258.085,141.482 258.400,141.207 258.400 C 140.599 258.400,136.653 260.481,136.467 260.900 C 136.393 261.065,135.988 261.200,135.567 261.200 C 135.145 261.200,134.800 261.380,134.800 261.600 C 134.800 261.820,134.564 262.000,134.275 262.000 C 133.987 262.000,133.364 262.360,132.892 262.800 C 132.420 263.240,131.756 263.600,131.417 263.600 C 131.078 263.600,130.800 263.780,130.800 264.000 C 130.800 264.220,130.440 264.400,130.000 264.400 C 129.560 264.400,129.200 264.580,129.200 264.800 C 129.200 265.020,128.930 265.200,128.600 265.200 C 128.270 265.200,128.000 265.380,128.000 265.600 C 128.000 265.820,127.730 266.000,127.400 266.000 C 127.070 266.000,126.800 266.180,126.800 266.400 C 126.800 266.620,126.530 266.800,126.200 266.800 C 125.870 266.800,125.600 266.980,125.600 267.200 C 125.600 267.420,125.240 267.600,124.800 267.600 C 124.360 267.600,124.000 267.780,124.000 268.000 C 124.000 268.220,123.680 268.400,123.288 268.400 C 122.897 268.400,122.317 268.760,122.000 269.200 C 121.683 269.640,121.103 270.000,120.712 270.000 C 120.320 270.000,120.000 270.180,120.000 270.400 C 120.000 270.620,119.640 270.800,119.200 270.800 C 118.760 270.800,118.400 270.980,118.400 271.200 C 118.400 271.420,118.130 271.600,117.800 271.600 C 117.470 271.600,117.200 271.780,117.200 272.000 C 117.200 272.220,116.930 272.400,116.600 272.400 C 116.270 272.400,116.000 272.580,116.000 272.800 C 116.000 273.020,115.640 273.200,115.200 273.200 C 114.760 273.200,114.400 273.380,114.400 273.600 C 114.400 273.820,114.040 274.000,113.600 274.000 C 113.160 274.000,112.798 274.135,112.797 274.300 C 112.795 274.465,111.445 275.318,109.797 276.197 C 108.148 277.075,106.800 277.930,106.800 278.097 C 106.800 278.263,106.440 278.400,106.000 278.400 C 105.560 278.400,105.200 278.580,105.200 278.800 C 105.200 279.020,104.922 279.200,104.583 279.200 C 104.244 279.200,103.580 279.560,103.108 280.000 C 102.636 280.440,102.013 280.800,101.725 280.800 C 101.436 280.800,101.200 280.980,101.200 281.200 C 101.200 281.420,100.840 281.600,100.400 281.600 C 99.960 281.600,99.600 281.759,99.600 281.953 C 99.600 282.148,99.285 282.407,98.900 282.529 C 97.964 282.825,95.834 284.124,95.667 284.500 C 95.593 284.665,95.188 284.800,94.767 284.800 C 94.345 284.800,94.000 284.980,94.000 285.200 C 94.000 285.420,93.770 285.600,93.488 285.600 C 93.207 285.600,92.717 285.960,92.400 286.400 C 92.083 286.840,91.503 287.200,91.112 287.200 C 90.720 287.200,90.400 287.380,90.400 287.600 C 90.400 287.820,90.040 288.000,89.600 288.000 C 89.160 288.000,88.800 288.180,88.800 288.400 C 88.800 288.620,88.480 288.800,88.088 288.800 C 87.697 288.800,87.117 289.160,86.800 289.600 C 86.483 290.040,85.903 290.400,85.512 290.400 C 85.120 290.400,84.800 290.580,84.800 290.800 C 84.800 291.020,84.455 291.200,84.033 291.200 C 83.612 291.200,83.207 291.335,83.133 291.500 C 83.060 291.665,81.605 292.504,79.900 293.365 C 78.195 294.226,76.800 295.081,76.800 295.265 C 76.800 295.449,76.530 295.600,76.200 295.600 C 75.870 295.600,75.600 295.780,75.600 296.000 C 75.600 296.220,75.240 296.400,74.800 296.400 C 74.360 296.400,74.000 296.580,74.000 296.800 C 74.000 297.020,73.680 297.200,73.288 297.200 C 72.897 297.200,72.317 297.560,72.000 298.000 C 71.683 298.440,71.103 298.800,70.712 298.800 C 70.320 298.800,70.000 298.980,70.000 299.200 C 70.000 299.420,69.640 299.600,69.200 299.600 C 68.760 299.600,68.400 299.780,68.400 300.000 C 68.400 300.220,68.164 300.400,67.875 300.400 C 67.587 300.400,66.964 300.760,66.492 301.200 C 66.020 301.640,65.356 302.000,65.017 302.000 C 64.678 302.000,64.400 302.180,64.400 302.400 C 64.400 302.620,64.122 302.800,63.783 302.800 C 63.444 302.800,62.780 303.160,62.308 303.600 C 61.836 304.040,61.213 304.400,60.925 304.400 C 60.636 304.400,60.400 304.536,60.400 304.702 C 60.400 304.869,59.815 305.264,59.100 305.580 C 58.385 305.897,57.451 306.480,57.025 306.878 C 56.598 307.275,56.013 307.600,55.725 307.600 C 55.436 307.600,55.200 307.780,55.200 308.000 C 55.200 308.220,54.936 308.400,54.614 308.400 C 53.801 308.400,51.200 309.676,51.200 310.074 C 51.200 310.253,50.840 310.400,50.400 310.400 C 49.960 310.400,49.600 310.580,49.600 310.800 C 49.600 311.020,49.420 311.200,49.200 311.200 C 48.947 311.200,48.800 308.275,48.800 303.224 C 48.800 298.337,48.645 295.151,48.400 295.000 C 48.180 294.864,48.000 294.223,48.000 293.576 C 48.000 292.929,47.820 292.400,47.600 292.400 C 47.380 292.400,47.200 292.207,47.200 291.971 C 47.200 291.334,46.147 290.400,45.429 290.400 C 45.083 290.400,44.800 290.220,44.800 290.000 C 44.800 289.769,43.533 289.600,41.800 289.600 C 40.067 289.600,38.800 289.769,38.800 290.000 C 38.800 290.220,38.517 290.400,38.171 290.400 C 37.826 290.400,37.331 290.632,37.071 290.915 C 35.637 292.484,35.600 292.957,35.600 309.808 L 35.600 326.427 36.987 327.813 C 37.749 328.576,38.649 329.200,38.987 329.200 C 39.324 329.200,39.600 329.380,39.600 329.600 C 39.600 329.820,40.590 330.000,41.800 330.000 C 43.010 330.000,44.000 329.820,44.000 329.600 C 44.000 329.380,44.360 329.200,44.800 329.200 C 45.240 329.200,45.600 329.020,45.600 328.800 C 45.600 328.580,45.960 328.400,46.400 328.400 C 46.840 328.400,47.200 328.220,47.200 328.000 C 47.200 327.780,47.520 327.600,47.912 327.600 C 48.303 327.600,48.883 327.240,49.200 326.800 C 49.517 326.360,50.097 326.000,50.488 326.000 C 50.880 326.000,51.200 325.820,51.200 325.600 C 51.200 325.380,51.474 325.200,51.808 325.200 C 52.142 325.200,53.087 324.781,53.908 324.269 C 54.729 323.757,55.985 323.083,56.700 322.771 C 57.415 322.460,58.000 322.090,58.000 321.951 C 58.000 321.811,58.540 321.473,59.200 321.200 C 59.860 320.927,60.400 320.545,60.400 320.351 C 60.400 320.158,60.760 320.000,61.200 320.000 C 61.640 320.000,62.000 319.820,62.000 319.600 C 62.000 319.380,62.278 319.200,62.617 319.200 C 62.956 319.200,63.620 318.840,64.092 318.400 C 64.564 317.960,65.187 317.600,65.475 317.600 C 65.764 317.600,66.000 317.420,66.000 317.200 C 66.000 316.980,66.360 316.800,66.800 316.800 C 67.240 316.800,67.600 316.620,67.600 316.400 C 67.600 316.180,67.836 316.000,68.125 316.000 C 68.413 316.000,69.036 315.640,69.508 315.200 C 69.980 314.760,70.644 314.400,70.983 314.400 C 71.322 314.400,71.600 314.264,71.600 314.098 C 71.600 313.931,72.185 313.540,72.900 313.228 C 73.615 312.916,74.491 312.332,74.847 311.930 C 75.203 311.529,75.788 311.200,76.147 311.200 C 76.506 311.200,76.800 311.020,76.800 310.800 C 76.800 310.580,77.145 310.400,77.567 310.400 C 77.988 310.400,78.393 310.265,78.467 310.100 C 78.648 309.692,80.602 308.566,82.900 307.545 C 83.945 307.081,84.800 306.544,84.800 306.351 C 84.800 306.158,85.160 306.000,85.600 306.000 C 86.040 306.000,86.400 305.854,86.400 305.675 C 86.400 305.496,87.030 305.102,87.800 304.800 C 88.570 304.498,89.200 304.104,89.200 303.925 C 89.200 303.746,89.470 303.600,89.800 303.600 C 90.130 303.600,90.400 303.420,90.400 303.200 C 90.400 302.980,90.670 302.800,91.000 302.800 C 91.330 302.800,91.600 302.620,91.600 302.400 C 91.600 302.180,91.960 302.000,92.400 302.000 C 92.840 302.000,93.200 301.820,93.200 301.600 C 93.200 301.380,93.436 301.200,93.725 301.200 C 94.013 301.200,94.636 300.840,95.108 300.400 C 95.580 299.960,96.244 299.600,96.583 299.600 C 96.922 299.600,97.200 299.420,97.200 299.200 C 97.200 298.980,97.478 298.800,97.817 298.800 C 98.156 298.800,98.820 298.440,99.292 298.000 C 99.764 297.560,100.387 297.200,100.675 297.200 C 100.964 297.200,101.200 297.020,101.200 296.800 C 101.200 296.580,101.560 296.400,102.000 296.400 C 102.440 296.400,102.800 296.220,102.800 296.000 C 102.800 295.780,103.036 295.600,103.325 295.600 C 103.613 295.600,104.236 295.240,104.708 294.800 C 105.180 294.360,105.844 294.000,106.183 294.000 C 106.522 294.000,106.800 293.820,106.800 293.600 C 106.800 293.380,107.070 293.200,107.400 293.200 C 107.730 293.200,108.000 293.020,108.000 292.800 C 108.000 292.580,108.360 292.400,108.800 292.400 C 109.240 292.400,109.600 292.254,109.600 292.075 C 109.600 291.896,110.455 291.362,111.500 290.887 C 113.812 289.838,115.753 288.705,115.933 288.300 C 116.007 288.135,116.412 288.000,116.833 288.000 C 117.255 288.000,117.600 287.820,117.600 287.600 C 117.600 287.380,117.780 287.200,118.000 287.200 C 118.220 287.200,118.400 287.560,118.400 288.000 C 118.400 288.440,118.580 288.800,118.800 288.800 C 119.020 288.800,119.200 289.070,119.200 289.400 C 119.200 289.730,119.380 290.000,119.600 290.000 C 119.820 290.000,120.000 290.236,120.000 290.525 C 120.000 290.813,120.360 291.436,120.800 291.908 C 121.240 292.380,121.600 293.044,121.600 293.383 C 121.600 293.722,121.780 294.000,122.000 294.000 C 122.220 294.000,122.400 294.320,122.400 294.712 C 122.400 295.103,122.760 295.683,123.200 296.000 C 123.640 296.317,124.000 296.897,124.000 297.288 C 124.000 297.680,124.180 298.000,124.400 298.000 C 124.620 298.000,124.800 298.242,124.800 298.539 C 124.800 299.099,125.960 301.651,126.374 302.000 C 126.504 302.110,127.047 303.065,127.580 304.122 C 128.113 305.180,128.697 306.136,128.877 306.248 C 129.337 306.532,128.192 307.600,127.429 307.600 C 127.083 307.600,126.798 307.735,126.796 307.900 C 126.794 308.065,125.984 308.555,124.996 308.990 C 124.008 309.424,123.200 309.919,123.200 310.090 C 123.200 310.260,122.840 310.400,122.400 310.400 C 121.960 310.400,121.600 310.559,121.600 310.753 C 121.600 310.948,121.285 311.207,120.900 311.329 C 120.213 311.546,117.994 312.805,117.600 313.201 C 117.490 313.311,116.925 313.646,116.344 313.945 C 115.763 314.244,115.067 314.963,114.797 315.544 C 114.527 316.125,114.148 316.913,113.953 317.295 C 113.469 318.246,113.506 321.600,114.000 321.600 C 114.220 321.600,114.400 321.960,114.400 322.400 C 114.400 322.840,114.580 323.200,114.800 323.200 C 115.020 323.200,115.200 323.437,115.200 323.726 C 115.200 326.781,127.021 325.876,128.333 322.721 C 128.407 322.544,128.812 322.400,129.233 322.400 C 129.655 322.400,130.000 322.220,130.000 322.000 C 130.000 321.780,130.236 321.600,130.525 321.600 C 130.813 321.600,131.436 321.240,131.908 320.800 C 132.380 320.360,133.044 320.000,133.383 320.000 C 133.722 320.000,134.000 319.820,134.000 319.600 C 134.000 319.380,134.360 319.200,134.800 319.200 C 135.240 319.200,135.600 319.020,135.600 318.800 C 135.600 318.580,135.836 318.400,136.125 318.400 C 136.413 318.400,137.036 318.040,137.508 317.600 C 137.980 317.160,138.644 316.800,138.983 316.800 C 139.322 316.800,139.600 316.620,139.600 316.400 C 139.600 316.180,139.870 316.000,140.200 316.000 C 140.530 316.000,140.800 315.820,140.800 315.600 C 140.800 315.380,141.036 315.200,141.325 315.200 C 141.613 315.200,142.236 314.840,142.708 314.400 C 143.180 313.960,143.844 313.600,144.183 313.600 C 144.522 313.600,144.800 313.420,144.800 313.200 C 144.800 312.980,145.078 312.800,145.417 312.800 C 145.756 312.800,146.420 312.440,146.892 312.000 C 147.364 311.560,147.987 311.200,148.275 311.200 C 148.564 311.200,148.800 311.020,148.800 310.800 C 148.800 310.580,149.160 310.400,149.600 310.400 C 150.040 310.400,150.400 310.220,150.400 310.000 C 150.400 309.780,150.760 309.600,151.200 309.600 C 151.640 309.600,152.000 309.455,152.000 309.278 C 152.000 309.101,153.350 308.262,155.000 307.413 C 156.650 306.564,158.000 305.719,158.000 305.535 C 158.000 305.351,158.360 305.200,158.800 305.200 C 159.240 305.200,159.600 305.020,159.600 304.800 C 159.600 304.580,159.960 304.400,160.400 304.400 C 160.840 304.400,161.200 304.242,161.200 304.049 C 161.200 303.855,161.740 303.473,162.400 303.200 C 163.060 302.927,163.600 302.545,163.600 302.351 C 163.600 302.158,163.960 302.000,164.400 302.000 C 164.840 302.000,165.200 301.820,165.200 301.600 C 165.200 301.380,165.478 301.200,165.817 301.200 C 166.156 301.200,166.820 300.840,167.292 300.400 C 167.764 299.960,168.387 299.600,168.675 299.600 C 168.964 299.600,169.200 299.420,169.200 299.200 C 169.200 298.980,169.470 298.800,169.800 298.800 C 170.130 298.800,170.400 298.620,170.400 298.400 C 170.400 298.180,170.594 298.000,170.831 298.000 C 171.240 298.000,173.122 296.170,175.100 293.850 C 175.595 293.269,176.000 292.525,176.000 292.197 C 176.000 291.869,176.180 291.600,176.400 291.600 C 176.620 291.600,176.800 291.330,176.800 291.000 C 176.800 290.670,176.980 290.400,177.200 290.400 C 177.420 290.400,177.600 290.040,177.600 289.600 C 177.600 289.160,177.780 288.800,178.000 288.800 C 178.220 288.800,178.400 288.440,178.400 288.000 C 178.400 287.560,178.580 287.200,178.800 287.200 C 179.020 287.200,179.200 286.581,179.200 285.824 C 179.200 285.067,179.380 284.336,179.600 284.200 C 180.139 283.867,180.139 272.400,179.600 272.400 C 179.380 272.400,179.200 271.871,179.200 271.224 C 179.200 270.577,179.020 269.936,178.800 269.800 C 178.580 269.664,178.400 269.113,178.400 268.576 C 178.400 268.039,178.220 267.600,178.000 267.600 C 177.780 267.600,177.600 267.240,177.600 266.800 C 177.600 266.360,177.750 266.000,177.932 266.000 C 178.115 266.000,178.520 265.508,178.832 264.907 C 179.145 264.306,179.895 263.289,180.500 262.648 C 181.105 262.006,181.600 261.304,181.600 261.088 C 181.600 260.871,181.917 260.403,182.303 260.047 C 182.690 259.691,183.815 258.320,184.802 257.000 C 185.790 255.680,186.697 254.510,186.818 254.400 C 186.939 254.290,187.475 253.570,188.008 252.800 C 188.542 252.030,189.313 251.040,189.723 250.600 C 190.133 250.160,190.749 249.260,191.093 248.600 C 191.437 247.940,192.052 247.109,192.459 246.753 C 192.867 246.397,193.200 245.884,193.200 245.614 C 193.200 245.343,193.740 244.617,194.400 244.000 C 195.060 243.383,195.600 242.689,195.600 242.458 C 195.600 240.426,198.736 239.877,198.787 241.900 C 198.794 242.175,198.980 242.400,199.200 242.400 C 199.420 242.400,199.600 242.760,199.600 243.200 C 199.600 243.640,199.780 244.000,200.000 244.000 C 200.220 244.000,200.400 244.360,200.400 244.800 C 200.400 245.240,200.580 245.600,200.800 245.600 C 201.020 245.600,201.200 246.140,201.200 246.800 C 201.200 247.460,201.380 248.000,201.600 248.000 C 201.865 248.000,202.000 265.600,202.000 300.000 L 202.000 352.000 190.600 352.000 L 179.200 352.000 179.200 334.600 C 179.200 323.267,179.061 317.200,178.800 317.200 C 178.580 317.200,178.400 317.012,178.400 316.782 C 178.400 316.140,176.514 314.400,175.818 314.400 C 175.478 314.400,175.200 314.220,175.200 314.000 C 175.200 313.250,170.962 313.554,169.337 314.421 C 167.898 315.190,166.800 316.686,166.800 317.880 C 166.800 318.166,166.620 318.400,166.400 318.400 C 166.140 318.400,166.000 324.267,166.000 335.200 L 166.000 352.000 122.200 352.000 C 93.267 352.000,78.400 351.864,78.400 351.600 C 78.400 351.380,78.760 351.200,79.200 351.200 C 79.640 351.200,80.000 351.020,80.000 350.800 C 80.000 350.580,80.236 350.400,80.525 350.400 C 80.813 350.400,81.436 350.040,81.908 349.600 C 82.380 349.160,83.044 348.800,83.383 348.800 C 83.722 348.800,84.000 348.620,84.000 348.400 C 84.000 348.180,84.278 348.000,84.617 348.000 C 84.956 348.000,85.620 347.640,86.092 347.200 C 86.564 346.760,87.187 346.400,87.475 346.400 C 87.764 346.400,88.000 346.220,88.000 346.000 C 88.000 345.780,88.360 345.600,88.800 345.600 C 89.240 345.600,89.600 345.420,89.600 345.200 C 89.600 344.980,89.788 344.800,90.017 344.800 C 90.246 344.800,90.820 344.440,91.292 344.000 C 91.764 343.560,92.387 343.200,92.675 343.200 C 92.964 343.200,93.200 343.020,93.200 342.800 C 93.200 342.580,93.560 342.400,94.000 342.400 C 94.440 342.400,94.800 342.220,94.800 342.000 C 94.800 341.780,95.147 341.600,95.571 341.600 C 95.996 341.600,96.613 341.330,96.943 341.000 C 97.273 340.670,97.826 340.400,98.171 340.400 C 98.517 340.400,98.800 340.220,98.800 340.000 C 98.800 339.780,99.025 339.600,99.300 339.600 C 99.938 339.599,101.650 338.059,102.300 336.901 C 102.575 336.411,102.800 334.712,102.800 333.125 L 102.800 330.239 100.980 328.519 C 98.705 326.370,92.024 326.058,92.003 328.100 C 92.001 328.265,91.640 328.400,91.200 328.400 C 90.760 328.400,90.400 328.558,90.400 328.751 C 90.400 328.945,89.860 329.327,89.200 329.600 C 88.540 329.873,88.000 330.255,88.000 330.449 C 88.000 330.642,87.640 330.800,87.200 330.800 C 86.760 330.800,86.400 330.980,86.400 331.200 C 86.400 331.420,86.122 331.600,85.783 331.600 C 85.444 331.600,84.780 331.960,84.308 332.400 C 83.836 332.840,83.213 333.200,82.925 333.200 C 82.636 333.200,82.400 333.380,82.400 333.600 C 82.400 333.820,82.040 334.000,81.600 334.000 C 81.160 334.000,80.800 334.180,80.800 334.400 C 80.800 334.620,80.564 334.800,80.275 334.800 C 79.987 334.800,79.364 335.160,78.892 335.600 C 78.420 336.040,77.756 336.400,77.417 336.400 C 77.078 336.400,76.800 336.580,76.800 336.800 C 76.800 337.020,76.530 337.200,76.200 337.200 C 75.870 337.200,75.600 337.380,75.600 337.600 C 75.600 337.820,75.280 338.000,74.888 338.000 C 74.497 338.000,73.917 338.360,73.600 338.800 C 73.283 339.240,72.703 339.600,72.312 339.600 C 71.920 339.600,71.600 339.780,71.600 340.000 C 71.600 340.220,71.240 340.400,70.800 340.400 C 70.360 340.400,70.000 340.539,70.000 340.710 C 70.000 340.880,68.560 341.719,66.800 342.575 C 65.040 343.431,63.600 344.282,63.600 344.466 C 63.600 344.650,63.240 344.800,62.800 344.800 C 62.360 344.800,62.000 344.936,62.000 345.102 C 62.000 345.269,61.494 345.629,60.875 345.903 C 60.256 346.176,59.364 346.760,58.892 347.200 C 58.420 347.640,57.756 348.000,57.417 348.000 C 57.078 348.000,56.800 348.180,56.800 348.400 C 56.800 348.620,56.440 348.800,56.000 348.800 C 55.560 348.800,55.200 348.980,55.200 349.200 C 55.200 349.420,54.964 349.600,54.675 349.600 C 54.387 349.600,53.764 349.960,53.292 350.400 C 52.820 350.840,52.156 351.200,51.817 351.200 C 51.478 351.200,51.200 351.380,51.200 351.600 C 51.200 351.820,50.922 352.000,50.583 352.000 C 50.244 352.000,49.580 352.360,49.108 352.800 C 48.636 353.240,48.013 353.600,47.725 353.600 C 47.436 353.600,47.200 353.780,47.200 354.000 C 47.200 354.220,46.840 354.400,46.400 354.400 C 45.960 354.400,45.600 354.580,45.600 354.800 C 45.600 355.020,45.364 355.200,45.075 355.200 C 44.787 355.200,44.164 355.560,43.692 356.000 C 43.220 356.440,42.646 356.800,42.417 356.800 C 42.188 356.800,42.000 356.980,42.000 357.200 C 42.000 357.420,41.640 357.600,41.200 357.600 C 40.760 357.600,40.400 357.780,40.400 358.000 C 40.400 358.220,40.112 358.400,39.760 358.400 C 39.409 358.400,38.554 358.657,37.860 358.971 C 35.691 359.953,28.556 360.716,27.878 360.038 C 27.637 359.797,26.915 359.600,26.274 359.600 C 24.666 359.600,21.137 358.348,20.353 357.500 C 19.997 357.115,19.502 356.800,19.253 356.800 C 19.004 356.800,18.800 356.620,18.800 356.400 C 18.800 356.180,18.596 356.000,18.347 356.000 C 17.876 356.000,16.400 354.485,16.400 354.001 C 16.400 353.849,15.950 353.201,15.400 352.562 C 14.851 351.923,14.401 351.175,14.400 350.900 C 14.400 350.625,14.220 350.400,14.000 350.400 C 13.780 350.400,13.600 349.860,13.600 349.200 C 13.600 348.540,13.420 348.000,13.200 348.000 C 12.980 348.000,12.800 347.010,12.800 345.800 C 12.800 344.590,12.620 343.600,12.400 343.600 C 11.847 343.600,11.847 253.742,12.400 253.400 C 12.620 253.264,12.800 252.004,12.800 250.600 C 12.800 249.196,12.980 247.936,13.200 247.800 C 13.420 247.664,13.600 247.124,13.600 246.600 C 13.600 246.076,13.780 245.536,14.000 245.400 C 14.220 245.264,14.400 244.713,14.400 244.176 C 14.400 243.639,14.580 243.200,14.800 243.200 C 15.020 243.200,15.200 242.964,15.200 242.675 C 15.200 242.387,15.560 241.764,16.000 241.292 C 16.440 240.820,16.800 240.332,16.800 240.208 C 16.800 239.804,21.171 235.600,21.591 235.600 C 21.816 235.600,22.000 235.420,22.000 235.200 C 22.000 234.980,22.270 234.800,22.600 234.800 C 22.930 234.800,23.200 234.620,23.200 234.400 C 23.200 234.180,23.470 234.000,23.800 234.000 C 24.130 234.000,24.400 233.820,24.400 233.600 C 24.400 233.380,24.760 233.200,25.200 233.200 C 25.640 233.200,26.000 233.020,26.000 232.800 C 26.000 232.580,26.360 232.400,26.800 232.400 C 27.240 232.400,27.600 232.220,27.600 232.000 C 27.600 231.780,28.320 231.600,29.200 231.600 C 30.080 231.600,30.800 231.420,30.800 231.200 C 30.800 230.941,35.695 230.803,44.700 230.807 L 58.600 230.814 59.900 232.803 M99.600 231.200 C 99.600 231.420,99.420 231.600,99.200 231.600 C 98.980 231.600,98.800 231.960,98.800 232.400 C 98.800 232.840,98.620 233.200,98.400 233.200 C 98.180 233.200,98.000 233.436,98.000 233.725 C 98.000 234.013,97.640 234.636,97.200 235.108 C 96.760 235.580,96.400 236.132,96.400 236.335 C 96.400 236.713,93.996 239.251,92.455 240.500 C 91.506 241.269,87.200 241.515,87.200 240.800 C 87.200 240.580,86.840 240.400,86.400 240.400 C 85.960 240.400,85.600 240.220,85.600 240.000 C 85.600 239.780,85.280 239.600,84.888 239.600 C 84.497 239.600,83.917 239.240,83.600 238.800 C 83.283 238.360,82.791 238.000,82.506 238.000 C 82.027 238.000,75.200 231.465,75.200 231.006 C 75.200 230.893,80.690 230.800,87.400 230.800 C 95.267 230.800,99.600 230.942,99.600 231.200 M141.200 231.407 C 141.200 232.081,136.255 237.200,135.604 237.200 C 135.378 237.200,134.628 237.740,133.937 238.400 C 133.246 239.060,132.438 239.600,132.141 239.600 C 131.843 239.600,131.600 239.780,131.600 240.000 C 131.600 240.220,131.150 240.400,130.600 240.400 C 130.050 240.400,129.600 240.580,129.600 240.800 C 129.600 241.020,128.610 241.200,127.400 241.200 C 126.190 241.200,125.200 241.020,125.200 240.800 C 125.200 240.580,125.008 240.400,124.774 240.400 C 124.166 240.400,120.504 236.558,120.200 235.602 C 120.061 235.161,119.778 234.800,119.573 234.800 C 119.368 234.800,119.200 234.440,119.200 234.000 C 119.200 233.560,119.020 233.200,118.800 233.200 C 118.580 233.200,118.400 232.840,118.400 232.400 C 118.400 231.960,118.220 231.600,118.000 231.600 C 117.780 231.600,117.600 231.420,117.600 231.200 C 117.600 230.942,121.800 230.800,129.400 230.800 C 139.686 230.800,141.200 230.878,141.200 231.407 M157.400 267.200 C 157.536 267.420,157.961 267.600,158.344 267.600 C 159.219 267.600,161.193 268.499,161.197 268.900 C 161.199 269.065,161.425 269.200,161.700 269.200 C 162.409 269.201,164.103 270.801,164.770 272.100 C 165.081 272.705,165.485 273.200,165.668 273.200 C 165.850 273.200,166.000 273.549,166.000 273.976 C 166.000 274.403,166.180 274.864,166.400 275.000 C 166.620 275.136,166.800 276.677,166.800 278.424 C 166.800 280.275,166.633 281.600,166.400 281.600 C 166.180 281.600,166.000 281.960,166.000 282.400 C 166.000 282.840,165.820 283.200,165.600 283.200 C 165.380 283.200,165.200 283.475,165.200 283.811 C 165.200 284.555,162.204 287.586,160.695 288.368 C 160.093 288.680,159.600 289.085,159.600 289.268 C 159.600 289.450,159.330 289.600,159.000 289.600 C 158.670 289.600,158.400 289.780,158.400 290.000 C 158.400 290.220,158.040 290.400,157.600 290.400 C 157.160 290.400,156.800 290.580,156.800 290.800 C 156.800 291.020,156.455 291.200,156.033 291.200 C 155.612 291.200,155.207 291.343,155.133 291.518 C 155.060 291.692,153.605 292.539,151.900 293.399 C 150.195 294.259,148.800 295.106,148.800 295.281 C 148.800 295.457,148.440 295.600,148.000 295.600 C 147.560 295.600,147.200 295.759,147.200 295.953 C 147.200 296.148,146.885 296.407,146.500 296.529 C 145.564 296.825,143.434 298.124,143.267 298.500 C 143.193 298.665,142.878 298.800,142.567 298.800 C 142.255 298.800,142.000 298.980,142.000 299.200 C 142.000 299.420,141.730 299.600,141.400 299.600 C 141.070 299.600,140.800 299.433,140.800 299.229 C 140.800 299.024,140.575 298.619,140.300 298.329 C 140.025 298.038,139.536 297.260,139.212 296.600 C 138.889 295.940,138.124 294.648,137.512 293.728 C 136.901 292.808,136.400 291.863,136.400 291.628 C 136.400 291.393,136.220 291.200,136.000 291.200 C 135.780 291.200,135.600 290.922,135.600 290.583 C 135.600 290.244,135.240 289.580,134.800 289.108 C 134.360 288.636,134.000 288.013,134.000 287.725 C 134.000 287.436,133.820 287.200,133.600 287.200 C 133.380 287.200,133.200 286.840,133.200 286.400 C 133.200 285.960,133.020 285.600,132.800 285.600 C 132.580 285.600,132.400 285.280,132.400 284.888 C 132.400 284.497,132.040 283.917,131.600 283.600 C 131.160 283.283,130.800 282.703,130.800 282.312 C 130.800 281.920,130.620 281.600,130.400 281.600 C 129.806 281.600,129.916 280.427,130.571 279.771 C 130.886 279.457,131.426 279.200,131.771 279.200 C 132.117 279.200,132.400 279.020,132.400 278.800 C 132.400 278.580,132.760 278.400,133.200 278.400 C 133.640 278.400,134.000 278.220,134.000 278.000 C 134.000 277.780,134.270 277.600,134.600 277.600 C 134.930 277.600,135.200 277.420,135.200 277.200 C 135.200 276.980,135.470 276.800,135.800 276.800 C 136.130 276.800,136.400 276.620,136.400 276.400 C 136.400 276.180,136.760 276.000,137.200 276.000 C 137.640 276.000,138.002 275.865,138.004 275.700 C 138.006 275.535,138.816 275.045,139.804 274.610 C 140.792 274.176,141.600 273.681,141.600 273.510 C 141.600 273.340,141.960 273.200,142.400 273.200 C 142.840 273.200,143.200 273.042,143.200 272.849 C 143.200 272.655,143.740 272.273,144.400 272.000 C 145.060 271.727,145.600 271.345,145.600 271.151 C 145.600 270.958,145.960 270.800,146.400 270.800 C 146.840 270.800,147.200 270.620,147.200 270.400 C 147.200 270.180,147.560 270.000,148.000 270.000 C 148.440 270.000,148.800 269.820,148.800 269.600 C 148.800 269.380,149.025 269.196,149.300 269.191 C 149.575 269.186,150.250 268.830,150.800 268.400 C 151.350 267.970,152.284 267.614,152.876 267.609 C 153.468 267.604,154.064 267.420,154.200 267.200 C 154.336 266.980,155.056 266.800,155.800 266.800 C 156.544 266.800,157.264 266.980,157.400 267.200 " stroke="none" fill="#040404" fill-rule="evenodd"></path><path id="path1" d="" stroke="none" fill="#080404" fill-rule="evenodd"></path><path id="path2" d="" stroke="none" fill="#080404" fill-rule="evenodd"></path><path id="path3" d="" stroke="none" fill="#080404" fill-rule="evenodd"></path><path id="path4" d="" stroke="none" fill="#080404" fill-rule="evenodd"></path></g></svg>