<svg id="svg" version="1.1" xmlns="http://www.w3.org/2000/svg" xmlns:xlink="http://www.w3.org/1999/xlink" width="400" height="400" viewBox="0, 0, 400,400"><g id="svgg"><path id="path0" d="M12.000 0.385 C 9.848 1.015,9.200 1.307,9.200 1.647 C 9.200 1.841,8.927 2.000,8.594 2.000 C 7.803 2.000,2.000 7.803,2.000 8.594 C 2.000 8.927,1.864 9.200,1.698 9.200 C 0.150 9.200,0.200 2.788,0.200 200.000 C 0.200 397.212,0.150 390.800,1.698 390.800 C 1.864 390.800,2.000 391.073,2.000 391.406 C 2.000 392.197,7.803 398.000,8.594 398.000 C 8.927 398.000,9.200 398.136,9.200 398.302 C 9.200 399.850,2.788 399.800,200.000 399.800 C 397.212 399.800,390.800 399.850,390.800 398.302 C 390.800 398.136,391.073 398.000,391.406 398.000 C 391.740 398.000,393.360 396.653,395.006 395.006 C 396.653 393.360,398.000 391.740,398.000 391.406 C 398.000 391.073,398.136 390.800,398.302 390.800 C 399.850 390.800,399.800 397.212,399.800 200.000 C 399.800 2.788,399.850 9.200,398.302 9.200 C 398.136 9.200,398.000 8.927,398.000 8.594 C 398.000 7.803,392.197 2.000,391.406 2.000 C 391.073 2.000,390.799 1.865,390.797 1.700 C 390.781 0.145,397.816 0.203,200.800 0.146 C 97.510 0.117,12.550 0.224,12.000 0.385 M88.800 13.200 C 88.800 13.420,89.520 13.600,90.400 13.600 C 91.280 13.600,92.000 13.736,92.000 13.902 C 92.000 14.069,92.578 14.460,93.284 14.773 C 94.857 15.469,97.200 17.751,97.200 18.587 C 97.200 18.924,97.335 19.201,97.500 19.203 C 97.980 19.208,98.800 21.260,98.800 22.456 C 98.800 23.059,98.980 23.664,99.200 23.800 C 99.453 23.956,99.600 28.737,99.600 36.824 L 99.600 49.600 56.200 49.600 L 12.800 49.600 12.800 34.400 C 12.800 24.533,12.940 19.200,13.200 19.200 C 13.420 19.200,13.600 18.588,13.600 17.840 C 13.600 15.924,15.924 13.600,17.840 13.600 C 18.588 13.600,19.200 13.420,19.200 13.200 C 19.200 12.936,31.067 12.800,54.000 12.800 C 76.933 12.800,88.800 12.936,88.800 13.200 M380.800 13.200 C 380.800 13.420,381.252 13.600,381.805 13.600 C 384.085 13.600,386.400 15.915,386.400 18.195 C 386.400 18.748,386.580 19.200,386.800 19.200 C 387.060 19.200,387.200 24.533,387.200 34.400 L 387.200 49.600 250.000 49.600 L 112.800 49.600 112.800 33.600 C 112.800 23.200,112.660 17.600,112.400 17.600 C 112.180 17.600,112.000 17.060,112.000 16.400 C 112.000 15.740,111.820 15.200,111.600 15.200 C 111.380 15.200,111.200 14.765,111.200 14.233 C 111.200 13.702,110.975 13.176,110.700 13.065 C 110.425 12.954,171.085 12.849,245.500 12.832 C 335.454 12.811,380.800 12.934,380.800 13.200 M24.800 31.400 L 24.800 38.000 31.400 38.000 L 38.000 38.000 38.000 31.400 L 38.000 24.800 31.400 24.800 L 24.800 24.800 24.800 31.400 M49.600 31.400 L 49.600 38.000 56.200 38.000 L 62.800 38.000 62.800 31.400 L 62.800 24.800 56.200 24.800 L 49.600 24.800 49.600 31.400 M74.800 31.400 L 74.800 38.000 81.400 38.000 L 88.000 38.000 88.000 31.400 L 88.000 24.800 81.400 24.800 L 74.800 24.800 74.800 31.400 M124.800 31.400 L 124.800 38.000 250.000 38.000 L 375.200 38.000 375.200 31.400 L 375.200 24.800 250.000 24.800 L 124.800 24.800 124.800 31.400 M387.200 221.800 C 387.200 327.533,387.066 380.800,386.800 380.800 C 386.580 380.800,386.400 381.252,386.400 381.805 C 386.400 384.085,384.085 386.400,381.805 386.400 C 381.252 386.400,380.800 386.580,380.800 386.800 C 380.800 387.066,320.267 387.200,200.000 387.200 C 79.733 387.200,19.200 387.066,19.200 386.800 C 19.200 386.580,18.748 386.400,18.195 386.400 C 15.915 386.400,13.600 384.085,13.600 381.805 C 13.600 381.252,13.420 380.800,13.200 380.800 C 12.934 380.800,12.800 327.533,12.800 221.800 L 12.800 62.800 200.000 62.800 L 387.200 62.800 387.200 221.800 M241.340 85.783 C 235.983 91.164,231.600 95.754,231.600 95.983 C 231.600 96.213,231.420 96.400,231.200 96.400 C 230.963 96.400,230.800 97.867,230.800 100.000 C 230.800 102.133,230.963 103.600,231.200 103.600 C 231.420 103.600,231.600 103.791,231.600 104.025 C 231.600 104.753,251.009 124.000,251.743 124.000 C 252.362 124.000,253.733 122.692,259.597 116.509 C 261.769 114.219,261.686 113.905,257.909 110.108 L 254.618 106.800 280.309 106.800 L 306.000 106.800 306.000 119.200 L 306.000 131.600 312.600 131.600 L 319.200 131.600 319.200 114.000 C 319.200 102.533,319.061 96.400,318.800 96.400 C 318.580 96.400,318.400 96.170,318.400 95.888 C 318.400 95.607,318.018 95.112,317.551 94.788 C 317.084 94.465,316.467 93.975,316.180 93.700 C 315.771 93.309,309.066 93.200,285.429 93.200 C 268.742 93.200,255.200 93.045,255.200 92.855 C 255.200 92.665,256.550 91.235,258.200 89.678 C 261.699 86.375,261.821 85.836,259.597 83.491 C 253.744 77.319,252.363 76.000,251.759 76.000 C 251.386 76.000,246.697 80.403,241.340 85.783 M34.000 81.105 C 34.000 81.273,33.595 81.588,33.100 81.805 C 32.605 82.022,32.022 82.605,31.805 83.100 C 31.588 83.595,31.273 84.000,31.105 84.000 C 30.937 84.000,30.800 133.410,30.800 193.800 C 30.800 266.733,30.934 303.600,31.200 303.600 C 31.420 303.600,31.600 303.830,31.600 304.112 C 31.600 304.393,31.982 304.888,32.449 305.212 C 32.916 305.535,33.533 306.025,33.820 306.300 C 34.234 306.696,49.534 306.800,107.571 306.800 L 180.800 306.800 180.800 336.400 C 180.800 352.680,180.937 366.000,181.105 366.000 C 181.273 366.000,181.588 366.405,181.805 366.900 C 182.022 367.395,182.605 367.978,183.100 368.195 C 183.595 368.412,184.000 368.727,184.000 368.895 C 184.000 369.063,224.950 369.200,275.000 369.200 C 325.050 369.200,366.000 369.063,366.000 368.895 C 366.000 368.727,366.405 368.412,366.900 368.195 C 367.395 367.978,367.978 367.395,368.195 366.900 C 368.412 366.405,368.727 366.000,368.895 366.000 C 369.063 366.000,369.200 316.590,369.200 256.200 C 369.200 183.267,369.066 146.400,368.800 146.400 C 368.580 146.400,368.400 146.170,368.400 145.888 C 368.400 145.607,368.018 145.112,367.551 144.788 C 367.084 144.465,366.467 143.975,366.180 143.700 C 365.766 143.304,350.466 143.200,292.429 143.200 L 219.200 143.200 219.200 113.600 C 219.200 97.320,219.063 84.000,218.895 84.000 C 218.727 84.000,218.412 83.595,218.195 83.100 C 217.978 82.605,217.395 82.022,216.900 81.805 C 216.405 81.588,216.000 81.273,216.000 81.105 C 216.000 80.937,175.050 80.800,125.000 80.800 C 74.950 80.800,34.000 80.937,34.000 81.105 M206.000 118.600 L 206.000 143.200 195.000 143.200 C 188.950 143.200,183.999 143.335,183.997 143.500 C 183.996 143.665,183.456 144.107,182.797 144.481 C 182.139 144.856,181.600 145.441,181.600 145.781 C 181.600 146.122,181.420 146.400,181.200 146.400 C 180.935 146.400,180.800 171.133,180.800 219.800 L 180.800 293.200 112.400 293.200 L 44.000 293.200 44.000 193.600 L 44.000 94.000 125.000 94.000 L 206.000 94.000 206.000 118.600 M112.000 112.200 L 112.000 118.400 96.400 118.400 L 80.800 118.400 80.800 125.000 L 80.800 131.600 108.300 131.600 L 135.800 131.600 135.661 133.600 C 135.585 134.700,135.360 135.600,135.161 135.600 C 134.963 135.600,134.800 136.320,134.800 137.200 C 134.800 138.080,134.620 138.800,134.400 138.800 C 134.180 138.800,134.000 139.340,134.000 140.000 C 134.000 140.660,133.820 141.200,133.600 141.200 C 133.380 141.200,133.200 141.650,133.200 142.200 C 133.200 142.750,133.020 143.200,132.800 143.200 C 132.580 143.200,132.400 143.445,132.400 143.744 C 132.400 144.401,129.924 149.345,129.500 149.533 C 129.335 149.607,129.200 150.012,129.200 150.433 C 129.200 150.855,129.042 151.200,128.849 151.200 C 128.655 151.200,128.273 151.740,128.000 152.400 C 127.727 153.060,127.390 153.600,127.251 153.601 C 127.113 153.601,126.469 154.456,125.820 155.501 C 125.172 156.545,124.104 157.850,123.448 158.400 C 122.793 158.950,121.478 160.170,120.528 161.111 L 118.800 162.821 117.061 161.111 C 116.104 160.170,114.578 158.770,113.670 158.000 C 112.761 157.230,112.014 156.357,112.009 156.060 C 112.004 155.764,111.460 155.017,110.800 154.400 C 110.140 153.783,109.600 153.006,109.600 152.673 C 109.600 152.339,109.453 152.007,109.273 151.933 C 109.093 151.860,108.358 150.585,107.640 149.100 C 106.429 146.597,104.400 145.157,104.400 146.800 C 104.400 147.020,104.040 147.200,103.600 147.200 C 103.160 147.200,102.800 147.380,102.800 147.600 C 102.800 147.820,102.440 148.000,102.000 148.000 C 101.560 148.000,101.200 148.180,101.200 148.400 C 101.200 148.620,100.840 148.800,100.400 148.800 C 99.960 148.800,99.600 148.980,99.600 149.200 C 99.600 149.420,99.335 149.600,99.012 149.600 C 98.689 149.600,97.783 149.960,97.000 150.400 C 96.217 150.840,95.394 151.200,95.171 151.200 C 93.131 151.200,93.681 155.718,95.998 158.000 C 96.110 158.110,96.456 158.695,96.768 159.300 C 97.080 159.905,97.485 160.400,97.668 160.400 C 97.850 160.400,98.000 160.688,98.000 161.040 C 98.000 161.391,98.540 162.183,99.200 162.800 C 99.860 163.417,100.400 164.129,100.400 164.383 C 100.400 164.637,101.480 165.904,102.800 167.200 C 105.511 169.861,105.824 170.800,104.000 170.800 C 103.340 170.800,102.800 170.980,102.800 171.200 C 102.800 171.420,102.260 171.600,101.600 171.600 C 100.940 171.600,100.400 171.780,100.400 172.000 C 100.400 172.220,99.500 172.400,98.400 172.400 C 97.300 172.400,96.400 172.580,96.400 172.800 C 96.400 173.020,95.410 173.200,94.200 173.200 C 92.990 173.200,92.000 173.380,92.000 173.600 C 92.000 173.845,90.057 174.000,86.971 174.000 C 80.409 174.000,80.800 173.520,80.800 181.571 L 80.800 188.000 87.400 188.000 C 91.533 188.000,94.000 187.851,94.000 187.600 C 94.000 187.375,95.125 187.200,96.576 187.200 C 97.993 187.200,99.264 187.020,99.400 186.800 C 99.536 186.580,100.357 186.400,101.224 186.400 C 102.091 186.400,102.800 186.220,102.800 186.000 C 102.800 185.780,103.419 185.600,104.176 185.600 C 104.933 185.600,105.664 185.420,105.800 185.200 C 105.936 184.980,106.476 184.800,107.000 184.800 C 107.524 184.800,108.064 184.620,108.200 184.400 C 108.336 184.180,108.887 184.000,109.424 184.000 C 109.961 184.000,110.400 183.820,110.400 183.600 C 110.400 183.380,110.940 183.200,111.600 183.200 C 112.260 183.200,112.800 183.020,112.800 182.800 C 112.800 182.580,113.160 182.400,113.600 182.400 C 114.040 182.400,114.400 182.220,114.400 182.000 C 114.400 181.780,114.760 181.600,115.200 181.600 C 115.640 181.600,116.000 181.420,116.000 181.200 C 116.000 180.980,116.349 180.800,116.776 180.800 C 117.203 180.800,117.664 180.620,117.800 180.400 C 117.936 180.180,118.487 180.000,119.024 180.000 C 119.561 180.000,120.000 180.180,120.000 180.400 C 120.000 180.620,120.360 180.800,120.800 180.800 C 121.240 180.800,121.600 180.980,121.600 181.200 C 121.600 181.420,121.960 181.600,122.400 181.600 C 122.840 181.600,123.200 181.780,123.200 182.000 C 123.200 182.220,123.560 182.400,124.000 182.400 C 124.440 182.400,124.800 182.580,124.800 182.800 C 124.800 183.020,125.239 183.200,125.776 183.200 C 126.313 183.200,126.864 183.380,127.000 183.600 C 127.136 183.820,127.687 184.000,128.224 184.000 C 128.761 184.000,129.200 184.180,129.200 184.400 C 129.200 184.620,129.740 184.800,130.400 184.800 C 131.060 184.800,131.600 184.980,131.600 185.200 C 131.600 185.420,132.320 185.600,133.200 185.600 C 134.080 185.600,134.800 185.780,134.800 186.000 C 134.800 186.220,135.700 186.400,136.800 186.400 C 137.900 186.400,138.800 186.580,138.800 186.800 C 138.800 187.022,139.867 187.200,141.200 187.200 C 142.533 187.200,143.600 187.378,143.600 187.600 C 143.600 187.851,146.067 188.000,150.200 188.000 L 156.800 188.000 156.800 181.544 C 156.800 173.535,157.240 174.030,150.100 174.013 C 146.842 174.005,144.800 173.846,144.800 173.600 C 144.800 173.380,143.911 173.200,142.824 173.200 C 141.737 173.200,140.736 173.020,140.600 172.800 C 140.464 172.580,139.643 172.400,138.776 172.400 C 137.909 172.400,137.200 172.220,137.200 172.000 C 137.200 171.780,136.660 171.600,136.000 171.600 C 135.340 171.600,134.800 171.420,134.800 171.200 C 134.800 170.980,134.260 170.800,133.600 170.800 C 131.797 170.800,132.086 169.924,134.800 167.168 C 136.120 165.827,137.200 164.542,137.200 164.312 C 137.200 164.082,137.516 163.603,137.903 163.247 C 138.289 162.891,138.860 162.105,139.170 161.500 C 139.481 160.895,139.885 160.400,140.068 160.400 C 140.250 160.400,140.400 160.040,140.400 159.600 C 140.400 159.160,140.577 158.800,140.792 158.800 C 141.008 158.800,141.298 158.350,141.436 157.800 C 141.574 157.250,141.847 156.800,142.043 156.800 C 142.240 156.800,142.400 156.440,142.400 156.000 C 142.400 155.560,142.580 155.200,142.800 155.200 C 143.020 155.200,143.200 154.840,143.200 154.400 C 143.200 153.960,143.380 153.600,143.600 153.600 C 143.820 153.600,144.000 153.240,144.000 152.800 C 144.000 152.360,144.180 152.000,144.400 152.000 C 144.620 152.000,144.800 151.550,144.800 151.000 C 144.800 150.450,144.980 150.000,145.200 150.000 C 145.420 150.000,145.600 149.550,145.600 149.000 C 145.600 148.450,145.780 148.000,146.000 148.000 C 146.220 148.000,146.400 147.460,146.400 146.800 C 146.400 146.140,146.580 145.600,146.800 145.600 C 147.020 145.600,147.200 145.060,147.200 144.400 C 147.200 143.740,147.380 143.200,147.600 143.200 C 147.820 143.200,148.000 142.671,148.000 142.024 C 148.000 141.377,148.180 140.736,148.400 140.600 C 148.620 140.464,148.800 139.643,148.800 138.776 C 148.800 137.909,148.980 137.200,149.200 137.200 C 149.420 137.200,149.600 136.300,149.600 135.200 C 149.600 134.100,149.780 133.200,150.000 133.200 C 150.220 133.200,150.400 132.840,150.400 132.400 C 150.400 131.667,150.667 131.600,153.600 131.600 L 156.800 131.600 156.800 125.000 L 156.800 118.400 141.000 118.400 L 125.200 118.400 125.200 112.200 L 125.200 106.000 118.600 106.000 L 112.000 106.000 112.000 112.200 M356.000 256.400 L 356.000 356.000 275.000 356.000 L 194.000 356.000 194.000 256.400 L 194.000 156.800 275.000 156.800 L 356.000 156.800 356.000 256.400 M268.400 168.800 C 268.400 169.020,267.860 169.200,267.200 169.200 C 266.540 169.200,266.000 169.380,266.000 169.600 C 266.000 169.820,265.460 170.000,264.800 170.000 C 264.140 170.000,263.600 170.180,263.600 170.400 C 263.600 170.620,263.240 170.800,262.800 170.800 C 262.360 170.800,262.000 170.950,262.000 171.132 C 262.000 171.315,261.511 171.720,260.912 172.032 C 259.297 172.875,257.952 174.090,254.600 177.731 C 254.160 178.209,253.545 179.095,253.232 179.700 C 252.920 180.305,252.515 180.800,252.332 180.800 C 252.150 180.800,252.000 181.160,252.000 181.600 C 252.000 182.040,251.820 182.400,251.600 182.400 C 251.380 182.400,251.200 182.940,251.200 183.600 C 251.200 184.260,251.020 184.800,250.800 184.800 C 250.580 184.800,250.400 185.340,250.400 186.000 C 250.400 186.660,250.220 187.200,250.000 187.200 C 249.738 187.200,249.600 195.933,249.600 212.600 L 249.600 238.000 256.200 238.000 L 262.800 238.000 262.800 225.400 L 262.800 212.800 275.000 212.800 L 287.200 212.800 287.200 225.400 L 287.200 238.000 293.800 238.000 L 300.400 238.000 300.400 212.600 C 300.400 195.933,300.262 187.200,300.000 187.200 C 299.780 187.200,299.600 186.660,299.600 186.000 C 299.600 185.340,299.420 184.800,299.200 184.800 C 298.980 184.800,298.800 184.260,298.800 183.600 C 298.800 182.940,298.620 182.400,298.400 182.400 C 298.180 182.400,298.000 182.040,298.000 181.600 C 298.000 181.160,297.850 180.800,297.668 180.800 C 297.485 180.800,297.080 180.305,296.768 179.700 C 296.455 179.095,295.840 178.209,295.400 177.731 C 292.048 174.090,290.703 172.875,289.088 172.032 C 288.489 171.720,288.000 171.315,288.000 171.132 C 288.000 170.950,287.640 170.800,287.200 170.800 C 286.760 170.800,286.400 170.620,286.400 170.400 C 286.400 170.180,285.860 170.000,285.200 170.000 C 284.540 170.000,284.000 169.820,284.000 169.600 C 284.000 169.380,283.460 169.200,282.800 169.200 C 282.140 169.200,281.600 169.020,281.600 168.800 C 281.600 168.549,279.133 168.400,275.000 168.400 C 270.867 168.400,268.400 168.549,268.400 168.800 M279.654 183.300 C 281.796 184.415,284.477 187.022,285.229 188.721 C 285.541 189.424,285.931 190.000,286.098 190.000 C 286.264 190.000,286.400 190.900,286.400 192.000 C 286.400 193.100,286.580 194.000,286.800 194.000 C 287.029 194.000,287.200 195.200,287.200 196.800 L 287.200 199.600 275.000 199.600 L 262.800 199.600 262.800 196.800 C 262.800 195.200,262.971 194.000,263.200 194.000 C 263.420 194.000,263.600 193.100,263.600 192.000 C 263.600 190.900,263.780 190.000,264.000 190.000 C 264.220 190.000,264.400 189.640,264.400 189.200 C 264.400 188.760,264.580 188.400,264.800 188.400 C 265.020 188.400,265.200 188.215,265.200 187.989 C 265.200 187.455,268.655 184.000,269.189 184.000 C 269.415 184.000,269.600 183.820,269.600 183.600 C 269.600 183.380,269.949 183.200,270.376 183.200 C 270.803 183.200,271.264 183.020,271.400 182.800 C 271.909 181.976,277.796 182.333,279.654 183.300 M56.000 212.600 L 56.000 219.200 62.600 219.200 L 69.200 219.200 69.200 212.600 L 69.200 206.000 62.600 206.000 L 56.000 206.000 56.000 212.600 M80.800 212.600 L 80.800 219.200 125.000 219.200 L 169.200 219.200 169.200 212.600 L 169.200 206.000 125.000 206.000 L 80.800 206.000 80.800 212.600 M56.000 237.400 L 56.000 244.000 112.600 244.000 L 169.200 244.000 169.200 237.400 L 169.200 230.800 112.600 230.800 L 56.000 230.800 56.000 237.400 M218.400 256.200 L 218.400 262.800 225.000 262.800 L 231.600 262.800 231.600 256.200 L 231.600 249.600 225.000 249.600 L 218.400 249.600 218.400 256.200 M243.200 256.200 L 243.200 262.800 287.400 262.800 L 331.600 262.800 331.600 256.200 L 331.600 249.600 287.400 249.600 L 243.200 249.600 243.200 256.200 M56.000 262.600 L 56.000 269.200 112.600 269.200 L 169.200 269.200 169.200 262.600 L 169.200 256.000 112.600 256.000 L 56.000 256.000 56.000 262.600 M218.400 281.400 L 218.400 288.000 275.000 288.000 L 331.600 288.000 331.600 281.400 L 331.600 274.800 275.000 274.800 L 218.400 274.800 218.400 281.400 M218.400 306.200 L 218.400 312.800 275.000 312.800 L 331.600 312.800 331.600 306.200 L 331.600 299.600 275.000 299.600 L 218.400 299.600 218.400 306.200 M80.800 336.000 C 80.800 347.467,80.939 353.600,81.200 353.600 C 81.420 353.600,81.600 353.830,81.600 354.112 C 81.600 354.393,81.982 354.888,82.449 355.212 C 82.916 355.535,83.533 356.025,83.820 356.300 C 84.229 356.691,90.934 356.800,114.571 356.800 C 131.197 356.800,144.800 356.955,144.800 357.144 C 144.800 357.333,143.450 358.775,141.800 360.348 C 138.314 363.671,138.198 364.184,140.403 366.509 C 146.270 372.695,147.639 374.000,148.262 374.000 C 148.991 374.000,168.400 354.735,168.400 354.012 C 168.400 353.785,168.580 353.600,168.800 353.600 C 169.037 353.600,169.200 352.133,169.200 350.000 C 169.200 347.867,169.037 346.400,168.800 346.400 C 168.580 346.400,168.400 346.213,168.400 345.983 C 168.400 345.260,148.954 326.000,148.223 326.000 C 147.175 326.000,138.808 334.798,138.803 335.905 C 138.801 336.509,139.796 337.771,141.800 339.705 C 143.450 341.297,144.800 342.735,144.800 342.900 C 144.800 343.065,133.370 343.200,119.400 343.200 L 94.000 343.200 94.000 330.800 L 94.000 318.400 87.400 318.400 L 80.800 318.400 80.800 336.000 M218.400 331.400 L 218.400 338.000 275.000 338.000 L 331.600 338.000 331.600 331.400 L 331.600 324.800 275.000 324.800 L 218.400 324.800 218.400 331.400 " stroke="none" fill="#040404" fill-rule="evenodd"></path><path id="path1" d="" stroke="none" fill="#080404" fill-rule="evenodd"></path><path id="path2" d="" stroke="none" fill="#080404" fill-rule="evenodd"></path><path id="path3" d="" stroke="none" fill="#080404" fill-rule="evenodd"></path><path id="path4" d="" stroke="none" fill="#080404" fill-rule="evenodd"></path></g></svg>