<svg id="svg" version="1.1" xmlns="http://www.w3.org/2000/svg" xmlns:xlink="http://www.w3.org/1999/xlink" width="400" height="400" viewBox="0, 0, 400,400"><g id="svgg"><path id="path0" d="M133.000 14.400 C 132.864 14.620,132.145 14.800,131.401 14.800 C 126.806 14.800,116.935 18.655,111.961 22.393 C 110.784 23.277,109.630 24.000,109.396 24.000 C 108.889 24.000,99.871 32.969,99.648 33.696 C 99.563 33.973,98.887 34.950,98.146 35.867 C 97.406 36.784,96.800 37.673,96.800 37.842 C 96.800 38.010,96.456 38.520,96.036 38.974 C 95.077 40.010,90.400 49.275,90.400 50.137 C 90.400 50.488,90.074 51.366,89.676 52.088 C 89.277 52.810,88.641 54.480,88.263 55.800 C 87.884 57.120,87.400 58.753,87.187 59.428 C 86.974 60.104,86.800 61.103,86.800 61.648 C 86.800 62.194,86.636 62.811,86.435 63.020 C 86.235 63.229,85.975 64.390,85.859 65.600 C 85.743 66.810,85.473 68.880,85.258 70.200 C 84.749 73.328,84.746 86.771,85.253 89.600 C 85.470 90.810,85.744 92.610,85.862 93.600 C 85.981 94.590,86.240 95.571,86.439 95.780 C 86.637 95.989,86.800 96.655,86.800 97.260 C 86.800 99.141,88.751 105.632,90.509 109.600 C 90.948 110.590,91.539 111.940,91.824 112.600 C 92.108 113.260,92.621 114.450,92.963 115.245 C 93.305 116.040,93.859 116.917,94.193 117.194 C 94.527 117.471,94.800 117.849,94.800 118.034 C 94.800 118.491,98.965 124.590,100.752 126.750 C 103.494 130.063,108.044 134.266,111.000 136.214 C 111.880 136.794,112.780 137.478,113.000 137.735 C 114.148 139.071,122.818 142.753,126.800 143.596 C 128.010 143.852,129.553 144.228,130.228 144.431 C 131.822 144.910,143.799 144.912,144.705 144.433 C 145.087 144.231,146.713 143.841,148.318 143.566 C 149.923 143.290,151.329 142.915,151.442 142.732 C 151.555 142.550,151.935 142.400,152.287 142.400 C 153.303 142.400,161.688 138.140,162.883 137.017 C 163.478 136.458,164.074 136.000,164.206 136.000 C 165.377 136.000,176.400 125.012,176.400 123.844 C 176.400 123.713,176.783 123.166,177.251 122.627 C 178.193 121.544,178.874 120.441,179.783 118.527 C 180.116 117.827,180.559 117.149,180.768 117.020 C 181.297 116.693,183.600 112.378,183.600 111.713 C 183.600 111.413,183.935 110.500,184.345 109.684 C 184.755 108.868,185.596 106.670,186.213 104.800 C 186.830 102.930,187.467 101.040,187.628 100.600 C 187.943 99.742,188.837 95.451,189.598 91.151 C 190.706 84.888,190.107 68.423,188.572 62.965 C 188.258 61.846,188.000 60.598,188.000 60.193 C 188.000 59.387,187.306 57.004,186.751 55.905 C 186.558 55.523,186.400 54.945,186.400 54.619 C 186.400 53.479,180.402 40.894,178.938 38.962 C 178.422 38.281,177.999 37.561,177.998 37.362 C 177.997 37.163,177.457 36.425,176.798 35.722 C 176.139 35.019,175.600 34.287,175.600 34.095 C 175.600 33.022,163.631 22.000,162.466 22.000 C 162.264 22.000,161.891 21.751,161.638 21.446 C 159.896 19.346,147.569 14.800,143.619 14.800 C 142.754 14.800,141.936 14.620,141.800 14.400 C 141.661 14.175,139.737 14.000,137.400 14.000 C 135.063 14.000,133.139 14.175,133.000 14.400 M258.235 14.343 C 258.118 14.532,256.983 14.802,255.711 14.944 C 248.967 15.693,244.028 17.681,236.456 22.695 C 233.462 24.678,224.800 32.775,224.800 33.592 C 224.800 33.768,224.174 34.607,223.409 35.456 C 222.644 36.305,222.014 37.211,222.009 37.469 C 222.004 37.727,221.580 38.447,221.067 39.069 C 219.665 40.768,214.638 51.380,213.615 54.800 C 213.122 56.450,212.556 58.113,212.359 58.495 C 212.162 58.877,212.000 59.644,212.000 60.200 C 212.000 60.756,211.830 61.523,211.622 61.905 C 209.379 66.028,209.402 94.538,211.650 96.980 C 211.843 97.189,212.000 97.943,212.000 98.656 C 212.000 99.369,212.180 100.064,212.400 100.200 C 212.620 100.336,212.800 100.876,212.800 101.401 C 212.800 102.494,214.597 107.565,215.674 109.512 C 216.073 110.234,216.400 111.109,216.400 111.458 C 216.400 112.175,218.046 115.405,219.631 117.800 C 220.214 118.680,220.805 119.760,220.944 120.200 C 221.084 120.640,221.738 121.575,222.399 122.278 C 223.060 122.981,223.602 123.701,223.603 123.878 C 223.605 124.055,224.235 124.863,225.003 125.673 C 225.772 126.484,226.400 127.298,226.400 127.484 C 226.400 127.943,231.722 133.195,232.210 133.218 C 232.425 133.228,233.410 134.037,234.400 135.015 C 235.390 135.993,236.403 136.795,236.651 136.797 C 236.899 136.799,237.327 137.071,237.602 137.402 C 238.217 138.144,246.828 142.400,247.713 142.400 C 248.065 142.400,248.445 142.550,248.558 142.732 C 248.671 142.915,250.077 143.290,251.682 143.566 C 253.287 143.841,254.913 144.231,255.295 144.433 C 256.173 144.897,269.479 144.919,269.765 144.457 C 269.881 144.269,270.844 144.012,271.903 143.886 C 275.373 143.475,282.301 140.771,285.400 138.618 C 286.060 138.159,287.095 137.532,287.700 137.224 C 288.305 136.917,288.800 136.515,288.800 136.332 C 288.800 136.150,289.031 136.000,289.312 136.000 C 289.594 136.000,291.138 134.740,292.744 133.200 C 294.349 131.660,295.808 130.400,295.985 130.400 C 296.163 130.400,296.596 129.961,296.948 129.424 C 297.300 128.887,298.485 127.492,299.582 126.324 C 300.679 125.156,301.582 123.975,301.588 123.700 C 301.595 123.425,301.750 123.200,301.932 123.200 C 302.115 123.200,302.517 122.705,302.824 122.100 C 303.132 121.495,303.765 120.460,304.230 119.800 C 305.196 118.432,310.226 108.213,310.531 107.000 C 310.642 106.560,311.072 105.300,311.487 104.200 C 311.901 103.100,312.470 101.120,312.750 99.800 C 313.030 98.480,313.417 96.770,313.609 96.000 C 315.707 87.587,315.678 67.148,313.563 63.105 C 313.364 62.723,313.200 61.789,313.200 61.029 C 313.200 60.269,313.020 59.536,312.800 59.400 C 312.580 59.264,312.392 58.758,312.383 58.276 C 312.368 57.501,311.939 56.165,309.983 50.800 C 308.697 47.274,305.313 40.898,302.971 37.590 C 301.557 35.592,300.400 33.834,300.400 33.684 C 300.400 33.290,291.076 24.000,290.680 24.000 C 290.496 24.000,289.757 23.550,289.036 23.000 C 288.314 22.450,287.576 22.000,287.394 22.000 C 287.212 22.000,286.733 21.701,286.329 21.336 C 285.280 20.387,283.702 19.535,279.400 17.595 C 276.409 16.247,270.817 14.800,268.598 14.800 C 267.855 14.800,267.136 14.620,267.000 14.400 C 266.698 13.911,258.535 13.858,258.235 14.343 M34.226 115.158 C 34.105 115.355,33.329 115.606,32.503 115.717 C 31.676 115.828,30.190 116.124,29.200 116.374 C 27.054 116.916,17.887 121.373,17.190 122.212 C 16.922 122.535,16.499 122.803,16.251 122.806 C 15.622 122.815,9.482 128.289,8.121 130.055 C 7.504 130.855,6.316 132.324,5.480 133.320 C 4.645 134.315,3.071 136.901,1.984 139.065 L 0.006 143.000 0.003 160.786 L -0.000 178.572 1.660 181.986 C 2.573 183.864,3.743 185.909,4.260 186.531 C 4.777 187.153,5.203 187.873,5.207 188.131 C 5.210 188.389,6.026 189.385,7.019 190.344 C 8.012 191.304,9.094 192.609,9.423 193.244 C 9.752 193.880,10.208 194.400,10.437 194.400 C 10.666 194.400,11.877 195.293,13.127 196.385 C 16.905 199.685,24.975 204.400,26.844 204.400 C 27.234 204.400,27.664 204.580,27.800 204.800 C 27.936 205.020,28.541 205.200,29.144 205.200 C 29.747 205.200,30.411 205.351,30.620 205.536 C 32.861 207.514,50.596 207.573,55.400 205.617 C 55.840 205.438,57.010 205.060,58.000 204.777 C 62.511 203.489,69.179 199.688,73.323 196.043 C 74.601 194.919,75.816 194.000,76.023 194.000 C 76.230 194.000,76.400 193.801,76.400 193.559 C 76.400 193.316,77.435 191.889,78.700 190.387 C 82.242 186.183,86.400 179.065,86.400 177.206 C 86.400 176.851,86.550 176.389,86.733 176.180 C 87.145 175.708,87.929 173.020,88.651 169.600 C 90.033 163.054,88.836 148.073,86.752 145.820 C 86.558 145.611,86.400 145.058,86.400 144.592 C 86.400 143.530,82.122 135.113,81.361 134.680 C 81.053 134.504,80.797 134.144,80.793 133.880 C 80.789 133.616,79.979 132.540,78.993 131.488 C 78.007 130.437,77.200 129.417,77.200 129.222 C 77.200 129.027,76.436 128.267,75.503 127.534 C 74.570 126.800,72.995 125.436,72.003 124.502 C 71.011 123.568,69.997 122.803,69.749 122.802 C 69.501 122.801,69.078 122.535,68.810 122.212 C 68.113 121.373,58.946 116.916,56.800 116.374 C 55.810 116.124,54.324 115.828,53.497 115.717 C 52.671 115.606,51.895 115.355,51.774 115.158 C 51.652 114.961,47.704 114.800,43.000 114.800 C 38.296 114.800,34.348 114.961,34.226 115.158 M348.226 115.158 C 348.105 115.355,347.329 115.606,346.503 115.717 C 342.813 116.212,332.552 120.571,331.178 122.226 C 330.916 122.542,330.499 122.801,330.251 122.802 C 330.003 122.803,328.986 123.568,327.990 124.502 C 326.995 125.436,325.497 126.714,324.662 127.342 C 323.826 127.971,323.049 128.728,322.935 129.024 C 322.821 129.321,322.118 130.211,321.372 131.002 C 319.387 133.107,317.237 136.570,314.918 141.400 C 314.179 142.940,313.400 144.513,313.187 144.895 C 312.974 145.277,312.800 146.096,312.800 146.715 C 312.800 147.334,312.638 148.011,312.440 148.220 C 310.737 150.016,310.205 164.956,311.642 170.600 C 312.091 172.360,312.548 174.340,312.658 175.000 C 313.067 177.444,317.952 186.528,320.401 189.400 C 321.715 190.940,322.792 192.425,322.795 192.700 C 322.798 192.975,322.935 193.201,323.100 193.201 C 323.265 193.202,324.660 194.298,326.200 195.637 C 330.714 199.562,338.965 204.400,341.145 204.400 C 341.589 204.400,342.064 204.580,342.200 204.800 C 342.336 205.020,342.799 205.200,343.229 205.200 C 343.659 205.200,344.323 205.373,344.705 205.583 C 347.328 207.031,358.918 207.720,364.400 206.754 C 365.610 206.541,367.187 206.264,367.904 206.139 C 368.621 206.014,369.306 205.751,369.427 205.556 C 369.548 205.360,370.166 205.200,370.800 205.200 C 371.434 205.200,372.064 205.020,372.200 204.800 C 372.336 204.580,372.769 204.400,373.162 204.400 C 373.993 204.400,381.330 200.768,382.335 199.859 C 382.710 199.520,383.403 199.098,383.876 198.921 C 384.349 198.744,385.696 197.689,386.868 196.574 C 388.041 195.460,389.315 194.431,389.700 194.287 C 390.085 194.143,390.400 193.789,390.400 193.501 C 390.400 193.212,391.040 192.373,391.821 191.635 C 393.633 189.927,396.579 185.579,398.757 181.400 L 399.800 179.400 399.912 161.243 L 400.024 143.086 398.237 139.413 C 397.254 137.392,396.169 135.506,395.825 135.221 C 395.481 134.935,395.200 134.529,395.200 134.317 C 395.200 134.105,394.120 132.717,392.800 131.231 C 391.480 129.746,390.400 128.322,390.400 128.066 C 390.400 127.809,390.191 127.600,389.934 127.600 C 389.678 127.600,388.254 126.520,386.769 125.200 C 385.283 123.880,383.895 122.800,383.683 122.800 C 383.471 122.800,383.078 122.535,382.810 122.212 C 382.082 121.334,372.830 116.883,371.096 116.576 C 370.268 116.429,369.493 116.150,369.372 115.955 C 369.251 115.760,368.454 115.600,367.600 115.600 C 366.746 115.600,365.936 115.420,365.800 115.200 C 365.488 114.695,348.537 114.654,348.226 115.158 M181.200 173.819 C 178.010 174.116,174.645 174.548,173.723 174.780 C 172.800 175.011,171.416 175.200,170.646 175.200 C 169.877 175.200,169.136 175.380,169.000 175.600 C 168.864 175.820,167.874 176.000,166.800 176.000 C 165.726 176.000,164.736 176.180,164.600 176.400 C 164.464 176.620,163.905 176.800,163.358 176.800 C 161.710 176.800,152.192 179.197,149.800 180.214 C 149.140 180.495,147.790 180.957,146.800 181.242 C 145.810 181.526,144.410 182.083,143.688 182.480 C 142.966 182.876,142.084 183.200,141.727 183.200 C 140.962 183.200,124.800 191.218,124.800 191.598 C 124.800 191.741,124.010 192.253,123.044 192.735 C 122.078 193.218,121.066 193.880,120.795 194.206 C 120.524 194.533,120.129 194.800,119.918 194.800 C 119.707 194.800,118.766 195.430,117.826 196.200 C 116.886 196.970,115.945 197.600,115.734 197.600 C 115.522 197.600,114.821 198.159,114.175 198.842 C 113.529 199.524,112.710 200.199,112.356 200.342 C 111.317 200.758,99.600 211.483,99.600 212.017 C 99.600 212.174,98.345 213.629,96.811 215.251 C 95.277 216.873,94.017 218.343,94.011 218.517 C 94.005 218.691,93.621 219.231,93.157 219.717 C 92.693 220.203,91.854 221.320,91.291 222.200 C 90.729 223.080,89.353 224.976,88.234 226.414 C 87.115 227.852,85.972 229.382,85.694 229.814 C 84.238 232.077,83.560 233.175,82.531 234.939 C 81.909 236.005,81.033 237.355,80.585 237.939 C 80.136 238.522,78.880 240.800,77.793 243.000 C 76.706 245.200,75.507 247.339,75.128 247.754 C 74.750 248.169,74.328 249.016,74.192 249.636 C 74.056 250.256,72.607 253.421,70.972 256.668 C 69.337 259.916,68.000 262.804,68.000 263.086 C 68.000 263.368,67.370 264.835,66.600 266.346 C 65.830 267.857,65.200 269.382,65.200 269.734 C 65.200 270.087,64.875 270.966,64.479 271.688 C 64.082 272.410,63.428 273.900,63.026 275.000 C 62.624 276.100,62.138 277.171,61.947 277.380 C 61.756 277.589,61.600 278.067,61.600 278.442 C 61.600 278.817,61.265 279.816,60.857 280.662 C 60.079 282.270,59.567 283.662,58.524 287.000 C 58.181 288.100,57.500 289.900,57.012 291.000 C 56.524 292.100,55.715 294.350,55.214 296.000 C 54.713 297.650,53.979 299.720,53.584 300.600 C 53.188 301.480,52.564 303.100,52.196 304.200 C 51.829 305.300,51.365 306.513,51.165 306.895 C 50.964 307.277,50.800 307.941,50.800 308.371 C 50.800 308.801,50.641 309.251,50.446 309.371 C 50.251 309.492,49.994 310.087,49.874 310.695 C 49.755 311.303,49.375 312.880,49.032 314.200 C 46.627 323.439,46.986 341.942,49.620 344.580 C 49.829 344.789,50.000 345.279,50.000 345.668 C 50.000 346.057,50.360 347.017,50.800 347.800 C 51.240 348.583,51.600 349.501,51.600 349.838 C 51.600 350.955,56.866 360.422,57.660 360.733 C 57.847 360.807,58.000 361.082,58.000 361.344 C 58.000 362.985,70.346 375.200,72.004 375.200 C 72.222 375.200,72.400 375.364,72.400 375.564 C 72.400 375.765,73.200 376.316,74.178 376.789 C 75.155 377.263,76.370 377.965,76.878 378.351 C 78.175 379.338,81.114 380.800,81.800 380.800 C 82.117 380.800,82.966 381.127,83.688 381.526 C 88.276 384.067,93.827 384.983,104.600 384.977 C 113.817 384.972,114.010 384.953,123.400 383.145 C 124.500 382.933,126.120 382.668,127.000 382.557 C 127.880 382.446,128.960 382.207,129.400 382.027 C 130.166 381.712,131.613 381.433,137.800 380.402 C 139.340 380.145,141.770 379.679,143.200 379.367 C 144.630 379.054,146.464 378.798,147.276 378.799 C 148.088 378.800,148.848 378.647,148.963 378.459 C 149.079 378.272,150.395 378.003,151.887 377.863 C 153.379 377.722,156.670 377.325,159.200 376.980 C 166.833 375.939,171.167 375.518,176.000 375.346 C 178.530 375.257,180.960 375.021,181.400 374.823 C 182.595 374.285,200.934 374.051,211.200 374.443 C 223.458 374.912,230.382 375.489,241.800 376.996 C 244.440 377.344,247.730 377.738,249.111 377.870 C 250.492 378.003,251.717 378.266,251.834 378.456 C 251.951 378.645,252.699 378.800,253.495 378.800 C 254.292 378.800,255.496 378.966,256.172 379.170 C 256.847 379.373,259.200 379.838,261.400 380.203 C 263.600 380.568,266.120 381.021,267.000 381.211 C 269.182 381.682,270.674 381.987,272.800 382.396 C 273.790 382.586,275.950 383.039,277.600 383.402 C 283.163 384.626,285.769 384.885,294.400 385.074 C 300.120 385.199,303.737 385.106,305.200 384.796 C 310.838 383.603,312.824 383.085,313.027 382.756 C 313.148 382.560,313.563 382.400,313.948 382.400 C 314.334 382.400,315.395 382.040,316.306 381.600 C 317.216 381.160,318.195 380.796,318.481 380.791 C 318.766 380.786,319.900 380.251,321.000 379.603 C 322.100 378.955,323.731 378.066,324.625 377.627 C 325.519 377.188,326.581 376.463,326.987 376.015 C 327.392 375.567,327.886 375.200,328.083 375.200 C 329.691 375.200,342.000 362.876,342.000 361.266 C 342.000 361.046,342.145 360.807,342.323 360.733 C 343.208 360.368,348.400 351.073,348.400 349.854 C 348.400 349.508,348.760 348.583,349.200 347.800 C 349.640 347.017,350.000 346.057,350.000 345.668 C 350.000 345.279,350.157 344.789,350.350 344.580 C 352.845 341.870,353.349 322.796,351.137 314.800 C 350.681 313.150,350.217 311.303,350.107 310.695 C 349.998 310.087,349.749 309.492,349.554 309.371 C 349.359 309.251,349.200 308.801,349.200 308.371 C 349.200 307.941,349.021 307.277,348.803 306.895 C 348.584 306.513,347.975 304.940,347.449 303.400 C 346.020 299.216,345.529 297.873,345.146 297.105 C 344.956 296.723,344.800 296.160,344.800 295.854 C 344.800 295.336,343.232 291.489,342.376 289.905 C 342.169 289.523,342.000 288.769,342.000 288.229 C 342.000 287.689,341.820 287.136,341.600 287.000 C 341.380 286.864,341.200 286.437,341.200 286.051 C 341.200 285.665,340.750 284.417,340.200 283.277 C 339.650 282.137,339.200 281.040,339.200 280.840 C 339.200 280.639,338.863 279.784,338.451 278.938 C 338.040 278.092,337.381 276.410,336.987 275.200 C 336.593 273.990,335.760 271.933,335.136 270.629 C 334.511 269.325,334.000 268.031,334.000 267.753 C 334.000 267.476,333.371 266.023,332.602 264.524 C 331.833 263.026,331.203 261.597,331.202 261.349 C 331.199 260.725,320.816 240.057,320.365 239.778 C 320.165 239.655,319.538 238.574,318.972 237.377 C 318.405 236.180,317.810 235.200,317.648 235.200 C 317.486 235.200,317.036 234.480,316.648 233.600 C 316.260 232.720,315.816 232.000,315.662 232.000 C 315.508 232.000,315.043 231.370,314.628 230.600 C 314.213 229.830,313.722 229.200,313.537 229.200 C 313.352 229.200,313.200 229.016,313.200 228.791 C 313.200 228.263,311.245 225.214,310.304 224.274 C 309.904 223.874,309.151 222.884,308.631 222.074 C 308.111 221.263,307.334 220.232,306.904 219.782 C 306.473 219.332,306.049 218.768,305.961 218.530 C 305.066 216.115,289.126 200.755,284.447 197.800 C 284.099 197.580,283.104 196.815,282.235 196.100 C 281.367 195.385,280.446 194.800,280.190 194.800 C 279.934 194.800,279.398 194.440,279.000 194.000 C 278.602 193.560,278.062 193.200,277.800 193.200 C 277.538 193.200,276.992 192.833,276.585 192.384 C 276.179 191.935,274.666 191.009,273.223 190.327 C 271.781 189.644,270.122 188.751,269.538 188.343 C 268.954 187.934,268.189 187.600,267.838 187.600 C 267.487 187.600,267.200 187.420,267.200 187.200 C 267.200 186.980,266.980 186.800,266.712 186.800 C 266.443 186.800,264.598 186.019,262.612 185.063 C 259.173 183.410,258.317 183.056,254.600 181.755 C 253.720 181.446,252.687 181.015,252.305 180.797 C 251.923 180.579,251.259 180.400,250.829 180.400 C 250.399 180.400,249.936 180.220,249.800 180.000 C 249.664 179.780,249.201 179.600,248.771 179.600 C 248.341 179.600,247.677 179.434,247.295 179.231 C 246.913 179.028,244.440 178.386,241.800 177.805 C 239.160 177.223,236.687 176.580,236.305 176.374 C 235.923 176.168,234.787 176.000,233.779 176.000 C 232.772 176.000,231.644 175.839,231.274 175.641 C 230.533 175.247,225.494 174.513,219.600 173.942 C 212.960 173.299,187.659 173.218,181.200 173.819 M203.662 241.300 C 206.087 242.556,207.600 244.492,207.600 246.338 C 207.600 246.786,207.780 247.264,208.000 247.400 C 208.249 247.554,208.411 251.537,208.429 257.924 C 208.470 272.381,207.638 271.585,222.722 271.594 C 233.765 271.601,234.450 271.750,237.400 274.790 C 238.993 276.431,239.000 276.453,239.000 279.602 L 239.000 282.766 237.200 284.602 C 234.229 287.633,234.390 287.600,222.600 287.600 C 207.536 287.600,208.403 286.773,208.394 301.161 C 208.388 312.432,208.173 313.548,205.485 316.306 C 202.103 319.775,197.811 319.700,194.309 316.112 C 191.899 313.643,191.614 312.046,191.575 300.800 C 191.538 290.062,191.284 288.758,189.170 288.466 C 188.636 288.393,188.029 288.168,187.820 287.966 C 187.610 287.764,182.844 287.600,177.181 287.600 C 165.636 287.600,165.765 287.627,162.805 284.608 L 161.011 282.777 161.011 279.615 C 161.011 276.892,161.135 276.321,161.905 275.501 C 162.397 274.977,162.800 274.335,162.800 274.074 C 162.800 273.813,163.013 273.600,163.274 273.600 C 163.535 273.600,164.179 273.195,164.706 272.700 C 165.639 271.823,165.942 271.795,176.731 271.595 C 192.607 271.302,191.490 272.365,191.670 257.380 C 191.798 246.744,191.813 246.576,192.800 244.800 C 195.090 240.677,199.633 239.213,203.662 241.300 " stroke="none" fill="#040404" fill-rule="evenodd"></path><path id="path1" d="" stroke="none" fill="#080404" fill-rule="evenodd"></path><path id="path2" d="" stroke="none" fill="#080404" fill-rule="evenodd"></path><path id="path3" d="" stroke="none" fill="#080404" fill-rule="evenodd"></path><path id="path4" d="" stroke="none" fill="#080404" fill-rule="evenodd"></path></g></svg>