<svg id="svg" version="1.1" xmlns="http://www.w3.org/2000/svg" xmlns:xlink="http://www.w3.org/1999/xlink" width="400" height="400" viewBox="0, 0, 400,400"><g id="svgg"><path id="path0" d="M170.740 21.950 C 143.482 24.999,127.669 59.585,143.121 82.358 C 148.317 90.017,197.296 137.500,200.000 137.500 C 202.704 137.500,251.683 90.017,256.879 82.358 C 278.782 50.076,241.229 8.218,205.997 25.641 L 199.884 28.664 195.059 26.107 C 187.566 22.136,180.253 20.886,170.740 21.950 M184.172 35.559 C 186.364 36.210,190.256 38.319,192.819 40.246 C 198.971 44.871,201.032 44.869,207.198 40.233 C 225.135 26.750,249.609 38.698,249.609 60.938 C 249.609 72.276,248.993 73.158,222.616 99.597 L 200.000 122.266 177.384 99.597 C 151.000 73.151,150.385 72.271,150.398 60.938 C 150.419 42.982,167.060 30.477,184.172 35.559 M110.058 139.945 C 19.799 145.789,-30.699 249.619,19.875 325.374 C 58.913 383.849,139.670 396.081,194.695 351.853 L 199.937 347.640 208.522 354.140 C 287.625 414.027,399.571 358.270,399.571 258.984 C 399.571 158.031,284.063 102.812,205.305 166.116 L 200.063 170.329 191.524 163.864 C 167.755 145.869,140.799 137.954,110.058 139.945 M142.374 155.005 C 208.529 170.308,244.373 242.648,215.943 303.481 C 212.091 311.723,212.206 311.640,209.765 307.951 L 207.646 304.749 210.380 298.273 C 244.080 218.455,166.946 136.181,85.755 165.345 C 63.431 173.363,34.768 197.591,37.015 206.543 C 39.042 214.620,44.862 213.704,52.643 204.083 C 81.916 167.889,135.439 162.280,172.890 191.482 L 178.778 196.074 174.586 204.101 C 157.025 237.727,156.838 278.335,174.087 312.757 L 178.652 321.868 172.890 326.437 C 123.032 365.968,50.710 340.772,34.982 278.391 C 32.253 267.568,32.506 248.636,35.522 237.891 C 38.788 226.259,38.895 224.034,36.293 221.987 C 21.841 210.619,14.151 260.772,25.501 292.370 C 45.892 349.140,111.235 374.714,165.168 347.033 C 171.880 343.589,182.845 336.041,185.051 333.347 C 186.021 332.163,186.331 332.311,188.443 334.967 L 190.767 337.891 187.766 340.541 C 132.636 389.231,41.158 363.149,17.947 292.122 C -7.519 214.190,62.877 136.615,142.374 155.005 M303.906 154.968 C 400.605 177.493,417.618 308.037,329.764 353.377 C 240.214 399.593,141.517 305.514,184.057 214.488 C 187.909 206.246,187.794 206.329,190.235 210.017 L 192.354 213.219 189.620 219.696 C 155.909 299.538,233.029 381.796,314.245 352.624 C 336.621 344.587,365.237 320.399,362.985 311.426 C 361.077 303.825,354.584 304.535,348.047 313.058 C 319.876 349.785,264.829 355.898,227.110 326.487 L 221.222 321.895 225.414 313.868 C 242.975 280.242,243.162 239.633,225.913 205.212 L 221.348 196.101 227.110 191.532 C 276.923 152.036,349.304 177.253,365.018 239.578 C 367.744 250.387,367.494 269.326,364.484 280.078 C 361.319 291.386,361.167 293.452,363.330 295.755 C 371.765 304.733,380.014 286.245,379.912 258.594 C 379.636 184.025,301.415 136.763,234.832 170.935 C 228.120 174.380,217.155 181.928,214.949 184.622 C 213.979 185.806,213.669 185.658,211.557 183.001 L 209.233 180.078 212.234 177.428 C 235.506 156.874,272.832 147.729,303.906 154.968 M202.207 235.352 C 204.547 243.365,205.457 249.980,205.457 258.984 C 205.457 269.973,202.010 288.281,199.942 288.281 C 197.974 288.281,194.592 270.100,194.564 259.375 C 194.535 248.241,197.933 229.688,200.000 229.688 C 200.304 229.688,201.298 232.236,202.207 235.352 " stroke="none" fill="#000000" fill-rule="evenodd"></path></g></svg>