<svg id="svg" version="1.1" xmlns="http://www.w3.org/2000/svg" xmlns:xlink="http://www.w3.org/1999/xlink" width="400" height="400" viewBox="0, 0, 400,400"><g id="svgg"><path id="path0" d="M25.005 19.254 C 25.010 29.743,25.331 33.757,26.584 38.982 C 27.448 42.590,28.061 45.609,27.945 45.690 C 27.829 45.772,24.624 47.475,20.822 49.475 C 14.333 52.890,3.905 59.929,3.907 60.893 C 3.911 62.040,14.692 79.085,18.213 83.510 C 23.190 89.764,32.167 96.963,39.539 100.611 C 44.944 103.285,45.139 103.478,44.403 105.410 C 43.981 106.516,43.732 110.253,43.850 113.712 C 44.049 119.512,43.901 120.219,41.957 122.768 C 40.797 124.288,39.386 126.866,38.822 128.496 C 37.943 131.034,37.218 131.675,33.767 132.962 C 17.840 138.904,13.496 161.781,25.952 174.114 L 29.207 177.336 20.432 259.567 C 15.605 304.793,11.671 342.236,11.688 342.773 C 11.736 344.287,34.684 344.123,39.062 342.578 C 40.889 341.934,42.691 341.406,43.067 341.406 C 43.443 341.406,43.750 344.746,43.750 348.828 L 43.750 356.250 29.102 356.253 C 7.679 356.257,6.256 357.425,6.256 375.000 C 6.256 394.998,2.495 393.744,62.500 393.744 C 122.505 393.744,118.744 394.998,118.744 375.000 C 118.744 357.425,117.321 356.257,95.898 356.253 L 81.250 356.250 81.256 328.711 L 81.262 301.172 84.280 299.449 C 88.413 297.090,95.690 290.322,98.524 286.202 L 100.866 282.798 97.249 264.641 C 95.260 254.655,93.459 245.749,93.247 244.850 C 92.909 243.416,93.702 242.903,99.751 240.649 C 144.098 224.124,179.707 188.361,196.393 143.589 C 197.947 139.418,199.219 135.639,199.219 135.190 C 199.219 134.742,199.570 134.375,200.000 134.375 C 200.430 134.375,200.781 134.742,200.781 135.190 C 200.781 137.033,206.712 151.730,210.593 159.506 C 229.512 197.405,261.125 226.014,300.249 240.641 C 306.296 242.902,307.091 243.416,306.753 244.850 C 306.541 245.749,304.740 254.655,302.751 264.641 L 299.134 282.798 301.476 286.202 C 304.310 290.322,311.587 297.090,315.720 299.449 L 318.738 301.172 318.744 328.711 L 318.750 356.250 304.102 356.253 C 282.679 356.257,281.256 357.425,281.256 375.000 C 281.256 394.998,277.495 393.744,337.500 393.744 C 397.505 393.744,393.744 394.998,393.744 375.000 C 393.744 357.425,392.321 356.257,370.898 356.253 L 356.250 356.250 356.250 348.828 C 356.250 344.746,356.557 341.406,356.933 341.406 C 357.309 341.406,359.111 341.934,360.938 342.578 C 365.316 344.123,388.264 344.287,388.312 342.773 C 388.329 342.236,384.398 304.826,379.576 259.640 L 370.809 177.484 374.775 173.145 C 386.422 160.401,381.854 138.790,366.286 132.982 C 362.821 131.689,362.054 131.027,361.214 128.600 C 359.741 124.345,355.918 119.441,352.014 116.797 C 348.977 114.740,348.150 113.497,345.262 106.641 C 322.598 52.840,274.150 20.311,214.687 18.968 L 196.951 18.567 195.155 15.905 C 184.959 0.787,157.722 4.155,151.768 21.269 C 150.908 23.743,149.837 25.378,148.915 25.625 C 148.104 25.842,145.906 26.835,144.032 27.832 L 140.625 29.644 137.218 27.832 C 135.344 26.835,133.146 25.842,132.335 25.625 C 131.413 25.378,130.342 23.743,129.482 21.269 C 123.815 4.982,101.320 0.890,88.404 13.798 C 82.722 19.477,83.325 19.221,80.444 17.170 C 69.932 9.685,59.539 6.900,40.430 6.450 L 25.000 6.087 25.005 19.254 M55.469 20.814 C 58.262 21.432,63.501 23.365,67.112 25.111 L 73.676 28.285 70.933 30.799 C 69.424 32.181,67.606 34.203,66.892 35.291 C 65.745 37.042,64.898 37.325,59.556 37.737 C 56.234 37.994,50.787 38.803,47.453 39.537 C 44.119 40.270,41.229 40.708,41.031 40.510 C 40.209 39.688,38.381 30.436,37.923 24.784 L 37.431 18.708 43.911 19.199 C 47.475 19.469,52.676 20.196,55.469 20.814 M112.538 21.292 C 115.837 23.516,117.698 26.731,118.376 31.379 L 118.908 35.023 115.181 33.137 C 112.350 31.704,110.202 31.250,106.250 31.250 C 102.298 31.250,100.150 31.704,97.319 33.137 L 93.592 35.023 94.124 31.379 C 95.577 21.410,105.030 16.232,112.538 21.292 M181.288 21.292 C 184.587 23.516,186.448 26.731,187.126 31.379 L 187.658 35.023 183.931 33.137 C 181.100 31.704,178.952 31.250,175.000 31.250 C 171.048 31.250,168.900 31.704,166.069 33.137 L 162.342 35.023 162.874 31.379 C 164.327 21.410,173.780 16.232,181.288 21.292 M224.116 32.389 C 266.726 34.833,309.290 63.922,329.594 104.475 C 333.585 112.446,333.610 112.109,328.915 113.669 C 326.772 114.381,324.818 115.288,324.572 115.685 C 323.599 117.260,322.197 116.235,320.852 112.963 C 306.156 77.223,264.721 47.729,224.082 44.083 C 218.449 43.578,218.057 43.421,217.592 41.499 C 217.320 40.374,215.900 37.632,214.436 35.405 L 211.774 31.357 214.285 31.663 C 215.667 31.831,220.090 32.158,224.116 32.389 M89.347 41.148 C 86.756 46.265,86.773 53.769,89.387 58.931 L 91.273 62.658 87.629 62.126 C 70.566 59.638,72.220 38.419,89.542 37.580 C 91.193 37.500,91.193 37.501,89.347 41.148 M130.631 39.537 C 132.554 40.531,132.685 40.856,131.945 42.782 C 131.493 43.959,131.240 48.023,131.382 51.813 L 131.641 58.703 128.810 60.815 C 124.745 63.846,121.918 67.457,120.327 71.649 C 119.185 74.658,118.435 75.478,116.077 76.294 C 114.502 76.839,112.208 78.002,110.979 78.877 C 104.388 83.570,95.516 78.172,94.124 68.621 L 93.592 64.977 97.319 66.863 C 113.873 75.244,131.494 57.623,123.113 41.069 L 121.227 37.342 124.861 37.887 C 126.860 38.187,129.456 38.930,130.631 39.537 M158.097 41.148 C 155.506 46.265,155.523 53.769,158.137 58.931 L 160.023 62.658 156.379 62.126 C 139.316 59.638,140.970 38.419,158.292 37.580 C 159.943 37.500,159.943 37.501,158.097 41.148 M199.607 39.753 C 210.113 45.799,206.177 60.295,193.527 62.140 L 189.789 62.686 191.770 58.961 C 194.506 53.814,194.545 46.367,191.863 41.069 L 189.977 37.342 193.621 37.874 C 195.626 38.166,198.319 39.012,199.607 39.753 M110.156 46.094 C 111.024 46.962,111.719 48.698,111.719 50.000 C 111.719 51.302,111.024 53.038,110.156 53.906 C 106.775 57.288,100.781 54.790,100.781 50.000 C 100.781 46.993,103.243 44.531,106.250 44.531 C 107.552 44.531,109.288 45.226,110.156 46.094 M178.906 46.094 C 179.774 46.962,180.469 48.698,180.469 50.000 C 180.469 51.302,179.774 53.038,178.906 53.906 C 175.525 57.288,169.531 54.790,169.531 50.000 C 169.531 46.993,171.993 44.531,175.000 44.531 C 176.302 44.531,178.038 45.226,178.906 46.094 M62.697 54.334 C 62.917 56.288,64.001 59.627,65.105 61.756 C 66.209 63.884,66.866 65.631,66.564 65.639 C 66.262 65.647,61.353 64.890,55.654 63.957 C 43.676 61.996,44.585 61.629,43.314 68.929 C 42.096 75.917,41.153 75.218,54.688 77.353 C 67.971 79.448,66.744 78.938,65.243 81.730 C 64.577 82.970,63.695 84.951,63.285 86.133 C 62.875 87.314,62.055 88.281,61.464 88.281 C 60.873 88.281,58.749 89.153,56.745 90.219 L 53.100 92.157 48.874 90.288 C 36.199 84.682,18.898 66.714,23.076 63.494 C 29.369 58.644,51.380 51.076,59.859 50.847 C 62.185 50.784,62.315 50.944,62.697 54.334 M220.988 114.844 C 230.893 161.207,261.527 198.316,303.906 215.287 C 307.988 216.922,311.452 218.347,311.603 218.454 C 312.915 219.384,309.733 229.661,308.271 229.220 C 250.141 211.670,209.256 154.046,206.608 85.938 L 206.077 72.266 209.221 69.922 C 212.452 67.513,216.542 62.052,217.703 58.594 C 218.100 57.412,218.533 66.520,218.797 81.641 C 219.181 103.515,219.455 107.666,220.988 114.844 M242.636 61.371 C 246.106 62.403,250.588 63.975,252.597 64.864 L 256.250 66.479 256.250 82.431 C 256.250 118.980,265.569 140.227,292.969 166.148 C 295.762 168.790,299.618 172.579,301.539 174.567 C 303.758 176.865,306.425 178.670,308.857 179.521 C 310.962 180.257,312.857 181.387,313.068 182.031 C 313.279 182.676,314.337 185.022,315.418 187.246 C 317.477 191.481,317.478 191.623,315.485 201.042 C 314.524 205.584,314.290 205.573,303.516 200.464 C 254.270 177.113,231.354 135.875,231.266 70.446 L 231.250 58.470 233.789 58.982 C 235.186 59.264,239.167 60.339,242.636 61.371 M175.016 68.750 C 179.103 68.750,181.045 68.320,183.961 66.770 L 187.686 64.789 187.140 68.527 C 184.795 84.597,165.214 84.673,162.874 68.621 L 162.342 64.977 166.069 66.863 C 168.903 68.298,171.047 68.750,175.016 68.750 M147.284 73.691 C 149.665 74.515,150.380 75.348,151.880 79.039 L 153.657 83.410 151.072 82.330 C 146.836 80.560,139.156 80.941,134.819 83.137 L 131.092 85.023 131.624 81.379 C 132.300 76.739,134.162 73.516,137.441 71.306 L 140.033 69.560 142.248 71.137 C 143.467 72.005,145.733 73.154,147.284 73.691 M276.172 78.408 C 292.080 90.566,304.513 107.211,311.450 125.639 C 313.533 131.172,313.434 131.702,310.193 132.414 C 305.411 133.464,298.897 139.347,295.970 145.257 L 294.257 148.717 291.580 145.648 C 276.828 128.732,270.303 111.194,269.083 85.185 L 268.516 73.104 270.781 74.562 C 272.027 75.364,274.453 77.095,276.172 78.408 M86.328 84.401 C 88.157 87.170,94.764 91.885,97.852 92.624 C 99.551 93.031,100.000 93.588,100.000 95.291 L 100.000 97.444 96.352 95.597 C 91.235 93.006,83.731 93.023,78.569 95.637 L 74.842 97.523 75.374 93.879 C 76.052 89.231,77.913 86.016,81.212 83.792 C 84.503 81.574,84.457 81.568,86.328 84.401 M126.847 91.148 C 124.256 96.265,124.273 103.769,126.887 108.931 L 128.773 112.658 125.129 112.126 C 108.066 109.638,109.720 88.419,127.042 87.580 C 128.693 87.500,128.693 87.501,126.847 91.148 M192.954 93.555 C 192.851 137.156,165.794 185.339,126.624 211.677 C 116.084 218.764,94.108 229.688,90.389 229.688 C 89.993 229.688,88.046 218.705,88.397 218.448 C 88.548 218.337,90.430 217.602,92.578 216.815 C 131.471 202.570,164.428 166.936,175.929 126.694 C 177.298 121.904,178.381 119.883,181.333 116.611 C 186.248 111.162,187.737 106.580,187.382 97.994 C 187.112 91.463,187.136 91.366,189.453 89.472 C 192.830 86.712,192.970 86.875,192.954 93.555 M163.702 91.425 C 165.404 92.295,168.128 93.221,169.755 93.483 C 179.853 95.108,173.694 110.474,162.277 112.140 L 158.539 112.686 160.520 108.961 C 162.839 104.599,163.231 97.012,161.368 92.553 C 160.745 91.063,160.319 89.844,160.422 89.844 C 160.524 89.844,162.000 90.555,163.702 91.425 M147.656 96.094 C 148.524 96.962,149.219 98.698,149.219 100.000 C 149.219 101.302,148.524 103.038,147.656 103.906 C 146.788 104.774,145.052 105.469,143.750 105.469 C 142.448 105.469,140.712 104.774,139.844 103.906 C 136.462 100.525,138.960 94.531,143.750 94.531 C 145.052 94.531,146.788 95.226,147.656 96.094 M70.597 103.648 C 69.581 105.654,68.750 108.467,68.750 109.898 L 68.750 112.500 62.891 112.500 C 51.236 112.500,58.768 100.662,70.792 100.080 C 72.443 100.000,72.443 100.001,70.597 103.648 M91.406 108.594 C 92.274 109.462,92.969 111.198,92.969 112.500 C 92.969 113.802,92.274 115.538,91.406 116.406 C 88.025 119.788,82.031 117.290,82.031 112.500 C 82.031 109.493,84.493 107.031,87.500 107.031 C 88.802 107.031,90.538 107.726,91.406 108.594 M143.766 118.750 C 147.853 118.750,149.795 118.320,152.711 116.770 L 156.436 114.789 155.890 118.527 C 153.545 134.597,133.964 134.673,131.624 118.621 L 131.092 114.977 134.819 116.863 C 137.653 118.298,139.797 118.750,143.766 118.750 M109.558 120.049 C 112.932 122.387,112.649 123.206,108.103 124.261 C 102.380 125.589,102.181 125.452,104.132 121.523 C 106.194 117.373,105.837 117.470,109.558 120.049 M68.788 127.542 C 72.087 129.766,73.948 132.981,74.626 137.629 L 75.158 141.273 71.431 139.387 C 68.600 137.954,66.452 137.500,62.500 137.500 C 58.548 137.500,56.400 137.954,53.569 139.387 L 49.842 141.273 50.374 137.629 C 51.827 127.660,61.280 122.482,68.788 127.542 M343.788 127.542 C 347.087 129.766,348.948 132.981,349.626 137.629 L 350.158 141.273 346.431 139.387 C 343.600 137.954,341.452 137.500,337.500 137.500 C 333.548 137.500,331.400 137.954,328.569 139.387 L 324.842 141.273 325.374 137.629 C 326.827 127.660,336.280 122.482,343.788 127.542 M99.599 131.440 C 98.805 136.730,98.242 137.242,95.427 135.238 C 94.112 134.301,91.703 133.046,90.073 132.448 L 87.109 131.360 89.916 131.305 C 91.460 131.275,94.272 130.419,96.166 129.403 C 100.317 127.176,100.245 127.133,99.599 131.440 M128.758 139.134 C 134.925 143.669,145.016 145.164,152.246 142.613 C 156.190 141.221,156.190 141.211,152.261 148.438 C 139.288 172.296,116.089 192.790,90.102 203.350 L 85.316 205.294 83.959 198.306 L 82.602 191.318 84.575 187.261 C 85.660 185.029,86.721 182.676,86.932 182.031 C 87.143 181.387,89.112 180.231,91.306 179.463 C 100.564 176.223,106.479 166.626,106.180 155.330 C 106.035 149.827,106.225 148.949,108.166 146.147 C 109.347 144.444,110.766 141.732,111.319 140.121 C 112.111 137.818,112.943 136.978,115.211 136.193 C 116.798 135.643,119.023 134.519,120.157 133.693 L 122.217 132.192 123.937 134.523 C 124.883 135.805,127.052 137.880,128.758 139.134 M45.597 147.398 C 43.006 152.515,43.023 160.019,45.637 165.181 L 47.523 168.908 43.879 168.376 C 26.816 165.888,28.470 144.669,45.792 143.830 C 47.443 143.750,47.443 143.751,45.597 147.398 M87.107 146.003 C 97.613 152.049,93.677 166.545,81.027 168.390 L 77.289 168.936 79.270 165.211 C 82.006 160.064,82.045 152.617,79.363 147.319 L 77.477 143.592 81.121 144.124 C 83.126 144.416,85.819 145.262,87.107 146.003 M320.597 147.398 C 318.006 152.515,318.023 160.019,320.637 165.181 L 322.523 168.908 318.879 168.376 C 301.816 165.888,303.470 144.669,320.792 143.830 C 322.443 143.750,322.443 143.751,320.597 147.398 M362.107 146.003 C 372.613 152.049,368.677 166.545,356.027 168.390 L 352.289 168.936 354.270 165.211 C 357.006 160.064,357.045 152.617,354.363 147.319 L 352.477 143.592 356.121 144.124 C 358.126 144.416,360.819 145.262,362.107 146.003 M66.406 152.344 C 67.274 153.212,67.969 154.948,67.969 156.250 C 67.969 157.552,67.274 159.288,66.406 160.156 C 63.025 163.538,57.031 161.040,57.031 156.250 C 57.031 153.243,59.493 150.781,62.500 150.781 C 63.802 150.781,65.538 151.476,66.406 152.344 M341.406 152.344 C 342.274 153.212,342.969 154.948,342.969 156.250 C 342.969 157.552,342.274 159.288,341.406 160.156 C 340.538 161.024,338.802 161.719,337.500 161.719 C 336.198 161.719,334.462 161.024,333.594 160.156 C 332.726 159.288,332.031 157.552,332.031 156.250 C 332.031 154.948,332.726 153.212,333.594 152.344 C 334.462 151.476,336.198 150.781,337.500 150.781 C 338.802 150.781,340.538 151.476,341.406 152.344 M62.516 175.000 C 66.603 175.000,68.545 174.570,71.461 173.020 L 75.186 171.039 74.640 174.777 C 72.295 190.847,52.714 190.923,50.374 174.871 L 49.842 171.227 53.569 173.113 C 56.403 174.548,58.547 175.000,62.516 175.000 M337.516 175.000 C 341.603 175.000,343.545 174.570,346.461 173.020 L 350.186 171.039 349.640 174.777 C 347.295 190.847,327.714 190.923,325.374 174.871 L 324.842 171.227 328.569 173.113 C 331.403 174.548,333.547 175.000,337.516 175.000 M47.928 195.697 L 50.064 197.097 49.837 255.775 L 49.609 314.453 47.812 318.359 C 44.461 325.639,38.711 329.674,30.045 330.828 L 26.105 331.352 33.711 260.793 C 37.894 221.986,41.337 190.068,41.361 189.865 C 41.386 189.662,42.393 190.576,43.599 191.897 C 44.806 193.217,46.754 194.928,47.928 195.697 M366.354 260.967 L 373.895 331.352 369.955 330.828 C 361.289 329.674,355.539 325.639,352.188 318.359 L 350.391 314.453 350.163 255.793 L 349.936 197.132 352.897 195.074 C 354.527 193.943,356.323 192.269,356.890 191.354 C 358.606 188.586,358.568 188.308,366.354 260.967 M78.605 239.500 C 86.511 279.034,86.551 279.291,85.105 281.322 C 82.031 285.639,71.890 291.461,65.430 292.618 L 62.500 293.143 62.500 246.616 L 62.500 200.090 65.820 199.798 C 67.646 199.637,69.480 199.555,69.895 199.614 C 70.311 199.673,74.230 217.622,78.605 239.500 M334.830 200.000 L 337.500 200.000 337.500 246.571 L 337.500 293.143 334.570 292.623 C 326.391 291.173,312.580 281.746,313.581 278.296 C 313.795 277.557,317.348 259.902,321.477 239.063 C 330.011 195.979,329.311 198.907,330.930 199.528 C 331.606 199.788,333.361 200.000,334.830 200.000 M68.750 330.859 L 68.750 356.250 62.500 356.250 L 56.250 356.250 56.246 343.945 L 56.243 331.641 59.133 325.939 C 61.672 320.928,62.063 319.395,62.355 313.286 L 62.687 306.335 65.133 306.027 C 66.478 305.857,67.842 305.663,68.164 305.594 C 68.486 305.525,68.750 316.895,68.750 330.859 M335.515 306.250 C 337.227 306.250,337.324 306.567,337.643 313.243 C 337.938 319.400,338.323 320.919,340.867 325.939 L 343.757 331.641 343.754 343.945 L 343.750 356.250 337.500 356.250 L 331.250 356.250 331.250 330.776 C 331.250 307.868,331.374 305.349,332.486 305.776 C 333.165 306.037,334.529 306.250,335.515 306.250 M106.250 375.000 L 106.250 381.250 62.500 381.250 L 18.750 381.250 18.750 375.000 L 18.750 368.750 62.500 368.750 L 106.250 368.750 106.250 375.000 M381.250 375.000 L 381.250 381.250 337.500 381.250 L 293.750 381.250 293.750 375.000 L 293.750 368.750 337.500 368.750 L 381.250 368.750 381.250 375.000 " stroke="none" fill="#000000" fill-rule="evenodd"></path></g></svg>